G04 #@! TF.GenerationSoftware,KiCad,Pcbnew,8.0.4*
G04 #@! TF.CreationDate,2024-10-24T18:26:57+11:00*
G04 #@! TF.ProjectId,hackrf-one,6861636b-7266-42d6-9f6e-652e6b696361,rev?*
G04 #@! TF.SameCoordinates,Original*
G04 #@! TF.FileFunction,Paste,Top*
G04 #@! TF.FilePolarity,Positive*
%FSLAX45Y45*%
G04 Gerber Fmt 4.5, Leading zero omitted, Abs format (unit mm)*
G04 Created by KiCad (PCBNEW 8.0.4) date 2024-10-24 18:26:57*
%MOMM*%
%LPD*%
G01*
G04 APERTURE LIST*
G04 Aperture macros list*
%AMRoundRect*
0 Rectangle with rounded corners*
0 $1 Rounding radius*
0 $2 $3 $4 $5 $6 $7 $8 $9 X,Y pos of 4 corners*
0 Add a 4 corners polygon primitive as box body*
4,1,4,$2,$3,$4,$5,$6,$7,$8,$9,$2,$3,0*
0 Add four circle primitives for the rounded corners*
1,1,$1+$1,$2,$3*
1,1,$1+$1,$4,$5*
1,1,$1+$1,$6,$7*
1,1,$1+$1,$8,$9*
0 Add four rect primitives between the rounded corners*
20,1,$1+$1,$2,$3,$4,$5,0*
20,1,$1+$1,$4,$5,$6,$7,0*
20,1,$1+$1,$6,$7,$8,$9,0*
20,1,$1+$1,$8,$9,$2,$3,0*%
%AMRotRect*
0 Rectangle, with rotation*
0 The origin of the aperture is its center*
0 $1 length*
0 $2 width*
0 $3 Rotation angle, in degrees counterclockwise*
0 Add horizontal line*
21,1,$1,$2,0,0,$3*%
%AMFreePoly0*
4,1,29,0.240000,-0.747045,0.238776,-0.750000,0.238776,-0.754476,0.233514,-0.761718,0.223415,-0.765000,0.195163,-0.765000,0.191336,-0.765761,0.136205,-0.788597,0.132961,-0.790765,0.090765,-0.832961,0.088597,-0.836205,0.065761,-0.891336,0.065000,-0.895163,0.065000,-0.923414,0.061718,-0.933514,0.054476,-0.938776,0.052955,-0.938776,0.049128,-0.939537,0.048010,-0.940000,-0.235510,-0.940000,
-0.238685,-0.938685,-0.240000,-0.935510,-0.240000,-0.758239,-0.238172,-0.753827,-0.238172,-0.746173,-0.240000,-0.744345,-0.240000,0.740000,0.240000,0.740000,0.240000,-0.747045,0.240000,-0.747045,$1*%
%AMFreePoly1*
4,1,19,0.134436,0.334436,0.148800,0.299760,0.148800,-0.299760,0.134436,-0.334436,0.099761,-0.348800,-0.099761,-0.348800,-0.134436,-0.334436,-0.148800,-0.299760,-0.148800,0.050000,-0.149151,0.050849,-0.150000,0.051200,-0.299761,0.051200,-0.334436,0.065563,-0.348800,0.100239,-0.348800,0.299760,-0.334436,0.334436,-0.299761,0.348800,0.099761,0.348800,0.134436,0.334436,0.134436,0.334436,
$1*%
%AMFreePoly2*
4,1,19,0.334436,0.334436,0.348800,0.299760,0.348800,0.100239,0.334436,0.065563,0.299761,0.051200,0.150000,0.051200,0.149151,0.050849,0.148800,0.050000,0.148800,-0.299760,0.134436,-0.334436,0.099761,-0.348800,-0.099761,-0.348800,-0.134436,-0.334436,-0.148800,-0.299760,-0.148800,0.299760,-0.134436,0.334436,-0.099761,0.348800,0.299761,0.348800,0.334436,0.334436,0.334436,0.334436,
$1*%
%AMFreePoly3*
4,1,19,0.134436,0.334436,0.148800,0.299760,0.148800,-0.050000,0.149151,-0.050849,0.150000,-0.051200,0.299761,-0.051200,0.334436,-0.065563,0.348800,-0.100239,0.348800,-0.299760,0.334436,-0.334436,0.299761,-0.348800,-0.099761,-0.348800,-0.134436,-0.334436,-0.148800,-0.299760,-0.148800,0.299760,-0.134436,0.334436,-0.099761,0.348800,0.099761,0.348800,0.134436,0.334436,0.134436,0.334436,
$1*%
%AMFreePoly4*
4,1,19,0.134436,0.334436,0.148800,0.299760,0.148800,-0.299760,0.134436,-0.334436,0.099761,-0.348800,-0.299761,-0.348800,-0.334436,-0.334436,-0.348800,-0.299760,-0.348800,-0.100239,-0.334436,-0.065563,-0.299761,-0.051200,-0.150000,-0.051200,-0.149151,-0.050849,-0.148800,-0.050000,-0.148800,0.299760,-0.134436,0.334436,-0.099761,0.348800,0.099761,0.348800,0.134436,0.334436,0.134436,0.334436,
$1*%
G04 Aperture macros list end*
%ADD10C,0.000000*%
%ADD11R,2.812592X0.911148*%
%ADD12R,0.656336X0.656336*%
%ADD13R,1.094536X0.874472*%
%ADD14R,0.874472X1.094536*%
%ADD15R,0.424688X0.386080*%
%ADD16R,0.386080X0.424688*%
%ADD17RotRect,0.386080X0.424688X135.000000*%
%ADD18RotRect,0.386080X0.424688X225.000000*%
%ADD19RotRect,0.386080X0.424688X315.000000*%
%ADD20RotRect,0.386080X0.424688X45.000000*%
%ADD21R,0.760000X1.140000*%
%ADD22R,1.558000X2.774000*%
%ADD23R,0.694944X0.694944*%
%ADD24R,0.250952X0.310794*%
%ADD25R,0.310794X0.250952*%
%ADD26R,0.418896X0.189180*%
%ADD27R,0.380288X0.303072*%
%ADD28O,1.026000X0.212800*%
%ADD29O,0.212800X1.026000*%
%ADD30R,0.836000X0.836000*%
%ADD31R,0.455574X0.380288*%
%ADD32R,0.380288X0.532790*%
%ADD33R,0.588000X1.078000*%
%ADD34R,0.608000X0.182400*%
%ADD35R,1.078000X0.588000*%
%ADD36R,0.182400X0.608000*%
%ADD37R,1.140000X1.140000*%
%ADD38O,0.661200X0.186200*%
%ADD39O,0.186200X0.661200*%
%ADD40R,1.254000X1.254000*%
%ADD41O,0.684000X0.212800*%
%ADD42O,0.212800X0.684000*%
%ADD43R,1.003200X1.003200*%
%ADD44O,0.912000X0.243200*%
%ADD45O,0.243200X0.912000*%
%ADD46R,1.447800X0.482600*%
%ADD47R,0.212800X0.532000*%
%ADD48R,0.627000X0.912000*%
%ADD49R,0.646000X0.212800*%
%ADD50RotRect,1.140866X0.223926X315.000000*%
%ADD51RotRect,1.140866X0.223926X225.000000*%
%ADD52R,1.140866X0.223926*%
%ADD53R,0.223926X1.140866*%
%ADD54R,0.911148X1.063650*%
%ADD55RotRect,1.063650X0.911148X45.000000*%
%ADD56R,1.824000X1.140000*%
%ADD57R,0.836000X0.456000*%
%ADD58R,0.750000X0.650000*%
%ADD59RoundRect,0.047500X-0.142500X-0.047500X0.142500X-0.047500X0.142500X0.047500X-0.142500X0.047500X0*%
%ADD60R,0.650000X0.750000*%
%ADD61RoundRect,0.047500X-0.047500X0.142500X-0.047500X-0.142500X0.047500X-0.142500X0.047500X0.142500X0*%
%ADD62R,0.144000X0.288000*%
%ADD63R,0.489600X0.192000*%
%ADD64R,0.288000X0.144000*%
%ADD65R,0.192000X0.489600*%
%ADD66R,0.259200X0.528000*%
%ADD67FreePoly0,270.000000*%
%ADD68FreePoly0,90.000000*%
%ADD69RoundRect,0.114000X0.446500X0.114000X-0.446500X0.114000X-0.446500X-0.114000X0.446500X-0.114000X0*%
%ADD70R,0.266000X0.456000*%
%ADD71FreePoly1,90.000000*%
%ADD72R,0.456000X0.152000*%
%ADD73FreePoly2,90.000000*%
%ADD74FreePoly3,90.000000*%
%ADD75FreePoly4,90.000000*%
%ADD76O,1.520000X0.912000*%
%ADD77O,1.368000X0.912000*%
%ADD78R,0.988000X0.228000*%
G04 APERTURE END LIST*
D10*
G04 #@! TO.C,J11*
G36*
X16239910Y-10810560D02*
G01*
X16110010Y-10810560D01*
X16110010Y-10780560D01*
X16239910Y-10780560D01*
X16239910Y-10810560D01*
G37*
G36*
X16239910Y-10760560D02*
G01*
X16110010Y-10760560D01*
X16110010Y-10730560D01*
X16239910Y-10730560D01*
X16239910Y-10760560D01*
G37*
G36*
X16239910Y-10710560D02*
G01*
X16110010Y-10710560D01*
X16110010Y-10680560D01*
X16239910Y-10680560D01*
X16239910Y-10710560D01*
G37*
G36*
X16239910Y-10660560D02*
G01*
X16110010Y-10660560D01*
X16110010Y-10630560D01*
X16239910Y-10630560D01*
X16239910Y-10660560D01*
G37*
G36*
X16239910Y-10610560D02*
G01*
X16110010Y-10610560D01*
X16110010Y-10580560D01*
X16239910Y-10580560D01*
X16239910Y-10610560D01*
G37*
G36*
X16239910Y-10560560D02*
G01*
X16110010Y-10560560D01*
X16110010Y-10530560D01*
X16239910Y-10530560D01*
X16239910Y-10560560D01*
G37*
G36*
X16239910Y-10510560D02*
G01*
X16110010Y-10510560D01*
X16110010Y-10480560D01*
X16239910Y-10480560D01*
X16239910Y-10510560D01*
G37*
G36*
X16239910Y-10460560D02*
G01*
X16110010Y-10460560D01*
X16110010Y-10430560D01*
X16239910Y-10430560D01*
X16239910Y-10460560D01*
G37*
G36*
X16240010Y-10965560D02*
G01*
X16237710Y-10965560D01*
X16110010Y-10965560D01*
X16110010Y-10915560D01*
X16240010Y-10915560D01*
X16240010Y-10965560D01*
G37*
G36*
X16240010Y-10885560D02*
G01*
X16237710Y-10885560D01*
X16110010Y-10885560D01*
X16110010Y-10835560D01*
X16240010Y-10835560D01*
X16240010Y-10885560D01*
G37*
G36*
X16240010Y-10405560D02*
G01*
X16237710Y-10405560D01*
X16110010Y-10405560D01*
X16110010Y-10355560D01*
X16240010Y-10355560D01*
X16240010Y-10405560D01*
G37*
G36*
X16240010Y-10325560D02*
G01*
X16237710Y-10325560D01*
X16110010Y-10325560D01*
X16110010Y-10275560D01*
X16240010Y-10275560D01*
X16240010Y-10325560D01*
G37*
G04 #@! TD*
D11*
G04 #@! TO.C,L10*
X15403460Y-9941634D03*
X15403460Y-9661726D03*
G04 #@! TD*
G04 #@! TO.C,L11*
X15403460Y-9179634D03*
X15403460Y-8899726D03*
G04 #@! TD*
D12*
G04 #@! TO.C,L2*
X8751360Y-14128920D03*
X8751360Y-14281320D03*
G04 #@! TD*
G04 #@! TO.C,L3*
X8751360Y-13976520D03*
X8751360Y-13824120D03*
G04 #@! TD*
G04 #@! TO.C,L5*
X6301840Y-13473220D03*
X6301840Y-13625620D03*
G04 #@! TD*
G04 #@! TO.C,L12*
X7089240Y-14153940D03*
X6936840Y-14153940D03*
G04 #@! TD*
G04 #@! TO.C,L13*
X5819240Y-14479060D03*
X5819240Y-14326660D03*
G04 #@! TD*
G04 #@! TO.C,L14*
X5816700Y-14788940D03*
X5816700Y-14636540D03*
G04 #@! TD*
D13*
G04 #@! TO.C,C105*
X7597520Y-10762400D03*
X7597520Y-10559200D03*
G04 #@! TD*
D14*
G04 #@! TO.C,C126*
X15733660Y-9966780D03*
X15936860Y-9966780D03*
G04 #@! TD*
G04 #@! TO.C,C127*
X15733660Y-9750880D03*
X15936860Y-9750880D03*
G04 #@! TD*
D13*
G04 #@! TO.C,C143*
X16330560Y-9331780D03*
X16330560Y-9534980D03*
G04 #@! TD*
D14*
G04 #@! TO.C,C145*
X15936860Y-9090480D03*
X15733660Y-9090480D03*
G04 #@! TD*
G04 #@! TO.C,C146*
X15936860Y-8874580D03*
X15733660Y-8874580D03*
G04 #@! TD*
G04 #@! TO.C,FB2*
X7376020Y-10478520D03*
X7172820Y-10478520D03*
G04 #@! TD*
D15*
G04 #@! TO.C,C1*
X7991900Y-14476900D03*
X7991900Y-14583580D03*
G04 #@! TD*
G04 #@! TO.C,C2*
X7890300Y-14476900D03*
X7890300Y-14583580D03*
G04 #@! TD*
G04 #@! TO.C,C3*
X8195100Y-14476900D03*
X8195100Y-14583580D03*
G04 #@! TD*
G04 #@! TO.C,C4*
X8093500Y-14476900D03*
X8093500Y-14583580D03*
G04 #@! TD*
G04 #@! TO.C,C5*
X8116360Y-13511700D03*
X8116360Y-13405020D03*
G04 #@! TD*
G04 #@! TO.C,C6*
X8217960Y-13511700D03*
X8217960Y-13405020D03*
G04 #@! TD*
D16*
G04 #@! TO.C,C7*
X9644000Y-15083180D03*
X9537320Y-15083180D03*
G04 #@! TD*
D15*
G04 #@! TO.C,C8*
X10274160Y-13717020D03*
X10274160Y-13823700D03*
G04 #@! TD*
G04 #@! TO.C,C9*
X7422260Y-13195720D03*
X7422260Y-13089040D03*
G04 #@! TD*
G04 #@! TO.C,C12*
X7661700Y-13554880D03*
X7661700Y-13661560D03*
G04 #@! TD*
D16*
G04 #@! TO.C,C13*
X7791240Y-13316120D03*
X7684560Y-13316120D03*
G04 #@! TD*
D15*
G04 #@! TO.C,C14*
X7915700Y-13547260D03*
X7915700Y-13440580D03*
G04 #@! TD*
D16*
G04 #@! TO.C,C15*
X7913160Y-13316120D03*
X8019840Y-13316120D03*
G04 #@! TD*
D15*
G04 #@! TO.C,C16*
X9568280Y-14717820D03*
X9568280Y-14611140D03*
G04 #@! TD*
D16*
G04 #@! TO.C,C17*
X7122500Y-12419380D03*
X7229180Y-12419380D03*
G04 #@! TD*
G04 #@! TO.C,C18*
X6716100Y-12419380D03*
X6822780Y-12419380D03*
G04 #@! TD*
G04 #@! TO.C,C20*
X7589620Y-12378440D03*
X7696300Y-12378440D03*
G04 #@! TD*
G04 #@! TO.C,C21*
X9179420Y-14763500D03*
X9072740Y-14763500D03*
G04 #@! TD*
G04 #@! TO.C,C22*
X8402420Y-14827040D03*
X8509100Y-14827040D03*
G04 #@! TD*
D15*
G04 #@! TO.C,C23*
X9009240Y-13396980D03*
X9009240Y-13290300D03*
G04 #@! TD*
G04 #@! TO.C,C24*
X8150960Y-12528340D03*
X8150960Y-12635020D03*
G04 #@! TD*
D16*
G04 #@! TO.C,C25*
X8548160Y-14598820D03*
X8654840Y-14598820D03*
G04 #@! TD*
G04 #@! TO.C,C26*
X6822780Y-12114580D03*
X6716100Y-12114580D03*
G04 #@! TD*
G04 #@! TO.C,C27*
X7122500Y-12114580D03*
X7229180Y-12114580D03*
G04 #@! TD*
G04 #@! TO.C,C28*
X8548160Y-14713120D03*
X8654840Y-14713120D03*
G04 #@! TD*
D15*
G04 #@! TO.C,C30*
X7355940Y-12632480D03*
X7355940Y-12525800D03*
G04 #@! TD*
G04 #@! TO.C,C31*
X6441780Y-12523520D03*
X6441780Y-12416840D03*
G04 #@! TD*
D16*
G04 #@! TO.C,C32*
X9179420Y-15106400D03*
X9072740Y-15106400D03*
G04 #@! TD*
D15*
G04 #@! TO.C,C33*
X8893600Y-14692800D03*
X8893600Y-14586120D03*
G04 #@! TD*
G04 #@! TO.C,C34*
X8713260Y-13471060D03*
X8713260Y-13364380D03*
G04 #@! TD*
G04 #@! TO.C,C35*
X8598960Y-13394860D03*
X8598960Y-13288180D03*
G04 #@! TD*
G04 #@! TO.C,C36*
X8484660Y-13356760D03*
X8484660Y-13250080D03*
G04 #@! TD*
D16*
G04 #@! TO.C,C37*
X8309400Y-13217060D03*
X8202720Y-13217060D03*
G04 #@! TD*
G04 #@! TO.C,C38*
X6073480Y-12508280D03*
X6180160Y-12508280D03*
G04 #@! TD*
D15*
G04 #@! TO.C,C39*
X7012800Y-13013440D03*
X7012800Y-12906760D03*
G04 #@! TD*
D16*
G04 #@! TO.C,C40*
X6073480Y-12632740D03*
X6180160Y-12632740D03*
G04 #@! TD*
G04 #@! TO.C,C41*
X8761520Y-14408320D03*
X8868200Y-14408320D03*
G04 #@! TD*
G04 #@! TO.C,C42*
X8741200Y-13697120D03*
X8634520Y-13697120D03*
G04 #@! TD*
G04 #@! TO.C,C43*
X6136500Y-12767060D03*
X6029820Y-12767060D03*
G04 #@! TD*
D15*
G04 #@! TO.C,C44*
X6746340Y-13221720D03*
X6746340Y-13115040D03*
G04 #@! TD*
D16*
G04 #@! TO.C,C45*
X9151720Y-13897400D03*
X9258400Y-13897400D03*
G04 #@! TD*
G04 #@! TO.C,C46*
X9248240Y-14042180D03*
X9141560Y-14042180D03*
G04 #@! TD*
D15*
G04 #@! TO.C,C47*
X10098900Y-13935460D03*
X10098900Y-13828780D03*
G04 #@! TD*
G04 #@! TO.C,C48*
X9850220Y-13678920D03*
X9850220Y-13572240D03*
G04 #@! TD*
G04 #@! TO.C,C49*
X8967260Y-13796180D03*
X8967260Y-13902860D03*
G04 #@! TD*
G04 #@! TO.C,C50*
X6479640Y-13620540D03*
X6479640Y-13513860D03*
G04 #@! TD*
D16*
G04 #@! TO.C,C51*
X9713060Y-14171720D03*
X9606380Y-14171720D03*
G04 #@! TD*
G04 #@! TO.C,C52*
X6017360Y-13478300D03*
X5910680Y-13478300D03*
G04 #@! TD*
G04 #@! TO.C,C53*
X6017360Y-13371620D03*
X5910680Y-13371620D03*
G04 #@! TD*
D15*
G04 #@! TO.C,C54*
X9321900Y-14212360D03*
X9321900Y-14319040D03*
G04 #@! TD*
D16*
G04 #@! TO.C,C55*
X6902180Y-13319440D03*
X7008860Y-13319440D03*
G04 #@! TD*
D15*
G04 #@! TO.C,C56*
X9621380Y-13765280D03*
X9621380Y-13658600D03*
G04 #@! TD*
G04 #@! TO.C,C57*
X6621880Y-13211600D03*
X6621880Y-13104920D03*
G04 #@! TD*
G04 #@! TO.C,C58*
X5806540Y-13755160D03*
X5806540Y-13648480D03*
G04 #@! TD*
D16*
G04 #@! TO.C,C59*
X6817460Y-13673880D03*
X6924140Y-13673880D03*
G04 #@! TD*
D15*
G04 #@! TO.C,C60*
X6497420Y-13282720D03*
X6497420Y-13389400D03*
G04 #@! TD*
G04 #@! TO.C,C61*
X6532980Y-13922800D03*
X6532980Y-13816120D03*
G04 #@! TD*
G04 #@! TO.C,C63*
X6746340Y-14509540D03*
X6746340Y-14616220D03*
G04 #@! TD*
G04 #@! TO.C,C64*
X6393280Y-14377460D03*
X6393280Y-14484140D03*
G04 #@! TD*
G04 #@! TO.C,C65*
X6639660Y-14616220D03*
X6639660Y-14509540D03*
G04 #@! TD*
G04 #@! TO.C,C66*
X6532980Y-14616220D03*
X6532980Y-14509540D03*
G04 #@! TD*
G04 #@! TO.C,C67*
X10990280Y-14601860D03*
X10990280Y-14708540D03*
G04 #@! TD*
G04 #@! TO.C,C68*
X11628500Y-13851040D03*
X11628500Y-13744360D03*
G04 #@! TD*
D16*
G04 #@! TO.C,C69*
X11737720Y-13652920D03*
X11844400Y-13652920D03*
G04 #@! TD*
D15*
G04 #@! TO.C,C70*
X10990280Y-14805060D03*
X10990280Y-14911740D03*
G04 #@! TD*
G04 #@! TO.C,C71*
X8930500Y-10028000D03*
X8930500Y-10134680D03*
G04 #@! TD*
G04 #@! TO.C,C72*
X8828900Y-10028000D03*
X8828900Y-10134680D03*
G04 #@! TD*
G04 #@! TO.C,C73*
X9222600Y-10028000D03*
X9222600Y-10134680D03*
G04 #@! TD*
G04 #@! TO.C,C74*
X9121000Y-10028000D03*
X9121000Y-10134680D03*
G04 #@! TD*
G04 #@! TO.C,C75*
X9425800Y-10028000D03*
X9425800Y-10134680D03*
G04 #@! TD*
G04 #@! TO.C,C76*
X9527400Y-10028000D03*
X9527400Y-10134680D03*
G04 #@! TD*
G04 #@! TO.C,C77*
X9044800Y-8915480D03*
X9044800Y-8808800D03*
G04 #@! TD*
G04 #@! TO.C,C78*
X8943200Y-8915480D03*
X8943200Y-8808800D03*
G04 #@! TD*
D16*
G04 #@! TO.C,C79*
X8609190Y-9274890D03*
X8502510Y-9274890D03*
G04 #@! TD*
D15*
G04 #@! TO.C,C80*
X8606650Y-9163130D03*
X8606650Y-9056450D03*
G04 #@! TD*
D16*
G04 #@! TO.C,C81*
X8545690Y-9541590D03*
X8439010Y-9541590D03*
G04 #@! TD*
G04 #@! TO.C,C82*
X8545690Y-9439990D03*
X8439010Y-9439990D03*
G04 #@! TD*
G04 #@! TO.C,C83*
X8571090Y-9757490D03*
X8464410Y-9757490D03*
G04 #@! TD*
D15*
G04 #@! TO.C,C84*
X9480410Y-12920730D03*
X9480410Y-13027410D03*
G04 #@! TD*
G04 #@! TO.C,C85*
X9785210Y-12920730D03*
X9785210Y-13027410D03*
G04 #@! TD*
G04 #@! TO.C,C86*
X10255110Y-12692130D03*
X10255110Y-12798810D03*
G04 #@! TD*
D16*
G04 #@! TO.C,C87*
X10252570Y-12415270D03*
X10359250Y-12415270D03*
G04 #@! TD*
G04 #@! TO.C,C88*
X10328770Y-12313670D03*
X10435450Y-12313670D03*
G04 #@! TD*
G04 #@! TO.C,C89*
X10252570Y-12212070D03*
X10359250Y-12212070D03*
G04 #@! TD*
D15*
G04 #@! TO.C,C90*
X9874110Y-11909810D03*
X9874110Y-11803130D03*
G04 #@! TD*
G04 #@! TO.C,C91*
X9975710Y-11909810D03*
X9975710Y-11803130D03*
G04 #@! TD*
D16*
G04 #@! TO.C,C92*
X9241650Y-12237470D03*
X9134970Y-12237470D03*
G04 #@! TD*
G04 #@! TO.C,C93*
X9241650Y-12339070D03*
X9134970Y-12339070D03*
G04 #@! TD*
G04 #@! TO.C,C94*
X9241650Y-12580370D03*
X9134970Y-12580370D03*
G04 #@! TD*
G04 #@! TO.C,C95*
X8074520Y-10571560D03*
X8181200Y-10571560D03*
G04 #@! TD*
G04 #@! TO.C,C96*
X8386940Y-10571560D03*
X8493620Y-10571560D03*
G04 #@! TD*
D15*
G04 #@! TO.C,C97*
X8524100Y-10028000D03*
X8524100Y-10134680D03*
G04 #@! TD*
G04 #@! TO.C,C98*
X8625700Y-10028000D03*
X8625700Y-10134680D03*
G04 #@! TD*
G04 #@! TO.C,C99*
X9582010Y-13022330D03*
X9582010Y-13129010D03*
G04 #@! TD*
G04 #@! TO.C,C100*
X8727300Y-10028000D03*
X8727300Y-10134680D03*
G04 #@! TD*
D16*
G04 #@! TO.C,C101*
X8893670Y-10595690D03*
X9000350Y-10595690D03*
G04 #@! TD*
D15*
G04 #@! TO.C,C102*
X9683610Y-13022330D03*
X9683610Y-13129010D03*
G04 #@! TD*
D16*
G04 #@! TO.C,C103*
X9206090Y-10595690D03*
X9312770Y-10595690D03*
G04 #@! TD*
D15*
G04 #@! TO.C,C104*
X9886810Y-13022330D03*
X9886810Y-13129010D03*
G04 #@! TD*
G04 #@! TO.C,C106*
X10077310Y-11909810D03*
X10077310Y-11803130D03*
G04 #@! TD*
G04 #@! TO.C,C107*
X9329280Y-10495360D03*
X9329280Y-10388680D03*
G04 #@! TD*
G04 #@! TO.C,C108*
X9202280Y-10495360D03*
X9202280Y-10388680D03*
G04 #@! TD*
G04 #@! TO.C,C109*
X9016860Y-10495360D03*
X9016860Y-10388680D03*
G04 #@! TD*
G04 #@! TO.C,C110*
X8889860Y-10495360D03*
X8889860Y-10388680D03*
G04 #@! TD*
G04 #@! TO.C,C111*
X9988410Y-13022330D03*
X9988410Y-13129010D03*
G04 #@! TD*
G04 #@! TO.C,C112*
X10255110Y-12006330D03*
X10255110Y-12113010D03*
G04 #@! TD*
G04 #@! TO.C,C113*
X11197380Y-14718820D03*
X11197380Y-14825500D03*
G04 #@! TD*
G04 #@! TO.C,C114*
X10559910Y-12006330D03*
X10559910Y-12113010D03*
G04 #@! TD*
D16*
G04 #@! TO.C,C115*
X11217020Y-14386980D03*
X11110340Y-14386980D03*
G04 #@! TD*
G04 #@! TO.C,C116*
X11021440Y-14280300D03*
X10914760Y-14280300D03*
G04 #@! TD*
G04 #@! TO.C,C118*
X15025600Y-13735560D03*
X14918920Y-13735560D03*
G04 #@! TD*
D15*
G04 #@! TO.C,C119*
X11806980Y-14127000D03*
X11806980Y-14020320D03*
G04 #@! TD*
G04 #@! TO.C,C120*
X12045060Y-14341260D03*
X12045060Y-14234580D03*
G04 #@! TD*
D16*
G04 #@! TO.C,C121*
X11138280Y-14496200D03*
X11031600Y-14496200D03*
G04 #@! TD*
G04 #@! TO.C,C122*
X11519280Y-14056780D03*
X11412600Y-14056780D03*
G04 #@! TD*
G04 #@! TO.C,C123*
X9728060Y-9531430D03*
X9834740Y-9531430D03*
G04 #@! TD*
G04 #@! TO.C,C124*
X9728060Y-9429830D03*
X9834740Y-9429830D03*
G04 #@! TD*
G04 #@! TO.C,C125*
X16175620Y-10004880D03*
X16282300Y-10004880D03*
G04 #@! TD*
D17*
G04 #@! TO.C,C128*
X14004605Y-10591212D03*
X13929171Y-10515778D03*
G04 #@! TD*
G04 #@! TO.C,C129*
X13313125Y-10797758D03*
X13237691Y-10722324D03*
G04 #@! TD*
G04 #@! TO.C,C130*
X12675527Y-11435356D03*
X12600093Y-11359922D03*
G04 #@! TD*
D16*
G04 #@! TO.C,C131*
X12225400Y-11925720D03*
X12118720Y-11925720D03*
G04 #@! TD*
D18*
G04 #@! TO.C,C132*
X12369797Y-12759223D03*
X12294363Y-12834657D03*
G04 #@! TD*
G04 #@! TO.C,C133*
X12962895Y-13335578D03*
X12887461Y-13411012D03*
G04 #@! TD*
G04 #@! TO.C,C134*
X13420888Y-13793571D03*
X13345454Y-13869005D03*
G04 #@! TD*
D19*
G04 #@! TO.C,C135*
X14225519Y-13757650D03*
X14300953Y-13833084D03*
G04 #@! TD*
G04 #@! TO.C,C136*
X14791275Y-13191894D03*
X14866710Y-13267328D03*
G04 #@! TD*
G04 #@! TO.C,C137*
X14934959Y-13048210D03*
X15010394Y-13123644D03*
G04 #@! TD*
G04 #@! TO.C,C138*
X15141505Y-12841664D03*
X15216940Y-12917098D03*
G04 #@! TD*
G04 #@! TO.C,C139*
X15285189Y-12697980D03*
X15360624Y-12773414D03*
G04 #@! TD*
G04 #@! TO.C,C140*
X15339071Y-11835875D03*
X15414505Y-11911310D03*
G04 #@! TD*
D20*
G04 #@! TO.C,C141*
X14575749Y-11022264D03*
X14651183Y-10946830D03*
G04 #@! TD*
G04 #@! TO.C,C142*
X14854137Y-11318613D03*
X14929571Y-11243178D03*
G04 #@! TD*
D16*
G04 #@! TO.C,C144*
X14297520Y-14283440D03*
X14190840Y-14283440D03*
G04 #@! TD*
D15*
G04 #@! TO.C,C147*
X16165460Y-9380040D03*
X16165460Y-9486720D03*
G04 #@! TD*
G04 #@! TO.C,C148*
X12649060Y-9988300D03*
X12649060Y-10094980D03*
G04 #@! TD*
D16*
G04 #@! TO.C,C149*
X12687680Y-9395880D03*
X12794360Y-9395880D03*
G04 #@! TD*
D15*
G04 #@! TO.C,C150*
X11963260Y-8837680D03*
X11963260Y-8731000D03*
G04 #@! TD*
G04 #@! TO.C,C151*
X10591660Y-9117080D03*
X10591660Y-9010400D03*
G04 #@! TD*
D16*
G04 #@! TO.C,C152*
X11270360Y-11026560D03*
X11377040Y-11026560D03*
G04 #@! TD*
G04 #@! TO.C,C153*
X10391000Y-9927340D03*
X10284320Y-9927340D03*
G04 #@! TD*
G04 #@! TO.C,C154*
X10785220Y-10894480D03*
X10678540Y-10894480D03*
G04 #@! TD*
G04 #@! TO.C,C156*
X11211940Y-14125360D03*
X11105260Y-14125360D03*
G04 #@! TD*
D20*
G04 #@! TO.C,C157*
X15276209Y-11686803D03*
X15351643Y-11611369D03*
G04 #@! TD*
D19*
G04 #@! TO.C,C158*
X15330091Y-11234198D03*
X15405525Y-11309632D03*
G04 #@! TD*
D16*
G04 #@! TO.C,C159*
X12034900Y-13322720D03*
X11928220Y-13322720D03*
G04 #@! TD*
D15*
G04 #@! TO.C,C160*
X7190840Y-13727220D03*
X7190840Y-13833900D03*
G04 #@! TD*
D16*
G04 #@! TO.C,C162*
X6984592Y-14299736D03*
X6877912Y-14299736D03*
G04 #@! TD*
G04 #@! TO.C,C163*
X5912966Y-13263416D03*
X6019646Y-13263416D03*
G04 #@! TD*
G04 #@! TO.C,C164*
X15028920Y-13415560D03*
X15135600Y-13415560D03*
G04 #@! TD*
G04 #@! TO.C,C165*
X12405740Y-14905140D03*
X12299060Y-14905140D03*
G04 #@! TD*
D15*
G04 #@! TO.C,C166*
X10853800Y-14785760D03*
X10853800Y-14892440D03*
G04 #@! TD*
G04 #@! TO.C,C167*
X7061580Y-10183280D03*
X7061580Y-10289960D03*
G04 #@! TD*
D16*
G04 #@! TO.C,C168*
X12911200Y-10975760D03*
X12804520Y-10975760D03*
G04 #@! TD*
G04 #@! TO.C,C169*
X11673700Y-15215620D03*
X11567020Y-15215620D03*
G04 #@! TD*
D15*
G04 #@! TO.C,C170*
X11132260Y-15098900D03*
X11132260Y-14992220D03*
G04 #@! TD*
D16*
G04 #@! TO.C,C171*
X6621880Y-14954040D03*
X6728560Y-14954040D03*
G04 #@! TD*
G04 #@! TO.C,L1*
X8344960Y-14459120D03*
X8451640Y-14459120D03*
G04 #@! TD*
D15*
G04 #@! TO.C,L4*
X8624360Y-13999380D03*
X8624360Y-14106060D03*
G04 #@! TD*
D16*
G04 #@! TO.C,L6*
X9579470Y-13228070D03*
X9686150Y-13228070D03*
G04 #@! TD*
G04 #@! TO.C,L7*
X9579470Y-12923270D03*
X9686150Y-12923270D03*
G04 #@! TD*
G04 #@! TO.C,L8*
X9884270Y-13228070D03*
X9990950Y-13228070D03*
G04 #@! TD*
G04 #@! TO.C,L9*
X9884270Y-12923270D03*
X9990950Y-12923270D03*
G04 #@! TD*
D15*
G04 #@! TO.C,R1*
X7788700Y-13440580D03*
X7788700Y-13547260D03*
G04 #@! TD*
D16*
G04 #@! TO.C,R2*
X7905540Y-13189120D03*
X7798860Y-13189120D03*
G04 #@! TD*
D15*
G04 #@! TO.C,R3*
X8017300Y-13547260D03*
X8017300Y-13440580D03*
G04 #@! TD*
G04 #@! TO.C,R4*
X8319560Y-13405020D03*
X8319560Y-13511700D03*
G04 #@! TD*
D19*
G04 #@! TO.C,R5*
X12680443Y-11280943D03*
X12755877Y-11356377D03*
G04 #@! TD*
G04 #@! TO.C,R6*
X12756643Y-11204743D03*
X12832077Y-11280177D03*
G04 #@! TD*
D15*
G04 #@! TO.C,R7*
X5669660Y-10673500D03*
X5669660Y-10566820D03*
G04 #@! TD*
G04 #@! TO.C,R8*
X8064360Y-10365820D03*
X8064360Y-10472500D03*
G04 #@! TD*
G04 #@! TO.C,R9*
X8191360Y-10365820D03*
X8191360Y-10472500D03*
G04 #@! TD*
G04 #@! TO.C,R10*
X8376780Y-10365820D03*
X8376780Y-10472500D03*
G04 #@! TD*
D16*
G04 #@! TO.C,R11*
X13538580Y-10564280D03*
X13431900Y-10564280D03*
G04 #@! TD*
D15*
G04 #@! TO.C,R13*
X8503780Y-10365820D03*
X8503780Y-10472500D03*
G04 #@! TD*
G04 #@! TO.C,R14*
X8503780Y-10670620D03*
X8503780Y-10777300D03*
G04 #@! TD*
G04 #@! TO.C,R15*
X8376780Y-10670620D03*
X8376780Y-10777300D03*
G04 #@! TD*
G04 #@! TO.C,R16*
X8191360Y-10670620D03*
X8191360Y-10777300D03*
G04 #@! TD*
G04 #@! TO.C,R17*
X8064360Y-10670620D03*
X8064360Y-10777300D03*
G04 #@! TD*
D16*
G04 #@! TO.C,R18*
X5159120Y-11559960D03*
X5265800Y-11559960D03*
G04 #@! TD*
D15*
G04 #@! TO.C,R19*
X5778880Y-9484780D03*
X5778880Y-9378100D03*
G04 #@! TD*
G04 #@! TO.C,R20*
X8883510Y-10694750D03*
X8883510Y-10801430D03*
G04 #@! TD*
G04 #@! TO.C,R21*
X9010510Y-10694750D03*
X9010510Y-10801430D03*
G04 #@! TD*
G04 #@! TO.C,R22*
X9195930Y-10694750D03*
X9195930Y-10801430D03*
G04 #@! TD*
G04 #@! TO.C,R23*
X9322930Y-10694750D03*
X9322930Y-10801430D03*
G04 #@! TD*
D16*
G04 #@! TO.C,R25*
X10354170Y-12110470D03*
X10460850Y-12110470D03*
G04 #@! TD*
G04 #@! TO.C,R26*
X10354170Y-12008870D03*
X10460850Y-12008870D03*
G04 #@! TD*
G04 #@! TO.C,R27*
X12245720Y-14356500D03*
X12352400Y-14356500D03*
G04 #@! TD*
G04 #@! TO.C,R28*
X12172060Y-14044080D03*
X12278740Y-14044080D03*
G04 #@! TD*
D15*
G04 #@! TO.C,R30*
X5778880Y-10780180D03*
X5778880Y-10673500D03*
G04 #@! TD*
G04 #@! TO.C,R31*
X11625960Y-13955180D03*
X11625960Y-14061860D03*
G04 #@! TD*
G04 #@! TO.C,R32*
X11737720Y-13812940D03*
X11737720Y-13919620D03*
G04 #@! TD*
G04 #@! TO.C,R33*
X12375260Y-14798460D03*
X12375260Y-14691780D03*
G04 #@! TD*
D16*
G04 #@! TO.C,R34*
X11216500Y-14237720D03*
X11323180Y-14237720D03*
G04 #@! TD*
G04 #@! TO.C,R37*
X14838920Y-10575560D03*
X14945600Y-10575560D03*
G04 #@! TD*
G04 #@! TO.C,R41*
X12804520Y-10848760D03*
X12911200Y-10848760D03*
G04 #@! TD*
G04 #@! TO.C,R46*
X16282300Y-9801680D03*
X16175620Y-9801680D03*
G04 #@! TD*
G04 #@! TO.C,R47*
X16175620Y-9903280D03*
X16282300Y-9903280D03*
G04 #@! TD*
G04 #@! TO.C,R48*
X15463900Y-13249060D03*
X15357220Y-13249060D03*
G04 #@! TD*
D15*
G04 #@! TO.C,R49*
X5669660Y-9271420D03*
X5669660Y-9378100D03*
G04 #@! TD*
D16*
G04 #@! TO.C,R51*
X14915600Y-10055560D03*
X14808920Y-10055560D03*
G04 #@! TD*
D15*
G04 #@! TO.C,R52*
X16542260Y-9228900D03*
X16542260Y-9122220D03*
G04 #@! TD*
D16*
G04 #@! TO.C,R54*
X15172320Y-9420680D03*
X15279000Y-9420680D03*
G04 #@! TD*
G04 #@! TO.C,R55*
X16282300Y-9166680D03*
X16175620Y-9166680D03*
G04 #@! TD*
G04 #@! TO.C,R56*
X16282300Y-9065080D03*
X16175620Y-9065080D03*
G04 #@! TD*
D15*
G04 #@! TO.C,R57*
X15132260Y-10698900D03*
X15132260Y-10592220D03*
G04 #@! TD*
G04 #@! TO.C,R58*
X14962260Y-10798900D03*
X14962260Y-10692220D03*
G04 #@! TD*
D16*
G04 #@! TO.C,R59*
X13038200Y-13863740D03*
X12931520Y-13863740D03*
G04 #@! TD*
G04 #@! TO.C,R62*
X14748920Y-10315560D03*
X14855600Y-10315560D03*
G04 #@! TD*
D15*
G04 #@! TO.C,R63*
X14501240Y-10175660D03*
X14501240Y-10282340D03*
G04 #@! TD*
G04 #@! TO.C,R64*
X14386940Y-10391560D03*
X14386940Y-10284880D03*
G04 #@! TD*
D16*
G04 #@! TO.C,R65*
X14845600Y-10455560D03*
X14738920Y-10455560D03*
G04 #@! TD*
G04 #@! TO.C,R66*
X14620620Y-9885560D03*
X14513940Y-9885560D03*
G04 #@! TD*
G04 #@! TO.C,R67*
X12911200Y-10594760D03*
X12804520Y-10594760D03*
G04 #@! TD*
G04 #@! TO.C,R68*
X12911200Y-10721760D03*
X12804520Y-10721760D03*
G04 #@! TD*
D20*
G04 #@! TO.C,R69*
X14656572Y-11103087D03*
X14732006Y-11027652D03*
G04 #@! TD*
D16*
G04 #@! TO.C,R72*
X5159120Y-12017160D03*
X5265800Y-12017160D03*
G04 #@! TD*
G04 #@! TO.C,R73*
X5159120Y-12474360D03*
X5265800Y-12474360D03*
G04 #@! TD*
G04 #@! TO.C,R74*
X5159120Y-12931560D03*
X5265800Y-12931560D03*
G04 #@! TD*
G04 #@! TO.C,R75*
X5133720Y-9896260D03*
X5240400Y-9896260D03*
G04 #@! TD*
G04 #@! TO.C,R76*
X5159120Y-11166260D03*
X5265800Y-11166260D03*
G04 #@! TD*
G04 #@! TO.C,R77*
X12969100Y-9698740D03*
X12862420Y-9698740D03*
G04 #@! TD*
G04 #@! TO.C,R78*
X12969100Y-9800340D03*
X12862420Y-9800340D03*
G04 #@! TD*
G04 #@! TO.C,R79*
X12969100Y-9901940D03*
X12862420Y-9901940D03*
G04 #@! TD*
G04 #@! TO.C,R80*
X12969100Y-10003540D03*
X12862420Y-10003540D03*
G04 #@! TD*
G04 #@! TO.C,R81*
X12969100Y-10105140D03*
X12862420Y-10105140D03*
G04 #@! TD*
D15*
G04 #@! TO.C,R85*
X12039980Y-15100720D03*
X12039980Y-15207400D03*
G04 #@! TD*
D16*
G04 #@! TO.C,R86*
X12969100Y-10206740D03*
X12862420Y-10206740D03*
G04 #@! TD*
G04 #@! TO.C,R87*
X12969100Y-10308340D03*
X12862420Y-10308340D03*
G04 #@! TD*
D15*
G04 #@! TO.C,R88*
X12316840Y-11125620D03*
X12316840Y-11018940D03*
G04 #@! TD*
G04 #@! TO.C,R89*
X12163920Y-11128760D03*
X12163920Y-11022080D03*
G04 #@! TD*
G04 #@! TO.C,R90*
X12062320Y-11128760D03*
X12062320Y-11022080D03*
G04 #@! TD*
G04 #@! TO.C,R91*
X11960720Y-11128760D03*
X11960720Y-11022080D03*
G04 #@! TD*
D16*
G04 #@! TO.C,R93*
X13038200Y-13744360D03*
X12931520Y-13744360D03*
G04 #@! TD*
G04 #@! TO.C,R94*
X12156820Y-14468260D03*
X12050140Y-14468260D03*
G04 #@! TD*
D15*
G04 #@! TO.C,R96*
X11859120Y-11128760D03*
X11859120Y-11022080D03*
G04 #@! TD*
G04 #@! TO.C,R98*
X11752960Y-11130700D03*
X11752960Y-11024020D03*
G04 #@! TD*
G04 #@! TO.C,R99*
X11651360Y-11130700D03*
X11651360Y-11024020D03*
G04 #@! TD*
G04 #@! TO.C,R100*
X11549760Y-11130700D03*
X11549760Y-11024020D03*
G04 #@! TD*
D16*
G04 #@! TO.C,R104*
X11746020Y-15026160D03*
X11639340Y-15026160D03*
G04 #@! TD*
D15*
G04 #@! TO.C,R105*
X12060980Y-14800100D03*
X12060980Y-14693420D03*
G04 #@! TD*
D16*
G04 #@! TO.C,C62*
X6693000Y-14207280D03*
X6586320Y-14207280D03*
G04 #@! TD*
D15*
G04 #@! TO.C,C161*
X7084160Y-13727220D03*
X7084160Y-13833900D03*
G04 #@! TD*
G04 #@! TO.C,R36*
X6621880Y-15167400D03*
X6621880Y-15060720D03*
G04 #@! TD*
D16*
G04 #@! TO.C,C117*
X6263740Y-13960900D03*
X6157060Y-13960900D03*
G04 #@! TD*
D15*
G04 #@! TO.C,C172*
X5946240Y-14237760D03*
X5946240Y-14344440D03*
G04 #@! TD*
D16*
G04 #@! TO.C,R38*
X6118960Y-14062500D03*
X6012280Y-14062500D03*
G04 #@! TD*
G04 #@! TO.C,R39*
X6233260Y-14758460D03*
X6126580Y-14758460D03*
G04 #@! TD*
G04 #@! TO.C,R40*
X6121500Y-14405400D03*
X6228180Y-14405400D03*
G04 #@! TD*
D15*
G04 #@! TO.C,C173*
X6141820Y-14875300D03*
X6141820Y-14981980D03*
G04 #@! TD*
G04 #@! TO.C,R42*
X5943700Y-14766080D03*
X5943700Y-14659400D03*
G04 #@! TD*
G04 #@! TO.C,R43*
X5946240Y-14552720D03*
X5946240Y-14446040D03*
G04 #@! TD*
G04 #@! TO.C,R44*
X6027520Y-14875300D03*
X6027520Y-14981980D03*
G04 #@! TD*
D16*
G04 #@! TO.C,C10*
X7592160Y-12573720D03*
X7698840Y-12573720D03*
G04 #@! TD*
D15*
G04 #@! TO.C,C29*
X6497420Y-12109240D03*
X6497420Y-12002560D03*
G04 #@! TD*
G04 #@! TO.C,R29*
X16412260Y-9978900D03*
X16412260Y-9872220D03*
G04 #@! TD*
G04 #@! TO.C,R24*
X16522260Y-9978900D03*
X16522260Y-9872220D03*
G04 #@! TD*
D21*
G04 #@! TO.C,D6*
X5009260Y-13234360D03*
X5009260Y-12984360D03*
G04 #@! TD*
G04 #@! TO.C,D4*
X5009260Y-12319960D03*
X5009260Y-12069960D03*
G04 #@! TD*
G04 #@! TO.C,D8*
X5009260Y-11405560D03*
X5009260Y-11155560D03*
G04 #@! TD*
G04 #@! TO.C,D5*
X5009260Y-12777160D03*
X5009260Y-12527160D03*
G04 #@! TD*
G04 #@! TO.C,D2*
X5009260Y-11862760D03*
X5009260Y-11612760D03*
G04 #@! TD*
G04 #@! TO.C,D7*
X4982260Y-10140560D03*
X4982260Y-9890560D03*
G04 #@! TD*
D22*
G04 #@! TO.C,J10*
X10282260Y-11175560D03*
G04 #@! TD*
D23*
G04 #@! TO.C,Q3*
X7297800Y-10091840D03*
X7475600Y-10091840D03*
X7386700Y-10295040D03*
G04 #@! TD*
G04 #@! TO.C,Q4*
X6492340Y-14971820D03*
X6492340Y-15149620D03*
X6289140Y-15060720D03*
G04 #@! TD*
G04 #@! TO.C,Q5*
X15273860Y-10116660D03*
X15273860Y-10294460D03*
X15070660Y-10205560D03*
G04 #@! TD*
D24*
G04 #@! TO.C,T1*
X8348770Y-14702960D03*
X8348770Y-14636920D03*
X8348770Y-14570880D03*
X8447830Y-14570880D03*
X8447830Y-14636920D03*
X8447830Y-14702960D03*
G04 #@! TD*
D25*
G04 #@! TO.C,T2*
X9020600Y-14102250D03*
X8954560Y-14102250D03*
X8888520Y-14102250D03*
X8888520Y-14003190D03*
X8954560Y-14003190D03*
X9020600Y-14003190D03*
G04 #@! TD*
D26*
G04 #@! TO.C,T3*
X9590392Y-13430508D03*
X9590392Y-13380470D03*
X9590392Y-13330432D03*
X9675228Y-13330432D03*
X9675228Y-13380470D03*
X9675228Y-13430508D03*
G04 #@! TD*
G04 #@! TO.C,T4*
X9895192Y-13430508D03*
X9895192Y-13380470D03*
X9895192Y-13330432D03*
X9980028Y-13330432D03*
X9980028Y-13380470D03*
X9980028Y-13430508D03*
G04 #@! TD*
D27*
G04 #@! TO.C,U3*
X6922856Y-12485928D03*
X7047824Y-12485928D03*
X7047824Y-12556032D03*
X6922856Y-12556032D03*
G04 #@! TD*
D28*
G04 #@! TO.C,U4*
X8411800Y-13826920D03*
X8411800Y-13876920D03*
X8411800Y-13926920D03*
X8411800Y-13976920D03*
X8411800Y-14026920D03*
X8411800Y-14076920D03*
X8411800Y-14126920D03*
X8411800Y-14176920D03*
D29*
X8319300Y-14269420D03*
X8269300Y-14269420D03*
X8219300Y-14269420D03*
X8169300Y-14269420D03*
X8119300Y-14269420D03*
X8069300Y-14269420D03*
X8019300Y-14269420D03*
X7969300Y-14269420D03*
D28*
X7876800Y-14176920D03*
X7876800Y-14126920D03*
X7876800Y-14076920D03*
X7876800Y-14026920D03*
X7876800Y-13976920D03*
X7876800Y-13926920D03*
X7876800Y-13876920D03*
X7876800Y-13826920D03*
D30*
X8034300Y-14111920D03*
X8034300Y-14001920D03*
X8034300Y-13891920D03*
X8144300Y-14111920D03*
X8144300Y-14001920D03*
X8144300Y-13891920D03*
X8254300Y-14111920D03*
X8254300Y-14001920D03*
X8254300Y-13891920D03*
D29*
X7969300Y-13734420D03*
X8019300Y-13734420D03*
X8069300Y-13734420D03*
X8119300Y-13734420D03*
X8169300Y-13734420D03*
X8219300Y-13734420D03*
X8269300Y-13734420D03*
X8319300Y-13734420D03*
G04 #@! TD*
D31*
G04 #@! TO.C,U8*
X6947240Y-11968022D03*
X6947240Y-12057938D03*
D32*
X6862150Y-12012980D03*
X7032330Y-12012980D03*
G04 #@! TD*
D33*
G04 #@! TO.C,U9*
X6667360Y-12855960D03*
D34*
X6572360Y-12915960D03*
X6572360Y-12875960D03*
X6572360Y-12835960D03*
X6572360Y-12795960D03*
X6762360Y-12795960D03*
X6762360Y-12835960D03*
X6762360Y-12875960D03*
X6762360Y-12915960D03*
G04 #@! TD*
D35*
G04 #@! TO.C,U12*
X6653260Y-13606460D03*
D36*
X6713260Y-13701460D03*
X6673260Y-13701460D03*
X6633260Y-13701460D03*
X6593260Y-13701460D03*
X6593260Y-13511460D03*
X6633260Y-13511460D03*
X6673260Y-13511460D03*
X6713260Y-13511460D03*
G04 #@! TD*
D35*
G04 #@! TO.C,U14*
X6408520Y-14137320D03*
D36*
X6348520Y-14042320D03*
X6388520Y-14042320D03*
X6428520Y-14042320D03*
X6468520Y-14042320D03*
X6468520Y-14232320D03*
X6428520Y-14232320D03*
X6388520Y-14232320D03*
X6348520Y-14232320D03*
G04 #@! TD*
D37*
G04 #@! TO.C,U17*
X9897110Y-12265270D03*
X9897110Y-12415270D03*
X9897110Y-12565270D03*
X9747110Y-12265270D03*
X9747110Y-12415270D03*
X9747110Y-12565270D03*
X9597110Y-12265270D03*
X9597110Y-12415270D03*
X9597110Y-12565270D03*
D38*
X9447110Y-12635270D03*
X9447110Y-12595270D03*
X9447110Y-12555270D03*
X9447110Y-12515270D03*
X9447110Y-12475270D03*
X9447110Y-12435270D03*
X9447110Y-12395270D03*
X9447110Y-12355270D03*
X9447110Y-12315270D03*
X9447110Y-12275270D03*
X9447110Y-12235270D03*
X9447110Y-12195270D03*
D39*
X9527110Y-12115270D03*
X9567110Y-12115270D03*
X9607110Y-12115270D03*
X9647110Y-12115270D03*
X9687110Y-12115270D03*
X9727110Y-12115270D03*
X9767110Y-12115270D03*
X9807110Y-12115270D03*
X9847110Y-12115270D03*
X9887110Y-12115270D03*
X9927110Y-12115270D03*
X9967110Y-12115270D03*
D38*
X10047110Y-12195270D03*
X10047110Y-12235270D03*
X10047110Y-12275270D03*
X10047110Y-12315270D03*
X10047110Y-12355270D03*
X10047110Y-12395270D03*
X10047110Y-12435270D03*
X10047110Y-12475270D03*
X10047110Y-12515270D03*
X10047110Y-12555270D03*
X10047110Y-12595270D03*
X10047110Y-12635270D03*
D39*
X9967110Y-12715270D03*
X9927110Y-12715270D03*
X9887110Y-12715270D03*
X9847110Y-12715270D03*
X9807110Y-12715270D03*
X9767110Y-12715270D03*
X9727110Y-12715270D03*
X9687110Y-12715270D03*
X9647110Y-12715270D03*
X9607110Y-12715270D03*
X9567110Y-12715270D03*
X9527110Y-12715270D03*
G04 #@! TD*
D40*
G04 #@! TO.C,U18*
X9336800Y-9306740D03*
X9336800Y-9471740D03*
X9336800Y-9636740D03*
X9171800Y-9306740D03*
X9171800Y-9471740D03*
X9171800Y-9636740D03*
X9006800Y-9306740D03*
X9006800Y-9471740D03*
X9006800Y-9636740D03*
D41*
X8826800Y-9746740D03*
X8826800Y-9696740D03*
X8826800Y-9646740D03*
X8826800Y-9596740D03*
X8826800Y-9546740D03*
X8826800Y-9496740D03*
X8826800Y-9446740D03*
X8826800Y-9396740D03*
X8826800Y-9346740D03*
X8826800Y-9296740D03*
X8826800Y-9246740D03*
X8826800Y-9196740D03*
D42*
X8896800Y-9126740D03*
X8946800Y-9126740D03*
X8996800Y-9126740D03*
X9046800Y-9126740D03*
X9096800Y-9126740D03*
X9146800Y-9126740D03*
X9196800Y-9126740D03*
X9246800Y-9126740D03*
X9296800Y-9126740D03*
X9346800Y-9126740D03*
X9396800Y-9126740D03*
X9446800Y-9126740D03*
D41*
X9516800Y-9196740D03*
X9516800Y-9246740D03*
X9516800Y-9296740D03*
X9516800Y-9346740D03*
X9516800Y-9396740D03*
X9516800Y-9446740D03*
X9516800Y-9496740D03*
X9516800Y-9546740D03*
X9516800Y-9596740D03*
X9516800Y-9646740D03*
X9516800Y-9696740D03*
X9516800Y-9746740D03*
D42*
X9446800Y-9816740D03*
X9396800Y-9816740D03*
X9346800Y-9816740D03*
X9296800Y-9816740D03*
X9246800Y-9816740D03*
X9196800Y-9816740D03*
X9146800Y-9816740D03*
X9096800Y-9816740D03*
X9046800Y-9816740D03*
X8996800Y-9816740D03*
X8946800Y-9816740D03*
X8896800Y-9816740D03*
G04 #@! TD*
D43*
G04 #@! TO.C,U19*
X11695180Y-14452160D03*
X11695180Y-14584160D03*
X11563180Y-14452160D03*
X11563180Y-14584160D03*
D44*
X11409180Y-14618160D03*
X11409180Y-14568160D03*
X11409180Y-14518160D03*
X11409180Y-14468160D03*
X11409180Y-14418160D03*
D45*
X11529180Y-14298160D03*
X11579180Y-14298160D03*
X11629180Y-14298160D03*
X11679180Y-14298160D03*
X11729180Y-14298160D03*
D44*
X11849180Y-14418160D03*
X11849180Y-14468160D03*
X11849180Y-14518160D03*
X11849180Y-14568160D03*
X11849180Y-14618160D03*
D45*
X11729180Y-14738160D03*
X11679180Y-14738160D03*
X11629180Y-14738160D03*
X11579180Y-14738160D03*
X11529180Y-14738160D03*
G04 #@! TD*
D46*
G04 #@! TO.C,U20*
X14576920Y-14280900D03*
X14576920Y-14153900D03*
X14576920Y-14026900D03*
X14576920Y-13899900D03*
X15338920Y-13899900D03*
X15338920Y-14026900D03*
X15338920Y-14153900D03*
X15338920Y-14280900D03*
G04 #@! TD*
D47*
G04 #@! TO.C,U21*
X15860260Y-9265680D03*
X15810260Y-9265680D03*
X15810260Y-9575680D03*
X15860260Y-9575680D03*
D48*
X15876260Y-9360680D03*
X15876260Y-9480680D03*
X15794260Y-9480680D03*
X15794260Y-9360680D03*
D49*
X15685260Y-9520680D03*
X15685260Y-9470680D03*
X15685260Y-9420680D03*
X15685260Y-9370680D03*
X15685260Y-9320680D03*
X15985260Y-9320680D03*
X15985260Y-9370680D03*
X15985260Y-9420680D03*
X15985260Y-9470680D03*
X15985260Y-9520680D03*
G04 #@! TD*
D50*
G04 #@! TO.C,U23*
X15203649Y-12399117D03*
X15168267Y-12434499D03*
X15132884Y-12469882D03*
X15097502Y-12505264D03*
X15062120Y-12540646D03*
X15026917Y-12575849D03*
X14991535Y-12611231D03*
X14956153Y-12646613D03*
X14920771Y-12681995D03*
X14885389Y-12717377D03*
X14850006Y-12752760D03*
X14814804Y-12787962D03*
X14779421Y-12823344D03*
X14744039Y-12858727D03*
X14708657Y-12894109D03*
X14673275Y-12929491D03*
X14637893Y-12964873D03*
X14602510Y-13000255D03*
X14567308Y-13035458D03*
X14531926Y-13070840D03*
X14496543Y-13106222D03*
X14461161Y-13141605D03*
X14425779Y-13176987D03*
X14390397Y-13212369D03*
X14355015Y-13247751D03*
X14319812Y-13282954D03*
X14284430Y-13318336D03*
X14249048Y-13353718D03*
X14213665Y-13389101D03*
X14178283Y-13424483D03*
X14142901Y-13459865D03*
X14107698Y-13495068D03*
X14072316Y-13530450D03*
X14036934Y-13565832D03*
X14001552Y-13601214D03*
X13966169Y-13636596D03*
D51*
X13647909Y-13636596D03*
X13612527Y-13601214D03*
X13577145Y-13565832D03*
X13541763Y-13530450D03*
X13506380Y-13495068D03*
X13471178Y-13459865D03*
X13435796Y-13424483D03*
X13400413Y-13389101D03*
X13365031Y-13353718D03*
X13329649Y-13318336D03*
X13294267Y-13282954D03*
X13259064Y-13247751D03*
X13223682Y-13212369D03*
X13188300Y-13176987D03*
X13152917Y-13141605D03*
X13117535Y-13106222D03*
X13082153Y-13070840D03*
X13046771Y-13035458D03*
X13011568Y-13000255D03*
X12976186Y-12964873D03*
X12940804Y-12929491D03*
X12905422Y-12894109D03*
X12870039Y-12858727D03*
X12834657Y-12823344D03*
X12799275Y-12787962D03*
X12764072Y-12752760D03*
X12728690Y-12717377D03*
X12693308Y-12681995D03*
X12657926Y-12646613D03*
X12622544Y-12611231D03*
X12587161Y-12575849D03*
X12551959Y-12540646D03*
X12516577Y-12505264D03*
X12481194Y-12469882D03*
X12445812Y-12434499D03*
X12410430Y-12399117D03*
D50*
X12410430Y-12080857D03*
X12445812Y-12045475D03*
X12481194Y-12010092D03*
X12516577Y-11974710D03*
X12551959Y-11939328D03*
X12587161Y-11904125D03*
X12622544Y-11868743D03*
X12657926Y-11833361D03*
X12693308Y-11797979D03*
X12728690Y-11762597D03*
X12764072Y-11727214D03*
X12799275Y-11692012D03*
X12834657Y-11656630D03*
X12870039Y-11621247D03*
X12905422Y-11585865D03*
X12940804Y-11550483D03*
X12976186Y-11515101D03*
X13011568Y-11479718D03*
X13046771Y-11444516D03*
X13082153Y-11409134D03*
X13117535Y-11373751D03*
X13152917Y-11338369D03*
X13188300Y-11302987D03*
X13223682Y-11267605D03*
X13259064Y-11232223D03*
X13294267Y-11197020D03*
X13329649Y-11161638D03*
X13365031Y-11126256D03*
X13400413Y-11090873D03*
X13435796Y-11055491D03*
X13471178Y-11020109D03*
X13506380Y-10984906D03*
X13541763Y-10949524D03*
X13577145Y-10914142D03*
X13612527Y-10878760D03*
X13647909Y-10843378D03*
D51*
X13966169Y-10843378D03*
X14001552Y-10878760D03*
X14036934Y-10914142D03*
X14072316Y-10949524D03*
X14107698Y-10984906D03*
X14142901Y-11020109D03*
X14178283Y-11055491D03*
X14213665Y-11090873D03*
X14249048Y-11126256D03*
X14284430Y-11161638D03*
X14319812Y-11197020D03*
X14355015Y-11232223D03*
X14390397Y-11267605D03*
X14425779Y-11302987D03*
X14461161Y-11338369D03*
X14496543Y-11373751D03*
X14531926Y-11409134D03*
X14567308Y-11444516D03*
X14602510Y-11479718D03*
X14637893Y-11515101D03*
X14673275Y-11550483D03*
X14708657Y-11585865D03*
X14744039Y-11621247D03*
X14779421Y-11656630D03*
X14814804Y-11692012D03*
X14850006Y-11727214D03*
X14885389Y-11762597D03*
X14920771Y-11797979D03*
X14956153Y-11833361D03*
X14991535Y-11868743D03*
X15026917Y-11904125D03*
X15062120Y-11939328D03*
X15097502Y-11974710D03*
X15132884Y-12010092D03*
X15168267Y-12045475D03*
X15203649Y-12080857D03*
G04 #@! TD*
D52*
G04 #@! TO.C,U24*
X12356960Y-9327392D03*
X12356960Y-9377430D03*
X12356960Y-9427214D03*
X12356960Y-9477252D03*
X12356960Y-9527290D03*
X12356960Y-9577328D03*
X12356960Y-9627366D03*
X12356960Y-9677404D03*
X12356960Y-9727442D03*
X12356960Y-9777226D03*
X12356960Y-9827264D03*
X12356960Y-9877302D03*
X12356960Y-9927340D03*
X12356960Y-9977378D03*
X12356960Y-10027416D03*
X12356960Y-10077454D03*
X12356960Y-10127238D03*
X12356960Y-10177276D03*
X12356960Y-10227314D03*
X12356960Y-10277352D03*
X12356960Y-10327390D03*
X12356960Y-10377428D03*
X12356960Y-10427466D03*
X12356960Y-10477250D03*
X12356960Y-10527288D03*
D53*
X12156808Y-10727440D03*
X12106770Y-10727440D03*
X12056986Y-10727440D03*
X12006948Y-10727440D03*
X11956910Y-10727440D03*
X11906872Y-10727440D03*
X11856834Y-10727440D03*
X11806796Y-10727440D03*
X11756758Y-10727440D03*
X11706974Y-10727440D03*
X11656936Y-10727440D03*
X11606898Y-10727440D03*
X11556860Y-10727440D03*
X11506822Y-10727440D03*
X11456784Y-10727440D03*
X11406746Y-10727440D03*
X11356962Y-10727440D03*
X11306924Y-10727440D03*
X11256886Y-10727440D03*
X11206848Y-10727440D03*
X11156810Y-10727440D03*
X11106772Y-10727440D03*
X11056734Y-10727440D03*
X11006950Y-10727440D03*
X10956912Y-10727440D03*
D52*
X10756760Y-10527288D03*
X10756760Y-10477250D03*
X10756760Y-10427466D03*
X10756760Y-10377428D03*
X10756760Y-10327390D03*
X10756760Y-10277352D03*
X10756760Y-10227314D03*
X10756760Y-10177276D03*
X10756760Y-10127238D03*
X10756760Y-10077454D03*
X10756760Y-10027416D03*
X10756760Y-9977378D03*
X10756760Y-9927340D03*
X10756760Y-9877302D03*
X10756760Y-9827264D03*
X10756760Y-9777226D03*
X10756760Y-9727442D03*
X10756760Y-9677404D03*
X10756760Y-9627366D03*
X10756760Y-9577328D03*
X10756760Y-9527290D03*
X10756760Y-9477252D03*
X10756760Y-9427214D03*
X10756760Y-9377430D03*
X10756760Y-9327392D03*
D53*
X10956912Y-9127240D03*
X11006950Y-9127240D03*
X11056734Y-9127240D03*
X11106772Y-9127240D03*
X11156810Y-9127240D03*
X11206848Y-9127240D03*
X11256886Y-9127240D03*
X11306924Y-9127240D03*
X11356962Y-9127240D03*
X11406746Y-9127240D03*
X11456784Y-9127240D03*
X11506822Y-9127240D03*
X11556860Y-9127240D03*
X11606898Y-9127240D03*
X11656936Y-9127240D03*
X11706974Y-9127240D03*
X11756758Y-9127240D03*
X11806796Y-9127240D03*
X11856834Y-9127240D03*
X11906872Y-9127240D03*
X11956910Y-9127240D03*
X12006948Y-9127240D03*
X12056986Y-9127240D03*
X12106770Y-9127240D03*
X12156808Y-9127240D03*
G04 #@! TD*
D54*
G04 #@! TO.C,X1*
X11269770Y-15212342D03*
X11429790Y-14992378D03*
X11269770Y-14992378D03*
X11429790Y-15212342D03*
G04 #@! TD*
D55*
G04 #@! TO.C,X2*
X15062838Y-11481694D03*
X15331528Y-11439307D03*
X15218376Y-11326156D03*
X15175990Y-11594845D03*
G04 #@! TD*
D56*
G04 #@! TO.C,X3*
X15587260Y-13575560D03*
D57*
X15032260Y-13530560D03*
X15032260Y-13620560D03*
G04 #@! TD*
D58*
G04 #@! TO.C,U13*
X6052920Y-13633880D03*
X6052920Y-13713880D03*
D59*
X5957920Y-13598880D03*
X5957920Y-13648880D03*
X5957920Y-13698880D03*
X5957920Y-13748880D03*
X6147920Y-13748880D03*
X6147920Y-13698880D03*
X6147920Y-13648880D03*
X6147920Y-13598880D03*
G04 #@! TD*
D60*
G04 #@! TO.C,U25*
X6946360Y-13905020D03*
X6866360Y-13905020D03*
D61*
X6981360Y-13810020D03*
X6931360Y-13810020D03*
X6881360Y-13810020D03*
X6831360Y-13810020D03*
X6831360Y-14000020D03*
X6881360Y-14000020D03*
X6931360Y-14000020D03*
X6981360Y-14000020D03*
G04 #@! TD*
D62*
G04 #@! TO.C,U5*
X6591800Y-12316720D03*
X6641800Y-12316720D03*
D63*
X6661400Y-12266720D03*
D62*
X6641800Y-12216720D03*
X6591800Y-12216720D03*
D63*
X6572200Y-12266720D03*
G04 #@! TD*
D62*
G04 #@! TO.C,U6*
X7360620Y-12219260D03*
X7310620Y-12219260D03*
D63*
X7291020Y-12269260D03*
D62*
X7310620Y-12319260D03*
X7360620Y-12319260D03*
D63*
X7380220Y-12269260D03*
G04 #@! TD*
D62*
G04 #@! TO.C,U1*
X9453580Y-14881180D03*
X9403580Y-14881180D03*
D63*
X9383980Y-14931180D03*
D62*
X9403580Y-14981180D03*
X9453580Y-14981180D03*
D63*
X9473180Y-14931180D03*
G04 #@! TD*
D64*
G04 #@! TO.C,U2*
X7826640Y-12681140D03*
X7826640Y-12731140D03*
D65*
X7876640Y-12750740D03*
D64*
X7926640Y-12731140D03*
X7926640Y-12681140D03*
D65*
X7876640Y-12661540D03*
G04 #@! TD*
D64*
G04 #@! TO.C,U7*
X8730880Y-14824900D03*
X8730880Y-14874900D03*
D65*
X8780880Y-14894500D03*
D64*
X8830880Y-14874900D03*
X8830880Y-14824900D03*
D65*
X8780880Y-14805300D03*
G04 #@! TD*
D62*
G04 #@! TO.C,U10*
X9451840Y-14092180D03*
X9501840Y-14092180D03*
D63*
X9521440Y-14042180D03*
D62*
X9501840Y-13992180D03*
X9451840Y-13992180D03*
D63*
X9432240Y-14042180D03*
G04 #@! TD*
D64*
G04 #@! TO.C,U11*
X9795140Y-13826680D03*
X9795140Y-13876680D03*
D65*
X9845140Y-13896280D03*
D64*
X9895140Y-13876680D03*
X9895140Y-13826680D03*
D65*
X9845140Y-13807080D03*
G04 #@! TD*
D66*
G04 #@! TO.C,D13*
X5837020Y-14028080D03*
D67*
X5847020Y-13940580D03*
D66*
X5837020Y-13853080D03*
G04 #@! TD*
G04 #@! TO.C,D11*
X6233260Y-14668160D03*
D67*
X6243260Y-14580660D03*
D66*
X6233260Y-14493160D03*
G04 #@! TD*
G04 #@! TO.C,D12*
X6118960Y-14150260D03*
D68*
X6108960Y-14237760D03*
D66*
X6118960Y-14325260D03*
G04 #@! TD*
D69*
G04 #@! TO.C,D1*
X16116932Y-15037864D03*
X16116932Y-14847864D03*
X15929432Y-14942864D03*
G04 #@! TD*
G04 #@! TO.C,D3*
X16189322Y-14495066D03*
X16189322Y-14305066D03*
X16001822Y-14400066D03*
G04 #@! TD*
D70*
G04 #@! TO.C,D10*
X6067260Y-15095560D03*
X6132260Y-15095560D03*
G04 #@! TD*
D71*
G04 #@! TO.C,L15*
X15792260Y-10695560D03*
D72*
X15792260Y-10645560D03*
X15792260Y-10595560D03*
D73*
X15792260Y-10545560D03*
D74*
X15692260Y-10545560D03*
D72*
X15692260Y-10595560D03*
X15692260Y-10645560D03*
D75*
X15692260Y-10695560D03*
G04 #@! TD*
D76*
G04 #@! TO.C,J11*
X16281810Y-11053060D03*
D77*
X16701810Y-11053060D03*
D76*
X16281810Y-10188060D03*
D77*
X16701810Y-10188060D03*
D78*
X16175010Y-10955560D03*
X16175010Y-10875560D03*
X16175010Y-10745560D03*
X16175010Y-10645560D03*
X16175010Y-10595560D03*
X16175010Y-10495560D03*
X16175010Y-10365560D03*
X16175010Y-10285560D03*
X16175010Y-10315560D03*
X16175010Y-10395560D03*
X16175010Y-10445560D03*
X16175010Y-10545560D03*
X16175010Y-10695560D03*
X16175010Y-10795560D03*
X16175010Y-10845560D03*
X16175010Y-10925560D03*
G04 #@! TD*
M02*
