G04 #@! TF.GenerationSoftware,KiCad,Pcbnew,8.0.4*
G04 #@! TF.CreationDate,2024-12-03T18:33:22+11:00*
G04 #@! TF.ProjectId,hackrf-one,6861636b-7266-42d6-9f6e-652e6b696361,rev?*
G04 #@! TF.SameCoordinates,PX393df48PYa6d9c50*
G04 #@! TF.FileFunction,Copper,L4,Bot*
G04 #@! TF.FilePolarity,Positive*
%FSLAX45Y45*%
G04 Gerber Fmt 4.5, Leading zero omitted, Abs format (unit mm)*
G04 Created by KiCad (PCBNEW 8.0.4) date 2024-12-03 18:33:22*
%MOMM*%
%LPD*%
G01*
G04 APERTURE LIST*
%ADD10C,0.177800*%
G04 #@! TA.AperFunction,NonConductor*
%ADD11C,0.177800*%
G04 #@! TD*
G04 #@! TA.AperFunction,FiducialPad,Global*
%ADD12C,1.000000*%
G04 #@! TD*
G04 #@! TA.AperFunction,ComponentPad*
%ADD13C,0.600000*%
G04 #@! TD*
G04 #@! TA.AperFunction,ComponentPad*
%ADD14C,5.600000*%
G04 #@! TD*
G04 #@! TA.AperFunction,ComponentPad*
%ADD15R,1.524000X1.524000*%
G04 #@! TD*
G04 #@! TA.AperFunction,ComponentPad*
%ADD16C,1.524000*%
G04 #@! TD*
G04 #@! TA.AperFunction,SMDPad,CuDef*
%ADD17R,3.990000X2.665000*%
G04 #@! TD*
G04 #@! TA.AperFunction,ComponentPad*
%ADD18R,1.066800X1.066800*%
G04 #@! TD*
G04 #@! TA.AperFunction,ComponentPad*
%ADD19C,1.066800*%
G04 #@! TD*
G04 #@! TA.AperFunction,ComponentPad*
%ADD20C,2.000000*%
G04 #@! TD*
G04 #@! TA.AperFunction,ComponentPad*
%ADD21C,1.500000*%
G04 #@! TD*
G04 #@! TA.AperFunction,ComponentPad*
%ADD22C,0.635000*%
G04 #@! TD*
G04 #@! TA.AperFunction,ComponentPad*
%ADD23C,0.585000*%
G04 #@! TD*
G04 #@! TA.AperFunction,ComponentPad*
%ADD24O,2.000000X1.200000*%
G04 #@! TD*
G04 #@! TA.AperFunction,ComponentPad*
%ADD25O,1.800000X1.200000*%
G04 #@! TD*
G04 #@! TA.AperFunction,ViaPad*
%ADD26C,0.685800*%
G04 #@! TD*
G04 #@! TA.AperFunction,Conductor*
%ADD27C,0.203200*%
G04 #@! TD*
G04 #@! TA.AperFunction,Conductor*
%ADD28C,1.270000*%
G04 #@! TD*
G04 #@! TA.AperFunction,Conductor*
%ADD29C,0.254000*%
G04 #@! TD*
G04 #@! TA.AperFunction,Conductor*
%ADD30C,1.016000*%
G04 #@! TD*
G04 #@! TA.AperFunction,Conductor*
%ADD31C,0.279400*%
G04 #@! TD*
G04 #@! TA.AperFunction,Conductor*
%ADD32C,0.508000*%
G04 #@! TD*
G04 #@! TA.AperFunction,Conductor*
%ADD33C,0.304800*%
G04 #@! TD*
G04 APERTURE END LIST*
D10*
D11*
X9669352Y9161656D02*
X9669352Y9093923D01*
X9645162Y9200361D02*
X9620971Y9127789D01*
X9620971Y9127789D02*
X9683867Y9127789D01*
D12*
G04 #@! TO.P,MARK1MM,*
G04 #@! TO.N,*
X9980000Y9070000D03*
G04 #@! TD*
D13*
G04 #@! TO.P,J4,1,1*
G04 #@! TO.N,GND*
X-940000Y8870000D03*
X-875000Y9025000D03*
X-875000Y8715000D03*
X-720000Y9090000D03*
D14*
X-720000Y8870000D03*
D13*
X-720000Y8650000D03*
X-565000Y9025000D03*
X-565000Y8715000D03*
X-500000Y8870000D03*
G04 #@! TD*
G04 #@! TO.P,J5,1,1*
G04 #@! TO.N,GND*
X-940000Y2170000D03*
X-875000Y2325000D03*
X-875000Y2015000D03*
X-720000Y2390000D03*
D14*
X-720000Y2170000D03*
D13*
X-720000Y1950000D03*
X-565000Y2325000D03*
X-565000Y2015000D03*
X-500000Y2170000D03*
G04 #@! TD*
G04 #@! TO.P,J6,1,1*
G04 #@! TO.N,GND*
X10260000Y2170000D03*
X10325000Y2325000D03*
X10325000Y2015000D03*
X10480000Y2390000D03*
D14*
X10480000Y2170000D03*
D13*
X10480000Y1950000D03*
X10635000Y2325000D03*
X10635000Y2015000D03*
X10700000Y2170000D03*
G04 #@! TD*
G04 #@! TO.P,J7,1,1*
G04 #@! TO.N,GND*
X10260000Y8870000D03*
X10325000Y9025000D03*
X10325000Y8715000D03*
X10480000Y9090000D03*
D14*
X10480000Y8870000D03*
D13*
X10480000Y8650000D03*
X10635000Y9025000D03*
X10635000Y8715000D03*
X10700000Y8870000D03*
G04 #@! TD*
G04 #@! TO.P,J8,1,1*
G04 #@! TO.N,GND*
X5260000Y8870000D03*
X5325000Y9025000D03*
X5325000Y8715000D03*
X5480000Y9090000D03*
D14*
X5480000Y8870000D03*
D13*
X5480000Y8650000D03*
X5635000Y9025000D03*
X5635000Y8715000D03*
X5700000Y8870000D03*
G04 #@! TD*
G04 #@! TO.P,J9,1,1*
G04 #@! TO.N,GND*
X5760000Y4870000D03*
X5825000Y5025000D03*
X5825000Y4715000D03*
X5980000Y5090000D03*
D14*
X5980000Y4870000D03*
D13*
X5980000Y4650000D03*
X6135000Y5025000D03*
X6135000Y4715000D03*
X6200000Y4870000D03*
G04 #@! TD*
D15*
G04 #@! TO.P,P1,1,P1*
G04 #@! TO.N,+1.8V*
X7389000Y7993000D03*
D16*
G04 #@! TO.P,P1,2,PM*
X7643000Y7993000D03*
G04 #@! TD*
D13*
G04 #@! TO.P,P2,2,GND*
G04 #@! TO.N,GND*
X10628000Y4320000D03*
X10628000Y4420000D03*
X10628000Y4520000D03*
X10628000Y5020000D03*
X10628000Y5120000D03*
X10628000Y5220000D03*
D17*
X10558500Y4420750D03*
X10558500Y5119250D03*
D13*
X10528000Y4320000D03*
X10528000Y4420000D03*
X10528000Y4520000D03*
X10528000Y5020000D03*
X10528000Y5120000D03*
X10528000Y5220000D03*
X10428000Y4320000D03*
X10428000Y4420000D03*
X10428000Y4520000D03*
X10428000Y5020000D03*
X10428000Y5120000D03*
X10428000Y5220000D03*
G04 #@! TD*
D15*
G04 #@! TO.P,P3,1,P1*
G04 #@! TO.N,GND*
X7389000Y7485000D03*
D16*
G04 #@! TO.P,P3,2,PM*
X7389000Y7231000D03*
G04 #@! TD*
D13*
G04 #@! TO.P,P4,2,GND*
G04 #@! TO.N,GND*
X-868000Y3620000D03*
X-868000Y3520000D03*
X-868000Y3420000D03*
X-868000Y2920000D03*
X-868000Y2820000D03*
X-868000Y2720000D03*
D17*
X-798500Y3519250D03*
X-798500Y2820750D03*
D13*
X-768000Y3620000D03*
X-768000Y3520000D03*
X-768000Y3420000D03*
X-768000Y2920000D03*
X-768000Y2820000D03*
X-768000Y2720000D03*
X-668000Y3620000D03*
X-668000Y3520000D03*
X-668000Y3420000D03*
X-668000Y2920000D03*
X-668000Y2820000D03*
X-668000Y2720000D03*
G04 #@! TD*
D15*
G04 #@! TO.P,P5,1,1*
G04 #@! TO.N,GND*
X2055000Y8755000D03*
D16*
G04 #@! TO.P,P5,2,2*
G04 #@! TO.N,VCC*
X2055000Y8501000D03*
G04 #@! TO.P,P5,3,3*
G04 #@! TO.N,/mcu/usb/power/LED1*
X1801000Y8755000D03*
G04 #@! TO.P,P5,4,4*
G04 #@! TO.N,/mcu/usb/power/LED2*
X1801000Y8501000D03*
G04 #@! TO.P,P5,5,5*
G04 #@! TO.N,!VAA_ENABLE*
X1547000Y8755000D03*
G04 #@! TO.P,P5,6,6*
G04 #@! TO.N,/mcu/usb/power/LED3*
X1547000Y8501000D03*
G04 #@! TD*
D15*
G04 #@! TO.P,P8,1,P1*
G04 #@! TO.N,VCC*
X8659000Y7993000D03*
D16*
G04 #@! TO.P,P8,2,PM*
X8913000Y7993000D03*
G04 #@! TD*
D15*
G04 #@! TO.P,P9,1*
G04 #@! TO.N,GND*
X3579000Y6469000D03*
D16*
G04 #@! TO.P,P9,2*
X3579000Y6215000D03*
G04 #@! TO.P,P9,3*
X3325000Y6469000D03*
G04 #@! TO.P,P9,4*
G04 #@! TO.N,/baseband/RXBBQ-*
X3325000Y6215000D03*
G04 #@! TO.P,P9,5*
G04 #@! TO.N,/baseband/RXBBI-*
X3071000Y6469000D03*
G04 #@! TO.P,P9,6*
G04 #@! TO.N,/baseband/RXBBQ+*
X3071000Y6215000D03*
G04 #@! TO.P,P9,7*
G04 #@! TO.N,/baseband/RXBBI+*
X2817000Y6469000D03*
G04 #@! TO.P,P9,8*
G04 #@! TO.N,GND*
X2817000Y6215000D03*
G04 #@! TO.P,P9,9*
X2563000Y6469000D03*
G04 #@! TO.P,P9,10*
G04 #@! TO.N,/baseband/TXBBI-*
X2563000Y6215000D03*
G04 #@! TO.P,P9,11*
G04 #@! TO.N,/baseband/TXBBQ+*
X2309000Y6469000D03*
G04 #@! TO.P,P9,12*
G04 #@! TO.N,/baseband/TXBBI+*
X2309000Y6215000D03*
G04 #@! TO.P,P9,13*
G04 #@! TO.N,/baseband/TXBBQ-*
X2055000Y6469000D03*
G04 #@! TO.P,P9,14*
G04 #@! TO.N,GND*
X2055000Y6215000D03*
G04 #@! TO.P,P9,15*
X1801000Y6469000D03*
G04 #@! TO.P,P9,16*
X1801000Y6215000D03*
G04 #@! TD*
D13*
G04 #@! TO.P,P16,2,GND*
G04 #@! TO.N,GND*
X10628000Y2520000D03*
X10628000Y2620000D03*
X10628000Y2720000D03*
X10628000Y3220000D03*
X10628000Y3320000D03*
X10628000Y3420000D03*
D17*
X10558500Y2620750D03*
X10558500Y3319250D03*
D13*
X10528000Y2520000D03*
X10528000Y2620000D03*
X10528000Y2720000D03*
X10528000Y3220000D03*
X10528000Y3320000D03*
X10528000Y3420000D03*
X10428000Y2520000D03*
X10428000Y2620000D03*
X10428000Y2720000D03*
X10428000Y3220000D03*
X10428000Y3320000D03*
X10428000Y3420000D03*
G04 #@! TD*
D15*
G04 #@! TO.P,P20,1,P1*
G04 #@! TO.N,/mcu/usb/power/VBAT*
X10183000Y3675000D03*
D16*
G04 #@! TO.P,P20,2,P2*
G04 #@! TO.N,/mcu/usb/power/RTC_ALARM*
X9929000Y3675000D03*
G04 #@! TO.P,P20,3,P3*
G04 #@! TO.N,VCC*
X10183000Y3929000D03*
G04 #@! TO.P,P20,4,P4*
G04 #@! TO.N,/mcu/usb/power/WAKEUP*
X9929000Y3929000D03*
G04 #@! TO.P,P20,5,P5*
G04 #@! TO.N,/mcu/usb/power/GPIO3_8*
X10183000Y4183000D03*
G04 #@! TO.P,P20,6,P6*
G04 #@! TO.N,/mcu/usb/power/GPIO3_9*
X9929000Y4183000D03*
G04 #@! TO.P,P20,7,P7*
G04 #@! TO.N,/mcu/usb/power/GPIO3_10*
X10183000Y4437000D03*
G04 #@! TO.P,P20,8,P8*
G04 #@! TO.N,/mcu/usb/power/GPIO3_11*
X9929000Y4437000D03*
G04 #@! TO.P,P20,9,P9*
G04 #@! TO.N,/mcu/usb/power/GPIO3_12*
X10183000Y4691000D03*
G04 #@! TO.P,P20,10,P10*
G04 #@! TO.N,/mcu/usb/power/GPIO3_13*
X9929000Y4691000D03*
G04 #@! TO.P,P20,11,P11*
G04 #@! TO.N,/mcu/usb/power/GPIO3_14*
X10183000Y4945000D03*
G04 #@! TO.P,P20,12,P12*
G04 #@! TO.N,/mcu/usb/power/GPIO3_15*
X9929000Y4945000D03*
G04 #@! TO.P,P20,13,P13*
G04 #@! TO.N,GND*
X10183000Y5199000D03*
G04 #@! TO.P,P20,14,P14*
G04 #@! TO.N,/mcu/usb/power/ADC0_6*
X9929000Y5199000D03*
G04 #@! TO.P,P20,15,P15*
G04 #@! TO.N,GND*
X10183000Y5453000D03*
G04 #@! TO.P,P20,16,P16*
G04 #@! TO.N,/mcu/usb/power/ADC0_2*
X9929000Y5453000D03*
G04 #@! TO.P,P20,17,P17*
G04 #@! TO.N,/mcu/usb/power/VBUSCTRL*
X10183000Y5707000D03*
G04 #@! TO.P,P20,18,P18*
G04 #@! TO.N,/mcu/usb/power/ADC0_5*
X9929000Y5707000D03*
G04 #@! TO.P,P20,19,P19*
G04 #@! TO.N,GND*
X10183000Y5961000D03*
G04 #@! TO.P,P20,20,P20*
G04 #@! TO.N,/mcu/usb/power/ADC0_0*
X9929000Y5961000D03*
G04 #@! TO.P,P20,21,P21*
G04 #@! TO.N,/mcu/usb/power/VBUS*
X10183000Y6215000D03*
G04 #@! TO.P,P20,22,P22*
G04 #@! TO.N,/mcu/usb/power/VIN*
X9929000Y6215000D03*
G04 #@! TD*
D15*
G04 #@! TO.P,P22,1,P1*
G04 #@! TO.N,CLKOUT*
X9675000Y2913000D03*
D16*
G04 #@! TO.P,P22,2,P2*
G04 #@! TO.N,CLKIN*
X9675000Y2659000D03*
G04 #@! TO.P,P22,3,P3*
G04 #@! TO.N,/mcu/usb/power/RESET*
X9421000Y2913000D03*
G04 #@! TO.P,P22,4,P4*
G04 #@! TO.N,GND*
X9421000Y2659000D03*
G04 #@! TO.P,P22,5,P5*
G04 #@! TO.N,/mcu/usb/power/I2C1_SCL*
X9167000Y2913000D03*
G04 #@! TO.P,P22,6,P6*
G04 #@! TO.N,/mcu/usb/power/I2C1_SDA*
X9167000Y2659000D03*
G04 #@! TO.P,P22,7,P7*
G04 #@! TO.N,/mcu/usb/power/SPIFI_MISO*
X8913000Y2913000D03*
G04 #@! TO.P,P22,8,P8*
G04 #@! TO.N,/mcu/usb/power/SPIFI_SCK*
X8913000Y2659000D03*
G04 #@! TO.P,P22,9,P9*
G04 #@! TO.N,/mcu/usb/power/SPIFI_MOSI*
X8659000Y2913000D03*
G04 #@! TO.P,P22,10,P10*
G04 #@! TO.N,GND*
X8659000Y2659000D03*
G04 #@! TO.P,P22,11,P11*
G04 #@! TO.N,VCC*
X8405000Y2913000D03*
G04 #@! TO.P,P22,12,P12*
G04 #@! TO.N,/mcu/usb/power/I2S0_RX_SCK*
X8405000Y2659000D03*
G04 #@! TO.P,P22,13,P13*
G04 #@! TO.N,/mcu/usb/power/I2S0_RX_SDA*
X8151000Y2913000D03*
G04 #@! TO.P,P22,14,P14*
G04 #@! TO.N,/mcu/usb/power/I2S0_RX_MCLK*
X8151000Y2659000D03*
G04 #@! TO.P,P22,15,P15*
G04 #@! TO.N,/mcu/usb/power/I2S0_RX_WS*
X7897000Y2913000D03*
G04 #@! TO.P,P22,16,P16*
G04 #@! TO.N,/mcu/usb/power/I2S0_TX_SCK*
X7897000Y2659000D03*
G04 #@! TO.P,P22,17,P17*
G04 #@! TO.N,/mcu/usb/power/I2S0_TX_MCLK*
X7643000Y2913000D03*
G04 #@! TO.P,P22,18,P18*
G04 #@! TO.N,GND*
X7643000Y2659000D03*
G04 #@! TO.P,P22,19,P19*
G04 #@! TO.N,/mcu/usb/power/U0_RXD*
X7389000Y2913000D03*
G04 #@! TO.P,P22,20,P20*
G04 #@! TO.N,/mcu/usb/power/U0_TXD*
X7389000Y2659000D03*
G04 #@! TO.P,P22,21,P21*
G04 #@! TO.N,/mcu/usb/power/P2_9*
X7135000Y2913000D03*
G04 #@! TO.P,P22,22,P22*
G04 #@! TO.N,/mcu/usb/power/P2_13*
X7135000Y2659000D03*
G04 #@! TO.P,P22,23,P23*
G04 #@! TO.N,/mcu/usb/power/P2_8*
X6881000Y2913000D03*
G04 #@! TO.P,P22,24,P20*
G04 #@! TO.N,SDA*
X6881000Y2659000D03*
G04 #@! TO.P,P22,25,P24*
G04 #@! TO.N,CLK6*
X6627000Y2913000D03*
G04 #@! TO.P,P22,26,P22*
G04 #@! TO.N,SCL*
X6627000Y2659000D03*
G04 #@! TD*
D15*
G04 #@! TO.P,P25,1,1*
G04 #@! TO.N,GND*
X6627000Y3421000D03*
D16*
G04 #@! TO.P,P25,2,2*
G04 #@! TO.N,/mcu/usb/power/ISP*
X6881000Y3421000D03*
G04 #@! TO.P,P25,3,3*
G04 #@! TO.N,unconnected-(P25-Pad3)*
X7135000Y3421000D03*
G04 #@! TO.P,P25,4,4*
G04 #@! TO.N,/mcu/usb/power/U0_RXD*
X7389000Y3421000D03*
G04 #@! TO.P,P25,5,5*
G04 #@! TO.N,/mcu/usb/power/U0_TXD*
X7643000Y3421000D03*
G04 #@! TO.P,P25,6,6*
G04 #@! TO.N,/mcu/usb/power/RESET*
X7897000Y3421000D03*
G04 #@! TD*
D18*
G04 #@! TO.P,P26,1*
G04 #@! TO.N,VCC*
X8046260Y7823340D03*
D19*
G04 #@! TO.P,P26,2*
G04 #@! TO.N,/mcu/usb/power/TMS*
X8173260Y7823340D03*
G04 #@! TO.P,P26,3*
G04 #@! TO.N,GND*
X8046260Y7696340D03*
G04 #@! TO.P,P26,4*
G04 #@! TO.N,/mcu/usb/power/TCK*
X8173260Y7696340D03*
G04 #@! TO.P,P26,5*
G04 #@! TO.N,GND*
X8046260Y7569340D03*
G04 #@! TO.P,P26,6*
G04 #@! TO.N,/mcu/usb/power/TDO*
X8173260Y7569340D03*
G04 #@! TO.P,P26,7*
G04 #@! TO.N,unconnected-(P26-Pad7)*
X8046260Y7442340D03*
G04 #@! TO.P,P26,8*
G04 #@! TO.N,/mcu/usb/power/TDI*
X8173260Y7442340D03*
G04 #@! TO.P,P26,9*
G04 #@! TO.N,GND*
X8046260Y7315340D03*
G04 #@! TO.P,P26,10*
G04 #@! TO.N,/mcu/usb/power/RESET*
X8173260Y7315340D03*
G04 #@! TD*
D15*
G04 #@! TO.P,P28,1,P1*
G04 #@! TO.N,VCC*
X5357000Y3675000D03*
D16*
G04 #@! TO.P,P28,2,P2*
G04 #@! TO.N,GND*
X5103000Y3675000D03*
G04 #@! TO.P,P28,3,P3*
G04 #@! TO.N,/mcu/usb/power/SD_CD*
X5357000Y3929000D03*
G04 #@! TO.P,P28,4,P4*
G04 #@! TO.N,/mcu/usb/power/SD_DAT3*
X5103000Y3929000D03*
G04 #@! TO.P,P28,5,P5*
G04 #@! TO.N,/mcu/usb/power/SD_DAT2*
X5357000Y4183000D03*
G04 #@! TO.P,P28,6,P6*
G04 #@! TO.N,/mcu/usb/power/SD_DAT1*
X5103000Y4183000D03*
G04 #@! TO.P,P28,7,P7*
G04 #@! TO.N,/mcu/usb/power/SD_DAT0*
X5357000Y4437000D03*
G04 #@! TO.P,P28,8,P8*
G04 #@! TO.N,/mcu/usb/power/SD_VOLT0*
X5103000Y4437000D03*
G04 #@! TO.P,P28,9,P9*
G04 #@! TO.N,/mcu/usb/power/SD_CMD*
X5357000Y4691000D03*
G04 #@! TO.P,P28,10,P10*
G04 #@! TO.N,/mcu/usb/power/SD_POW*
X5103000Y4691000D03*
G04 #@! TO.P,P28,11,P11*
G04 #@! TO.N,/mcu/usb/power/SD_CLK*
X5357000Y4945000D03*
G04 #@! TO.P,P28,12,P12*
G04 #@! TO.N,GND*
X5103000Y4945000D03*
G04 #@! TO.P,P28,13,P13*
G04 #@! TO.N,GCK2*
X5357000Y5199000D03*
G04 #@! TO.P,P28,14,P14*
G04 #@! TO.N,GCK1*
X5103000Y5199000D03*
G04 #@! TO.P,P28,15,P15*
G04 #@! TO.N,/mcu/usb/power/B1AUX14*
X5357000Y5453000D03*
G04 #@! TO.P,P28,16,P16*
G04 #@! TO.N,/mcu/usb/power/B1AUX13*
X5103000Y5453000D03*
G04 #@! TO.P,P28,17,P17*
G04 #@! TO.N,/mcu/usb/power/CPLD_TCK*
X5357000Y5707000D03*
G04 #@! TO.P,P28,18,P18*
G04 #@! TO.N,/mcu/usb/power/BANK2F3M2*
X5103000Y5707000D03*
G04 #@! TO.P,P28,19,P19*
G04 #@! TO.N,/mcu/usb/power/CPLD_TDI*
X5357000Y5961000D03*
G04 #@! TO.P,P28,20,P20*
G04 #@! TO.N,/mcu/usb/power/BANK2F3M6*
X5103000Y5961000D03*
G04 #@! TO.P,P28,21,P21*
G04 #@! TO.N,/mcu/usb/power/BANK2F3M12*
X5357000Y6215000D03*
G04 #@! TO.P,P28,22,P22*
G04 #@! TO.N,/mcu/usb/power/BANK2F3M4*
X5103000Y6215000D03*
G04 #@! TD*
D15*
G04 #@! TO.P,P29,1,P1*
G04 #@! TO.N,/mcu/usb/power/CPLD_TMS*
X5865000Y5961000D03*
D16*
G04 #@! TO.P,P29,2,PM*
G04 #@! TO.N,/mcu/usb/power/CPLD_TDO*
X6119000Y5961000D03*
G04 #@! TD*
D15*
G04 #@! TO.P,P30,1,P1*
G04 #@! TO.N,VCC*
X8913000Y8755000D03*
D16*
G04 #@! TO.P,P30,2,P2*
G04 #@! TO.N,GND*
X8913000Y8501000D03*
G04 #@! TO.P,P30,3,P3*
G04 #@! TO.N,/mcu/usb/power/B2AUX16*
X8659000Y8755000D03*
G04 #@! TO.P,P30,4,P4*
G04 #@! TO.N,/mcu/usb/power/B2AUX15*
X8659000Y8501000D03*
G04 #@! TO.P,P30,5,P5*
G04 #@! TO.N,/mcu/usb/power/B2AUX14*
X8405000Y8755000D03*
G04 #@! TO.P,P30,6,P6*
G04 #@! TO.N,/mcu/usb/power/B2AUX13*
X8405000Y8501000D03*
G04 #@! TO.P,P30,7,P7*
G04 #@! TO.N,/mcu/usb/power/B2AUX12*
X8151000Y8755000D03*
G04 #@! TO.P,P30,8,P8*
G04 #@! TO.N,/mcu/usb/power/B2AUX11*
X8151000Y8501000D03*
G04 #@! TO.P,P30,9,P9*
G04 #@! TO.N,/mcu/usb/power/B2AUX10*
X7897000Y8755000D03*
G04 #@! TO.P,P30,10,P10*
G04 #@! TO.N,/mcu/usb/power/B2AUX9*
X7897000Y8501000D03*
G04 #@! TO.P,P30,11,P11*
G04 #@! TO.N,/mcu/usb/power/B2AUX8*
X7643000Y8755000D03*
G04 #@! TO.P,P30,12,P12*
G04 #@! TO.N,/mcu/usb/power/B2AUX7*
X7643000Y8501000D03*
G04 #@! TO.P,P30,13,P13*
G04 #@! TO.N,/mcu/usb/power/B2AUX6*
X7389000Y8755000D03*
G04 #@! TO.P,P30,14,P14*
G04 #@! TO.N,/mcu/usb/power/B2AUX5*
X7389000Y8501000D03*
G04 #@! TO.P,P30,15,P15*
G04 #@! TO.N,/mcu/usb/power/B2AUX4*
X7135000Y8755000D03*
G04 #@! TO.P,P30,16,P16*
G04 #@! TO.N,/mcu/usb/power/B2AUX3*
X7135000Y8501000D03*
G04 #@! TO.P,P30,17,P17*
G04 #@! TO.N,/mcu/usb/power/B2AUX2*
X6881000Y8755000D03*
G04 #@! TO.P,P30,18,P18*
G04 #@! TO.N,/mcu/usb/power/B2AUX1*
X6881000Y8501000D03*
G04 #@! TO.P,P30,19,P19*
G04 #@! TO.N,/mcu/usb/power/GCK0*
X6627000Y8755000D03*
G04 #@! TO.P,P30,20,P20*
G04 #@! TO.N,GND*
X6627000Y8501000D03*
G04 #@! TD*
D15*
G04 #@! TO.P,P36,1,P1*
G04 #@! TO.N,VAA*
X1293000Y6469000D03*
D16*
G04 #@! TO.P,P36,2,PM*
X1293000Y6723000D03*
G04 #@! TD*
D15*
G04 #@! TO.P,P80,1,P1*
G04 #@! TO.N,GND*
X10691000Y6215000D03*
D16*
G04 #@! TO.P,P80,2,PM*
X10691000Y5961000D03*
G04 #@! TD*
D20*
G04 #@! TO.P,SW1,0,SHIELD*
G04 #@! TO.N,GND*
X-601000Y7180500D03*
X-601000Y6479500D03*
D21*
G04 #@! TO.P,SW1,1,1*
G04 #@! TO.N,VCC*
X-850000Y7055000D03*
G04 #@! TO.P,SW1,2,2*
G04 #@! TO.N,Net-(R30-Pad2)*
X-850000Y6605000D03*
G04 #@! TD*
D20*
G04 #@! TO.P,SW2,0,SHIELD*
G04 #@! TO.N,GND*
X-601000Y8480500D03*
X-601000Y7779500D03*
D21*
G04 #@! TO.P,SW2,1,1*
X-850000Y8355000D03*
G04 #@! TO.P,SW2,2,2*
G04 #@! TO.N,Net-(R19-Pad2)*
X-850000Y7905000D03*
G04 #@! TD*
D13*
G04 #@! TO.P,U4,0,EP*
G04 #@! TO.N,GND*
X2252040Y3603640D03*
X2142040Y3603640D03*
X2032040Y3603640D03*
X2252040Y3493640D03*
X2142040Y3493640D03*
X2032040Y3493640D03*
X2252040Y3383640D03*
X2142040Y3383640D03*
X2032040Y3383640D03*
G04 #@! TD*
D22*
G04 #@! TO.P,U17,0,EP*
G04 #@! TO.N,GND*
X3594850Y4930290D03*
X3744850Y4930290D03*
X3894850Y4930290D03*
X3594850Y5080290D03*
X3744850Y5080290D03*
X3894850Y5080290D03*
X3594850Y5230290D03*
X3744850Y5230290D03*
X3894850Y5230290D03*
G04 #@! TD*
G04 #@! TO.P,U18,0,EP*
G04 #@! TO.N,GND*
X3004540Y7858820D03*
X3169540Y7858820D03*
X3334540Y7858820D03*
X3004540Y8023820D03*
X3169540Y8023820D03*
X3334540Y8023820D03*
X3004540Y8188820D03*
X3169540Y8188820D03*
X3334540Y8188820D03*
G04 #@! TD*
D13*
G04 #@! TO.P,U19,0,GND*
G04 #@! TO.N,GND*
X5560920Y2911400D03*
X5692920Y2911400D03*
X5626920Y2977400D03*
X5560920Y3043400D03*
X5692920Y3043400D03*
G04 #@! TD*
D23*
G04 #@! TO.P,U21,0,PP*
G04 #@! TO.N,GND*
X9883000Y7999880D03*
X9883000Y8149880D03*
X9833000Y8074880D03*
X9783000Y7999880D03*
X9783000Y8149880D03*
G04 #@! TD*
D12*
G04 #@! TO.P,MARK1MM,*
G04 #@! TO.N,*
X1460360Y2546600D03*
G04 #@! TD*
G04 #@! TO.P,MARK1MM,*
G04 #@! TO.N,*
X4503280Y6742680D03*
G04 #@! TD*
D24*
G04 #@! TO.P,J11,0*
G04 #@! TO.N,N/C*
X10279550Y6442500D03*
D25*
X10699550Y6442500D03*
D24*
X10279550Y7307500D03*
D25*
X10699550Y7307500D03*
G04 #@! TD*
D26*
G04 #@! TO.N,!MIX_BYPASS*
X8321180Y5112640D03*
X4909440Y1967520D03*
X4292460Y2472940D03*
X274420Y4987280D03*
X4838840Y2478660D03*
G04 #@! TO.N,!RX_AMP_PWR*
X7676020Y4030600D03*
X246240Y4195060D03*
X157340Y3661660D03*
G04 #@! TO.N,!TX_AMP_PWR*
X6821310Y3606420D03*
X761860Y3199380D03*
X761860Y3412740D03*
G04 #@! TO.N,!VAA_ENABLE*
X7429640Y7035420D03*
G04 #@! TO.N,+1.8V*
X5250320Y6928740D03*
X4589400Y8233700D03*
X5750700Y7866000D03*
X5249800Y7735860D03*
G04 #@! TO.N,/frontend/!ANT_BIAS*
X1615300Y2399280D03*
X1615300Y3234940D03*
G04 #@! TO.N,/frontend/REF_IN*
X1706500Y3633760D03*
X4831220Y2928240D03*
G04 #@! TO.N,/mcu/usb/power/B2AUX3*
X5605920Y8170800D03*
G04 #@! TO.N,/mcu/usb/power/B2AUX4*
X5732920Y8010780D03*
G04 #@! TO.N,/mcu/usb/power/B2AUX5*
X5755780Y8158100D03*
G04 #@! TO.N,/mcu/usb/power/B2AUX6*
X5806580Y8076820D03*
G04 #@! TO.N,/mcu/usb/power/B2AUX7*
X5854840Y7993000D03*
G04 #@! TO.N,/mcu/usb/power/BANK2F3M12*
X5082680Y7070980D03*
G04 #@! TO.N,/mcu/usb/power/BANK2F3M2*
X5082680Y7363080D03*
G04 #@! TO.N,/mcu/usb/power/BANK2F3M4*
X5087760Y7264020D03*
G04 #@! TO.N,/mcu/usb/power/BANK2F3M6*
X5085220Y7167500D03*
G04 #@! TO.N,/mcu/usb/power/CPLD_TCK*
X4622940Y7065900D03*
X5826900Y5691760D03*
G04 #@! TO.N,/mcu/usb/power/CPLD_TDI*
X4612780Y7218300D03*
X5791340Y5780660D03*
G04 #@! TO.N,/mcu/usb/power/CPLD_TDO*
X6510160Y7279260D03*
G04 #@! TO.N,/mcu/usb/power/CPLD_TMS*
X7083680Y5218720D03*
X6847460Y4941860D03*
X4935360Y7111620D03*
G04 #@! TO.N,/mcu/usb/power/EN1V8*
X9388500Y8011380D03*
X1320940Y8912480D03*
X7470280Y4241420D03*
G04 #@! TO.N,/mcu/usb/power/GCK0*
X5600840Y8071740D03*
G04 #@! TO.N,/mcu/usb/power/GPIO3_10*
X8893186Y5226836D03*
X9809100Y4522760D03*
G04 #@! TO.N,/mcu/usb/power/GPIO3_11*
X8920127Y5138830D03*
G04 #@! TO.N,/mcu/usb/power/GPIO3_8*
X8676780Y5099940D03*
X9641460Y4306860D03*
G04 #@! TO.N,/mcu/usb/power/GPIO3_9*
X8781831Y5158586D03*
G04 #@! TO.N,/mcu/usb/power/GP_CLKIN*
X5209680Y3474340D03*
X8638680Y5750180D03*
G04 #@! TO.N,/mcu/usb/power/I2C1_SCL*
X8166240Y4645280D03*
X7099440Y4762120D03*
X7381380Y5044060D03*
G04 #@! TO.N,/mcu/usb/power/I2C1_SDA*
X7013080Y4769740D03*
X8250060Y4734180D03*
X7389000Y5145660D03*
G04 #@! TO.N,/mcu/usb/power/I2S0_RX_SCK*
X8572640Y3774060D03*
G04 #@! TO.N,/mcu/usb/power/I2S0_RX_SDA*
X8316654Y3996541D03*
G04 #@! TO.N,/mcu/usb/power/I2S0_RX_WS*
X8257680Y3918840D03*
X8062100Y3316860D03*
G04 #@! TO.N,/mcu/usb/power/I2S0_TX_SCK*
X8300860Y3845180D03*
G04 #@! TO.N,/mcu/usb/power/LED1*
X8041780Y5783200D03*
G04 #@! TO.N,/mcu/usb/power/LED2*
X1465720Y8277480D03*
X8011300Y5925440D03*
G04 #@! TO.N,/mcu/usb/power/LED3*
X7157860Y3939160D03*
G04 #@! TO.N,/mcu/usb/power/P2_8*
X6761620Y3676270D03*
X7363600Y4355720D03*
X1234580Y8628000D03*
G04 #@! TO.N,/mcu/usb/power/RESET*
X8313560Y4856100D03*
X7659299Y6787605D03*
X8598040Y4726560D03*
X1493660Y9001380D03*
G04 #@! TO.N,/mcu/usb/power/SD_CD*
X5631320Y4284600D03*
X7193420Y5534280D03*
G04 #@! TO.N,/mcu/usb/power/SD_CLK*
X7546480Y6258180D03*
G04 #@! TO.N,/mcu/usb/power/SD_CMD*
X7422020Y6082920D03*
G04 #@! TO.N,/mcu/usb/power/SD_DAT0*
X7391540Y5900040D03*
G04 #@! TO.N,/mcu/usb/power/SD_DAT1*
X5595760Y4373500D03*
X7439800Y5778120D03*
G04 #@! TO.N,/mcu/usb/power/SD_DAT2*
X5527180Y4307460D03*
X7298293Y5722546D03*
G04 #@! TO.N,/mcu/usb/power/SD_DAT3*
X5565280Y4172840D03*
X7389000Y5628260D03*
G04 #@! TO.N,/mcu/usb/power/SD_POW*
X7500760Y6016880D03*
G04 #@! TO.N,/mcu/usb/power/SD_VOLT0*
X5489080Y4472560D03*
X7526160Y5788280D03*
G04 #@! TO.N,/mcu/usb/power/SGPIO13*
X7389000Y7693280D03*
X7744600Y7050660D03*
G04 #@! TO.N,/mcu/usb/power/SGPIO9*
X7676020Y6969380D03*
X7287400Y7802500D03*
G04 #@! TO.N,/mcu/usb/power/SPIFI_MISO*
X8323200Y4421160D03*
X9110600Y3544860D03*
G04 #@! TO.N,/mcu/usb/power/SPIFI_SIO2*
X8671700Y3763900D03*
X9179180Y3468660D03*
G04 #@! TO.N,/mcu/usb/power/SPIFI_SIO3*
X8534540Y3685160D03*
X8417180Y3344200D03*
G04 #@! TO.N,/mcu/usb/power/TCK*
X8394240Y7592200D03*
G04 #@! TO.N,/mcu/usb/power/TDI*
X8648840Y7294500D03*
G04 #@! TO.N,/mcu/usb/power/TDO*
X8394840Y7487540D03*
G04 #@! TO.N,/mcu/usb/power/VBAT*
X8718970Y4373712D03*
X9715120Y3527080D03*
G04 #@! TO.N,/mcu/usb/power/VBUS*
X9640000Y7135000D03*
X9930000Y7100000D03*
X9926232Y6636195D03*
G04 #@! TO.N,/mcu/usb/power/VBUSCTRL*
X8850000Y6660000D03*
G04 #@! TO.N,/mcu/usb/power/VIN*
X9050000Y7140000D03*
X10488308Y8157846D03*
G04 #@! TO.N,/mcu/usb/power/VREGMODE*
X7242615Y4036054D03*
X8675510Y6860000D03*
G04 #@! TO.N,AMP_BYPASS*
X7429640Y3878200D03*
X637400Y3092700D03*
X637400Y3679440D03*
X619620Y4159500D03*
X424040Y3590540D03*
G04 #@! TO.N,CLK6*
X5301120Y3161920D03*
G04 #@! TO.N,CS_AD*
X6101220Y6248020D03*
X2726310Y8370530D03*
G04 #@! TO.N,CS_XCVR*
X4426840Y5645440D03*
X5885320Y5557140D03*
G04 #@! TO.N,GCK1*
X3125090Y7560270D03*
X3545980Y7258940D03*
G04 #@! TO.N,GCK2*
X4589400Y8111780D03*
X5384940Y6608700D03*
G04 #@! TO.N,GND*
X-106820Y3554980D03*
X-223660Y3554980D03*
X10149700Y2876800D03*
X5093520Y2670060D03*
X3930270Y7953970D03*
X2363090Y7890470D03*
X218300Y2612640D03*
X6019940Y5569840D03*
X8999154Y6324223D03*
X2480000Y2170000D03*
X1761040Y3823840D03*
X1064120Y3572760D03*
X8305878Y6079960D03*
X-345000Y3770000D03*
X3080000Y2170000D03*
X8089520Y3212120D03*
X4456050Y5283490D03*
X-840600Y4718940D03*
X3132710Y4813590D03*
X1280000Y5970000D03*
X2596700Y4293740D03*
X2826640Y7287220D03*
X2965000Y3087240D03*
X3141600Y7287220D03*
X9428410Y4652100D03*
X2317300Y4169280D03*
X919580Y4847580D03*
X3429140Y7274180D03*
X2887600Y7193240D03*
X492620Y5594600D03*
X2623440Y7287220D03*
X4830000Y5170000D03*
X2545900Y3785740D03*
X944980Y5482580D03*
X3680000Y5970000D03*
X10048900Y8455880D03*
X4072510Y4115090D03*
X1880000Y2170000D03*
X4176650Y5692430D03*
X4676280Y6499480D03*
X9420000Y5950000D03*
X6042800Y3362580D03*
X3043810Y5204750D03*
X-840600Y5176140D03*
X4705000Y4370000D03*
X5006480Y3370200D03*
X3800730Y4059210D03*
X3296300Y2564780D03*
X530720Y2813300D03*
X5829440Y4172840D03*
X3493390Y4115090D03*
X6832740Y3751200D03*
X4080000Y6320000D03*
X2062100Y6631900D03*
X5775580Y2279940D03*
X6049900Y8764560D03*
X10163200Y7922480D03*
X4096640Y3473968D03*
X1880000Y5970000D03*
X1786440Y2965320D03*
X3200020Y7193240D03*
X7856865Y6906144D03*
X2114100Y4303900D03*
X1107060Y4482120D03*
X9255900Y4078860D03*
X3765170Y4170970D03*
X-345000Y5570000D03*
X10379100Y8328880D03*
X2374520Y6631900D03*
X10236060Y2498340D03*
X2780000Y5820000D03*
X5506340Y6930680D03*
X4705000Y3170000D03*
X944980Y5368280D03*
X8054430Y3723541D03*
X5374780Y6372480D03*
X4909440Y7878100D03*
X7274700Y3695320D03*
X-198260Y4123940D03*
X4458590Y5085370D03*
X3782950Y4369090D03*
X1186280Y5228580D03*
X957720Y7205600D03*
X4932820Y2999360D03*
X9284726Y4508416D03*
X944980Y5596880D03*
X1749680Y3516920D03*
X2189100Y6631900D03*
X4280000Y5970000D03*
X6527787Y6205684D03*
X9071000Y8074880D03*
X4532250Y5181890D03*
X6185040Y2605660D03*
X7653911Y6430190D03*
X2488070Y7639940D03*
X3680000Y2170000D03*
X2725040Y7287220D03*
X2777040Y2515740D03*
X5449120Y2647200D03*
X6893700Y8127620D03*
X1595260Y7104000D03*
X3233040Y7297380D03*
X4835780Y3138460D03*
X3586100Y3938523D03*
X6332017Y4860442D03*
X5943740Y3842640D03*
X1951540Y2812920D03*
X8808772Y6528973D03*
X665100Y4505180D03*
X8970417Y5936276D03*
X9078180Y4301870D03*
X1046580Y4847580D03*
X10050000Y7210000D03*
X3132710Y5359690D03*
X5313820Y3438780D03*
X8839340Y3855340D03*
X2306180Y2668520D03*
X9430000Y6150000D03*
X10048900Y7693880D03*
X685660Y2815840D03*
X2218240Y2812920D03*
X8934496Y4158186D03*
X3642220Y3450840D03*
X3431400Y3163820D03*
X2401190Y8233370D03*
X9540900Y8074880D03*
X5626240Y3852800D03*
X4705000Y5570000D03*
X-840600Y5630800D03*
X6814960Y4015360D03*
X71220Y5083800D03*
X3327020Y7193240D03*
X6703200Y6519800D03*
X6700660Y6644260D03*
X6037720Y2191640D03*
X8368739Y3592430D03*
X3478150Y4369090D03*
X2215700Y4169280D03*
X8778239Y4881994D03*
X3743340Y2412380D03*
X2843150Y8688030D03*
X2342020Y8034910D03*
X2280000Y5845000D03*
X9455411Y5785411D03*
X-220000Y3370000D03*
X726300Y2648200D03*
X5155820Y8205760D03*
X302120Y3359400D03*
X116700Y3170300D03*
X4705000Y3770000D03*
X1089012Y3195824D03*
X8950000Y7040000D03*
X50660Y3661660D03*
X3152000Y3692140D03*
X9336660Y3715040D03*
X80000Y5970000D03*
X754480Y5228580D03*
X6355220Y8255890D03*
X4691000Y8482620D03*
X80000Y2170000D03*
X1282561Y2170000D03*
X4252850Y4597690D03*
X5908180Y3476880D03*
X10328300Y7820880D03*
X1117460Y4177280D03*
X7165385Y6843282D03*
X3014600Y7193240D03*
X3828670Y3529913D03*
X116700Y3345300D03*
X3871850Y5794030D03*
X2693290Y8500070D03*
X8718970Y6618776D03*
X2928240Y7287220D03*
X797420Y3928360D03*
X2482400Y4331840D03*
X3477120Y2881880D03*
X2711000Y4217540D03*
X4988020Y2482220D03*
X-345000Y4370000D03*
X5842140Y6923660D03*
X6223140Y4591940D03*
X8449562Y5936276D03*
X3564510Y7659330D03*
X3144660Y8686420D03*
X4705000Y2570000D03*
X2114100Y4169280D03*
X1868577Y4651012D03*
X-25300Y4862820D03*
X5132960Y2279940D03*
X-840600Y6088000D03*
X-345000Y4970000D03*
X8972213Y5427994D03*
X2091240Y2812920D03*
X4280000Y2170000D03*
X-840600Y4261740D03*
X2240140Y4967220D03*
X2923160Y3786160D03*
X2652580Y2998340D03*
X-332600Y7030340D03*
X680000Y2170000D03*
X-866000Y7398640D03*
X1672140Y4077840D03*
X9934600Y8747980D03*
X-353441Y2570000D03*
X4580000Y4770000D03*
X388480Y4212840D03*
X3621660Y7360880D03*
X6545200Y7390420D03*
X1457820Y4860540D03*
X4284600Y7669820D03*
X2521840Y7287220D03*
X10050000Y6540000D03*
X6700660Y6771260D03*
X2502040Y6631560D03*
X2798700Y2963200D03*
X3305000Y5845000D03*
X3930270Y8075890D03*
X9250000Y6480000D03*
X680000Y5970000D03*
X3998850Y5794030D03*
G04 #@! TO.N,HP*
X9364600Y5338100D03*
X1356220Y5061200D03*
G04 #@! TO.N,LP*
X591680Y5381240D03*
X8326260Y5290440D03*
G04 #@! TO.N,MIXER_ENX*
X2596700Y4014340D03*
X7739520Y5130420D03*
X2592960Y3684560D03*
G04 #@! TO.N,MIXER_RESETX*
X2617020Y3595240D03*
X2709800Y3918240D03*
X7800480Y5056760D03*
G04 #@! TO.N,MIXER_SCLK*
X2482400Y4039740D03*
X7188340Y4520820D03*
G04 #@! TO.N,MIXER_SDATA*
X2392820Y4259200D03*
X7335660Y4718940D03*
G04 #@! TO.N,MIX_BYPASS*
X6510160Y3144140D03*
X4007980Y2861560D03*
G04 #@! TO.N,RSSI*
X7744600Y5320920D03*
X3631820Y5485420D03*
G04 #@! TO.N,RX*
X3053220Y2849500D03*
X6670180Y3139060D03*
X2044560Y4858000D03*
G04 #@! TO.N,RXENABLE*
X7881760Y6034660D03*
X3354960Y4708180D03*
G04 #@! TO.N,RX_AMP*
X406260Y4106160D03*
X7612520Y4089020D03*
X530720Y3092700D03*
X317360Y3689600D03*
G04 #@! TO.N,RX_MIX_BP*
X8323720Y5018660D03*
X269340Y4860280D03*
G04 #@! TO.N,SCL*
X6289180Y3362580D03*
X6200280Y4147440D03*
X6743840Y4434460D03*
X5819280Y2572640D03*
X6416180Y2905380D03*
G04 #@! TO.N,SDA*
X5817420Y2659900D03*
X6360300Y4144900D03*
X6362840Y3001900D03*
X6698120Y4363340D03*
G04 #@! TO.N,SGPIO_CLK*
X7208140Y5206020D03*
X6035180Y4261740D03*
G04 #@! TO.N,SSP1_MISO*
X7240819Y6466111D03*
X3756280Y5797840D03*
G04 #@! TO.N,SSP1_MOSI*
X3631820Y5584480D03*
X6398654Y6298566D03*
X2839860Y8564500D03*
G04 #@! TO.N,SSP1_SCK*
X4208920Y4896740D03*
X2854084Y8455280D03*
X5811660Y6270880D03*
G04 #@! TO.N,TXENABLE*
X3283840Y4797080D03*
X7922400Y5943220D03*
G04 #@! TO.N,TX_AMP*
X8153540Y4828160D03*
X888336Y4072616D03*
X726300Y3626101D03*
X744080Y3092700D03*
G04 #@! TO.N,TX_MIX_BP*
X921640Y4593880D03*
X8333880Y5196460D03*
G04 #@! TO.N,VAA*
X291960Y2914900D03*
X1170800Y3466080D03*
X1358760Y5406640D03*
X584060Y5038340D03*
X3563480Y2660900D03*
X3743820Y3745480D03*
X2608440Y2668520D03*
X1699120Y4814820D03*
X3899790Y5527330D03*
X726300Y2381500D03*
X2662810Y7796490D03*
X3338450Y5159030D03*
X4854080Y2803780D03*
X3026030Y8487370D03*
X4151250Y5222530D03*
X2640470Y8028560D03*
X3320670Y4927890D03*
X1135240Y3857240D03*
X3428860Y3290820D03*
X2928240Y7566620D03*
X-739000Y5834000D03*
X2190300Y3087240D03*
X2705240Y8254620D03*
X2852040Y3214660D03*
X157340Y4017260D03*
X3478150Y4671350D03*
X3436240Y7564080D03*
X170040Y2914900D03*
X3782950Y4668810D03*
X3307970Y5250470D03*
X2850700Y3671440D03*
X3245740Y7566620D03*
X4166490Y5085370D03*
X4151250Y4800890D03*
X2126800Y3912740D03*
G04 #@! TO.N,VCC*
X8503443Y6403250D03*
X4487800Y7568220D03*
X5961000Y8558820D03*
X5237620Y2976500D03*
X6441580Y4800220D03*
X9069200Y4723942D03*
X5811140Y3268000D03*
X6243460Y3240660D03*
X6700660Y6900800D03*
X6321241Y5568086D03*
X6672720Y6372480D03*
X10236060Y2653280D03*
X3639960Y7977760D03*
X6583300Y8101620D03*
X8401940Y3214660D03*
X6743313Y5990158D03*
X5943740Y3149220D03*
X8153213Y3807956D03*
X-332600Y8325740D03*
X9212884Y4867626D03*
X9580000Y5870000D03*
X5512620Y3333000D03*
X1160920Y7403720D03*
X7400668Y6636736D03*
X4240150Y5179350D03*
X4894200Y6603020D03*
X8786142Y6101154D03*
X10469512Y8516748D03*
X6532500Y7517420D03*
X7488674Y3772035D03*
X5830120Y2469400D03*
X9563240Y4246500D03*
X8710000Y7610000D03*
X-761860Y7492620D03*
X5320920Y2798100D03*
X10135260Y8219660D03*
X8498980Y7109080D03*
X10190340Y3313680D03*
X6169800Y3553080D03*
X7132460Y3631820D03*
X1989640Y3092320D03*
X6058720Y2609100D03*
X8027490Y6789401D03*
X9173730Y5659685D03*
X7030681Y4230028D03*
X8867280Y4510660D03*
X7538860Y7037960D03*
G04 #@! TO.N,XCVR_EN*
X7150240Y6484240D03*
X4062350Y5451130D03*
X7883806Y6193112D03*
G04 #@! TO.N,Net-(U21-MODE{slash}DATA)*
X10208920Y7820880D03*
X9009942Y7447528D03*
G04 #@! TO.N,Net-(U21-EN1)*
X10381640Y8455880D03*
X9502800Y8189180D03*
G04 #@! TO.N,Net-(U23-USB0_VBUS)*
X8760000Y6710000D03*
X8595500Y6250560D03*
G04 #@! TD*
D27*
G04 #@! TO.N,!MIX_BYPASS*
X8535050Y5112640D02*
X8753490Y5331080D01*
X8753490Y5331080D02*
X9135500Y5331080D01*
X4997739Y1937641D02*
X4967860Y1967520D01*
X4909440Y1967520D02*
X4967860Y1967520D01*
X9669500Y4797080D02*
X9976740Y4797080D01*
X9976740Y4797080D02*
X10035160Y4738660D01*
X10035160Y4738660D02*
X10035160Y2745350D01*
X10035160Y2745350D02*
X9227450Y1937641D01*
X192059Y1937641D02*
X4815460Y1937641D01*
X-462140Y4481698D02*
X-462140Y3723770D01*
X-462140Y3723770D02*
X-373760Y3635391D01*
X4845339Y1967520D02*
X4909440Y1967520D01*
X4815460Y1937641D02*
X4845339Y1967520D01*
X4838840Y2478660D02*
X4298180Y2478660D01*
X-373760Y3635391D02*
X-373760Y2770360D01*
X9227450Y1937641D02*
X4997739Y1937641D01*
X274420Y4987280D02*
X16240Y4729100D01*
X-214738Y4729100D02*
X-462140Y4481698D01*
X-233820Y2630420D02*
X-233820Y2363520D01*
X-373760Y2770360D02*
X-233820Y2630420D01*
X4298180Y2478660D02*
X4292460Y2472940D01*
X16240Y4729100D02*
X-214738Y4729100D01*
X-233820Y2363520D02*
X192059Y1937641D01*
X9135500Y5331080D02*
X9669500Y4797080D01*
X8321180Y5112640D02*
X8535050Y5112640D01*
G04 #@! TO.N,!RX_AMP_PWR*
X78600Y3582920D02*
X157340Y3661660D01*
X4846360Y2069120D02*
X4786001Y2008761D01*
X-302640Y3604778D02*
X-263538Y3643880D01*
X-302640Y2805920D02*
X-302640Y3604778D01*
X246240Y3773420D02*
X246240Y4195060D01*
X4786001Y2008761D02*
X458959Y2008761D01*
X7284351Y2008761D02*
X5027199Y2008761D01*
X-63640Y3643880D02*
X-2680Y3582920D01*
X-68720Y2305300D02*
X-162700Y2399280D01*
X4966839Y2069120D02*
X4846360Y2069120D01*
X7792860Y2517270D02*
X7284351Y2008761D01*
X7792860Y3913760D02*
X7792860Y2517270D01*
X-2680Y3582920D02*
X78600Y3582920D01*
X7676020Y4030600D02*
X7792860Y3913760D01*
X5027199Y2008761D02*
X4966839Y2069120D01*
X-263538Y3643880D02*
X-63640Y3643880D01*
X-162700Y2665980D02*
X-302640Y2805920D01*
X-162700Y2399280D02*
X-162700Y2665980D01*
X458959Y2008761D02*
X162420Y2305300D01*
X157340Y3661660D02*
X246240Y3773420D01*
X162420Y2305300D02*
X-68720Y2305300D01*
G04 #@! TO.N,!TX_AMP_PWR*
X6769240Y2601090D02*
X6583309Y2415159D01*
X1390978Y2285020D02*
X972934Y2703064D01*
X972934Y2703064D02*
X972934Y2988306D01*
X6583309Y2415159D02*
X6083950Y2415159D01*
X4952099Y2285020D02*
X1390978Y2285020D01*
X5819792Y2151002D02*
X5086117Y2151002D01*
X6769240Y3554350D02*
X6769240Y2601090D01*
X5086117Y2151002D02*
X4952099Y2285020D01*
X6083950Y2415159D02*
X5819792Y2151002D01*
X761860Y3412740D02*
X761860Y3199380D01*
X972934Y2988306D02*
X761860Y3199380D01*
X6821310Y3606420D02*
X6769240Y3554350D01*
G04 #@! TO.N,!VAA_ENABLE*
X1547000Y8884540D02*
X1547000Y8755000D01*
X1628281Y8965821D02*
X1547000Y8884540D01*
X4864628Y8965821D02*
X5493653Y8336795D01*
X5493653Y8336795D02*
X5493653Y7970140D01*
X5707013Y7756781D02*
X6642738Y7756781D01*
X7429640Y7035420D02*
X7378840Y7086220D01*
X7378840Y7086220D02*
X7313299Y7086220D01*
X7313299Y7086220D02*
X6642738Y7756781D01*
X5493653Y7970140D02*
X5707013Y7756781D01*
X1628281Y8965821D02*
X4864628Y8965821D01*
D28*
G04 #@! TO.N,+1.8V*
X6881000Y7993000D02*
X6754000Y7866000D01*
X6754000Y7866000D02*
X5750700Y7866000D01*
D29*
X5250320Y6928740D02*
X5249800Y6928740D01*
D28*
X5249800Y6928740D02*
X5249800Y7735860D01*
X4751960Y8233700D02*
X4589400Y8233700D01*
X7389000Y7993000D02*
X6881000Y7993000D01*
X5249800Y7735860D02*
X4751960Y8233700D01*
D27*
G04 #@! TO.N,/frontend/!ANT_BIAS*
X1615300Y3234940D02*
X1615300Y3186447D01*
X1615300Y3186447D02*
X1615300Y2399280D01*
D29*
G04 #@! TO.N,/frontend/REF_IN*
X2906539Y3003801D02*
X2664600Y3245740D01*
X4831220Y2928240D02*
X4755659Y3003801D01*
X4755659Y3003801D02*
X2906539Y3003801D01*
X1661300Y3489580D02*
X1661300Y3588560D01*
X1905140Y3245740D02*
X1661300Y3489580D01*
X1661300Y3588560D02*
X1706500Y3633760D01*
X2664600Y3245740D02*
X1905140Y3245740D01*
D27*
G04 #@! TO.N,/mcu/usb/power/B2AUX3*
X7135000Y8389240D02*
X7096901Y8351141D01*
X7096901Y8351141D02*
X6597529Y8351141D01*
X6506089Y8442581D02*
X6021471Y8442581D01*
X6021471Y8442581D02*
X5843671Y8264780D01*
X5843671Y8264780D02*
X5699900Y8264780D01*
X5699900Y8264780D02*
X5605920Y8170800D01*
X6597529Y8351141D02*
X6506089Y8442581D01*
X7135000Y8501000D02*
X7135000Y8389240D01*
G04 #@! TO.N,/mcu/usb/power/B2AUX4*
X7264540Y8625460D02*
X7264540Y8376541D01*
X7264540Y8376541D02*
X7203580Y8315581D01*
X7203580Y8315581D02*
X6582799Y8315581D01*
X5684660Y8059040D02*
X5732920Y8010780D01*
X6491359Y8407020D02*
X6036201Y8407020D01*
X6036201Y8407020D02*
X5858400Y8229220D01*
X5858400Y8229220D02*
X5732920Y8229220D01*
X5732920Y8229220D02*
X5684660Y8180960D01*
X5684660Y8180960D02*
X5684660Y8059040D01*
X7135000Y8755000D02*
X7264540Y8625460D01*
X6582799Y8315581D02*
X6491359Y8407020D01*
G04 #@! TO.N,/mcu/usb/power/B2AUX5*
X7389000Y8379080D02*
X7289940Y8280020D01*
X7289940Y8280020D02*
X6568069Y8280020D01*
X6476630Y8371460D02*
X6050930Y8371460D01*
X6050930Y8371460D02*
X5837570Y8158100D01*
X5837570Y8158100D02*
X5755780Y8158100D01*
X7389000Y8379080D02*
X7389000Y8501000D01*
X6568069Y8280020D02*
X6476630Y8371460D01*
G04 #@! TO.N,/mcu/usb/power/B2AUX6*
X7516000Y8628000D02*
X7516000Y8376540D01*
X7516000Y8376540D02*
X7383920Y8244460D01*
X7383920Y8244460D02*
X6553340Y8244460D01*
X6461900Y8335900D02*
X6065660Y8335900D01*
X6065660Y8335900D02*
X5806580Y8076820D01*
X7516000Y8628000D02*
X7389000Y8755000D01*
X6553340Y8244460D02*
X6461900Y8335900D01*
G04 #@! TO.N,/mcu/usb/power/B2AUX7*
X7643000Y8361300D02*
X7490600Y8208900D01*
X7490600Y8208900D02*
X6548260Y8208900D01*
X6548260Y8208900D02*
X6332360Y7993000D01*
X6332360Y7993000D02*
X5854840Y7993000D01*
X7643000Y8361300D02*
X7643000Y8501000D01*
G04 #@! TO.N,/mcu/usb/power/BANK2F3M12*
X5285880Y6286120D02*
X5285880Y6558410D01*
X5285880Y6558410D02*
X4869320Y6974970D01*
X4869320Y6974970D02*
X4869320Y7139560D01*
X4869320Y7139560D02*
X4907420Y7177660D01*
X4976000Y7177660D02*
X5082680Y7070980D01*
X4907420Y7177660D02*
X4976000Y7177660D01*
X5357000Y6215000D02*
X5285880Y6286120D01*
G04 #@! TO.N,/mcu/usb/power/BANK2F3M2*
X4927740Y5882260D02*
X4927740Y6346440D01*
X4927740Y6346440D02*
X4526056Y6980980D01*
X4526056Y6980980D02*
X4527692Y7252188D01*
X5103000Y5707000D02*
X4927740Y5882260D01*
X4638584Y7363080D02*
X5082680Y7363080D01*
X4527692Y7252188D02*
X4638584Y7363080D01*
G04 #@! TO.N,/mcu/usb/power/BANK2F3M4*
X5214760Y6528951D02*
X4798200Y6945511D01*
X4893200Y7264020D02*
X5087760Y7264020D01*
X5214760Y6326760D02*
X5103000Y6215000D01*
X5214760Y6528951D02*
X5214760Y6326760D01*
X4798200Y6945511D02*
X4798200Y7169019D01*
X4798200Y7169019D02*
X4893200Y7264020D01*
G04 #@! TO.N,/mcu/usb/power/BANK2F3M6*
X5250320Y6543681D02*
X4833760Y6960241D01*
X4833760Y6960241D02*
X4833760Y7154290D01*
X4892690Y7213220D02*
X5039500Y7213220D01*
X5039500Y7213220D02*
X5085220Y7167500D01*
X5250320Y6108320D02*
X5250320Y6543681D01*
X4833760Y7154290D02*
X4892690Y7213220D01*
X5103000Y5961000D02*
X5250320Y6108320D01*
G04 #@! TO.N,/mcu/usb/power/CPLD_TCK*
X4963300Y5903090D02*
X5045090Y5821300D01*
X5045090Y5821300D02*
X5242700Y5821300D01*
X5242700Y5821300D02*
X5357000Y5707000D01*
X4963300Y6463920D02*
X4991240Y6491860D01*
X4991240Y6651891D02*
X4727079Y6916052D01*
X4727079Y6916052D02*
X4727079Y6961761D01*
X4727079Y6961761D02*
X4622940Y7065900D01*
X5826900Y5691760D02*
X5372240Y5691760D01*
X5372240Y5691760D02*
X5357000Y5707000D01*
X4963300Y5903090D02*
X4963300Y6463920D01*
X4991240Y6491860D02*
X4991240Y6651891D01*
G04 #@! TO.N,/mcu/usb/power/CPLD_TDI*
X5059820Y5856860D02*
X4998860Y5917820D01*
X5252860Y5856860D02*
X5357000Y5961000D01*
X4998860Y6449190D02*
X5026800Y6477130D01*
X5026800Y6477130D02*
X5026800Y6666621D01*
X5026800Y6666621D02*
X4762639Y6930781D01*
X4762639Y6930781D02*
X4762639Y7068441D01*
X4762639Y7068441D02*
X4612780Y7218300D01*
X5791340Y5780660D02*
X5537340Y5780660D01*
X5537340Y5780660D02*
X5357000Y5961000D01*
X4998860Y5917820D02*
X4998860Y6449190D01*
X5059820Y5856860D02*
X5252860Y5856860D01*
G04 #@! TO.N,/mcu/usb/power/CPLD_TDO*
X6510160Y6316600D02*
X6337440Y6143880D01*
X6337440Y6143880D02*
X6185040Y6143880D01*
X6185040Y6143880D02*
X6119000Y6077840D01*
X6119000Y6077840D02*
X6119000Y5961000D01*
X6510160Y7279260D02*
X6510160Y6316600D01*
G04 #@! TO.N,/mcu/usb/power/CPLD_TMS*
X6994780Y5089180D02*
X6994780Y5129820D01*
X6994780Y5129820D02*
X7083680Y5218720D01*
X5415420Y6535040D02*
X5359540Y6535040D01*
X5359540Y6535040D02*
X5120260Y6774320D01*
X5120260Y6926720D02*
X4935360Y7111620D01*
X5865000Y6085460D02*
X5865000Y5961000D01*
X5120260Y6774320D02*
X5120260Y6926720D01*
X5415420Y6535040D02*
X5865000Y6085460D01*
X6847460Y4941860D02*
X6994780Y5089180D01*
G04 #@! TO.N,/mcu/usb/power/EN1V8*
X8163700Y8254620D02*
X8021460Y8396860D01*
X8021460Y8396860D02*
X8021460Y8879460D01*
X9288920Y8254620D02*
X9388500Y8155040D01*
X9388500Y8011380D02*
X9388500Y8155040D01*
X7927224Y8973696D02*
X8021460Y8879460D01*
X5820444Y8973696D02*
X5613020Y9181120D01*
X5613020Y9181120D02*
X5351400Y9181120D01*
X5351400Y9181120D02*
X5207221Y9036941D01*
X1320940Y9001380D02*
X1404760Y9085200D01*
X1404760Y9085200D02*
X1534301Y9085200D01*
X1534301Y9085200D02*
X1582560Y9036941D01*
X1582560Y9036941D02*
X5207221Y9036941D01*
X8163700Y8254620D02*
X9288920Y8254620D01*
X8220596Y6116448D02*
X8414906Y6310758D01*
X8760000Y6826030D02*
X8760000Y7382880D01*
X8414906Y6310758D02*
X8414906Y6480936D01*
X8414906Y6480936D02*
X8760000Y6826030D01*
X1320940Y8912480D02*
X1320940Y9001380D01*
X7516000Y4338450D02*
X8220596Y5043046D01*
X8220596Y5043046D02*
X8220596Y6116448D01*
X7516000Y4287140D02*
X7516000Y4338450D01*
X7470280Y4241420D02*
X7516000Y4287140D01*
X8760000Y7382880D02*
X9388500Y8011380D01*
X7927224Y8973696D02*
X5820444Y8973696D01*
G04 #@! TO.N,/mcu/usb/power/GCK0*
X5600840Y8071740D02*
X5529214Y8143366D01*
X5529214Y8143366D02*
X5529214Y8375954D01*
X5529214Y8375954D02*
X6055835Y8902575D01*
X6055835Y8902575D02*
X6479425Y8902575D01*
X6479425Y8902575D02*
X6627000Y8755000D01*
G04 #@! TO.N,/mcu/usb/power/GPIO3_10*
X9809100Y4588800D02*
X9778620Y4619280D01*
X9778620Y4619280D02*
X9746720Y4619280D01*
X9746720Y4619280D02*
X9185861Y5180139D01*
X8893186Y5226836D02*
X8950660Y5226836D01*
X9809100Y4522760D02*
X9809100Y4588800D01*
X8950660Y5226836D02*
X8997357Y5180139D01*
X8997357Y5180139D02*
X9185861Y5180139D01*
G04 #@! TO.N,/mcu/usb/power/GPIO3_11*
X9743580Y4495420D02*
X9743580Y4572130D01*
X9743580Y4572130D02*
X9176881Y5138830D01*
X9176881Y5138830D02*
X8920127Y5138830D01*
X9802000Y4437000D02*
X9743580Y4495420D01*
X9929000Y4437000D02*
X9802000Y4437000D01*
G04 #@! TO.N,/mcu/usb/power/GPIO3_8*
X8752838Y5023882D02*
X8676780Y5099940D01*
X9641460Y4573671D02*
X9641460Y4306860D01*
X9191248Y5023882D02*
X8752838Y5023882D01*
X9191248Y5023882D02*
X9641460Y4573671D01*
G04 #@! TO.N,/mcu/usb/power/GPIO3_9*
X9200229Y5065192D02*
X9708020Y4557401D01*
X9708020Y4557401D02*
X9708020Y4276980D01*
X9708020Y4276980D02*
X9802000Y4183000D01*
X8886002Y5065192D02*
X9200229Y5065192D01*
X9929000Y4183000D02*
X9802000Y4183000D01*
X8781831Y5158586D02*
X8792608Y5158586D01*
X8792608Y5158586D02*
X8886002Y5065192D01*
D29*
G04 #@! TO.N,/mcu/usb/power/GP_CLKIN*
X5257940Y3522600D02*
X5819280Y3522600D01*
X5819280Y3522600D02*
X5933580Y3636900D01*
X8258696Y5370196D02*
X8258696Y5027265D01*
X8258696Y5027265D02*
X7554100Y4322669D01*
X7554100Y4322669D02*
X7554100Y4233800D01*
X6500000Y3636900D02*
X6726060Y3862960D01*
X6726060Y3862960D02*
X7183260Y3862960D01*
X7183260Y3862960D02*
X7554100Y4233800D01*
X5209680Y3474340D02*
X5257940Y3522600D01*
X5933580Y3636900D02*
X6500000Y3636900D01*
X8638680Y5750180D02*
X8258696Y5370196D01*
D27*
G04 #@! TO.N,/mcu/usb/power/I2C1_SCL*
X9253360Y2999360D02*
X9253360Y3563240D01*
X9253360Y3563240D02*
X8402460Y4414140D01*
X8402460Y4414140D02*
X8402460Y4467480D01*
X8224660Y4645280D02*
X8166240Y4645280D01*
X7381380Y5044060D02*
X7099440Y4762120D01*
X8402460Y4467480D02*
X8224660Y4645280D01*
X9167000Y2913000D02*
X9253360Y2999360D01*
G04 #@! TO.N,/mcu/usb/power/I2C1_SDA*
X9288920Y2780920D02*
X9288920Y3577970D01*
X9288920Y3577970D02*
X8438020Y4428870D01*
X8438020Y4428870D02*
X8438020Y4482210D01*
X8250060Y4670170D02*
X8250060Y4734180D01*
X7013080Y4769740D02*
X7389000Y5145660D01*
X8438020Y4482210D02*
X8250060Y4670170D01*
X9167000Y2659000D02*
X9288920Y2780920D01*
G04 #@! TO.N,/mcu/usb/power/I2S0_RX_SCK*
X8450200Y3742980D02*
X8450200Y3557560D01*
X8278000Y3385360D02*
X8278000Y2786000D01*
X8405000Y2659000D02*
X8278000Y2786000D01*
X8572640Y3774060D02*
X8481280Y3774060D01*
X8481280Y3774060D02*
X8450200Y3742980D01*
X8450200Y3557560D02*
X8278000Y3385360D01*
G04 #@! TO.N,/mcu/usb/power/I2S0_RX_SDA*
X8402865Y3791840D02*
X8402865Y3910331D01*
X8171320Y3560295D02*
X8171320Y2933320D01*
X8171320Y2933320D02*
X8151000Y2913000D01*
X8402865Y3910331D02*
X8316654Y3996541D01*
X8402865Y3791840D02*
X8171320Y3560295D01*
G04 #@! TO.N,/mcu/usb/power/I2S0_RX_WS*
X8361555Y3804785D02*
X8062100Y3505330D01*
X8062100Y3505330D02*
X8062100Y3316860D01*
X8257680Y3918840D02*
X8326260Y3918840D01*
X8326260Y3918840D02*
X8361555Y3883545D01*
X8361555Y3883545D02*
X8361555Y3804785D01*
G04 #@! TO.N,/mcu/usb/power/I2S0_TX_SCK*
X8001140Y3494660D02*
X8001140Y2763140D01*
X8001140Y2763140D02*
X7897000Y2659000D01*
X8300860Y3845180D02*
X8246250Y3790570D01*
X8246250Y3790570D02*
X8246250Y3739770D01*
X8246250Y3739770D02*
X8001140Y3494660D01*
G04 #@! TO.N,/mcu/usb/power/LED1*
X8041780Y5850765D02*
X8073275Y5882260D01*
X8073275Y6175375D02*
X8073275Y5882260D01*
X5386973Y8292606D02*
X4820439Y8859140D01*
X4820439Y8859140D02*
X1905140Y8859140D01*
X5662443Y7650100D02*
X6598550Y7650100D01*
X6598550Y7650100D02*
X8073275Y6175375D01*
X5386973Y7925570D02*
X5386973Y8292606D01*
X5386973Y7925570D02*
X5662443Y7650100D01*
X8041780Y5783200D02*
X8041780Y5850765D01*
X1801000Y8755000D02*
X1905140Y8859140D01*
G04 #@! TO.N,/mcu/usb/power/LED2*
X5647713Y7614540D02*
X5351413Y7910841D01*
X8011300Y5925440D02*
X8011300Y6008245D01*
X8011300Y6008245D02*
X8037715Y6034660D01*
X8037715Y6160645D02*
X6583820Y7614540D01*
X6583820Y7614540D02*
X5647713Y7614540D01*
X2179460Y8628000D02*
X1928000Y8628000D01*
X1928000Y8628000D02*
X1801000Y8501000D01*
X2375040Y8823580D02*
X2179460Y8628000D01*
X5351413Y8277877D02*
X4805710Y8823580D01*
X4805710Y8823580D02*
X2375040Y8823580D01*
X1465720Y8277480D02*
X1577480Y8277480D01*
X1577480Y8277480D02*
X1801000Y8501000D01*
X8037715Y6034660D02*
X8037715Y6160645D01*
X5351413Y7910841D02*
X5351413Y8277877D01*
G04 #@! TO.N,/mcu/usb/power/LED3*
X7157860Y3939160D02*
X7157860Y4080890D01*
X7157860Y4080890D02*
X7295020Y4218050D01*
X7295020Y4218050D02*
X7295020Y4381120D01*
X7295020Y4381120D02*
X7355725Y4441825D01*
X7355725Y4441825D02*
X7468505Y4441825D01*
X7468505Y4441825D02*
X8108835Y5082155D01*
X1694320Y8818500D02*
X1694320Y8648320D01*
X1694320Y8648320D02*
X1547000Y8501000D01*
X1770520Y8894700D02*
X1694320Y8818500D01*
X5422533Y8307336D02*
X4835169Y8894700D01*
X4835169Y8894700D02*
X1770520Y8894700D01*
X6613279Y7685660D02*
X5677172Y7685660D01*
X5677172Y7685660D02*
X5422533Y7940300D01*
X5422533Y7940300D02*
X5422533Y8307336D01*
X8108835Y6190104D02*
X6613279Y7685660D01*
X8108835Y5082155D02*
X8108835Y6190104D01*
G04 #@! TO.N,/mcu/usb/power/P2_8*
X7363600Y4355720D02*
X7414145Y4406265D01*
X7414145Y4406265D02*
X7483235Y4406265D01*
X7483235Y4406265D02*
X8144396Y5067425D01*
X6881000Y2913000D02*
X6990220Y3022220D01*
X1658760Y8833230D02*
X1658760Y8663050D01*
X1658760Y8663050D02*
X1623710Y8628000D01*
X1755791Y8930260D02*
X1658760Y8833230D01*
X6761620Y3676270D02*
X6766700Y3671190D01*
X6766700Y3671190D02*
X6911480Y3671190D01*
X6911480Y3671190D02*
X6990220Y3592450D01*
X6990220Y3592450D02*
X6990220Y3022220D01*
X5458093Y8322066D02*
X4849898Y8930260D01*
X4849898Y8930260D02*
X1755791Y8930260D01*
X5691902Y7721221D02*
X6628009Y7721221D01*
X6628009Y7721221D02*
X8144396Y6204834D01*
X5458093Y7955029D02*
X5458093Y8322066D01*
X1623710Y8628000D02*
X1234580Y8628000D01*
X5458093Y7955029D02*
X5691902Y7721221D01*
X8144396Y5067425D02*
X8144396Y6204834D01*
G04 #@! TO.N,/mcu/usb/power/RESET*
X7959380Y7101460D02*
X7891920Y7101460D01*
X7891920Y7101460D02*
X7759840Y6969380D01*
X7759840Y6969380D02*
X7759840Y6888145D01*
X7759840Y6888145D02*
X7659299Y6787605D01*
X7897000Y4472560D02*
X7897000Y3421000D01*
X7891920Y8208900D02*
X7772540Y8328280D01*
X7772540Y8328280D02*
X7772540Y8851520D01*
X8651380Y4673220D02*
X8651380Y4327780D01*
X8651380Y4327780D02*
X8902840Y4076320D01*
X8902840Y4076320D02*
X9114170Y4076320D01*
X9114170Y4076320D02*
X9548000Y3642490D01*
X9548000Y3040000D02*
X9421000Y2913000D01*
X8468500Y4856100D02*
X8598040Y4726560D01*
X7685924Y8938136D02*
X6041106Y8938136D01*
X6041106Y8938136D02*
X5619109Y8516139D01*
X5619109Y8516139D02*
X5364599Y8516139D01*
X5364599Y8516139D02*
X4879358Y9001381D01*
X8259620Y4802160D02*
X8226600Y4802160D01*
X8226600Y4802160D02*
X7897000Y4472560D01*
X1493661Y9001381D02*
X1493660Y9001380D01*
X8598040Y4726560D02*
X8651380Y4673220D01*
X9548000Y3642490D02*
X9548000Y3040000D01*
X8313560Y4856100D02*
X8468500Y4856100D01*
X4879358Y9001381D02*
X1493661Y9001381D01*
X8313560Y4856100D02*
X8259620Y4802160D01*
X7891920Y7101460D02*
X7891920Y8208900D01*
X8173260Y7315340D02*
X7959380Y7101460D01*
X7772540Y8851520D02*
X7685924Y8938136D01*
G04 #@! TO.N,/mcu/usb/power/SD_CD*
X7186934Y5540766D02*
X7193420Y5534280D01*
X6540120Y4959992D02*
X6540120Y4786920D01*
X6540120Y4786920D02*
X6176900Y4423700D01*
X6176900Y4423700D02*
X5770420Y4423700D01*
X5770420Y4423700D02*
X5631320Y4284600D01*
X7120894Y5540766D02*
X6540120Y4959992D01*
X7120894Y5540766D02*
X7186934Y5540766D01*
G04 #@! TO.N,/mcu/usb/power/SD_CLK*
X7486280Y6258180D02*
X7546480Y6258180D01*
X5318380Y5310160D02*
X5229480Y5221260D01*
X5229480Y5221260D02*
X5229480Y5072520D01*
X5229480Y5072520D02*
X5357000Y4945000D01*
X5563761Y5310160D02*
X5706601Y5453000D01*
X5706601Y5453000D02*
X6681100Y5453000D01*
X5318380Y5310160D02*
X5563761Y5310160D01*
X6681100Y5453000D02*
X7486280Y6258180D01*
G04 #@! TO.N,/mcu/usb/power/SD_CMD*
X7361310Y6082920D02*
X7422020Y6082920D01*
X5460580Y5156689D02*
X5721331Y5417440D01*
X5721331Y5417440D02*
X6695829Y5417440D01*
X5460580Y4901260D02*
X5460580Y5156689D01*
X5357000Y4797680D02*
X5460580Y4901260D01*
X5357000Y4797680D02*
X5357000Y4691000D01*
X6695829Y5417440D02*
X7361310Y6082920D01*
G04 #@! TO.N,/mcu/usb/power/SD_DAT0*
X7391540Y5900040D02*
X7279009Y5900040D01*
X7279009Y5900040D02*
X6725288Y5346319D01*
X5357000Y4437000D02*
X5531740Y4611740D01*
X5531740Y5127269D02*
X5750790Y5346319D01*
X5750790Y5346319D02*
X6725288Y5346319D01*
X5531740Y4611740D02*
X5531740Y5127269D01*
G04 #@! TO.N,/mcu/usb/power/SD_DAT1*
X6769477Y5239639D02*
X7184135Y5654296D01*
X7439800Y5778120D02*
X7315976Y5654296D01*
X7315976Y5654296D02*
X7184135Y5654296D01*
X5638421Y4416161D02*
X5595760Y4373500D01*
X5794979Y5239639D02*
X5638421Y5083081D01*
X5638421Y5083081D02*
X5638421Y4416161D01*
X6769477Y5239639D02*
X5794979Y5239639D01*
G04 #@! TO.N,/mcu/usb/power/SD_DAT2*
X7202095Y5722546D02*
X6754748Y5275199D01*
X5527180Y4411600D02*
X5527180Y4307460D01*
X5602861Y4487281D02*
X5527180Y4411600D01*
X5602861Y5097810D02*
X5780249Y5275199D01*
X5780249Y5275199D02*
X6754748Y5275199D01*
X5602861Y4487281D02*
X5602861Y5097810D01*
X7298293Y5722546D02*
X7202095Y5722546D01*
G04 #@! TO.N,/mcu/usb/power/SD_DAT3*
X7389000Y5628260D02*
X7233635Y5472895D01*
X7233635Y5472895D02*
X7103313Y5472895D01*
X6191630Y4388140D02*
X6575680Y4772190D01*
X6575680Y4772190D02*
X6575680Y4945262D01*
X6575680Y4945262D02*
X7103313Y5472895D01*
X5631400Y4172840D02*
X5846700Y4388140D01*
X5846700Y4388140D02*
X6191630Y4388140D01*
X5565280Y4172840D02*
X5631400Y4172840D01*
G04 #@! TO.N,/mcu/usb/power/SD_POW*
X5214760Y4579240D02*
X5397640Y4579240D01*
X7345559Y6016880D02*
X7500760Y6016880D01*
X5496180Y4677780D02*
X5397640Y4579240D01*
X5736061Y5381879D02*
X5496180Y5141999D01*
X5496180Y5141999D02*
X5496180Y4677780D01*
X6710559Y5381879D02*
X5736061Y5381879D01*
X6710559Y5381879D02*
X7345559Y6016880D01*
X5103000Y4691000D02*
X5214760Y4579240D01*
G04 #@! TO.N,/mcu/usb/power/SD_VOLT0*
X7475360Y5839080D02*
X7526160Y5788280D01*
X5567301Y4550781D02*
X5489080Y4472560D01*
X5765520Y5310759D02*
X5567301Y5112540D01*
X5567301Y5112540D02*
X5567301Y4550781D01*
X7268339Y5839080D02*
X7475360Y5839080D01*
X6740018Y5310759D02*
X7268339Y5839080D01*
X6740018Y5310759D02*
X5765520Y5310759D01*
G04 #@! TO.N,/mcu/usb/power/SGPIO13*
X7744600Y7337680D02*
X7744600Y7050660D01*
X7389000Y7693280D02*
X7744600Y7337680D01*
G04 #@! TO.N,/mcu/usb/power/SGPIO9*
X7287400Y7802500D02*
X7287400Y7695820D01*
X7676020Y6969380D02*
X7676020Y7142100D01*
X7676020Y7142100D02*
X7457580Y7360540D01*
X7457580Y7360540D02*
X7297560Y7360540D01*
X7297560Y7360540D02*
X7249300Y7408800D01*
X7249300Y7408800D02*
X7249300Y7657720D01*
X7249300Y7657720D02*
X7287400Y7695820D01*
G04 #@! TO.N,/mcu/usb/power/SPIFI_MISO*
X8323200Y4421160D02*
X8323200Y4223040D01*
X8323200Y4223040D02*
X9001380Y3544860D01*
X9001380Y3544860D02*
X9110600Y3544860D01*
G04 #@! TO.N,/mcu/usb/power/SPIFI_SIO2*
X8671700Y3763900D02*
X8966940Y3468660D01*
X8966940Y3468660D02*
X9179180Y3468660D01*
G04 #@! TO.N,/mcu/usb/power/SPIFI_SIO3*
X8534540Y3685160D02*
X8485760Y3636380D01*
X8485760Y3636380D02*
X8485760Y3412780D01*
X8485760Y3412780D02*
X8417180Y3344200D01*
G04 #@! TO.N,/mcu/usb/power/TCK*
X8394240Y7592200D02*
X8290100Y7696340D01*
X8290100Y7696340D02*
X8173260Y7696340D01*
G04 #@! TO.N,/mcu/usb/power/TDI*
X8575180Y7368160D02*
X8247440Y7368160D01*
X8247440Y7368160D02*
X8173260Y7442340D01*
X8648840Y7294500D02*
X8575180Y7368160D01*
G04 #@! TO.N,/mcu/usb/power/TDO*
X8313040Y7569340D02*
X8394840Y7487540D01*
X8313040Y7569340D02*
X8173260Y7569340D01*
G04 #@! TO.N,/mcu/usb/power/U0_RXD*
X7389000Y3421000D02*
X7389000Y2913000D01*
G04 #@! TO.N,/mcu/usb/power/VBAT*
X9713700Y3527080D02*
X9715120Y3527080D01*
X8867068Y4373712D02*
X9713700Y3527080D01*
X8718970Y4373712D02*
X8867068Y4373712D01*
D30*
G04 #@! TO.N,/mcu/usb/power/VBUS*
X9640000Y7170000D02*
X9895000Y7170000D01*
X9930000Y7100000D02*
X9940000Y7090000D01*
X9940000Y6480000D02*
X10183000Y6237000D01*
X9940000Y7125000D02*
X9940000Y6480000D01*
D31*
X9928805Y6636195D02*
X9926232Y6636195D01*
X9926232Y6636195D02*
X9930000Y6639963D01*
D30*
X9895000Y7170000D02*
X9930000Y7135000D01*
X10183000Y6237000D02*
X10183000Y6215000D01*
D27*
G04 #@! TO.N,/mcu/usb/power/VBUSCTRL*
X8850000Y6660000D02*
X9290000Y6220000D01*
X9460000Y6220000D02*
X9850000Y5830000D01*
X10060000Y5830000D02*
X10183000Y5707000D01*
X9850000Y5830000D02*
X10060000Y5830000D01*
X9290000Y6220000D02*
X9460000Y6220000D01*
D30*
G04 #@! TO.N,/mcu/usb/power/VIN*
X9990000Y7530000D02*
X10193936Y7530000D01*
X10488308Y7824372D02*
X10488308Y8157846D01*
X9050000Y7140000D02*
X9260000Y7350000D01*
X9810000Y7350000D02*
X9990000Y7530000D01*
X9260000Y7350000D02*
X9810000Y7350000D01*
X9929000Y6261000D02*
X9929000Y6215000D01*
X9050000Y7140000D02*
X9929000Y6261000D01*
X10193936Y7530000D02*
X10488308Y7824372D01*
D27*
G04 #@! TO.N,/mcu/usb/power/VREGMODE*
X8675510Y6860000D02*
X8675510Y6791830D01*
X7242615Y4115355D02*
X7242615Y4036054D01*
X8675510Y6791830D02*
X8374266Y6490585D01*
X8179956Y5052696D02*
X7242615Y4115355D01*
X8179956Y6133282D02*
X8179956Y5052696D01*
X8374266Y6327592D02*
X8179956Y6133282D01*
X8374266Y6490585D02*
X8374266Y6327592D01*
G04 #@! TO.N,AMP_BYPASS*
X4816901Y2140241D02*
X4756542Y2079881D01*
X1241279Y2079881D02*
X1170800Y2150360D01*
X619620Y4159500D02*
X637400Y4095800D01*
X4756542Y2079881D02*
X1241279Y2079881D01*
X4996299Y2140241D02*
X4816901Y2140241D01*
X424040Y3590540D02*
X637400Y3377180D01*
X5056658Y2079881D02*
X4996299Y2140241D01*
X637400Y3679440D02*
X548500Y3590540D01*
X874888Y2613473D02*
X874888Y2855212D01*
X7576960Y3829940D02*
X7576960Y3614040D01*
X7056261Y2079881D02*
X5056658Y2079881D01*
X7533780Y2557400D02*
X7056261Y2079881D01*
X874888Y2855212D02*
X637400Y3092700D01*
X7533780Y3570860D02*
X7533780Y2557400D01*
X7576960Y3614040D02*
X7533780Y3570860D01*
X1170800Y2317561D02*
X874888Y2613473D01*
X548500Y3590540D02*
X424040Y3590540D01*
X7429640Y3878200D02*
X7528700Y3878200D01*
X7528700Y3878200D02*
X7576960Y3829940D01*
X637400Y4095800D02*
X637400Y3679440D01*
X637400Y3377180D02*
X637400Y3092700D01*
X1170800Y2150360D02*
X1170800Y2317561D01*
D29*
G04 #@! TO.N,CLK6*
X5301120Y3161920D02*
X5301120Y3255900D01*
X5301120Y3255900D02*
X5468760Y3423540D01*
X5468760Y3423540D02*
X5806580Y3423540D01*
X5806580Y3423540D02*
X5859920Y3370200D01*
X5859920Y3370200D02*
X5928500Y3370200D01*
X5928500Y3370200D02*
X6012320Y3454020D01*
X6012320Y3454020D02*
X6342520Y3454020D01*
X6342520Y3454020D02*
X6606680Y3189860D01*
X6606680Y3189860D02*
X6606680Y3108580D01*
X6606680Y3108580D02*
X6627000Y3088260D01*
X6627000Y3088260D02*
X6627000Y2913000D01*
D27*
G04 #@! TO.N,CS_AD*
X2665022Y8370530D02*
X2609228Y8426324D01*
X2609228Y8426324D02*
X2609228Y8572628D01*
X5315852Y7896111D02*
X5409821Y7802143D01*
X5409821Y7802143D02*
X5409821Y6859913D01*
X2824620Y8788020D02*
X2609228Y8572628D01*
X6021714Y6248020D02*
X5409821Y6859913D01*
X4790980Y8788020D02*
X5315852Y8263147D01*
X5315852Y8263147D02*
X5315852Y7896111D01*
X6101220Y6248020D02*
X6021714Y6248020D01*
X2824620Y8788020D02*
X4790980Y8788020D01*
X2726310Y8370530D02*
X2665022Y8370530D01*
G04 #@! TO.N,CS_XCVR*
X4426840Y5645440D02*
X4513200Y5645440D01*
X4513200Y5645440D02*
X4543680Y5675920D01*
X4543680Y5675920D02*
X4795650Y5675920D01*
X4795650Y5675920D02*
X4914430Y5557140D01*
X4914430Y5557140D02*
X5885320Y5557140D01*
D29*
G04 #@! TO.N,GCK1*
X3325000Y7479920D02*
X3205440Y7479920D01*
X3125090Y7560270D02*
X3205440Y7479920D01*
X3545980Y7258940D02*
X3325000Y7479920D01*
G04 #@! TO.N,GCK2*
X4589400Y8034160D02*
X4589400Y8111780D01*
X5158360Y7465200D02*
X4589400Y8034160D01*
X5384940Y6608700D02*
X5158360Y6835280D01*
X5158360Y6835280D02*
X5158360Y7465200D01*
D32*
G04 #@! TO.N,GND*
X-729650Y2820750D02*
X-808500Y2820750D01*
D28*
X2032058Y3603622D02*
X2252022Y3383658D01*
X3334640Y8023820D02*
X3004440Y8023820D01*
X5693214Y3043694D02*
X5693214Y2911106D01*
D33*
X9540900Y8074880D02*
X9833478Y8074880D01*
D28*
X2032058Y3603622D02*
X2252022Y3603622D01*
X3895726Y4929414D02*
X3593974Y5231166D01*
X5693214Y2911106D02*
X5560626Y2911106D01*
X3004440Y7858720D02*
X3004440Y8188920D01*
X9883038Y7999950D02*
X9782962Y7999950D01*
X5560626Y3043694D02*
X5560626Y2911106D01*
X3004440Y8188920D02*
X3334640Y8188920D01*
X3593974Y4929414D02*
X3593974Y5231166D01*
X9883038Y8149810D02*
X9883038Y8124440D01*
X3895726Y5231166D02*
X3895726Y4929414D01*
X9782962Y8149810D02*
X9883038Y8149810D01*
X3895726Y5231166D02*
X3593974Y4929414D01*
X2252022Y3603622D02*
X2252022Y3383658D01*
X5560626Y3043694D02*
X5693214Y3043694D01*
X5560626Y2911106D02*
X5693214Y3043694D01*
X3593974Y5231166D02*
X3895726Y5231166D01*
X2252022Y3603622D02*
X2032058Y3383658D01*
X2252022Y3383658D02*
X2032058Y3383658D01*
X3334640Y7858720D02*
X3004440Y8188920D01*
X9883038Y8124440D02*
X9883038Y7999950D01*
X2032058Y3383658D02*
X2032058Y3603622D01*
X3334640Y8188920D02*
X3004440Y7858720D01*
X9782962Y7999950D02*
X9782962Y8149810D01*
D32*
X10050000Y6540000D02*
X10050000Y7210000D01*
D33*
X9833478Y8074880D02*
X9883038Y8124440D01*
D28*
X3334640Y7858720D02*
X3004440Y7858720D01*
X3334640Y8188920D02*
X3334640Y7858720D01*
X3895726Y4929414D02*
X3593974Y4929414D01*
X3169540Y7858720D02*
X3169540Y8188920D01*
D27*
G04 #@! TO.N,HP*
X10322180Y5004850D02*
X10235310Y5091720D01*
X170040Y5719060D02*
X-153160Y5396220D01*
X-480441Y3591202D02*
X-480441Y2459272D01*
X10322180Y2881501D02*
X10322180Y5004850D01*
X-568821Y4525887D02*
X-568821Y3679582D01*
X9271639Y1830960D02*
X10322180Y2881501D01*
X-480441Y2459272D02*
X147871Y1830960D01*
X1356220Y5061200D02*
X1447660Y5150100D01*
X-261480Y4833228D02*
X-568821Y4525887D01*
X-568821Y3679582D02*
X-480441Y3591202D01*
X147871Y1830960D02*
X9271639Y1830960D01*
X-261480Y5287900D02*
X-261480Y4833228D01*
X9525729Y5091720D02*
X9364600Y5252849D01*
X10235310Y5091720D02*
X9525729Y5091720D01*
X1447660Y5719060D02*
X170040Y5719060D01*
X-153160Y5396220D02*
X-261480Y5287900D01*
X1447660Y5150100D02*
X1447660Y5719060D01*
X9364600Y5252849D02*
X9364600Y5338100D01*
G04 #@! TO.N,LP*
X239500Y5203480D02*
X-28400Y5203480D01*
X-225920Y4818498D02*
X-533261Y4511158D01*
X10286620Y4990120D02*
X10220580Y5056160D01*
X8868811Y5546980D02*
X8612271Y5290440D01*
X-225920Y5005960D02*
X-225920Y4818498D01*
X591680Y5381240D02*
X388480Y5381240D01*
X10286620Y2896231D02*
X10286620Y4990120D01*
X9256910Y1866520D02*
X10286620Y2896231D01*
X8612271Y5290440D02*
X8326260Y5290440D01*
X9020179Y5546980D02*
X8868811Y5546980D01*
X9510999Y5056160D02*
X9020179Y5546980D01*
X162600Y1866520D02*
X9256910Y1866520D01*
X-533261Y3694311D02*
X-444881Y3605931D01*
X10220580Y5056160D02*
X9510999Y5056160D01*
X-444881Y3605931D02*
X-444881Y2474001D01*
X-533261Y4511158D02*
X-533261Y3694311D01*
X388480Y5381240D02*
X239500Y5203480D01*
X-28400Y5203480D02*
X-225920Y5005960D01*
X-444881Y2474001D02*
X162600Y1866520D01*
G04 #@! TO.N,MIXER_ENX*
X2592960Y3684560D02*
X2629720Y3721320D01*
X2629720Y3721320D02*
X2629720Y3981320D01*
X2703120Y4014340D02*
X2596700Y4014340D01*
X3693060Y3862360D02*
X3660001Y3829301D01*
X7216280Y4454780D02*
X7129909Y4454780D01*
X3345449Y3829301D02*
X3220950Y3953800D01*
X7129909Y4454780D02*
X6393309Y3718180D01*
X2629720Y3981320D02*
X2596700Y4014340D01*
X5511940Y3718180D02*
X5448440Y3781680D01*
X6393309Y3718180D02*
X5511940Y3718180D01*
X4746880Y3862360D02*
X3693060Y3862360D01*
X4827560Y3781680D02*
X4746880Y3862360D01*
X7739520Y4978020D02*
X7216280Y4454780D01*
X3660001Y3829301D02*
X3345449Y3829301D01*
X3220950Y3953800D02*
X2763660Y3953800D01*
X2763660Y3953800D02*
X2703120Y4014340D01*
X7739520Y5130420D02*
X7739520Y4978020D01*
X5448440Y3781680D02*
X4827560Y3781680D01*
G04 #@! TO.N,MIXER_RESETX*
X2670360Y3878800D02*
X2709800Y3918240D01*
X4210278Y3821680D02*
X3707244Y3821680D01*
X3206220Y3918240D02*
X2709800Y3918240D01*
X2670360Y3648580D02*
X2670360Y3878800D01*
X6659499Y3934080D02*
X6408039Y3682620D01*
X5796420Y3570860D02*
X4461098Y3570860D01*
X3338340Y3786120D02*
X3206220Y3918240D01*
X3671684Y3786120D02*
X3338340Y3786120D01*
X3707244Y3821680D02*
X3671684Y3786120D01*
X7800480Y4988690D02*
X7114680Y4302890D01*
X7800480Y5056760D02*
X7800480Y4988690D01*
X6853060Y3934080D02*
X6659499Y3934080D01*
X7114680Y4302890D02*
X7114680Y4195700D01*
X4461098Y3570860D02*
X4210278Y3821680D01*
X2617020Y3595240D02*
X2670360Y3648580D01*
X5908180Y3682620D02*
X5796420Y3570860D01*
X6408039Y3682620D02*
X5908180Y3682620D01*
X7114680Y4195700D02*
X6853060Y3934080D01*
G04 #@! TO.N,MIXER_SCLK*
X7145659Y4520820D02*
X6378580Y3753740D01*
X3675280Y3897920D02*
X3639682Y3862322D01*
X3639682Y3862322D02*
X3362717Y3862322D01*
X6378580Y3753740D02*
X5526669Y3753740D01*
X2516690Y4074030D02*
X2482400Y4039740D01*
X5526669Y3753740D02*
X5463170Y3817240D01*
X2778390Y3989360D02*
X2693720Y4074030D01*
X7188340Y4520820D02*
X7145659Y4520820D01*
X4761610Y3897920D02*
X3675280Y3897920D01*
X2693720Y4074030D02*
X2516690Y4074030D01*
X3235679Y3989360D02*
X2778390Y3989360D01*
X5463170Y3817240D02*
X4842290Y3817240D01*
X4842290Y3817240D02*
X4761610Y3897920D01*
X3362717Y3862322D02*
X3235679Y3989360D01*
G04 #@! TO.N,MIXER_SDATA*
X2532520Y4119500D02*
X2698540Y4119500D01*
X2698540Y4119500D02*
X2793119Y4024921D01*
X2793119Y4024921D02*
X3612619Y4024921D01*
X3693900Y3943640D02*
X4154460Y3943640D01*
X4154460Y3943640D02*
X4243960Y4033140D01*
X5460131Y4033140D02*
X5523631Y3969639D01*
X5523631Y3969639D02*
X6544189Y3969639D01*
X7219829Y4645280D02*
X7262000Y4645280D01*
X7262000Y4645280D02*
X7335660Y4718940D01*
X2532520Y4119500D02*
X2392820Y4259200D01*
X3612619Y4024921D02*
X3693900Y3943640D01*
X4243960Y4033140D02*
X5460131Y4033140D01*
X6544189Y3969639D02*
X7219829Y4645280D01*
G04 #@! TO.N,MIX_BYPASS*
X6047370Y2486280D02*
X5922310Y2361220D01*
X5922310Y2361220D02*
X4101920Y2361220D01*
X6283590Y2486280D02*
X6047370Y2486280D01*
X4002900Y2460240D02*
X4002900Y2861560D01*
X6510160Y2712850D02*
X6283590Y2486280D01*
X4101920Y2361220D02*
X4002900Y2460240D01*
X6510160Y3144140D02*
X6510160Y2712850D01*
G04 #@! TO.N,RSSI*
X3765840Y5351400D02*
X3914280Y5351400D01*
X3914280Y5351400D02*
X4000640Y5265040D01*
X4000640Y5265040D02*
X4000640Y4410580D01*
X5414910Y4325240D02*
X5497460Y4242690D01*
X4823680Y4325240D02*
X4757040Y4258600D01*
X4757040Y4258600D02*
X4152620Y4258600D01*
X4152620Y4258600D02*
X4000640Y4410580D01*
X5497460Y4146680D02*
X5567820Y4076320D01*
X5567820Y4076320D02*
X6500000Y4076320D01*
X6500000Y4076320D02*
X7744600Y5320920D01*
X5497460Y4242690D02*
X5497460Y4146680D01*
X5414910Y4325240D02*
X4823680Y4325240D01*
X3631820Y5485420D02*
X3765840Y5351400D01*
G04 #@! TO.N,RX*
X6568580Y2450720D02*
X6069220Y2450720D01*
X3027540Y2823820D02*
X3053220Y2849500D01*
X2554872Y2849500D02*
X2232292Y3172080D01*
X1581010Y3444648D02*
X1581010Y4214110D01*
X5805062Y2186562D02*
X5100847Y2186562D01*
X3053220Y2849500D02*
X2554872Y2849500D01*
X2232292Y3172080D02*
X1853578Y3172080D01*
X6733680Y3075560D02*
X6733680Y2615820D01*
X1853578Y3172080D02*
X1581010Y3444648D01*
X6069220Y2450720D02*
X5805062Y2186562D01*
X3032580Y2320580D02*
X3027540Y2325620D01*
X2044560Y4677660D02*
X2044560Y4858000D01*
X6733680Y2615820D02*
X6568580Y2450720D01*
X1581010Y4214110D02*
X2044560Y4677660D01*
X4966828Y2320580D02*
X3032580Y2320580D01*
X6670180Y3139060D02*
X6733680Y3075560D01*
X5100847Y2186562D02*
X4966828Y2320580D01*
X3027540Y2325620D02*
X3027540Y2823820D01*
G04 #@! TO.N,RXENABLE*
X3354960Y4327790D02*
X3403230Y4279520D01*
X3403230Y4279520D02*
X4081410Y4279520D01*
X5400180Y4289680D02*
X5461900Y4227960D01*
X7728850Y5254880D02*
X7775080Y5254880D01*
X7775080Y5254880D02*
X7813180Y5292980D01*
X7881760Y6034660D02*
X7813180Y5966080D01*
X7813180Y5966080D02*
X7813180Y5292980D01*
X4838410Y4289680D02*
X4771770Y4223040D01*
X4771770Y4223040D02*
X4137890Y4223040D01*
X4137890Y4223040D02*
X4081410Y4279520D01*
X5461900Y4131950D02*
X5553090Y4040760D01*
X5553090Y4040760D02*
X6514730Y4040760D01*
X6514730Y4040760D02*
X7728850Y5254880D01*
X5461900Y4227960D02*
X5461900Y4131950D01*
X3354960Y4708180D02*
X3354960Y4327790D01*
X5400180Y4289680D02*
X4838410Y4289680D01*
G04 #@! TO.N,RX_AMP*
X4831630Y2104680D02*
X4771271Y2044321D01*
X4771271Y2044321D02*
X1187939Y2044321D01*
X1187939Y2044321D02*
X832980Y2399280D01*
X5041928Y2044321D02*
X4981569Y2104680D01*
X7269621Y2044321D02*
X5041928Y2044321D01*
X7612520Y3678050D02*
X7757300Y3533270D01*
X317360Y3689600D02*
X317360Y3590540D01*
X4981569Y2104680D02*
X4831630Y2104680D01*
X7757300Y3533270D02*
X7757300Y2532000D01*
X317360Y3689600D02*
X406260Y3732780D01*
X317360Y3590540D02*
X530720Y3323840D01*
X530720Y3323840D02*
X530720Y3092700D01*
X7757300Y2532000D02*
X7269621Y2044321D01*
X7612520Y4089020D02*
X7612520Y3678050D01*
X832980Y2790440D02*
X530720Y3092700D01*
X832980Y2399280D02*
X832980Y2790440D01*
X406260Y3732780D02*
X406260Y4106160D01*
G04 #@! TO.N,RX_MIX_BP*
X-338200Y2788140D02*
X-338200Y3650120D01*
X-426580Y4466969D02*
X-200009Y4693540D01*
X9212721Y1973201D02*
X5012469Y1973201D01*
X-198260Y2648200D02*
X-338200Y2788140D01*
X441179Y1973201D02*
X142101Y2272279D01*
X4800730Y1973201D02*
X441179Y1973201D01*
X-198260Y2381500D02*
X-198260Y2648200D01*
X5012469Y1973201D02*
X4952110Y2033560D01*
X8485160Y5018660D02*
X9801480Y3702340D01*
X102600Y4693540D02*
X269340Y4860280D01*
X9801480Y2561960D02*
X9212721Y1973201D01*
X142101Y2272279D02*
X-89039Y2272279D01*
X4861090Y2033560D02*
X4800730Y1973201D01*
X-426580Y3738500D02*
X-426580Y4466969D01*
X4952110Y2033560D02*
X4861090Y2033560D01*
X-338200Y3650120D02*
X-426580Y3738500D01*
X-200009Y4693540D02*
X102600Y4693540D01*
X9801480Y3702340D02*
X9801480Y2561960D01*
X-89039Y2272279D02*
X-198260Y2381500D01*
X8323720Y5018660D02*
X8485160Y5018660D01*
G04 #@! TO.N,SCL*
X6459360Y4213480D02*
X6266320Y4213480D01*
X6266320Y4213480D02*
X6200280Y4147440D01*
X6433960Y2923160D02*
X6416180Y2905380D01*
X6152020Y2905380D02*
X5819280Y2572640D01*
X6416180Y2905380D02*
X6152020Y2905380D01*
X6743840Y4434460D02*
X6680340Y4434460D01*
X6680340Y4434460D02*
X6459360Y4213480D01*
X6433960Y3217800D02*
X6433960Y2923160D01*
X6289180Y3362580D02*
X6433960Y3217800D01*
G04 #@! TO.N,SDA*
X6647320Y4312540D02*
X6698120Y4363340D01*
X6608710Y4312540D02*
X6441070Y4144900D01*
X6441070Y4144900D02*
X6360300Y4144900D01*
X6159420Y3001900D02*
X5817420Y2659900D01*
X6362840Y3001900D02*
X6159420Y3001900D01*
X6647320Y4312540D02*
X6608710Y4312540D01*
D29*
G04 #@! TO.N,SGPIO_CLK*
X7208060Y5206020D02*
X7208140Y5206020D01*
X6035180Y4261740D02*
X6263780Y4261740D01*
X6263780Y4261740D02*
X7208060Y5206020D01*
D27*
G04 #@! TO.N,SSP1_MISO*
X3756280Y5785244D02*
X3972192Y5569332D01*
X7240819Y6063009D02*
X7240819Y6466111D01*
X6666370Y5488560D02*
X7240819Y6063009D01*
X3972192Y5449848D02*
X4038220Y5383820D01*
X4038220Y5383820D02*
X4830700Y5383820D01*
X4830700Y5383820D02*
X4868800Y5345720D01*
X5691872Y5488560D02*
X5549032Y5345720D01*
X5549032Y5345720D02*
X4868800Y5345720D01*
X3972192Y5569332D02*
X3972192Y5449848D01*
X6666370Y5488560D02*
X5691872Y5488560D01*
X3756280Y5785244D02*
X3756280Y5797840D01*
G04 #@! TO.N,SSP1_MOSI*
X2839860Y8564500D02*
X2789060Y8513700D01*
X5280292Y7881381D02*
X5374260Y7787413D01*
X5374260Y7787413D02*
X5374260Y6845183D01*
X2918600Y8564500D02*
X2956700Y8602600D01*
X6040004Y6179440D02*
X6279528Y6179440D01*
X6279528Y6179440D02*
X6398654Y6298566D01*
X4776250Y8752459D02*
X3371230Y8752459D01*
X3371230Y8752459D02*
X3221370Y8602600D01*
X2789060Y7523100D02*
X2789060Y8513700D01*
X3131440Y7180720D02*
X3131440Y7111020D01*
X3131440Y7111020D02*
X3436240Y6806220D01*
X3436240Y6806220D02*
X3436240Y5780060D01*
X3436240Y5780060D02*
X3631820Y5584480D01*
X2956700Y8602600D02*
X3221370Y8602600D01*
X5374260Y6845183D02*
X6040004Y6179440D01*
X2839860Y8564500D02*
X2918600Y8564500D01*
X5280292Y8248418D02*
X4776250Y8752459D01*
X5280292Y7881381D02*
X5280292Y8248418D01*
X2789060Y7523100D02*
X3131440Y7180720D01*
G04 #@! TO.N,SSP1_SCK*
X4208920Y4896740D02*
X4036200Y5069460D01*
X4036200Y5069460D02*
X4036200Y5279770D01*
X2968890Y7393560D02*
X2824620Y7537830D01*
X2941968Y8455280D02*
X2991752Y8405496D01*
X5811660Y6270880D02*
X5811660Y6357494D01*
X5811660Y6357494D02*
X5338700Y6830454D01*
X3074556Y8405496D02*
X2991752Y8405496D01*
X3385959Y8716899D02*
X4761521Y8716899D01*
X4761521Y8716899D02*
X5244732Y8233688D01*
X3279280Y7393560D02*
X3335160Y7337680D01*
X3335160Y7337680D02*
X3335160Y7271640D01*
X2854084Y8385684D02*
X2824620Y8356220D01*
X2824620Y8356220D02*
X2824620Y7537830D01*
X5338700Y7772684D02*
X5338700Y6830454D01*
X3471800Y5844170D02*
X3471800Y7135000D01*
X3471800Y7135000D02*
X3335160Y7271640D01*
X3074556Y8405496D02*
X3385959Y8716899D01*
X2854084Y8385684D02*
X2854084Y8455280D01*
X5244732Y7866652D02*
X5244732Y8233688D01*
X4036200Y5279770D02*
X3471800Y5844170D01*
X5244732Y7866652D02*
X5338700Y7772684D01*
X2941968Y8455280D02*
X2854084Y8455280D01*
X2968890Y7393560D02*
X3279280Y7393560D01*
G04 #@! TO.N,TXENABLE*
X3283840Y4348620D02*
X3388500Y4243960D01*
X3388500Y4243960D02*
X4066680Y4243960D01*
X7743579Y5219320D02*
X7789810Y5219320D01*
X7789810Y5219320D02*
X7848740Y5278250D01*
X7848740Y5278250D02*
X7848740Y5869560D01*
X7848740Y5869560D02*
X7922400Y5943220D01*
X4241940Y4068700D02*
X4066680Y4243960D01*
X5474860Y4068700D02*
X5538361Y4005200D01*
X5538361Y4005200D02*
X6529459Y4005200D01*
X6529459Y4005200D02*
X7743579Y5219320D01*
X3283840Y4797080D02*
X3283840Y4348620D01*
X4241940Y4068700D02*
X5474860Y4068700D01*
G04 #@! TO.N,TX_AMP*
X4937369Y2249460D02*
X1325466Y2249460D01*
X6842899Y2379599D02*
X6098679Y2379599D01*
X888336Y4072616D02*
X886320Y3786120D01*
X674230Y3574031D02*
X674230Y3162549D01*
X5071387Y2115442D02*
X4937369Y2249460D01*
X8153540Y4779667D02*
X7025780Y3651907D01*
X6098679Y2379599D02*
X5834522Y2115442D01*
X886320Y3786120D02*
X726300Y3626101D01*
X7025780Y2562480D02*
X6842899Y2379599D01*
X1325466Y2249460D02*
X907909Y2667017D01*
X8153540Y4828160D02*
X8153540Y4779667D01*
X5834522Y2115442D02*
X5071387Y2115442D01*
X7025780Y3651907D02*
X7025780Y2562480D01*
X907909Y2667017D02*
X907909Y2928871D01*
X726300Y3626101D02*
X674230Y3574031D01*
X907909Y2928871D02*
X744080Y3092700D01*
X674230Y3162549D02*
X744080Y3092700D01*
G04 #@! TO.N,TX_MIX_BP*
X177330Y1902080D02*
X9242180Y1902080D01*
X9684229Y4832640D02*
X9005449Y5511420D01*
X-497700Y3709041D02*
X-409321Y3620661D01*
X-269380Y2612640D02*
X-269380Y2348790D01*
X8568580Y5196460D02*
X8333880Y5196460D01*
X9005449Y5511420D02*
X8883540Y5511420D01*
X-497700Y4496428D02*
X-497700Y3709041D01*
X10070720Y2730621D02*
X10070720Y4753390D01*
X798810Y4593880D02*
X224770Y5167920D01*
X921640Y4593880D02*
X798810Y4593880D01*
X9242180Y1902080D02*
X10070720Y2730621D01*
X-190360Y4803769D02*
X-497700Y4496428D01*
X-409321Y3620661D02*
X-409321Y2752581D01*
X-190360Y4991231D02*
X-190360Y4803769D01*
X9991470Y4832640D02*
X9684229Y4832640D01*
X224770Y5167920D02*
X-13670Y5167920D01*
X-409321Y2752581D02*
X-269380Y2612640D01*
X-269380Y2348790D02*
X177330Y1902080D01*
X8883540Y5511420D02*
X8568580Y5196460D01*
X-13670Y5167920D02*
X-190360Y4991231D01*
X10070720Y4753390D02*
X9991470Y4832640D01*
G04 #@! TO.N,VAA*
X-104000Y6469000D02*
X1293000Y6469000D01*
X-739000Y5834000D02*
X-104000Y6469000D01*
D29*
G04 #@! TO.N,VCC*
X10469512Y8516748D02*
X10450000Y8497236D01*
X10399246Y8219660D02*
X10135260Y8219660D01*
X10450000Y8497236D02*
X10450000Y8270414D01*
X10450000Y8270414D02*
X10399246Y8219660D01*
D27*
G04 #@! TO.N,XCVR_EN*
X7350900Y6552820D02*
X7710608Y6193112D01*
X7710608Y6193112D02*
X7883806Y6193112D01*
X4929160Y5592700D02*
X4810380Y5711480D01*
X4810380Y5711480D02*
X4322700Y5711480D01*
X4322700Y5711480D02*
X4062350Y5451130D01*
X7150240Y6484240D02*
X7081150Y6484240D01*
X7218820Y6552820D02*
X7350900Y6552820D01*
X5824360Y5592700D02*
X5882780Y5651120D01*
X5882780Y5651120D02*
X6248030Y5651120D01*
X6248030Y5651120D02*
X7081150Y6484240D01*
X7150240Y6484240D02*
X7218820Y6552820D01*
X4929160Y5592700D02*
X5824360Y5592700D01*
G04 #@! TO.N,Net-(U21-MODE{slash}DATA)*
X9009942Y7523162D02*
X9307660Y7820880D01*
X9009942Y7447528D02*
X9009942Y7523162D01*
X9307660Y7820880D02*
X10208920Y7820880D01*
G04 #@! TO.N,Net-(U21-EN1)*
X10381640Y8455880D02*
X10236860Y8311100D01*
X10236860Y8311100D02*
X9624720Y8311100D01*
X9624720Y8311100D02*
X9502800Y8189180D01*
G04 #@! TO.N,Net-(U23-USB0_VBUS)*
X8694260Y6710000D02*
X8595500Y6611240D01*
X8760000Y6710000D02*
X8694260Y6710000D01*
X8595500Y6611240D02*
X8595500Y6250560D01*
G04 #@! TD*
G04 #@! TA.AperFunction,Conductor*
G04 #@! TO.N,GND*
G36*
X10872430Y7457972D02*
G01*
X10877972Y7452430D01*
X10880000Y7444860D01*
X10880000Y5775140D01*
X10877972Y5767570D01*
X10872430Y5762028D01*
X10864860Y5760000D01*
X10355140Y5760000D01*
X10347570Y5762028D01*
X10342028Y5767570D01*
X10340000Y5775140D01*
X10340000Y6348364D01*
X10342028Y6355934D01*
X10347570Y6361476D01*
X10349346Y6362351D01*
X10360026Y6366775D01*
X10360026Y6366775D01*
X10374021Y6376126D01*
X10374021Y6376126D01*
X10374021Y6376127D01*
X10385923Y6388029D01*
X10395275Y6402024D01*
X10401716Y6417575D01*
X10405000Y6434084D01*
X10405000Y6450916D01*
X10584100Y6450916D01*
X10584100Y6434084D01*
X10587384Y6417575D01*
X10593825Y6402024D01*
X10593825Y6402024D01*
X10603176Y6388029D01*
X10603177Y6388029D01*
X10615079Y6376127D01*
X10615079Y6376126D01*
X10629074Y6366775D01*
X10629074Y6366775D01*
X10644625Y6360334D01*
X10644625Y6360334D01*
X10644625Y6360334D01*
X10661134Y6357050D01*
X10737966Y6357050D01*
X10754475Y6360334D01*
X10770026Y6366775D01*
X10770026Y6366775D01*
X10770026Y6366775D01*
X10770026Y6366775D01*
X10784021Y6376126D01*
X10784021Y6376126D01*
X10784021Y6376127D01*
X10795923Y6388029D01*
X10805275Y6402024D01*
X10811716Y6417575D01*
X10815000Y6434084D01*
X10815000Y6450916D01*
X10811716Y6467425D01*
X10805275Y6482976D01*
X10805275Y6482976D01*
X10805275Y6482976D01*
X10795924Y6496971D01*
X10795923Y6496971D01*
X10784021Y6508873D01*
X10784021Y6508874D01*
X10770026Y6518225D01*
X10770026Y6518225D01*
X10754475Y6524666D01*
X10737966Y6527950D01*
X10661134Y6527950D01*
X10644625Y6524666D01*
X10629074Y6518225D01*
X10629074Y6518225D01*
X10615079Y6508874D01*
X10615079Y6508873D01*
X10603177Y6496971D01*
X10603176Y6496971D01*
X10593825Y6482976D01*
X10593825Y6482976D01*
X10587384Y6467425D01*
X10584100Y6450916D01*
X10405000Y6450916D01*
X10401716Y6467425D01*
X10395275Y6482976D01*
X10395275Y6482976D01*
X10395275Y6482976D01*
X10385924Y6496971D01*
X10385923Y6496971D01*
X10374021Y6508873D01*
X10372515Y6509880D01*
X10369953Y6511592D01*
X10364786Y6517484D01*
X10363257Y6525170D01*
X10365776Y6532591D01*
X10368976Y6535787D01*
X10368848Y6535942D01*
X10369423Y6536414D01*
X10369423Y6536414D01*
X10378136Y6545127D01*
X10384981Y6555371D01*
X10389696Y6566755D01*
X10392100Y6578839D01*
X10392100Y6591161D01*
X10389696Y6603245D01*
X10384981Y6614629D01*
X10378136Y6624873D01*
X10369423Y6633586D01*
X10369423Y6633586D01*
X10359179Y6640431D01*
X10349346Y6644504D01*
X10343129Y6649275D01*
X10340130Y6656515D01*
X10340000Y6658491D01*
X10340000Y7091509D01*
X10342028Y7099079D01*
X10347570Y7104620D01*
X10349346Y7105496D01*
X10350195Y7105848D01*
X10359179Y7109569D01*
X10369423Y7116414D01*
X10378136Y7125127D01*
X10384981Y7135371D01*
X10389696Y7146755D01*
X10392100Y7158839D01*
X10392100Y7171161D01*
X10389696Y7183245D01*
X10384981Y7194629D01*
X10378136Y7204873D01*
X10369423Y7213586D01*
X10368848Y7214058D01*
X10369033Y7214282D01*
X10364788Y7219120D01*
X10363257Y7226806D01*
X10365774Y7234228D01*
X10369953Y7238409D01*
X10374021Y7241127D01*
X10385923Y7253029D01*
X10386085Y7253271D01*
X10386217Y7253387D01*
X10386395Y7253604D01*
X10386431Y7253574D01*
X10391978Y7258439D01*
X10398674Y7260000D01*
X10410000Y7260000D01*
X10410000Y7260000D01*
X10465916Y7315916D01*
X10584100Y7315916D01*
X10584100Y7299084D01*
X10587384Y7282575D01*
X10593825Y7267024D01*
X10593825Y7267024D01*
X10603176Y7253029D01*
X10603177Y7253029D01*
X10615079Y7241127D01*
X10615079Y7241126D01*
X10629074Y7231775D01*
X10629074Y7231775D01*
X10644625Y7225334D01*
X10644625Y7225334D01*
X10644625Y7225334D01*
X10661134Y7222050D01*
X10737966Y7222050D01*
X10754475Y7225334D01*
X10770026Y7231775D01*
X10770026Y7231775D01*
X10770026Y7231775D01*
X10770026Y7231775D01*
X10784021Y7241126D01*
X10784021Y7241126D01*
X10784021Y7241127D01*
X10795923Y7253029D01*
X10805275Y7267024D01*
X10811716Y7282575D01*
X10815000Y7299084D01*
X10815000Y7315916D01*
X10811716Y7332425D01*
X10805275Y7347976D01*
X10805275Y7347976D01*
X10805275Y7347976D01*
X10795924Y7361971D01*
X10795923Y7361971D01*
X10784021Y7373873D01*
X10784021Y7373874D01*
X10770026Y7383225D01*
X10770026Y7383225D01*
X10754475Y7389666D01*
X10737966Y7392950D01*
X10661134Y7392950D01*
X10644625Y7389666D01*
X10629074Y7383225D01*
X10629074Y7383225D01*
X10615079Y7373874D01*
X10615079Y7373873D01*
X10603177Y7361971D01*
X10603176Y7361971D01*
X10593825Y7347976D01*
X10593825Y7347976D01*
X10587384Y7332425D01*
X10584100Y7315916D01*
X10465916Y7315916D01*
X10605566Y7455566D01*
X10612353Y7459484D01*
X10616271Y7460000D01*
X10864860Y7460000D01*
X10872430Y7457972D01*
G37*
G04 #@! TD.AperFunction*
G04 #@! TD*
M02*
