G04 #@! TF.GenerationSoftware,KiCad,Pcbnew,8.0.4*
G04 #@! TF.CreationDate,2024-12-03T18:33:22+11:00*
G04 #@! TF.ProjectId,hackrf-one,6861636b-7266-42d6-9f6e-652e6b696361,rev?*
G04 #@! TF.SameCoordinates,PX393df48PYa6d9c50*
G04 #@! TF.FileFunction,Soldermask,Bot*
G04 #@! TF.FilePolarity,Negative*
%FSLAX45Y45*%
G04 Gerber Fmt 4.5, Leading zero omitted, Abs format (unit mm)*
G04 Created by KiCad (PCBNEW 8.0.4) date 2024-12-03 18:33:22*
%MOMM*%
%LPD*%
G01*
G04 APERTURE LIST*
G04 Aperture macros list*
%AMRoundRect*
0 Rectangle with rounded corners*
0 $1 Rounding radius*
0 $2 $3 $4 $5 $6 $7 $8 $9 X,Y pos of 4 corners*
0 Add a 4 corners polygon primitive as box body*
4,1,4,$2,$3,$4,$5,$6,$7,$8,$9,$2,$3,0*
0 Add four circle primitives for the rounded corners*
1,1,$1+$1,$2,$3*
1,1,$1+$1,$4,$5*
1,1,$1+$1,$6,$7*
1,1,$1+$1,$8,$9*
0 Add four rect primitives between the rounded corners*
20,1,$1+$1,$2,$3,$4,$5,0*
20,1,$1+$1,$4,$5,$6,$7,0*
20,1,$1+$1,$6,$7,$8,$9,0*
20,1,$1+$1,$8,$9,$2,$3,0*%
G04 Aperture macros list end*
%ADD10C,2.000000*%
%ADD11C,0.700000*%
%ADD12C,5.700000*%
%ADD13RoundRect,0.050000X-0.762000X-0.762000X0.762000X-0.762000X0.762000X0.762000X-0.762000X0.762000X0*%
%ADD14C,1.624000*%
%ADD15RoundRect,0.050000X1.995000X1.332500X-1.995000X1.332500X-1.995000X-1.332500X1.995000X-1.332500X0*%
%ADD16RoundRect,0.050000X-0.762000X0.762000X-0.762000X-0.762000X0.762000X-0.762000X0.762000X0.762000X0*%
%ADD17RoundRect,0.050000X-1.995000X-1.332500X1.995000X-1.332500X1.995000X1.332500X-1.995000X1.332500X0*%
%ADD18RoundRect,0.050000X0.762000X0.762000X-0.762000X0.762000X-0.762000X-0.762000X0.762000X-0.762000X0*%
%ADD19RoundRect,0.050000X0.762000X-0.762000X0.762000X0.762000X-0.762000X0.762000X-0.762000X-0.762000X0*%
%ADD20RoundRect,0.050000X-0.533400X0.533400X-0.533400X-0.533400X0.533400X-0.533400X0.533400X0.533400X0*%
%ADD21C,1.166800*%
%ADD22C,2.100000*%
%ADD23C,1.600000*%
%ADD24C,0.742240*%
%ADD25C,0.736600*%
%ADD26C,0.777240*%
%ADD27C,0.685000*%
%ADD28C,0.850000*%
%ADD29O,2.100000X1.300000*%
%ADD30O,1.900000X1.300000*%
G04 APERTURE END LIST*
D10*
G04 #@! TO.C,MARK1MM*
X9980000Y9070000D03*
G04 #@! TD*
D11*
G04 #@! TO.C,J4*
X-940000Y8870000D03*
X-875000Y9025000D03*
X-875000Y8715000D03*
X-720000Y9090000D03*
D12*
X-720000Y8870000D03*
D11*
X-720000Y8650000D03*
X-565000Y9025000D03*
X-565000Y8715000D03*
X-500000Y8870000D03*
G04 #@! TD*
G04 #@! TO.C,J5*
X-940000Y2170000D03*
X-875000Y2325000D03*
X-875000Y2015000D03*
X-720000Y2390000D03*
D12*
X-720000Y2170000D03*
D11*
X-720000Y1950000D03*
X-565000Y2325000D03*
X-565000Y2015000D03*
X-500000Y2170000D03*
G04 #@! TD*
G04 #@! TO.C,J6*
X10260000Y2170000D03*
X10325000Y2325000D03*
X10325000Y2015000D03*
X10480000Y2390000D03*
D12*
X10480000Y2170000D03*
D11*
X10480000Y1950000D03*
X10635000Y2325000D03*
X10635000Y2015000D03*
X10700000Y2170000D03*
G04 #@! TD*
G04 #@! TO.C,J7*
X10260000Y8870000D03*
X10325000Y9025000D03*
X10325000Y8715000D03*
X10480000Y9090000D03*
D12*
X10480000Y8870000D03*
D11*
X10480000Y8650000D03*
X10635000Y9025000D03*
X10635000Y8715000D03*
X10700000Y8870000D03*
G04 #@! TD*
G04 #@! TO.C,J8*
X5260000Y8870000D03*
X5325000Y9025000D03*
X5325000Y8715000D03*
X5480000Y9090000D03*
D12*
X5480000Y8870000D03*
D11*
X5480000Y8650000D03*
X5635000Y9025000D03*
X5635000Y8715000D03*
X5700000Y8870000D03*
G04 #@! TD*
G04 #@! TO.C,J9*
X5760000Y4870000D03*
X5825000Y5025000D03*
X5825000Y4715000D03*
X5980000Y5090000D03*
D12*
X5980000Y4870000D03*
D11*
X5980000Y4650000D03*
X6135000Y5025000D03*
X6135000Y4715000D03*
X6200000Y4870000D03*
G04 #@! TD*
D13*
G04 #@! TO.C,P1*
X7389000Y7993000D03*
D14*
X7643000Y7993000D03*
G04 #@! TD*
D15*
G04 #@! TO.C,P2*
X10558500Y4420750D03*
X10558500Y5119250D03*
G04 #@! TD*
D16*
G04 #@! TO.C,P3*
X7389000Y7485000D03*
D14*
X7389000Y7231000D03*
G04 #@! TD*
D17*
G04 #@! TO.C,P4*
X-798500Y3519250D03*
X-798500Y2820750D03*
G04 #@! TD*
D18*
G04 #@! TO.C,P5*
X2055000Y8755000D03*
D14*
X2055000Y8501000D03*
X1801000Y8755000D03*
X1801000Y8501000D03*
X1547000Y8755000D03*
X1547000Y8501000D03*
G04 #@! TD*
D13*
G04 #@! TO.C,P8*
X8659000Y7993000D03*
D14*
X8913000Y7993000D03*
G04 #@! TD*
D18*
G04 #@! TO.C,P9*
X3579000Y6469000D03*
D14*
X3579000Y6215000D03*
X3325000Y6469000D03*
X3325000Y6215000D03*
X3071000Y6469000D03*
X3071000Y6215000D03*
X2817000Y6469000D03*
X2817000Y6215000D03*
X2563000Y6469000D03*
X2563000Y6215000D03*
X2309000Y6469000D03*
X2309000Y6215000D03*
X2055000Y6469000D03*
X2055000Y6215000D03*
X1801000Y6469000D03*
X1801000Y6215000D03*
G04 #@! TD*
D15*
G04 #@! TO.C,P16*
X10558500Y2620750D03*
X10558500Y3319250D03*
G04 #@! TD*
D19*
G04 #@! TO.C,P20*
X10183000Y3675000D03*
D14*
X9929000Y3675000D03*
X10183000Y3929000D03*
X9929000Y3929000D03*
X10183000Y4183000D03*
X9929000Y4183000D03*
X10183000Y4437000D03*
X9929000Y4437000D03*
X10183000Y4691000D03*
X9929000Y4691000D03*
X10183000Y4945000D03*
X9929000Y4945000D03*
X10183000Y5199000D03*
X9929000Y5199000D03*
X10183000Y5453000D03*
X9929000Y5453000D03*
X10183000Y5707000D03*
X9929000Y5707000D03*
X10183000Y5961000D03*
X9929000Y5961000D03*
X10183000Y6215000D03*
X9929000Y6215000D03*
G04 #@! TD*
D18*
G04 #@! TO.C,P22*
X9675000Y2913000D03*
D14*
X9675000Y2659000D03*
X9421000Y2913000D03*
X9421000Y2659000D03*
X9167000Y2913000D03*
X9167000Y2659000D03*
X8913000Y2913000D03*
X8913000Y2659000D03*
X8659000Y2913000D03*
X8659000Y2659000D03*
X8405000Y2913000D03*
X8405000Y2659000D03*
X8151000Y2913000D03*
X8151000Y2659000D03*
X7897000Y2913000D03*
X7897000Y2659000D03*
X7643000Y2913000D03*
X7643000Y2659000D03*
X7389000Y2913000D03*
X7389000Y2659000D03*
X7135000Y2913000D03*
X7135000Y2659000D03*
X6881000Y2913000D03*
X6881000Y2659000D03*
X6627000Y2913000D03*
X6627000Y2659000D03*
G04 #@! TD*
D13*
G04 #@! TO.C,P25*
X6627000Y3421000D03*
D14*
X6881000Y3421000D03*
X7135000Y3421000D03*
X7389000Y3421000D03*
X7643000Y3421000D03*
X7897000Y3421000D03*
G04 #@! TD*
D20*
G04 #@! TO.C,P26*
X8046260Y7823340D03*
D21*
X8173260Y7823340D03*
X8046260Y7696340D03*
X8173260Y7696340D03*
X8046260Y7569340D03*
X8173260Y7569340D03*
X8046260Y7442340D03*
X8173260Y7442340D03*
X8046260Y7315340D03*
X8173260Y7315340D03*
G04 #@! TD*
D19*
G04 #@! TO.C,P28*
X5357000Y3675000D03*
D14*
X5103000Y3675000D03*
X5357000Y3929000D03*
X5103000Y3929000D03*
X5357000Y4183000D03*
X5103000Y4183000D03*
X5357000Y4437000D03*
X5103000Y4437000D03*
X5357000Y4691000D03*
X5103000Y4691000D03*
X5357000Y4945000D03*
X5103000Y4945000D03*
X5357000Y5199000D03*
X5103000Y5199000D03*
X5357000Y5453000D03*
X5103000Y5453000D03*
X5357000Y5707000D03*
X5103000Y5707000D03*
X5357000Y5961000D03*
X5103000Y5961000D03*
X5357000Y6215000D03*
X5103000Y6215000D03*
G04 #@! TD*
D13*
G04 #@! TO.C,P29*
X5865000Y5961000D03*
D14*
X6119000Y5961000D03*
G04 #@! TD*
D18*
G04 #@! TO.C,P30*
X8913000Y8755000D03*
D14*
X8913000Y8501000D03*
X8659000Y8755000D03*
X8659000Y8501000D03*
X8405000Y8755000D03*
X8405000Y8501000D03*
X8151000Y8755000D03*
X8151000Y8501000D03*
X7897000Y8755000D03*
X7897000Y8501000D03*
X7643000Y8755000D03*
X7643000Y8501000D03*
X7389000Y8755000D03*
X7389000Y8501000D03*
X7135000Y8755000D03*
X7135000Y8501000D03*
X6881000Y8755000D03*
X6881000Y8501000D03*
X6627000Y8755000D03*
X6627000Y8501000D03*
G04 #@! TD*
D19*
G04 #@! TO.C,P36*
X1293000Y6469000D03*
D14*
X1293000Y6723000D03*
G04 #@! TD*
D16*
G04 #@! TO.C,P80*
X10691000Y6215000D03*
D14*
X10691000Y5961000D03*
G04 #@! TD*
D22*
G04 #@! TO.C,SW1*
X-601000Y7180500D03*
X-601000Y6479500D03*
D23*
X-850000Y7055000D03*
X-850000Y6605000D03*
G04 #@! TD*
D22*
G04 #@! TO.C,SW2*
X-601000Y8480500D03*
X-601000Y7779500D03*
D23*
X-850000Y8355000D03*
X-850000Y7905000D03*
G04 #@! TD*
D24*
G04 #@! TO.C,U4*
X2252040Y3603640D03*
X2142040Y3603640D03*
X2032040Y3603640D03*
X2252040Y3493640D03*
X2142040Y3493640D03*
X2032040Y3493640D03*
X2252040Y3383640D03*
X2142040Y3383640D03*
X2032040Y3383640D03*
G04 #@! TD*
D25*
G04 #@! TO.C,U17*
X3594850Y4930290D03*
X3744850Y4930290D03*
X3894850Y4930290D03*
X3594850Y5080290D03*
X3744850Y5080290D03*
X3894850Y5080290D03*
X3594850Y5230290D03*
X3744850Y5230290D03*
X3894850Y5230290D03*
G04 #@! TD*
D26*
G04 #@! TO.C,U18*
X3004540Y7858820D03*
X3169540Y7858820D03*
X3334540Y7858820D03*
X3004540Y8023820D03*
X3169540Y8023820D03*
X3334540Y8023820D03*
X3004540Y8188820D03*
X3169540Y8188820D03*
X3334540Y8188820D03*
G04 #@! TD*
D24*
G04 #@! TO.C,U19*
X5560920Y2911400D03*
X5692920Y2911400D03*
X5626920Y2977400D03*
X5560920Y3043400D03*
X5692920Y3043400D03*
G04 #@! TD*
D27*
G04 #@! TO.C,U21*
X9883000Y7999880D03*
X9883000Y8149880D03*
X9833000Y8074880D03*
X9783000Y7999880D03*
X9783000Y8149880D03*
G04 #@! TD*
D10*
G04 #@! TO.C,MARK1MM*
X1460360Y2546600D03*
G04 #@! TD*
G04 #@! TO.C,MARK1MM*
X4503280Y6742680D03*
G04 #@! TD*
D28*
G04 #@! TO.C,J11*
X10329550Y6585000D03*
X10329550Y7165000D03*
D29*
X10279550Y6442500D03*
D30*
X10699550Y6442500D03*
D29*
X10279550Y7307500D03*
D30*
X10699550Y7307500D03*
G04 #@! TD*
M02*
