%TF.GenerationSoftware,KiCad,Pcbnew,8.0.4*%
%TF.CreationDate,2024-10-12T12:31:17+11:00*%
%TF.ProjectId,hackrf-one,6861636b-7266-42d6-9f6e-652e6b696361,rev?*%
%TF.SameCoordinates,Original*%
%TF.FileFunction,Drillmap*%
%TF.FilePolarity,Positive*%
%FSLAX45Y45*%
G04 Gerber Fmt 4.5, Leading zero omitted, Abs format (unit mm)*
G04 Created by KiCad (PCBNEW 8.0.4) date 2024-10-12 12:31:17*
%MOMM*%
%LPD*%
G01*
G04 APERTURE LIST*
%ADD10C,0.381000*%
%ADD11C,0.200000*%
%ADD12C,0.100000*%
G04 APERTURE END LIST*
D10*
X4940326Y-13819494D02*
G75*
G02*
X4984260Y-13925560I-106066J-106066D01*
G01*
X16780260Y-12325560D02*
X16780260Y-14925560D01*
X5282260Y-15725560D02*
X16482260Y-15725560D01*
X4926260Y-14845560D02*
X4940260Y-14831560D01*
X4882260Y-13699560D02*
X4882260Y-8625560D01*
X16780260Y-12325560D02*
G75*
G02*
X16824194Y-12219494I150000J0D01*
G01*
X16824260Y-15031560D02*
X16838260Y-15045560D01*
X4882260Y-14951560D02*
G75*
G02*
X4926194Y-14845494I150000J0D01*
G01*
X4940260Y-13819560D02*
X4926260Y-13805560D01*
X16882260Y-10343060D02*
X16882260Y-10433060D01*
X4984260Y-14725560D02*
G75*
G02*
X4940326Y-14831626I-150000J0D01*
G01*
X4882260Y-8625560D02*
G75*
G02*
X5282260Y-8225560I400000J0D01*
G01*
X5282260Y-15725560D02*
G75*
G02*
X4882260Y-15325560I0J400000D01*
G01*
X16882260Y-15325560D02*
X16882260Y-15151560D01*
X16838326Y-15045494D02*
G75*
G02*
X16882260Y-15151560I-106066J-106066D01*
G01*
X4926194Y-13805626D02*
G75*
G02*
X4882260Y-13699560I106066J106066D01*
G01*
X16882260Y-10818060D02*
X16882260Y-10908060D01*
X16882260Y-10908060D02*
X16882260Y-12099560D01*
X16482260Y-8225560D02*
X5282260Y-8225560D01*
X16824260Y-12219560D02*
X16838260Y-12205560D01*
X16882260Y-8625560D02*
X16882260Y-10343060D01*
X4882260Y-14951560D02*
X4882260Y-15325560D01*
X4984260Y-13925560D02*
X4984260Y-14725560D01*
X16482260Y-8225560D02*
G75*
G02*
X16882260Y-8625560I0J-400000D01*
G01*
X16882260Y-15325560D02*
G75*
G02*
X16482260Y-15725560I-400000J0D01*
G01*
X16824194Y-15031626D02*
G75*
G02*
X16780260Y-14925560I106066J106066D01*
G01*
X16882260Y-12099560D02*
G75*
G02*
X16838326Y-12205626I-150000J0D01*
G01*
X16882260Y-10433060D02*
X16882260Y-10818060D01*
D11*
D12*
X16294310Y-10258060D02*
X16369310Y-10333060D01*
X16369310Y-10258060D02*
X16294310Y-10333060D01*
X16294310Y-10838060D02*
X16369310Y-10913060D01*
X16369310Y-10838060D02*
X16294310Y-10913060D01*
D11*
X5123987Y-16056094D02*
X5123987Y-15856094D01*
X5123987Y-15856094D02*
X5171606Y-15856094D01*
X5171606Y-15856094D02*
X5200177Y-15865618D01*
X5200177Y-15865618D02*
X5219225Y-15884665D01*
X5219225Y-15884665D02*
X5228749Y-15903713D01*
X5228749Y-15903713D02*
X5238273Y-15941808D01*
X5238273Y-15941808D02*
X5238273Y-15970379D01*
X5238273Y-15970379D02*
X5228749Y-16008475D01*
X5228749Y-16008475D02*
X5219225Y-16027522D01*
X5219225Y-16027522D02*
X5200177Y-16046570D01*
X5200177Y-16046570D02*
X5171606Y-16056094D01*
X5171606Y-16056094D02*
X5123987Y-16056094D01*
X5323987Y-16056094D02*
X5323987Y-15922760D01*
X5323987Y-15960856D02*
X5333511Y-15941808D01*
X5333511Y-15941808D02*
X5343034Y-15932284D01*
X5343034Y-15932284D02*
X5362082Y-15922760D01*
X5362082Y-15922760D02*
X5381130Y-15922760D01*
X5447796Y-16056094D02*
X5447796Y-15922760D01*
X5447796Y-15856094D02*
X5438273Y-15865618D01*
X5438273Y-15865618D02*
X5447796Y-15875141D01*
X5447796Y-15875141D02*
X5457320Y-15865618D01*
X5457320Y-15865618D02*
X5447796Y-15856094D01*
X5447796Y-15856094D02*
X5447796Y-15875141D01*
X5571606Y-16056094D02*
X5552558Y-16046570D01*
X5552558Y-16046570D02*
X5543034Y-16027522D01*
X5543034Y-16027522D02*
X5543034Y-15856094D01*
X5676368Y-16056094D02*
X5657320Y-16046570D01*
X5657320Y-16046570D02*
X5647796Y-16027522D01*
X5647796Y-16027522D02*
X5647796Y-15856094D01*
X5904939Y-16056094D02*
X5904939Y-15856094D01*
X5904939Y-15856094D02*
X5971606Y-15998951D01*
X5971606Y-15998951D02*
X6038272Y-15856094D01*
X6038272Y-15856094D02*
X6038272Y-16056094D01*
X6219225Y-16056094D02*
X6219225Y-15951332D01*
X6219225Y-15951332D02*
X6209701Y-15932284D01*
X6209701Y-15932284D02*
X6190653Y-15922760D01*
X6190653Y-15922760D02*
X6152558Y-15922760D01*
X6152558Y-15922760D02*
X6133511Y-15932284D01*
X6219225Y-16046570D02*
X6200177Y-16056094D01*
X6200177Y-16056094D02*
X6152558Y-16056094D01*
X6152558Y-16056094D02*
X6133511Y-16046570D01*
X6133511Y-16046570D02*
X6123987Y-16027522D01*
X6123987Y-16027522D02*
X6123987Y-16008475D01*
X6123987Y-16008475D02*
X6133511Y-15989427D01*
X6133511Y-15989427D02*
X6152558Y-15979903D01*
X6152558Y-15979903D02*
X6200177Y-15979903D01*
X6200177Y-15979903D02*
X6219225Y-15970379D01*
X6314463Y-15922760D02*
X6314463Y-16122760D01*
X6314463Y-15932284D02*
X6333511Y-15922760D01*
X6333511Y-15922760D02*
X6371606Y-15922760D01*
X6371606Y-15922760D02*
X6390653Y-15932284D01*
X6390653Y-15932284D02*
X6400177Y-15941808D01*
X6400177Y-15941808D02*
X6409701Y-15960856D01*
X6409701Y-15960856D02*
X6409701Y-16017998D01*
X6409701Y-16017998D02*
X6400177Y-16037046D01*
X6400177Y-16037046D02*
X6390653Y-16046570D01*
X6390653Y-16046570D02*
X6371606Y-16056094D01*
X6371606Y-16056094D02*
X6333511Y-16056094D01*
X6333511Y-16056094D02*
X6314463Y-16046570D01*
X6495415Y-16037046D02*
X6504939Y-16046570D01*
X6504939Y-16046570D02*
X6495415Y-16056094D01*
X6495415Y-16056094D02*
X6485892Y-16046570D01*
X6485892Y-16046570D02*
X6495415Y-16037046D01*
X6495415Y-16037046D02*
X6495415Y-16056094D01*
X6495415Y-15932284D02*
X6504939Y-15941808D01*
X6504939Y-15941808D02*
X6495415Y-15951332D01*
X6495415Y-15951332D02*
X6485892Y-15941808D01*
X6485892Y-15941808D02*
X6495415Y-15932284D01*
X6495415Y-15932284D02*
X6495415Y-15951332D01*
D12*
X4788210Y-16347110D02*
X4863210Y-16422110D01*
X4863210Y-16347110D02*
X4788210Y-16422110D01*
D11*
X5162082Y-16276094D02*
X5181130Y-16276094D01*
X5181130Y-16276094D02*
X5200177Y-16285618D01*
X5200177Y-16285618D02*
X5209701Y-16295141D01*
X5209701Y-16295141D02*
X5219225Y-16314189D01*
X5219225Y-16314189D02*
X5228749Y-16352284D01*
X5228749Y-16352284D02*
X5228749Y-16399903D01*
X5228749Y-16399903D02*
X5219225Y-16437998D01*
X5219225Y-16437998D02*
X5209701Y-16457046D01*
X5209701Y-16457046D02*
X5200177Y-16466570D01*
X5200177Y-16466570D02*
X5181130Y-16476094D01*
X5181130Y-16476094D02*
X5162082Y-16476094D01*
X5162082Y-16476094D02*
X5143034Y-16466570D01*
X5143034Y-16466570D02*
X5133511Y-16457046D01*
X5133511Y-16457046D02*
X5123987Y-16437998D01*
X5123987Y-16437998D02*
X5114463Y-16399903D01*
X5114463Y-16399903D02*
X5114463Y-16352284D01*
X5114463Y-16352284D02*
X5123987Y-16314189D01*
X5123987Y-16314189D02*
X5133511Y-16295141D01*
X5133511Y-16295141D02*
X5143034Y-16285618D01*
X5143034Y-16285618D02*
X5162082Y-16276094D01*
X5314463Y-16457046D02*
X5323987Y-16466570D01*
X5323987Y-16466570D02*
X5314463Y-16476094D01*
X5314463Y-16476094D02*
X5304939Y-16466570D01*
X5304939Y-16466570D02*
X5314463Y-16457046D01*
X5314463Y-16457046D02*
X5314463Y-16476094D01*
X5390654Y-16276094D02*
X5523987Y-16276094D01*
X5523987Y-16276094D02*
X5438273Y-16476094D01*
X5695415Y-16276094D02*
X5600177Y-16276094D01*
X5600177Y-16276094D02*
X5590654Y-16371332D01*
X5590654Y-16371332D02*
X5600177Y-16361808D01*
X5600177Y-16361808D02*
X5619225Y-16352284D01*
X5619225Y-16352284D02*
X5666844Y-16352284D01*
X5666844Y-16352284D02*
X5685892Y-16361808D01*
X5685892Y-16361808D02*
X5695415Y-16371332D01*
X5695415Y-16371332D02*
X5704939Y-16390379D01*
X5704939Y-16390379D02*
X5704939Y-16437998D01*
X5704939Y-16437998D02*
X5695415Y-16457046D01*
X5695415Y-16457046D02*
X5685892Y-16466570D01*
X5685892Y-16466570D02*
X5666844Y-16476094D01*
X5666844Y-16476094D02*
X5619225Y-16476094D01*
X5619225Y-16476094D02*
X5600177Y-16466570D01*
X5600177Y-16466570D02*
X5590654Y-16457046D01*
X5828749Y-16276094D02*
X5847796Y-16276094D01*
X5847796Y-16276094D02*
X5866844Y-16285618D01*
X5866844Y-16285618D02*
X5876368Y-16295141D01*
X5876368Y-16295141D02*
X5885892Y-16314189D01*
X5885892Y-16314189D02*
X5895415Y-16352284D01*
X5895415Y-16352284D02*
X5895415Y-16399903D01*
X5895415Y-16399903D02*
X5885892Y-16437998D01*
X5885892Y-16437998D02*
X5876368Y-16457046D01*
X5876368Y-16457046D02*
X5866844Y-16466570D01*
X5866844Y-16466570D02*
X5847796Y-16476094D01*
X5847796Y-16476094D02*
X5828749Y-16476094D01*
X5828749Y-16476094D02*
X5809701Y-16466570D01*
X5809701Y-16466570D02*
X5800177Y-16457046D01*
X5800177Y-16457046D02*
X5790653Y-16437998D01*
X5790653Y-16437998D02*
X5781130Y-16399903D01*
X5781130Y-16399903D02*
X5781130Y-16352284D01*
X5781130Y-16352284D02*
X5790653Y-16314189D01*
X5790653Y-16314189D02*
X5800177Y-16295141D01*
X5800177Y-16295141D02*
X5809701Y-16285618D01*
X5809701Y-16285618D02*
X5828749Y-16276094D01*
X5981130Y-16476094D02*
X5981130Y-16342760D01*
X5981130Y-16361808D02*
X5990653Y-16352284D01*
X5990653Y-16352284D02*
X6009701Y-16342760D01*
X6009701Y-16342760D02*
X6038273Y-16342760D01*
X6038273Y-16342760D02*
X6057320Y-16352284D01*
X6057320Y-16352284D02*
X6066844Y-16371332D01*
X6066844Y-16371332D02*
X6066844Y-16476094D01*
X6066844Y-16371332D02*
X6076368Y-16352284D01*
X6076368Y-16352284D02*
X6095415Y-16342760D01*
X6095415Y-16342760D02*
X6123987Y-16342760D01*
X6123987Y-16342760D02*
X6143034Y-16352284D01*
X6143034Y-16352284D02*
X6152558Y-16371332D01*
X6152558Y-16371332D02*
X6152558Y-16476094D01*
X6247796Y-16476094D02*
X6247796Y-16342760D01*
X6247796Y-16361808D02*
X6257320Y-16352284D01*
X6257320Y-16352284D02*
X6276368Y-16342760D01*
X6276368Y-16342760D02*
X6304939Y-16342760D01*
X6304939Y-16342760D02*
X6323987Y-16352284D01*
X6323987Y-16352284D02*
X6333511Y-16371332D01*
X6333511Y-16371332D02*
X6333511Y-16476094D01*
X6333511Y-16371332D02*
X6343034Y-16352284D01*
X6343034Y-16352284D02*
X6362082Y-16342760D01*
X6362082Y-16342760D02*
X6390653Y-16342760D01*
X6390653Y-16342760D02*
X6409701Y-16352284D01*
X6409701Y-16352284D02*
X6419225Y-16371332D01*
X6419225Y-16371332D02*
X6419225Y-16476094D01*
X6809701Y-16266570D02*
X6638273Y-16523713D01*
X7066844Y-16276094D02*
X7085892Y-16276094D01*
X7085892Y-16276094D02*
X7104939Y-16285618D01*
X7104939Y-16285618D02*
X7114463Y-16295141D01*
X7114463Y-16295141D02*
X7123987Y-16314189D01*
X7123987Y-16314189D02*
X7133511Y-16352284D01*
X7133511Y-16352284D02*
X7133511Y-16399903D01*
X7133511Y-16399903D02*
X7123987Y-16437998D01*
X7123987Y-16437998D02*
X7114463Y-16457046D01*
X7114463Y-16457046D02*
X7104939Y-16466570D01*
X7104939Y-16466570D02*
X7085892Y-16476094D01*
X7085892Y-16476094D02*
X7066844Y-16476094D01*
X7066844Y-16476094D02*
X7047796Y-16466570D01*
X7047796Y-16466570D02*
X7038273Y-16457046D01*
X7038273Y-16457046D02*
X7028749Y-16437998D01*
X7028749Y-16437998D02*
X7019225Y-16399903D01*
X7019225Y-16399903D02*
X7019225Y-16352284D01*
X7019225Y-16352284D02*
X7028749Y-16314189D01*
X7028749Y-16314189D02*
X7038273Y-16295141D01*
X7038273Y-16295141D02*
X7047796Y-16285618D01*
X7047796Y-16285618D02*
X7066844Y-16276094D01*
X7219225Y-16457046D02*
X7228749Y-16466570D01*
X7228749Y-16466570D02*
X7219225Y-16476094D01*
X7219225Y-16476094D02*
X7209701Y-16466570D01*
X7209701Y-16466570D02*
X7219225Y-16457046D01*
X7219225Y-16457046D02*
X7219225Y-16476094D01*
X7352558Y-16276094D02*
X7371606Y-16276094D01*
X7371606Y-16276094D02*
X7390654Y-16285618D01*
X7390654Y-16285618D02*
X7400177Y-16295141D01*
X7400177Y-16295141D02*
X7409701Y-16314189D01*
X7409701Y-16314189D02*
X7419225Y-16352284D01*
X7419225Y-16352284D02*
X7419225Y-16399903D01*
X7419225Y-16399903D02*
X7409701Y-16437998D01*
X7409701Y-16437998D02*
X7400177Y-16457046D01*
X7400177Y-16457046D02*
X7390654Y-16466570D01*
X7390654Y-16466570D02*
X7371606Y-16476094D01*
X7371606Y-16476094D02*
X7352558Y-16476094D01*
X7352558Y-16476094D02*
X7333511Y-16466570D01*
X7333511Y-16466570D02*
X7323987Y-16457046D01*
X7323987Y-16457046D02*
X7314463Y-16437998D01*
X7314463Y-16437998D02*
X7304939Y-16399903D01*
X7304939Y-16399903D02*
X7304939Y-16352284D01*
X7304939Y-16352284D02*
X7314463Y-16314189D01*
X7314463Y-16314189D02*
X7323987Y-16295141D01*
X7323987Y-16295141D02*
X7333511Y-16285618D01*
X7333511Y-16285618D02*
X7352558Y-16276094D01*
X7495416Y-16295141D02*
X7504939Y-16285618D01*
X7504939Y-16285618D02*
X7523987Y-16276094D01*
X7523987Y-16276094D02*
X7571606Y-16276094D01*
X7571606Y-16276094D02*
X7590654Y-16285618D01*
X7590654Y-16285618D02*
X7600177Y-16295141D01*
X7600177Y-16295141D02*
X7609701Y-16314189D01*
X7609701Y-16314189D02*
X7609701Y-16333237D01*
X7609701Y-16333237D02*
X7600177Y-16361808D01*
X7600177Y-16361808D02*
X7485892Y-16476094D01*
X7485892Y-16476094D02*
X7609701Y-16476094D01*
X7704939Y-16476094D02*
X7743035Y-16476094D01*
X7743035Y-16476094D02*
X7762082Y-16466570D01*
X7762082Y-16466570D02*
X7771606Y-16457046D01*
X7771606Y-16457046D02*
X7790654Y-16428475D01*
X7790654Y-16428475D02*
X7800177Y-16390379D01*
X7800177Y-16390379D02*
X7800177Y-16314189D01*
X7800177Y-16314189D02*
X7790654Y-16295141D01*
X7790654Y-16295141D02*
X7781130Y-16285618D01*
X7781130Y-16285618D02*
X7762082Y-16276094D01*
X7762082Y-16276094D02*
X7723987Y-16276094D01*
X7723987Y-16276094D02*
X7704939Y-16285618D01*
X7704939Y-16285618D02*
X7695416Y-16295141D01*
X7695416Y-16295141D02*
X7685892Y-16314189D01*
X7685892Y-16314189D02*
X7685892Y-16361808D01*
X7685892Y-16361808D02*
X7695416Y-16380856D01*
X7695416Y-16380856D02*
X7704939Y-16390379D01*
X7704939Y-16390379D02*
X7723987Y-16399903D01*
X7723987Y-16399903D02*
X7762082Y-16399903D01*
X7762082Y-16399903D02*
X7781130Y-16390379D01*
X7781130Y-16390379D02*
X7790654Y-16380856D01*
X7790654Y-16380856D02*
X7800177Y-16361808D01*
X7981130Y-16276094D02*
X7885892Y-16276094D01*
X7885892Y-16276094D02*
X7876368Y-16371332D01*
X7876368Y-16371332D02*
X7885892Y-16361808D01*
X7885892Y-16361808D02*
X7904939Y-16352284D01*
X7904939Y-16352284D02*
X7952558Y-16352284D01*
X7952558Y-16352284D02*
X7971606Y-16361808D01*
X7971606Y-16361808D02*
X7981130Y-16371332D01*
X7981130Y-16371332D02*
X7990654Y-16390379D01*
X7990654Y-16390379D02*
X7990654Y-16437998D01*
X7990654Y-16437998D02*
X7981130Y-16457046D01*
X7981130Y-16457046D02*
X7971606Y-16466570D01*
X7971606Y-16466570D02*
X7952558Y-16476094D01*
X7952558Y-16476094D02*
X7904939Y-16476094D01*
X7904939Y-16476094D02*
X7885892Y-16466570D01*
X7885892Y-16466570D02*
X7876368Y-16457046D01*
X8066844Y-16276094D02*
X8066844Y-16314189D01*
X8143035Y-16276094D02*
X8143035Y-16314189D01*
X8438273Y-16552284D02*
X8428749Y-16542760D01*
X8428749Y-16542760D02*
X8409701Y-16514189D01*
X8409701Y-16514189D02*
X8400178Y-16495141D01*
X8400178Y-16495141D02*
X8390654Y-16466570D01*
X8390654Y-16466570D02*
X8381130Y-16418951D01*
X8381130Y-16418951D02*
X8381130Y-16380856D01*
X8381130Y-16380856D02*
X8390654Y-16333237D01*
X8390654Y-16333237D02*
X8400178Y-16304665D01*
X8400178Y-16304665D02*
X8409701Y-16285618D01*
X8409701Y-16285618D02*
X8428749Y-16257046D01*
X8428749Y-16257046D02*
X8438273Y-16247522D01*
X8504940Y-16295141D02*
X8514463Y-16285618D01*
X8514463Y-16285618D02*
X8533511Y-16276094D01*
X8533511Y-16276094D02*
X8581130Y-16276094D01*
X8581130Y-16276094D02*
X8600178Y-16285618D01*
X8600178Y-16285618D02*
X8609701Y-16295141D01*
X8609701Y-16295141D02*
X8619225Y-16314189D01*
X8619225Y-16314189D02*
X8619225Y-16333237D01*
X8619225Y-16333237D02*
X8609701Y-16361808D01*
X8609701Y-16361808D02*
X8495416Y-16476094D01*
X8495416Y-16476094D02*
X8619225Y-16476094D01*
X8857321Y-16476094D02*
X8857321Y-16276094D01*
X8943035Y-16476094D02*
X8943035Y-16371332D01*
X8943035Y-16371332D02*
X8933511Y-16352284D01*
X8933511Y-16352284D02*
X8914463Y-16342760D01*
X8914463Y-16342760D02*
X8885892Y-16342760D01*
X8885892Y-16342760D02*
X8866844Y-16352284D01*
X8866844Y-16352284D02*
X8857321Y-16361808D01*
X9066844Y-16476094D02*
X9047797Y-16466570D01*
X9047797Y-16466570D02*
X9038273Y-16457046D01*
X9038273Y-16457046D02*
X9028749Y-16437998D01*
X9028749Y-16437998D02*
X9028749Y-16380856D01*
X9028749Y-16380856D02*
X9038273Y-16361808D01*
X9038273Y-16361808D02*
X9047797Y-16352284D01*
X9047797Y-16352284D02*
X9066844Y-16342760D01*
X9066844Y-16342760D02*
X9095416Y-16342760D01*
X9095416Y-16342760D02*
X9114463Y-16352284D01*
X9114463Y-16352284D02*
X9123987Y-16361808D01*
X9123987Y-16361808D02*
X9133511Y-16380856D01*
X9133511Y-16380856D02*
X9133511Y-16437998D01*
X9133511Y-16437998D02*
X9123987Y-16457046D01*
X9123987Y-16457046D02*
X9114463Y-16466570D01*
X9114463Y-16466570D02*
X9095416Y-16476094D01*
X9095416Y-16476094D02*
X9066844Y-16476094D01*
X9247797Y-16476094D02*
X9228749Y-16466570D01*
X9228749Y-16466570D02*
X9219225Y-16447522D01*
X9219225Y-16447522D02*
X9219225Y-16276094D01*
X9400178Y-16466570D02*
X9381130Y-16476094D01*
X9381130Y-16476094D02*
X9343035Y-16476094D01*
X9343035Y-16476094D02*
X9323987Y-16466570D01*
X9323987Y-16466570D02*
X9314463Y-16447522D01*
X9314463Y-16447522D02*
X9314463Y-16371332D01*
X9314463Y-16371332D02*
X9323987Y-16352284D01*
X9323987Y-16352284D02*
X9343035Y-16342760D01*
X9343035Y-16342760D02*
X9381130Y-16342760D01*
X9381130Y-16342760D02*
X9400178Y-16352284D01*
X9400178Y-16352284D02*
X9409702Y-16371332D01*
X9409702Y-16371332D02*
X9409702Y-16390379D01*
X9409702Y-16390379D02*
X9314463Y-16409427D01*
X9485892Y-16466570D02*
X9504940Y-16476094D01*
X9504940Y-16476094D02*
X9543035Y-16476094D01*
X9543035Y-16476094D02*
X9562083Y-16466570D01*
X9562083Y-16466570D02*
X9571606Y-16447522D01*
X9571606Y-16447522D02*
X9571606Y-16437998D01*
X9571606Y-16437998D02*
X9562083Y-16418951D01*
X9562083Y-16418951D02*
X9543035Y-16409427D01*
X9543035Y-16409427D02*
X9514463Y-16409427D01*
X9514463Y-16409427D02*
X9495416Y-16399903D01*
X9495416Y-16399903D02*
X9485892Y-16380856D01*
X9485892Y-16380856D02*
X9485892Y-16371332D01*
X9485892Y-16371332D02*
X9495416Y-16352284D01*
X9495416Y-16352284D02*
X9514463Y-16342760D01*
X9514463Y-16342760D02*
X9543035Y-16342760D01*
X9543035Y-16342760D02*
X9562083Y-16352284D01*
X9638273Y-16552284D02*
X9647797Y-16542760D01*
X9647797Y-16542760D02*
X9666844Y-16514189D01*
X9666844Y-16514189D02*
X9676368Y-16495141D01*
X9676368Y-16495141D02*
X9685892Y-16466570D01*
X9685892Y-16466570D02*
X9695416Y-16418951D01*
X9695416Y-16418951D02*
X9695416Y-16380856D01*
X9695416Y-16380856D02*
X9685892Y-16333237D01*
X9685892Y-16333237D02*
X9676368Y-16304665D01*
X9676368Y-16304665D02*
X9666844Y-16285618D01*
X9666844Y-16285618D02*
X9647797Y-16257046D01*
X9647797Y-16257046D02*
X9638273Y-16247522D01*
X10000178Y-16552284D02*
X9990654Y-16542760D01*
X9990654Y-16542760D02*
X9971606Y-16514189D01*
X9971606Y-16514189D02*
X9962083Y-16495141D01*
X9962083Y-16495141D02*
X9952559Y-16466570D01*
X9952559Y-16466570D02*
X9943035Y-16418951D01*
X9943035Y-16418951D02*
X9943035Y-16380856D01*
X9943035Y-16380856D02*
X9952559Y-16333237D01*
X9952559Y-16333237D02*
X9962083Y-16304665D01*
X9962083Y-16304665D02*
X9971606Y-16285618D01*
X9971606Y-16285618D02*
X9990654Y-16257046D01*
X9990654Y-16257046D02*
X10000178Y-16247522D01*
X10076368Y-16342760D02*
X10076368Y-16476094D01*
X10076368Y-16361808D02*
X10085892Y-16352284D01*
X10085892Y-16352284D02*
X10104940Y-16342760D01*
X10104940Y-16342760D02*
X10133511Y-16342760D01*
X10133511Y-16342760D02*
X10152559Y-16352284D01*
X10152559Y-16352284D02*
X10162083Y-16371332D01*
X10162083Y-16371332D02*
X10162083Y-16476094D01*
X10285892Y-16476094D02*
X10266844Y-16466570D01*
X10266844Y-16466570D02*
X10257321Y-16457046D01*
X10257321Y-16457046D02*
X10247797Y-16437998D01*
X10247797Y-16437998D02*
X10247797Y-16380856D01*
X10247797Y-16380856D02*
X10257321Y-16361808D01*
X10257321Y-16361808D02*
X10266844Y-16352284D01*
X10266844Y-16352284D02*
X10285892Y-16342760D01*
X10285892Y-16342760D02*
X10314464Y-16342760D01*
X10314464Y-16342760D02*
X10333511Y-16352284D01*
X10333511Y-16352284D02*
X10343035Y-16361808D01*
X10343035Y-16361808D02*
X10352559Y-16380856D01*
X10352559Y-16380856D02*
X10352559Y-16437998D01*
X10352559Y-16437998D02*
X10343035Y-16457046D01*
X10343035Y-16457046D02*
X10333511Y-16466570D01*
X10333511Y-16466570D02*
X10314464Y-16476094D01*
X10314464Y-16476094D02*
X10285892Y-16476094D01*
X10409702Y-16342760D02*
X10485892Y-16342760D01*
X10438273Y-16276094D02*
X10438273Y-16447522D01*
X10438273Y-16447522D02*
X10447797Y-16466570D01*
X10447797Y-16466570D02*
X10466844Y-16476094D01*
X10466844Y-16476094D02*
X10485892Y-16476094D01*
X10704940Y-16342760D02*
X10704940Y-16542760D01*
X10704940Y-16352284D02*
X10723987Y-16342760D01*
X10723987Y-16342760D02*
X10762083Y-16342760D01*
X10762083Y-16342760D02*
X10781130Y-16352284D01*
X10781130Y-16352284D02*
X10790654Y-16361808D01*
X10790654Y-16361808D02*
X10800178Y-16380856D01*
X10800178Y-16380856D02*
X10800178Y-16437998D01*
X10800178Y-16437998D02*
X10790654Y-16457046D01*
X10790654Y-16457046D02*
X10781130Y-16466570D01*
X10781130Y-16466570D02*
X10762083Y-16476094D01*
X10762083Y-16476094D02*
X10723987Y-16476094D01*
X10723987Y-16476094D02*
X10704940Y-16466570D01*
X10914464Y-16476094D02*
X10895416Y-16466570D01*
X10895416Y-16466570D02*
X10885892Y-16447522D01*
X10885892Y-16447522D02*
X10885892Y-16276094D01*
X11076368Y-16476094D02*
X11076368Y-16371332D01*
X11076368Y-16371332D02*
X11066845Y-16352284D01*
X11066845Y-16352284D02*
X11047797Y-16342760D01*
X11047797Y-16342760D02*
X11009702Y-16342760D01*
X11009702Y-16342760D02*
X10990654Y-16352284D01*
X11076368Y-16466570D02*
X11057321Y-16476094D01*
X11057321Y-16476094D02*
X11009702Y-16476094D01*
X11009702Y-16476094D02*
X10990654Y-16466570D01*
X10990654Y-16466570D02*
X10981130Y-16447522D01*
X10981130Y-16447522D02*
X10981130Y-16428475D01*
X10981130Y-16428475D02*
X10990654Y-16409427D01*
X10990654Y-16409427D02*
X11009702Y-16399903D01*
X11009702Y-16399903D02*
X11057321Y-16399903D01*
X11057321Y-16399903D02*
X11076368Y-16390379D01*
X11143035Y-16342760D02*
X11219225Y-16342760D01*
X11171606Y-16276094D02*
X11171606Y-16447522D01*
X11171606Y-16447522D02*
X11181130Y-16466570D01*
X11181130Y-16466570D02*
X11200178Y-16476094D01*
X11200178Y-16476094D02*
X11219225Y-16476094D01*
X11362083Y-16466570D02*
X11343035Y-16476094D01*
X11343035Y-16476094D02*
X11304940Y-16476094D01*
X11304940Y-16476094D02*
X11285892Y-16466570D01*
X11285892Y-16466570D02*
X11276368Y-16447522D01*
X11276368Y-16447522D02*
X11276368Y-16371332D01*
X11276368Y-16371332D02*
X11285892Y-16352284D01*
X11285892Y-16352284D02*
X11304940Y-16342760D01*
X11304940Y-16342760D02*
X11343035Y-16342760D01*
X11343035Y-16342760D02*
X11362083Y-16352284D01*
X11362083Y-16352284D02*
X11371606Y-16371332D01*
X11371606Y-16371332D02*
X11371606Y-16390379D01*
X11371606Y-16390379D02*
X11276368Y-16409427D01*
X11543035Y-16476094D02*
X11543035Y-16276094D01*
X11543035Y-16466570D02*
X11523987Y-16476094D01*
X11523987Y-16476094D02*
X11485892Y-16476094D01*
X11485892Y-16476094D02*
X11466844Y-16466570D01*
X11466844Y-16466570D02*
X11457321Y-16457046D01*
X11457321Y-16457046D02*
X11447797Y-16437998D01*
X11447797Y-16437998D02*
X11447797Y-16380856D01*
X11447797Y-16380856D02*
X11457321Y-16361808D01*
X11457321Y-16361808D02*
X11466844Y-16352284D01*
X11466844Y-16352284D02*
X11485892Y-16342760D01*
X11485892Y-16342760D02*
X11523987Y-16342760D01*
X11523987Y-16342760D02*
X11543035Y-16352284D01*
X11619225Y-16552284D02*
X11628749Y-16542760D01*
X11628749Y-16542760D02*
X11647797Y-16514189D01*
X11647797Y-16514189D02*
X11657321Y-16495141D01*
X11657321Y-16495141D02*
X11666844Y-16466570D01*
X11666844Y-16466570D02*
X11676368Y-16418951D01*
X11676368Y-16418951D02*
X11676368Y-16380856D01*
X11676368Y-16380856D02*
X11666844Y-16333237D01*
X11666844Y-16333237D02*
X11657321Y-16304665D01*
X11657321Y-16304665D02*
X11647797Y-16285618D01*
X11647797Y-16285618D02*
X11628749Y-16257046D01*
X11628749Y-16257046D02*
X11619225Y-16247522D01*
M02*
