M48
; DRILL file {KiCad 8.0.4} date 2024-10-12T12:31:08+1100
; FORMAT={2:4/ absolute / inch / suppress trailing zeros}
; #@! TF.CreationDate,2024-10-12T12:31:08+11:00
; #@! TF.GenerationSoftware,Kicad,Pcbnew,8.0.4
; #@! TF.FileFunction,Plated,1,4,PTH
FMAT,2
INCH,LZ
; #@! TA.AperFunction,Plated,PTH,ComponentDrill
T1C0.0130
; #@! TA.AperFunction,Plated,PTH,ViaDrill
T2C0.0130
; #@! TA.AperFunction,Plated,PTH,ComponentDrill
T3C0.0130
; #@! TA.AperFunction,Plated,PTH,ComponentDrill
T4C0.0138
; #@! TA.AperFunction,Plated,PTH,ComponentDrill
T5C0.0150
; #@! TA.AperFunction,Plated,PTH,ComponentDrill
T6C0.0280
; #@! TA.AperFunction,Plated,PTH,ComponentDrill
T7C0.0315
; #@! TA.AperFunction,Plated,PTH,ComponentDrill
T8C0.0390
; #@! TA.AperFunction,Plated,PTH,ComponentDrill
T9C0.0400
; #@! TA.AperFunction,Plated,PTH,ComponentDrill
T10C0.0512
; #@! TA.AperFunction,Plated,PTH,ComponentDrill
T11C0.1260
%
G90
G05
T1
X062147Y-037385
X062344Y-037089
T2
X020221Y-039752
X020321Y-044912
X020321Y-046712
X020321Y-048502
X020321Y-050302
X020321Y-052102
X020631Y-039382
X020721Y-045912
X022239Y-058762
X022273Y-046951
X022273Y-049313
X022273Y-051675
X022273Y-054038
X022321Y-036102
X022321Y-041202
X02275Y-054884
X022765Y-055612
X02285Y-052644
X02321Y-054884
X023531Y-049735
X02383Y-054464
X023911Y-048865
X023946Y-045376
X023946Y-060337
X02409Y-05571
X02409Y-056399
X02425Y-053064
X02425Y-054464
X0243Y-057404
X02449Y-058594
X0246Y-052364
X024691Y-049745
X024711Y-049245
X02478Y-057404
X02482Y-055654
X02488Y-054354
X02516Y-052294
X02523Y-052714
X0253Y-054744
X02557Y-046854
X02572Y-056704
X02572Y-057804
X02593Y-049044
X02596Y-047694
X02607Y-052504
X02614Y-054394
X02614Y-056704
X026249Y-051143
X026308Y-045376
X026308Y-060337
X02633Y-057794
X02649Y-054604
X02649Y-058454
X02649Y-059504
X02656Y-056704
X026601Y-048295
X02663Y-055444
X02663Y-056284
X02677Y-053414
X027128Y-052846
X027251Y-049795
X027259Y-050794
X027351Y-046845
X027351Y-047295
X027351Y-047745
X027401Y-040512
X027751Y-049795
X02782Y-054814
X027918Y-056298
X027989Y-051234
X02803Y-052434
X0281Y-053694
X028201Y-039732
X02824Y-055234
X028301Y-048295
X028491Y-034912
X02867Y-045376
X02868Y-060337
X028831Y-033792
X02897Y-048954
X02898Y-047594
X02937Y-049744
X029401Y-036292
X029511Y-033442
X029911Y-040912
X02999Y-059434
X02999Y-056144
X030214Y-052826
X03032Y-049924
X030349Y-054574
X030519Y-055034
X030564Y-053826
X030664Y-057206
X030988Y-050569
X031033Y-045376
X031033Y-060337
X031314Y-057806
X031464Y-056706
X03168Y-049754
X031749Y-04277
X031864Y-057806
X031954Y-051936
X031954Y-052466
X032004Y-053476
X032249Y-04277
X032254Y-056726
X032354Y-052466
X032364Y-057806
X03245Y-049324
X032607Y-045868
X03271Y-058374
X032754Y-052466
X032851Y-037247
X032934Y-037815
X032979Y-04277
X033051Y-052112
X033084Y-036465
X033395Y-060337
X033404Y-051826
X033404Y-052976
X033426Y-038802
X033481Y-042772
X033559Y-04019
X033654Y-053976
X033839Y-054374
X033854Y-051976
X033854Y-053076
X0339Y-058374
X033934Y-054726
X033959Y-04019
X034026Y-037272
X034074Y-057076
X034114Y-038185
X034234Y-035415
X034281Y-036382
X034299Y-053454
X034304Y-052276
X034359Y-04019
X034364Y-035925
X034564Y-058976
X034576Y-045967
X034649Y-057214
X034759Y-04019
X034811Y-035162
X034824Y-034675
X034854Y-054426
X034859Y-056224
X034867Y-035592
X034999Y-04056
X035139Y-053974
X035159Y-03909
X035159Y-04019
X035304Y-056726
X035499Y-04056
X035544Y-035465
X035614Y-048389
X035651Y-057662
X035757Y-060337
X035934Y-039115
X035964Y-047779
X035964Y-049929
X035999Y-04019
X036011Y-034682
X03604Y-054344
X036229Y-04056
X036359Y-04015
X036409Y-03909
X036559Y-049994
X036609Y-058783
X036643Y-045868
X036654Y-048209
X036704Y-049479
X036729Y-04056
X036774Y-048569
X036839Y-050344
X03713Y-055924
X037131Y-040242
X03714Y-056424
X037159Y-0391
X03732Y-057534
X037324Y-050489
X037324Y-051679
X037384Y-052679
X037591Y-040302
X03766Y-058404
X037664Y-038725
X037749Y-053374
X037889Y-0399
X037929Y-046894
X037929Y-047284
X037961Y-037472
X03797Y-055294
X038119Y-045376
X038119Y-060337
X038369Y-059383
X03837Y-054134
X038419Y-046054
X038454Y-052459
X038524Y-050499
X038524Y-051679
X038594Y-052899
X038704Y-054983
X038874Y-046069
X038984Y-047119
X039104Y-037085
X039104Y-037565
X039374Y-046069
X03941Y-057614
X039624Y-047419
X039664Y-052679
X039694Y-043998
X039759Y-055203
X039974Y-048319
X039974Y-049979
X040034Y-048859
X040074Y-046469
X040201Y-049602
X040324Y-048489
X040374Y-050779
X040481Y-045376
X040481Y-060337
X040499Y-038684
X04053Y-059144
X041059Y-046654
X041174Y-048079
X041184Y-048859
X041299Y-039084
X041474Y-048479
X041662Y-050101
X041699Y-036464
X041699Y-036944
X041791Y-040462
X041831Y-041062
X042041Y-043292
X042099Y-035484
X042155Y-046951
X042155Y-051675
X042155Y-054038
X042155Y-0564
X042155Y-058762
X042647Y-048526
X042651Y-057352
X042669Y-056524
X042681Y-059122
X042741Y-057842
X042899Y-042884
X042959Y-037864
X042959Y-061134
X043051Y-057072
X043061Y-040882
X043269Y-059108
X043341Y-055612
X043641Y-039892
X043641Y-041042
X043651Y-040662
X043661Y-040282
X043684Y-058368
X043839Y-059904
X043929Y-036574
X044141Y-055202
X044251Y-057162
X044299Y-038424
X044301Y-041602
X044501Y-056432
X044551Y-055342
X044579Y-057864
X044791Y-043792
X044831Y-042862
X045084Y-058458
X045241Y-051272
X045309Y-041594
X045334Y-055758
X045391Y-051922
X045541Y-052452
X045661Y-051662
X045681Y-037102
X045701Y-036712
X045781Y-053712
X045801Y-052012
X046201Y-037342
X046271Y-037912
X046291Y-036762
X046369Y-059904
X046431Y-046122
X046491Y-037082
X046509Y-056014
X046511Y-044192
X046534Y-058408
X046541Y-058752
X046571Y-046472
X046581Y-052452
X046584Y-059158
X046631Y-041622
X046681Y-037412
X046801Y-047002
X046891Y-055192
X047031Y-053752
X047031Y-056482
X047099Y-035184
X047331Y-046952
X047391Y-052102
X047401Y-060252
X047421Y-055642
X047449Y-034374
X047484Y-058608
X047651Y-044282
X047921Y-054892
X047981Y-058622
X048041Y-052552
X048131Y-050802
X048211Y-056122
X048391Y-055642
X048518Y-046959
X04856Y-049745
X048651Y-036377
X048671Y-052562
X048681Y-057062
X048822Y-044083
X048891Y-057442
X048991Y-049982
X049261Y-040222
X049261Y-056502
X049331Y-044448
X049349Y-039284
X049399Y-039784
X049549Y-036984
X049891Y-056522
X049901Y-043792
X050001Y-051702
X050011Y-041712
X050011Y-042222
X050011Y-042722
X050021Y-043212
X050179Y-045297
X050181Y-051422
X050251Y-054407
X050461Y-053072
X050486Y-054682
X050531Y-054112
X050589Y-049424
X050771Y-036882
X051241Y-050102
X051311Y-052227
X051519Y-048334
X051581Y-050132
X051711Y-054582
X051781Y-043352
X051811Y-053372
X051841Y-041938
X051931Y-051082
X051951Y-047092
X052009Y-048384
X052138Y-043423
X052145Y-05299
X052271Y-054332
X052321Y-038162
X052364Y-04635
X052511Y-050302
X052621Y-051732
X052691Y-049022
X052721Y-038592
X052721Y-046722
X052721Y-048622
X052731Y-045652
X052767Y-042751
X052851Y-044932
X052881Y-041182
X052881Y-053612
X052921Y-046132
X053041Y-052182
X053114Y-05403
X053161Y-045192
X053261Y-046092
X053311Y-041172
X053341Y-044242
X053601Y-052782
X053764Y-043564
X053786Y-042157
X053851Y-041442
X053851Y-053012
X054101Y-048682
X054121Y-041122
X054121Y-047932
X054341Y-048972
X054563Y-041691
X054661Y-045122
X05467Y-044498
X054821Y-045482
X055171Y-045552
X055235Y-04215
X055291Y-046112
X055341Y-054221
X055371Y-055822
X055479Y-056234
X05573Y-053888
X055731Y-049872
X055781Y-050592
X056111Y-050242
X056141Y-053452
X056311Y-053742
X056331Y-044943
X056361Y-049762
X056374Y-053146
X056391Y-048752
X056399Y-051474
X056401Y-049122
X056411Y-048052
X056441Y-048422
X056579Y-054737
X056679Y-03899
X056681Y-039402
X056709Y-056224
X056769Y-055714
X056897Y-045509
X057091Y-040892
X057109Y-043671
X057231Y-054372
X057381Y-054022
X057471Y-044272
X057481Y-050272
X057641Y-046242
X057681Y-040162
X057771Y-054062
X057786Y-041872
X057791Y-048802
X057922Y-03892
X057958Y-042822
X057958Y-051661
X058119Y-042463
X058191Y-04966
X058205Y-048571
X058222Y-04486
X058311Y-043176
X058431Y-053702
X058473Y-04266
X058541Y-051122
X058643Y-048302
X05875Y-048649
X058806Y-052509
X058867Y-041164
X058948Y-045509
X058955Y-04751
X059061Y-043982
X059103Y-039559
X059261Y-04077
X059336Y-050282
X059344Y-037089
X059372Y-051944
X059499Y-054924
X059769Y-055224
X059902Y-049716
X059966Y-046602
X060071Y-052822
X060185Y-05113
X060389Y-054254
X060499Y-047864
X060594Y-037339
X060751Y-045969
X060751Y-050565
X060927Y-044236
X060963Y-046605
X060998Y-045085
X061044Y-036639
X061194Y-037089
X061281Y-052162
X061584Y-040652
X061589Y-051924
X061879Y-054994
X062249Y-051074
X062711Y-042616
X062725Y-04079
X062744Y-034439
X063194Y-035589
X063194Y-038589
X063198Y-040357
X063198Y-042994
X063534Y-036519
X06359Y-057554
X063644Y-037689
X06375Y-055834
X063824Y-038089
X06393Y-058434
X06393Y-059044
X064294Y-038089
X064494Y-036089
X064504Y-035589
X064849Y-03535
X064923Y-036763
T3
X062147Y-036794
X06254Y-036794
X06254Y-037385
T4
X031631Y-054693
X031631Y-055126
X031631Y-055559
X032064Y-054693
X032064Y-055126
X032064Y-055559
X032497Y-054693
X032497Y-055126
X032497Y-055559
X045524Y-056898
X045524Y-057418
X045784Y-057158
X046044Y-056898
X046044Y-057418
T5
X01993Y-033959
X01993Y-060337
X020186Y-033349
X020186Y-034569
X020186Y-059727
X020186Y-060947
X020214Y-054628
X020214Y-055022
X020214Y-055416
X020214Y-057384
X020214Y-057778
X020214Y-058171
X020607Y-054628
X020607Y-055022
X020607Y-055416
X020607Y-057384
X020607Y-057778
X020607Y-058171
X020796Y-033093
X020796Y-034825
X020796Y-059471
X020796Y-061203
X021001Y-054628
X021001Y-055022
X021001Y-055416
X021001Y-057384
X021001Y-057778
X021001Y-058171
X021407Y-033349
X021407Y-034569
X021407Y-059727
X021407Y-060947
X021662Y-033959
X021662Y-060337
X03546Y-036641
X03546Y-03729
X03546Y-03794
X036109Y-036641
X036109Y-03729
X036109Y-03794
X036759Y-036641
X036759Y-03729
X036759Y-03794
X037784Y-048288
X037784Y-048879
X037784Y-04947
X038374Y-048288
X038374Y-048879
X038374Y-04947
X038965Y-048288
X038965Y-048879
X038965Y-04947
X04434Y-033959
X044596Y-033349
X044596Y-034569
X045206Y-033093
X045206Y-034825
X045816Y-033349
X045816Y-034569
X046072Y-033959
X046308Y-049707
X046564Y-049097
X046564Y-050317
X047174Y-048841
X047174Y-050573
X047784Y-049097
X047784Y-050317
X04804Y-049707
X064025Y-033959
X064025Y-060337
X064281Y-033349
X064281Y-034569
X064281Y-059727
X064281Y-060947
X064686Y-048329
X064686Y-048723
X064686Y-049116
X064686Y-051085
X064686Y-051479
X064686Y-051872
X064686Y-055416
X064686Y-055809
X064686Y-056203
X064686Y-058171
X064686Y-058565
X064686Y-058959
X064891Y-033093
X064891Y-034825
X064891Y-059471
X064891Y-061203
X06508Y-048329
X06508Y-048723
X06508Y-049116
X06508Y-051085
X06508Y-051479
X06508Y-051872
X06508Y-055416
X06508Y-055809
X06508Y-056203
X06508Y-058171
X06508Y-058565
X06508Y-058959
X065473Y-048329
X065473Y-048723
X065473Y-049116
X065473Y-051085
X065473Y-051479
X065473Y-051872
X065473Y-055416
X065473Y-055809
X065473Y-056203
X065473Y-058171
X065473Y-058565
X065473Y-058959
X065501Y-033349
X065501Y-034569
X065501Y-059727
X065501Y-060947
X065757Y-033959
X065757Y-060337
T6
X055309Y-03808
X055309Y-03858
X055309Y-03908
X055309Y-03958
X055309Y-04008
X055809Y-03808
X055809Y-03858
X055809Y-03908
X055809Y-03958
X055809Y-04008
T8
X020284Y-035986
X020284Y-037758
X020284Y-041105
X020284Y-042876
T9
X028721Y-042412
X028721Y-043412
X029721Y-034412
X029721Y-035412
X030721Y-034412
X030721Y-035412
X030721Y-043412
X030721Y-044412
X031721Y-034412
X031721Y-035412
X031721Y-043412
X031721Y-044412
X032721Y-043412
X032721Y-044412
X033721Y-043412
X033721Y-044412
X034721Y-043412
X034721Y-044412
X035721Y-043412
X035721Y-044412
X036721Y-043412
X036721Y-044412
X037721Y-043412
X037721Y-044412
X043721Y-044412
X043721Y-045412
X043721Y-046412
X043721Y-047412
X043721Y-048412
X043721Y-049412
X043721Y-050412
X043721Y-051412
X043721Y-052412
X043721Y-053412
X043721Y-054412
X044721Y-044412
X044721Y-045412
X044721Y-046412
X044721Y-047412
X044721Y-048412
X044721Y-049412
X044721Y-050412
X044721Y-051412
X044721Y-052412
X044721Y-053412
X044721Y-054412
X046721Y-045412
X047721Y-045412
X049721Y-034412
X049721Y-035412
X049721Y-055412
X049721Y-057412
X049721Y-058412
X050721Y-034412
X050721Y-035412
X050721Y-055412
X050721Y-057412
X050721Y-058412
X051721Y-034412
X051721Y-035412
X051721Y-055412
X051721Y-057412
X051721Y-058412
X052721Y-034412
X052721Y-035412
X052721Y-037412
X052721Y-039412
X052721Y-040412
X052721Y-055412
X052721Y-057412
X052721Y-058412
X053721Y-034412
X053721Y-035412
X053721Y-037412
X053721Y-055412
X053721Y-057412
X053721Y-058412
X054721Y-034412
X054721Y-035412
X054721Y-055412
X054721Y-057412
X054721Y-058412
X055721Y-034412
X055721Y-035412
X055721Y-057412
X055721Y-058412
X056721Y-034412
X056721Y-035412
X056721Y-057412
X056721Y-058412
X057721Y-034412
X057721Y-035412
X057721Y-037412
X057721Y-057412
X057721Y-058412
X058721Y-034412
X058721Y-035412
X058721Y-037412
X058721Y-057412
X058721Y-058412
X059721Y-057412
X059721Y-058412
X060721Y-057412
X060721Y-058412
X061721Y-057412
X061721Y-058412
X062721Y-044412
X062721Y-045412
X062721Y-046412
X062721Y-047412
X062721Y-048412
X062721Y-049412
X062721Y-050412
X062721Y-051412
X062721Y-052412
X062721Y-053412
X062721Y-054412
X063721Y-044412
X063721Y-045412
X063721Y-046412
X063721Y-047412
X063721Y-048412
X063721Y-049412
X063721Y-050412
X063721Y-051412
X063721Y-052412
X063721Y-053412
X063721Y-054412
X065721Y-044412
X065721Y-045412
T10
X021265Y-035492
X021265Y-038252
X021265Y-04061
X021265Y-04337
T11
X020796Y-033959
X020796Y-060337
X045206Y-033959
X047174Y-049707
X064891Y-033959
X064891Y-060337
T7
G00X063944Y-039973
M15
G01X064259Y-039973
M16
G05
G00X063944Y-043378
M15
G01X064259Y-043378
M16
G05
G00X065637Y-039973
M15
G01X065873Y-039973
M16
G05
G00X065637Y-043378
M15
G01X065873Y-043378
M16
G05
M30
