G04 #@! TF.GenerationSoftware,KiCad,Pcbnew,8.0.4*
G04 #@! TF.CreationDate,2024-10-12T12:27:40+11:00*
G04 #@! TF.ProjectId,hackrf-one,6861636b-7266-42d6-9f6e-652e6b696361,rev?*
G04 #@! TF.SameCoordinates,Original*
G04 #@! TF.FileFunction,Legend,Top*
G04 #@! TF.FilePolarity,Positive*
%FSLAX45Y45*%
G04 Gerber Fmt 4.5, Leading zero omitted, Abs format (unit mm)*
G04 Created by KiCad (PCBNEW 8.0.4) date 2024-10-12 12:27:40*
%MOMM*%
%LPD*%
G01*
G04 APERTURE LIST*
%ADD10C,0.203200*%
%ADD11C,0.304800*%
%ADD12C,0.190500*%
%ADD13C,0.152400*%
%ADD14C,0.609600*%
%ADD15C,0.381000*%
%ADD16C,0.119380*%
%ADD17C,0.101600*%
%ADD18C,0.120000*%
%ADD19C,0.177800*%
%ADD20C,0.100000*%
%ADD21C,0.254000*%
%ADD22R,1.524000X1.524000*%
%ADD23C,1.524000*%
G04 APERTURE END LIST*
D10*
X11422260Y-14745560D02*
G75*
G02*
X11382260Y-14745560I-20000J0D01*
G01*
X11382260Y-14745560D02*
G75*
G02*
X11422260Y-14745560I20000J0D01*
G01*
X13875880Y-9683500D02*
X13723480Y-9683500D01*
X8442260Y-13725560D02*
G75*
G02*
X8402260Y-13725560I-20000J0D01*
G01*
X8402260Y-13725560D02*
G75*
G02*
X8442260Y-13725560I20000J0D01*
G01*
X8822260Y-9845560D02*
G75*
G02*
X8782260Y-9845560I-20000J0D01*
G01*
X8782260Y-9845560D02*
G75*
G02*
X8822260Y-9845560I20000J0D01*
G01*
X9442260Y-12745560D02*
G75*
G02*
X9402260Y-12745560I-20000J0D01*
G01*
X9402260Y-12745560D02*
G75*
G02*
X9442260Y-12745560I20000J0D01*
G01*
X13875880Y-9683500D02*
X13825080Y-9734300D01*
X13875880Y-9683500D02*
X13825080Y-9632700D01*
D11*
X12341635Y-15427769D02*
X12341635Y-15249969D01*
X12396064Y-15427769D02*
X12396064Y-15334635D01*
X12396064Y-15334635D02*
X12390016Y-15317702D01*
X12390016Y-15317702D02*
X12377921Y-15309235D01*
X12377921Y-15309235D02*
X12359778Y-15309235D01*
X12359778Y-15309235D02*
X12347683Y-15317702D01*
X12347683Y-15317702D02*
X12341635Y-15326169D01*
X12438397Y-15309235D02*
X12486778Y-15309235D01*
X12456540Y-15249969D02*
X12456540Y-15402369D01*
X12456540Y-15402369D02*
X12462588Y-15419302D01*
X12462588Y-15419302D02*
X12474683Y-15427769D01*
X12474683Y-15427769D02*
X12486778Y-15427769D01*
X12510969Y-15309235D02*
X12559350Y-15309235D01*
X12529111Y-15249969D02*
X12529111Y-15402369D01*
X12529111Y-15402369D02*
X12535159Y-15419302D01*
X12535159Y-15419302D02*
X12547254Y-15427769D01*
X12547254Y-15427769D02*
X12559350Y-15427769D01*
X12601683Y-15309235D02*
X12601683Y-15487035D01*
X12601683Y-15317702D02*
X12613778Y-15309235D01*
X12613778Y-15309235D02*
X12637969Y-15309235D01*
X12637969Y-15309235D02*
X12650064Y-15317702D01*
X12650064Y-15317702D02*
X12656111Y-15326169D01*
X12656111Y-15326169D02*
X12662159Y-15343102D01*
X12662159Y-15343102D02*
X12662159Y-15393902D01*
X12662159Y-15393902D02*
X12656111Y-15410835D01*
X12656111Y-15410835D02*
X12650064Y-15419302D01*
X12650064Y-15419302D02*
X12637969Y-15427769D01*
X12637969Y-15427769D02*
X12613778Y-15427769D01*
X12613778Y-15427769D02*
X12601683Y-15419302D01*
X12716588Y-15410835D02*
X12722635Y-15419302D01*
X12722635Y-15419302D02*
X12716588Y-15427769D01*
X12716588Y-15427769D02*
X12710540Y-15419302D01*
X12710540Y-15419302D02*
X12716588Y-15410835D01*
X12716588Y-15410835D02*
X12716588Y-15427769D01*
X12716588Y-15317702D02*
X12722635Y-15326169D01*
X12722635Y-15326169D02*
X12716588Y-15334635D01*
X12716588Y-15334635D02*
X12710540Y-15326169D01*
X12710540Y-15326169D02*
X12716588Y-15317702D01*
X12716588Y-15317702D02*
X12716588Y-15334635D01*
X12867778Y-15241502D02*
X12758921Y-15470102D01*
X13000826Y-15241502D02*
X12891969Y-15470102D01*
X13097588Y-15309235D02*
X13097588Y-15453169D01*
X13097588Y-15453169D02*
X13091540Y-15470102D01*
X13091540Y-15470102D02*
X13085492Y-15478569D01*
X13085492Y-15478569D02*
X13073397Y-15487035D01*
X13073397Y-15487035D02*
X13055254Y-15487035D01*
X13055254Y-15487035D02*
X13043159Y-15478569D01*
X13097588Y-15419302D02*
X13085492Y-15427769D01*
X13085492Y-15427769D02*
X13061302Y-15427769D01*
X13061302Y-15427769D02*
X13049207Y-15419302D01*
X13049207Y-15419302D02*
X13043159Y-15410835D01*
X13043159Y-15410835D02*
X13037111Y-15393902D01*
X13037111Y-15393902D02*
X13037111Y-15343102D01*
X13037111Y-15343102D02*
X13043159Y-15326169D01*
X13043159Y-15326169D02*
X13049207Y-15317702D01*
X13049207Y-15317702D02*
X13061302Y-15309235D01*
X13061302Y-15309235D02*
X13085492Y-15309235D01*
X13085492Y-15309235D02*
X13097588Y-15317702D01*
X13158064Y-15427769D02*
X13158064Y-15309235D01*
X13158064Y-15343102D02*
X13164112Y-15326169D01*
X13164112Y-15326169D02*
X13170159Y-15317702D01*
X13170159Y-15317702D02*
X13182254Y-15309235D01*
X13182254Y-15309235D02*
X13194350Y-15309235D01*
X13285064Y-15419302D02*
X13272969Y-15427769D01*
X13272969Y-15427769D02*
X13248778Y-15427769D01*
X13248778Y-15427769D02*
X13236683Y-15419302D01*
X13236683Y-15419302D02*
X13230635Y-15402369D01*
X13230635Y-15402369D02*
X13230635Y-15334635D01*
X13230635Y-15334635D02*
X13236683Y-15317702D01*
X13236683Y-15317702D02*
X13248778Y-15309235D01*
X13248778Y-15309235D02*
X13272969Y-15309235D01*
X13272969Y-15309235D02*
X13285064Y-15317702D01*
X13285064Y-15317702D02*
X13291111Y-15334635D01*
X13291111Y-15334635D02*
X13291111Y-15351569D01*
X13291111Y-15351569D02*
X13230635Y-15368502D01*
X13399969Y-15427769D02*
X13399969Y-15334635D01*
X13399969Y-15334635D02*
X13393921Y-15317702D01*
X13393921Y-15317702D02*
X13381826Y-15309235D01*
X13381826Y-15309235D02*
X13357635Y-15309235D01*
X13357635Y-15309235D02*
X13345540Y-15317702D01*
X13399969Y-15419302D02*
X13387873Y-15427769D01*
X13387873Y-15427769D02*
X13357635Y-15427769D01*
X13357635Y-15427769D02*
X13345540Y-15419302D01*
X13345540Y-15419302D02*
X13339492Y-15402369D01*
X13339492Y-15402369D02*
X13339492Y-15385435D01*
X13339492Y-15385435D02*
X13345540Y-15368502D01*
X13345540Y-15368502D02*
X13357635Y-15360035D01*
X13357635Y-15360035D02*
X13387873Y-15360035D01*
X13387873Y-15360035D02*
X13399969Y-15351569D01*
X13442302Y-15309235D02*
X13490683Y-15309235D01*
X13460445Y-15249969D02*
X13460445Y-15402369D01*
X13460445Y-15402369D02*
X13466492Y-15419302D01*
X13466492Y-15419302D02*
X13478588Y-15427769D01*
X13478588Y-15427769D02*
X13490683Y-15427769D01*
X13526969Y-15419302D02*
X13539064Y-15427769D01*
X13539064Y-15427769D02*
X13563254Y-15427769D01*
X13563254Y-15427769D02*
X13575350Y-15419302D01*
X13575350Y-15419302D02*
X13581397Y-15402369D01*
X13581397Y-15402369D02*
X13581397Y-15393902D01*
X13581397Y-15393902D02*
X13575350Y-15376969D01*
X13575350Y-15376969D02*
X13563254Y-15368502D01*
X13563254Y-15368502D02*
X13545111Y-15368502D01*
X13545111Y-15368502D02*
X13533016Y-15360035D01*
X13533016Y-15360035D02*
X13526969Y-15343102D01*
X13526969Y-15343102D02*
X13526969Y-15334635D01*
X13526969Y-15334635D02*
X13533016Y-15317702D01*
X13533016Y-15317702D02*
X13545111Y-15309235D01*
X13545111Y-15309235D02*
X13563254Y-15309235D01*
X13563254Y-15309235D02*
X13575350Y-15317702D01*
X13690254Y-15419302D02*
X13678159Y-15427769D01*
X13678159Y-15427769D02*
X13653969Y-15427769D01*
X13653969Y-15427769D02*
X13641873Y-15419302D01*
X13641873Y-15419302D02*
X13635826Y-15410835D01*
X13635826Y-15410835D02*
X13629778Y-15393902D01*
X13629778Y-15393902D02*
X13629778Y-15343102D01*
X13629778Y-15343102D02*
X13635826Y-15326169D01*
X13635826Y-15326169D02*
X13641873Y-15317702D01*
X13641873Y-15317702D02*
X13653969Y-15309235D01*
X13653969Y-15309235D02*
X13678159Y-15309235D01*
X13678159Y-15309235D02*
X13690254Y-15317702D01*
X13762826Y-15427769D02*
X13750730Y-15419302D01*
X13750730Y-15419302D02*
X13744683Y-15410835D01*
X13744683Y-15410835D02*
X13738635Y-15393902D01*
X13738635Y-15393902D02*
X13738635Y-15343102D01*
X13738635Y-15343102D02*
X13744683Y-15326169D01*
X13744683Y-15326169D02*
X13750730Y-15317702D01*
X13750730Y-15317702D02*
X13762826Y-15309235D01*
X13762826Y-15309235D02*
X13780969Y-15309235D01*
X13780969Y-15309235D02*
X13793064Y-15317702D01*
X13793064Y-15317702D02*
X13799111Y-15326169D01*
X13799111Y-15326169D02*
X13805159Y-15343102D01*
X13805159Y-15343102D02*
X13805159Y-15393902D01*
X13805159Y-15393902D02*
X13799111Y-15410835D01*
X13799111Y-15410835D02*
X13793064Y-15419302D01*
X13793064Y-15419302D02*
X13780969Y-15427769D01*
X13780969Y-15427769D02*
X13762826Y-15427769D01*
X13841445Y-15309235D02*
X13889826Y-15309235D01*
X13859588Y-15249969D02*
X13859588Y-15402369D01*
X13859588Y-15402369D02*
X13865635Y-15419302D01*
X13865635Y-15419302D02*
X13877730Y-15427769D01*
X13877730Y-15427769D02*
X13889826Y-15427769D01*
X13914016Y-15309235D02*
X13962397Y-15309235D01*
X13932159Y-15249969D02*
X13932159Y-15402369D01*
X13932159Y-15402369D02*
X13938207Y-15419302D01*
X13938207Y-15419302D02*
X13950302Y-15427769D01*
X13950302Y-15427769D02*
X13962397Y-15427769D01*
X14059159Y-15309235D02*
X14059159Y-15453169D01*
X14059159Y-15453169D02*
X14053111Y-15470102D01*
X14053111Y-15470102D02*
X14047064Y-15478569D01*
X14047064Y-15478569D02*
X14034968Y-15487035D01*
X14034968Y-15487035D02*
X14016826Y-15487035D01*
X14016826Y-15487035D02*
X14004730Y-15478569D01*
X14059159Y-15419302D02*
X14047064Y-15427769D01*
X14047064Y-15427769D02*
X14022873Y-15427769D01*
X14022873Y-15427769D02*
X14010778Y-15419302D01*
X14010778Y-15419302D02*
X14004730Y-15410835D01*
X14004730Y-15410835D02*
X13998683Y-15393902D01*
X13998683Y-15393902D02*
X13998683Y-15343102D01*
X13998683Y-15343102D02*
X14004730Y-15326169D01*
X14004730Y-15326169D02*
X14010778Y-15317702D01*
X14010778Y-15317702D02*
X14022873Y-15309235D01*
X14022873Y-15309235D02*
X14047064Y-15309235D01*
X14047064Y-15309235D02*
X14059159Y-15317702D01*
X14174064Y-15427769D02*
X14174064Y-15334635D01*
X14174064Y-15334635D02*
X14168016Y-15317702D01*
X14168016Y-15317702D02*
X14155921Y-15309235D01*
X14155921Y-15309235D02*
X14131730Y-15309235D01*
X14131730Y-15309235D02*
X14119635Y-15317702D01*
X14174064Y-15419302D02*
X14161969Y-15427769D01*
X14161969Y-15427769D02*
X14131730Y-15427769D01*
X14131730Y-15427769D02*
X14119635Y-15419302D01*
X14119635Y-15419302D02*
X14113588Y-15402369D01*
X14113588Y-15402369D02*
X14113588Y-15385435D01*
X14113588Y-15385435D02*
X14119635Y-15368502D01*
X14119635Y-15368502D02*
X14131730Y-15360035D01*
X14131730Y-15360035D02*
X14161969Y-15360035D01*
X14161969Y-15360035D02*
X14174064Y-15351569D01*
X14288969Y-15427769D02*
X14288969Y-15249969D01*
X14288969Y-15419302D02*
X14276873Y-15427769D01*
X14276873Y-15427769D02*
X14252683Y-15427769D01*
X14252683Y-15427769D02*
X14240588Y-15419302D01*
X14240588Y-15419302D02*
X14234540Y-15410835D01*
X14234540Y-15410835D02*
X14228492Y-15393902D01*
X14228492Y-15393902D02*
X14228492Y-15343102D01*
X14228492Y-15343102D02*
X14234540Y-15326169D01*
X14234540Y-15326169D02*
X14240588Y-15317702D01*
X14240588Y-15317702D02*
X14252683Y-15309235D01*
X14252683Y-15309235D02*
X14276873Y-15309235D01*
X14276873Y-15309235D02*
X14288969Y-15317702D01*
X14403873Y-15309235D02*
X14403873Y-15453169D01*
X14403873Y-15453169D02*
X14397826Y-15470102D01*
X14397826Y-15470102D02*
X14391778Y-15478569D01*
X14391778Y-15478569D02*
X14379683Y-15487035D01*
X14379683Y-15487035D02*
X14361540Y-15487035D01*
X14361540Y-15487035D02*
X14349445Y-15478569D01*
X14403873Y-15419302D02*
X14391778Y-15427769D01*
X14391778Y-15427769D02*
X14367588Y-15427769D01*
X14367588Y-15427769D02*
X14355492Y-15419302D01*
X14355492Y-15419302D02*
X14349445Y-15410835D01*
X14349445Y-15410835D02*
X14343397Y-15393902D01*
X14343397Y-15393902D02*
X14343397Y-15343102D01*
X14343397Y-15343102D02*
X14349445Y-15326169D01*
X14349445Y-15326169D02*
X14355492Y-15317702D01*
X14355492Y-15317702D02*
X14367588Y-15309235D01*
X14367588Y-15309235D02*
X14391778Y-15309235D01*
X14391778Y-15309235D02*
X14403873Y-15317702D01*
X14512731Y-15419302D02*
X14500635Y-15427769D01*
X14500635Y-15427769D02*
X14476445Y-15427769D01*
X14476445Y-15427769D02*
X14464350Y-15419302D01*
X14464350Y-15419302D02*
X14458302Y-15402369D01*
X14458302Y-15402369D02*
X14458302Y-15334635D01*
X14458302Y-15334635D02*
X14464350Y-15317702D01*
X14464350Y-15317702D02*
X14476445Y-15309235D01*
X14476445Y-15309235D02*
X14500635Y-15309235D01*
X14500635Y-15309235D02*
X14512731Y-15317702D01*
X14512731Y-15317702D02*
X14518778Y-15334635D01*
X14518778Y-15334635D02*
X14518778Y-15351569D01*
X14518778Y-15351569D02*
X14458302Y-15368502D01*
X14555064Y-15309235D02*
X14603445Y-15309235D01*
X14573207Y-15249969D02*
X14573207Y-15402369D01*
X14573207Y-15402369D02*
X14579254Y-15419302D01*
X14579254Y-15419302D02*
X14591350Y-15427769D01*
X14591350Y-15427769D02*
X14603445Y-15427769D01*
X14639730Y-15419302D02*
X14651826Y-15427769D01*
X14651826Y-15427769D02*
X14676016Y-15427769D01*
X14676016Y-15427769D02*
X14688111Y-15419302D01*
X14688111Y-15419302D02*
X14694159Y-15402369D01*
X14694159Y-15402369D02*
X14694159Y-15393902D01*
X14694159Y-15393902D02*
X14688111Y-15376969D01*
X14688111Y-15376969D02*
X14676016Y-15368502D01*
X14676016Y-15368502D02*
X14657873Y-15368502D01*
X14657873Y-15368502D02*
X14645778Y-15360035D01*
X14645778Y-15360035D02*
X14639730Y-15343102D01*
X14639730Y-15343102D02*
X14639730Y-15334635D01*
X14639730Y-15334635D02*
X14645778Y-15317702D01*
X14645778Y-15317702D02*
X14657873Y-15309235D01*
X14657873Y-15309235D02*
X14676016Y-15309235D01*
X14676016Y-15309235D02*
X14688111Y-15317702D01*
X14748588Y-15410835D02*
X14754635Y-15419302D01*
X14754635Y-15419302D02*
X14748588Y-15427769D01*
X14748588Y-15427769D02*
X14742540Y-15419302D01*
X14742540Y-15419302D02*
X14748588Y-15410835D01*
X14748588Y-15410835D02*
X14748588Y-15427769D01*
X14863492Y-15419302D02*
X14851397Y-15427769D01*
X14851397Y-15427769D02*
X14827207Y-15427769D01*
X14827207Y-15427769D02*
X14815111Y-15419302D01*
X14815111Y-15419302D02*
X14809064Y-15410835D01*
X14809064Y-15410835D02*
X14803016Y-15393902D01*
X14803016Y-15393902D02*
X14803016Y-15343102D01*
X14803016Y-15343102D02*
X14809064Y-15326169D01*
X14809064Y-15326169D02*
X14815111Y-15317702D01*
X14815111Y-15317702D02*
X14827207Y-15309235D01*
X14827207Y-15309235D02*
X14851397Y-15309235D01*
X14851397Y-15309235D02*
X14863492Y-15317702D01*
X14936064Y-15427769D02*
X14923969Y-15419302D01*
X14923969Y-15419302D02*
X14917921Y-15410835D01*
X14917921Y-15410835D02*
X14911873Y-15393902D01*
X14911873Y-15393902D02*
X14911873Y-15343102D01*
X14911873Y-15343102D02*
X14917921Y-15326169D01*
X14917921Y-15326169D02*
X14923969Y-15317702D01*
X14923969Y-15317702D02*
X14936064Y-15309235D01*
X14936064Y-15309235D02*
X14954207Y-15309235D01*
X14954207Y-15309235D02*
X14966302Y-15317702D01*
X14966302Y-15317702D02*
X14972349Y-15326169D01*
X14972349Y-15326169D02*
X14978397Y-15343102D01*
X14978397Y-15343102D02*
X14978397Y-15393902D01*
X14978397Y-15393902D02*
X14972349Y-15410835D01*
X14972349Y-15410835D02*
X14966302Y-15419302D01*
X14966302Y-15419302D02*
X14954207Y-15427769D01*
X14954207Y-15427769D02*
X14936064Y-15427769D01*
X15032826Y-15427769D02*
X15032826Y-15309235D01*
X15032826Y-15326169D02*
X15038873Y-15317702D01*
X15038873Y-15317702D02*
X15050969Y-15309235D01*
X15050969Y-15309235D02*
X15069111Y-15309235D01*
X15069111Y-15309235D02*
X15081207Y-15317702D01*
X15081207Y-15317702D02*
X15087254Y-15334635D01*
X15087254Y-15334635D02*
X15087254Y-15427769D01*
X15087254Y-15334635D02*
X15093302Y-15317702D01*
X15093302Y-15317702D02*
X15105397Y-15309235D01*
X15105397Y-15309235D02*
X15123540Y-15309235D01*
X15123540Y-15309235D02*
X15135635Y-15317702D01*
X15135635Y-15317702D02*
X15141683Y-15334635D01*
X15141683Y-15334635D02*
X15141683Y-15427769D01*
X15292873Y-15241502D02*
X15184016Y-15470102D01*
X15335207Y-15427769D02*
X15335207Y-15249969D01*
X15389635Y-15427769D02*
X15389635Y-15334635D01*
X15389635Y-15334635D02*
X15383588Y-15317702D01*
X15383588Y-15317702D02*
X15371492Y-15309235D01*
X15371492Y-15309235D02*
X15353349Y-15309235D01*
X15353349Y-15309235D02*
X15341254Y-15317702D01*
X15341254Y-15317702D02*
X15335207Y-15326169D01*
X15504540Y-15427769D02*
X15504540Y-15334635D01*
X15504540Y-15334635D02*
X15498492Y-15317702D01*
X15498492Y-15317702D02*
X15486397Y-15309235D01*
X15486397Y-15309235D02*
X15462207Y-15309235D01*
X15462207Y-15309235D02*
X15450111Y-15317702D01*
X15504540Y-15419302D02*
X15492445Y-15427769D01*
X15492445Y-15427769D02*
X15462207Y-15427769D01*
X15462207Y-15427769D02*
X15450111Y-15419302D01*
X15450111Y-15419302D02*
X15444064Y-15402369D01*
X15444064Y-15402369D02*
X15444064Y-15385435D01*
X15444064Y-15385435D02*
X15450111Y-15368502D01*
X15450111Y-15368502D02*
X15462207Y-15360035D01*
X15462207Y-15360035D02*
X15492445Y-15360035D01*
X15492445Y-15360035D02*
X15504540Y-15351569D01*
X15619445Y-15419302D02*
X15607350Y-15427769D01*
X15607350Y-15427769D02*
X15583159Y-15427769D01*
X15583159Y-15427769D02*
X15571064Y-15419302D01*
X15571064Y-15419302D02*
X15565016Y-15410835D01*
X15565016Y-15410835D02*
X15558969Y-15393902D01*
X15558969Y-15393902D02*
X15558969Y-15343102D01*
X15558969Y-15343102D02*
X15565016Y-15326169D01*
X15565016Y-15326169D02*
X15571064Y-15317702D01*
X15571064Y-15317702D02*
X15583159Y-15309235D01*
X15583159Y-15309235D02*
X15607350Y-15309235D01*
X15607350Y-15309235D02*
X15619445Y-15317702D01*
X15673873Y-15427769D02*
X15673873Y-15249969D01*
X15685969Y-15360035D02*
X15722254Y-15427769D01*
X15722254Y-15309235D02*
X15673873Y-15376969D01*
X15776683Y-15427769D02*
X15776683Y-15309235D01*
X15776683Y-15343102D02*
X15782730Y-15326169D01*
X15782730Y-15326169D02*
X15788778Y-15317702D01*
X15788778Y-15317702D02*
X15800873Y-15309235D01*
X15800873Y-15309235D02*
X15812969Y-15309235D01*
X15837159Y-15309235D02*
X15885540Y-15309235D01*
X15855302Y-15427769D02*
X15855302Y-15275369D01*
X15855302Y-15275369D02*
X15861349Y-15258435D01*
X15861349Y-15258435D02*
X15873445Y-15249969D01*
X15873445Y-15249969D02*
X15885540Y-15249969D01*
X16018587Y-15241502D02*
X15909730Y-15470102D01*
D12*
X10512714Y-11028886D02*
X10512714Y-11101458D01*
X10512714Y-11101458D02*
X10509086Y-11115972D01*
X10509086Y-11115972D02*
X10501829Y-11125648D01*
X10501829Y-11125648D02*
X10490943Y-11130486D01*
X10490943Y-11130486D02*
X10483686Y-11130486D01*
X10588914Y-11130486D02*
X10545371Y-11130486D01*
X10567143Y-11130486D02*
X10567143Y-11028886D01*
X10567143Y-11028886D02*
X10559886Y-11043401D01*
X10559886Y-11043401D02*
X10552629Y-11053077D01*
X10552629Y-11053077D02*
X10545371Y-11057915D01*
X10636086Y-11028886D02*
X10643343Y-11028886D01*
X10643343Y-11028886D02*
X10650600Y-11033724D01*
X10650600Y-11033724D02*
X10654229Y-11038563D01*
X10654229Y-11038563D02*
X10657857Y-11048239D01*
X10657857Y-11048239D02*
X10661486Y-11067591D01*
X10661486Y-11067591D02*
X10661486Y-11091782D01*
X10661486Y-11091782D02*
X10657857Y-11111134D01*
X10657857Y-11111134D02*
X10654229Y-11120810D01*
X10654229Y-11120810D02*
X10650600Y-11125648D01*
X10650600Y-11125648D02*
X10643343Y-11130486D01*
X10643343Y-11130486D02*
X10636086Y-11130486D01*
X10636086Y-11130486D02*
X10628829Y-11125648D01*
X10628829Y-11125648D02*
X10625200Y-11120810D01*
X10625200Y-11120810D02*
X10621571Y-11111134D01*
X10621571Y-11111134D02*
X10617943Y-11091782D01*
X10617943Y-11091782D02*
X10617943Y-11067591D01*
X10617943Y-11067591D02*
X10621571Y-11048239D01*
X10621571Y-11048239D02*
X10625200Y-11038563D01*
X10625200Y-11038563D02*
X10628829Y-11033724D01*
X10628829Y-11033724D02*
X10636086Y-11028886D01*
X10516343Y-11197295D02*
X10509086Y-11192457D01*
X10509086Y-11192457D02*
X10498200Y-11192457D01*
X10498200Y-11192457D02*
X10487314Y-11197295D01*
X10487314Y-11197295D02*
X10480057Y-11206971D01*
X10480057Y-11206971D02*
X10476429Y-11216647D01*
X10476429Y-11216647D02*
X10472800Y-11235999D01*
X10472800Y-11235999D02*
X10472800Y-11250514D01*
X10472800Y-11250514D02*
X10476429Y-11269866D01*
X10476429Y-11269866D02*
X10480057Y-11279542D01*
X10480057Y-11279542D02*
X10487314Y-11289219D01*
X10487314Y-11289219D02*
X10498200Y-11294057D01*
X10498200Y-11294057D02*
X10505457Y-11294057D01*
X10505457Y-11294057D02*
X10516343Y-11289219D01*
X10516343Y-11289219D02*
X10519971Y-11284380D01*
X10519971Y-11284380D02*
X10519971Y-11250514D01*
X10519971Y-11250514D02*
X10505457Y-11250514D01*
X10552629Y-11294057D02*
X10552629Y-11192457D01*
X10552629Y-11192457D02*
X10596171Y-11294057D01*
X10596171Y-11294057D02*
X10596171Y-11192457D01*
X10632457Y-11294057D02*
X10632457Y-11192457D01*
X10632457Y-11192457D02*
X10650600Y-11192457D01*
X10650600Y-11192457D02*
X10661486Y-11197295D01*
X10661486Y-11197295D02*
X10668743Y-11206971D01*
X10668743Y-11206971D02*
X10672371Y-11216647D01*
X10672371Y-11216647D02*
X10676000Y-11235999D01*
X10676000Y-11235999D02*
X10676000Y-11250514D01*
X10676000Y-11250514D02*
X10672371Y-11269866D01*
X10672371Y-11269866D02*
X10668743Y-11279542D01*
X10668743Y-11279542D02*
X10661486Y-11289219D01*
X10661486Y-11289219D02*
X10650600Y-11294057D01*
X10650600Y-11294057D02*
X10632457Y-11294057D01*
D11*
X6690938Y-10291170D02*
X6699405Y-10303265D01*
X6699405Y-10303265D02*
X6699405Y-10327455D01*
X6699405Y-10327455D02*
X6690938Y-10339550D01*
X6690938Y-10339550D02*
X6682471Y-10345598D01*
X6682471Y-10345598D02*
X6665538Y-10351646D01*
X6665538Y-10351646D02*
X6614738Y-10351646D01*
X6614738Y-10351646D02*
X6597805Y-10345598D01*
X6597805Y-10345598D02*
X6589338Y-10339550D01*
X6589338Y-10339550D02*
X6580871Y-10327455D01*
X6580871Y-10327455D02*
X6580871Y-10303265D01*
X6580871Y-10303265D02*
X6589338Y-10291170D01*
X6580871Y-10236741D02*
X6733271Y-10236741D01*
X6733271Y-10236741D02*
X6750205Y-10242789D01*
X6750205Y-10242789D02*
X6758671Y-10254884D01*
X6758671Y-10254884D02*
X6758671Y-10260931D01*
X6521605Y-10236741D02*
X6530071Y-10242789D01*
X6530071Y-10242789D02*
X6538538Y-10236741D01*
X6538538Y-10236741D02*
X6530071Y-10230693D01*
X6530071Y-10230693D02*
X6521605Y-10236741D01*
X6521605Y-10236741D02*
X6538538Y-10236741D01*
X6699405Y-10176265D02*
X6521605Y-10176265D01*
X6699405Y-10121836D02*
X6606271Y-10121836D01*
X6606271Y-10121836D02*
X6589338Y-10127884D01*
X6589338Y-10127884D02*
X6580871Y-10139979D01*
X6580871Y-10139979D02*
X6580871Y-10158122D01*
X6580871Y-10158122D02*
X6589338Y-10170217D01*
X6589338Y-10170217D02*
X6597805Y-10176265D01*
X6538538Y-9970646D02*
X6530071Y-9964598D01*
X6530071Y-9964598D02*
X6521605Y-9952503D01*
X6521605Y-9952503D02*
X6521605Y-9922265D01*
X6521605Y-9922265D02*
X6530071Y-9910170D01*
X6530071Y-9910170D02*
X6538538Y-9904122D01*
X6538538Y-9904122D02*
X6555471Y-9898074D01*
X6555471Y-9898074D02*
X6572405Y-9898074D01*
X6572405Y-9898074D02*
X6597805Y-9904122D01*
X6597805Y-9904122D02*
X6699405Y-9976693D01*
X6699405Y-9976693D02*
X6699405Y-9898074D01*
X6521605Y-9789217D02*
X6521605Y-9813408D01*
X6521605Y-9813408D02*
X6530071Y-9825503D01*
X6530071Y-9825503D02*
X6538538Y-9831550D01*
X6538538Y-9831550D02*
X6563938Y-9843646D01*
X6563938Y-9843646D02*
X6597805Y-9849693D01*
X6597805Y-9849693D02*
X6665538Y-9849693D01*
X6665538Y-9849693D02*
X6682471Y-9843646D01*
X6682471Y-9843646D02*
X6690938Y-9837598D01*
X6690938Y-9837598D02*
X6699405Y-9825503D01*
X6699405Y-9825503D02*
X6699405Y-9801312D01*
X6699405Y-9801312D02*
X6690938Y-9789217D01*
X6690938Y-9789217D02*
X6682471Y-9783170D01*
X6682471Y-9783170D02*
X6665538Y-9777122D01*
X6665538Y-9777122D02*
X6623205Y-9777122D01*
X6623205Y-9777122D02*
X6606271Y-9783170D01*
X6606271Y-9783170D02*
X6597805Y-9789217D01*
X6597805Y-9789217D02*
X6589338Y-9801312D01*
X6589338Y-9801312D02*
X6589338Y-9825503D01*
X6589338Y-9825503D02*
X6597805Y-9837598D01*
X6597805Y-9837598D02*
X6606271Y-9843646D01*
X6606271Y-9843646D02*
X6623205Y-9849693D01*
X6690938Y-9631979D02*
X6699405Y-9613836D01*
X6699405Y-9613836D02*
X6699405Y-9583598D01*
X6699405Y-9583598D02*
X6690938Y-9571503D01*
X6690938Y-9571503D02*
X6682471Y-9565455D01*
X6682471Y-9565455D02*
X6665538Y-9559408D01*
X6665538Y-9559408D02*
X6648605Y-9559408D01*
X6648605Y-9559408D02*
X6631671Y-9565455D01*
X6631671Y-9565455D02*
X6623205Y-9571503D01*
X6623205Y-9571503D02*
X6614738Y-9583598D01*
X6614738Y-9583598D02*
X6606271Y-9607789D01*
X6606271Y-9607789D02*
X6597805Y-9619884D01*
X6597805Y-9619884D02*
X6589338Y-9625931D01*
X6589338Y-9625931D02*
X6572405Y-9631979D01*
X6572405Y-9631979D02*
X6555471Y-9631979D01*
X6555471Y-9631979D02*
X6538538Y-9625931D01*
X6538538Y-9625931D02*
X6530071Y-9619884D01*
X6530071Y-9619884D02*
X6521605Y-9607789D01*
X6521605Y-9607789D02*
X6521605Y-9577550D01*
X6521605Y-9577550D02*
X6530071Y-9559408D01*
X6690938Y-9456598D02*
X6699405Y-9468693D01*
X6699405Y-9468693D02*
X6699405Y-9492884D01*
X6699405Y-9492884D02*
X6690938Y-9504979D01*
X6690938Y-9504979D02*
X6674005Y-9511027D01*
X6674005Y-9511027D02*
X6606271Y-9511027D01*
X6606271Y-9511027D02*
X6589338Y-9504979D01*
X6589338Y-9504979D02*
X6580871Y-9492884D01*
X6580871Y-9492884D02*
X6580871Y-9468693D01*
X6580871Y-9468693D02*
X6589338Y-9456598D01*
X6589338Y-9456598D02*
X6606271Y-9450550D01*
X6606271Y-9450550D02*
X6623205Y-9450550D01*
X6623205Y-9450550D02*
X6640138Y-9511027D01*
X6580871Y-9396122D02*
X6758671Y-9396122D01*
X6589338Y-9396122D02*
X6580871Y-9384027D01*
X6580871Y-9384027D02*
X6580871Y-9359836D01*
X6580871Y-9359836D02*
X6589338Y-9347741D01*
X6589338Y-9347741D02*
X6597805Y-9341693D01*
X6597805Y-9341693D02*
X6614738Y-9335646D01*
X6614738Y-9335646D02*
X6665538Y-9335646D01*
X6665538Y-9335646D02*
X6682471Y-9341693D01*
X6682471Y-9341693D02*
X6690938Y-9347741D01*
X6690938Y-9347741D02*
X6699405Y-9359836D01*
X6699405Y-9359836D02*
X6699405Y-9384027D01*
X6699405Y-9384027D02*
X6690938Y-9396122D01*
X6538538Y-9190503D02*
X6530071Y-9184455D01*
X6530071Y-9184455D02*
X6521605Y-9172360D01*
X6521605Y-9172360D02*
X6521605Y-9142122D01*
X6521605Y-9142122D02*
X6530071Y-9130027D01*
X6530071Y-9130027D02*
X6538538Y-9123979D01*
X6538538Y-9123979D02*
X6555471Y-9117931D01*
X6555471Y-9117931D02*
X6572405Y-9117931D01*
X6572405Y-9117931D02*
X6597805Y-9123979D01*
X6597805Y-9123979D02*
X6699405Y-9196550D01*
X6699405Y-9196550D02*
X6699405Y-9117931D01*
X6521605Y-9039312D02*
X6521605Y-9027217D01*
X6521605Y-9027217D02*
X6530071Y-9015122D01*
X6530071Y-9015122D02*
X6538538Y-9009074D01*
X6538538Y-9009074D02*
X6555471Y-9003027D01*
X6555471Y-9003027D02*
X6589338Y-8996979D01*
X6589338Y-8996979D02*
X6631671Y-8996979D01*
X6631671Y-8996979D02*
X6665538Y-9003027D01*
X6665538Y-9003027D02*
X6682471Y-9009074D01*
X6682471Y-9009074D02*
X6690938Y-9015122D01*
X6690938Y-9015122D02*
X6699405Y-9027217D01*
X6699405Y-9027217D02*
X6699405Y-9039312D01*
X6699405Y-9039312D02*
X6690938Y-9051408D01*
X6690938Y-9051408D02*
X6682471Y-9057455D01*
X6682471Y-9057455D02*
X6665538Y-9063503D01*
X6665538Y-9063503D02*
X6631671Y-9069550D01*
X6631671Y-9069550D02*
X6589338Y-9069550D01*
X6589338Y-9069550D02*
X6555471Y-9063503D01*
X6555471Y-9063503D02*
X6538538Y-9057455D01*
X6538538Y-9057455D02*
X6530071Y-9051408D01*
X6530071Y-9051408D02*
X6521605Y-9039312D01*
X6538538Y-8948598D02*
X6530071Y-8942550D01*
X6530071Y-8942550D02*
X6521605Y-8930455D01*
X6521605Y-8930455D02*
X6521605Y-8900217D01*
X6521605Y-8900217D02*
X6530071Y-8888122D01*
X6530071Y-8888122D02*
X6538538Y-8882074D01*
X6538538Y-8882074D02*
X6555471Y-8876027D01*
X6555471Y-8876027D02*
X6572405Y-8876027D01*
X6572405Y-8876027D02*
X6597805Y-8882074D01*
X6597805Y-8882074D02*
X6699405Y-8954646D01*
X6699405Y-8954646D02*
X6699405Y-8876027D01*
X6580871Y-8767169D02*
X6699405Y-8767169D01*
X6513138Y-8797408D02*
X6640138Y-8827646D01*
X6640138Y-8827646D02*
X6640138Y-8749027D01*
X6985653Y-10354670D02*
X6807853Y-10354670D01*
X6807853Y-10354670D02*
X6934853Y-10312336D01*
X6934853Y-10312336D02*
X6807853Y-10270003D01*
X6807853Y-10270003D02*
X6985653Y-10270003D01*
X6985653Y-10155098D02*
X6892519Y-10155098D01*
X6892519Y-10155098D02*
X6875586Y-10161146D01*
X6875586Y-10161146D02*
X6867119Y-10173241D01*
X6867119Y-10173241D02*
X6867119Y-10197431D01*
X6867119Y-10197431D02*
X6875586Y-10209527D01*
X6977186Y-10155098D02*
X6985653Y-10167193D01*
X6985653Y-10167193D02*
X6985653Y-10197431D01*
X6985653Y-10197431D02*
X6977186Y-10209527D01*
X6977186Y-10209527D02*
X6960253Y-10215574D01*
X6960253Y-10215574D02*
X6943319Y-10215574D01*
X6943319Y-10215574D02*
X6926386Y-10209527D01*
X6926386Y-10209527D02*
X6917919Y-10197431D01*
X6917919Y-10197431D02*
X6917919Y-10167193D01*
X6917919Y-10167193D02*
X6909453Y-10155098D01*
X6985653Y-10040193D02*
X6807853Y-10040193D01*
X6977186Y-10040193D02*
X6985653Y-10052288D01*
X6985653Y-10052288D02*
X6985653Y-10076479D01*
X6985653Y-10076479D02*
X6977186Y-10088574D01*
X6977186Y-10088574D02*
X6968719Y-10094622D01*
X6968719Y-10094622D02*
X6951786Y-10100669D01*
X6951786Y-10100669D02*
X6900986Y-10100669D01*
X6900986Y-10100669D02*
X6884053Y-10094622D01*
X6884053Y-10094622D02*
X6875586Y-10088574D01*
X6875586Y-10088574D02*
X6867119Y-10076479D01*
X6867119Y-10076479D02*
X6867119Y-10052288D01*
X6867119Y-10052288D02*
X6875586Y-10040193D01*
X6977186Y-9931336D02*
X6985653Y-9943431D01*
X6985653Y-9943431D02*
X6985653Y-9967622D01*
X6985653Y-9967622D02*
X6977186Y-9979717D01*
X6977186Y-9979717D02*
X6960253Y-9985765D01*
X6960253Y-9985765D02*
X6892519Y-9985765D01*
X6892519Y-9985765D02*
X6875586Y-9979717D01*
X6875586Y-9979717D02*
X6867119Y-9967622D01*
X6867119Y-9967622D02*
X6867119Y-9943431D01*
X6867119Y-9943431D02*
X6875586Y-9931336D01*
X6875586Y-9931336D02*
X6892519Y-9925288D01*
X6892519Y-9925288D02*
X6909453Y-9925288D01*
X6909453Y-9925288D02*
X6926386Y-9985765D01*
X6985653Y-9774098D02*
X6807853Y-9774098D01*
X6875586Y-9774098D02*
X6867119Y-9762003D01*
X6867119Y-9762003D02*
X6867119Y-9737812D01*
X6867119Y-9737812D02*
X6875586Y-9725717D01*
X6875586Y-9725717D02*
X6884053Y-9719669D01*
X6884053Y-9719669D02*
X6900986Y-9713622D01*
X6900986Y-9713622D02*
X6951786Y-9713622D01*
X6951786Y-9713622D02*
X6968719Y-9719669D01*
X6968719Y-9719669D02*
X6977186Y-9725717D01*
X6977186Y-9725717D02*
X6985653Y-9737812D01*
X6985653Y-9737812D02*
X6985653Y-9762003D01*
X6985653Y-9762003D02*
X6977186Y-9774098D01*
X6867119Y-9671288D02*
X6985653Y-9641050D01*
X6867119Y-9610812D02*
X6985653Y-9641050D01*
X6985653Y-9641050D02*
X7027986Y-9653146D01*
X7027986Y-9653146D02*
X7036453Y-9659193D01*
X7036453Y-9659193D02*
X7044919Y-9671288D01*
X6977186Y-9471717D02*
X6985653Y-9459622D01*
X6985653Y-9459622D02*
X6985653Y-9435431D01*
X6985653Y-9435431D02*
X6977186Y-9423336D01*
X6977186Y-9423336D02*
X6960253Y-9417288D01*
X6960253Y-9417288D02*
X6951786Y-9417288D01*
X6951786Y-9417288D02*
X6934853Y-9423336D01*
X6934853Y-9423336D02*
X6926386Y-9435431D01*
X6926386Y-9435431D02*
X6926386Y-9453574D01*
X6926386Y-9453574D02*
X6917919Y-9465669D01*
X6917919Y-9465669D02*
X6900986Y-9471717D01*
X6900986Y-9471717D02*
X6892519Y-9471717D01*
X6892519Y-9471717D02*
X6875586Y-9465669D01*
X6875586Y-9465669D02*
X6867119Y-9453574D01*
X6867119Y-9453574D02*
X6867119Y-9435431D01*
X6867119Y-9435431D02*
X6875586Y-9423336D01*
X6867119Y-9374955D02*
X6867119Y-9308431D01*
X6867119Y-9308431D02*
X6985653Y-9374955D01*
X6985653Y-9374955D02*
X6985653Y-9308431D01*
X6977186Y-9205622D02*
X6985653Y-9217717D01*
X6985653Y-9217717D02*
X6985653Y-9241908D01*
X6985653Y-9241908D02*
X6977186Y-9254003D01*
X6977186Y-9254003D02*
X6968719Y-9260050D01*
X6968719Y-9260050D02*
X6951786Y-9266098D01*
X6951786Y-9266098D02*
X6900986Y-9266098D01*
X6900986Y-9266098D02*
X6884053Y-9260050D01*
X6884053Y-9260050D02*
X6875586Y-9254003D01*
X6875586Y-9254003D02*
X6867119Y-9241908D01*
X6867119Y-9241908D02*
X6867119Y-9217717D01*
X6867119Y-9217717D02*
X6875586Y-9205622D01*
X6985653Y-9151193D02*
X6807853Y-9151193D01*
X6917919Y-9139098D02*
X6985653Y-9102812D01*
X6867119Y-9102812D02*
X6934853Y-9151193D01*
X6867119Y-9066527D02*
X6867119Y-9018146D01*
X6807853Y-9048384D02*
X6960253Y-9048384D01*
X6960253Y-9048384D02*
X6977186Y-9042336D01*
X6977186Y-9042336D02*
X6985653Y-9030241D01*
X6985653Y-9030241D02*
X6985653Y-9018146D01*
X6968719Y-8975812D02*
X6977186Y-8969765D01*
X6977186Y-8969765D02*
X6985653Y-8975812D01*
X6985653Y-8975812D02*
X6977186Y-8981860D01*
X6977186Y-8981860D02*
X6968719Y-8975812D01*
X6968719Y-8975812D02*
X6985653Y-8975812D01*
X6977186Y-8860908D02*
X6985653Y-8873003D01*
X6985653Y-8873003D02*
X6985653Y-8897193D01*
X6985653Y-8897193D02*
X6977186Y-8909289D01*
X6977186Y-8909289D02*
X6968719Y-8915336D01*
X6968719Y-8915336D02*
X6951786Y-8921384D01*
X6951786Y-8921384D02*
X6900986Y-8921384D01*
X6900986Y-8921384D02*
X6884053Y-8915336D01*
X6884053Y-8915336D02*
X6875586Y-8909289D01*
X6875586Y-8909289D02*
X6867119Y-8897193D01*
X6867119Y-8897193D02*
X6867119Y-8873003D01*
X6867119Y-8873003D02*
X6875586Y-8860908D01*
X6867119Y-8806479D02*
X6985653Y-8806479D01*
X6884053Y-8806479D02*
X6875586Y-8800431D01*
X6875586Y-8800431D02*
X6867119Y-8788336D01*
X6867119Y-8788336D02*
X6867119Y-8770193D01*
X6867119Y-8770193D02*
X6875586Y-8758098D01*
X6875586Y-8758098D02*
X6892519Y-8752051D01*
X6892519Y-8752051D02*
X6985653Y-8752051D01*
D12*
X7747017Y-9302191D02*
X7747017Y-9200591D01*
X7747017Y-9200591D02*
X7776046Y-9200591D01*
X7776046Y-9200591D02*
X7783303Y-9205430D01*
X7783303Y-9205430D02*
X7786931Y-9210268D01*
X7786931Y-9210268D02*
X7790560Y-9219944D01*
X7790560Y-9219944D02*
X7790560Y-9234458D01*
X7790560Y-9234458D02*
X7786931Y-9244134D01*
X7786931Y-9244134D02*
X7783303Y-9248972D01*
X7783303Y-9248972D02*
X7776046Y-9253811D01*
X7776046Y-9253811D02*
X7747017Y-9253811D01*
X7859503Y-9200591D02*
X7823217Y-9200591D01*
X7823217Y-9200591D02*
X7819588Y-9248972D01*
X7819588Y-9248972D02*
X7823217Y-9244134D01*
X7823217Y-9244134D02*
X7830474Y-9239296D01*
X7830474Y-9239296D02*
X7848617Y-9239296D01*
X7848617Y-9239296D02*
X7855874Y-9244134D01*
X7855874Y-9244134D02*
X7859503Y-9248972D01*
X7859503Y-9248972D02*
X7863131Y-9258649D01*
X7863131Y-9258649D02*
X7863131Y-9282839D01*
X7863131Y-9282839D02*
X7859503Y-9292515D01*
X7859503Y-9292515D02*
X7855874Y-9297353D01*
X7855874Y-9297353D02*
X7848617Y-9302191D01*
X7848617Y-9302191D02*
X7830474Y-9302191D01*
X7830474Y-9302191D02*
X7823217Y-9297353D01*
X7823217Y-9297353D02*
X7819588Y-9292515D01*
X12996017Y-9349786D02*
X12996017Y-9248186D01*
X12996017Y-9248186D02*
X13025046Y-9248186D01*
X13025046Y-9248186D02*
X13032303Y-9253024D01*
X13032303Y-9253024D02*
X13035931Y-9257863D01*
X13035931Y-9257863D02*
X13039560Y-9267539D01*
X13039560Y-9267539D02*
X13039560Y-9282053D01*
X13039560Y-9282053D02*
X13035931Y-9291729D01*
X13035931Y-9291729D02*
X13032303Y-9296567D01*
X13032303Y-9296567D02*
X13025046Y-9301405D01*
X13025046Y-9301405D02*
X12996017Y-9301405D01*
X13112131Y-9349786D02*
X13068588Y-9349786D01*
X13090360Y-9349786D02*
X13090360Y-9248186D01*
X13090360Y-9248186D02*
X13083103Y-9262701D01*
X13083103Y-9262701D02*
X13075846Y-9272377D01*
X13075846Y-9272377D02*
X13068588Y-9277215D01*
X13005089Y-9513357D02*
X12961546Y-9513357D01*
X12983317Y-9513357D02*
X12983317Y-9411757D01*
X12983317Y-9411757D02*
X12976060Y-9426271D01*
X12976060Y-9426271D02*
X12968803Y-9435947D01*
X12968803Y-9435947D02*
X12961546Y-9440785D01*
X13026860Y-9411757D02*
X13052260Y-9513357D01*
X13052260Y-9513357D02*
X13077660Y-9411757D01*
X13113946Y-9455300D02*
X13106689Y-9450461D01*
X13106689Y-9450461D02*
X13103060Y-9445623D01*
X13103060Y-9445623D02*
X13099431Y-9435947D01*
X13099431Y-9435947D02*
X13099431Y-9431109D01*
X13099431Y-9431109D02*
X13103060Y-9421433D01*
X13103060Y-9421433D02*
X13106689Y-9416595D01*
X13106689Y-9416595D02*
X13113946Y-9411757D01*
X13113946Y-9411757D02*
X13128460Y-9411757D01*
X13128460Y-9411757D02*
X13135717Y-9416595D01*
X13135717Y-9416595D02*
X13139346Y-9421433D01*
X13139346Y-9421433D02*
X13142974Y-9431109D01*
X13142974Y-9431109D02*
X13142974Y-9435947D01*
X13142974Y-9435947D02*
X13139346Y-9445623D01*
X13139346Y-9445623D02*
X13135717Y-9450461D01*
X13135717Y-9450461D02*
X13128460Y-9455300D01*
X13128460Y-9455300D02*
X13113946Y-9455300D01*
X13113946Y-9455300D02*
X13106689Y-9460138D01*
X13106689Y-9460138D02*
X13103060Y-9464976D01*
X13103060Y-9464976D02*
X13099431Y-9474652D01*
X13099431Y-9474652D02*
X13099431Y-9494004D01*
X13099431Y-9494004D02*
X13103060Y-9503681D01*
X13103060Y-9503681D02*
X13106689Y-9508519D01*
X13106689Y-9508519D02*
X13113946Y-9513357D01*
X13113946Y-9513357D02*
X13128460Y-9513357D01*
X13128460Y-9513357D02*
X13135717Y-9508519D01*
X13135717Y-9508519D02*
X13139346Y-9503681D01*
X13139346Y-9503681D02*
X13142974Y-9494004D01*
X13142974Y-9494004D02*
X13142974Y-9474652D01*
X13142974Y-9474652D02*
X13139346Y-9464976D01*
X13139346Y-9464976D02*
X13135717Y-9460138D01*
X13135717Y-9460138D02*
X13128460Y-9455300D01*
X5598271Y-9476231D02*
X5549891Y-9501631D01*
X5598271Y-9519774D02*
X5496671Y-9519774D01*
X5496671Y-9519774D02*
X5496671Y-9490746D01*
X5496671Y-9490746D02*
X5501510Y-9483489D01*
X5501510Y-9483489D02*
X5506348Y-9479860D01*
X5506348Y-9479860D02*
X5516024Y-9476231D01*
X5516024Y-9476231D02*
X5530538Y-9476231D01*
X5530538Y-9476231D02*
X5540214Y-9479860D01*
X5540214Y-9479860D02*
X5545052Y-9483489D01*
X5545052Y-9483489D02*
X5549891Y-9490746D01*
X5549891Y-9490746D02*
X5549891Y-9519774D01*
X5545052Y-9443574D02*
X5545052Y-9418174D01*
X5598271Y-9407289D02*
X5598271Y-9443574D01*
X5598271Y-9443574D02*
X5496671Y-9443574D01*
X5496671Y-9443574D02*
X5496671Y-9407289D01*
X5593433Y-9378260D02*
X5598271Y-9367374D01*
X5598271Y-9367374D02*
X5598271Y-9349231D01*
X5598271Y-9349231D02*
X5593433Y-9341974D01*
X5593433Y-9341974D02*
X5588595Y-9338346D01*
X5588595Y-9338346D02*
X5578919Y-9334717D01*
X5578919Y-9334717D02*
X5569243Y-9334717D01*
X5569243Y-9334717D02*
X5559567Y-9338346D01*
X5559567Y-9338346D02*
X5554729Y-9341974D01*
X5554729Y-9341974D02*
X5549891Y-9349231D01*
X5549891Y-9349231D02*
X5545052Y-9363746D01*
X5545052Y-9363746D02*
X5540214Y-9371003D01*
X5540214Y-9371003D02*
X5535376Y-9374631D01*
X5535376Y-9374631D02*
X5525700Y-9378260D01*
X5525700Y-9378260D02*
X5516024Y-9378260D01*
X5516024Y-9378260D02*
X5506348Y-9374631D01*
X5506348Y-9374631D02*
X5501510Y-9371003D01*
X5501510Y-9371003D02*
X5496671Y-9363746D01*
X5496671Y-9363746D02*
X5496671Y-9345603D01*
X5496671Y-9345603D02*
X5501510Y-9334717D01*
X5545052Y-9302060D02*
X5545052Y-9276660D01*
X5598271Y-9265774D02*
X5598271Y-9302060D01*
X5598271Y-9302060D02*
X5496671Y-9302060D01*
X5496671Y-9302060D02*
X5496671Y-9265774D01*
X5496671Y-9244003D02*
X5496671Y-9200460D01*
X5598271Y-9222231D02*
X5496671Y-9222231D01*
D13*
X5902239Y-9666934D02*
X5902239Y-9623391D01*
X5978439Y-9645163D02*
X5902239Y-9645163D01*
X5978439Y-9597991D02*
X5902239Y-9597991D01*
X5902239Y-9597991D02*
X5956668Y-9572591D01*
X5956668Y-9572591D02*
X5902239Y-9547191D01*
X5902239Y-9547191D02*
X5978439Y-9547191D01*
D12*
X6849671Y-10764726D02*
X6849671Y-10663126D01*
X6849671Y-10663126D02*
X6878700Y-10663126D01*
X6878700Y-10663126D02*
X6885957Y-10667964D01*
X6885957Y-10667964D02*
X6889586Y-10672803D01*
X6889586Y-10672803D02*
X6893214Y-10682479D01*
X6893214Y-10682479D02*
X6893214Y-10696993D01*
X6893214Y-10696993D02*
X6889586Y-10706669D01*
X6889586Y-10706669D02*
X6885957Y-10711507D01*
X6885957Y-10711507D02*
X6878700Y-10716345D01*
X6878700Y-10716345D02*
X6849671Y-10716345D01*
X6918614Y-10663126D02*
X6965786Y-10663126D01*
X6965786Y-10663126D02*
X6940386Y-10701831D01*
X6940386Y-10701831D02*
X6951271Y-10701831D01*
X6951271Y-10701831D02*
X6958529Y-10706669D01*
X6958529Y-10706669D02*
X6962157Y-10711507D01*
X6962157Y-10711507D02*
X6965786Y-10721184D01*
X6965786Y-10721184D02*
X6965786Y-10745374D01*
X6965786Y-10745374D02*
X6962157Y-10755050D01*
X6962157Y-10755050D02*
X6958529Y-10759888D01*
X6958529Y-10759888D02*
X6951271Y-10764726D01*
X6951271Y-10764726D02*
X6929500Y-10764726D01*
X6929500Y-10764726D02*
X6922243Y-10759888D01*
X6922243Y-10759888D02*
X6918614Y-10755050D01*
X7031100Y-10663126D02*
X7016586Y-10663126D01*
X7016586Y-10663126D02*
X7009328Y-10667964D01*
X7009328Y-10667964D02*
X7005700Y-10672803D01*
X7005700Y-10672803D02*
X6998443Y-10687317D01*
X6998443Y-10687317D02*
X6994814Y-10706669D01*
X6994814Y-10706669D02*
X6994814Y-10745374D01*
X6994814Y-10745374D02*
X6998443Y-10755050D01*
X6998443Y-10755050D02*
X7002071Y-10759888D01*
X7002071Y-10759888D02*
X7009328Y-10764726D01*
X7009328Y-10764726D02*
X7023843Y-10764726D01*
X7023843Y-10764726D02*
X7031100Y-10759888D01*
X7031100Y-10759888D02*
X7034728Y-10755050D01*
X7034728Y-10755050D02*
X7038357Y-10745374D01*
X7038357Y-10745374D02*
X7038357Y-10721184D01*
X7038357Y-10721184D02*
X7034728Y-10711507D01*
X7034728Y-10711507D02*
X7031100Y-10706669D01*
X7031100Y-10706669D02*
X7023843Y-10701831D01*
X7023843Y-10701831D02*
X7009328Y-10701831D01*
X7009328Y-10701831D02*
X7002071Y-10706669D01*
X7002071Y-10706669D02*
X6998443Y-10711507D01*
X6998443Y-10711507D02*
X6994814Y-10721184D01*
X6851486Y-10826697D02*
X6876886Y-10928297D01*
X6876886Y-10928297D02*
X6902286Y-10826697D01*
X6924057Y-10899268D02*
X6960343Y-10899268D01*
X6916800Y-10928297D02*
X6942200Y-10826697D01*
X6942200Y-10826697D02*
X6967600Y-10928297D01*
X6989371Y-10899268D02*
X7025657Y-10899268D01*
X6982114Y-10928297D02*
X7007514Y-10826697D01*
X7007514Y-10826697D02*
X7032914Y-10928297D01*
D14*
X6464098Y-11291446D02*
X6057698Y-11291446D01*
X6251222Y-11291446D02*
X6251222Y-11117274D01*
X6464098Y-11117274D02*
X6057698Y-11117274D01*
X6464098Y-10841503D02*
X6251222Y-10841503D01*
X6251222Y-10841503D02*
X6212517Y-10856017D01*
X6212517Y-10856017D02*
X6193165Y-10885046D01*
X6193165Y-10885046D02*
X6193165Y-10943103D01*
X6193165Y-10943103D02*
X6212517Y-10972131D01*
X6444746Y-10841503D02*
X6464098Y-10870531D01*
X6464098Y-10870531D02*
X6464098Y-10943103D01*
X6464098Y-10943103D02*
X6444746Y-10972131D01*
X6444746Y-10972131D02*
X6406041Y-10986646D01*
X6406041Y-10986646D02*
X6367336Y-10986646D01*
X6367336Y-10986646D02*
X6328632Y-10972131D01*
X6328632Y-10972131D02*
X6309279Y-10943103D01*
X6309279Y-10943103D02*
X6309279Y-10870531D01*
X6309279Y-10870531D02*
X6289927Y-10841503D01*
X6444746Y-10565731D02*
X6464098Y-10594760D01*
X6464098Y-10594760D02*
X6464098Y-10652817D01*
X6464098Y-10652817D02*
X6444746Y-10681846D01*
X6444746Y-10681846D02*
X6425394Y-10696360D01*
X6425394Y-10696360D02*
X6386689Y-10710874D01*
X6386689Y-10710874D02*
X6270574Y-10710874D01*
X6270574Y-10710874D02*
X6231870Y-10696360D01*
X6231870Y-10696360D02*
X6212517Y-10681846D01*
X6212517Y-10681846D02*
X6193165Y-10652817D01*
X6193165Y-10652817D02*
X6193165Y-10594760D01*
X6193165Y-10594760D02*
X6212517Y-10565731D01*
X6464098Y-10435103D02*
X6057698Y-10435103D01*
X6309279Y-10406074D02*
X6464098Y-10318989D01*
X6193165Y-10318989D02*
X6347984Y-10435103D01*
X6464098Y-10014189D02*
X6270574Y-10115789D01*
X6464098Y-10188360D02*
X6057698Y-10188360D01*
X6057698Y-10188360D02*
X6057698Y-10072246D01*
X6057698Y-10072246D02*
X6077051Y-10043217D01*
X6077051Y-10043217D02*
X6096403Y-10028703D01*
X6096403Y-10028703D02*
X6135108Y-10014189D01*
X6135108Y-10014189D02*
X6193165Y-10014189D01*
X6193165Y-10014189D02*
X6231870Y-10028703D01*
X6231870Y-10028703D02*
X6251222Y-10043217D01*
X6251222Y-10043217D02*
X6270574Y-10072246D01*
X6270574Y-10072246D02*
X6270574Y-10188360D01*
X6251222Y-9781960D02*
X6251222Y-9883560D01*
X6464098Y-9883560D02*
X6057698Y-9883560D01*
X6057698Y-9883560D02*
X6057698Y-9738417D01*
X6057698Y-9332017D02*
X6057698Y-9273960D01*
X6057698Y-9273960D02*
X6077051Y-9244931D01*
X6077051Y-9244931D02*
X6115755Y-9215903D01*
X6115755Y-9215903D02*
X6193165Y-9201389D01*
X6193165Y-9201389D02*
X6328632Y-9201389D01*
X6328632Y-9201389D02*
X6406041Y-9215903D01*
X6406041Y-9215903D02*
X6444746Y-9244931D01*
X6444746Y-9244931D02*
X6464098Y-9273960D01*
X6464098Y-9273960D02*
X6464098Y-9332017D01*
X6464098Y-9332017D02*
X6444746Y-9361046D01*
X6444746Y-9361046D02*
X6406041Y-9390074D01*
X6406041Y-9390074D02*
X6328632Y-9404589D01*
X6328632Y-9404589D02*
X6193165Y-9404589D01*
X6193165Y-9404589D02*
X6115755Y-9390074D01*
X6115755Y-9390074D02*
X6077051Y-9361046D01*
X6077051Y-9361046D02*
X6057698Y-9332017D01*
X6193165Y-9070760D02*
X6464098Y-9070760D01*
X6231870Y-9070760D02*
X6212517Y-9056246D01*
X6212517Y-9056246D02*
X6193165Y-9027217D01*
X6193165Y-9027217D02*
X6193165Y-8983674D01*
X6193165Y-8983674D02*
X6212517Y-8954646D01*
X6212517Y-8954646D02*
X6251222Y-8940131D01*
X6251222Y-8940131D02*
X6464098Y-8940131D01*
X6444746Y-8678874D02*
X6464098Y-8707903D01*
X6464098Y-8707903D02*
X6464098Y-8765960D01*
X6464098Y-8765960D02*
X6444746Y-8794989D01*
X6444746Y-8794989D02*
X6406041Y-8809503D01*
X6406041Y-8809503D02*
X6251222Y-8809503D01*
X6251222Y-8809503D02*
X6212517Y-8794989D01*
X6212517Y-8794989D02*
X6193165Y-8765960D01*
X6193165Y-8765960D02*
X6193165Y-8707903D01*
X6193165Y-8707903D02*
X6212517Y-8678874D01*
X6212517Y-8678874D02*
X6251222Y-8664360D01*
X6251222Y-8664360D02*
X6289927Y-8664360D01*
X6289927Y-8664360D02*
X6328632Y-8809503D01*
D12*
X5334671Y-12316517D02*
X5416919Y-12316517D01*
X5416919Y-12316517D02*
X5426595Y-12312888D01*
X5426595Y-12312888D02*
X5431433Y-12309260D01*
X5431433Y-12309260D02*
X5436271Y-12302003D01*
X5436271Y-12302003D02*
X5436271Y-12287488D01*
X5436271Y-12287488D02*
X5431433Y-12280231D01*
X5431433Y-12280231D02*
X5426595Y-12276603D01*
X5426595Y-12276603D02*
X5416919Y-12272974D01*
X5416919Y-12272974D02*
X5334671Y-12272974D01*
X5431433Y-12240317D02*
X5436271Y-12229431D01*
X5436271Y-12229431D02*
X5436271Y-12211288D01*
X5436271Y-12211288D02*
X5431433Y-12204031D01*
X5431433Y-12204031D02*
X5426595Y-12200403D01*
X5426595Y-12200403D02*
X5416919Y-12196774D01*
X5416919Y-12196774D02*
X5407243Y-12196774D01*
X5407243Y-12196774D02*
X5397567Y-12200403D01*
X5397567Y-12200403D02*
X5392729Y-12204031D01*
X5392729Y-12204031D02*
X5387891Y-12211288D01*
X5387891Y-12211288D02*
X5383052Y-12225803D01*
X5383052Y-12225803D02*
X5378214Y-12233060D01*
X5378214Y-12233060D02*
X5373376Y-12236688D01*
X5373376Y-12236688D02*
X5363700Y-12240317D01*
X5363700Y-12240317D02*
X5354024Y-12240317D01*
X5354024Y-12240317D02*
X5344348Y-12236688D01*
X5344348Y-12236688D02*
X5339510Y-12233060D01*
X5339510Y-12233060D02*
X5334671Y-12225803D01*
X5334671Y-12225803D02*
X5334671Y-12207660D01*
X5334671Y-12207660D02*
X5339510Y-12196774D01*
X5383052Y-12138717D02*
X5387891Y-12127831D01*
X5387891Y-12127831D02*
X5392729Y-12124203D01*
X5392729Y-12124203D02*
X5402405Y-12120574D01*
X5402405Y-12120574D02*
X5416919Y-12120574D01*
X5416919Y-12120574D02*
X5426595Y-12124203D01*
X5426595Y-12124203D02*
X5431433Y-12127831D01*
X5431433Y-12127831D02*
X5436271Y-12135088D01*
X5436271Y-12135088D02*
X5436271Y-12164117D01*
X5436271Y-12164117D02*
X5334671Y-12164117D01*
X5334671Y-12164117D02*
X5334671Y-12138717D01*
X5334671Y-12138717D02*
X5339510Y-12131460D01*
X5339510Y-12131460D02*
X5344348Y-12127831D01*
X5344348Y-12127831D02*
X5354024Y-12124203D01*
X5354024Y-12124203D02*
X5363700Y-12124203D01*
X5363700Y-12124203D02*
X5373376Y-12127831D01*
X5373376Y-12127831D02*
X5378214Y-12131460D01*
X5378214Y-12131460D02*
X5383052Y-12138717D01*
X5383052Y-12138717D02*
X5383052Y-12164117D01*
X15708031Y-12772628D02*
X15606431Y-12772628D01*
X15606431Y-12772628D02*
X15606431Y-12743600D01*
X15606431Y-12743600D02*
X15611269Y-12736343D01*
X15611269Y-12736343D02*
X15616108Y-12732714D01*
X15616108Y-12732714D02*
X15625784Y-12729086D01*
X15625784Y-12729086D02*
X15640298Y-12729086D01*
X15640298Y-12729086D02*
X15649974Y-12732714D01*
X15649974Y-12732714D02*
X15654812Y-12736343D01*
X15654812Y-12736343D02*
X15659650Y-12743600D01*
X15659650Y-12743600D02*
X15659650Y-12772628D01*
X15616108Y-12700057D02*
X15611269Y-12696428D01*
X15611269Y-12696428D02*
X15606431Y-12689171D01*
X15606431Y-12689171D02*
X15606431Y-12671028D01*
X15606431Y-12671028D02*
X15611269Y-12663771D01*
X15611269Y-12663771D02*
X15616108Y-12660143D01*
X15616108Y-12660143D02*
X15625784Y-12656514D01*
X15625784Y-12656514D02*
X15635460Y-12656514D01*
X15635460Y-12656514D02*
X15649974Y-12660143D01*
X15649974Y-12660143D02*
X15708031Y-12703686D01*
X15708031Y-12703686D02*
X15708031Y-12656514D01*
X15606431Y-12609343D02*
X15606431Y-12602086D01*
X15606431Y-12602086D02*
X15611269Y-12594828D01*
X15611269Y-12594828D02*
X15616108Y-12591200D01*
X15616108Y-12591200D02*
X15625784Y-12587571D01*
X15625784Y-12587571D02*
X15645136Y-12583943D01*
X15645136Y-12583943D02*
X15669327Y-12583943D01*
X15669327Y-12583943D02*
X15688679Y-12587571D01*
X15688679Y-12587571D02*
X15698355Y-12591200D01*
X15698355Y-12591200D02*
X15703193Y-12594828D01*
X15703193Y-12594828D02*
X15708031Y-12602086D01*
X15708031Y-12602086D02*
X15708031Y-12609343D01*
X15708031Y-12609343D02*
X15703193Y-12616600D01*
X15703193Y-12616600D02*
X15698355Y-12620228D01*
X15698355Y-12620228D02*
X15688679Y-12623857D01*
X15688679Y-12623857D02*
X15669327Y-12627486D01*
X15669327Y-12627486D02*
X15645136Y-12627486D01*
X15645136Y-12627486D02*
X15625784Y-12623857D01*
X15625784Y-12623857D02*
X15616108Y-12620228D01*
X15616108Y-12620228D02*
X15611269Y-12616600D01*
X15611269Y-12616600D02*
X15606431Y-12609343D01*
X5436271Y-11353131D02*
X5436271Y-11396674D01*
X5436271Y-11374903D02*
X5334671Y-11374903D01*
X5334671Y-11374903D02*
X5349186Y-11382160D01*
X5349186Y-11382160D02*
X5358862Y-11389417D01*
X5358862Y-11389417D02*
X5363700Y-11396674D01*
X5334671Y-11331360D02*
X5436271Y-11305960D01*
X5436271Y-11305960D02*
X5334671Y-11280560D01*
X5378214Y-11244274D02*
X5373376Y-11251531D01*
X5373376Y-11251531D02*
X5368538Y-11255160D01*
X5368538Y-11255160D02*
X5358862Y-11258788D01*
X5358862Y-11258788D02*
X5354024Y-11258788D01*
X5354024Y-11258788D02*
X5344348Y-11255160D01*
X5344348Y-11255160D02*
X5339510Y-11251531D01*
X5339510Y-11251531D02*
X5334671Y-11244274D01*
X5334671Y-11244274D02*
X5334671Y-11229760D01*
X5334671Y-11229760D02*
X5339510Y-11222503D01*
X5339510Y-11222503D02*
X5344348Y-11218874D01*
X5344348Y-11218874D02*
X5354024Y-11215246D01*
X5354024Y-11215246D02*
X5358862Y-11215246D01*
X5358862Y-11215246D02*
X5368538Y-11218874D01*
X5368538Y-11218874D02*
X5373376Y-11222503D01*
X5373376Y-11222503D02*
X5378214Y-11229760D01*
X5378214Y-11229760D02*
X5378214Y-11244274D01*
X5378214Y-11244274D02*
X5383052Y-11251531D01*
X5383052Y-11251531D02*
X5387891Y-11255160D01*
X5387891Y-11255160D02*
X5397567Y-11258788D01*
X5397567Y-11258788D02*
X5416919Y-11258788D01*
X5416919Y-11258788D02*
X5426595Y-11255160D01*
X5426595Y-11255160D02*
X5431433Y-11251531D01*
X5431433Y-11251531D02*
X5436271Y-11244274D01*
X5436271Y-11244274D02*
X5436271Y-11229760D01*
X5436271Y-11229760D02*
X5431433Y-11222503D01*
X5431433Y-11222503D02*
X5426595Y-11218874D01*
X5426595Y-11218874D02*
X5416919Y-11215246D01*
X5416919Y-11215246D02*
X5397567Y-11215246D01*
X5397567Y-11215246D02*
X5387891Y-11218874D01*
X5387891Y-11218874D02*
X5383052Y-11222503D01*
X5383052Y-11222503D02*
X5378214Y-11229760D01*
X5082706Y-13620263D02*
X4981106Y-13620263D01*
X4981106Y-13620263D02*
X4981106Y-13591234D01*
X4981106Y-13591234D02*
X4985944Y-13583977D01*
X4985944Y-13583977D02*
X4990783Y-13580348D01*
X4990783Y-13580348D02*
X5000459Y-13576720D01*
X5000459Y-13576720D02*
X5014973Y-13576720D01*
X5014973Y-13576720D02*
X5024649Y-13580348D01*
X5024649Y-13580348D02*
X5029487Y-13583977D01*
X5029487Y-13583977D02*
X5034325Y-13591234D01*
X5034325Y-13591234D02*
X5034325Y-13620263D01*
X5014973Y-13511406D02*
X5082706Y-13511406D01*
X4976268Y-13529548D02*
X5048840Y-13547691D01*
X5048840Y-13547691D02*
X5048840Y-13500520D01*
X5217248Y-13798063D02*
X5217248Y-13761777D01*
X5246277Y-13805320D02*
X5144677Y-13779920D01*
X5144677Y-13779920D02*
X5246277Y-13754520D01*
X5246277Y-13729120D02*
X5144677Y-13729120D01*
X5144677Y-13729120D02*
X5246277Y-13685577D01*
X5246277Y-13685577D02*
X5144677Y-13685577D01*
X5144677Y-13660177D02*
X5144677Y-13616634D01*
X5246277Y-13638406D02*
X5144677Y-13638406D01*
X5193058Y-13591234D02*
X5193058Y-13565834D01*
X5246277Y-13554949D02*
X5246277Y-13591234D01*
X5246277Y-13591234D02*
X5144677Y-13591234D01*
X5144677Y-13591234D02*
X5144677Y-13554949D01*
X5246277Y-13522291D02*
X5144677Y-13522291D01*
X5144677Y-13522291D02*
X5246277Y-13478748D01*
X5246277Y-13478748D02*
X5144677Y-13478748D01*
X5246277Y-13442463D02*
X5144677Y-13442463D01*
X5144677Y-13442463D02*
X5246277Y-13398920D01*
X5246277Y-13398920D02*
X5144677Y-13398920D01*
X5217248Y-13366263D02*
X5217248Y-13329977D01*
X5246277Y-13373520D02*
X5144677Y-13348120D01*
X5144677Y-13348120D02*
X5246277Y-13322720D01*
X5334671Y-10104903D02*
X5334671Y-10057731D01*
X5334671Y-10057731D02*
X5373376Y-10083131D01*
X5373376Y-10083131D02*
X5373376Y-10072246D01*
X5373376Y-10072246D02*
X5378214Y-10064989D01*
X5378214Y-10064989D02*
X5383052Y-10061360D01*
X5383052Y-10061360D02*
X5392729Y-10057731D01*
X5392729Y-10057731D02*
X5416919Y-10057731D01*
X5416919Y-10057731D02*
X5426595Y-10061360D01*
X5426595Y-10061360D02*
X5431433Y-10064989D01*
X5431433Y-10064989D02*
X5436271Y-10072246D01*
X5436271Y-10072246D02*
X5436271Y-10094017D01*
X5436271Y-10094017D02*
X5431433Y-10101274D01*
X5431433Y-10101274D02*
X5426595Y-10104903D01*
X5334671Y-10035960D02*
X5436271Y-10010560D01*
X5436271Y-10010560D02*
X5334671Y-9985160D01*
X5334671Y-9967017D02*
X5334671Y-9919846D01*
X5334671Y-9919846D02*
X5373376Y-9945246D01*
X5373376Y-9945246D02*
X5373376Y-9934360D01*
X5373376Y-9934360D02*
X5378214Y-9927103D01*
X5378214Y-9927103D02*
X5383052Y-9923474D01*
X5383052Y-9923474D02*
X5392729Y-9919846D01*
X5392729Y-9919846D02*
X5416919Y-9919846D01*
X5416919Y-9919846D02*
X5426595Y-9923474D01*
X5426595Y-9923474D02*
X5431433Y-9927103D01*
X5431433Y-9927103D02*
X5436271Y-9934360D01*
X5436271Y-9934360D02*
X5436271Y-9956131D01*
X5436271Y-9956131D02*
X5431433Y-9963389D01*
X5431433Y-9963389D02*
X5426595Y-9967017D01*
X14251957Y-9288986D02*
X14251957Y-9187386D01*
X14251957Y-9187386D02*
X14280986Y-9187386D01*
X14280986Y-9187386D02*
X14288243Y-9192224D01*
X14288243Y-9192224D02*
X14291871Y-9197063D01*
X14291871Y-9197063D02*
X14295500Y-9206739D01*
X14295500Y-9206739D02*
X14295500Y-9221253D01*
X14295500Y-9221253D02*
X14291871Y-9230929D01*
X14291871Y-9230929D02*
X14288243Y-9235767D01*
X14288243Y-9235767D02*
X14280986Y-9240605D01*
X14280986Y-9240605D02*
X14251957Y-9240605D01*
X14339043Y-9230929D02*
X14331786Y-9226091D01*
X14331786Y-9226091D02*
X14328157Y-9221253D01*
X14328157Y-9221253D02*
X14324528Y-9211577D01*
X14324528Y-9211577D02*
X14324528Y-9206739D01*
X14324528Y-9206739D02*
X14328157Y-9197063D01*
X14328157Y-9197063D02*
X14331786Y-9192224D01*
X14331786Y-9192224D02*
X14339043Y-9187386D01*
X14339043Y-9187386D02*
X14353557Y-9187386D01*
X14353557Y-9187386D02*
X14360814Y-9192224D01*
X14360814Y-9192224D02*
X14364443Y-9197063D01*
X14364443Y-9197063D02*
X14368071Y-9206739D01*
X14368071Y-9206739D02*
X14368071Y-9211577D01*
X14368071Y-9211577D02*
X14364443Y-9221253D01*
X14364443Y-9221253D02*
X14360814Y-9226091D01*
X14360814Y-9226091D02*
X14353557Y-9230929D01*
X14353557Y-9230929D02*
X14339043Y-9230929D01*
X14339043Y-9230929D02*
X14331786Y-9235767D01*
X14331786Y-9235767D02*
X14328157Y-9240605D01*
X14328157Y-9240605D02*
X14324528Y-9250282D01*
X14324528Y-9250282D02*
X14324528Y-9269634D01*
X14324528Y-9269634D02*
X14328157Y-9279310D01*
X14328157Y-9279310D02*
X14331786Y-9284148D01*
X14331786Y-9284148D02*
X14339043Y-9288986D01*
X14339043Y-9288986D02*
X14353557Y-9288986D01*
X14353557Y-9288986D02*
X14360814Y-9284148D01*
X14360814Y-9284148D02*
X14364443Y-9279310D01*
X14364443Y-9279310D02*
X14368071Y-9269634D01*
X14368071Y-9269634D02*
X14368071Y-9250282D01*
X14368071Y-9250282D02*
X14364443Y-9240605D01*
X14364443Y-9240605D02*
X14360814Y-9235767D01*
X14360814Y-9235767D02*
X14353557Y-9230929D01*
X14206600Y-9350957D02*
X14232000Y-9452557D01*
X14232000Y-9452557D02*
X14257400Y-9350957D01*
X14326343Y-9442881D02*
X14322714Y-9447719D01*
X14322714Y-9447719D02*
X14311829Y-9452557D01*
X14311829Y-9452557D02*
X14304571Y-9452557D01*
X14304571Y-9452557D02*
X14293686Y-9447719D01*
X14293686Y-9447719D02*
X14286429Y-9438042D01*
X14286429Y-9438042D02*
X14282800Y-9428366D01*
X14282800Y-9428366D02*
X14279171Y-9409014D01*
X14279171Y-9409014D02*
X14279171Y-9394500D01*
X14279171Y-9394500D02*
X14282800Y-9375147D01*
X14282800Y-9375147D02*
X14286429Y-9365471D01*
X14286429Y-9365471D02*
X14293686Y-9355795D01*
X14293686Y-9355795D02*
X14304571Y-9350957D01*
X14304571Y-9350957D02*
X14311829Y-9350957D01*
X14311829Y-9350957D02*
X14322714Y-9355795D01*
X14322714Y-9355795D02*
X14326343Y-9360633D01*
X14402543Y-9442881D02*
X14398914Y-9447719D01*
X14398914Y-9447719D02*
X14388029Y-9452557D01*
X14388029Y-9452557D02*
X14380771Y-9452557D01*
X14380771Y-9452557D02*
X14369886Y-9447719D01*
X14369886Y-9447719D02*
X14362629Y-9438042D01*
X14362629Y-9438042D02*
X14359000Y-9428366D01*
X14359000Y-9428366D02*
X14355371Y-9409014D01*
X14355371Y-9409014D02*
X14355371Y-9394500D01*
X14355371Y-9394500D02*
X14359000Y-9375147D01*
X14359000Y-9375147D02*
X14362629Y-9365471D01*
X14362629Y-9365471D02*
X14369886Y-9355795D01*
X14369886Y-9355795D02*
X14380771Y-9350957D01*
X14380771Y-9350957D02*
X14388029Y-9350957D01*
X14388029Y-9350957D02*
X14398914Y-9355795D01*
X14398914Y-9355795D02*
X14402543Y-9360633D01*
X11649111Y-12777708D02*
X11547511Y-12777708D01*
X11547511Y-12777708D02*
X11547511Y-12748680D01*
X11547511Y-12748680D02*
X11552349Y-12741423D01*
X11552349Y-12741423D02*
X11557188Y-12737794D01*
X11557188Y-12737794D02*
X11566864Y-12734166D01*
X11566864Y-12734166D02*
X11581378Y-12734166D01*
X11581378Y-12734166D02*
X11591054Y-12737794D01*
X11591054Y-12737794D02*
X11595892Y-12741423D01*
X11595892Y-12741423D02*
X11600730Y-12748680D01*
X11600730Y-12748680D02*
X11600730Y-12777708D01*
X11557188Y-12705137D02*
X11552349Y-12701508D01*
X11552349Y-12701508D02*
X11547511Y-12694251D01*
X11547511Y-12694251D02*
X11547511Y-12676108D01*
X11547511Y-12676108D02*
X11552349Y-12668851D01*
X11552349Y-12668851D02*
X11557188Y-12665223D01*
X11557188Y-12665223D02*
X11566864Y-12661594D01*
X11566864Y-12661594D02*
X11576540Y-12661594D01*
X11576540Y-12661594D02*
X11591054Y-12665223D01*
X11591054Y-12665223D02*
X11649111Y-12708766D01*
X11649111Y-12708766D02*
X11649111Y-12661594D01*
X11591054Y-12618051D02*
X11586216Y-12625308D01*
X11586216Y-12625308D02*
X11581378Y-12628937D01*
X11581378Y-12628937D02*
X11571702Y-12632566D01*
X11571702Y-12632566D02*
X11566864Y-12632566D01*
X11566864Y-12632566D02*
X11557188Y-12628937D01*
X11557188Y-12628937D02*
X11552349Y-12625308D01*
X11552349Y-12625308D02*
X11547511Y-12618051D01*
X11547511Y-12618051D02*
X11547511Y-12603537D01*
X11547511Y-12603537D02*
X11552349Y-12596280D01*
X11552349Y-12596280D02*
X11557188Y-12592651D01*
X11557188Y-12592651D02*
X11566864Y-12589023D01*
X11566864Y-12589023D02*
X11571702Y-12589023D01*
X11571702Y-12589023D02*
X11581378Y-12592651D01*
X11581378Y-12592651D02*
X11586216Y-12596280D01*
X11586216Y-12596280D02*
X11591054Y-12603537D01*
X11591054Y-12603537D02*
X11591054Y-12618051D01*
X11591054Y-12618051D02*
X11595892Y-12625308D01*
X11595892Y-12625308D02*
X11600730Y-12628937D01*
X11600730Y-12628937D02*
X11610407Y-12632566D01*
X11610407Y-12632566D02*
X11629759Y-12632566D01*
X11629759Y-12632566D02*
X11639435Y-12628937D01*
X11639435Y-12628937D02*
X11644273Y-12625308D01*
X11644273Y-12625308D02*
X11649111Y-12618051D01*
X11649111Y-12618051D02*
X11649111Y-12603537D01*
X11649111Y-12603537D02*
X11644273Y-12596280D01*
X11644273Y-12596280D02*
X11639435Y-12592651D01*
X11639435Y-12592651D02*
X11629759Y-12589023D01*
X11629759Y-12589023D02*
X11610407Y-12589023D01*
X11610407Y-12589023D02*
X11600730Y-12592651D01*
X11600730Y-12592651D02*
X11595892Y-12596280D01*
X11595892Y-12596280D02*
X11591054Y-12603537D01*
X12920634Y-14354251D02*
X12920634Y-14252651D01*
X12920634Y-14252651D02*
X12949663Y-14252651D01*
X12949663Y-14252651D02*
X12956920Y-14257489D01*
X12956920Y-14257489D02*
X12960549Y-14262328D01*
X12960549Y-14262328D02*
X12964177Y-14272004D01*
X12964177Y-14272004D02*
X12964177Y-14286518D01*
X12964177Y-14286518D02*
X12960549Y-14296194D01*
X12960549Y-14296194D02*
X12956920Y-14301032D01*
X12956920Y-14301032D02*
X12949663Y-14305870D01*
X12949663Y-14305870D02*
X12920634Y-14305870D01*
X12993206Y-14262328D02*
X12996834Y-14257489D01*
X12996834Y-14257489D02*
X13004092Y-14252651D01*
X13004092Y-14252651D02*
X13022234Y-14252651D01*
X13022234Y-14252651D02*
X13029492Y-14257489D01*
X13029492Y-14257489D02*
X13033120Y-14262328D01*
X13033120Y-14262328D02*
X13036749Y-14272004D01*
X13036749Y-14272004D02*
X13036749Y-14281680D01*
X13036749Y-14281680D02*
X13033120Y-14296194D01*
X13033120Y-14296194D02*
X12989577Y-14354251D01*
X12989577Y-14354251D02*
X13036749Y-14354251D01*
X13105691Y-14252651D02*
X13069406Y-14252651D01*
X13069406Y-14252651D02*
X13065777Y-14301032D01*
X13065777Y-14301032D02*
X13069406Y-14296194D01*
X13069406Y-14296194D02*
X13076663Y-14291356D01*
X13076663Y-14291356D02*
X13094806Y-14291356D01*
X13094806Y-14291356D02*
X13102063Y-14296194D01*
X13102063Y-14296194D02*
X13105691Y-14301032D01*
X13105691Y-14301032D02*
X13109320Y-14310709D01*
X13109320Y-14310709D02*
X13109320Y-14334899D01*
X13109320Y-14334899D02*
X13105691Y-14344575D01*
X13105691Y-14344575D02*
X13102063Y-14349413D01*
X13102063Y-14349413D02*
X13094806Y-14354251D01*
X13094806Y-14354251D02*
X13076663Y-14354251D01*
X13076663Y-14354251D02*
X13069406Y-14349413D01*
X13069406Y-14349413D02*
X13065777Y-14344575D01*
X13294377Y-14354251D02*
X13258091Y-14354251D01*
X13258091Y-14354251D02*
X13258091Y-14252651D01*
X13319777Y-14354251D02*
X13319777Y-14252651D01*
X13319777Y-14252651D02*
X13348806Y-14252651D01*
X13348806Y-14252651D02*
X13356063Y-14257489D01*
X13356063Y-14257489D02*
X13359691Y-14262328D01*
X13359691Y-14262328D02*
X13363320Y-14272004D01*
X13363320Y-14272004D02*
X13363320Y-14286518D01*
X13363320Y-14286518D02*
X13359691Y-14296194D01*
X13359691Y-14296194D02*
X13356063Y-14301032D01*
X13356063Y-14301032D02*
X13348806Y-14305870D01*
X13348806Y-14305870D02*
X13319777Y-14305870D01*
X13439520Y-14344575D02*
X13435891Y-14349413D01*
X13435891Y-14349413D02*
X13425006Y-14354251D01*
X13425006Y-14354251D02*
X13417748Y-14354251D01*
X13417748Y-14354251D02*
X13406863Y-14349413D01*
X13406863Y-14349413D02*
X13399606Y-14339737D01*
X13399606Y-14339737D02*
X13395977Y-14330061D01*
X13395977Y-14330061D02*
X13392348Y-14310709D01*
X13392348Y-14310709D02*
X13392348Y-14296194D01*
X13392348Y-14296194D02*
X13395977Y-14276842D01*
X13395977Y-14276842D02*
X13399606Y-14267166D01*
X13399606Y-14267166D02*
X13406863Y-14257489D01*
X13406863Y-14257489D02*
X13417748Y-14252651D01*
X13417748Y-14252651D02*
X13425006Y-14252651D01*
X13425006Y-14252651D02*
X13435891Y-14257489D01*
X13435891Y-14257489D02*
X13439520Y-14262328D01*
X13454034Y-14363928D02*
X13512091Y-14363928D01*
X13530234Y-14354251D02*
X13530234Y-14252651D01*
X13562891Y-14349413D02*
X13573777Y-14354251D01*
X13573777Y-14354251D02*
X13591920Y-14354251D01*
X13591920Y-14354251D02*
X13599177Y-14349413D01*
X13599177Y-14349413D02*
X13602806Y-14344575D01*
X13602806Y-14344575D02*
X13606434Y-14334899D01*
X13606434Y-14334899D02*
X13606434Y-14325223D01*
X13606434Y-14325223D02*
X13602806Y-14315547D01*
X13602806Y-14315547D02*
X13599177Y-14310709D01*
X13599177Y-14310709D02*
X13591920Y-14305870D01*
X13591920Y-14305870D02*
X13577406Y-14301032D01*
X13577406Y-14301032D02*
X13570148Y-14296194D01*
X13570148Y-14296194D02*
X13566520Y-14291356D01*
X13566520Y-14291356D02*
X13562891Y-14281680D01*
X13562891Y-14281680D02*
X13562891Y-14272004D01*
X13562891Y-14272004D02*
X13566520Y-14262328D01*
X13566520Y-14262328D02*
X13570148Y-14257489D01*
X13570148Y-14257489D02*
X13577406Y-14252651D01*
X13577406Y-14252651D02*
X13595548Y-14252651D01*
X13595548Y-14252651D02*
X13606434Y-14257489D01*
X13639091Y-14354251D02*
X13639091Y-14252651D01*
X13639091Y-14252651D02*
X13668120Y-14252651D01*
X13668120Y-14252651D02*
X13675377Y-14257489D01*
X13675377Y-14257489D02*
X13679006Y-14262328D01*
X13679006Y-14262328D02*
X13682634Y-14272004D01*
X13682634Y-14272004D02*
X13682634Y-14286518D01*
X13682634Y-14286518D02*
X13679006Y-14296194D01*
X13679006Y-14296194D02*
X13675377Y-14301032D01*
X13675377Y-14301032D02*
X13668120Y-14305870D01*
X13668120Y-14305870D02*
X13639091Y-14305870D01*
X13073397Y-9931606D02*
X13073397Y-9830006D01*
X13073397Y-9830006D02*
X13102426Y-9830006D01*
X13102426Y-9830006D02*
X13109683Y-9834844D01*
X13109683Y-9834844D02*
X13113311Y-9839683D01*
X13113311Y-9839683D02*
X13116940Y-9849359D01*
X13116940Y-9849359D02*
X13116940Y-9863873D01*
X13116940Y-9863873D02*
X13113311Y-9873549D01*
X13113311Y-9873549D02*
X13109683Y-9878387D01*
X13109683Y-9878387D02*
X13102426Y-9883225D01*
X13102426Y-9883225D02*
X13073397Y-9883225D01*
X13142340Y-9830006D02*
X13189511Y-9830006D01*
X13189511Y-9830006D02*
X13164111Y-9868711D01*
X13164111Y-9868711D02*
X13174997Y-9868711D01*
X13174997Y-9868711D02*
X13182254Y-9873549D01*
X13182254Y-9873549D02*
X13185883Y-9878387D01*
X13185883Y-9878387D02*
X13189511Y-9888064D01*
X13189511Y-9888064D02*
X13189511Y-9912254D01*
X13189511Y-9912254D02*
X13185883Y-9921930D01*
X13185883Y-9921930D02*
X13182254Y-9926768D01*
X13182254Y-9926768D02*
X13174997Y-9931606D01*
X13174997Y-9931606D02*
X13153226Y-9931606D01*
X13153226Y-9931606D02*
X13145968Y-9926768D01*
X13145968Y-9926768D02*
X13142340Y-9921930D01*
X13071583Y-9998415D02*
X13064326Y-9993577D01*
X13064326Y-9993577D02*
X13053440Y-9993577D01*
X13053440Y-9993577D02*
X13042554Y-9998415D01*
X13042554Y-9998415D02*
X13035297Y-10008091D01*
X13035297Y-10008091D02*
X13031668Y-10017767D01*
X13031668Y-10017767D02*
X13028040Y-10037120D01*
X13028040Y-10037120D02*
X13028040Y-10051634D01*
X13028040Y-10051634D02*
X13031668Y-10070986D01*
X13031668Y-10070986D02*
X13035297Y-10080662D01*
X13035297Y-10080662D02*
X13042554Y-10090339D01*
X13042554Y-10090339D02*
X13053440Y-10095177D01*
X13053440Y-10095177D02*
X13060697Y-10095177D01*
X13060697Y-10095177D02*
X13071583Y-10090339D01*
X13071583Y-10090339D02*
X13075211Y-10085501D01*
X13075211Y-10085501D02*
X13075211Y-10051634D01*
X13075211Y-10051634D02*
X13060697Y-10051634D01*
X13107868Y-10095177D02*
X13107868Y-9993577D01*
X13107868Y-9993577D02*
X13151411Y-10095177D01*
X13151411Y-10095177D02*
X13151411Y-9993577D01*
X13187697Y-10095177D02*
X13187697Y-9993577D01*
X13187697Y-9993577D02*
X13205840Y-9993577D01*
X13205840Y-9993577D02*
X13216726Y-9998415D01*
X13216726Y-9998415D02*
X13223983Y-10008091D01*
X13223983Y-10008091D02*
X13227611Y-10017767D01*
X13227611Y-10017767D02*
X13231240Y-10037120D01*
X13231240Y-10037120D02*
X13231240Y-10051634D01*
X13231240Y-10051634D02*
X13227611Y-10070986D01*
X13227611Y-10070986D02*
X13223983Y-10080662D01*
X13223983Y-10080662D02*
X13216726Y-10090339D01*
X13216726Y-10090339D02*
X13205840Y-10095177D01*
X13205840Y-10095177D02*
X13187697Y-10095177D01*
X5436271Y-11797631D02*
X5387891Y-11823031D01*
X5436271Y-11841174D02*
X5334671Y-11841174D01*
X5334671Y-11841174D02*
X5334671Y-11812146D01*
X5334671Y-11812146D02*
X5339510Y-11804888D01*
X5339510Y-11804888D02*
X5344348Y-11801260D01*
X5344348Y-11801260D02*
X5354024Y-11797631D01*
X5354024Y-11797631D02*
X5368538Y-11797631D01*
X5368538Y-11797631D02*
X5378214Y-11801260D01*
X5378214Y-11801260D02*
X5383052Y-11804888D01*
X5383052Y-11804888D02*
X5387891Y-11812146D01*
X5387891Y-11812146D02*
X5387891Y-11841174D01*
X5383052Y-11739574D02*
X5383052Y-11764974D01*
X5436271Y-11764974D02*
X5334671Y-11764974D01*
X5334671Y-11764974D02*
X5334671Y-11728688D01*
X14065811Y-15146731D02*
X14065811Y-15045131D01*
X14065811Y-15045131D02*
X14094840Y-15045131D01*
X14094840Y-15045131D02*
X14102097Y-15049969D01*
X14102097Y-15049969D02*
X14105726Y-15054808D01*
X14105726Y-15054808D02*
X14109354Y-15064484D01*
X14109354Y-15064484D02*
X14109354Y-15078998D01*
X14109354Y-15078998D02*
X14105726Y-15088674D01*
X14105726Y-15088674D02*
X14102097Y-15093512D01*
X14102097Y-15093512D02*
X14094840Y-15098350D01*
X14094840Y-15098350D02*
X14065811Y-15098350D01*
X14138383Y-15054808D02*
X14142011Y-15049969D01*
X14142011Y-15049969D02*
X14149269Y-15045131D01*
X14149269Y-15045131D02*
X14167411Y-15045131D01*
X14167411Y-15045131D02*
X14174669Y-15049969D01*
X14174669Y-15049969D02*
X14178297Y-15054808D01*
X14178297Y-15054808D02*
X14181926Y-15064484D01*
X14181926Y-15064484D02*
X14181926Y-15074160D01*
X14181926Y-15074160D02*
X14178297Y-15088674D01*
X14178297Y-15088674D02*
X14134754Y-15146731D01*
X14134754Y-15146731D02*
X14181926Y-15146731D01*
X14210954Y-15054808D02*
X14214583Y-15049969D01*
X14214583Y-15049969D02*
X14221840Y-15045131D01*
X14221840Y-15045131D02*
X14239983Y-15045131D01*
X14239983Y-15045131D02*
X14247240Y-15049969D01*
X14247240Y-15049969D02*
X14250868Y-15054808D01*
X14250868Y-15054808D02*
X14254497Y-15064484D01*
X14254497Y-15064484D02*
X14254497Y-15074160D01*
X14254497Y-15074160D02*
X14250868Y-15088674D01*
X14250868Y-15088674D02*
X14207326Y-15146731D01*
X14207326Y-15146731D02*
X14254497Y-15146731D01*
X5436271Y-12690260D02*
X5387891Y-12715660D01*
X5436271Y-12733803D02*
X5334671Y-12733803D01*
X5334671Y-12733803D02*
X5334671Y-12704774D01*
X5334671Y-12704774D02*
X5339510Y-12697517D01*
X5339510Y-12697517D02*
X5344348Y-12693888D01*
X5344348Y-12693888D02*
X5354024Y-12690260D01*
X5354024Y-12690260D02*
X5368538Y-12690260D01*
X5368538Y-12690260D02*
X5378214Y-12693888D01*
X5378214Y-12693888D02*
X5383052Y-12697517D01*
X5383052Y-12697517D02*
X5387891Y-12704774D01*
X5387891Y-12704774D02*
X5387891Y-12733803D01*
X5334671Y-12664860D02*
X5436271Y-12614060D01*
X5334671Y-12614060D02*
X5436271Y-12664860D01*
X8636017Y-10818571D02*
X8636017Y-10716971D01*
X8636017Y-10716971D02*
X8665046Y-10716971D01*
X8665046Y-10716971D02*
X8672303Y-10721810D01*
X8672303Y-10721810D02*
X8675931Y-10726648D01*
X8675931Y-10726648D02*
X8679560Y-10736324D01*
X8679560Y-10736324D02*
X8679560Y-10750838D01*
X8679560Y-10750838D02*
X8675931Y-10760514D01*
X8675931Y-10760514D02*
X8672303Y-10765352D01*
X8672303Y-10765352D02*
X8665046Y-10770191D01*
X8665046Y-10770191D02*
X8636017Y-10770191D01*
X8715846Y-10818571D02*
X8730360Y-10818571D01*
X8730360Y-10818571D02*
X8737617Y-10813733D01*
X8737617Y-10813733D02*
X8741246Y-10808895D01*
X8741246Y-10808895D02*
X8748503Y-10794381D01*
X8748503Y-10794381D02*
X8752131Y-10775029D01*
X8752131Y-10775029D02*
X8752131Y-10736324D01*
X8752131Y-10736324D02*
X8748503Y-10726648D01*
X8748503Y-10726648D02*
X8744874Y-10721810D01*
X8744874Y-10721810D02*
X8737617Y-10716971D01*
X8737617Y-10716971D02*
X8723103Y-10716971D01*
X8723103Y-10716971D02*
X8715846Y-10721810D01*
X8715846Y-10721810D02*
X8712217Y-10726648D01*
X8712217Y-10726648D02*
X8708589Y-10736324D01*
X8708589Y-10736324D02*
X8708589Y-10760514D01*
X8708589Y-10760514D02*
X8712217Y-10770191D01*
X8712217Y-10770191D02*
X8715846Y-10775029D01*
X8715846Y-10775029D02*
X8723103Y-10779867D01*
X8723103Y-10779867D02*
X8737617Y-10779867D01*
X8737617Y-10779867D02*
X8744874Y-10775029D01*
X8744874Y-10775029D02*
X8748503Y-10770191D01*
X8748503Y-10770191D02*
X8752131Y-10760514D01*
X16479686Y-13946108D02*
X16378086Y-13946108D01*
X16378086Y-13946108D02*
X16378086Y-13917080D01*
X16378086Y-13917080D02*
X16382924Y-13909823D01*
X16382924Y-13909823D02*
X16387762Y-13906194D01*
X16387762Y-13906194D02*
X16397439Y-13902566D01*
X16397439Y-13902566D02*
X16411953Y-13902566D01*
X16411953Y-13902566D02*
X16421629Y-13906194D01*
X16421629Y-13906194D02*
X16426467Y-13909823D01*
X16426467Y-13909823D02*
X16431305Y-13917080D01*
X16431305Y-13917080D02*
X16431305Y-13946108D01*
X16479686Y-13829994D02*
X16479686Y-13873537D01*
X16479686Y-13851766D02*
X16378086Y-13851766D01*
X16378086Y-13851766D02*
X16392601Y-13859023D01*
X16392601Y-13859023D02*
X16402277Y-13866280D01*
X16402277Y-13866280D02*
X16407115Y-13873537D01*
X16378086Y-13764680D02*
X16378086Y-13779194D01*
X16378086Y-13779194D02*
X16382924Y-13786451D01*
X16382924Y-13786451D02*
X16387762Y-13790080D01*
X16387762Y-13790080D02*
X16402277Y-13797337D01*
X16402277Y-13797337D02*
X16421629Y-13800966D01*
X16421629Y-13800966D02*
X16460334Y-13800966D01*
X16460334Y-13800966D02*
X16470010Y-13797337D01*
X16470010Y-13797337D02*
X16474848Y-13793708D01*
X16474848Y-13793708D02*
X16479686Y-13786451D01*
X16479686Y-13786451D02*
X16479686Y-13771937D01*
X16479686Y-13771937D02*
X16474848Y-13764680D01*
X16474848Y-13764680D02*
X16470010Y-13761051D01*
X16470010Y-13761051D02*
X16460334Y-13757423D01*
X16460334Y-13757423D02*
X16436143Y-13757423D01*
X16436143Y-13757423D02*
X16426467Y-13761051D01*
X16426467Y-13761051D02*
X16421629Y-13764680D01*
X16421629Y-13764680D02*
X16416791Y-13771937D01*
X16416791Y-13771937D02*
X16416791Y-13786451D01*
X16416791Y-13786451D02*
X16421629Y-13793708D01*
X16421629Y-13793708D02*
X16426467Y-13797337D01*
X16426467Y-13797337D02*
X16436143Y-13800966D01*
X16633580Y-13956994D02*
X16638419Y-13960623D01*
X16638419Y-13960623D02*
X16643257Y-13971508D01*
X16643257Y-13971508D02*
X16643257Y-13978766D01*
X16643257Y-13978766D02*
X16638419Y-13989651D01*
X16638419Y-13989651D02*
X16628742Y-13996908D01*
X16628742Y-13996908D02*
X16619066Y-14000537D01*
X16619066Y-14000537D02*
X16599714Y-14004166D01*
X16599714Y-14004166D02*
X16585199Y-14004166D01*
X16585199Y-14004166D02*
X16565847Y-14000537D01*
X16565847Y-14000537D02*
X16556171Y-13996908D01*
X16556171Y-13996908D02*
X16546495Y-13989651D01*
X16546495Y-13989651D02*
X16541657Y-13978766D01*
X16541657Y-13978766D02*
X16541657Y-13971508D01*
X16541657Y-13971508D02*
X16546495Y-13960623D01*
X16546495Y-13960623D02*
X16551333Y-13956994D01*
X16643257Y-13888051D02*
X16643257Y-13924337D01*
X16643257Y-13924337D02*
X16541657Y-13924337D01*
X16643257Y-13862651D02*
X16541657Y-13862651D01*
X16643257Y-13819108D02*
X16585199Y-13851766D01*
X16541657Y-13819108D02*
X16599714Y-13862651D01*
X16643257Y-13786451D02*
X16541657Y-13786451D01*
X16643257Y-13750166D02*
X16541657Y-13750166D01*
X16541657Y-13750166D02*
X16643257Y-13706623D01*
X16643257Y-13706623D02*
X16541657Y-13706623D01*
X5598271Y-10758089D02*
X5496671Y-10758089D01*
X5496671Y-10758089D02*
X5496671Y-10739946D01*
X5496671Y-10739946D02*
X5501510Y-10729060D01*
X5501510Y-10729060D02*
X5511186Y-10721803D01*
X5511186Y-10721803D02*
X5520862Y-10718174D01*
X5520862Y-10718174D02*
X5540214Y-10714546D01*
X5540214Y-10714546D02*
X5554729Y-10714546D01*
X5554729Y-10714546D02*
X5574081Y-10718174D01*
X5574081Y-10718174D02*
X5583757Y-10721803D01*
X5583757Y-10721803D02*
X5593433Y-10729060D01*
X5593433Y-10729060D02*
X5598271Y-10739946D01*
X5598271Y-10739946D02*
X5598271Y-10758089D01*
X5545052Y-10656489D02*
X5545052Y-10681889D01*
X5598271Y-10681889D02*
X5496671Y-10681889D01*
X5496671Y-10681889D02*
X5496671Y-10645603D01*
X5496671Y-10616574D02*
X5578919Y-10616574D01*
X5578919Y-10616574D02*
X5588595Y-10612946D01*
X5588595Y-10612946D02*
X5593433Y-10609317D01*
X5593433Y-10609317D02*
X5598271Y-10602060D01*
X5598271Y-10602060D02*
X5598271Y-10587546D01*
X5598271Y-10587546D02*
X5593433Y-10580289D01*
X5593433Y-10580289D02*
X5588595Y-10576660D01*
X5588595Y-10576660D02*
X5578919Y-10573031D01*
X5578919Y-10573031D02*
X5496671Y-10573031D01*
X16472066Y-12060703D02*
X16370466Y-12060703D01*
X16370466Y-12060703D02*
X16370466Y-12031674D01*
X16370466Y-12031674D02*
X16375304Y-12024417D01*
X16375304Y-12024417D02*
X16380142Y-12020788D01*
X16380142Y-12020788D02*
X16389819Y-12017160D01*
X16389819Y-12017160D02*
X16404333Y-12017160D01*
X16404333Y-12017160D02*
X16414009Y-12020788D01*
X16414009Y-12020788D02*
X16418847Y-12024417D01*
X16418847Y-12024417D02*
X16423685Y-12031674D01*
X16423685Y-12031674D02*
X16423685Y-12060703D01*
X16380142Y-11988131D02*
X16375304Y-11984503D01*
X16375304Y-11984503D02*
X16370466Y-11977246D01*
X16370466Y-11977246D02*
X16370466Y-11959103D01*
X16370466Y-11959103D02*
X16375304Y-11951846D01*
X16375304Y-11951846D02*
X16380142Y-11948217D01*
X16380142Y-11948217D02*
X16389819Y-11944588D01*
X16389819Y-11944588D02*
X16399495Y-11944588D01*
X16399495Y-11944588D02*
X16414009Y-11948217D01*
X16414009Y-11948217D02*
X16472066Y-11991760D01*
X16472066Y-11991760D02*
X16472066Y-11944588D01*
X16625960Y-12158674D02*
X16630799Y-12162303D01*
X16630799Y-12162303D02*
X16635637Y-12173188D01*
X16635637Y-12173188D02*
X16635637Y-12180446D01*
X16635637Y-12180446D02*
X16630799Y-12191331D01*
X16630799Y-12191331D02*
X16621122Y-12198588D01*
X16621122Y-12198588D02*
X16611446Y-12202217D01*
X16611446Y-12202217D02*
X16592094Y-12205846D01*
X16592094Y-12205846D02*
X16577579Y-12205846D01*
X16577579Y-12205846D02*
X16558227Y-12202217D01*
X16558227Y-12202217D02*
X16548551Y-12198588D01*
X16548551Y-12198588D02*
X16538875Y-12191331D01*
X16538875Y-12191331D02*
X16534037Y-12180446D01*
X16534037Y-12180446D02*
X16534037Y-12173188D01*
X16534037Y-12173188D02*
X16538875Y-12162303D01*
X16538875Y-12162303D02*
X16543713Y-12158674D01*
X16635637Y-12089731D02*
X16635637Y-12126017D01*
X16635637Y-12126017D02*
X16534037Y-12126017D01*
X16635637Y-12064331D02*
X16534037Y-12064331D01*
X16635637Y-12020788D02*
X16577579Y-12053446D01*
X16534037Y-12020788D02*
X16592094Y-12064331D01*
X16534037Y-11973617D02*
X16534037Y-11959103D01*
X16534037Y-11959103D02*
X16538875Y-11951846D01*
X16538875Y-11951846D02*
X16548551Y-11944588D01*
X16548551Y-11944588D02*
X16567903Y-11940960D01*
X16567903Y-11940960D02*
X16601770Y-11940960D01*
X16601770Y-11940960D02*
X16621122Y-11944588D01*
X16621122Y-11944588D02*
X16630799Y-11951846D01*
X16630799Y-11951846D02*
X16635637Y-11959103D01*
X16635637Y-11959103D02*
X16635637Y-11973617D01*
X16635637Y-11973617D02*
X16630799Y-11980874D01*
X16630799Y-11980874D02*
X16621122Y-11988131D01*
X16621122Y-11988131D02*
X16601770Y-11991760D01*
X16601770Y-11991760D02*
X16567903Y-11991760D01*
X16567903Y-11991760D02*
X16548551Y-11988131D01*
X16548551Y-11988131D02*
X16538875Y-11980874D01*
X16538875Y-11980874D02*
X16534037Y-11973617D01*
X16534037Y-11908303D02*
X16616284Y-11908303D01*
X16616284Y-11908303D02*
X16625960Y-11904674D01*
X16625960Y-11904674D02*
X16630799Y-11901046D01*
X16630799Y-11901046D02*
X16635637Y-11893788D01*
X16635637Y-11893788D02*
X16635637Y-11879274D01*
X16635637Y-11879274D02*
X16630799Y-11872017D01*
X16630799Y-11872017D02*
X16625960Y-11868388D01*
X16625960Y-11868388D02*
X16616284Y-11864760D01*
X16616284Y-11864760D02*
X16534037Y-11864760D01*
X16534037Y-11839360D02*
X16534037Y-11795817D01*
X16635637Y-11817588D02*
X16534037Y-11817588D01*
X13617106Y-10133569D02*
X13515506Y-10133569D01*
X13515506Y-10133569D02*
X13515506Y-10104540D01*
X13515506Y-10104540D02*
X13520344Y-10097283D01*
X13520344Y-10097283D02*
X13525182Y-10093654D01*
X13525182Y-10093654D02*
X13534859Y-10090026D01*
X13534859Y-10090026D02*
X13549373Y-10090026D01*
X13549373Y-10090026D02*
X13559049Y-10093654D01*
X13559049Y-10093654D02*
X13563887Y-10097283D01*
X13563887Y-10097283D02*
X13568725Y-10104540D01*
X13568725Y-10104540D02*
X13568725Y-10133569D01*
X13525182Y-10060997D02*
X13520344Y-10057369D01*
X13520344Y-10057369D02*
X13515506Y-10050111D01*
X13515506Y-10050111D02*
X13515506Y-10031969D01*
X13515506Y-10031969D02*
X13520344Y-10024711D01*
X13520344Y-10024711D02*
X13525182Y-10021083D01*
X13525182Y-10021083D02*
X13534859Y-10017454D01*
X13534859Y-10017454D02*
X13544535Y-10017454D01*
X13544535Y-10017454D02*
X13559049Y-10021083D01*
X13559049Y-10021083D02*
X13617106Y-10064626D01*
X13617106Y-10064626D02*
X13617106Y-10017454D01*
X13515506Y-9952140D02*
X13515506Y-9966654D01*
X13515506Y-9966654D02*
X13520344Y-9973911D01*
X13520344Y-9973911D02*
X13525182Y-9977540D01*
X13525182Y-9977540D02*
X13539697Y-9984797D01*
X13539697Y-9984797D02*
X13559049Y-9988426D01*
X13559049Y-9988426D02*
X13597754Y-9988426D01*
X13597754Y-9988426D02*
X13607430Y-9984797D01*
X13607430Y-9984797D02*
X13612268Y-9981169D01*
X13612268Y-9981169D02*
X13617106Y-9973911D01*
X13617106Y-9973911D02*
X13617106Y-9959397D01*
X13617106Y-9959397D02*
X13612268Y-9952140D01*
X13612268Y-9952140D02*
X13607430Y-9948511D01*
X13607430Y-9948511D02*
X13597754Y-9944883D01*
X13597754Y-9944883D02*
X13573563Y-9944883D01*
X13573563Y-9944883D02*
X13563887Y-9948511D01*
X13563887Y-9948511D02*
X13559049Y-9952140D01*
X13559049Y-9952140D02*
X13554211Y-9959397D01*
X13554211Y-9959397D02*
X13554211Y-9973911D01*
X13554211Y-9973911D02*
X13559049Y-9981169D01*
X13559049Y-9981169D02*
X13563887Y-9984797D01*
X13563887Y-9984797D02*
X13573563Y-9988426D01*
X13780677Y-10251497D02*
X13780677Y-10287783D01*
X13780677Y-10287783D02*
X13679077Y-10287783D01*
X13780677Y-10226097D02*
X13679077Y-10226097D01*
X13679077Y-10226097D02*
X13679077Y-10197068D01*
X13679077Y-10197068D02*
X13683915Y-10189811D01*
X13683915Y-10189811D02*
X13688753Y-10186183D01*
X13688753Y-10186183D02*
X13698429Y-10182554D01*
X13698429Y-10182554D02*
X13712943Y-10182554D01*
X13712943Y-10182554D02*
X13722619Y-10186183D01*
X13722619Y-10186183D02*
X13727458Y-10189811D01*
X13727458Y-10189811D02*
X13732296Y-10197068D01*
X13732296Y-10197068D02*
X13732296Y-10226097D01*
X13771000Y-10106354D02*
X13775839Y-10109983D01*
X13775839Y-10109983D02*
X13780677Y-10120868D01*
X13780677Y-10120868D02*
X13780677Y-10128126D01*
X13780677Y-10128126D02*
X13775839Y-10139011D01*
X13775839Y-10139011D02*
X13766162Y-10146268D01*
X13766162Y-10146268D02*
X13756486Y-10149897D01*
X13756486Y-10149897D02*
X13737134Y-10153526D01*
X13737134Y-10153526D02*
X13722619Y-10153526D01*
X13722619Y-10153526D02*
X13703267Y-10149897D01*
X13703267Y-10149897D02*
X13693591Y-10146268D01*
X13693591Y-10146268D02*
X13683915Y-10139011D01*
X13683915Y-10139011D02*
X13679077Y-10128126D01*
X13679077Y-10128126D02*
X13679077Y-10120868D01*
X13679077Y-10120868D02*
X13683915Y-10109983D01*
X13683915Y-10109983D02*
X13688753Y-10106354D01*
X13790353Y-10091840D02*
X13790353Y-10033783D01*
X13679077Y-9993869D02*
X13751648Y-9993869D01*
X13751648Y-9993869D02*
X13766162Y-9997497D01*
X13766162Y-9997497D02*
X13775839Y-10004754D01*
X13775839Y-10004754D02*
X13780677Y-10015640D01*
X13780677Y-10015640D02*
X13780677Y-10022897D01*
X13679077Y-9968469D02*
X13679077Y-9924926D01*
X13780677Y-9946697D02*
X13679077Y-9946697D01*
X13751648Y-9903154D02*
X13751648Y-9866869D01*
X13780677Y-9910411D02*
X13679077Y-9885011D01*
X13679077Y-9885011D02*
X13780677Y-9859611D01*
X13683915Y-9794297D02*
X13679077Y-9801554D01*
X13679077Y-9801554D02*
X13679077Y-9812440D01*
X13679077Y-9812440D02*
X13683915Y-9823326D01*
X13683915Y-9823326D02*
X13693591Y-9830583D01*
X13693591Y-9830583D02*
X13703267Y-9834211D01*
X13703267Y-9834211D02*
X13722619Y-9837840D01*
X13722619Y-9837840D02*
X13737134Y-9837840D01*
X13737134Y-9837840D02*
X13756486Y-9834211D01*
X13756486Y-9834211D02*
X13766162Y-9830583D01*
X13766162Y-9830583D02*
X13775839Y-9823326D01*
X13775839Y-9823326D02*
X13780677Y-9812440D01*
X13780677Y-9812440D02*
X13780677Y-9805183D01*
X13780677Y-9805183D02*
X13775839Y-9794297D01*
X13775839Y-9794297D02*
X13771000Y-9790669D01*
X13771000Y-9790669D02*
X13737134Y-9790669D01*
X13737134Y-9790669D02*
X13737134Y-9805183D01*
X13291111Y-8512251D02*
X13291111Y-8410651D01*
X13291111Y-8410651D02*
X13320140Y-8410651D01*
X13320140Y-8410651D02*
X13327397Y-8415490D01*
X13327397Y-8415490D02*
X13331026Y-8420328D01*
X13331026Y-8420328D02*
X13334654Y-8430004D01*
X13334654Y-8430004D02*
X13334654Y-8444518D01*
X13334654Y-8444518D02*
X13331026Y-8454194D01*
X13331026Y-8454194D02*
X13327397Y-8459032D01*
X13327397Y-8459032D02*
X13320140Y-8463871D01*
X13320140Y-8463871D02*
X13291111Y-8463871D01*
X13360054Y-8410651D02*
X13407226Y-8410651D01*
X13407226Y-8410651D02*
X13381826Y-8449356D01*
X13381826Y-8449356D02*
X13392711Y-8449356D01*
X13392711Y-8449356D02*
X13399969Y-8454194D01*
X13399969Y-8454194D02*
X13403597Y-8459032D01*
X13403597Y-8459032D02*
X13407226Y-8468709D01*
X13407226Y-8468709D02*
X13407226Y-8492899D01*
X13407226Y-8492899D02*
X13403597Y-8502575D01*
X13403597Y-8502575D02*
X13399969Y-8507413D01*
X13399969Y-8507413D02*
X13392711Y-8512251D01*
X13392711Y-8512251D02*
X13370940Y-8512251D01*
X13370940Y-8512251D02*
X13363683Y-8507413D01*
X13363683Y-8507413D02*
X13360054Y-8502575D01*
X13454397Y-8410651D02*
X13461654Y-8410651D01*
X13461654Y-8410651D02*
X13468911Y-8415490D01*
X13468911Y-8415490D02*
X13472540Y-8420328D01*
X13472540Y-8420328D02*
X13476169Y-8430004D01*
X13476169Y-8430004D02*
X13479797Y-8449356D01*
X13479797Y-8449356D02*
X13479797Y-8473547D01*
X13479797Y-8473547D02*
X13476169Y-8492899D01*
X13476169Y-8492899D02*
X13472540Y-8502575D01*
X13472540Y-8502575D02*
X13468911Y-8507413D01*
X13468911Y-8507413D02*
X13461654Y-8512251D01*
X13461654Y-8512251D02*
X13454397Y-8512251D01*
X13454397Y-8512251D02*
X13447140Y-8507413D01*
X13447140Y-8507413D02*
X13443511Y-8502575D01*
X13443511Y-8502575D02*
X13439883Y-8492899D01*
X13439883Y-8492899D02*
X13436254Y-8473547D01*
X13436254Y-8473547D02*
X13436254Y-8449356D01*
X13436254Y-8449356D02*
X13439883Y-8430004D01*
X13439883Y-8430004D02*
X13443511Y-8420328D01*
X13443511Y-8420328D02*
X13447140Y-8415490D01*
X13447140Y-8415490D02*
X13454397Y-8410651D01*
X13653968Y-8459032D02*
X13664854Y-8463871D01*
X13664854Y-8463871D02*
X13668483Y-8468709D01*
X13668483Y-8468709D02*
X13672111Y-8478385D01*
X13672111Y-8478385D02*
X13672111Y-8492899D01*
X13672111Y-8492899D02*
X13668483Y-8502575D01*
X13668483Y-8502575D02*
X13664854Y-8507413D01*
X13664854Y-8507413D02*
X13657597Y-8512251D01*
X13657597Y-8512251D02*
X13628568Y-8512251D01*
X13628568Y-8512251D02*
X13628568Y-8410651D01*
X13628568Y-8410651D02*
X13653968Y-8410651D01*
X13653968Y-8410651D02*
X13661226Y-8415490D01*
X13661226Y-8415490D02*
X13664854Y-8420328D01*
X13664854Y-8420328D02*
X13668483Y-8430004D01*
X13668483Y-8430004D02*
X13668483Y-8439680D01*
X13668483Y-8439680D02*
X13664854Y-8449356D01*
X13664854Y-8449356D02*
X13661226Y-8454194D01*
X13661226Y-8454194D02*
X13653968Y-8459032D01*
X13653968Y-8459032D02*
X13628568Y-8459032D01*
X13701140Y-8483223D02*
X13737426Y-8483223D01*
X13693883Y-8512251D02*
X13719283Y-8410651D01*
X13719283Y-8410651D02*
X13744683Y-8512251D01*
X13770083Y-8512251D02*
X13770083Y-8410651D01*
X13770083Y-8410651D02*
X13813626Y-8512251D01*
X13813626Y-8512251D02*
X13813626Y-8410651D01*
X13849911Y-8512251D02*
X13849911Y-8410651D01*
X13893454Y-8512251D02*
X13860797Y-8454194D01*
X13893454Y-8410651D02*
X13849911Y-8468709D01*
X13922483Y-8420328D02*
X13926111Y-8415490D01*
X13926111Y-8415490D02*
X13933369Y-8410651D01*
X13933369Y-8410651D02*
X13951511Y-8410651D01*
X13951511Y-8410651D02*
X13958769Y-8415490D01*
X13958769Y-8415490D02*
X13962397Y-8420328D01*
X13962397Y-8420328D02*
X13966026Y-8430004D01*
X13966026Y-8430004D02*
X13966026Y-8439680D01*
X13966026Y-8439680D02*
X13962397Y-8454194D01*
X13962397Y-8454194D02*
X13918854Y-8512251D01*
X13918854Y-8512251D02*
X13966026Y-8512251D01*
X13980540Y-8521928D02*
X14038597Y-8521928D01*
X14053111Y-8483223D02*
X14089397Y-8483223D01*
X14045854Y-8512251D02*
X14071254Y-8410651D01*
X14071254Y-8410651D02*
X14096654Y-8512251D01*
X14122054Y-8410651D02*
X14122054Y-8492899D01*
X14122054Y-8492899D02*
X14125683Y-8502575D01*
X14125683Y-8502575D02*
X14129311Y-8507413D01*
X14129311Y-8507413D02*
X14136568Y-8512251D01*
X14136568Y-8512251D02*
X14151083Y-8512251D01*
X14151083Y-8512251D02*
X14158340Y-8507413D01*
X14158340Y-8507413D02*
X14161968Y-8502575D01*
X14161968Y-8502575D02*
X14165597Y-8492899D01*
X14165597Y-8492899D02*
X14165597Y-8410651D01*
X14194626Y-8410651D02*
X14245426Y-8512251D01*
X14245426Y-8410651D02*
X14194626Y-8512251D01*
X16513211Y-11734494D02*
X16411611Y-11734494D01*
X16411611Y-11734494D02*
X16411611Y-11705466D01*
X16411611Y-11705466D02*
X16416449Y-11698208D01*
X16416449Y-11698208D02*
X16421288Y-11694580D01*
X16421288Y-11694580D02*
X16430964Y-11690951D01*
X16430964Y-11690951D02*
X16445478Y-11690951D01*
X16445478Y-11690951D02*
X16455154Y-11694580D01*
X16455154Y-11694580D02*
X16459992Y-11698208D01*
X16459992Y-11698208D02*
X16464830Y-11705466D01*
X16464830Y-11705466D02*
X16464830Y-11734494D01*
X16455154Y-11647408D02*
X16450316Y-11654666D01*
X16450316Y-11654666D02*
X16445478Y-11658294D01*
X16445478Y-11658294D02*
X16435802Y-11661923D01*
X16435802Y-11661923D02*
X16430964Y-11661923D01*
X16430964Y-11661923D02*
X16421288Y-11658294D01*
X16421288Y-11658294D02*
X16416449Y-11654666D01*
X16416449Y-11654666D02*
X16411611Y-11647408D01*
X16411611Y-11647408D02*
X16411611Y-11632894D01*
X16411611Y-11632894D02*
X16416449Y-11625637D01*
X16416449Y-11625637D02*
X16421288Y-11622008D01*
X16421288Y-11622008D02*
X16430964Y-11618380D01*
X16430964Y-11618380D02*
X16435802Y-11618380D01*
X16435802Y-11618380D02*
X16445478Y-11622008D01*
X16445478Y-11622008D02*
X16450316Y-11625637D01*
X16450316Y-11625637D02*
X16455154Y-11632894D01*
X16455154Y-11632894D02*
X16455154Y-11647408D01*
X16455154Y-11647408D02*
X16459992Y-11654666D01*
X16459992Y-11654666D02*
X16464830Y-11658294D01*
X16464830Y-11658294D02*
X16474507Y-11661923D01*
X16474507Y-11661923D02*
X16493859Y-11661923D01*
X16493859Y-11661923D02*
X16503535Y-11658294D01*
X16503535Y-11658294D02*
X16508373Y-11654666D01*
X16508373Y-11654666D02*
X16513211Y-11647408D01*
X16513211Y-11647408D02*
X16513211Y-11632894D01*
X16513211Y-11632894D02*
X16508373Y-11625637D01*
X16508373Y-11625637D02*
X16503535Y-11622008D01*
X16503535Y-11622008D02*
X16493859Y-11618380D01*
X16493859Y-11618380D02*
X16474507Y-11618380D01*
X16474507Y-11618380D02*
X16464830Y-11622008D01*
X16464830Y-11622008D02*
X16459992Y-11625637D01*
X16459992Y-11625637D02*
X16455154Y-11632894D01*
X16411611Y-11571208D02*
X16411611Y-11563951D01*
X16411611Y-11563951D02*
X16416449Y-11556694D01*
X16416449Y-11556694D02*
X16421288Y-11553066D01*
X16421288Y-11553066D02*
X16430964Y-11549437D01*
X16430964Y-11549437D02*
X16450316Y-11545808D01*
X16450316Y-11545808D02*
X16474507Y-11545808D01*
X16474507Y-11545808D02*
X16493859Y-11549437D01*
X16493859Y-11549437D02*
X16503535Y-11553066D01*
X16503535Y-11553066D02*
X16508373Y-11556694D01*
X16508373Y-11556694D02*
X16513211Y-11563951D01*
X16513211Y-11563951D02*
X16513211Y-11571208D01*
X16513211Y-11571208D02*
X16508373Y-11578466D01*
X16508373Y-11578466D02*
X16503535Y-11582094D01*
X16503535Y-11582094D02*
X16493859Y-11585723D01*
X16493859Y-11585723D02*
X16474507Y-11589351D01*
X16474507Y-11589351D02*
X16450316Y-11589351D01*
X16450316Y-11589351D02*
X16430964Y-11585723D01*
X16430964Y-11585723D02*
X16421288Y-11582094D01*
X16421288Y-11582094D02*
X16416449Y-11578466D01*
X16416449Y-11578466D02*
X16411611Y-11571208D01*
X16508373Y-11458723D02*
X16513211Y-11447837D01*
X16513211Y-11447837D02*
X16513211Y-11429694D01*
X16513211Y-11429694D02*
X16508373Y-11422437D01*
X16508373Y-11422437D02*
X16503535Y-11418809D01*
X16503535Y-11418809D02*
X16493859Y-11415180D01*
X16493859Y-11415180D02*
X16484183Y-11415180D01*
X16484183Y-11415180D02*
X16474507Y-11418809D01*
X16474507Y-11418809D02*
X16469669Y-11422437D01*
X16469669Y-11422437D02*
X16464830Y-11429694D01*
X16464830Y-11429694D02*
X16459992Y-11444209D01*
X16459992Y-11444209D02*
X16455154Y-11451466D01*
X16455154Y-11451466D02*
X16450316Y-11455094D01*
X16450316Y-11455094D02*
X16440640Y-11458723D01*
X16440640Y-11458723D02*
X16430964Y-11458723D01*
X16430964Y-11458723D02*
X16421288Y-11455094D01*
X16421288Y-11455094D02*
X16416449Y-11451466D01*
X16416449Y-11451466D02*
X16411611Y-11444209D01*
X16411611Y-11444209D02*
X16411611Y-11426066D01*
X16411611Y-11426066D02*
X16416449Y-11415180D01*
X16513211Y-11382523D02*
X16411611Y-11382523D01*
X16459992Y-11382523D02*
X16459992Y-11338980D01*
X16513211Y-11338980D02*
X16411611Y-11338980D01*
X16513211Y-11302694D02*
X16411611Y-11302694D01*
X16459992Y-11266409D02*
X16459992Y-11241009D01*
X16513211Y-11230123D02*
X16513211Y-11266409D01*
X16513211Y-11266409D02*
X16411611Y-11266409D01*
X16411611Y-11266409D02*
X16411611Y-11230123D01*
X16513211Y-11161180D02*
X16513211Y-11197466D01*
X16513211Y-11197466D02*
X16411611Y-11197466D01*
X16513211Y-11135780D02*
X16411611Y-11135780D01*
X16411611Y-11135780D02*
X16411611Y-11117637D01*
X16411611Y-11117637D02*
X16416449Y-11106751D01*
X16416449Y-11106751D02*
X16426126Y-11099494D01*
X16426126Y-11099494D02*
X16435802Y-11095866D01*
X16435802Y-11095866D02*
X16455154Y-11092237D01*
X16455154Y-11092237D02*
X16469669Y-11092237D01*
X16469669Y-11092237D02*
X16489021Y-11095866D01*
X16489021Y-11095866D02*
X16498697Y-11099494D01*
X16498697Y-11099494D02*
X16508373Y-11106751D01*
X16508373Y-11106751D02*
X16513211Y-11117637D01*
X16513211Y-11117637D02*
X16513211Y-11135780D01*
X11863631Y-11308791D02*
X11863631Y-11207191D01*
X11863631Y-11207191D02*
X11892660Y-11207191D01*
X11892660Y-11207191D02*
X11899917Y-11212029D01*
X11899917Y-11212029D02*
X11903546Y-11216868D01*
X11903546Y-11216868D02*
X11907174Y-11226544D01*
X11907174Y-11226544D02*
X11907174Y-11241058D01*
X11907174Y-11241058D02*
X11903546Y-11250734D01*
X11903546Y-11250734D02*
X11899917Y-11255572D01*
X11899917Y-11255572D02*
X11892660Y-11260410D01*
X11892660Y-11260410D02*
X11863631Y-11260410D01*
X11936203Y-11216868D02*
X11939831Y-11212029D01*
X11939831Y-11212029D02*
X11947089Y-11207191D01*
X11947089Y-11207191D02*
X11965231Y-11207191D01*
X11965231Y-11207191D02*
X11972489Y-11212029D01*
X11972489Y-11212029D02*
X11976117Y-11216868D01*
X11976117Y-11216868D02*
X11979746Y-11226544D01*
X11979746Y-11226544D02*
X11979746Y-11236220D01*
X11979746Y-11236220D02*
X11976117Y-11250734D01*
X11976117Y-11250734D02*
X11932574Y-11308791D01*
X11932574Y-11308791D02*
X11979746Y-11308791D01*
X12016031Y-11308791D02*
X12030546Y-11308791D01*
X12030546Y-11308791D02*
X12037803Y-11303953D01*
X12037803Y-11303953D02*
X12041431Y-11299115D01*
X12041431Y-11299115D02*
X12048688Y-11284601D01*
X12048688Y-11284601D02*
X12052317Y-11265249D01*
X12052317Y-11265249D02*
X12052317Y-11226544D01*
X12052317Y-11226544D02*
X12048688Y-11216868D01*
X12048688Y-11216868D02*
X12045060Y-11212029D01*
X12045060Y-11212029D02*
X12037803Y-11207191D01*
X12037803Y-11207191D02*
X12023288Y-11207191D01*
X12023288Y-11207191D02*
X12016031Y-11212029D01*
X12016031Y-11212029D02*
X12012403Y-11216868D01*
X12012403Y-11216868D02*
X12008774Y-11226544D01*
X12008774Y-11226544D02*
X12008774Y-11250734D01*
X12008774Y-11250734D02*
X12012403Y-11260410D01*
X12012403Y-11260410D02*
X12016031Y-11265249D01*
X12016031Y-11265249D02*
X12023288Y-11270087D01*
X12023288Y-11270087D02*
X12037803Y-11270087D01*
X12037803Y-11270087D02*
X12045060Y-11265249D01*
X12045060Y-11265249D02*
X12048688Y-11260410D01*
X12048688Y-11260410D02*
X12052317Y-11250734D01*
X5334671Y-13192817D02*
X5334671Y-13149274D01*
X5436271Y-13171046D02*
X5334671Y-13171046D01*
X5334671Y-13131131D02*
X5436271Y-13080331D01*
X5334671Y-13080331D02*
X5436271Y-13131131D01*
D10*
G04 #@! TO.C,D6*
X4909260Y-13039360D02*
X4909260Y-13179360D01*
X4909260Y-13039360D02*
X4939260Y-13009360D01*
X4909260Y-13179360D02*
X4939260Y-13209360D01*
X4939260Y-12889360D02*
X4939260Y-13329360D01*
X4939260Y-13329360D02*
X5079260Y-13329360D01*
X4969260Y-13089360D02*
X5009260Y-13129360D01*
X5009260Y-13129360D02*
X5049260Y-13089360D01*
X5049260Y-13089360D02*
X4969260Y-13089360D01*
X5079260Y-12889360D02*
X4939260Y-12889360D01*
X5079260Y-13329360D02*
X5079260Y-12889360D01*
G04 #@! TO.C,D4*
X4909260Y-12124960D02*
X4909260Y-12264960D01*
X4909260Y-12124960D02*
X4939260Y-12094960D01*
X4909260Y-12264960D02*
X4939260Y-12294960D01*
X4939260Y-11974960D02*
X4939260Y-12414960D01*
X4939260Y-12414960D02*
X5079260Y-12414960D01*
X4969260Y-12174960D02*
X5009260Y-12214960D01*
X5009260Y-12214960D02*
X5049260Y-12174960D01*
X5049260Y-12174960D02*
X4969260Y-12174960D01*
X5079260Y-11974960D02*
X4939260Y-11974960D01*
X5079260Y-12414960D02*
X5079260Y-11974960D01*
G04 #@! TO.C,D8*
X4909260Y-11210560D02*
X4909260Y-11350560D01*
X4909260Y-11210560D02*
X4939260Y-11180560D01*
X4909260Y-11350560D02*
X4939260Y-11380560D01*
X4939260Y-11060560D02*
X4939260Y-11500560D01*
X4939260Y-11500560D02*
X5079260Y-11500560D01*
X4969260Y-11260560D02*
X5009260Y-11300560D01*
X5009260Y-11300560D02*
X5049260Y-11260560D01*
X5049260Y-11260560D02*
X4969260Y-11260560D01*
X5079260Y-11060560D02*
X4939260Y-11060560D01*
X5079260Y-11500560D02*
X5079260Y-11060560D01*
G04 #@! TO.C,D5*
X4909260Y-12582160D02*
X4909260Y-12722160D01*
X4909260Y-12582160D02*
X4939260Y-12552160D01*
X4909260Y-12722160D02*
X4939260Y-12752160D01*
X4939260Y-12432160D02*
X4939260Y-12872160D01*
X4939260Y-12872160D02*
X5079260Y-12872160D01*
X4969260Y-12632160D02*
X5009260Y-12672160D01*
X5009260Y-12672160D02*
X5049260Y-12632160D01*
X5049260Y-12632160D02*
X4969260Y-12632160D01*
X5079260Y-12432160D02*
X4939260Y-12432160D01*
X5079260Y-12872160D02*
X5079260Y-12432160D01*
G04 #@! TO.C,D2*
X4909260Y-11667760D02*
X4909260Y-11807760D01*
X4909260Y-11667760D02*
X4939260Y-11637760D01*
X4909260Y-11807760D02*
X4939260Y-11837760D01*
X4939260Y-11517760D02*
X4939260Y-11957760D01*
X4939260Y-11957760D02*
X5079260Y-11957760D01*
X4969260Y-11717760D02*
X5009260Y-11757760D01*
X5009260Y-11757760D02*
X5049260Y-11717760D01*
X5049260Y-11717760D02*
X4969260Y-11717760D01*
X5079260Y-11517760D02*
X4939260Y-11517760D01*
X5079260Y-11957760D02*
X5079260Y-11517760D01*
G04 #@! TO.C,TESTPOINT-30MIL-MASKONLY*
X7863662Y-12475468D02*
G75*
G02*
X7763662Y-12475468I-50000J0D01*
G01*
X7763662Y-12475468D02*
G75*
G02*
X7863662Y-12475468I50000J0D01*
G01*
X7342720Y-13391300D02*
G75*
G02*
X7242720Y-13391300I-50000J0D01*
G01*
X7242720Y-13391300D02*
G75*
G02*
X7342720Y-13391300I50000J0D01*
G01*
X6489776Y-12646918D02*
G75*
G02*
X6389776Y-12646918I-50000J0D01*
G01*
X6389776Y-12646918D02*
G75*
G02*
X6489776Y-12646918I50000J0D01*
G01*
X6337630Y-12840720D02*
G75*
G02*
X6237630Y-12840720I-50000J0D01*
G01*
X6237630Y-12840720D02*
G75*
G02*
X6337630Y-12840720I50000J0D01*
G01*
X8310460Y-12118760D02*
G75*
G02*
X8210460Y-12118760I-50000J0D01*
G01*
X8210460Y-12118760D02*
G75*
G02*
X8310460Y-12118760I50000J0D01*
G01*
X7472260Y-14361580D02*
G75*
G02*
X7372260Y-14361580I-50000J0D01*
G01*
X7372260Y-14361580D02*
G75*
G02*
X7472260Y-14361580I50000J0D01*
G01*
X10324160Y-14400534D02*
G75*
G02*
X10224160Y-14400534I-50000J0D01*
G01*
X10224160Y-14400534D02*
G75*
G02*
X10324160Y-14400534I50000J0D01*
G01*
X9343466Y-15105384D02*
G75*
G02*
X9243466Y-15105384I-50000J0D01*
G01*
X9243466Y-15105384D02*
G75*
G02*
X9343466Y-15105384I50000J0D01*
G01*
X9384854Y-14720868D02*
G75*
G02*
X9284854Y-14720868I-50000J0D01*
G01*
X9284854Y-14720868D02*
G75*
G02*
X9384854Y-14720868I50000J0D01*
G01*
X9033840Y-14851892D02*
G75*
G02*
X8933840Y-14851892I-50000J0D01*
G01*
X8933840Y-14851892D02*
G75*
G02*
X9033840Y-14851892I50000J0D01*
G01*
X6814120Y-12998240D02*
G75*
G02*
X6714120Y-12998240I-50000J0D01*
G01*
X6714120Y-12998240D02*
G75*
G02*
X6814120Y-12998240I50000J0D01*
G01*
X9923080Y-14171720D02*
G75*
G02*
X9823080Y-14171720I-50000J0D01*
G01*
X9823080Y-14171720D02*
G75*
G02*
X9923080Y-14171720I50000J0D01*
G01*
X8868486Y-12994390D02*
G75*
G02*
X8768486Y-12994390I-50000J0D01*
G01*
X8768486Y-12994390D02*
G75*
G02*
X8868486Y-12994390I50000J0D01*
G01*
X9255328Y-13653520D02*
G75*
G02*
X9155328Y-13653520I-50000J0D01*
G01*
X9155328Y-13653520D02*
G75*
G02*
X9255328Y-13653520I50000J0D01*
G01*
X10203764Y-13596624D02*
G75*
G02*
X10103764Y-13596624I-50000J0D01*
G01*
X10103764Y-13596624D02*
G75*
G02*
X10203764Y-13596624I50000J0D01*
G01*
G04 #@! TO.C,D7*
X4882260Y-9945560D02*
X4882260Y-10085560D01*
X4882260Y-9945560D02*
X4912260Y-9915560D01*
X4882260Y-10085560D02*
X4912260Y-10115560D01*
X4912260Y-9795560D02*
X4912260Y-10235560D01*
X4912260Y-10235560D02*
X5052260Y-10235560D01*
X4942260Y-9995560D02*
X4982260Y-10035560D01*
X4982260Y-10035560D02*
X5022260Y-9995560D01*
X5022260Y-9995560D02*
X4942260Y-9995560D01*
X5052260Y-9795560D02*
X4912260Y-9795560D01*
X5052260Y-10235560D02*
X5052260Y-9795560D01*
G04 #@! TO.C,MARK1MM*
X16132260Y-8425560D02*
G75*
G02*
X15832260Y-8425560I-150000J0D01*
G01*
X15832260Y-8425560D02*
G75*
G02*
X16132260Y-8425560I150000J0D01*
G01*
G04 #@! TO.C,C1*
X7953800Y-14441340D02*
X8030000Y-14441340D01*
X7953800Y-14619140D02*
X7953800Y-14441340D01*
X8030000Y-14441340D02*
X8030000Y-14619140D01*
X8030000Y-14619140D02*
X7953800Y-14619140D01*
G04 #@! TO.C,C2*
X7852200Y-14441340D02*
X7928400Y-14441340D01*
X7852200Y-14619140D02*
X7852200Y-14441340D01*
X7928400Y-14441340D02*
X7928400Y-14619140D01*
X7928400Y-14619140D02*
X7852200Y-14619140D01*
G04 #@! TO.C,C3*
X8157000Y-14441340D02*
X8233200Y-14441340D01*
X8157000Y-14619140D02*
X8157000Y-14441340D01*
X8233200Y-14441340D02*
X8233200Y-14619140D01*
X8233200Y-14619140D02*
X8157000Y-14619140D01*
G04 #@! TO.C,C4*
X8055400Y-14441340D02*
X8131600Y-14441340D01*
X8055400Y-14619140D02*
X8055400Y-14441340D01*
X8131600Y-14441340D02*
X8131600Y-14619140D01*
X8131600Y-14619140D02*
X8055400Y-14619140D01*
G04 #@! TO.C,C5*
X8078260Y-13369460D02*
X8154460Y-13369460D01*
X8078260Y-13547260D02*
X8078260Y-13369460D01*
X8154460Y-13369460D02*
X8154460Y-13547260D01*
X8154460Y-13547260D02*
X8078260Y-13547260D01*
G04 #@! TO.C,C6*
X8179860Y-13369460D02*
X8256060Y-13369460D01*
X8179860Y-13547260D02*
X8179860Y-13369460D01*
X8256060Y-13369460D02*
X8256060Y-13547260D01*
X8256060Y-13547260D02*
X8179860Y-13547260D01*
G04 #@! TO.C,C7*
X9501760Y-15045080D02*
X9679560Y-15045080D01*
X9501760Y-15121280D02*
X9501760Y-15045080D01*
X9679560Y-15045080D02*
X9679560Y-15121280D01*
X9679560Y-15121280D02*
X9501760Y-15121280D01*
G04 #@! TO.C,C8*
X10236060Y-13681460D02*
X10312260Y-13681460D01*
X10236060Y-13859260D02*
X10236060Y-13681460D01*
X10312260Y-13681460D02*
X10312260Y-13859260D01*
X10312260Y-13859260D02*
X10236060Y-13859260D01*
G04 #@! TO.C,C9*
X7384160Y-13053480D02*
X7460360Y-13053480D01*
X7384160Y-13231280D02*
X7384160Y-13053480D01*
X7460360Y-13053480D02*
X7460360Y-13231280D01*
X7460360Y-13231280D02*
X7384160Y-13231280D01*
G04 #@! TO.C,C12*
X7623600Y-13519320D02*
X7699800Y-13519320D01*
X7623600Y-13697120D02*
X7623600Y-13519320D01*
X7699800Y-13519320D02*
X7699800Y-13697120D01*
X7699800Y-13697120D02*
X7623600Y-13697120D01*
G04 #@! TO.C,C13*
X7649000Y-13278020D02*
X7826800Y-13278020D01*
X7649000Y-13354220D02*
X7649000Y-13278020D01*
X7826800Y-13278020D02*
X7826800Y-13354220D01*
X7826800Y-13354220D02*
X7649000Y-13354220D01*
G04 #@! TO.C,C14*
X7877600Y-13405020D02*
X7953800Y-13405020D01*
X7877600Y-13582820D02*
X7877600Y-13405020D01*
X7953800Y-13405020D02*
X7953800Y-13582820D01*
X7953800Y-13582820D02*
X7877600Y-13582820D01*
G04 #@! TO.C,C15*
X7877600Y-13278020D02*
X8055400Y-13278020D01*
X7877600Y-13354220D02*
X7877600Y-13278020D01*
X8055400Y-13278020D02*
X8055400Y-13354220D01*
X8055400Y-13354220D02*
X7877600Y-13354220D01*
G04 #@! TO.C,C16*
X9530180Y-14575580D02*
X9606380Y-14575580D01*
X9530180Y-14753380D02*
X9530180Y-14575580D01*
X9606380Y-14575580D02*
X9606380Y-14753380D01*
X9606380Y-14753380D02*
X9530180Y-14753380D01*
G04 #@! TO.C,C17*
X7086940Y-12381280D02*
X7264740Y-12381280D01*
X7086940Y-12457480D02*
X7086940Y-12381280D01*
X7264740Y-12381280D02*
X7264740Y-12457480D01*
X7264740Y-12457480D02*
X7086940Y-12457480D01*
G04 #@! TO.C,C18*
X6680540Y-12381280D02*
X6858340Y-12381280D01*
X6680540Y-12457480D02*
X6680540Y-12381280D01*
X6858340Y-12381280D02*
X6858340Y-12457480D01*
X6858340Y-12457480D02*
X6680540Y-12457480D01*
G04 #@! TO.C,C20*
X7554060Y-12340340D02*
X7731860Y-12340340D01*
X7554060Y-12416540D02*
X7554060Y-12340340D01*
X7731860Y-12340340D02*
X7731860Y-12416540D01*
X7731860Y-12416540D02*
X7554060Y-12416540D01*
G04 #@! TO.C,C21*
X9037180Y-14725400D02*
X9214980Y-14725400D01*
X9037180Y-14801600D02*
X9037180Y-14725400D01*
X9214980Y-14725400D02*
X9214980Y-14801600D01*
X9214980Y-14801600D02*
X9037180Y-14801600D01*
G04 #@! TO.C,C22*
X8366860Y-14788940D02*
X8544660Y-14788940D01*
X8366860Y-14865140D02*
X8366860Y-14788940D01*
X8544660Y-14788940D02*
X8544660Y-14865140D01*
X8544660Y-14865140D02*
X8366860Y-14865140D01*
G04 #@! TO.C,C23*
X8971140Y-13254740D02*
X9047340Y-13254740D01*
X8971140Y-13432540D02*
X8971140Y-13254740D01*
X9047340Y-13254740D02*
X9047340Y-13432540D01*
X9047340Y-13432540D02*
X8971140Y-13432540D01*
G04 #@! TO.C,C24*
X8112860Y-12492780D02*
X8189060Y-12492780D01*
X8112860Y-12670580D02*
X8112860Y-12492780D01*
X8189060Y-12492780D02*
X8189060Y-12670580D01*
X8189060Y-12670580D02*
X8112860Y-12670580D01*
G04 #@! TO.C,C25*
X8512600Y-14560720D02*
X8690400Y-14560720D01*
X8512600Y-14636920D02*
X8512600Y-14560720D01*
X8690400Y-14560720D02*
X8690400Y-14636920D01*
X8690400Y-14636920D02*
X8512600Y-14636920D01*
G04 #@! TO.C,C26*
X6680540Y-12076480D02*
X6858340Y-12076480D01*
X6680540Y-12152680D02*
X6680540Y-12076480D01*
X6858340Y-12076480D02*
X6858340Y-12152680D01*
X6858340Y-12152680D02*
X6680540Y-12152680D01*
G04 #@! TO.C,C27*
X7086940Y-12076480D02*
X7264740Y-12076480D01*
X7086940Y-12152680D02*
X7086940Y-12076480D01*
X7264740Y-12076480D02*
X7264740Y-12152680D01*
X7264740Y-12152680D02*
X7086940Y-12152680D01*
G04 #@! TO.C,C28*
X8512600Y-14675020D02*
X8690400Y-14675020D01*
X8512600Y-14751220D02*
X8512600Y-14675020D01*
X8690400Y-14675020D02*
X8690400Y-14751220D01*
X8690400Y-14751220D02*
X8512600Y-14751220D01*
G04 #@! TO.C,C30*
X7317840Y-12490240D02*
X7394040Y-12490240D01*
X7317840Y-12668040D02*
X7317840Y-12490240D01*
X7394040Y-12490240D02*
X7394040Y-12668040D01*
X7394040Y-12668040D02*
X7317840Y-12668040D01*
G04 #@! TO.C,C31*
X6403680Y-12381280D02*
X6479880Y-12381280D01*
X6403680Y-12559080D02*
X6403680Y-12381280D01*
X6479880Y-12381280D02*
X6479880Y-12559080D01*
X6479880Y-12559080D02*
X6403680Y-12559080D01*
G04 #@! TO.C,C32*
X9037180Y-15068300D02*
X9214980Y-15068300D01*
X9037180Y-15144500D02*
X9037180Y-15068300D01*
X9214980Y-15068300D02*
X9214980Y-15144500D01*
X9214980Y-15144500D02*
X9037180Y-15144500D01*
G04 #@! TO.C,C33*
X8855500Y-14550560D02*
X8931700Y-14550560D01*
X8855500Y-14728360D02*
X8855500Y-14550560D01*
X8931700Y-14550560D02*
X8931700Y-14728360D01*
X8931700Y-14728360D02*
X8855500Y-14728360D01*
G04 #@! TO.C,C34*
X8675160Y-13328820D02*
X8751360Y-13328820D01*
X8675160Y-13506620D02*
X8675160Y-13328820D01*
X8751360Y-13328820D02*
X8751360Y-13506620D01*
X8751360Y-13506620D02*
X8675160Y-13506620D01*
G04 #@! TO.C,C35*
X8560860Y-13252620D02*
X8637060Y-13252620D01*
X8560860Y-13430420D02*
X8560860Y-13252620D01*
X8637060Y-13252620D02*
X8637060Y-13430420D01*
X8637060Y-13430420D02*
X8560860Y-13430420D01*
G04 #@! TO.C,C36*
X8446560Y-13214520D02*
X8522760Y-13214520D01*
X8446560Y-13392320D02*
X8446560Y-13214520D01*
X8522760Y-13214520D02*
X8522760Y-13392320D01*
X8522760Y-13392320D02*
X8446560Y-13392320D01*
G04 #@! TO.C,C37*
X8167160Y-13178960D02*
X8344960Y-13178960D01*
X8167160Y-13255160D02*
X8167160Y-13178960D01*
X8344960Y-13178960D02*
X8344960Y-13255160D01*
X8344960Y-13255160D02*
X8167160Y-13255160D01*
G04 #@! TO.C,C38*
X6037920Y-12470180D02*
X6215720Y-12470180D01*
X6037920Y-12546380D02*
X6037920Y-12470180D01*
X6215720Y-12470180D02*
X6215720Y-12546380D01*
X6215720Y-12546380D02*
X6037920Y-12546380D01*
G04 #@! TO.C,C39*
X6974700Y-12871200D02*
X7050900Y-12871200D01*
X6974700Y-13049000D02*
X6974700Y-12871200D01*
X7050900Y-12871200D02*
X7050900Y-13049000D01*
X7050900Y-13049000D02*
X6974700Y-13049000D01*
G04 #@! TO.C,C40*
X6037920Y-12594640D02*
X6215720Y-12594640D01*
X6037920Y-12670840D02*
X6037920Y-12594640D01*
X6215720Y-12594640D02*
X6215720Y-12670840D01*
X6215720Y-12670840D02*
X6037920Y-12670840D01*
G04 #@! TO.C,C41*
X8725960Y-14370220D02*
X8903760Y-14370220D01*
X8725960Y-14446420D02*
X8725960Y-14370220D01*
X8903760Y-14370220D02*
X8903760Y-14446420D01*
X8903760Y-14446420D02*
X8725960Y-14446420D01*
G04 #@! TO.C,C42*
X8598960Y-13659020D02*
X8776760Y-13659020D01*
X8598960Y-13735220D02*
X8598960Y-13659020D01*
X8776760Y-13659020D02*
X8776760Y-13735220D01*
X8776760Y-13735220D02*
X8598960Y-13735220D01*
G04 #@! TO.C,C43*
X5994260Y-12728960D02*
X6172060Y-12728960D01*
X5994260Y-12805160D02*
X5994260Y-12728960D01*
X6172060Y-12728960D02*
X6172060Y-12805160D01*
X6172060Y-12805160D02*
X5994260Y-12805160D01*
G04 #@! TO.C,C44*
X6708240Y-13079480D02*
X6784440Y-13079480D01*
X6708240Y-13257280D02*
X6708240Y-13079480D01*
X6784440Y-13079480D02*
X6784440Y-13257280D01*
X6784440Y-13257280D02*
X6708240Y-13257280D01*
G04 #@! TO.C,C45*
X9116160Y-13859300D02*
X9293960Y-13859300D01*
X9116160Y-13935500D02*
X9116160Y-13859300D01*
X9293960Y-13859300D02*
X9293960Y-13935500D01*
X9293960Y-13935500D02*
X9116160Y-13935500D01*
G04 #@! TO.C,C46*
X9106000Y-14004080D02*
X9283800Y-14004080D01*
X9106000Y-14080280D02*
X9106000Y-14004080D01*
X9283800Y-14004080D02*
X9283800Y-14080280D01*
X9283800Y-14080280D02*
X9106000Y-14080280D01*
G04 #@! TO.C,C47*
X10060800Y-13793220D02*
X10137000Y-13793220D01*
X10060800Y-13971020D02*
X10060800Y-13793220D01*
X10137000Y-13793220D02*
X10137000Y-13971020D01*
X10137000Y-13971020D02*
X10060800Y-13971020D01*
G04 #@! TO.C,C48*
X9812120Y-13536680D02*
X9888320Y-13536680D01*
X9812120Y-13714480D02*
X9812120Y-13536680D01*
X9888320Y-13536680D02*
X9888320Y-13714480D01*
X9888320Y-13714480D02*
X9812120Y-13714480D01*
G04 #@! TO.C,C49*
X8929160Y-13760620D02*
X9005360Y-13760620D01*
X8929160Y-13938420D02*
X8929160Y-13760620D01*
X9005360Y-13760620D02*
X9005360Y-13938420D01*
X9005360Y-13938420D02*
X8929160Y-13938420D01*
G04 #@! TO.C,C50*
X6441540Y-13478300D02*
X6517740Y-13478300D01*
X6441540Y-13656100D02*
X6441540Y-13478300D01*
X6517740Y-13478300D02*
X6517740Y-13656100D01*
X6517740Y-13656100D02*
X6441540Y-13656100D01*
G04 #@! TO.C,C51*
X9570820Y-14133620D02*
X9748620Y-14133620D01*
X9570820Y-14209820D02*
X9570820Y-14133620D01*
X9748620Y-14133620D02*
X9748620Y-14209820D01*
X9748620Y-14209820D02*
X9570820Y-14209820D01*
G04 #@! TO.C,C52*
X5875120Y-13440200D02*
X6052920Y-13440200D01*
X5875120Y-13516400D02*
X5875120Y-13440200D01*
X6052920Y-13440200D02*
X6052920Y-13516400D01*
X6052920Y-13516400D02*
X5875120Y-13516400D01*
G04 #@! TO.C,C53*
X5875120Y-13333520D02*
X6052920Y-13333520D01*
X5875120Y-13409720D02*
X5875120Y-13333520D01*
X6052920Y-13333520D02*
X6052920Y-13409720D01*
X6052920Y-13409720D02*
X5875120Y-13409720D01*
G04 #@! TO.C,C54*
X9283800Y-14176800D02*
X9360000Y-14176800D01*
X9283800Y-14354600D02*
X9283800Y-14176800D01*
X9360000Y-14176800D02*
X9360000Y-14354600D01*
X9360000Y-14354600D02*
X9283800Y-14354600D01*
G04 #@! TO.C,C55*
X6866620Y-13281340D02*
X7044420Y-13281340D01*
X6866620Y-13357540D02*
X6866620Y-13281340D01*
X7044420Y-13281340D02*
X7044420Y-13357540D01*
X7044420Y-13357540D02*
X6866620Y-13357540D01*
G04 #@! TO.C,C56*
X9583280Y-13623040D02*
X9659480Y-13623040D01*
X9583280Y-13800840D02*
X9583280Y-13623040D01*
X9659480Y-13623040D02*
X9659480Y-13800840D01*
X9659480Y-13800840D02*
X9583280Y-13800840D01*
G04 #@! TO.C,C57*
X6583780Y-13069360D02*
X6659980Y-13069360D01*
X6583780Y-13247160D02*
X6583780Y-13069360D01*
X6659980Y-13069360D02*
X6659980Y-13247160D01*
X6659980Y-13247160D02*
X6583780Y-13247160D01*
G04 #@! TO.C,C58*
X5768440Y-13612920D02*
X5844640Y-13612920D01*
X5768440Y-13790720D02*
X5768440Y-13612920D01*
X5844640Y-13612920D02*
X5844640Y-13790720D01*
X5844640Y-13790720D02*
X5768440Y-13790720D01*
G04 #@! TO.C,C59*
X6781900Y-13635780D02*
X6959700Y-13635780D01*
X6781900Y-13711980D02*
X6781900Y-13635780D01*
X6959700Y-13635780D02*
X6959700Y-13711980D01*
X6959700Y-13711980D02*
X6781900Y-13711980D01*
G04 #@! TO.C,C60*
X6459320Y-13247160D02*
X6535520Y-13247160D01*
X6459320Y-13424960D02*
X6459320Y-13247160D01*
X6535520Y-13247160D02*
X6535520Y-13424960D01*
X6535520Y-13424960D02*
X6459320Y-13424960D01*
G04 #@! TO.C,C61*
X6494880Y-13780560D02*
X6571080Y-13780560D01*
X6494880Y-13958360D02*
X6494880Y-13780560D01*
X6571080Y-13780560D02*
X6571080Y-13958360D01*
X6571080Y-13958360D02*
X6494880Y-13958360D01*
G04 #@! TO.C,C63*
X6708240Y-14473980D02*
X6784440Y-14473980D01*
X6708240Y-14651780D02*
X6708240Y-14473980D01*
X6784440Y-14473980D02*
X6784440Y-14651780D01*
X6784440Y-14651780D02*
X6708240Y-14651780D01*
G04 #@! TO.C,C64*
X6355180Y-14341900D02*
X6431380Y-14341900D01*
X6355180Y-14519700D02*
X6355180Y-14341900D01*
X6431380Y-14341900D02*
X6431380Y-14519700D01*
X6431380Y-14519700D02*
X6355180Y-14519700D01*
G04 #@! TO.C,C65*
X6601560Y-14473980D02*
X6677760Y-14473980D01*
X6601560Y-14651780D02*
X6601560Y-14473980D01*
X6677760Y-14473980D02*
X6677760Y-14651780D01*
X6677760Y-14651780D02*
X6601560Y-14651780D01*
G04 #@! TO.C,C66*
X6494880Y-14473980D02*
X6571080Y-14473980D01*
X6494880Y-14651780D02*
X6494880Y-14473980D01*
X6571080Y-14473980D02*
X6571080Y-14651780D01*
X6571080Y-14651780D02*
X6494880Y-14651780D01*
G04 #@! TO.C,C67*
X10952180Y-14566300D02*
X11028380Y-14566300D01*
X10952180Y-14744100D02*
X10952180Y-14566300D01*
X11028380Y-14566300D02*
X11028380Y-14744100D01*
X11028380Y-14744100D02*
X10952180Y-14744100D01*
G04 #@! TO.C,C68*
X11590400Y-13708800D02*
X11666600Y-13708800D01*
X11590400Y-13886600D02*
X11590400Y-13708800D01*
X11666600Y-13708800D02*
X11666600Y-13886600D01*
X11666600Y-13886600D02*
X11590400Y-13886600D01*
G04 #@! TO.C,C69*
X11702160Y-13614820D02*
X11879960Y-13614820D01*
X11702160Y-13691020D02*
X11702160Y-13614820D01*
X11879960Y-13614820D02*
X11879960Y-13691020D01*
X11879960Y-13691020D02*
X11702160Y-13691020D01*
G04 #@! TO.C,C70*
X10952180Y-14769500D02*
X11028380Y-14769500D01*
X10952180Y-14947300D02*
X10952180Y-14769500D01*
X11028380Y-14769500D02*
X11028380Y-14947300D01*
X11028380Y-14947300D02*
X10952180Y-14947300D01*
G04 #@! TO.C,C71*
X8892400Y-9992440D02*
X8968600Y-9992440D01*
X8892400Y-10170240D02*
X8892400Y-9992440D01*
X8968600Y-9992440D02*
X8968600Y-10170240D01*
X8968600Y-10170240D02*
X8892400Y-10170240D01*
G04 #@! TO.C,C72*
X8790800Y-9992440D02*
X8867000Y-9992440D01*
X8790800Y-10170240D02*
X8790800Y-9992440D01*
X8867000Y-9992440D02*
X8867000Y-10170240D01*
X8867000Y-10170240D02*
X8790800Y-10170240D01*
G04 #@! TO.C,C73*
X9184500Y-9992440D02*
X9260700Y-9992440D01*
X9184500Y-10170240D02*
X9184500Y-9992440D01*
X9260700Y-9992440D02*
X9260700Y-10170240D01*
X9260700Y-10170240D02*
X9184500Y-10170240D01*
G04 #@! TO.C,C74*
X9082900Y-9992440D02*
X9159100Y-9992440D01*
X9082900Y-10170240D02*
X9082900Y-9992440D01*
X9159100Y-9992440D02*
X9159100Y-10170240D01*
X9159100Y-10170240D02*
X9082900Y-10170240D01*
G04 #@! TO.C,C75*
X9387700Y-9992440D02*
X9463900Y-9992440D01*
X9387700Y-10170240D02*
X9387700Y-9992440D01*
X9463900Y-9992440D02*
X9463900Y-10170240D01*
X9463900Y-10170240D02*
X9387700Y-10170240D01*
G04 #@! TO.C,C76*
X9489300Y-9992440D02*
X9565500Y-9992440D01*
X9489300Y-10170240D02*
X9489300Y-9992440D01*
X9565500Y-9992440D02*
X9565500Y-10170240D01*
X9565500Y-10170240D02*
X9489300Y-10170240D01*
G04 #@! TO.C,C77*
X9006700Y-8773240D02*
X9082900Y-8773240D01*
X9006700Y-8951040D02*
X9006700Y-8773240D01*
X9082900Y-8773240D02*
X9082900Y-8951040D01*
X9082900Y-8951040D02*
X9006700Y-8951040D01*
G04 #@! TO.C,C78*
X8905100Y-8773240D02*
X8981300Y-8773240D01*
X8905100Y-8951040D02*
X8905100Y-8773240D01*
X8981300Y-8773240D02*
X8981300Y-8951040D01*
X8981300Y-8951040D02*
X8905100Y-8951040D01*
G04 #@! TO.C,C79*
X8466950Y-9236790D02*
X8644750Y-9236790D01*
X8466950Y-9312990D02*
X8466950Y-9236790D01*
X8644750Y-9236790D02*
X8644750Y-9312990D01*
X8644750Y-9312990D02*
X8466950Y-9312990D01*
G04 #@! TO.C,C80*
X8568550Y-9020890D02*
X8644750Y-9020890D01*
X8568550Y-9198690D02*
X8568550Y-9020890D01*
X8644750Y-9020890D02*
X8644750Y-9198690D01*
X8644750Y-9198690D02*
X8568550Y-9198690D01*
G04 #@! TO.C,C81*
X8403450Y-9503490D02*
X8581250Y-9503490D01*
X8403450Y-9579690D02*
X8403450Y-9503490D01*
X8581250Y-9503490D02*
X8581250Y-9579690D01*
X8581250Y-9579690D02*
X8403450Y-9579690D01*
G04 #@! TO.C,C82*
X8403450Y-9401890D02*
X8581250Y-9401890D01*
X8403450Y-9478090D02*
X8403450Y-9401890D01*
X8581250Y-9401890D02*
X8581250Y-9478090D01*
X8581250Y-9478090D02*
X8403450Y-9478090D01*
G04 #@! TO.C,C83*
X8428850Y-9719390D02*
X8606650Y-9719390D01*
X8428850Y-9795590D02*
X8428850Y-9719390D01*
X8606650Y-9719390D02*
X8606650Y-9795590D01*
X8606650Y-9795590D02*
X8428850Y-9795590D01*
G04 #@! TO.C,C84*
X9442310Y-12885170D02*
X9518510Y-12885170D01*
X9442310Y-13062970D02*
X9442310Y-12885170D01*
X9518510Y-12885170D02*
X9518510Y-13062970D01*
X9518510Y-13062970D02*
X9442310Y-13062970D01*
G04 #@! TO.C,C85*
X9747110Y-12885170D02*
X9823310Y-12885170D01*
X9747110Y-13062970D02*
X9747110Y-12885170D01*
X9823310Y-12885170D02*
X9823310Y-13062970D01*
X9823310Y-13062970D02*
X9747110Y-13062970D01*
G04 #@! TO.C,C86*
X10217010Y-12656570D02*
X10293210Y-12656570D01*
X10217010Y-12834370D02*
X10217010Y-12656570D01*
X10293210Y-12656570D02*
X10293210Y-12834370D01*
X10293210Y-12834370D02*
X10217010Y-12834370D01*
G04 #@! TO.C,C87*
X10217010Y-12377170D02*
X10394810Y-12377170D01*
X10217010Y-12453370D02*
X10217010Y-12377170D01*
X10394810Y-12377170D02*
X10394810Y-12453370D01*
X10394810Y-12453370D02*
X10217010Y-12453370D01*
G04 #@! TO.C,C88*
X10293210Y-12275570D02*
X10471010Y-12275570D01*
X10293210Y-12351770D02*
X10293210Y-12275570D01*
X10471010Y-12275570D02*
X10471010Y-12351770D01*
X10471010Y-12351770D02*
X10293210Y-12351770D01*
G04 #@! TO.C,C89*
X10217010Y-12173970D02*
X10394810Y-12173970D01*
X10217010Y-12250170D02*
X10217010Y-12173970D01*
X10394810Y-12173970D02*
X10394810Y-12250170D01*
X10394810Y-12250170D02*
X10217010Y-12250170D01*
G04 #@! TO.C,C90*
X9836010Y-11767570D02*
X9912210Y-11767570D01*
X9836010Y-11945370D02*
X9836010Y-11767570D01*
X9912210Y-11767570D02*
X9912210Y-11945370D01*
X9912210Y-11945370D02*
X9836010Y-11945370D01*
G04 #@! TO.C,C91*
X9937610Y-11767570D02*
X10013810Y-11767570D01*
X9937610Y-11945370D02*
X9937610Y-11767570D01*
X10013810Y-11767570D02*
X10013810Y-11945370D01*
X10013810Y-11945370D02*
X9937610Y-11945370D01*
G04 #@! TO.C,C92*
X9099410Y-12199370D02*
X9277210Y-12199370D01*
X9099410Y-12275570D02*
X9099410Y-12199370D01*
X9277210Y-12199370D02*
X9277210Y-12275570D01*
X9277210Y-12275570D02*
X9099410Y-12275570D01*
G04 #@! TO.C,C93*
X9099410Y-12300970D02*
X9277210Y-12300970D01*
X9099410Y-12377170D02*
X9099410Y-12300970D01*
X9277210Y-12300970D02*
X9277210Y-12377170D01*
X9277210Y-12377170D02*
X9099410Y-12377170D01*
G04 #@! TO.C,C94*
X9099410Y-12542270D02*
X9277210Y-12542270D01*
X9099410Y-12618470D02*
X9099410Y-12542270D01*
X9277210Y-12542270D02*
X9277210Y-12618470D01*
X9277210Y-12618470D02*
X9099410Y-12618470D01*
G04 #@! TO.C,C95*
X8038960Y-10533460D02*
X8216760Y-10533460D01*
X8038960Y-10609660D02*
X8038960Y-10533460D01*
X8216760Y-10533460D02*
X8216760Y-10609660D01*
X8216760Y-10609660D02*
X8038960Y-10609660D01*
G04 #@! TO.C,C96*
X8351380Y-10533460D02*
X8529180Y-10533460D01*
X8351380Y-10609660D02*
X8351380Y-10533460D01*
X8529180Y-10533460D02*
X8529180Y-10609660D01*
X8529180Y-10609660D02*
X8351380Y-10609660D01*
G04 #@! TO.C,C97*
X8486000Y-9992440D02*
X8562200Y-9992440D01*
X8486000Y-10170240D02*
X8486000Y-9992440D01*
X8562200Y-9992440D02*
X8562200Y-10170240D01*
X8562200Y-10170240D02*
X8486000Y-10170240D01*
G04 #@! TO.C,C98*
X8587600Y-9992440D02*
X8663800Y-9992440D01*
X8587600Y-10170240D02*
X8587600Y-9992440D01*
X8663800Y-9992440D02*
X8663800Y-10170240D01*
X8663800Y-10170240D02*
X8587600Y-10170240D01*
G04 #@! TO.C,C99*
X9543910Y-12986770D02*
X9620110Y-12986770D01*
X9543910Y-13164570D02*
X9543910Y-12986770D01*
X9620110Y-12986770D02*
X9620110Y-13164570D01*
X9620110Y-13164570D02*
X9543910Y-13164570D01*
G04 #@! TO.C,C100*
X8689200Y-9992440D02*
X8765400Y-9992440D01*
X8689200Y-10170240D02*
X8689200Y-9992440D01*
X8765400Y-9992440D02*
X8765400Y-10170240D01*
X8765400Y-10170240D02*
X8689200Y-10170240D01*
G04 #@! TO.C,C101*
X8858110Y-10557590D02*
X9035910Y-10557590D01*
X8858110Y-10633790D02*
X8858110Y-10557590D01*
X9035910Y-10557590D02*
X9035910Y-10633790D01*
X9035910Y-10633790D02*
X8858110Y-10633790D01*
G04 #@! TO.C,C102*
X9645510Y-12986770D02*
X9721710Y-12986770D01*
X9645510Y-13164570D02*
X9645510Y-12986770D01*
X9721710Y-12986770D02*
X9721710Y-13164570D01*
X9721710Y-13164570D02*
X9645510Y-13164570D01*
G04 #@! TO.C,C103*
X9170530Y-10557590D02*
X9348330Y-10557590D01*
X9170530Y-10633790D02*
X9170530Y-10557590D01*
X9348330Y-10557590D02*
X9348330Y-10633790D01*
X9348330Y-10633790D02*
X9170530Y-10633790D01*
G04 #@! TO.C,C104*
X9848710Y-12986770D02*
X9924910Y-12986770D01*
X9848710Y-13164570D02*
X9848710Y-12986770D01*
X9924910Y-12986770D02*
X9924910Y-13164570D01*
X9924910Y-13164570D02*
X9848710Y-13164570D01*
G04 #@! TO.C,C105*
X7506080Y-10483000D02*
X7688960Y-10483000D01*
X7506080Y-10838600D02*
X7506080Y-10483000D01*
X7688960Y-10483000D02*
X7688960Y-10838600D01*
X7688960Y-10838600D02*
X7506080Y-10838600D01*
G04 #@! TO.C,C106*
X10039210Y-11767570D02*
X10115410Y-11767570D01*
X10039210Y-11945370D02*
X10039210Y-11767570D01*
X10115410Y-11767570D02*
X10115410Y-11945370D01*
X10115410Y-11945370D02*
X10039210Y-11945370D01*
G04 #@! TO.C,C107*
X9291180Y-10353120D02*
X9367380Y-10353120D01*
X9291180Y-10530920D02*
X9291180Y-10353120D01*
X9367380Y-10353120D02*
X9367380Y-10530920D01*
X9367380Y-10530920D02*
X9291180Y-10530920D01*
G04 #@! TO.C,C108*
X9164180Y-10353120D02*
X9240380Y-10353120D01*
X9164180Y-10530920D02*
X9164180Y-10353120D01*
X9240380Y-10353120D02*
X9240380Y-10530920D01*
X9240380Y-10530920D02*
X9164180Y-10530920D01*
G04 #@! TO.C,C109*
X8978760Y-10353120D02*
X9054960Y-10353120D01*
X8978760Y-10530920D02*
X8978760Y-10353120D01*
X9054960Y-10353120D02*
X9054960Y-10530920D01*
X9054960Y-10530920D02*
X8978760Y-10530920D01*
G04 #@! TO.C,C110*
X8851760Y-10353120D02*
X8927960Y-10353120D01*
X8851760Y-10530920D02*
X8851760Y-10353120D01*
X8927960Y-10353120D02*
X8927960Y-10530920D01*
X8927960Y-10530920D02*
X8851760Y-10530920D01*
G04 #@! TO.C,C111*
X9950310Y-12986770D02*
X10026510Y-12986770D01*
X9950310Y-13164570D02*
X9950310Y-12986770D01*
X10026510Y-12986770D02*
X10026510Y-13164570D01*
X10026510Y-13164570D02*
X9950310Y-13164570D01*
G04 #@! TO.C,C112*
X10217010Y-11970770D02*
X10293210Y-11970770D01*
X10217010Y-12148570D02*
X10217010Y-11970770D01*
X10293210Y-11970770D02*
X10293210Y-12148570D01*
X10293210Y-12148570D02*
X10217010Y-12148570D01*
G04 #@! TO.C,C113*
X11159280Y-14683260D02*
X11235480Y-14683260D01*
X11159280Y-14861060D02*
X11159280Y-14683260D01*
X11235480Y-14683260D02*
X11235480Y-14861060D01*
X11235480Y-14861060D02*
X11159280Y-14861060D01*
G04 #@! TO.C,C114*
X10521810Y-11970770D02*
X10598010Y-11970770D01*
X10521810Y-12148570D02*
X10521810Y-11970770D01*
X10598010Y-11970770D02*
X10598010Y-12148570D01*
X10598010Y-12148570D02*
X10521810Y-12148570D01*
G04 #@! TO.C,C115*
X11074780Y-14348880D02*
X11252580Y-14348880D01*
X11074780Y-14425080D02*
X11074780Y-14348880D01*
X11252580Y-14348880D02*
X11252580Y-14425080D01*
X11252580Y-14425080D02*
X11074780Y-14425080D01*
G04 #@! TO.C,C116*
X10879200Y-14242200D02*
X11057000Y-14242200D01*
X10879200Y-14318400D02*
X10879200Y-14242200D01*
X11057000Y-14242200D02*
X11057000Y-14318400D01*
X11057000Y-14318400D02*
X10879200Y-14318400D01*
G04 #@! TO.C,C118*
X14883360Y-13697460D02*
X15061160Y-13697460D01*
X14883360Y-13773660D02*
X14883360Y-13697460D01*
X15061160Y-13697460D02*
X15061160Y-13773660D01*
X15061160Y-13773660D02*
X14883360Y-13773660D01*
G04 #@! TO.C,C119*
X11768880Y-13984760D02*
X11845080Y-13984760D01*
X11768880Y-14162560D02*
X11768880Y-13984760D01*
X11845080Y-13984760D02*
X11845080Y-14162560D01*
X11845080Y-14162560D02*
X11768880Y-14162560D01*
G04 #@! TO.C,C120*
X12006960Y-14199020D02*
X12083160Y-14199020D01*
X12006960Y-14376820D02*
X12006960Y-14199020D01*
X12083160Y-14199020D02*
X12083160Y-14376820D01*
X12083160Y-14376820D02*
X12006960Y-14376820D01*
G04 #@! TO.C,C121*
X10996040Y-14458100D02*
X11173840Y-14458100D01*
X10996040Y-14534300D02*
X10996040Y-14458100D01*
X11173840Y-14458100D02*
X11173840Y-14534300D01*
X11173840Y-14534300D02*
X10996040Y-14534300D01*
G04 #@! TO.C,C122*
X11377040Y-14018680D02*
X11554840Y-14018680D01*
X11377040Y-14094880D02*
X11377040Y-14018680D01*
X11554840Y-14018680D02*
X11554840Y-14094880D01*
X11554840Y-14094880D02*
X11377040Y-14094880D01*
G04 #@! TO.C,C123*
X9692500Y-9493330D02*
X9870300Y-9493330D01*
X9692500Y-9569530D02*
X9692500Y-9493330D01*
X9870300Y-9493330D02*
X9870300Y-9569530D01*
X9870300Y-9569530D02*
X9692500Y-9569530D01*
G04 #@! TO.C,C124*
X9692500Y-9391730D02*
X9870300Y-9391730D01*
X9692500Y-9467930D02*
X9692500Y-9391730D01*
X9870300Y-9391730D02*
X9870300Y-9467930D01*
X9870300Y-9467930D02*
X9692500Y-9467930D01*
G04 #@! TO.C,C125*
X16140060Y-9966780D02*
X16317860Y-9966780D01*
X16140060Y-10042980D02*
X16140060Y-9966780D01*
X16317860Y-9966780D02*
X16317860Y-10042980D01*
X16317860Y-10042980D02*
X16140060Y-10042980D01*
G04 #@! TO.C,C126*
X15657460Y-9875340D02*
X16013060Y-9875340D01*
X15657460Y-10058220D02*
X15657460Y-9875340D01*
X16013060Y-9875340D02*
X16013060Y-10058220D01*
X16013060Y-10058220D02*
X15657460Y-10058220D01*
G04 #@! TO.C,C127*
X15657460Y-9659440D02*
X16013060Y-9659440D01*
X15657460Y-9842320D02*
X15657460Y-9659440D01*
X16013060Y-9659440D02*
X16013060Y-9842320D01*
X16013060Y-9842320D02*
X15657460Y-9842320D01*
G04 #@! TO.C,C128*
X13877085Y-10517574D02*
X13930967Y-10463692D01*
X13930967Y-10463692D02*
X14056691Y-10589416D01*
X14002809Y-10643298D02*
X13877085Y-10517574D01*
X14056691Y-10589416D02*
X14002809Y-10643298D01*
G04 #@! TO.C,C129*
X13185606Y-10724120D02*
X13239487Y-10670238D01*
X13239487Y-10670238D02*
X13365211Y-10795962D01*
X13311329Y-10849843D02*
X13185606Y-10724120D01*
X13365211Y-10795962D02*
X13311329Y-10849843D01*
G04 #@! TO.C,C130*
X12548007Y-11361718D02*
X12601889Y-11307836D01*
X12601889Y-11307836D02*
X12727613Y-11433560D01*
X12673731Y-11487442D02*
X12548007Y-11361718D01*
X12727613Y-11433560D02*
X12673731Y-11487442D01*
G04 #@! TO.C,C131*
X12083160Y-11887620D02*
X12260960Y-11887620D01*
X12083160Y-11963820D02*
X12083160Y-11887620D01*
X12260960Y-11887620D02*
X12260960Y-11963820D01*
X12260960Y-11963820D02*
X12083160Y-11963820D01*
G04 #@! TO.C,C132*
X12242277Y-12832861D02*
X12368001Y-12707137D01*
X12296159Y-12886743D02*
X12242277Y-12832861D01*
X12368001Y-12707137D02*
X12421883Y-12761019D01*
X12421883Y-12761019D02*
X12296159Y-12886743D01*
G04 #@! TO.C,C133*
X12835376Y-13409216D02*
X12961099Y-13283493D01*
X12889257Y-13463098D02*
X12835376Y-13409216D01*
X12961099Y-13283493D02*
X13014981Y-13337374D01*
X13014981Y-13337374D02*
X12889257Y-13463098D01*
G04 #@! TO.C,C134*
X13293369Y-13867209D02*
X13419092Y-13741486D01*
X13347250Y-13921091D02*
X13293369Y-13867209D01*
X13419092Y-13741486D02*
X13472974Y-13795367D01*
X13472974Y-13795367D02*
X13347250Y-13921091D01*
G04 #@! TO.C,C135*
X14173434Y-13759446D02*
X14227315Y-13705565D01*
X14227315Y-13705565D02*
X14353039Y-13831288D01*
X14299157Y-13885170D02*
X14173434Y-13759446D01*
X14353039Y-13831288D02*
X14299157Y-13885170D01*
G04 #@! TO.C,C136*
X14739190Y-13193690D02*
X14793071Y-13139809D01*
X14793071Y-13139809D02*
X14918795Y-13265532D01*
X14864913Y-13319414D02*
X14739190Y-13193690D01*
X14918795Y-13265532D02*
X14864913Y-13319414D01*
G04 #@! TO.C,C137*
X14882874Y-13050006D02*
X14936756Y-12996124D01*
X14936756Y-12996124D02*
X15062479Y-13121848D01*
X15008598Y-13175730D02*
X14882874Y-13050006D01*
X15062479Y-13121848D02*
X15008598Y-13175730D01*
G04 #@! TO.C,C138*
X15089420Y-12843460D02*
X15143301Y-12789579D01*
X15143301Y-12789579D02*
X15269025Y-12915302D01*
X15215143Y-12969184D02*
X15089420Y-12843460D01*
X15269025Y-12915302D02*
X15215143Y-12969184D01*
G04 #@! TO.C,C139*
X15233104Y-12699776D02*
X15286986Y-12645894D01*
X15286986Y-12645894D02*
X15412709Y-12771618D01*
X15358828Y-12825500D02*
X15233104Y-12699776D01*
X15412709Y-12771618D02*
X15358828Y-12825500D01*
G04 #@! TO.C,C140*
X15286986Y-11837671D02*
X15340867Y-11783790D01*
X15340867Y-11783790D02*
X15466591Y-11909513D01*
X15412709Y-11963395D02*
X15286986Y-11837671D01*
X15466591Y-11909513D02*
X15412709Y-11963395D01*
G04 #@! TO.C,C141*
X14523664Y-11020468D02*
X14649387Y-10894745D01*
X14577545Y-11074350D02*
X14523664Y-11020468D01*
X14649387Y-10894745D02*
X14703269Y-10948626D01*
X14703269Y-10948626D02*
X14577545Y-11074350D01*
G04 #@! TO.C,C142*
X14802052Y-11316817D02*
X14927775Y-11191093D01*
X14855933Y-11370698D02*
X14802052Y-11316817D01*
X14927775Y-11191093D02*
X14981657Y-11244975D01*
X14981657Y-11244975D02*
X14855933Y-11370698D01*
G04 #@! TO.C,C143*
X16239120Y-9255580D02*
X16422000Y-9255580D01*
X16239120Y-9611180D02*
X16239120Y-9255580D01*
X16422000Y-9255580D02*
X16422000Y-9611180D01*
X16422000Y-9611180D02*
X16239120Y-9611180D01*
G04 #@! TO.C,C144*
X14155280Y-14245340D02*
X14333080Y-14245340D01*
X14155280Y-14321540D02*
X14155280Y-14245340D01*
X14333080Y-14245340D02*
X14333080Y-14321540D01*
X14333080Y-14321540D02*
X14155280Y-14321540D01*
G04 #@! TO.C,C145*
X15657460Y-8999040D02*
X16013060Y-8999040D01*
X15657460Y-9181920D02*
X15657460Y-8999040D01*
X16013060Y-8999040D02*
X16013060Y-9181920D01*
X16013060Y-9181920D02*
X15657460Y-9181920D01*
G04 #@! TO.C,C146*
X15657460Y-8783140D02*
X16013060Y-8783140D01*
X15657460Y-8966020D02*
X15657460Y-8783140D01*
X16013060Y-8783140D02*
X16013060Y-8966020D01*
X16013060Y-8966020D02*
X15657460Y-8966020D01*
G04 #@! TO.C,C147*
X16127360Y-9344480D02*
X16203560Y-9344480D01*
X16127360Y-9522280D02*
X16127360Y-9344480D01*
X16203560Y-9344480D02*
X16203560Y-9522280D01*
X16203560Y-9522280D02*
X16127360Y-9522280D01*
G04 #@! TO.C,C148*
X12610960Y-9952740D02*
X12687160Y-9952740D01*
X12610960Y-10130540D02*
X12610960Y-9952740D01*
X12687160Y-9952740D02*
X12687160Y-10130540D01*
X12687160Y-10130540D02*
X12610960Y-10130540D01*
G04 #@! TO.C,C149*
X12652120Y-9357780D02*
X12829920Y-9357780D01*
X12652120Y-9433980D02*
X12652120Y-9357780D01*
X12829920Y-9357780D02*
X12829920Y-9433980D01*
X12829920Y-9433980D02*
X12652120Y-9433980D01*
G04 #@! TO.C,C150*
X11925160Y-8695440D02*
X12001360Y-8695440D01*
X11925160Y-8873240D02*
X11925160Y-8695440D01*
X12001360Y-8695440D02*
X12001360Y-8873240D01*
X12001360Y-8873240D02*
X11925160Y-8873240D01*
G04 #@! TO.C,C151*
X10553560Y-8974840D02*
X10629760Y-8974840D01*
X10553560Y-9152640D02*
X10553560Y-8974840D01*
X10629760Y-8974840D02*
X10629760Y-9152640D01*
X10629760Y-9152640D02*
X10553560Y-9152640D01*
G04 #@! TO.C,C152*
X11234800Y-10988460D02*
X11412600Y-10988460D01*
X11234800Y-11064660D02*
X11234800Y-10988460D01*
X11412600Y-10988460D02*
X11412600Y-11064660D01*
X11412600Y-11064660D02*
X11234800Y-11064660D01*
G04 #@! TO.C,C153*
X10248760Y-9889240D02*
X10426560Y-9889240D01*
X10248760Y-9965440D02*
X10248760Y-9889240D01*
X10426560Y-9889240D02*
X10426560Y-9965440D01*
X10426560Y-9965440D02*
X10248760Y-9965440D01*
G04 #@! TO.C,C154*
X10642980Y-10856380D02*
X10820780Y-10856380D01*
X10642980Y-10932580D02*
X10642980Y-10856380D01*
X10820780Y-10856380D02*
X10820780Y-10932580D01*
X10820780Y-10932580D02*
X10642980Y-10932580D01*
G04 #@! TO.C,C156*
X11069700Y-14087260D02*
X11247500Y-14087260D01*
X11069700Y-14163460D02*
X11069700Y-14087260D01*
X11247500Y-14087260D02*
X11247500Y-14163460D01*
X11247500Y-14163460D02*
X11069700Y-14163460D01*
G04 #@! TO.C,C157*
X15224124Y-11685007D02*
X15349847Y-11559283D01*
X15278005Y-11738889D02*
X15224124Y-11685007D01*
X15349847Y-11559283D02*
X15403729Y-11613165D01*
X15403729Y-11613165D02*
X15278005Y-11738889D01*
G04 #@! TO.C,C158*
X15278005Y-11235994D02*
X15331887Y-11182113D01*
X15331887Y-11182113D02*
X15457610Y-11307836D01*
X15403729Y-11361718D02*
X15278005Y-11235994D01*
X15457610Y-11307836D02*
X15403729Y-11361718D01*
G04 #@! TO.C,C159*
X11892660Y-13284620D02*
X12070460Y-13284620D01*
X11892660Y-13360820D02*
X11892660Y-13284620D01*
X12070460Y-13284620D02*
X12070460Y-13360820D01*
X12070460Y-13360820D02*
X11892660Y-13360820D01*
G04 #@! TO.C,C160*
X7152740Y-13691660D02*
X7228940Y-13691660D01*
X7152740Y-13869460D02*
X7152740Y-13691660D01*
X7228940Y-13691660D02*
X7228940Y-13869460D01*
X7228940Y-13869460D02*
X7152740Y-13869460D01*
G04 #@! TO.C,C162*
X6842352Y-14261636D02*
X7020152Y-14261636D01*
X6842352Y-14337836D02*
X6842352Y-14261636D01*
X7020152Y-14261636D02*
X7020152Y-14337836D01*
X7020152Y-14337836D02*
X6842352Y-14337836D01*
G04 #@! TO.C,C163*
X5877406Y-13225316D02*
X6055206Y-13225316D01*
X5877406Y-13301516D02*
X5877406Y-13225316D01*
X6055206Y-13225316D02*
X6055206Y-13301516D01*
X6055206Y-13301516D02*
X5877406Y-13301516D01*
G04 #@! TO.C,C164*
X14993360Y-13377460D02*
X15171160Y-13377460D01*
X14993360Y-13453660D02*
X14993360Y-13377460D01*
X15171160Y-13377460D02*
X15171160Y-13453660D01*
X15171160Y-13453660D02*
X14993360Y-13453660D01*
G04 #@! TO.C,C165*
X12263500Y-14867040D02*
X12441300Y-14867040D01*
X12263500Y-14943240D02*
X12263500Y-14867040D01*
X12441300Y-14867040D02*
X12441300Y-14943240D01*
X12441300Y-14943240D02*
X12263500Y-14943240D01*
G04 #@! TO.C,C166*
X10815700Y-14750200D02*
X10891900Y-14750200D01*
X10815700Y-14928000D02*
X10815700Y-14750200D01*
X10891900Y-14750200D02*
X10891900Y-14928000D01*
X10891900Y-14928000D02*
X10815700Y-14928000D01*
G04 #@! TO.C,C167*
X7023480Y-10147720D02*
X7099680Y-10147720D01*
X7023480Y-10325520D02*
X7023480Y-10147720D01*
X7099680Y-10147720D02*
X7099680Y-10325520D01*
X7099680Y-10325520D02*
X7023480Y-10325520D01*
G04 #@! TO.C,C168*
X12768960Y-10937660D02*
X12946760Y-10937660D01*
X12768960Y-11013860D02*
X12768960Y-10937660D01*
X12946760Y-10937660D02*
X12946760Y-11013860D01*
X12946760Y-11013860D02*
X12768960Y-11013860D01*
G04 #@! TO.C,C169*
X11531460Y-15177520D02*
X11709260Y-15177520D01*
X11531460Y-15253720D02*
X11531460Y-15177520D01*
X11709260Y-15177520D02*
X11709260Y-15253720D01*
X11709260Y-15253720D02*
X11531460Y-15253720D01*
G04 #@! TO.C,C170*
X11094160Y-14956660D02*
X11170360Y-14956660D01*
X11094160Y-15134460D02*
X11094160Y-14956660D01*
X11170360Y-14956660D02*
X11170360Y-15134460D01*
X11170360Y-15134460D02*
X11094160Y-15134460D01*
G04 #@! TO.C,C171*
X6586320Y-14915940D02*
X6764120Y-14915940D01*
X6586320Y-14992140D02*
X6586320Y-14915940D01*
X6764120Y-14915940D02*
X6764120Y-14992140D01*
X6764120Y-14992140D02*
X6586320Y-14992140D01*
G04 #@! TO.C,FB2*
X7096620Y-10387080D02*
X7452220Y-10387080D01*
X7096620Y-10569960D02*
X7096620Y-10387080D01*
X7452220Y-10387080D02*
X7452220Y-10569960D01*
X7452220Y-10569960D02*
X7096620Y-10569960D01*
G04 #@! TO.C,J10*
X10162260Y-10975560D02*
X10162260Y-11375560D01*
X10162260Y-11375560D02*
X10402260Y-11375560D01*
X10402260Y-10975560D02*
X10162260Y-10975560D01*
X10402260Y-11375560D02*
X10402260Y-10975560D01*
G04 #@! TO.C,L1*
X8309400Y-14421020D02*
X8487200Y-14421020D01*
X8309400Y-14497220D02*
X8309400Y-14421020D01*
X8487200Y-14421020D02*
X8487200Y-14497220D01*
X8487200Y-14497220D02*
X8309400Y-14497220D01*
G04 #@! TO.C,L2*
X8690400Y-14067960D02*
X8690400Y-14342280D01*
X8690400Y-14342280D02*
X8812320Y-14342280D01*
X8812320Y-14067960D02*
X8690400Y-14067960D01*
X8812320Y-14342280D02*
X8812320Y-14067960D01*
G04 #@! TO.C,L3*
X8690400Y-13763160D02*
X8690400Y-14037480D01*
X8690400Y-14037480D02*
X8812320Y-14037480D01*
X8812320Y-13763160D02*
X8690400Y-13763160D01*
X8812320Y-14037480D02*
X8812320Y-13763160D01*
G04 #@! TO.C,L4*
X8586260Y-13963820D02*
X8662460Y-13963820D01*
X8586260Y-14141620D02*
X8586260Y-13963820D01*
X8662460Y-13963820D02*
X8662460Y-14141620D01*
X8662460Y-14141620D02*
X8586260Y-14141620D01*
G04 #@! TO.C,L5*
X6240880Y-13412260D02*
X6240880Y-13686580D01*
X6240880Y-13686580D02*
X6362800Y-13686580D01*
X6362800Y-13412260D02*
X6240880Y-13412260D01*
X6362800Y-13686580D02*
X6362800Y-13412260D01*
G04 #@! TO.C,L6*
X9543910Y-13189970D02*
X9721710Y-13189970D01*
X9543910Y-13266170D02*
X9543910Y-13189970D01*
X9721710Y-13189970D02*
X9721710Y-13266170D01*
X9721710Y-13266170D02*
X9543910Y-13266170D01*
G04 #@! TO.C,L7*
X9543910Y-12885170D02*
X9721710Y-12885170D01*
X9543910Y-12961370D02*
X9543910Y-12885170D01*
X9721710Y-12885170D02*
X9721710Y-12961370D01*
X9721710Y-12961370D02*
X9543910Y-12961370D01*
G04 #@! TO.C,L8*
X9848710Y-13189970D02*
X10026510Y-13189970D01*
X9848710Y-13266170D02*
X9848710Y-13189970D01*
X10026510Y-13189970D02*
X10026510Y-13266170D01*
X10026510Y-13266170D02*
X9848710Y-13266170D01*
G04 #@! TO.C,L9*
X9848710Y-12885170D02*
X10026510Y-12885170D01*
X9848710Y-12961370D02*
X9848710Y-12885170D01*
X10026510Y-12885170D02*
X10026510Y-12961370D01*
X10026510Y-12961370D02*
X9848710Y-12961370D01*
G04 #@! TO.C,L10*
X15183496Y-9581716D02*
X15623424Y-9581716D01*
X15183496Y-10021644D02*
X15183496Y-9581716D01*
X15623424Y-9581716D02*
X15623424Y-10021644D01*
X15623424Y-10021644D02*
X15183496Y-10021644D01*
G04 #@! TO.C,L11*
X15183496Y-8819716D02*
X15623424Y-8819716D01*
X15183496Y-9259644D02*
X15183496Y-8819716D01*
X15623424Y-8819716D02*
X15623424Y-9259644D01*
X15623424Y-9259644D02*
X15183496Y-9259644D01*
G04 #@! TO.C,L12*
X6875880Y-14092980D02*
X6875880Y-14214900D01*
X6875880Y-14214900D02*
X7150200Y-14214900D01*
X7150200Y-14092980D02*
X6875880Y-14092980D01*
X7150200Y-14214900D02*
X7150200Y-14092980D01*
G04 #@! TO.C,L13*
X5758280Y-14265700D02*
X5758280Y-14540020D01*
X5758280Y-14540020D02*
X5880200Y-14540020D01*
X5880200Y-14265700D02*
X5758280Y-14265700D01*
X5880200Y-14540020D02*
X5880200Y-14265700D01*
D15*
G04 #@! TO.C,P1*
X13200760Y-9312060D02*
X13200760Y-9693060D01*
X13200760Y-9693060D02*
X13518260Y-9693060D01*
X13264260Y-9375560D02*
X13264260Y-9629560D01*
X13264260Y-9375560D02*
X13772260Y-9375560D01*
X13518260Y-9312060D02*
X13200760Y-9312060D01*
X13518260Y-9693060D02*
X13518260Y-9312060D01*
X13772260Y-9375560D02*
X13772260Y-9629560D01*
X13772260Y-9629560D02*
X13264260Y-9629560D01*
G04 #@! TO.C,P3*
X13264260Y-10391560D02*
X13264260Y-9883560D01*
X13518260Y-9883560D02*
X13264260Y-9883560D01*
X13518260Y-9883560D02*
X13518260Y-10391560D01*
X13518260Y-10391560D02*
X13264260Y-10391560D01*
G04 #@! TO.C,P5*
X7422260Y-8613560D02*
X8184260Y-8613560D01*
X7422260Y-9121560D02*
X7422260Y-8613560D01*
X7930260Y-8550060D02*
X7930260Y-8867560D01*
X7930260Y-8867560D02*
X8247760Y-8867560D01*
X8184260Y-8613560D02*
X8184260Y-9121560D01*
X8184260Y-9121560D02*
X7422260Y-9121560D01*
X8247760Y-8550060D02*
X7930260Y-8550060D01*
X8247760Y-8867560D02*
X8247760Y-8550060D01*
D10*
G04 #@! TO.C,P6*
X8668880Y-14232640D02*
G75*
G02*
X8526640Y-14232640I-71120J0D01*
G01*
X8526640Y-14232640D02*
G75*
G02*
X8668880Y-14232640I71120J0D01*
G01*
G04 #@! TO.C,P7*
X7825600Y-14341860D02*
G75*
G02*
X7683360Y-14341860I-71120J0D01*
G01*
X7683360Y-14341860D02*
G75*
G02*
X7825600Y-14341860I71120J0D01*
G01*
D15*
G04 #@! TO.C,P8*
X14470760Y-9312060D02*
X14470760Y-9693060D01*
X14470760Y-9693060D02*
X14788260Y-9693060D01*
X14534260Y-9375560D02*
X14534260Y-9629560D01*
X14534260Y-9375560D02*
X15042260Y-9375560D01*
X14788260Y-9312060D02*
X14470760Y-9312060D01*
X14788260Y-9693060D02*
X14788260Y-9312060D01*
X15042260Y-9375560D02*
X15042260Y-9629560D01*
X15042260Y-9629560D02*
X14534260Y-9629560D01*
G04 #@! TO.C,P9*
X7676260Y-10899560D02*
X9708260Y-10899560D01*
X7676260Y-11407560D02*
X7676260Y-10899560D01*
X9454260Y-10836060D02*
X9454260Y-11153560D01*
X9454260Y-11153560D02*
X9771760Y-11153560D01*
X9708260Y-10899560D02*
X9708260Y-11407560D01*
X9708260Y-11407560D02*
X7676260Y-11407560D01*
X9771760Y-10836060D02*
X9454260Y-10836060D01*
X9771760Y-11153560D02*
X9771760Y-10836060D01*
D10*
G04 #@! TO.C,P13*
X7729600Y-14143140D02*
G75*
G02*
X7587360Y-14143140I-71120J0D01*
G01*
X7587360Y-14143140D02*
G75*
G02*
X7729600Y-14143140I71120J0D01*
G01*
G04 #@! TO.C,P14*
X10452480Y-12596280D02*
G75*
G02*
X10310240Y-12596280I-71120J0D01*
G01*
X10310240Y-12596280D02*
G75*
G02*
X10452480Y-12596280I71120J0D01*
G01*
G04 #@! TO.C,P15*
X11970880Y-15149580D02*
G75*
G02*
X11828640Y-15149580I-71120J0D01*
G01*
X11828640Y-15149580D02*
G75*
G02*
X11970880Y-15149580I71120J0D01*
G01*
G04 #@! TO.C,P17*
X7681340Y-13795160D02*
G75*
G02*
X7539100Y-13795160I-71120J0D01*
G01*
X7539100Y-13795160D02*
G75*
G02*
X7681340Y-13795160I71120J0D01*
G01*
G04 #@! TO.C,P18*
X12288380Y-14735560D02*
G75*
G02*
X12146140Y-14735560I-71120J0D01*
G01*
X12146140Y-14735560D02*
G75*
G02*
X12288380Y-14735560I71120J0D01*
G01*
G04 #@! TO.C,P19*
X8638920Y-14392060D02*
G75*
G02*
X8496680Y-14392060I-71120J0D01*
G01*
X8496680Y-14392060D02*
G75*
G02*
X8638920Y-14392060I71120J0D01*
G01*
D15*
G04 #@! TO.C,P20*
X15804260Y-11153560D02*
X16312260Y-11153560D01*
X15804260Y-13947560D02*
X15804260Y-11153560D01*
X16058260Y-13693560D02*
X16058260Y-14011060D01*
X16058260Y-14011060D02*
X16375760Y-14011060D01*
X16312260Y-11153560D02*
X16312260Y-13947560D01*
X16312260Y-13947560D02*
X15804260Y-13947560D01*
X16375760Y-13693560D02*
X16058260Y-13693560D01*
X16375760Y-14011060D02*
X16375760Y-13693560D01*
D10*
G04 #@! TO.C,P21*
X7686420Y-13970420D02*
G75*
G02*
X7544180Y-13970420I-71120J0D01*
G01*
X7544180Y-13970420D02*
G75*
G02*
X7686420Y-13970420I71120J0D01*
G01*
D15*
G04 #@! TO.C,P22*
X12502260Y-14455560D02*
X15804260Y-14455560D01*
X12502260Y-14963560D02*
X12502260Y-14455560D01*
X15550260Y-14392060D02*
X15550260Y-14709560D01*
X15550260Y-14709560D02*
X15867760Y-14709560D01*
X15804260Y-14455560D02*
X15804260Y-14963560D01*
X15804260Y-14963560D02*
X12502260Y-14963560D01*
X15867760Y-14392060D02*
X15550260Y-14392060D01*
X15867760Y-14709560D02*
X15867760Y-14392060D01*
D10*
G04 #@! TO.C,P23*
X14526640Y-10551580D02*
G75*
G02*
X14384400Y-10551580I-71120J0D01*
G01*
X14384400Y-10551580D02*
G75*
G02*
X14526640Y-10551580I71120J0D01*
G01*
G04 #@! TO.C,P24*
X14526120Y-10745220D02*
G75*
G02*
X14383880Y-10745220I-71120J0D01*
G01*
X14383880Y-10745220D02*
G75*
G02*
X14526120Y-10745220I71120J0D01*
G01*
D15*
G04 #@! TO.C,P25*
X12438760Y-13884060D02*
X12438760Y-14265060D01*
X12438760Y-14265060D02*
X12756260Y-14265060D01*
X12502260Y-13947560D02*
X12502260Y-14201560D01*
X12502260Y-13947560D02*
X14026260Y-13947560D01*
X12756260Y-13884060D02*
X12438760Y-13884060D01*
X12756260Y-14265060D02*
X12756260Y-13884060D01*
X14026260Y-13947560D02*
X14026260Y-14201560D01*
X14026260Y-14201560D02*
X12502260Y-14201560D01*
D10*
G04 #@! TO.C,P26*
X13941840Y-9608720D02*
X13941840Y-10243720D01*
X14282200Y-9608720D02*
X13941840Y-9608720D01*
X14282200Y-10243720D02*
X13941840Y-10243720D01*
X14282200Y-10243720D02*
X14282200Y-9608720D01*
G04 #@! TO.C,P27*
X8382380Y-13056020D02*
G75*
G02*
X8240140Y-13056020I-71120J0D01*
G01*
X8240140Y-13056020D02*
G75*
G02*
X8382380Y-13056020I71120J0D01*
G01*
D15*
G04 #@! TO.C,P28*
X10978260Y-11153560D02*
X11486260Y-11153560D01*
X10978260Y-13947560D02*
X10978260Y-11153560D01*
X11232260Y-13693560D02*
X11232260Y-14011060D01*
X11232260Y-14011060D02*
X11549760Y-14011060D01*
X11486260Y-11153560D02*
X11486260Y-13947560D01*
X11486260Y-13947560D02*
X10978260Y-13947560D01*
X11549760Y-13693560D02*
X11232260Y-13693560D01*
X11549760Y-14011060D02*
X11549760Y-13693560D01*
G04 #@! TO.C,P29*
X11676760Y-11344060D02*
X11676760Y-11725060D01*
X11676760Y-11725060D02*
X11994260Y-11725060D01*
X11740260Y-11407560D02*
X11740260Y-11661560D01*
X11740260Y-11407560D02*
X12248260Y-11407560D01*
X11994260Y-11344060D02*
X11676760Y-11344060D01*
X11994260Y-11725060D02*
X11994260Y-11344060D01*
X12248260Y-11407560D02*
X12248260Y-11661560D01*
X12248260Y-11661560D02*
X11740260Y-11661560D01*
G04 #@! TO.C,P30*
X12502260Y-8613560D02*
X15042260Y-8613560D01*
X12502260Y-9121560D02*
X12502260Y-8613560D01*
X14788260Y-8550060D02*
X14788260Y-8867560D01*
X14788260Y-8867560D02*
X15105760Y-8867560D01*
X15042260Y-8613560D02*
X15042260Y-9121560D01*
X15042260Y-9121560D02*
X12502260Y-9121560D01*
X15105760Y-8550060D02*
X14788260Y-8550060D01*
X15105760Y-8867560D02*
X15105760Y-8550060D01*
D10*
G04 #@! TO.C,P31*
X8600820Y-13574180D02*
G75*
G02*
X8458580Y-13574180I-71120J0D01*
G01*
X8458580Y-13574180D02*
G75*
G02*
X8600820Y-13574180I71120J0D01*
G01*
G04 #@! TO.C,P32*
X8925420Y-13338560D02*
G75*
G02*
X8783180Y-13338560I-71120J0D01*
G01*
X8783180Y-13338560D02*
G75*
G02*
X8925420Y-13338560I71120J0D01*
G01*
G04 #@! TO.C,P33*
X8938640Y-13576720D02*
G75*
G02*
X8796400Y-13576720I-71120J0D01*
G01*
X8796400Y-13576720D02*
G75*
G02*
X8938640Y-13576720I71120J0D01*
G01*
G04 #@! TO.C,P34*
X9926420Y-14634000D02*
G75*
G02*
X9784180Y-14634000I-71120J0D01*
G01*
X9784180Y-14634000D02*
G75*
G02*
X9926420Y-14634000I71120J0D01*
G01*
G04 #@! TO.C,P35*
X10365840Y-14900700D02*
G75*
G02*
X10223600Y-14900700I-71120J0D01*
G01*
X10223600Y-14900700D02*
G75*
G02*
X10365840Y-14900700I71120J0D01*
G01*
D15*
G04 #@! TO.C,P36*
X7104760Y-10899560D02*
X7104760Y-11217060D01*
X7104760Y-11217060D02*
X7485760Y-11217060D01*
X7168260Y-10645560D02*
X7422260Y-10645560D01*
X7168260Y-11153560D02*
X7168260Y-10645560D01*
X7168260Y-11153560D02*
X7422260Y-11153560D01*
X7422260Y-10645560D02*
X7422260Y-11153560D01*
X7485760Y-10899560D02*
X7104760Y-10899560D01*
X7485760Y-11217060D02*
X7485760Y-10899560D01*
D10*
G04 #@! TO.C,P37*
X12324460Y-13800240D02*
G75*
G02*
X12182220Y-13800240I-71120J0D01*
G01*
X12182220Y-13800240D02*
G75*
G02*
X12324460Y-13800240I71120J0D01*
G01*
G04 #@! TO.C,P38*
X12354940Y-13259220D02*
G75*
G02*
X12212700Y-13259220I-71120J0D01*
G01*
X12212700Y-13259220D02*
G75*
G02*
X12354940Y-13259220I71120J0D01*
G01*
G04 #@! TO.C,P39*
X8786240Y-8857400D02*
G75*
G02*
X8644000Y-8857400I-71120J0D01*
G01*
X8644000Y-8857400D02*
G75*
G02*
X8786240Y-8857400I71120J0D01*
G01*
G04 #@! TO.C,P40*
X12598780Y-11051960D02*
G75*
G02*
X12456540Y-11051960I-71120J0D01*
G01*
X12456540Y-11051960D02*
G75*
G02*
X12598780Y-11051960I71120J0D01*
G01*
G04 #@! TO.C,P41*
X13106780Y-11077360D02*
G75*
G02*
X12964540Y-11077360I-71120J0D01*
G01*
X12964540Y-11077360D02*
G75*
G02*
X13106780Y-11077360I71120J0D01*
G01*
G04 #@! TO.C,P43*
X9245980Y-14425080D02*
G75*
G02*
X9103740Y-14425080I-71120J0D01*
G01*
X9103740Y-14425080D02*
G75*
G02*
X9245980Y-14425080I71120J0D01*
G01*
G04 #@! TO.C,P44*
X7284820Y-12622320D02*
G75*
G02*
X7142580Y-12622320I-71120J0D01*
G01*
X7142580Y-12622320D02*
G75*
G02*
X7284820Y-12622320I71120J0D01*
G01*
G04 #@! TO.C,P46*
X6993000Y-13155080D02*
G75*
G02*
X6850760Y-13155080I-71120J0D01*
G01*
X6850760Y-13155080D02*
G75*
G02*
X6993000Y-13155080I71120J0D01*
G01*
G04 #@! TO.C,P47*
X6286880Y-12342280D02*
G75*
G02*
X6144640Y-12342280I-71120J0D01*
G01*
X6144640Y-12342280D02*
G75*
G02*
X6286880Y-12342280I71120J0D01*
G01*
G04 #@! TO.C,P48*
X7101940Y-13478300D02*
G75*
G02*
X6959700Y-13478300I-71120J0D01*
G01*
X6959700Y-13478300D02*
G75*
G02*
X7101940Y-13478300I71120J0D01*
G01*
G04 #@! TO.C,P50*
X13355700Y-13660540D02*
G75*
G02*
X13213460Y-13660540I-71120J0D01*
G01*
X13213460Y-13660540D02*
G75*
G02*
X13355700Y-13660540I71120J0D01*
G01*
G04 #@! TO.C,P52*
X6333336Y-13141496D02*
G75*
G02*
X6191096Y-13141496I-71120J0D01*
G01*
X6191096Y-13141496D02*
G75*
G02*
X6333336Y-13141496I71120J0D01*
G01*
G04 #@! TO.C,P53*
X12154280Y-11778400D02*
G75*
G02*
X12012040Y-11778400I-71120J0D01*
G01*
X12012040Y-11778400D02*
G75*
G02*
X12154280Y-11778400I71120J0D01*
G01*
G04 #@! TO.C,P54*
X8517000Y-9108860D02*
G75*
G02*
X8374760Y-9108860I-71120J0D01*
G01*
X8374760Y-9108860D02*
G75*
G02*
X8517000Y-9108860I71120J0D01*
G01*
G04 #@! TO.C,P55*
X9284080Y-12794400D02*
G75*
G02*
X9141840Y-12794400I-71120J0D01*
G01*
X9141840Y-12794400D02*
G75*
G02*
X9284080Y-12794400I71120J0D01*
G01*
G04 #@! TO.C,P56*
X9408540Y-12923940D02*
G75*
G02*
X9266300Y-12923940I-71120J0D01*
G01*
X9266300Y-12923940D02*
G75*
G02*
X9408540Y-12923940I71120J0D01*
G01*
G04 #@! TO.C,P57*
X10957940Y-12619140D02*
G75*
G02*
X10815700Y-12619140I-71120J0D01*
G01*
X10815700Y-12619140D02*
G75*
G02*
X10957940Y-12619140I71120J0D01*
G01*
G04 #@! TO.C,P58*
X10086720Y-10571900D02*
G75*
G02*
X9944480Y-10571900I-71120J0D01*
G01*
X9944480Y-10571900D02*
G75*
G02*
X10086720Y-10571900I71120J0D01*
G01*
G04 #@! TO.C,P59*
X11808840Y-13492900D02*
G75*
G02*
X11666600Y-13492900I-71120J0D01*
G01*
X11666600Y-13492900D02*
G75*
G02*
X11808840Y-13492900I71120J0D01*
G01*
G04 #@! TO.C,P60*
X12108560Y-13899300D02*
G75*
G02*
X11966320Y-13899300I-71120J0D01*
G01*
X11966320Y-13899300D02*
G75*
G02*
X12108560Y-13899300I71120J0D01*
G01*
G04 #@! TO.C,P61*
X10150220Y-10183280D02*
G75*
G02*
X10007980Y-10183280I-71120J0D01*
G01*
X10007980Y-10183280D02*
G75*
G02*
X10150220Y-10183280I71120J0D01*
G01*
G04 #@! TO.C,P62*
X10342740Y-9371080D02*
G75*
G02*
X10200500Y-9371080I-71120J0D01*
G01*
X10200500Y-9371080D02*
G75*
G02*
X10342740Y-9371080I71120J0D01*
G01*
G04 #@! TO.C,P63*
X10309720Y-9172960D02*
G75*
G02*
X10167480Y-9172960I-71120J0D01*
G01*
X10167480Y-9172960D02*
G75*
G02*
X10309720Y-9172960I71120J0D01*
G01*
G04 #@! TO.C,P64*
X9347060Y-8753860D02*
G75*
G02*
X9204820Y-8753860I-71120J0D01*
G01*
X9204820Y-8753860D02*
G75*
G02*
X9347060Y-8753860I71120J0D01*
G01*
G04 #@! TO.C,P65*
X10101960Y-9654960D02*
G75*
G02*
X9959720Y-9654960I-71120J0D01*
G01*
X9959720Y-9654960D02*
G75*
G02*
X10101960Y-9654960I71120J0D01*
G01*
G04 #@! TO.C,P66*
X10896980Y-8971700D02*
G75*
G02*
X10754740Y-8971700I-71120J0D01*
G01*
X10754740Y-8971700D02*
G75*
G02*
X10896980Y-8971700I71120J0D01*
G01*
G04 #@! TO.C,P67*
X15568040Y-12045100D02*
G75*
G02*
X15425800Y-12045100I-71120J0D01*
G01*
X15425800Y-12045100D02*
G75*
G02*
X15568040Y-12045100I71120J0D01*
G01*
G04 #@! TO.C,P68*
X14770480Y-13404000D02*
G75*
G02*
X14628240Y-13404000I-71120J0D01*
G01*
X14628240Y-13404000D02*
G75*
G02*
X14770480Y-13404000I71120J0D01*
G01*
G04 #@! TO.C,P69*
X14733380Y-10035560D02*
G75*
G02*
X14591140Y-10035560I-71120J0D01*
G01*
X14591140Y-10035560D02*
G75*
G02*
X14733380Y-10035560I71120J0D01*
G01*
G04 #@! TO.C,P70*
X5656960Y-11209440D02*
G75*
G02*
X5514720Y-11209440I-71120J0D01*
G01*
X5514720Y-11209440D02*
G75*
G02*
X5656960Y-11209440I71120J0D01*
G01*
G04 #@! TO.C,P72*
X15217520Y-11166260D02*
G75*
G02*
X15075280Y-11166260I-71120J0D01*
G01*
X15075280Y-11166260D02*
G75*
G02*
X15217520Y-11166260I71120J0D01*
G01*
G04 #@! TO.C,P73*
X12931520Y-10447440D02*
G75*
G02*
X12789280Y-10447440I-71120J0D01*
G01*
X12789280Y-10447440D02*
G75*
G02*
X12931520Y-10447440I71120J0D01*
G01*
G04 #@! TO.C,P74*
X13167220Y-10534400D02*
G75*
G02*
X13024980Y-10534400I-71120J0D01*
G01*
X13024980Y-10534400D02*
G75*
G02*
X13167220Y-10534400I71120J0D01*
G01*
G04 #@! TO.C,P75*
X13678280Y-9774340D02*
G75*
G02*
X13536040Y-9774340I-71120J0D01*
G01*
X13536040Y-9774340D02*
G75*
G02*
X13678280Y-9774340I71120J0D01*
G01*
G04 #@! TO.C,P76*
X13193140Y-10307740D02*
G75*
G02*
X13050900Y-10307740I-71120J0D01*
G01*
X13050900Y-10307740D02*
G75*
G02*
X13193140Y-10307740I71120J0D01*
G01*
G04 #@! TO.C,P77*
X13172820Y-9693060D02*
G75*
G02*
X13030580Y-9693060I-71120J0D01*
G01*
X13030580Y-9693060D02*
G75*
G02*
X13172820Y-9693060I71120J0D01*
G01*
G04 #@! TO.C,P78*
X12324460Y-10881780D02*
G75*
G02*
X12182220Y-10881780I-71120J0D01*
G01*
X12182220Y-10881780D02*
G75*
G02*
X12324460Y-10881780I71120J0D01*
G01*
G04 #@! TO.C,P79*
X12461620Y-11567580D02*
G75*
G02*
X12319380Y-11567580I-71120J0D01*
G01*
X12319380Y-11567580D02*
G75*
G02*
X12461620Y-11567580I71120J0D01*
G01*
D15*
G04 #@! TO.C,P80*
X16566260Y-11661560D02*
X16566260Y-11153560D01*
X16820260Y-11153560D02*
X16566260Y-11153560D01*
X16820260Y-11153560D02*
X16820260Y-11661560D01*
X16820260Y-11661560D02*
X16566260Y-11661560D01*
D10*
G04 #@! TO.C,P81*
X15656940Y-14028840D02*
G75*
G02*
X15514700Y-14028840I-71120J0D01*
G01*
X15514700Y-14028840D02*
G75*
G02*
X15656940Y-14028840I71120J0D01*
G01*
G04 #@! TO.C,P82*
X14379320Y-14054240D02*
G75*
G02*
X14237080Y-14054240I-71120J0D01*
G01*
X14237080Y-14054240D02*
G75*
G02*
X14379320Y-14054240I71120J0D01*
G01*
G04 #@! TO.C,P83*
X10213440Y-14222520D02*
G75*
G02*
X10071200Y-14222520I-71120J0D01*
G01*
X10071200Y-14222520D02*
G75*
G02*
X10213440Y-14222520I71120J0D01*
G01*
G04 #@! TO.C,P84*
X9230740Y-14925460D02*
G75*
G02*
X9088500Y-14925460I-71120J0D01*
G01*
X9088500Y-14925460D02*
G75*
G02*
X9230740Y-14925460I71120J0D01*
G01*
G04 #@! TO.C,P85*
X8671940Y-13066180D02*
G75*
G02*
X8529700Y-13066180I-71120J0D01*
G01*
X8529700Y-13066180D02*
G75*
G02*
X8671940Y-13066180I71120J0D01*
G01*
G04 #@! TO.C,P86*
X8219540Y-12370860D02*
G75*
G02*
X8077300Y-12370860I-71120J0D01*
G01*
X8077300Y-12370860D02*
G75*
G02*
X8219540Y-12370860I71120J0D01*
G01*
G04 #@! TO.C,P87*
X6680300Y-14776240D02*
G75*
G02*
X6538060Y-14776240I-71120J0D01*
G01*
X6538060Y-14776240D02*
G75*
G02*
X6680300Y-14776240I71120J0D01*
G01*
G04 #@! TO.C,P88*
X7190840Y-13176040D02*
G75*
G02*
X7048600Y-13176040I-71120J0D01*
G01*
X7048600Y-13176040D02*
G75*
G02*
X7190840Y-13176040I71120J0D01*
G01*
G04 #@! TO.C,P89*
X7666100Y-14425080D02*
G75*
G02*
X7523860Y-14425080I-71120J0D01*
G01*
X7523860Y-14425080D02*
G75*
G02*
X7666100Y-14425080I71120J0D01*
G01*
G04 #@! TO.C,P91*
X9479660Y-13487820D02*
G75*
G02*
X9337420Y-13487820I-71120J0D01*
G01*
X9337420Y-13487820D02*
G75*
G02*
X9479660Y-13487820I71120J0D01*
G01*
G04 #@! TO.C,P92*
X10297540Y-13383680D02*
G75*
G02*
X10155300Y-13383680I-71120J0D01*
G01*
X10155300Y-13383680D02*
G75*
G02*
X10297540Y-13383680I71120J0D01*
G01*
D16*
G04 #@! TO.C,Q3*
X7234300Y-10155340D02*
X7539100Y-10155340D01*
X7234300Y-10231540D02*
X7234300Y-10155340D01*
X7539100Y-10155340D02*
X7539100Y-10231540D01*
X7539100Y-10231540D02*
X7234300Y-10231540D01*
G04 #@! TO.C,Q4*
X6352640Y-14908320D02*
X6428840Y-14908320D01*
X6352640Y-15213120D02*
X6352640Y-14908320D01*
X6428840Y-14908320D02*
X6428840Y-15213120D01*
X6428840Y-15213120D02*
X6352640Y-15213120D01*
G04 #@! TO.C,Q5*
X15134160Y-10053160D02*
X15210360Y-10053160D01*
X15134160Y-10357960D02*
X15134160Y-10053160D01*
X15210360Y-10053160D02*
X15210360Y-10357960D01*
X15210360Y-10357960D02*
X15134160Y-10357960D01*
D10*
G04 #@! TO.C,R1*
X7750600Y-13405020D02*
X7826800Y-13405020D01*
X7750600Y-13582820D02*
X7750600Y-13405020D01*
X7826800Y-13405020D02*
X7826800Y-13582820D01*
X7826800Y-13582820D02*
X7750600Y-13582820D01*
G04 #@! TO.C,R2*
X7763300Y-13151020D02*
X7941100Y-13151020D01*
X7763300Y-13227220D02*
X7763300Y-13151020D01*
X7941100Y-13151020D02*
X7941100Y-13227220D01*
X7941100Y-13227220D02*
X7763300Y-13227220D01*
G04 #@! TO.C,R3*
X7979200Y-13405020D02*
X8055400Y-13405020D01*
X7979200Y-13582820D02*
X7979200Y-13405020D01*
X8055400Y-13405020D02*
X8055400Y-13582820D01*
X8055400Y-13582820D02*
X7979200Y-13582820D01*
G04 #@! TO.C,R4*
X8281460Y-13369460D02*
X8357660Y-13369460D01*
X8281460Y-13547260D02*
X8281460Y-13369460D01*
X8357660Y-13369460D02*
X8357660Y-13547260D01*
X8357660Y-13547260D02*
X8281460Y-13547260D01*
G04 #@! TO.C,R5*
X12628357Y-11282739D02*
X12682239Y-11228857D01*
X12682239Y-11228857D02*
X12807963Y-11354581D01*
X12754081Y-11408463D02*
X12628357Y-11282739D01*
X12807963Y-11354581D02*
X12754081Y-11408463D01*
G04 #@! TO.C,R6*
X12704557Y-11206539D02*
X12758439Y-11152657D01*
X12758439Y-11152657D02*
X12884163Y-11278381D01*
X12830281Y-11332263D02*
X12704557Y-11206539D01*
X12884163Y-11278381D02*
X12830281Y-11332263D01*
G04 #@! TO.C,R7*
X5631560Y-10531260D02*
X5707760Y-10531260D01*
X5631560Y-10709060D02*
X5631560Y-10531260D01*
X5707760Y-10531260D02*
X5707760Y-10709060D01*
X5707760Y-10709060D02*
X5631560Y-10709060D01*
G04 #@! TO.C,R8*
X8026260Y-10330260D02*
X8102460Y-10330260D01*
X8026260Y-10508060D02*
X8026260Y-10330260D01*
X8102460Y-10330260D02*
X8102460Y-10508060D01*
X8102460Y-10508060D02*
X8026260Y-10508060D01*
G04 #@! TO.C,R9*
X8153260Y-10330260D02*
X8229460Y-10330260D01*
X8153260Y-10508060D02*
X8153260Y-10330260D01*
X8229460Y-10330260D02*
X8229460Y-10508060D01*
X8229460Y-10508060D02*
X8153260Y-10508060D01*
G04 #@! TO.C,R10*
X8338680Y-10330260D02*
X8414880Y-10330260D01*
X8338680Y-10508060D02*
X8338680Y-10330260D01*
X8414880Y-10330260D02*
X8414880Y-10508060D01*
X8414880Y-10508060D02*
X8338680Y-10508060D01*
G04 #@! TO.C,R11*
X13396340Y-10526180D02*
X13574140Y-10526180D01*
X13396340Y-10602380D02*
X13396340Y-10526180D01*
X13574140Y-10526180D02*
X13574140Y-10602380D01*
X13574140Y-10602380D02*
X13396340Y-10602380D01*
G04 #@! TO.C,R13*
X8465680Y-10330260D02*
X8541880Y-10330260D01*
X8465680Y-10508060D02*
X8465680Y-10330260D01*
X8541880Y-10330260D02*
X8541880Y-10508060D01*
X8541880Y-10508060D02*
X8465680Y-10508060D01*
G04 #@! TO.C,R14*
X8465680Y-10635060D02*
X8541880Y-10635060D01*
X8465680Y-10812860D02*
X8465680Y-10635060D01*
X8541880Y-10635060D02*
X8541880Y-10812860D01*
X8541880Y-10812860D02*
X8465680Y-10812860D01*
G04 #@! TO.C,R15*
X8338680Y-10635060D02*
X8414880Y-10635060D01*
X8338680Y-10812860D02*
X8338680Y-10635060D01*
X8414880Y-10635060D02*
X8414880Y-10812860D01*
X8414880Y-10812860D02*
X8338680Y-10812860D01*
G04 #@! TO.C,R16*
X8153260Y-10635060D02*
X8229460Y-10635060D01*
X8153260Y-10812860D02*
X8153260Y-10635060D01*
X8229460Y-10635060D02*
X8229460Y-10812860D01*
X8229460Y-10812860D02*
X8153260Y-10812860D01*
G04 #@! TO.C,R17*
X8026260Y-10635060D02*
X8102460Y-10635060D01*
X8026260Y-10812860D02*
X8026260Y-10635060D01*
X8102460Y-10635060D02*
X8102460Y-10812860D01*
X8102460Y-10812860D02*
X8026260Y-10812860D01*
G04 #@! TO.C,R18*
X5123560Y-11521860D02*
X5301360Y-11521860D01*
X5123560Y-11598060D02*
X5123560Y-11521860D01*
X5301360Y-11521860D02*
X5301360Y-11598060D01*
X5301360Y-11598060D02*
X5123560Y-11598060D01*
G04 #@! TO.C,R19*
X5740780Y-9342540D02*
X5816980Y-9342540D01*
X5740780Y-9520340D02*
X5740780Y-9342540D01*
X5816980Y-9342540D02*
X5816980Y-9520340D01*
X5816980Y-9520340D02*
X5740780Y-9520340D01*
G04 #@! TO.C,R20*
X8845410Y-10659190D02*
X8921610Y-10659190D01*
X8845410Y-10836990D02*
X8845410Y-10659190D01*
X8921610Y-10659190D02*
X8921610Y-10836990D01*
X8921610Y-10836990D02*
X8845410Y-10836990D01*
G04 #@! TO.C,R21*
X8972410Y-10659190D02*
X9048610Y-10659190D01*
X8972410Y-10836990D02*
X8972410Y-10659190D01*
X9048610Y-10659190D02*
X9048610Y-10836990D01*
X9048610Y-10836990D02*
X8972410Y-10836990D01*
G04 #@! TO.C,R22*
X9157830Y-10659190D02*
X9234030Y-10659190D01*
X9157830Y-10836990D02*
X9157830Y-10659190D01*
X9234030Y-10659190D02*
X9234030Y-10836990D01*
X9234030Y-10836990D02*
X9157830Y-10836990D01*
G04 #@! TO.C,R23*
X9284830Y-10659190D02*
X9361030Y-10659190D01*
X9284830Y-10836990D02*
X9284830Y-10659190D01*
X9361030Y-10659190D02*
X9361030Y-10836990D01*
X9361030Y-10836990D02*
X9284830Y-10836990D01*
G04 #@! TO.C,R25*
X10318610Y-12072370D02*
X10496410Y-12072370D01*
X10318610Y-12148570D02*
X10318610Y-12072370D01*
X10496410Y-12072370D02*
X10496410Y-12148570D01*
X10496410Y-12148570D02*
X10318610Y-12148570D01*
G04 #@! TO.C,R26*
X10318610Y-11970770D02*
X10496410Y-11970770D01*
X10318610Y-12046970D02*
X10318610Y-11970770D01*
X10496410Y-11970770D02*
X10496410Y-12046970D01*
X10496410Y-12046970D02*
X10318610Y-12046970D01*
G04 #@! TO.C,R27*
X12210160Y-14318400D02*
X12387960Y-14318400D01*
X12210160Y-14394600D02*
X12210160Y-14318400D01*
X12387960Y-14318400D02*
X12387960Y-14394600D01*
X12387960Y-14394600D02*
X12210160Y-14394600D01*
G04 #@! TO.C,R28*
X12136500Y-14005980D02*
X12314300Y-14005980D01*
X12136500Y-14082180D02*
X12136500Y-14005980D01*
X12314300Y-14005980D02*
X12314300Y-14082180D01*
X12314300Y-14082180D02*
X12136500Y-14082180D01*
G04 #@! TO.C,R30*
X5740780Y-10637940D02*
X5816980Y-10637940D01*
X5740780Y-10815740D02*
X5740780Y-10637940D01*
X5816980Y-10637940D02*
X5816980Y-10815740D01*
X5816980Y-10815740D02*
X5740780Y-10815740D01*
G04 #@! TO.C,R31*
X11587860Y-13919620D02*
X11664060Y-13919620D01*
X11587860Y-14097420D02*
X11587860Y-13919620D01*
X11664060Y-13919620D02*
X11664060Y-14097420D01*
X11664060Y-14097420D02*
X11587860Y-14097420D01*
G04 #@! TO.C,R32*
X11699620Y-13777380D02*
X11775820Y-13777380D01*
X11699620Y-13955180D02*
X11699620Y-13777380D01*
X11775820Y-13777380D02*
X11775820Y-13955180D01*
X11775820Y-13955180D02*
X11699620Y-13955180D01*
G04 #@! TO.C,R33*
X12337160Y-14656220D02*
X12413360Y-14656220D01*
X12337160Y-14834020D02*
X12337160Y-14656220D01*
X12413360Y-14656220D02*
X12413360Y-14834020D01*
X12413360Y-14834020D02*
X12337160Y-14834020D01*
G04 #@! TO.C,R34*
X11180940Y-14199620D02*
X11358740Y-14199620D01*
X11180940Y-14275820D02*
X11180940Y-14199620D01*
X11358740Y-14199620D02*
X11358740Y-14275820D01*
X11358740Y-14275820D02*
X11180940Y-14275820D01*
G04 #@! TO.C,R37*
X14803360Y-10537460D02*
X14981160Y-10537460D01*
X14803360Y-10613660D02*
X14803360Y-10537460D01*
X14981160Y-10537460D02*
X14981160Y-10613660D01*
X14981160Y-10613660D02*
X14803360Y-10613660D01*
G04 #@! TO.C,R41*
X12768960Y-10810660D02*
X12946760Y-10810660D01*
X12768960Y-10886860D02*
X12768960Y-10810660D01*
X12946760Y-10810660D02*
X12946760Y-10886860D01*
X12946760Y-10886860D02*
X12768960Y-10886860D01*
G04 #@! TO.C,R46*
X16140060Y-9763580D02*
X16317860Y-9763580D01*
X16140060Y-9839780D02*
X16140060Y-9763580D01*
X16317860Y-9763580D02*
X16317860Y-9839780D01*
X16317860Y-9839780D02*
X16140060Y-9839780D01*
G04 #@! TO.C,R47*
X16140060Y-9865180D02*
X16317860Y-9865180D01*
X16140060Y-9941380D02*
X16140060Y-9865180D01*
X16317860Y-9865180D02*
X16317860Y-9941380D01*
X16317860Y-9941380D02*
X16140060Y-9941380D01*
G04 #@! TO.C,R48*
X15321660Y-13210960D02*
X15499460Y-13210960D01*
X15321660Y-13287160D02*
X15321660Y-13210960D01*
X15499460Y-13210960D02*
X15499460Y-13287160D01*
X15499460Y-13287160D02*
X15321660Y-13287160D01*
G04 #@! TO.C,R49*
X5631560Y-9235860D02*
X5707760Y-9235860D01*
X5631560Y-9413660D02*
X5631560Y-9235860D01*
X5707760Y-9235860D02*
X5707760Y-9413660D01*
X5707760Y-9413660D02*
X5631560Y-9413660D01*
G04 #@! TO.C,R51*
X14773360Y-10017460D02*
X14951160Y-10017460D01*
X14773360Y-10093660D02*
X14773360Y-10017460D01*
X14951160Y-10017460D02*
X14951160Y-10093660D01*
X14951160Y-10093660D02*
X14773360Y-10093660D01*
G04 #@! TO.C,R52*
X16504160Y-9086660D02*
X16580360Y-9086660D01*
X16504160Y-9264460D02*
X16504160Y-9086660D01*
X16580360Y-9086660D02*
X16580360Y-9264460D01*
X16580360Y-9264460D02*
X16504160Y-9264460D01*
G04 #@! TO.C,R54*
X15136760Y-9382580D02*
X15314560Y-9382580D01*
X15136760Y-9458780D02*
X15136760Y-9382580D01*
X15314560Y-9382580D02*
X15314560Y-9458780D01*
X15314560Y-9458780D02*
X15136760Y-9458780D01*
G04 #@! TO.C,R55*
X16140060Y-9128580D02*
X16317860Y-9128580D01*
X16140060Y-9204780D02*
X16140060Y-9128580D01*
X16317860Y-9128580D02*
X16317860Y-9204780D01*
X16317860Y-9204780D02*
X16140060Y-9204780D01*
G04 #@! TO.C,R56*
X16140060Y-9026980D02*
X16317860Y-9026980D01*
X16140060Y-9103180D02*
X16140060Y-9026980D01*
X16317860Y-9026980D02*
X16317860Y-9103180D01*
X16317860Y-9103180D02*
X16140060Y-9103180D01*
G04 #@! TO.C,R57*
X15094160Y-10516660D02*
X15170360Y-10516660D01*
X15094160Y-10694460D02*
X15094160Y-10516660D01*
X15170360Y-10516660D02*
X15170360Y-10694460D01*
X15170360Y-10694460D02*
X15094160Y-10694460D01*
G04 #@! TO.C,R58*
X14924160Y-10656660D02*
X15000360Y-10656660D01*
X14924160Y-10834460D02*
X14924160Y-10656660D01*
X15000360Y-10656660D02*
X15000360Y-10834460D01*
X15000360Y-10834460D02*
X14924160Y-10834460D01*
G04 #@! TO.C,R59*
X12895960Y-13825640D02*
X13073760Y-13825640D01*
X12895960Y-13901840D02*
X12895960Y-13825640D01*
X13073760Y-13825640D02*
X13073760Y-13901840D01*
X13073760Y-13901840D02*
X12895960Y-13901840D01*
G04 #@! TO.C,R62*
X14713360Y-10277460D02*
X14891160Y-10277460D01*
X14713360Y-10353660D02*
X14713360Y-10277460D01*
X14891160Y-10277460D02*
X14891160Y-10353660D01*
X14891160Y-10353660D02*
X14713360Y-10353660D01*
G04 #@! TO.C,R63*
X14463140Y-10140100D02*
X14539340Y-10140100D01*
X14463140Y-10317900D02*
X14463140Y-10140100D01*
X14539340Y-10140100D02*
X14539340Y-10317900D01*
X14539340Y-10317900D02*
X14463140Y-10317900D01*
G04 #@! TO.C,R64*
X14348840Y-10249320D02*
X14425040Y-10249320D01*
X14348840Y-10427120D02*
X14348840Y-10249320D01*
X14425040Y-10249320D02*
X14425040Y-10427120D01*
X14425040Y-10427120D02*
X14348840Y-10427120D01*
G04 #@! TO.C,R65*
X14703360Y-10417460D02*
X14881160Y-10417460D01*
X14703360Y-10493660D02*
X14703360Y-10417460D01*
X14881160Y-10417460D02*
X14881160Y-10493660D01*
X14881160Y-10493660D02*
X14703360Y-10493660D01*
G04 #@! TO.C,R66*
X14478380Y-9847460D02*
X14656180Y-9847460D01*
X14478380Y-9923660D02*
X14478380Y-9847460D01*
X14656180Y-9847460D02*
X14656180Y-9923660D01*
X14656180Y-9923660D02*
X14478380Y-9923660D01*
G04 #@! TO.C,R67*
X12768960Y-10556660D02*
X12946760Y-10556660D01*
X12768960Y-10632860D02*
X12768960Y-10556660D01*
X12946760Y-10556660D02*
X12946760Y-10632860D01*
X12946760Y-10632860D02*
X12768960Y-10632860D01*
G04 #@! TO.C,R68*
X12768960Y-10683660D02*
X12946760Y-10683660D01*
X12768960Y-10759860D02*
X12768960Y-10683660D01*
X12946760Y-10683660D02*
X12946760Y-10759860D01*
X12946760Y-10759860D02*
X12768960Y-10759860D01*
G04 #@! TO.C,R69*
X14604486Y-11101291D02*
X14730210Y-10975567D01*
X14658368Y-11155172D02*
X14604486Y-11101291D01*
X14730210Y-10975567D02*
X14784091Y-11029449D01*
X14784091Y-11029449D02*
X14658368Y-11155172D01*
G04 #@! TO.C,R72*
X5123560Y-11979060D02*
X5301360Y-11979060D01*
X5123560Y-12055260D02*
X5123560Y-11979060D01*
X5301360Y-11979060D02*
X5301360Y-12055260D01*
X5301360Y-12055260D02*
X5123560Y-12055260D01*
G04 #@! TO.C,R73*
X5123560Y-12436260D02*
X5301360Y-12436260D01*
X5123560Y-12512460D02*
X5123560Y-12436260D01*
X5301360Y-12436260D02*
X5301360Y-12512460D01*
X5301360Y-12512460D02*
X5123560Y-12512460D01*
G04 #@! TO.C,R74*
X5123560Y-12893460D02*
X5301360Y-12893460D01*
X5123560Y-12969660D02*
X5123560Y-12893460D01*
X5301360Y-12893460D02*
X5301360Y-12969660D01*
X5301360Y-12969660D02*
X5123560Y-12969660D01*
G04 #@! TO.C,R75*
X5098160Y-9858160D02*
X5275960Y-9858160D01*
X5098160Y-9934360D02*
X5098160Y-9858160D01*
X5275960Y-9858160D02*
X5275960Y-9934360D01*
X5275960Y-9934360D02*
X5098160Y-9934360D01*
G04 #@! TO.C,R76*
X5123560Y-11128160D02*
X5301360Y-11128160D01*
X5123560Y-11204360D02*
X5123560Y-11128160D01*
X5301360Y-11128160D02*
X5301360Y-11204360D01*
X5301360Y-11204360D02*
X5123560Y-11204360D01*
G04 #@! TO.C,R77*
X12826860Y-9660640D02*
X13004660Y-9660640D01*
X12826860Y-9736840D02*
X12826860Y-9660640D01*
X13004660Y-9660640D02*
X13004660Y-9736840D01*
X13004660Y-9736840D02*
X12826860Y-9736840D01*
G04 #@! TO.C,R78*
X12826860Y-9762240D02*
X13004660Y-9762240D01*
X12826860Y-9838440D02*
X12826860Y-9762240D01*
X13004660Y-9762240D02*
X13004660Y-9838440D01*
X13004660Y-9838440D02*
X12826860Y-9838440D01*
G04 #@! TO.C,R79*
X12826860Y-9863840D02*
X13004660Y-9863840D01*
X12826860Y-9940040D02*
X12826860Y-9863840D01*
X13004660Y-9863840D02*
X13004660Y-9940040D01*
X13004660Y-9940040D02*
X12826860Y-9940040D01*
G04 #@! TO.C,R80*
X12826860Y-9965440D02*
X13004660Y-9965440D01*
X12826860Y-10041640D02*
X12826860Y-9965440D01*
X13004660Y-9965440D02*
X13004660Y-10041640D01*
X13004660Y-10041640D02*
X12826860Y-10041640D01*
G04 #@! TO.C,R81*
X12826860Y-10067040D02*
X13004660Y-10067040D01*
X12826860Y-10143240D02*
X12826860Y-10067040D01*
X13004660Y-10067040D02*
X13004660Y-10143240D01*
X13004660Y-10143240D02*
X12826860Y-10143240D01*
G04 #@! TO.C,R85*
X12001880Y-15065160D02*
X12078080Y-15065160D01*
X12001880Y-15242960D02*
X12001880Y-15065160D01*
X12078080Y-15065160D02*
X12078080Y-15242960D01*
X12078080Y-15242960D02*
X12001880Y-15242960D01*
G04 #@! TO.C,R86*
X12826860Y-10168640D02*
X13004660Y-10168640D01*
X12826860Y-10244840D02*
X12826860Y-10168640D01*
X13004660Y-10168640D02*
X13004660Y-10244840D01*
X13004660Y-10244840D02*
X12826860Y-10244840D01*
G04 #@! TO.C,R87*
X12826860Y-10270240D02*
X13004660Y-10270240D01*
X12826860Y-10346440D02*
X12826860Y-10270240D01*
X13004660Y-10270240D02*
X13004660Y-10346440D01*
X13004660Y-10346440D02*
X12826860Y-10346440D01*
G04 #@! TO.C,R88*
X12278740Y-10983380D02*
X12354940Y-10983380D01*
X12278740Y-11161180D02*
X12278740Y-10983380D01*
X12354940Y-10983380D02*
X12354940Y-11161180D01*
X12354940Y-11161180D02*
X12278740Y-11161180D01*
G04 #@! TO.C,R89*
X12125820Y-10986520D02*
X12202020Y-10986520D01*
X12125820Y-11164320D02*
X12125820Y-10986520D01*
X12202020Y-10986520D02*
X12202020Y-11164320D01*
X12202020Y-11164320D02*
X12125820Y-11164320D01*
G04 #@! TO.C,R90*
X12024220Y-10986520D02*
X12100420Y-10986520D01*
X12024220Y-11164320D02*
X12024220Y-10986520D01*
X12100420Y-10986520D02*
X12100420Y-11164320D01*
X12100420Y-11164320D02*
X12024220Y-11164320D01*
G04 #@! TO.C,R91*
X11922620Y-10986520D02*
X11998820Y-10986520D01*
X11922620Y-11164320D02*
X11922620Y-10986520D01*
X11998820Y-10986520D02*
X11998820Y-11164320D01*
X11998820Y-11164320D02*
X11922620Y-11164320D01*
G04 #@! TO.C,R93*
X12895960Y-13706260D02*
X13073760Y-13706260D01*
X12895960Y-13782460D02*
X12895960Y-13706260D01*
X13073760Y-13706260D02*
X13073760Y-13782460D01*
X13073760Y-13782460D02*
X12895960Y-13782460D01*
G04 #@! TO.C,R94*
X12014580Y-14430160D02*
X12192380Y-14430160D01*
X12014580Y-14506360D02*
X12014580Y-14430160D01*
X12192380Y-14430160D02*
X12192380Y-14506360D01*
X12192380Y-14506360D02*
X12014580Y-14506360D01*
G04 #@! TO.C,R96*
X11821020Y-10986520D02*
X11897220Y-10986520D01*
X11821020Y-11164320D02*
X11821020Y-10986520D01*
X11897220Y-10986520D02*
X11897220Y-11164320D01*
X11897220Y-11164320D02*
X11821020Y-11164320D01*
G04 #@! TO.C,R98*
X11714860Y-10988460D02*
X11791060Y-10988460D01*
X11714860Y-11166260D02*
X11714860Y-10988460D01*
X11791060Y-10988460D02*
X11791060Y-11166260D01*
X11791060Y-11166260D02*
X11714860Y-11166260D01*
G04 #@! TO.C,R99*
X11613260Y-10988460D02*
X11689460Y-10988460D01*
X11613260Y-11166260D02*
X11613260Y-10988460D01*
X11689460Y-10988460D02*
X11689460Y-11166260D01*
X11689460Y-11166260D02*
X11613260Y-11166260D01*
G04 #@! TO.C,R100*
X11511660Y-10988460D02*
X11587860Y-10988460D01*
X11511660Y-11166260D02*
X11511660Y-10988460D01*
X11587860Y-10988460D02*
X11587860Y-11166260D01*
X11587860Y-11166260D02*
X11511660Y-11166260D01*
G04 #@! TO.C,R104*
X11603780Y-14988060D02*
X11781580Y-14988060D01*
X11603780Y-15064260D02*
X11603780Y-14988060D01*
X11781580Y-14988060D02*
X11781580Y-15064260D01*
X11781580Y-15064260D02*
X11603780Y-15064260D01*
G04 #@! TO.C,R105*
X12022880Y-14657860D02*
X12099080Y-14657860D01*
X12022880Y-14835660D02*
X12022880Y-14657860D01*
X12099080Y-14657860D02*
X12099080Y-14835660D01*
X12099080Y-14835660D02*
X12022880Y-14835660D01*
G04 #@! TO.C,SW1*
X4862260Y-10490560D02*
X4862260Y-10840560D01*
X4862260Y-10840560D02*
X4892260Y-10840560D01*
X4892260Y-10315560D02*
X4892260Y-11015560D01*
X4892260Y-10315560D02*
X5552260Y-10315560D01*
X4892260Y-10490560D02*
X4862260Y-10490560D01*
X5262260Y-10315560D02*
X5262260Y-11015560D01*
X5552260Y-10315560D02*
X5552260Y-10355560D01*
X5552260Y-10355560D02*
X5262260Y-10355560D01*
X5552260Y-10975560D02*
X5262260Y-10975560D01*
X5552260Y-11015560D02*
X4892260Y-11015560D01*
X5552260Y-11015560D02*
X5552260Y-10975560D01*
G04 #@! TO.C,SW2*
X4862260Y-9190560D02*
X4862260Y-9540560D01*
X4862260Y-9540560D02*
X4892260Y-9540560D01*
X4892260Y-9015560D02*
X4892260Y-9715560D01*
X4892260Y-9015560D02*
X5552260Y-9015560D01*
X4892260Y-9190560D02*
X4862260Y-9190560D01*
X5262260Y-9015560D02*
X5262260Y-9715560D01*
X5552260Y-9015560D02*
X5552260Y-9055560D01*
X5552260Y-9055560D02*
X5262260Y-9055560D01*
X5552260Y-9675560D02*
X5262260Y-9675560D01*
X5552260Y-9715560D02*
X4892260Y-9715560D01*
X5552260Y-9715560D02*
X5552260Y-9675560D01*
G04 #@! TO.C,T1*
X8333276Y-14532018D02*
X8333276Y-14741822D01*
X8463324Y-14532018D02*
X8333276Y-14532018D01*
X8463324Y-14741822D02*
X8333276Y-14741822D01*
X8463324Y-14741822D02*
X8463324Y-14532018D01*
X8405484Y-14701944D02*
G75*
G02*
X8391116Y-14701944I-7184J0D01*
G01*
X8391116Y-14701944D02*
G75*
G02*
X8405484Y-14701944I7184J0D01*
G01*
G04 #@! TO.C,T2*
X8849658Y-13987696D02*
X8849658Y-14117744D01*
X8849658Y-14117744D02*
X9059462Y-14117744D01*
X9059462Y-13987696D02*
X8849658Y-13987696D01*
X9059462Y-13987696D02*
X9059462Y-14117744D01*
X9026768Y-14052720D02*
G75*
G02*
X9012400Y-14052720I-7184J0D01*
G01*
X9012400Y-14052720D02*
G75*
G02*
X9026768Y-14052720I7184J0D01*
G01*
G04 #@! TO.C,T3*
X9592932Y-13300460D02*
X9672688Y-13300460D01*
X9592932Y-13460480D02*
X9592932Y-13300460D01*
X9592932Y-13460480D02*
X9632810Y-13460480D01*
X9672688Y-13300460D02*
X9672688Y-13430508D01*
X9672688Y-13460480D02*
X9662782Y-13460480D01*
G04 #@! TO.C,T4*
X9897732Y-13300460D02*
X9977488Y-13300460D01*
X9897732Y-13460480D02*
X9897732Y-13300460D01*
X9897732Y-13460480D02*
X9937610Y-13460480D01*
X9977488Y-13300460D02*
X9977488Y-13430508D01*
X9977488Y-13460480D02*
X9967582Y-13460480D01*
G04 #@! TO.C,U3*
X6878660Y-12444780D02*
X6878660Y-12505740D01*
D17*
X6900250Y-12515900D02*
X6900250Y-12526060D01*
D10*
X6960448Y-12476022D02*
X7010232Y-12476022D01*
X6965020Y-12444780D02*
X6878660Y-12444780D01*
X7010232Y-12560858D02*
X6960448Y-12560858D01*
D17*
X7070430Y-12515900D02*
X7070430Y-12526060D01*
D10*
G04 #@! TO.C,U4*
X7894300Y-13751920D02*
X7894300Y-13796920D01*
X7894300Y-14206920D02*
X7894300Y-14251920D01*
X7894300Y-14251920D02*
X7939300Y-14251920D01*
X7939300Y-13751920D02*
X7894300Y-13751920D01*
X8349300Y-14251920D02*
X8394300Y-14251920D01*
X8359300Y-13751920D02*
X8349300Y-13751920D01*
X8394300Y-13786920D02*
X8359300Y-13751920D01*
X8394300Y-13797420D02*
X8394300Y-13786920D01*
X8394300Y-14251920D02*
X8394300Y-14206920D01*
G04 #@! TO.C,U8*
X6998040Y-12068860D02*
X7079320Y-12068860D01*
X7079320Y-11957100D02*
X6998040Y-11957100D01*
X7079320Y-12068860D02*
X7079320Y-11957100D01*
D17*
G04 #@! TO.C,U9*
X6592360Y-12820960D02*
X6592360Y-12810960D01*
X6592360Y-12860960D02*
X6592360Y-12850960D01*
X6592360Y-12900960D02*
X6592360Y-12890960D01*
X6592360Y-12930960D02*
X6717360Y-12930960D01*
X6742360Y-12780960D02*
X6592360Y-12780960D01*
X6742360Y-12810960D02*
X6742360Y-12820960D01*
X6742360Y-12850960D02*
X6742360Y-12860960D01*
X6742360Y-12890960D02*
X6742360Y-12900960D01*
X6756502Y-12950960D02*
G75*
G02*
X6728218Y-12950960I-14142J0D01*
G01*
X6728218Y-12950960D02*
G75*
G02*
X6756502Y-12950960I14142J0D01*
G01*
G04 #@! TO.C,U12*
X6578260Y-13531460D02*
X6578260Y-13681460D01*
X6608260Y-13531460D02*
X6618260Y-13531460D01*
X6618260Y-13681460D02*
X6608260Y-13681460D01*
X6648260Y-13531460D02*
X6658260Y-13531460D01*
X6658260Y-13681460D02*
X6648260Y-13681460D01*
X6688260Y-13531460D02*
X6698260Y-13531460D01*
X6698260Y-13681460D02*
X6688260Y-13681460D01*
X6728260Y-13681460D02*
X6728260Y-13556460D01*
X6762402Y-13531460D02*
G75*
G02*
X6734118Y-13531460I-14142J0D01*
G01*
X6734118Y-13531460D02*
G75*
G02*
X6762402Y-13531460I14142J0D01*
G01*
G04 #@! TO.C,U14*
X6333520Y-14062320D02*
X6333520Y-14187320D01*
X6363520Y-14062320D02*
X6373520Y-14062320D01*
X6373520Y-14212320D02*
X6363520Y-14212320D01*
X6403520Y-14062320D02*
X6413520Y-14062320D01*
X6413520Y-14212320D02*
X6403520Y-14212320D01*
X6443520Y-14062320D02*
X6453520Y-14062320D01*
X6453520Y-14212320D02*
X6443520Y-14212320D01*
X6483520Y-14212320D02*
X6483520Y-14062320D01*
X6327662Y-14212320D02*
G75*
G02*
X6299378Y-14212320I-14142J0D01*
G01*
X6299378Y-14212320D02*
G75*
G02*
X6327662Y-14212320I14142J0D01*
G01*
D10*
G04 #@! TO.C,U17*
X9447136Y-12115296D02*
X9487014Y-12115296D01*
X9447136Y-12155174D02*
X9447136Y-12115296D01*
X9487014Y-12715244D02*
X9447136Y-12675366D01*
X10007206Y-12115296D02*
X10047084Y-12115296D01*
X10047084Y-12115296D02*
X10047084Y-12155174D01*
X10047084Y-12675366D02*
X10047084Y-12715244D01*
X10047084Y-12715244D02*
X10007206Y-12715244D01*
G04 #@! TO.C,U18*
X8821788Y-9121728D02*
X8821788Y-9161860D01*
X8821788Y-9781620D02*
X8861920Y-9821752D01*
X8861920Y-9121728D02*
X8821788Y-9121728D01*
X9481680Y-9821752D02*
X9521812Y-9821752D01*
X9521812Y-9121728D02*
X9481680Y-9121728D01*
X9521812Y-9161860D02*
X9521812Y-9121728D01*
X9521812Y-9821752D02*
X9521812Y-9781620D01*
G04 #@! TO.C,U19*
X11429282Y-14318262D02*
X11429282Y-14358140D01*
X11429282Y-14678180D02*
X11469160Y-14718058D01*
X11469160Y-14318262D02*
X11429282Y-14318262D01*
X11789200Y-14718058D02*
X11829078Y-14718058D01*
X11829078Y-14318262D02*
X11789200Y-14318262D01*
X11829078Y-14358140D02*
X11829078Y-14318262D01*
X11829078Y-14718058D02*
X11829078Y-14678180D01*
G04 #@! TO.C,U20*
X14691220Y-13823700D02*
X14691220Y-14357100D01*
X14691220Y-14357100D02*
X15224620Y-14357100D01*
X15224620Y-13823700D02*
X14691220Y-13823700D01*
X15224620Y-14357100D02*
X15224620Y-13823700D01*
X15173820Y-14255500D02*
G75*
G02*
X15072220Y-14255500I-50800J0D01*
G01*
X15072220Y-14255500D02*
G75*
G02*
X15173820Y-14255500I50800J0D01*
G01*
G04 #@! TO.C,U21*
X15685146Y-9270566D02*
X15685146Y-9295712D01*
X15685146Y-9545648D02*
X15685146Y-9570794D01*
X15685146Y-9570794D02*
X15760330Y-9570794D01*
X15760330Y-9270566D02*
X15685146Y-9270566D01*
X15910190Y-9570794D02*
X15985374Y-9570794D01*
X15985374Y-9270566D02*
X15910190Y-9270566D01*
X15985374Y-9295712D02*
X15985374Y-9270566D01*
X15985374Y-9545648D02*
X15985374Y-9570794D01*
X16035158Y-9595686D02*
G75*
G02*
X15985374Y-9595686I-24892J0D01*
G01*
X15985374Y-9595686D02*
G75*
G02*
X16035158Y-9595686I24892J0D01*
G01*
D15*
G04 #@! TO.C,U23*
X12251300Y-12239987D02*
X12375048Y-12363735D01*
X12375048Y-12116239D02*
X12251300Y-12239987D01*
X13683291Y-13671979D02*
X13807039Y-13795727D01*
X13807039Y-10684247D02*
X13683291Y-10807995D01*
X13807039Y-13795727D02*
X13930787Y-13671979D01*
X13930787Y-10807995D02*
X13807039Y-10684247D01*
X15239031Y-12116239D02*
X15362779Y-12239987D01*
X15362779Y-12239987D02*
X15239031Y-12363735D01*
X15119449Y-12239987D02*
G75*
G02*
X14969589Y-12239987I-74930J0D01*
G01*
X14969589Y-12239987D02*
G75*
G02*
X15119449Y-12239987I74930J0D01*
G01*
G04 #@! TO.C,U24*
X10756760Y-9127240D02*
X10756760Y-9277354D01*
X10756760Y-10577326D02*
X10756760Y-10727440D01*
X10756760Y-10727440D02*
X10906874Y-10727440D01*
X10906874Y-9127240D02*
X10756760Y-9127240D01*
X12206846Y-10727440D02*
X12356960Y-10727440D01*
X12356960Y-9127240D02*
X12206846Y-9127240D01*
X12356960Y-9277354D02*
X12356960Y-9127240D01*
X12356960Y-10727440D02*
X12356960Y-10577326D01*
X12206846Y-9352284D02*
G75*
G02*
X12056986Y-9352284I-74930J0D01*
G01*
X12056986Y-9352284D02*
G75*
G02*
X12206846Y-9352284I74930J0D01*
G01*
D10*
G04 #@! TO.C,X1*
X11224812Y-15127252D02*
X11224812Y-15077468D01*
X11359686Y-14942340D02*
X11339874Y-14942340D01*
X11359686Y-15262380D02*
X11339874Y-15262380D01*
X11474748Y-15127252D02*
X11474748Y-15077468D01*
G04 #@! TO.C,X2*
X15091036Y-11580657D02*
X15077027Y-11566647D01*
X15091216Y-11389736D02*
X15126419Y-11354534D01*
X15267947Y-11566468D02*
X15303150Y-11531265D01*
X15317339Y-11354354D02*
X15303330Y-11340345D01*
G04 #@! TO.C,X3*
X14962260Y-13485560D02*
X15722260Y-13485560D01*
X14962260Y-13665560D02*
X14962260Y-13485560D01*
X15722260Y-13485560D02*
X15722260Y-13665560D01*
X15722260Y-13665560D02*
X14962260Y-13665560D01*
G04 #@! TO.C,P51*
X7016596Y-14454930D02*
G75*
G02*
X6874356Y-14454930I-71120J0D01*
G01*
X6874356Y-14454930D02*
G75*
G02*
X7016596Y-14454930I71120J0D01*
G01*
G04 #@! TO.C,C62*
X6550760Y-14169180D02*
X6728560Y-14169180D01*
X6550760Y-14245380D02*
X6550760Y-14169180D01*
X6728560Y-14169180D02*
X6728560Y-14245380D01*
X6728560Y-14245380D02*
X6550760Y-14245380D01*
G04 #@! TO.C,C161*
X7046060Y-13691660D02*
X7122260Y-13691660D01*
X7046060Y-13869460D02*
X7046060Y-13691660D01*
X7122260Y-13691660D02*
X7122260Y-13869460D01*
X7122260Y-13869460D02*
X7046060Y-13869460D01*
G04 #@! TO.C,R36*
X6583780Y-15025160D02*
X6659980Y-15025160D01*
X6583780Y-15202960D02*
X6583780Y-15025160D01*
X6659980Y-15025160D02*
X6659980Y-15202960D01*
X6659980Y-15202960D02*
X6583780Y-15202960D01*
G04 #@! TO.C,C117*
X6121500Y-13922800D02*
X6299300Y-13922800D01*
X6121500Y-13999000D02*
X6121500Y-13922800D01*
X6299300Y-13922800D02*
X6299300Y-13999000D01*
X6299300Y-13999000D02*
X6121500Y-13999000D01*
G04 #@! TO.C,C172*
X5908140Y-14202200D02*
X5984340Y-14202200D01*
X5908140Y-14380000D02*
X5908140Y-14202200D01*
X5984340Y-14202200D02*
X5984340Y-14380000D01*
X5984340Y-14380000D02*
X5908140Y-14380000D01*
G04 #@! TO.C,R38*
X5976720Y-14024400D02*
X6154520Y-14024400D01*
X5976720Y-14100600D02*
X5976720Y-14024400D01*
X6154520Y-14024400D02*
X6154520Y-14100600D01*
X6154520Y-14100600D02*
X5976720Y-14100600D01*
G04 #@! TO.C,R39*
X6091020Y-14720360D02*
X6268820Y-14720360D01*
X6091020Y-14796560D02*
X6091020Y-14720360D01*
X6268820Y-14720360D02*
X6268820Y-14796560D01*
X6268820Y-14796560D02*
X6091020Y-14796560D01*
G04 #@! TO.C,R40*
X6085940Y-14367300D02*
X6263740Y-14367300D01*
X6085940Y-14443500D02*
X6085940Y-14367300D01*
X6263740Y-14367300D02*
X6263740Y-14443500D01*
X6263740Y-14443500D02*
X6085940Y-14443500D01*
G04 #@! TO.C,C173*
X6103720Y-14839740D02*
X6179920Y-14839740D01*
X6103720Y-15017540D02*
X6103720Y-14839740D01*
X6179920Y-14839740D02*
X6179920Y-15017540D01*
X6179920Y-15017540D02*
X6103720Y-15017540D01*
G04 #@! TO.C,R42*
X5905600Y-14623840D02*
X5981800Y-14623840D01*
X5905600Y-14801640D02*
X5905600Y-14623840D01*
X5981800Y-14623840D02*
X5981800Y-14801640D01*
X5981800Y-14801640D02*
X5905600Y-14801640D01*
G04 #@! TO.C,R43*
X5908140Y-14410480D02*
X5984340Y-14410480D01*
X5908140Y-14588280D02*
X5908140Y-14410480D01*
X5984340Y-14410480D02*
X5984340Y-14588280D01*
X5984340Y-14588280D02*
X5908140Y-14588280D01*
G04 #@! TO.C,R44*
X5989420Y-14839740D02*
X6065620Y-14839740D01*
X5989420Y-15017540D02*
X5989420Y-14839740D01*
X6065620Y-14839740D02*
X6065620Y-15017540D01*
X6065620Y-15017540D02*
X5989420Y-15017540D01*
G04 #@! TO.C,L14*
X5755740Y-14575580D02*
X5755740Y-14849900D01*
X5755740Y-14849900D02*
X5877660Y-14849900D01*
X5877660Y-14575580D02*
X5755740Y-14575580D01*
X5877660Y-14849900D02*
X5877660Y-14575580D01*
D18*
G04 #@! TO.C,U13*
X5951920Y-13559880D02*
X6151920Y-13559880D01*
X5952920Y-13787880D02*
X6152920Y-13787880D01*
X5915920Y-13566880D02*
X5887920Y-13566880D01*
X5915920Y-13538880D01*
X5915920Y-13566880D01*
G36*
X5915920Y-13566880D02*
G01*
X5887920Y-13566880D01*
X5915920Y-13538880D01*
X5915920Y-13566880D01*
G37*
G04 #@! TO.C,U25*
X6792360Y-13805020D02*
X6792360Y-14005020D01*
X7020360Y-13804020D02*
X7020360Y-14004020D01*
X7041360Y-13768020D02*
X7013360Y-13768020D01*
X7013360Y-13740020D01*
X7041360Y-13768020D01*
G36*
X7041360Y-13768020D02*
G01*
X7013360Y-13768020D01*
X7013360Y-13740020D01*
X7041360Y-13768020D01*
G37*
D10*
G04 #@! TO.C,P49*
X6479640Y-13780560D02*
G75*
G02*
X6337400Y-13780560I-71120J0D01*
G01*
X6337400Y-13780560D02*
G75*
G02*
X6479640Y-13780560I71120J0D01*
G01*
G04 #@! TO.C,P90*
X6151980Y-10448080D02*
G75*
G02*
X6009740Y-10448080I-71120J0D01*
G01*
X6009740Y-10448080D02*
G75*
G02*
X6151980Y-10448080I71120J0D01*
G01*
D19*
G04 #@! TO.C,U5*
X6566762Y-12216682D02*
X6666838Y-12216682D01*
X6566762Y-12316758D02*
X6566762Y-12216682D01*
X6666838Y-12216682D02*
X6666838Y-12316758D01*
X6666838Y-12316758D02*
X6566762Y-12316758D01*
X6570865Y-12326664D02*
G75*
G02*
X6542847Y-12326664I-14009J0D01*
G01*
X6542847Y-12326664D02*
G75*
G02*
X6570865Y-12326664I14009J0D01*
G01*
D10*
G04 #@! TO.C,P45*
X6418680Y-12109240D02*
G75*
G02*
X6276440Y-12109240I-71120J0D01*
G01*
X6276440Y-12109240D02*
G75*
G02*
X6418680Y-12109240I71120J0D01*
G01*
D19*
G04 #@! TO.C,U6*
X7285582Y-12219222D02*
X7385658Y-12219222D01*
X7285582Y-12319298D02*
X7285582Y-12219222D01*
X7385658Y-12219222D02*
X7385658Y-12319298D01*
X7385658Y-12319298D02*
X7285582Y-12319298D01*
X7409573Y-12209316D02*
G75*
G02*
X7381555Y-12209316I-14009J0D01*
G01*
X7381555Y-12209316D02*
G75*
G02*
X7409573Y-12209316I14009J0D01*
G01*
D10*
G04 #@! TO.C,C10*
X7556600Y-12535620D02*
X7734400Y-12535620D01*
X7556600Y-12611820D02*
X7556600Y-12535620D01*
X7734400Y-12535620D02*
X7734400Y-12611820D01*
X7734400Y-12611820D02*
X7556600Y-12611820D01*
G04 #@! TO.C,C29*
X6459320Y-11967000D02*
X6535520Y-11967000D01*
X6459320Y-12144800D02*
X6459320Y-11967000D01*
X6535520Y-11967000D02*
X6535520Y-12144800D01*
X6535520Y-12144800D02*
X6459320Y-12144800D01*
D19*
G04 #@! TO.C,U1*
X9378542Y-14881142D02*
X9478618Y-14881142D01*
X9378542Y-14981218D02*
X9378542Y-14881142D01*
X9478618Y-14881142D02*
X9478618Y-14981218D01*
X9478618Y-14981218D02*
X9378542Y-14981218D01*
X9502533Y-14871236D02*
G75*
G02*
X9474515Y-14871236I-14009J0D01*
G01*
X9474515Y-14871236D02*
G75*
G02*
X9502533Y-14871236I14009J0D01*
G01*
G04 #@! TO.C,U2*
X7826602Y-12656102D02*
X7926678Y-12656102D01*
X7826602Y-12756178D02*
X7826602Y-12656102D01*
X7926678Y-12656102D02*
X7926678Y-12756178D01*
X7926678Y-12756178D02*
X7826602Y-12756178D01*
X7830705Y-12646196D02*
G75*
G02*
X7802687Y-12646196I-14009J0D01*
G01*
X7802687Y-12646196D02*
G75*
G02*
X7830705Y-12646196I14009J0D01*
G01*
G04 #@! TO.C,U7*
X8730842Y-14799862D02*
X8830918Y-14799862D01*
X8730842Y-14899938D02*
X8730842Y-14799862D01*
X8830918Y-14799862D02*
X8830918Y-14899938D01*
X8830918Y-14899938D02*
X8730842Y-14899938D01*
X8734945Y-14789956D02*
G75*
G02*
X8706927Y-14789956I-14009J0D01*
G01*
X8706927Y-14789956D02*
G75*
G02*
X8734945Y-14789956I14009J0D01*
G01*
G04 #@! TO.C,U10*
X9426802Y-13992142D02*
X9526878Y-13992142D01*
X9426802Y-14092218D02*
X9426802Y-13992142D01*
X9526878Y-13992142D02*
X9526878Y-14092218D01*
X9526878Y-14092218D02*
X9426802Y-14092218D01*
X9430905Y-14102124D02*
G75*
G02*
X9402887Y-14102124I-14009J0D01*
G01*
X9402887Y-14102124D02*
G75*
G02*
X9430905Y-14102124I14009J0D01*
G01*
G04 #@! TO.C,U11*
X9795102Y-13801642D02*
X9895178Y-13801642D01*
X9795102Y-13901718D02*
X9795102Y-13801642D01*
X9895178Y-13801642D02*
X9895178Y-13901718D01*
X9895178Y-13901718D02*
X9795102Y-13901718D01*
X9799205Y-13791736D02*
G75*
G02*
X9771187Y-13791736I-14009J0D01*
G01*
X9771187Y-13791736D02*
G75*
G02*
X9799205Y-13791736I14009J0D01*
G01*
G04 #@! TO.C,D13*
X5737020Y-13840580D02*
X5937020Y-13840580D01*
X5737020Y-14040580D02*
X5737020Y-13840580D01*
X5937020Y-13840580D02*
X5937020Y-14040580D01*
X5937020Y-14040580D02*
X5737020Y-14040580D01*
G04 #@! TO.C,D11*
X6133260Y-14480660D02*
X6333260Y-14480660D01*
X6133260Y-14680660D02*
X6133260Y-14480660D01*
X6333260Y-14480660D02*
X6333260Y-14680660D01*
X6333260Y-14680660D02*
X6133260Y-14680660D01*
G04 #@! TO.C,D12*
X6018960Y-14137760D02*
X6218960Y-14137760D01*
X6018960Y-14337760D02*
X6018960Y-14137760D01*
X6218960Y-14137760D02*
X6218960Y-14337760D01*
X6218960Y-14337760D02*
X6018960Y-14337760D01*
D10*
G04 #@! TO.C,MARK1MM*
X7612620Y-14948960D02*
G75*
G02*
X7312620Y-14948960I-150000J0D01*
G01*
X7312620Y-14948960D02*
G75*
G02*
X7612620Y-14948960I150000J0D01*
G01*
X10655540Y-10752880D02*
G75*
G02*
X10355540Y-10752880I-150000J0D01*
G01*
X10355540Y-10752880D02*
G75*
G02*
X10655540Y-10752880I150000J0D01*
G01*
D18*
G04 #@! TO.C,D1*
X16023182Y-14786864D02*
X15958182Y-14786864D01*
X16023182Y-14786864D02*
X16088182Y-14786864D01*
X16023182Y-15098864D02*
X15958182Y-15098864D01*
X16023182Y-15098864D02*
X16088182Y-15098864D01*
X16163432Y-15126864D02*
X16115432Y-15126864D01*
X16139432Y-15093864D01*
X16163432Y-15126864D01*
G36*
X16163432Y-15126864D02*
G01*
X16115432Y-15126864D01*
X16139432Y-15093864D01*
X16163432Y-15126864D01*
G37*
G04 #@! TO.C,D3*
X16095572Y-14244066D02*
X16030572Y-14244066D01*
X16095572Y-14244066D02*
X16160572Y-14244066D01*
X16095572Y-14556066D02*
X16030572Y-14556066D01*
X16095572Y-14556066D02*
X16160572Y-14556066D01*
X16235822Y-14584066D02*
X16187822Y-14584066D01*
X16211822Y-14551066D01*
X16235822Y-14584066D01*
G36*
X16235822Y-14584066D02*
G01*
X16187822Y-14584066D01*
X16211822Y-14551066D01*
X16235822Y-14584066D01*
G37*
G04 #@! TO.C,D10*
X6014760Y-15055560D02*
X6014760Y-15135560D01*
X6037760Y-15053560D02*
X6161760Y-15053560D01*
X6161760Y-15137560D01*
X6037760Y-15137560D01*
X6037760Y-15053560D01*
D10*
G04 #@! TO.C,R29*
X16374160Y-9836660D02*
X16450360Y-9836660D01*
X16374160Y-10014460D02*
X16374160Y-9836660D01*
X16450360Y-9836660D02*
X16450360Y-10014460D01*
X16450360Y-10014460D02*
X16374160Y-10014460D01*
D20*
G04 #@! TO.C,L15*
X15676260Y-10453560D02*
X15677260Y-10453560D01*
X15676260Y-10485560D02*
X15676260Y-10453560D01*
X15676260Y-10716560D02*
X15676260Y-10683560D01*
X15677260Y-10453560D02*
X15801260Y-10453560D01*
X15801260Y-10453560D02*
X15808260Y-10453560D01*
X15808260Y-10453560D02*
X15808260Y-10485560D01*
X15808260Y-10685560D02*
X15808260Y-10717560D01*
X15808260Y-10717560D02*
X15676260Y-10717560D01*
D10*
G04 #@! TO.C,R24*
X16484160Y-9836660D02*
X16560360Y-9836660D01*
X16484160Y-10014460D02*
X16484160Y-9836660D01*
X16560360Y-9836660D02*
X16560360Y-10014460D01*
X16560360Y-10014460D02*
X16484160Y-10014460D01*
D21*
G04 #@! TO.C,J11*
X16590010Y-10138460D02*
X16403610Y-10138460D01*
X16590010Y-11032460D02*
X16403710Y-11032460D01*
X16961810Y-10138460D02*
X16813610Y-10138460D01*
X16961810Y-10138460D02*
X16961810Y-11032460D01*
X16961810Y-11032460D02*
X16813710Y-11032460D01*
G04 #@! TD*
D22*
G04 #@! TO.C,P1*
X13391260Y-9502560D03*
D23*
X13645260Y-9502560D03*
G04 #@! TD*
D22*
G04 #@! TO.C,P3*
X13391260Y-10010560D03*
D23*
X13391260Y-10264560D03*
G04 #@! TD*
D22*
G04 #@! TO.C,P5*
X8057260Y-8740560D03*
D23*
X8057260Y-8994560D03*
X7803260Y-8740560D03*
X7803260Y-8994560D03*
X7549260Y-8740560D03*
X7549260Y-8994560D03*
G04 #@! TD*
D22*
G04 #@! TO.C,P8*
X14661260Y-9502560D03*
D23*
X14915260Y-9502560D03*
G04 #@! TD*
D22*
G04 #@! TO.C,P9*
X9581260Y-11026560D03*
D23*
X9581260Y-11280560D03*
X9327260Y-11026560D03*
X9327260Y-11280560D03*
X9073260Y-11026560D03*
X9073260Y-11280560D03*
X8819260Y-11026560D03*
X8819260Y-11280560D03*
X8565260Y-11026560D03*
X8565260Y-11280560D03*
X8311260Y-11026560D03*
X8311260Y-11280560D03*
X8057260Y-11026560D03*
X8057260Y-11280560D03*
X7803260Y-11026560D03*
X7803260Y-11280560D03*
G04 #@! TD*
D22*
G04 #@! TO.C,P20*
X16185260Y-13820560D03*
D23*
X15931260Y-13820560D03*
X16185260Y-13566560D03*
X15931260Y-13566560D03*
X16185260Y-13312560D03*
X15931260Y-13312560D03*
X16185260Y-13058560D03*
X15931260Y-13058560D03*
X16185260Y-12804560D03*
X15931260Y-12804560D03*
X16185260Y-12550560D03*
X15931260Y-12550560D03*
X16185260Y-12296560D03*
X15931260Y-12296560D03*
X16185260Y-12042560D03*
X15931260Y-12042560D03*
X16185260Y-11788560D03*
X15931260Y-11788560D03*
X16185260Y-11534560D03*
X15931260Y-11534560D03*
X16185260Y-11280560D03*
X15931260Y-11280560D03*
G04 #@! TD*
D22*
G04 #@! TO.C,P22*
X15677260Y-14582560D03*
D23*
X15677260Y-14836560D03*
X15423260Y-14582560D03*
X15423260Y-14836560D03*
X15169260Y-14582560D03*
X15169260Y-14836560D03*
X14915260Y-14582560D03*
X14915260Y-14836560D03*
X14661260Y-14582560D03*
X14661260Y-14836560D03*
X14407260Y-14582560D03*
X14407260Y-14836560D03*
X14153260Y-14582560D03*
X14153260Y-14836560D03*
X13899260Y-14582560D03*
X13899260Y-14836560D03*
X13645260Y-14582560D03*
X13645260Y-14836560D03*
X13391260Y-14582560D03*
X13391260Y-14836560D03*
X13137260Y-14582560D03*
X13137260Y-14836560D03*
X12883260Y-14582560D03*
X12883260Y-14836560D03*
X12629260Y-14582560D03*
X12629260Y-14836560D03*
G04 #@! TD*
D22*
G04 #@! TO.C,P25*
X12629260Y-14074560D03*
D23*
X12883260Y-14074560D03*
X13137260Y-14074560D03*
X13391260Y-14074560D03*
X13645260Y-14074560D03*
X13899260Y-14074560D03*
G04 #@! TD*
D22*
G04 #@! TO.C,P28*
X11359260Y-13820560D03*
D23*
X11105260Y-13820560D03*
X11359260Y-13566560D03*
X11105260Y-13566560D03*
X11359260Y-13312560D03*
X11105260Y-13312560D03*
X11359260Y-13058560D03*
X11105260Y-13058560D03*
X11359260Y-12804560D03*
X11105260Y-12804560D03*
X11359260Y-12550560D03*
X11105260Y-12550560D03*
X11359260Y-12296560D03*
X11105260Y-12296560D03*
X11359260Y-12042560D03*
X11105260Y-12042560D03*
X11359260Y-11788560D03*
X11105260Y-11788560D03*
X11359260Y-11534560D03*
X11105260Y-11534560D03*
X11359260Y-11280560D03*
X11105260Y-11280560D03*
G04 #@! TD*
D22*
G04 #@! TO.C,P29*
X11867260Y-11534560D03*
D23*
X12121260Y-11534560D03*
G04 #@! TD*
D22*
G04 #@! TO.C,P30*
X14915260Y-8740560D03*
D23*
X14915260Y-8994560D03*
X14661260Y-8740560D03*
X14661260Y-8994560D03*
X14407260Y-8740560D03*
X14407260Y-8994560D03*
X14153260Y-8740560D03*
X14153260Y-8994560D03*
X13899260Y-8740560D03*
X13899260Y-8994560D03*
X13645260Y-8740560D03*
X13645260Y-8994560D03*
X13391260Y-8740560D03*
X13391260Y-8994560D03*
X13137260Y-8740560D03*
X13137260Y-8994560D03*
X12883260Y-8740560D03*
X12883260Y-8994560D03*
X12629260Y-8740560D03*
X12629260Y-8994560D03*
G04 #@! TD*
D22*
G04 #@! TO.C,P36*
X7295260Y-11026560D03*
D23*
X7295260Y-10772560D03*
G04 #@! TD*
D22*
G04 #@! TO.C,P80*
X16693260Y-11280560D03*
D23*
X16693260Y-11534560D03*
G04 #@! TD*
G36*
X11085972Y-8352920D02*
G01*
X11090621Y-8358286D01*
X11091760Y-8363520D01*
X11091760Y-8838320D01*
X11089760Y-8845132D01*
X11084394Y-8849781D01*
X11079160Y-8850920D01*
X9404360Y-8850920D01*
X9397548Y-8848920D01*
X9392899Y-8843554D01*
X9391760Y-8838320D01*
X9391760Y-8363520D01*
X9393760Y-8356708D01*
X9399126Y-8352059D01*
X9404360Y-8350920D01*
X11079160Y-8350920D01*
X11085972Y-8352920D01*
G37*
M02*
