G04 #@! TF.GenerationSoftware,KiCad,Pcbnew,8.0.4*
G04 #@! TF.CreationDate,2024-10-12T12:27:40+11:00*
G04 #@! TF.ProjectId,hackrf-one,6861636b-7266-42d6-9f6e-652e6b696361,rev?*
G04 #@! TF.SameCoordinates,Original*
G04 #@! TF.FileFunction,Copper,L4,Bot*
G04 #@! TF.FilePolarity,Positive*
%FSLAX45Y45*%
G04 Gerber Fmt 4.5, Leading zero omitted, Abs format (unit mm)*
G04 Created by KiCad (PCBNEW 8.0.4) date 2024-10-12 12:27:40*
%MOMM*%
%LPD*%
G01*
G04 APERTURE LIST*
%ADD10C,0.177800*%
G04 #@! TA.AperFunction,NonConductor*
%ADD11C,0.177800*%
G04 #@! TD*
G04 #@! TA.AperFunction,FiducialPad,Global*
%ADD12C,1.000000*%
G04 #@! TD*
G04 #@! TA.AperFunction,ComponentPad*
%ADD13C,0.600000*%
G04 #@! TD*
G04 #@! TA.AperFunction,ComponentPad*
%ADD14C,5.600000*%
G04 #@! TD*
G04 #@! TA.AperFunction,ComponentPad*
%ADD15R,1.524000X1.524000*%
G04 #@! TD*
G04 #@! TA.AperFunction,ComponentPad*
%ADD16C,1.524000*%
G04 #@! TD*
G04 #@! TA.AperFunction,SMDPad,CuDef*
%ADD17R,3.990000X2.665000*%
G04 #@! TD*
G04 #@! TA.AperFunction,ComponentPad*
%ADD18R,1.066800X1.066800*%
G04 #@! TD*
G04 #@! TA.AperFunction,ComponentPad*
%ADD19C,1.066800*%
G04 #@! TD*
G04 #@! TA.AperFunction,ComponentPad*
%ADD20C,2.000000*%
G04 #@! TD*
G04 #@! TA.AperFunction,ComponentPad*
%ADD21C,1.500000*%
G04 #@! TD*
G04 #@! TA.AperFunction,ComponentPad*
%ADD22C,0.635000*%
G04 #@! TD*
G04 #@! TA.AperFunction,ComponentPad*
%ADD23C,0.585000*%
G04 #@! TD*
G04 #@! TA.AperFunction,ComponentPad*
%ADD24O,2.000000X1.200000*%
G04 #@! TD*
G04 #@! TA.AperFunction,ComponentPad*
%ADD25O,1.800000X1.200000*%
G04 #@! TD*
G04 #@! TA.AperFunction,ViaPad*
%ADD26C,0.685800*%
G04 #@! TD*
G04 #@! TA.AperFunction,Conductor*
%ADD27C,0.203200*%
G04 #@! TD*
G04 #@! TA.AperFunction,Conductor*
%ADD28C,1.270000*%
G04 #@! TD*
G04 #@! TA.AperFunction,Conductor*
%ADD29C,0.254000*%
G04 #@! TD*
G04 #@! TA.AperFunction,Conductor*
%ADD30C,1.016000*%
G04 #@! TD*
G04 #@! TA.AperFunction,Conductor*
%ADD31C,0.279400*%
G04 #@! TD*
G04 #@! TA.AperFunction,Conductor*
%ADD32C,0.508000*%
G04 #@! TD*
G04 #@! TA.AperFunction,Conductor*
%ADD33C,0.304800*%
G04 #@! TD*
G04 APERTURE END LIST*
D10*
D11*
X15671612Y-8333904D02*
X15671612Y-8401637D01*
X15647422Y-8295199D02*
X15623231Y-8367771D01*
X15623231Y-8367771D02*
X15686127Y-8367771D01*
D12*
G04 #@! TO.P,MARK1MM,*
G04 #@! TO.N,*
X15982260Y-8425560D03*
G04 #@! TD*
D13*
G04 #@! TO.P,J4,1,1*
G04 #@! TO.N,GND*
X5062260Y-8625560D03*
X5127260Y-8470560D03*
X5127260Y-8780560D03*
X5282260Y-8405560D03*
D14*
X5282260Y-8625560D03*
D13*
X5282260Y-8845560D03*
X5437260Y-8470560D03*
X5437260Y-8780560D03*
X5502260Y-8625560D03*
G04 #@! TD*
G04 #@! TO.P,J5,1,1*
G04 #@! TO.N,GND*
X5062260Y-15325560D03*
X5127260Y-15170560D03*
X5127260Y-15480560D03*
X5282260Y-15105560D03*
D14*
X5282260Y-15325560D03*
D13*
X5282260Y-15545560D03*
X5437260Y-15170560D03*
X5437260Y-15480560D03*
X5502260Y-15325560D03*
G04 #@! TD*
G04 #@! TO.P,J6,1,1*
G04 #@! TO.N,GND*
X16262260Y-15325560D03*
X16327260Y-15170560D03*
X16327260Y-15480560D03*
X16482260Y-15105560D03*
D14*
X16482260Y-15325560D03*
D13*
X16482260Y-15545560D03*
X16637260Y-15170560D03*
X16637260Y-15480560D03*
X16702260Y-15325560D03*
G04 #@! TD*
G04 #@! TO.P,J7,1,1*
G04 #@! TO.N,GND*
X16262260Y-8625560D03*
X16327260Y-8470560D03*
X16327260Y-8780560D03*
X16482260Y-8405560D03*
D14*
X16482260Y-8625560D03*
D13*
X16482260Y-8845560D03*
X16637260Y-8470560D03*
X16637260Y-8780560D03*
X16702260Y-8625560D03*
G04 #@! TD*
G04 #@! TO.P,J8,1,1*
G04 #@! TO.N,GND*
X11262260Y-8625560D03*
X11327260Y-8470560D03*
X11327260Y-8780560D03*
X11482260Y-8405560D03*
D14*
X11482260Y-8625560D03*
D13*
X11482260Y-8845560D03*
X11637260Y-8470560D03*
X11637260Y-8780560D03*
X11702260Y-8625560D03*
G04 #@! TD*
G04 #@! TO.P,J9,1,1*
G04 #@! TO.N,GND*
X11762260Y-12625560D03*
X11827260Y-12470560D03*
X11827260Y-12780560D03*
X11982260Y-12405560D03*
D14*
X11982260Y-12625560D03*
D13*
X11982260Y-12845560D03*
X12137260Y-12470560D03*
X12137260Y-12780560D03*
X12202260Y-12625560D03*
G04 #@! TD*
D15*
G04 #@! TO.P,P1,1,P1*
G04 #@! TO.N,+1.8V*
X13391260Y-9502560D03*
D16*
G04 #@! TO.P,P1,2,PM*
X13645260Y-9502560D03*
G04 #@! TD*
D13*
G04 #@! TO.P,P2,2,GND*
G04 #@! TO.N,GND*
X16630260Y-13175560D03*
X16630260Y-13075560D03*
X16630260Y-12975560D03*
X16630260Y-12475560D03*
X16630260Y-12375560D03*
X16630260Y-12275560D03*
D17*
X16560760Y-13074810D03*
X16560760Y-12376310D03*
D13*
X16530260Y-13175560D03*
X16530260Y-13075560D03*
X16530260Y-12975560D03*
X16530260Y-12475560D03*
X16530260Y-12375560D03*
X16530260Y-12275560D03*
X16430260Y-13175560D03*
X16430260Y-13075560D03*
X16430260Y-12975560D03*
X16430260Y-12475560D03*
X16430260Y-12375560D03*
X16430260Y-12275560D03*
G04 #@! TD*
D15*
G04 #@! TO.P,P3,1,P1*
G04 #@! TO.N,GND*
X13391260Y-10010560D03*
D16*
G04 #@! TO.P,P3,2,PM*
X13391260Y-10264560D03*
G04 #@! TD*
D13*
G04 #@! TO.P,P4,2,GND*
G04 #@! TO.N,GND*
X5134260Y-13875560D03*
X5134260Y-13975560D03*
X5134260Y-14075560D03*
X5134260Y-14575560D03*
X5134260Y-14675560D03*
X5134260Y-14775560D03*
D17*
X5203760Y-13976310D03*
X5203760Y-14674810D03*
D13*
X5234260Y-13875560D03*
X5234260Y-13975560D03*
X5234260Y-14075560D03*
X5234260Y-14575560D03*
X5234260Y-14675560D03*
X5234260Y-14775560D03*
X5334260Y-13875560D03*
X5334260Y-13975560D03*
X5334260Y-14075560D03*
X5334260Y-14575560D03*
X5334260Y-14675560D03*
X5334260Y-14775560D03*
G04 #@! TD*
D15*
G04 #@! TO.P,P5,1,1*
G04 #@! TO.N,GND*
X8057260Y-8740560D03*
D16*
G04 #@! TO.P,P5,2,2*
G04 #@! TO.N,VCC*
X8057260Y-8994560D03*
G04 #@! TO.P,P5,3,3*
G04 #@! TO.N,/mcu/usb/power/LED1*
X7803260Y-8740560D03*
G04 #@! TO.P,P5,4,4*
G04 #@! TO.N,/mcu/usb/power/LED2*
X7803260Y-8994560D03*
G04 #@! TO.P,P5,5,5*
G04 #@! TO.N,!VAA_ENABLE*
X7549260Y-8740560D03*
G04 #@! TO.P,P5,6,6*
G04 #@! TO.N,/mcu/usb/power/LED3*
X7549260Y-8994560D03*
G04 #@! TD*
D15*
G04 #@! TO.P,P8,1,P1*
G04 #@! TO.N,VCC*
X14661260Y-9502560D03*
D16*
G04 #@! TO.P,P8,2,PM*
X14915260Y-9502560D03*
G04 #@! TD*
D15*
G04 #@! TO.P,P9,1*
G04 #@! TO.N,GND*
X9581260Y-11026560D03*
D16*
G04 #@! TO.P,P9,2*
X9581260Y-11280560D03*
G04 #@! TO.P,P9,3*
X9327260Y-11026560D03*
G04 #@! TO.P,P9,4*
G04 #@! TO.N,/baseband/RXBBQ-*
X9327260Y-11280560D03*
G04 #@! TO.P,P9,5*
G04 #@! TO.N,/baseband/RXBBI-*
X9073260Y-11026560D03*
G04 #@! TO.P,P9,6*
G04 #@! TO.N,/baseband/RXBBQ+*
X9073260Y-11280560D03*
G04 #@! TO.P,P9,7*
G04 #@! TO.N,/baseband/RXBBI+*
X8819260Y-11026560D03*
G04 #@! TO.P,P9,8*
G04 #@! TO.N,GND*
X8819260Y-11280560D03*
G04 #@! TO.P,P9,9*
X8565260Y-11026560D03*
G04 #@! TO.P,P9,10*
G04 #@! TO.N,/baseband/TXBBI-*
X8565260Y-11280560D03*
G04 #@! TO.P,P9,11*
G04 #@! TO.N,/baseband/TXBBQ+*
X8311260Y-11026560D03*
G04 #@! TO.P,P9,12*
G04 #@! TO.N,/baseband/TXBBI+*
X8311260Y-11280560D03*
G04 #@! TO.P,P9,13*
G04 #@! TO.N,/baseband/TXBBQ-*
X8057260Y-11026560D03*
G04 #@! TO.P,P9,14*
G04 #@! TO.N,GND*
X8057260Y-11280560D03*
G04 #@! TO.P,P9,15*
X7803260Y-11026560D03*
G04 #@! TO.P,P9,16*
X7803260Y-11280560D03*
G04 #@! TD*
D13*
G04 #@! TO.P,P16,2,GND*
G04 #@! TO.N,GND*
X16630260Y-14975560D03*
X16630260Y-14875560D03*
X16630260Y-14775560D03*
X16630260Y-14275560D03*
X16630260Y-14175560D03*
X16630260Y-14075560D03*
D17*
X16560760Y-14874810D03*
X16560760Y-14176310D03*
D13*
X16530260Y-14975560D03*
X16530260Y-14875560D03*
X16530260Y-14775560D03*
X16530260Y-14275560D03*
X16530260Y-14175560D03*
X16530260Y-14075560D03*
X16430260Y-14975560D03*
X16430260Y-14875560D03*
X16430260Y-14775560D03*
X16430260Y-14275560D03*
X16430260Y-14175560D03*
X16430260Y-14075560D03*
G04 #@! TD*
D15*
G04 #@! TO.P,P20,1,P1*
G04 #@! TO.N,/mcu/usb/power/VBAT*
X16185260Y-13820560D03*
D16*
G04 #@! TO.P,P20,2,P2*
G04 #@! TO.N,/mcu/usb/power/RTC_ALARM*
X15931260Y-13820560D03*
G04 #@! TO.P,P20,3,P3*
G04 #@! TO.N,VCC*
X16185260Y-13566560D03*
G04 #@! TO.P,P20,4,P4*
G04 #@! TO.N,/mcu/usb/power/WAKEUP*
X15931260Y-13566560D03*
G04 #@! TO.P,P20,5,P5*
G04 #@! TO.N,/mcu/usb/power/GPIO3_8*
X16185260Y-13312560D03*
G04 #@! TO.P,P20,6,P6*
G04 #@! TO.N,/mcu/usb/power/GPIO3_9*
X15931260Y-13312560D03*
G04 #@! TO.P,P20,7,P7*
G04 #@! TO.N,/mcu/usb/power/GPIO3_10*
X16185260Y-13058560D03*
G04 #@! TO.P,P20,8,P8*
G04 #@! TO.N,/mcu/usb/power/GPIO3_11*
X15931260Y-13058560D03*
G04 #@! TO.P,P20,9,P9*
G04 #@! TO.N,/mcu/usb/power/GPIO3_12*
X16185260Y-12804560D03*
G04 #@! TO.P,P20,10,P10*
G04 #@! TO.N,/mcu/usb/power/GPIO3_13*
X15931260Y-12804560D03*
G04 #@! TO.P,P20,11,P11*
G04 #@! TO.N,/mcu/usb/power/GPIO3_14*
X16185260Y-12550560D03*
G04 #@! TO.P,P20,12,P12*
G04 #@! TO.N,/mcu/usb/power/GPIO3_15*
X15931260Y-12550560D03*
G04 #@! TO.P,P20,13,P13*
G04 #@! TO.N,GND*
X16185260Y-12296560D03*
G04 #@! TO.P,P20,14,P14*
G04 #@! TO.N,/mcu/usb/power/ADC0_6*
X15931260Y-12296560D03*
G04 #@! TO.P,P20,15,P15*
G04 #@! TO.N,GND*
X16185260Y-12042560D03*
G04 #@! TO.P,P20,16,P16*
G04 #@! TO.N,/mcu/usb/power/ADC0_2*
X15931260Y-12042560D03*
G04 #@! TO.P,P20,17,P17*
G04 #@! TO.N,/mcu/usb/power/VBUSCTRL*
X16185260Y-11788560D03*
G04 #@! TO.P,P20,18,P18*
G04 #@! TO.N,/mcu/usb/power/ADC0_5*
X15931260Y-11788560D03*
G04 #@! TO.P,P20,19,P19*
G04 #@! TO.N,GND*
X16185260Y-11534560D03*
G04 #@! TO.P,P20,20,P20*
G04 #@! TO.N,/mcu/usb/power/ADC0_0*
X15931260Y-11534560D03*
G04 #@! TO.P,P20,21,P21*
G04 #@! TO.N,/mcu/usb/power/VBUS*
X16185260Y-11280560D03*
G04 #@! TO.P,P20,22,P22*
G04 #@! TO.N,/mcu/usb/power/VIN*
X15931260Y-11280560D03*
G04 #@! TD*
D15*
G04 #@! TO.P,P22,1,P1*
G04 #@! TO.N,CLKOUT*
X15677260Y-14582560D03*
D16*
G04 #@! TO.P,P22,2,P2*
G04 #@! TO.N,CLKIN*
X15677260Y-14836560D03*
G04 #@! TO.P,P22,3,P3*
G04 #@! TO.N,/mcu/usb/power/RESET*
X15423260Y-14582560D03*
G04 #@! TO.P,P22,4,P4*
G04 #@! TO.N,GND*
X15423260Y-14836560D03*
G04 #@! TO.P,P22,5,P5*
G04 #@! TO.N,/mcu/usb/power/I2C1_SCL*
X15169260Y-14582560D03*
G04 #@! TO.P,P22,6,P6*
G04 #@! TO.N,/mcu/usb/power/I2C1_SDA*
X15169260Y-14836560D03*
G04 #@! TO.P,P22,7,P7*
G04 #@! TO.N,/mcu/usb/power/SPIFI_MISO*
X14915260Y-14582560D03*
G04 #@! TO.P,P22,8,P8*
G04 #@! TO.N,/mcu/usb/power/SPIFI_SCK*
X14915260Y-14836560D03*
G04 #@! TO.P,P22,9,P9*
G04 #@! TO.N,/mcu/usb/power/SPIFI_MOSI*
X14661260Y-14582560D03*
G04 #@! TO.P,P22,10,P10*
G04 #@! TO.N,GND*
X14661260Y-14836560D03*
G04 #@! TO.P,P22,11,P11*
G04 #@! TO.N,VCC*
X14407260Y-14582560D03*
G04 #@! TO.P,P22,12,P12*
G04 #@! TO.N,/mcu/usb/power/I2S0_RX_SCK*
X14407260Y-14836560D03*
G04 #@! TO.P,P22,13,P13*
G04 #@! TO.N,/mcu/usb/power/I2S0_RX_SDA*
X14153260Y-14582560D03*
G04 #@! TO.P,P22,14,P14*
G04 #@! TO.N,/mcu/usb/power/I2S0_RX_MCLK*
X14153260Y-14836560D03*
G04 #@! TO.P,P22,15,P15*
G04 #@! TO.N,/mcu/usb/power/I2S0_RX_WS*
X13899260Y-14582560D03*
G04 #@! TO.P,P22,16,P16*
G04 #@! TO.N,/mcu/usb/power/I2S0_TX_SCK*
X13899260Y-14836560D03*
G04 #@! TO.P,P22,17,P17*
G04 #@! TO.N,/mcu/usb/power/I2S0_TX_MCLK*
X13645260Y-14582560D03*
G04 #@! TO.P,P22,18,P18*
G04 #@! TO.N,GND*
X13645260Y-14836560D03*
G04 #@! TO.P,P22,19,P19*
G04 #@! TO.N,/mcu/usb/power/U0_RXD*
X13391260Y-14582560D03*
G04 #@! TO.P,P22,20,P20*
G04 #@! TO.N,/mcu/usb/power/U0_TXD*
X13391260Y-14836560D03*
G04 #@! TO.P,P22,21,P21*
G04 #@! TO.N,/mcu/usb/power/P2_9*
X13137260Y-14582560D03*
G04 #@! TO.P,P22,22,P22*
G04 #@! TO.N,/mcu/usb/power/P2_13*
X13137260Y-14836560D03*
G04 #@! TO.P,P22,23,P23*
G04 #@! TO.N,/mcu/usb/power/P2_8*
X12883260Y-14582560D03*
G04 #@! TO.P,P22,24,P20*
G04 #@! TO.N,SDA*
X12883260Y-14836560D03*
G04 #@! TO.P,P22,25,P24*
G04 #@! TO.N,CLK6*
X12629260Y-14582560D03*
G04 #@! TO.P,P22,26,P22*
G04 #@! TO.N,SCL*
X12629260Y-14836560D03*
G04 #@! TD*
D15*
G04 #@! TO.P,P25,1,1*
G04 #@! TO.N,GND*
X12629260Y-14074560D03*
D16*
G04 #@! TO.P,P25,2,2*
G04 #@! TO.N,/mcu/usb/power/ISP*
X12883260Y-14074560D03*
G04 #@! TO.P,P25,3,3*
G04 #@! TO.N,unconnected-(P25-Pad3)*
X13137260Y-14074560D03*
G04 #@! TO.P,P25,4,4*
G04 #@! TO.N,/mcu/usb/power/U0_RXD*
X13391260Y-14074560D03*
G04 #@! TO.P,P25,5,5*
G04 #@! TO.N,/mcu/usb/power/U0_TXD*
X13645260Y-14074560D03*
G04 #@! TO.P,P25,6,6*
G04 #@! TO.N,/mcu/usb/power/RESET*
X13899260Y-14074560D03*
G04 #@! TD*
D18*
G04 #@! TO.P,P26,1*
G04 #@! TO.N,VCC*
X14048520Y-9672220D03*
D19*
G04 #@! TO.P,P26,2*
G04 #@! TO.N,/mcu/usb/power/TMS*
X14175520Y-9672220D03*
G04 #@! TO.P,P26,3*
G04 #@! TO.N,GND*
X14048520Y-9799220D03*
G04 #@! TO.P,P26,4*
G04 #@! TO.N,/mcu/usb/power/TCK*
X14175520Y-9799220D03*
G04 #@! TO.P,P26,5*
G04 #@! TO.N,GND*
X14048520Y-9926220D03*
G04 #@! TO.P,P26,6*
G04 #@! TO.N,/mcu/usb/power/TDO*
X14175520Y-9926220D03*
G04 #@! TO.P,P26,7*
G04 #@! TO.N,unconnected-(P26-Pad7)*
X14048520Y-10053220D03*
G04 #@! TO.P,P26,8*
G04 #@! TO.N,/mcu/usb/power/TDI*
X14175520Y-10053220D03*
G04 #@! TO.P,P26,9*
G04 #@! TO.N,GND*
X14048520Y-10180220D03*
G04 #@! TO.P,P26,10*
G04 #@! TO.N,/mcu/usb/power/RESET*
X14175520Y-10180220D03*
G04 #@! TD*
D15*
G04 #@! TO.P,P28,1,P1*
G04 #@! TO.N,VCC*
X11359260Y-13820560D03*
D16*
G04 #@! TO.P,P28,2,P2*
G04 #@! TO.N,GND*
X11105260Y-13820560D03*
G04 #@! TO.P,P28,3,P3*
G04 #@! TO.N,/mcu/usb/power/SD_CD*
X11359260Y-13566560D03*
G04 #@! TO.P,P28,4,P4*
G04 #@! TO.N,/mcu/usb/power/SD_DAT3*
X11105260Y-13566560D03*
G04 #@! TO.P,P28,5,P5*
G04 #@! TO.N,/mcu/usb/power/SD_DAT2*
X11359260Y-13312560D03*
G04 #@! TO.P,P28,6,P6*
G04 #@! TO.N,/mcu/usb/power/SD_DAT1*
X11105260Y-13312560D03*
G04 #@! TO.P,P28,7,P7*
G04 #@! TO.N,/mcu/usb/power/SD_DAT0*
X11359260Y-13058560D03*
G04 #@! TO.P,P28,8,P8*
G04 #@! TO.N,/mcu/usb/power/SD_VOLT0*
X11105260Y-13058560D03*
G04 #@! TO.P,P28,9,P9*
G04 #@! TO.N,/mcu/usb/power/SD_CMD*
X11359260Y-12804560D03*
G04 #@! TO.P,P28,10,P10*
G04 #@! TO.N,/mcu/usb/power/SD_POW*
X11105260Y-12804560D03*
G04 #@! TO.P,P28,11,P11*
G04 #@! TO.N,/mcu/usb/power/SD_CLK*
X11359260Y-12550560D03*
G04 #@! TO.P,P28,12,P12*
G04 #@! TO.N,GND*
X11105260Y-12550560D03*
G04 #@! TO.P,P28,13,P13*
G04 #@! TO.N,GCK2*
X11359260Y-12296560D03*
G04 #@! TO.P,P28,14,P14*
G04 #@! TO.N,GCK1*
X11105260Y-12296560D03*
G04 #@! TO.P,P28,15,P15*
G04 #@! TO.N,/mcu/usb/power/B1AUX14*
X11359260Y-12042560D03*
G04 #@! TO.P,P28,16,P16*
G04 #@! TO.N,/mcu/usb/power/B1AUX13*
X11105260Y-12042560D03*
G04 #@! TO.P,P28,17,P17*
G04 #@! TO.N,/mcu/usb/power/CPLD_TCK*
X11359260Y-11788560D03*
G04 #@! TO.P,P28,18,P18*
G04 #@! TO.N,/mcu/usb/power/BANK2F3M2*
X11105260Y-11788560D03*
G04 #@! TO.P,P28,19,P19*
G04 #@! TO.N,/mcu/usb/power/CPLD_TDI*
X11359260Y-11534560D03*
G04 #@! TO.P,P28,20,P20*
G04 #@! TO.N,/mcu/usb/power/BANK2F3M6*
X11105260Y-11534560D03*
G04 #@! TO.P,P28,21,P21*
G04 #@! TO.N,/mcu/usb/power/BANK2F3M12*
X11359260Y-11280560D03*
G04 #@! TO.P,P28,22,P22*
G04 #@! TO.N,/mcu/usb/power/BANK2F3M4*
X11105260Y-11280560D03*
G04 #@! TD*
D15*
G04 #@! TO.P,P29,1,P1*
G04 #@! TO.N,/mcu/usb/power/CPLD_TMS*
X11867260Y-11534560D03*
D16*
G04 #@! TO.P,P29,2,PM*
G04 #@! TO.N,/mcu/usb/power/CPLD_TDO*
X12121260Y-11534560D03*
G04 #@! TD*
D15*
G04 #@! TO.P,P30,1,P1*
G04 #@! TO.N,VCC*
X14915260Y-8740560D03*
D16*
G04 #@! TO.P,P30,2,P2*
G04 #@! TO.N,GND*
X14915260Y-8994560D03*
G04 #@! TO.P,P30,3,P3*
G04 #@! TO.N,/mcu/usb/power/B2AUX16*
X14661260Y-8740560D03*
G04 #@! TO.P,P30,4,P4*
G04 #@! TO.N,/mcu/usb/power/B2AUX15*
X14661260Y-8994560D03*
G04 #@! TO.P,P30,5,P5*
G04 #@! TO.N,/mcu/usb/power/B2AUX14*
X14407260Y-8740560D03*
G04 #@! TO.P,P30,6,P6*
G04 #@! TO.N,/mcu/usb/power/B2AUX13*
X14407260Y-8994560D03*
G04 #@! TO.P,P30,7,P7*
G04 #@! TO.N,/mcu/usb/power/B2AUX12*
X14153260Y-8740560D03*
G04 #@! TO.P,P30,8,P8*
G04 #@! TO.N,/mcu/usb/power/B2AUX11*
X14153260Y-8994560D03*
G04 #@! TO.P,P30,9,P9*
G04 #@! TO.N,/mcu/usb/power/B2AUX10*
X13899260Y-8740560D03*
G04 #@! TO.P,P30,10,P10*
G04 #@! TO.N,/mcu/usb/power/B2AUX9*
X13899260Y-8994560D03*
G04 #@! TO.P,P30,11,P11*
G04 #@! TO.N,/mcu/usb/power/B2AUX8*
X13645260Y-8740560D03*
G04 #@! TO.P,P30,12,P12*
G04 #@! TO.N,/mcu/usb/power/B2AUX7*
X13645260Y-8994560D03*
G04 #@! TO.P,P30,13,P13*
G04 #@! TO.N,/mcu/usb/power/B2AUX6*
X13391260Y-8740560D03*
G04 #@! TO.P,P30,14,P14*
G04 #@! TO.N,/mcu/usb/power/B2AUX5*
X13391260Y-8994560D03*
G04 #@! TO.P,P30,15,P15*
G04 #@! TO.N,/mcu/usb/power/B2AUX4*
X13137260Y-8740560D03*
G04 #@! TO.P,P30,16,P16*
G04 #@! TO.N,/mcu/usb/power/B2AUX3*
X13137260Y-8994560D03*
G04 #@! TO.P,P30,17,P17*
G04 #@! TO.N,/mcu/usb/power/B2AUX2*
X12883260Y-8740560D03*
G04 #@! TO.P,P30,18,P18*
G04 #@! TO.N,/mcu/usb/power/B2AUX1*
X12883260Y-8994560D03*
G04 #@! TO.P,P30,19,P19*
G04 #@! TO.N,/mcu/usb/power/GCK0*
X12629260Y-8740560D03*
G04 #@! TO.P,P30,20,P20*
G04 #@! TO.N,GND*
X12629260Y-8994560D03*
G04 #@! TD*
D15*
G04 #@! TO.P,P36,1,P1*
G04 #@! TO.N,VAA*
X7295260Y-11026560D03*
D16*
G04 #@! TO.P,P36,2,PM*
X7295260Y-10772560D03*
G04 #@! TD*
D15*
G04 #@! TO.P,P80,1,P1*
G04 #@! TO.N,GND*
X16693260Y-11280560D03*
D16*
G04 #@! TO.P,P80,2,PM*
X16693260Y-11534560D03*
G04 #@! TD*
D20*
G04 #@! TO.P,SW1,0,SHIELD*
G04 #@! TO.N,GND*
X5401260Y-10315060D03*
X5401260Y-11016060D03*
D21*
G04 #@! TO.P,SW1,1,1*
G04 #@! TO.N,VCC*
X5152260Y-10440560D03*
G04 #@! TO.P,SW1,2,2*
G04 #@! TO.N,Net-(R30-Pad2)*
X5152260Y-10890560D03*
G04 #@! TD*
D20*
G04 #@! TO.P,SW2,0,SHIELD*
G04 #@! TO.N,GND*
X5401260Y-9015060D03*
X5401260Y-9716060D03*
D21*
G04 #@! TO.P,SW2,1,1*
X5152260Y-9140560D03*
G04 #@! TO.P,SW2,2,2*
G04 #@! TO.N,Net-(R19-Pad2)*
X5152260Y-9590560D03*
G04 #@! TD*
D13*
G04 #@! TO.P,U4,0,EP*
G04 #@! TO.N,GND*
X8254300Y-13891920D03*
X8144300Y-13891920D03*
X8034300Y-13891920D03*
X8254300Y-14001920D03*
X8144300Y-14001920D03*
X8034300Y-14001920D03*
X8254300Y-14111920D03*
X8144300Y-14111920D03*
X8034300Y-14111920D03*
G04 #@! TD*
D22*
G04 #@! TO.P,U17,0,EP*
G04 #@! TO.N,GND*
X9597110Y-12565270D03*
X9747110Y-12565270D03*
X9897110Y-12565270D03*
X9597110Y-12415270D03*
X9747110Y-12415270D03*
X9897110Y-12415270D03*
X9597110Y-12265270D03*
X9747110Y-12265270D03*
X9897110Y-12265270D03*
G04 #@! TD*
G04 #@! TO.P,U18,0,EP*
G04 #@! TO.N,GND*
X9006800Y-9636740D03*
X9171800Y-9636740D03*
X9336800Y-9636740D03*
X9006800Y-9471740D03*
X9171800Y-9471740D03*
X9336800Y-9471740D03*
X9006800Y-9306740D03*
X9171800Y-9306740D03*
X9336800Y-9306740D03*
G04 #@! TD*
D13*
G04 #@! TO.P,U19,0,GND*
G04 #@! TO.N,GND*
X11563180Y-14584160D03*
X11695180Y-14584160D03*
X11629180Y-14518160D03*
X11563180Y-14452160D03*
X11695180Y-14452160D03*
G04 #@! TD*
D23*
G04 #@! TO.P,U21,0,PP*
G04 #@! TO.N,GND*
X15885260Y-9495680D03*
X15885260Y-9345680D03*
X15835260Y-9420680D03*
X15785260Y-9495680D03*
X15785260Y-9345680D03*
G04 #@! TD*
D12*
G04 #@! TO.P,MARK1MM,*
G04 #@! TO.N,*
X7462620Y-14948960D03*
G04 #@! TD*
G04 #@! TO.P,MARK1MM,*
G04 #@! TO.N,*
X10505540Y-10752880D03*
G04 #@! TD*
D24*
G04 #@! TO.P,J11,0*
G04 #@! TO.N,N/C*
X16281810Y-11018060D03*
D25*
X16701810Y-11018060D03*
D24*
X16281810Y-10153060D03*
D25*
X16701810Y-10153060D03*
G04 #@! TD*
D26*
G04 #@! TO.N,!MIX_BYPASS*
X14323440Y-12382920D03*
X10911700Y-15528040D03*
X10294720Y-15022620D03*
X6276680Y-12508280D03*
X10841100Y-15016900D03*
G04 #@! TO.N,!RX_AMP_PWR*
X13678280Y-13464960D03*
X6248500Y-13300500D03*
X6159600Y-13833900D03*
G04 #@! TO.N,!TX_AMP_PWR*
X12823570Y-13889140D03*
X6764120Y-14296180D03*
X6764120Y-14082820D03*
G04 #@! TO.N,!VAA_ENABLE*
X13431900Y-10460140D03*
G04 #@! TO.N,+1.8V*
X11252580Y-10566820D03*
X10591660Y-9261860D03*
X11752960Y-9629560D03*
X11252060Y-9759700D03*
G04 #@! TO.N,/frontend/!ANT_BIAS*
X7617560Y-15096280D03*
X7617560Y-14260620D03*
G04 #@! TO.N,/frontend/REF_IN*
X7708760Y-13861800D03*
X10833480Y-14567320D03*
G04 #@! TO.N,/mcu/usb/power/B2AUX3*
X11608180Y-9324760D03*
G04 #@! TO.N,/mcu/usb/power/B2AUX4*
X11735180Y-9484780D03*
G04 #@! TO.N,/mcu/usb/power/B2AUX5*
X11758040Y-9337460D03*
G04 #@! TO.N,/mcu/usb/power/B2AUX6*
X11808840Y-9418740D03*
G04 #@! TO.N,/mcu/usb/power/B2AUX7*
X11857100Y-9502560D03*
G04 #@! TO.N,/mcu/usb/power/BANK2F3M12*
X11084940Y-10424580D03*
G04 #@! TO.N,/mcu/usb/power/BANK2F3M2*
X11084940Y-10132480D03*
G04 #@! TO.N,/mcu/usb/power/BANK2F3M4*
X11090020Y-10231540D03*
G04 #@! TO.N,/mcu/usb/power/BANK2F3M6*
X11087480Y-10328060D03*
G04 #@! TO.N,/mcu/usb/power/CPLD_TCK*
X10625200Y-10429660D03*
X11829160Y-11803800D03*
G04 #@! TO.N,/mcu/usb/power/CPLD_TDI*
X10615040Y-10277260D03*
X11793600Y-11714900D03*
G04 #@! TO.N,/mcu/usb/power/CPLD_TDO*
X12512420Y-10216300D03*
G04 #@! TO.N,/mcu/usb/power/CPLD_TMS*
X13085940Y-12276840D03*
X12849720Y-12553700D03*
X10937620Y-10383940D03*
G04 #@! TO.N,/mcu/usb/power/EN1V8*
X15390760Y-9484180D03*
X7323200Y-8583080D03*
X13472540Y-13254140D03*
G04 #@! TO.N,/mcu/usb/power/GCK0*
X11603100Y-9423820D03*
G04 #@! TO.N,/mcu/usb/power/GPIO3_10*
X14895446Y-12268724D03*
X15811360Y-12972800D03*
G04 #@! TO.N,/mcu/usb/power/GPIO3_11*
X14922387Y-12356730D03*
G04 #@! TO.N,/mcu/usb/power/GPIO3_8*
X14679040Y-12395620D03*
X15643720Y-13188700D03*
G04 #@! TO.N,/mcu/usb/power/GPIO3_9*
X14784091Y-12336974D03*
G04 #@! TO.N,/mcu/usb/power/GP_CLKIN*
X11211940Y-14021220D03*
X14640940Y-11745380D03*
G04 #@! TO.N,/mcu/usb/power/I2C1_SCL*
X14168500Y-12850280D03*
X13101700Y-12733440D03*
X13383640Y-12451500D03*
G04 #@! TO.N,/mcu/usb/power/I2C1_SDA*
X13015340Y-12725820D03*
X14252320Y-12761380D03*
X13391260Y-12349900D03*
G04 #@! TO.N,/mcu/usb/power/I2S0_RX_SCK*
X14574900Y-13721500D03*
G04 #@! TO.N,/mcu/usb/power/I2S0_RX_SDA*
X14318914Y-13499019D03*
G04 #@! TO.N,/mcu/usb/power/I2S0_RX_WS*
X14259940Y-13576720D03*
X14064360Y-14178700D03*
G04 #@! TO.N,/mcu/usb/power/I2S0_TX_SCK*
X14303120Y-13650380D03*
G04 #@! TO.N,/mcu/usb/power/LED1*
X14044040Y-11712360D03*
G04 #@! TO.N,/mcu/usb/power/LED2*
X7467980Y-9218080D03*
X14013560Y-11570120D03*
G04 #@! TO.N,/mcu/usb/power/LED3*
X13160120Y-13556400D03*
G04 #@! TO.N,/mcu/usb/power/P2_8*
X12763880Y-13819290D03*
X13365860Y-13139840D03*
X7236840Y-8867560D03*
G04 #@! TO.N,/mcu/usb/power/RESET*
X14315820Y-12639460D03*
X13661559Y-10707955D03*
X14600300Y-12769000D03*
X7495920Y-8494180D03*
G04 #@! TO.N,/mcu/usb/power/SD_CD*
X11633580Y-13210960D03*
X13195680Y-11961280D03*
G04 #@! TO.N,/mcu/usb/power/SD_CLK*
X13548740Y-11237380D03*
G04 #@! TO.N,/mcu/usb/power/SD_CMD*
X13424280Y-11412640D03*
G04 #@! TO.N,/mcu/usb/power/SD_DAT0*
X13393800Y-11595520D03*
G04 #@! TO.N,/mcu/usb/power/SD_DAT1*
X11598020Y-13122060D03*
X13442060Y-11717440D03*
G04 #@! TO.N,/mcu/usb/power/SD_DAT2*
X11529440Y-13188100D03*
X13300553Y-11773014D03*
G04 #@! TO.N,/mcu/usb/power/SD_DAT3*
X11567540Y-13322720D03*
X13391260Y-11867300D03*
G04 #@! TO.N,/mcu/usb/power/SD_POW*
X13503020Y-11478680D03*
G04 #@! TO.N,/mcu/usb/power/SD_VOLT0*
X11491340Y-13023000D03*
X13528420Y-11707280D03*
G04 #@! TO.N,/mcu/usb/power/SGPIO13*
X13391260Y-9802280D03*
X13746860Y-10444900D03*
G04 #@! TO.N,/mcu/usb/power/SGPIO9*
X13678280Y-10526180D03*
X13289660Y-9693060D03*
G04 #@! TO.N,/mcu/usb/power/SPIFI_MISO*
X14325460Y-13074400D03*
X15112860Y-13950700D03*
G04 #@! TO.N,/mcu/usb/power/SPIFI_SIO2*
X14673960Y-13731660D03*
X15181440Y-14026900D03*
G04 #@! TO.N,/mcu/usb/power/SPIFI_SIO3*
X14536800Y-13810400D03*
X14419440Y-14151360D03*
G04 #@! TO.N,/mcu/usb/power/TCK*
X14396500Y-9903360D03*
G04 #@! TO.N,/mcu/usb/power/TDI*
X14651100Y-10201060D03*
G04 #@! TO.N,/mcu/usb/power/TDO*
X14397100Y-10008020D03*
G04 #@! TO.N,/mcu/usb/power/VBAT*
X14721229Y-13121848D03*
X15717380Y-13968480D03*
G04 #@! TO.N,/mcu/usb/power/VBUS*
X15642260Y-10325560D03*
X15932260Y-10360560D03*
X15928492Y-10824365D03*
G04 #@! TO.N,/mcu/usb/power/VBUSCTRL*
X14852260Y-10835560D03*
G04 #@! TO.N,/mcu/usb/power/VIN*
X15052260Y-10355560D03*
X16490568Y-9337714D03*
G04 #@! TO.N,/mcu/usb/power/VREGMODE*
X13244875Y-13459506D03*
X14677770Y-10635560D03*
G04 #@! TO.N,AMP_BYPASS*
X13431900Y-13617360D03*
X6639660Y-14402860D03*
X6639660Y-13816120D03*
X6621880Y-13336060D03*
X6426300Y-13905020D03*
G04 #@! TO.N,CLK6*
X11303380Y-14333640D03*
G04 #@! TO.N,CS_AD*
X12103480Y-11247540D03*
X8728570Y-9125030D03*
G04 #@! TO.N,CS_XCVR*
X10429100Y-11850120D03*
X11887580Y-11938420D03*
G04 #@! TO.N,GCK1*
X9127350Y-9935290D03*
X9548240Y-10236620D03*
G04 #@! TO.N,GCK2*
X10591660Y-9383780D03*
X11387200Y-10886860D03*
G04 #@! TO.N,GND*
X5895440Y-13940580D03*
X5778600Y-13940580D03*
X16151960Y-14618760D03*
X11095780Y-14825500D03*
X9932530Y-9541590D03*
X8365350Y-9605090D03*
X6220560Y-14882920D03*
X12022200Y-11925720D03*
X15001413Y-11171337D03*
X8482260Y-15325560D03*
X7763300Y-13671720D03*
X7066380Y-13922800D03*
X14308138Y-11415599D03*
X5657260Y-13725560D03*
X9082260Y-15325560D03*
X14091780Y-14283440D03*
X10458310Y-12212070D03*
X5161660Y-12776620D03*
X9134970Y-12681970D03*
X7282260Y-11525560D03*
X8598960Y-13201820D03*
X8828900Y-10208340D03*
X8967260Y-14408320D03*
X9143860Y-10208340D03*
X15430670Y-12843460D03*
X8319560Y-13326280D03*
X6921840Y-12647980D03*
X9431400Y-10221380D03*
X8889860Y-10302320D03*
X6494880Y-11900960D03*
X8625700Y-10208340D03*
X10832260Y-12325560D03*
X8548160Y-13709820D03*
X6947240Y-12012980D03*
X9682260Y-11525560D03*
X16051160Y-9039680D03*
X10074770Y-13380470D03*
X7882260Y-15325560D03*
X10178910Y-11803130D03*
X10678540Y-10996080D03*
X15430670Y-11676027D03*
X12045060Y-14132980D03*
X9046070Y-12290810D03*
X5161660Y-12319420D03*
X10707260Y-13125560D03*
X11008740Y-14125360D03*
X9802990Y-13436350D03*
X9298560Y-14930780D03*
X6532980Y-14682260D03*
X11831700Y-13322720D03*
X9495650Y-13380470D03*
X12835000Y-13744360D03*
X10082260Y-11175560D03*
X8064360Y-10863660D03*
X11777840Y-15215620D03*
X12052160Y-8731000D03*
X16165460Y-9573080D03*
X10098900Y-14021592D03*
X7882260Y-11525560D03*
X7788700Y-14530240D03*
X9202280Y-10302320D03*
X13859125Y-10589416D03*
X8116360Y-13191660D03*
X7109320Y-13013440D03*
X15258160Y-13416700D03*
X9767430Y-13324590D03*
X5657260Y-11925560D03*
X16381360Y-9166680D03*
X8376780Y-10863660D03*
X16238320Y-14997220D03*
X8782260Y-11675560D03*
X11508600Y-10564880D03*
X10707260Y-14325560D03*
X6947240Y-12127280D03*
X14056690Y-13772019D03*
X11377040Y-11123080D03*
X10911700Y-9617460D03*
X13276960Y-13800240D03*
X5804000Y-13371620D03*
X10460850Y-12410190D03*
X9785210Y-13126470D03*
X7188540Y-12266980D03*
X6959980Y-10289960D03*
X10935080Y-14496200D03*
X15286986Y-12987144D03*
X6947240Y-11898680D03*
X7751940Y-13978640D03*
X8191360Y-10863660D03*
X10282260Y-11525560D03*
X12530047Y-11289876D03*
X15073260Y-9420680D03*
X10534510Y-12313670D03*
X12187300Y-14889900D03*
X13656171Y-11065370D03*
X8490330Y-9855620D03*
X9682260Y-15325560D03*
X8727300Y-10208340D03*
X8779300Y-14979820D03*
X11451380Y-14848360D03*
X12895960Y-9367940D03*
X7597520Y-10391560D03*
X9235300Y-10198180D03*
X10838040Y-14357100D03*
X9588360Y-13557037D03*
X12334277Y-12635118D03*
X11946000Y-13652920D03*
X7953800Y-14682640D03*
X14811032Y-10966587D03*
X6667360Y-12990380D03*
X14972677Y-11559284D03*
X15080440Y-13193690D03*
X7048840Y-12647980D03*
X16052260Y-10250560D03*
X9134970Y-12135870D03*
X11316080Y-14056780D03*
X14841600Y-13640220D03*
X8308440Y-14827040D03*
X15493531Y-11451520D03*
X16051160Y-9801680D03*
X6687920Y-14679720D03*
X8220500Y-14682640D03*
X14936756Y-13337374D03*
X9644480Y-14044720D03*
X9433660Y-14331740D03*
X8403450Y-9262190D03*
X15543160Y-9420680D03*
X11628500Y-13642760D03*
X10707260Y-11925560D03*
X15475571Y-11235994D03*
X5161660Y-11864760D03*
X12817220Y-13480200D03*
X6073480Y-12411760D03*
X9329280Y-10302320D03*
X12705460Y-10975760D03*
X12702920Y-10851300D03*
X12039980Y-15303920D03*
X14370999Y-13903130D03*
X9480410Y-13126470D03*
X8217960Y-13326280D03*
X14780499Y-12613566D03*
X9745600Y-15083180D03*
X8845410Y-8807530D03*
X8344280Y-9460650D03*
X8282260Y-11650560D03*
X15484551Y-11837671D03*
X5782260Y-14125560D03*
X6728560Y-14847360D03*
X11158080Y-9289800D03*
X6304380Y-14136160D03*
X6118960Y-14325260D03*
X10707260Y-13725560D03*
X7091272Y-14299736D03*
X14952260Y-10455560D03*
X6052920Y-13833900D03*
X9154260Y-13803420D03*
X15338920Y-13780520D03*
X6082260Y-11525560D03*
X6756740Y-12266980D03*
X12357480Y-9239670D03*
X10693260Y-9012940D03*
X6082260Y-15325560D03*
X7284821Y-15325560D03*
X10255110Y-12897870D03*
X11910440Y-14018680D03*
X16330560Y-9674680D03*
X7119720Y-13318280D03*
X13167645Y-10652278D03*
X9016860Y-10302320D03*
X9830930Y-13965647D03*
X6118960Y-14150260D03*
X9874110Y-11701530D03*
X8695550Y-8995490D03*
X14721229Y-10876784D03*
X8930500Y-10208340D03*
X6799680Y-13567200D03*
X8484660Y-13163720D03*
X9479380Y-14613680D03*
X8713260Y-13278020D03*
X10990280Y-15013340D03*
X5657260Y-13125560D03*
X11844400Y-10571900D03*
X12225400Y-12903620D03*
X14451822Y-11559284D03*
X9566770Y-9836230D03*
X9146920Y-8809140D03*
X10707260Y-14925560D03*
X8116360Y-13326280D03*
X7870837Y-12844548D03*
X5976960Y-12632740D03*
X11135220Y-15215620D03*
X5161660Y-11407560D03*
X5657260Y-12525560D03*
X14974473Y-12067566D03*
X8093500Y-14682640D03*
X10282260Y-15325560D03*
X5161660Y-13233820D03*
X8242400Y-12528340D03*
X8925420Y-13709400D03*
X8654840Y-14497220D03*
X5669660Y-10465220D03*
X6682260Y-15325560D03*
X5136260Y-10096920D03*
X7674400Y-13417720D03*
X15936860Y-8747580D03*
X5648819Y-14925560D03*
X10582260Y-12725560D03*
X6390740Y-13282720D03*
X9623920Y-10134680D03*
X12547460Y-10105140D03*
X7460080Y-12635020D03*
X10286860Y-9825740D03*
X8524100Y-10208340D03*
X16052260Y-10920560D03*
X12702920Y-10724300D03*
X8504300Y-10864000D03*
X8800960Y-14532360D03*
X9307260Y-11650560D03*
X9932530Y-9419670D03*
X6682260Y-11525560D03*
X10001110Y-11701530D03*
G04 #@! TO.N,HP*
X15366860Y-12157460D03*
X7358480Y-12434360D03*
G04 #@! TO.N,LP*
X6593940Y-12114320D03*
X14328520Y-12205120D03*
G04 #@! TO.N,MIXER_ENX*
X8598960Y-13481220D03*
X13741780Y-12365140D03*
X8595220Y-13811000D03*
G04 #@! TO.N,MIXER_RESETX*
X8619280Y-13900320D03*
X8712060Y-13577320D03*
X13802740Y-12438800D03*
G04 #@! TO.N,MIXER_SCLK*
X8484660Y-13455820D03*
X13190600Y-12974740D03*
G04 #@! TO.N,MIXER_SDATA*
X8395080Y-13236360D03*
X13337920Y-12776620D03*
G04 #@! TO.N,MIX_BYPASS*
X12512420Y-14351420D03*
X10010240Y-14634000D03*
G04 #@! TO.N,RSSI*
X13746860Y-12174640D03*
X9634080Y-12010140D03*
G04 #@! TO.N,RX*
X9055480Y-14646060D03*
X12672440Y-14356500D03*
X8046820Y-12637560D03*
G04 #@! TO.N,RXENABLE*
X13884020Y-11460900D03*
X9357220Y-12787380D03*
G04 #@! TO.N,RX_AMP*
X6408520Y-13389400D03*
X13614780Y-13406540D03*
X6532980Y-14402860D03*
X6319620Y-13805960D03*
G04 #@! TO.N,RX_MIX_BP*
X14325980Y-12476900D03*
X6271600Y-12635280D03*
G04 #@! TO.N,SCL*
X12291440Y-14132980D03*
X12202540Y-13348120D03*
X12746100Y-13061100D03*
X11821540Y-14922920D03*
X12418440Y-14590180D03*
G04 #@! TO.N,SDA*
X11819680Y-14835660D03*
X12362560Y-13350660D03*
X12365100Y-14493660D03*
X12700380Y-13132220D03*
G04 #@! TO.N,SGPIO_CLK*
X13210400Y-12289540D03*
X12037440Y-13233820D03*
G04 #@! TO.N,SSP1_MISO*
X13243079Y-11029449D03*
X9758540Y-11697720D03*
G04 #@! TO.N,SSP1_MOSI*
X9634080Y-11911080D03*
X12400914Y-11196994D03*
X8842120Y-8931060D03*
G04 #@! TO.N,SSP1_SCK*
X10211180Y-12598820D03*
X8856344Y-9040280D03*
X11813920Y-11224680D03*
G04 #@! TO.N,TXENABLE*
X9286100Y-12698480D03*
X13924660Y-11552340D03*
G04 #@! TO.N,TX_AMP*
X14155800Y-12667400D03*
X6890596Y-13422944D03*
X6728560Y-13869459D03*
X6746340Y-14402860D03*
G04 #@! TO.N,TX_MIX_BP*
X6923900Y-12901680D03*
X14336140Y-12299100D03*
G04 #@! TO.N,VAA*
X6294220Y-14580660D03*
X7173060Y-14029480D03*
X7361020Y-12088920D03*
X6586320Y-12457220D03*
X9565740Y-14834660D03*
X9746080Y-13750080D03*
X8610700Y-14827040D03*
X7701380Y-12680740D03*
X9902050Y-11968230D03*
X6728560Y-15114060D03*
X8665070Y-9699070D03*
X9340710Y-12336530D03*
X10856340Y-14691780D03*
X9028290Y-9008190D03*
X10153510Y-12273030D03*
X8642730Y-9467000D03*
X9322930Y-12567670D03*
X7137500Y-13638320D03*
X9431120Y-14204740D03*
X8930500Y-9928940D03*
X5263260Y-11661560D03*
X8192560Y-14408320D03*
X8707500Y-9240940D03*
X8854300Y-14280900D03*
X6159600Y-13478300D03*
X9480410Y-12824210D03*
X9438500Y-9931480D03*
X6172300Y-14580660D03*
X9785210Y-12826750D03*
X9310230Y-12245090D03*
X8852960Y-13824120D03*
X9248000Y-9928940D03*
X10168750Y-12410190D03*
X10153510Y-12694670D03*
X8129060Y-13582820D03*
G04 #@! TO.N,VCC*
X14505703Y-11092310D03*
X10490060Y-9927340D03*
X11963260Y-8936740D03*
X11239880Y-14519060D03*
X12443840Y-12695340D03*
X15071459Y-12771618D03*
X11813400Y-14227560D03*
X12245720Y-14254900D03*
X12702920Y-10594760D03*
X12323501Y-11927474D03*
X12674980Y-11123080D03*
X16238320Y-14842280D03*
X9642220Y-9517800D03*
X12585560Y-9393940D03*
X14404200Y-14280900D03*
X12745573Y-11505402D03*
X11946000Y-14346340D03*
X14155473Y-13687604D03*
X5669660Y-9169820D03*
X15215144Y-12627934D03*
X11514880Y-14162560D03*
X7163180Y-10091840D03*
X13402928Y-10858824D03*
X10242410Y-12316210D03*
X10896460Y-10892540D03*
X14788402Y-11394406D03*
X16471772Y-8978812D03*
X12534760Y-9978140D03*
X13490934Y-13723525D03*
X11832380Y-15026160D03*
X15565500Y-13249060D03*
X14712260Y-9885560D03*
X5240400Y-10002940D03*
X11323180Y-14697460D03*
X16137520Y-9275900D03*
X14501240Y-10386480D03*
X16192600Y-14181880D03*
X12172060Y-13942480D03*
X13134720Y-13863740D03*
X7991900Y-14403240D03*
X12060980Y-14886460D03*
X14029750Y-10706159D03*
X15231490Y-11836820D03*
X13032941Y-13265532D03*
X14869540Y-12984900D03*
X13541120Y-10457600D03*
G04 #@! TO.N,XCVR_EN*
X13152500Y-11011320D03*
X10064610Y-12044430D03*
X13886066Y-11302448D03*
G04 #@! TO.N,Net-(U21-MODE{slash}DATA)*
X16211180Y-9674680D03*
X15012202Y-10048032D03*
G04 #@! TO.N,Net-(U21-EN1)*
X16383900Y-9039680D03*
X15505060Y-9306380D03*
G04 #@! TO.N,Net-(U23-USB0_VBUS)*
X14762260Y-10785560D03*
X14597760Y-11245000D03*
G04 #@! TD*
D27*
G04 #@! TO.N,!MIX_BYPASS*
X14537310Y-12382920D02*
X14755750Y-12164480D01*
X14755750Y-12164480D02*
X15137760Y-12164480D01*
X10999999Y-15557919D02*
X10970120Y-15528040D01*
X10911700Y-15528040D02*
X10970120Y-15528040D01*
X15671760Y-12698480D02*
X15979000Y-12698480D01*
X15979000Y-12698480D02*
X16037420Y-12756900D01*
X16037420Y-12756900D02*
X16037420Y-14750210D01*
X16037420Y-14750210D02*
X15229710Y-15557919D01*
X6194319Y-15557919D02*
X10817720Y-15557919D01*
X5540120Y-13013862D02*
X5540120Y-13771790D01*
X5540120Y-13771790D02*
X5628500Y-13860169D01*
X10847599Y-15528040D02*
X10911700Y-15528040D01*
X10817720Y-15557919D02*
X10847599Y-15528040D01*
X10841100Y-15016900D02*
X10300440Y-15016900D01*
X5628500Y-13860169D02*
X5628500Y-14725200D01*
X15229710Y-15557919D02*
X10999999Y-15557919D01*
X6276680Y-12508280D02*
X6018500Y-12766460D01*
X5787522Y-12766460D02*
X5540120Y-13013862D01*
X5768440Y-14865140D02*
X5768440Y-15132040D01*
X5628500Y-14725200D02*
X5768440Y-14865140D01*
X10300440Y-15016900D02*
X10294720Y-15022620D01*
X6018500Y-12766460D02*
X5787522Y-12766460D01*
X5768440Y-15132040D02*
X6194319Y-15557919D01*
X15137760Y-12164480D02*
X15671760Y-12698480D01*
X14323440Y-12382920D02*
X14537310Y-12382920D01*
G04 #@! TO.N,!RX_AMP_PWR*
X6080860Y-13912640D02*
X6159600Y-13833900D01*
X10848620Y-15426440D02*
X10788261Y-15486799D01*
X5699620Y-13890782D02*
X5738722Y-13851680D01*
X5699620Y-14689640D02*
X5699620Y-13890782D01*
X6248500Y-13722140D02*
X6248500Y-13300500D01*
X10788261Y-15486799D02*
X6461219Y-15486799D01*
X13286611Y-15486799D02*
X11029459Y-15486799D01*
X5938620Y-13851680D02*
X5999580Y-13912640D01*
X5933540Y-15190260D02*
X5839560Y-15096280D01*
X10969099Y-15426440D02*
X10848620Y-15426440D01*
X13795120Y-14978290D02*
X13286611Y-15486799D01*
X13795120Y-13581800D02*
X13795120Y-14978290D01*
X5999580Y-13912640D02*
X6080860Y-13912640D01*
X13678280Y-13464960D02*
X13795120Y-13581800D01*
X11029459Y-15486799D02*
X10969099Y-15426440D01*
X5738722Y-13851680D02*
X5938620Y-13851680D01*
X5839560Y-14829580D02*
X5699620Y-14689640D01*
X5839560Y-15096280D02*
X5839560Y-14829580D01*
X6461219Y-15486799D02*
X6164680Y-15190260D01*
X6159600Y-13833900D02*
X6248500Y-13722140D01*
X6164680Y-15190260D02*
X5933540Y-15190260D01*
G04 #@! TO.N,!TX_AMP_PWR*
X12771500Y-14894470D02*
X12585569Y-15080401D01*
X7393238Y-15210540D02*
X6975194Y-14792496D01*
X6975194Y-14792496D02*
X6975194Y-14507254D01*
X12585569Y-15080401D02*
X12086210Y-15080401D01*
X10954359Y-15210540D02*
X7393238Y-15210540D01*
X11822052Y-15344558D02*
X11088377Y-15344558D01*
X12771500Y-13941210D02*
X12771500Y-14894470D01*
X11088377Y-15344558D02*
X10954359Y-15210540D01*
X12086210Y-15080401D02*
X11822052Y-15344558D01*
X6764120Y-14082820D02*
X6764120Y-14296180D01*
X6975194Y-14507254D02*
X6764120Y-14296180D01*
X12823570Y-13889140D02*
X12771500Y-13941210D01*
G04 #@! TO.N,!VAA_ENABLE*
X7549260Y-8611020D02*
X7549260Y-8740560D01*
X7630541Y-8529739D02*
X7549260Y-8611020D01*
X10866888Y-8529739D02*
X11495913Y-9158765D01*
X11495913Y-9158765D02*
X11495913Y-9525420D01*
X11709273Y-9738779D02*
X12644998Y-9738779D01*
X13431900Y-10460140D02*
X13381100Y-10409340D01*
X13381100Y-10409340D02*
X13315559Y-10409340D01*
X13315559Y-10409340D02*
X12644998Y-9738779D01*
X11495913Y-9525420D02*
X11709273Y-9738779D01*
X7630541Y-8529739D02*
X10866888Y-8529739D01*
D28*
G04 #@! TO.N,+1.8V*
X12883260Y-9502560D02*
X12756260Y-9629560D01*
X12756260Y-9629560D02*
X11752960Y-9629560D01*
D29*
X11252580Y-10566820D02*
X11252060Y-10566820D01*
D28*
X11252060Y-10566820D02*
X11252060Y-9759700D01*
X10754220Y-9261860D02*
X10591660Y-9261860D01*
X13391260Y-9502560D02*
X12883260Y-9502560D01*
X11252060Y-9759700D02*
X10754220Y-9261860D01*
D27*
G04 #@! TO.N,/frontend/!ANT_BIAS*
X7617560Y-14260620D02*
X7617560Y-14309113D01*
X7617560Y-14309113D02*
X7617560Y-15096280D01*
D29*
G04 #@! TO.N,/frontend/REF_IN*
X8908799Y-14491759D02*
X8666860Y-14249820D01*
X10833480Y-14567320D02*
X10757919Y-14491759D01*
X10757919Y-14491759D02*
X8908799Y-14491759D01*
X7663560Y-14005980D02*
X7663560Y-13907000D01*
X7907400Y-14249820D02*
X7663560Y-14005980D01*
X7663560Y-13907000D02*
X7708760Y-13861800D01*
X8666860Y-14249820D02*
X7907400Y-14249820D01*
D27*
G04 #@! TO.N,/mcu/usb/power/B2AUX3*
X13137260Y-9106320D02*
X13099161Y-9144419D01*
X13099161Y-9144419D02*
X12599789Y-9144419D01*
X12508349Y-9052979D02*
X12023731Y-9052979D01*
X12023731Y-9052979D02*
X11845931Y-9230780D01*
X11845931Y-9230780D02*
X11702160Y-9230780D01*
X11702160Y-9230780D02*
X11608180Y-9324760D01*
X12599789Y-9144419D02*
X12508349Y-9052979D01*
X13137260Y-8994560D02*
X13137260Y-9106320D01*
G04 #@! TO.N,/mcu/usb/power/B2AUX4*
X13266800Y-8870100D02*
X13266800Y-9119019D01*
X13266800Y-9119019D02*
X13205840Y-9179979D01*
X13205840Y-9179979D02*
X12585059Y-9179979D01*
X11686920Y-9436520D02*
X11735180Y-9484780D01*
X12493619Y-9088540D02*
X12038461Y-9088540D01*
X12038461Y-9088540D02*
X11860660Y-9266340D01*
X11860660Y-9266340D02*
X11735180Y-9266340D01*
X11735180Y-9266340D02*
X11686920Y-9314600D01*
X11686920Y-9314600D02*
X11686920Y-9436520D01*
X13137260Y-8740560D02*
X13266800Y-8870100D01*
X12585059Y-9179979D02*
X12493619Y-9088540D01*
G04 #@! TO.N,/mcu/usb/power/B2AUX5*
X13391260Y-9116480D02*
X13292200Y-9215540D01*
X13292200Y-9215540D02*
X12570329Y-9215540D01*
X12478890Y-9124100D02*
X12053190Y-9124100D01*
X12053190Y-9124100D02*
X11839830Y-9337460D01*
X11839830Y-9337460D02*
X11758040Y-9337460D01*
X13391260Y-9116480D02*
X13391260Y-8994560D01*
X12570329Y-9215540D02*
X12478890Y-9124100D01*
G04 #@! TO.N,/mcu/usb/power/B2AUX6*
X13518260Y-8867560D02*
X13518260Y-9119020D01*
X13518260Y-9119020D02*
X13386180Y-9251100D01*
X13386180Y-9251100D02*
X12555600Y-9251100D01*
X12464160Y-9159660D02*
X12067920Y-9159660D01*
X12067920Y-9159660D02*
X11808840Y-9418740D01*
X13518260Y-8867560D02*
X13391260Y-8740560D01*
X12555600Y-9251100D02*
X12464160Y-9159660D01*
G04 #@! TO.N,/mcu/usb/power/B2AUX7*
X13645260Y-9134260D02*
X13492860Y-9286660D01*
X13492860Y-9286660D02*
X12550520Y-9286660D01*
X12550520Y-9286660D02*
X12334620Y-9502560D01*
X12334620Y-9502560D02*
X11857100Y-9502560D01*
X13645260Y-9134260D02*
X13645260Y-8994560D01*
G04 #@! TO.N,/mcu/usb/power/BANK2F3M12*
X11288140Y-11209440D02*
X11288140Y-10937150D01*
X11288140Y-10937150D02*
X10871580Y-10520590D01*
X10871580Y-10520590D02*
X10871580Y-10356000D01*
X10871580Y-10356000D02*
X10909680Y-10317900D01*
X10978260Y-10317900D02*
X11084940Y-10424580D01*
X10909680Y-10317900D02*
X10978260Y-10317900D01*
X11359260Y-11280560D02*
X11288140Y-11209440D01*
G04 #@! TO.N,/mcu/usb/power/BANK2F3M2*
X10930000Y-11613300D02*
X10930000Y-11149120D01*
X10930000Y-11149120D02*
X10528316Y-10514580D01*
X10528316Y-10514580D02*
X10529952Y-10243372D01*
X11105260Y-11788560D02*
X10930000Y-11613300D01*
X10640844Y-10132480D02*
X11084940Y-10132480D01*
X10529952Y-10243372D02*
X10640844Y-10132480D01*
G04 #@! TO.N,/mcu/usb/power/BANK2F3M4*
X11217020Y-10966609D02*
X10800460Y-10550049D01*
X10895460Y-10231540D02*
X11090020Y-10231540D01*
X11217020Y-11168800D02*
X11105260Y-11280560D01*
X11217020Y-10966609D02*
X11217020Y-11168800D01*
X10800460Y-10550049D02*
X10800460Y-10326541D01*
X10800460Y-10326541D02*
X10895460Y-10231540D01*
G04 #@! TO.N,/mcu/usb/power/BANK2F3M6*
X11252580Y-10951879D02*
X10836020Y-10535319D01*
X10836020Y-10535319D02*
X10836020Y-10341270D01*
X10894950Y-10282340D02*
X11041760Y-10282340D01*
X11041760Y-10282340D02*
X11087480Y-10328060D01*
X11252580Y-11387240D02*
X11252580Y-10951879D01*
X10836020Y-10341270D02*
X10894950Y-10282340D01*
X11105260Y-11534560D02*
X11252580Y-11387240D01*
G04 #@! TO.N,/mcu/usb/power/CPLD_TCK*
X10965560Y-11592470D02*
X11047350Y-11674260D01*
X11047350Y-11674260D02*
X11244960Y-11674260D01*
X11244960Y-11674260D02*
X11359260Y-11788560D01*
X10965560Y-11031640D02*
X10993500Y-11003700D01*
X10993500Y-10843669D02*
X10729339Y-10579508D01*
X10729339Y-10579508D02*
X10729339Y-10533799D01*
X10729339Y-10533799D02*
X10625200Y-10429660D01*
X11829160Y-11803800D02*
X11374500Y-11803800D01*
X11374500Y-11803800D02*
X11359260Y-11788560D01*
X10965560Y-11592470D02*
X10965560Y-11031640D01*
X10993500Y-11003700D02*
X10993500Y-10843669D01*
G04 #@! TO.N,/mcu/usb/power/CPLD_TDI*
X11062080Y-11638700D02*
X11001120Y-11577740D01*
X11255120Y-11638700D02*
X11359260Y-11534560D01*
X11001120Y-11046370D02*
X11029060Y-11018430D01*
X11029060Y-11018430D02*
X11029060Y-10828939D01*
X11029060Y-10828939D02*
X10764899Y-10564779D01*
X10764899Y-10564779D02*
X10764899Y-10427119D01*
X10764899Y-10427119D02*
X10615040Y-10277260D01*
X11793600Y-11714900D02*
X11539600Y-11714900D01*
X11539600Y-11714900D02*
X11359260Y-11534560D01*
X11001120Y-11577740D02*
X11001120Y-11046370D01*
X11062080Y-11638700D02*
X11255120Y-11638700D01*
G04 #@! TO.N,/mcu/usb/power/CPLD_TDO*
X12512420Y-11178960D02*
X12339700Y-11351680D01*
X12339700Y-11351680D02*
X12187300Y-11351680D01*
X12187300Y-11351680D02*
X12121260Y-11417720D01*
X12121260Y-11417720D02*
X12121260Y-11534560D01*
X12512420Y-10216300D02*
X12512420Y-11178960D01*
G04 #@! TO.N,/mcu/usb/power/CPLD_TMS*
X12997040Y-12406380D02*
X12997040Y-12365740D01*
X12997040Y-12365740D02*
X13085940Y-12276840D01*
X11417680Y-10960520D02*
X11361800Y-10960520D01*
X11361800Y-10960520D02*
X11122520Y-10721240D01*
X11122520Y-10568840D02*
X10937620Y-10383940D01*
X11867260Y-11410100D02*
X11867260Y-11534560D01*
X11122520Y-10721240D02*
X11122520Y-10568840D01*
X11417680Y-10960520D02*
X11867260Y-11410100D01*
X12849720Y-12553700D02*
X12997040Y-12406380D01*
G04 #@! TO.N,/mcu/usb/power/EN1V8*
X14165960Y-9240940D02*
X14023720Y-9098700D01*
X14023720Y-9098700D02*
X14023720Y-8616100D01*
X15291180Y-9240940D02*
X15390760Y-9340520D01*
X15390760Y-9484180D02*
X15390760Y-9340520D01*
X13929484Y-8521864D02*
X14023720Y-8616100D01*
X11822704Y-8521864D02*
X11615280Y-8314440D01*
X11615280Y-8314440D02*
X11353660Y-8314440D01*
X11353660Y-8314440D02*
X11209481Y-8458619D01*
X7323200Y-8494180D02*
X7407020Y-8410360D01*
X7407020Y-8410360D02*
X7536561Y-8410360D01*
X7536561Y-8410360D02*
X7584820Y-8458619D01*
X7584820Y-8458619D02*
X11209481Y-8458619D01*
X14165960Y-9240940D02*
X15291180Y-9240940D01*
X14222856Y-11379112D02*
X14417166Y-11184802D01*
X14762260Y-10669530D02*
X14762260Y-10112680D01*
X14417166Y-11184802D02*
X14417166Y-11014624D01*
X14417166Y-11014624D02*
X14762260Y-10669530D01*
X7323200Y-8583080D02*
X7323200Y-8494180D01*
X13518260Y-13157110D02*
X14222856Y-12452514D01*
X14222856Y-12452514D02*
X14222856Y-11379112D01*
X13518260Y-13208420D02*
X13518260Y-13157110D01*
X13472540Y-13254140D02*
X13518260Y-13208420D01*
X14762260Y-10112680D02*
X15390760Y-9484180D01*
X13929484Y-8521864D02*
X11822704Y-8521864D01*
G04 #@! TO.N,/mcu/usb/power/GCK0*
X11603100Y-9423820D02*
X11531474Y-9352194D01*
X11531474Y-9352194D02*
X11531474Y-9119606D01*
X11531474Y-9119606D02*
X12058095Y-8592985D01*
X12058095Y-8592985D02*
X12481685Y-8592985D01*
X12481685Y-8592985D02*
X12629260Y-8740560D01*
G04 #@! TO.N,/mcu/usb/power/GPIO3_10*
X15811360Y-12906760D02*
X15780880Y-12876280D01*
X15780880Y-12876280D02*
X15748980Y-12876280D01*
X15748980Y-12876280D02*
X15188121Y-12315421D01*
X14895446Y-12268724D02*
X14952920Y-12268724D01*
X15811360Y-12972800D02*
X15811360Y-12906760D01*
X14952920Y-12268724D02*
X14999617Y-12315421D01*
X14999617Y-12315421D02*
X15188121Y-12315421D01*
G04 #@! TO.N,/mcu/usb/power/GPIO3_11*
X15745840Y-13000140D02*
X15745840Y-12923430D01*
X15745840Y-12923430D02*
X15179140Y-12356730D01*
X15179140Y-12356730D02*
X14922387Y-12356730D01*
X15804260Y-13058560D02*
X15745840Y-13000140D01*
X15931260Y-13058560D02*
X15804260Y-13058560D01*
G04 #@! TO.N,/mcu/usb/power/GPIO3_8*
X14755098Y-12471678D02*
X14679040Y-12395620D01*
X15643720Y-12921889D02*
X15643720Y-13188700D01*
X15193508Y-12471678D02*
X14755098Y-12471678D01*
X15193508Y-12471678D02*
X15643720Y-12921889D01*
G04 #@! TO.N,/mcu/usb/power/GPIO3_9*
X15202489Y-12430368D02*
X15710280Y-12938159D01*
X15710280Y-12938159D02*
X15710280Y-13218580D01*
X15710280Y-13218580D02*
X15804260Y-13312560D01*
X14888262Y-12430368D02*
X15202489Y-12430368D01*
X15931260Y-13312560D02*
X15804260Y-13312560D01*
X14784091Y-12336974D02*
X14794868Y-12336974D01*
X14794868Y-12336974D02*
X14888262Y-12430368D01*
D29*
G04 #@! TO.N,/mcu/usb/power/GP_CLKIN*
X11260200Y-13972960D02*
X11821540Y-13972960D01*
X11821540Y-13972960D02*
X11935840Y-13858660D01*
X14260956Y-12125364D02*
X14260956Y-12468295D01*
X14260956Y-12468295D02*
X13556360Y-13172891D01*
X13556360Y-13172891D02*
X13556360Y-13261760D01*
X12502260Y-13858660D02*
X12728320Y-13632600D01*
X12728320Y-13632600D02*
X13185520Y-13632600D01*
X13185520Y-13632600D02*
X13556360Y-13261760D01*
X11211940Y-14021220D02*
X11260200Y-13972960D01*
X11935840Y-13858660D02*
X12502260Y-13858660D01*
X14640940Y-11745380D02*
X14260956Y-12125364D01*
D27*
G04 #@! TO.N,/mcu/usb/power/I2C1_SCL*
X15255620Y-14496200D02*
X15255620Y-13932320D01*
X15255620Y-13932320D02*
X14404720Y-13081420D01*
X14404720Y-13081420D02*
X14404720Y-13028080D01*
X14226920Y-12850280D02*
X14168500Y-12850280D01*
X13383640Y-12451500D02*
X13101700Y-12733440D01*
X14404720Y-13028080D02*
X14226920Y-12850280D01*
X15169260Y-14582560D02*
X15255620Y-14496200D01*
G04 #@! TO.N,/mcu/usb/power/I2C1_SDA*
X15291180Y-14714640D02*
X15291180Y-13917590D01*
X15291180Y-13917590D02*
X14440280Y-13066690D01*
X14440280Y-13066690D02*
X14440280Y-13013350D01*
X14252320Y-12825390D02*
X14252320Y-12761380D01*
X13015340Y-12725820D02*
X13391260Y-12349900D01*
X14440280Y-13013350D02*
X14252320Y-12825390D01*
X15169260Y-14836560D02*
X15291180Y-14714640D01*
G04 #@! TO.N,/mcu/usb/power/I2S0_RX_SCK*
X14452460Y-13752580D02*
X14452460Y-13938000D01*
X14280260Y-14110200D02*
X14280260Y-14709560D01*
X14407260Y-14836560D02*
X14280260Y-14709560D01*
X14574900Y-13721500D02*
X14483540Y-13721500D01*
X14483540Y-13721500D02*
X14452460Y-13752580D01*
X14452460Y-13938000D02*
X14280260Y-14110200D01*
G04 #@! TO.N,/mcu/usb/power/I2S0_RX_SDA*
X14405124Y-13703720D02*
X14405124Y-13585229D01*
X14173580Y-13935264D02*
X14173580Y-14562240D01*
X14173580Y-14562240D02*
X14153260Y-14582560D01*
X14405124Y-13585229D02*
X14318914Y-13499019D01*
X14405124Y-13703720D02*
X14173580Y-13935264D01*
G04 #@! TO.N,/mcu/usb/power/I2S0_RX_WS*
X14363815Y-13690774D02*
X14064360Y-13990230D01*
X14064360Y-13990230D02*
X14064360Y-14178700D01*
X14259940Y-13576720D02*
X14328520Y-13576720D01*
X14328520Y-13576720D02*
X14363815Y-13612015D01*
X14363815Y-13612015D02*
X14363815Y-13690774D01*
G04 #@! TO.N,/mcu/usb/power/I2S0_TX_SCK*
X14003400Y-14000900D02*
X14003400Y-14732420D01*
X14003400Y-14732420D02*
X13899260Y-14836560D01*
X14303120Y-13650380D02*
X14248510Y-13704990D01*
X14248510Y-13704990D02*
X14248510Y-13755790D01*
X14248510Y-13755790D02*
X14003400Y-14000900D01*
G04 #@! TO.N,/mcu/usb/power/LED1*
X14044040Y-11644795D02*
X14075535Y-11613300D01*
X14075535Y-11320185D02*
X14075535Y-11613300D01*
X11389233Y-9202954D02*
X10822699Y-8636420D01*
X10822699Y-8636420D02*
X7907400Y-8636420D01*
X11664703Y-9845460D02*
X12600810Y-9845460D01*
X12600810Y-9845460D02*
X14075535Y-11320185D01*
X11389233Y-9569990D02*
X11389233Y-9202954D01*
X11389233Y-9569990D02*
X11664703Y-9845460D01*
X14044040Y-11712360D02*
X14044040Y-11644795D01*
X7803260Y-8740560D02*
X7907400Y-8636420D01*
G04 #@! TO.N,/mcu/usb/power/LED2*
X11649973Y-9881020D02*
X11353673Y-9584719D01*
X14013560Y-11570120D02*
X14013560Y-11487315D01*
X14013560Y-11487315D02*
X14039975Y-11460900D01*
X14039975Y-11334915D02*
X12586080Y-9881020D01*
X12586080Y-9881020D02*
X11649973Y-9881020D01*
X8181720Y-8867560D02*
X7930260Y-8867560D01*
X7930260Y-8867560D02*
X7803260Y-8994560D01*
X8377300Y-8671980D02*
X8181720Y-8867560D01*
X11353673Y-9217683D02*
X10807970Y-8671980D01*
X10807970Y-8671980D02*
X8377300Y-8671980D01*
X7467980Y-9218080D02*
X7579740Y-9218080D01*
X7579740Y-9218080D02*
X7803260Y-8994560D01*
X14039975Y-11460900D02*
X14039975Y-11334915D01*
X11353673Y-9584719D02*
X11353673Y-9217683D01*
G04 #@! TO.N,/mcu/usb/power/LED3*
X13160120Y-13556400D02*
X13160120Y-13414670D01*
X13160120Y-13414670D02*
X13297280Y-13277510D01*
X13297280Y-13277510D02*
X13297280Y-13114440D01*
X13297280Y-13114440D02*
X13357985Y-13053735D01*
X13357985Y-13053735D02*
X13470765Y-13053735D01*
X13470765Y-13053735D02*
X14111095Y-12413405D01*
X7696580Y-8677060D02*
X7696580Y-8847240D01*
X7696580Y-8847240D02*
X7549260Y-8994560D01*
X7772780Y-8600860D02*
X7696580Y-8677060D01*
X11424793Y-9188224D02*
X10837429Y-8600860D01*
X10837429Y-8600860D02*
X7772780Y-8600860D01*
X12615539Y-9809900D02*
X11679432Y-9809900D01*
X11679432Y-9809900D02*
X11424793Y-9555260D01*
X11424793Y-9555260D02*
X11424793Y-9188224D01*
X14111095Y-11305456D02*
X12615539Y-9809900D01*
X14111095Y-12413405D02*
X14111095Y-11305456D01*
G04 #@! TO.N,/mcu/usb/power/P2_8*
X13365860Y-13139840D02*
X13416405Y-13089295D01*
X13416405Y-13089295D02*
X13485495Y-13089295D01*
X13485495Y-13089295D02*
X14146656Y-12428135D01*
X12883260Y-14582560D02*
X12992480Y-14473340D01*
X7661020Y-8662330D02*
X7661020Y-8832510D01*
X7661020Y-8832510D02*
X7625970Y-8867560D01*
X7758051Y-8565300D02*
X7661020Y-8662330D01*
X12763880Y-13819290D02*
X12768960Y-13824370D01*
X12768960Y-13824370D02*
X12913740Y-13824370D01*
X12913740Y-13824370D02*
X12992480Y-13903110D01*
X12992480Y-13903110D02*
X12992480Y-14473340D01*
X11460353Y-9173494D02*
X10852158Y-8565300D01*
X10852158Y-8565300D02*
X7758051Y-8565300D01*
X11694162Y-9774339D02*
X12630269Y-9774339D01*
X12630269Y-9774339D02*
X14146656Y-11290726D01*
X11460353Y-9540531D02*
X11460353Y-9173494D01*
X7625970Y-8867560D02*
X7236840Y-8867560D01*
X11460353Y-9540531D02*
X11694162Y-9774339D01*
X14146656Y-12428135D02*
X14146656Y-11290726D01*
G04 #@! TO.N,/mcu/usb/power/RESET*
X13961640Y-10394100D02*
X13894180Y-10394100D01*
X13894180Y-10394100D02*
X13762100Y-10526180D01*
X13762100Y-10526180D02*
X13762100Y-10607415D01*
X13762100Y-10607415D02*
X13661559Y-10707955D01*
X13899260Y-13023000D02*
X13899260Y-14074560D01*
X13894180Y-9286660D02*
X13774800Y-9167280D01*
X13774800Y-9167280D02*
X13774800Y-8644040D01*
X14653640Y-12822340D02*
X14653640Y-13167780D01*
X14653640Y-13167780D02*
X14905100Y-13419240D01*
X14905100Y-13419240D02*
X15116430Y-13419240D01*
X15116430Y-13419240D02*
X15550260Y-13853070D01*
X15550260Y-14455560D02*
X15423260Y-14582560D01*
X14470760Y-12639460D02*
X14600300Y-12769000D01*
X13688184Y-8557424D02*
X12043366Y-8557424D01*
X12043366Y-8557424D02*
X11621369Y-8979421D01*
X11621369Y-8979421D02*
X11366859Y-8979421D01*
X11366859Y-8979421D02*
X10881618Y-8494179D01*
X14261880Y-12693400D02*
X14228860Y-12693400D01*
X14228860Y-12693400D02*
X13899260Y-13023000D01*
X7495921Y-8494179D02*
X7495920Y-8494180D01*
X14600300Y-12769000D02*
X14653640Y-12822340D01*
X15550260Y-13853070D02*
X15550260Y-14455560D01*
X14315820Y-12639460D02*
X14470760Y-12639460D01*
X10881618Y-8494179D02*
X7495921Y-8494179D01*
X14315820Y-12639460D02*
X14261880Y-12693400D01*
X13894180Y-10394100D02*
X13894180Y-9286660D01*
X14175520Y-10180220D02*
X13961640Y-10394100D01*
X13774800Y-8644040D02*
X13688184Y-8557424D01*
G04 #@! TO.N,/mcu/usb/power/SD_CD*
X13189194Y-11954794D02*
X13195680Y-11961280D01*
X12542380Y-12535568D02*
X12542380Y-12708640D01*
X12542380Y-12708640D02*
X12179160Y-13071860D01*
X12179160Y-13071860D02*
X11772680Y-13071860D01*
X11772680Y-13071860D02*
X11633580Y-13210960D01*
X13123154Y-11954794D02*
X12542380Y-12535568D01*
X13123154Y-11954794D02*
X13189194Y-11954794D01*
G04 #@! TO.N,/mcu/usb/power/SD_CLK*
X13488540Y-11237380D02*
X13548740Y-11237380D01*
X11320640Y-12185400D02*
X11231740Y-12274300D01*
X11231740Y-12274300D02*
X11231740Y-12423040D01*
X11231740Y-12423040D02*
X11359260Y-12550560D01*
X11566021Y-12185400D02*
X11708861Y-12042560D01*
X11708861Y-12042560D02*
X12683360Y-12042560D01*
X11320640Y-12185400D02*
X11566021Y-12185400D01*
X12683360Y-12042560D02*
X13488540Y-11237380D01*
G04 #@! TO.N,/mcu/usb/power/SD_CMD*
X13363570Y-11412640D02*
X13424280Y-11412640D01*
X11462840Y-12338871D02*
X11723591Y-12078120D01*
X11723591Y-12078120D02*
X12698089Y-12078120D01*
X11462840Y-12594300D02*
X11462840Y-12338871D01*
X11359260Y-12697880D02*
X11462840Y-12594300D01*
X11359260Y-12697880D02*
X11359260Y-12804560D01*
X12698089Y-12078120D02*
X13363570Y-11412640D01*
G04 #@! TO.N,/mcu/usb/power/SD_DAT0*
X13393800Y-11595520D02*
X13281269Y-11595520D01*
X13281269Y-11595520D02*
X12727548Y-12149241D01*
X11359260Y-13058560D02*
X11534000Y-12883820D01*
X11534000Y-12368291D02*
X11753050Y-12149241D01*
X11753050Y-12149241D02*
X12727548Y-12149241D01*
X11534000Y-12883820D02*
X11534000Y-12368291D01*
G04 #@! TO.N,/mcu/usb/power/SD_DAT1*
X12771737Y-12255921D02*
X13186395Y-11841264D01*
X13442060Y-11717440D02*
X13318236Y-11841264D01*
X13318236Y-11841264D02*
X13186395Y-11841264D01*
X11640681Y-13079399D02*
X11598020Y-13122060D01*
X11797239Y-12255921D02*
X11640681Y-12412479D01*
X11640681Y-12412479D02*
X11640681Y-13079399D01*
X12771737Y-12255921D02*
X11797239Y-12255921D01*
G04 #@! TO.N,/mcu/usb/power/SD_DAT2*
X13204355Y-11773014D02*
X12757008Y-12220361D01*
X11529440Y-13083960D02*
X11529440Y-13188100D01*
X11605121Y-13008279D02*
X11529440Y-13083960D01*
X11605121Y-12397750D02*
X11782509Y-12220361D01*
X11782509Y-12220361D02*
X12757008Y-12220361D01*
X11605121Y-13008279D02*
X11605121Y-12397750D01*
X13300553Y-11773014D02*
X13204355Y-11773014D01*
G04 #@! TO.N,/mcu/usb/power/SD_DAT3*
X13391260Y-11867300D02*
X13235895Y-12022665D01*
X13235895Y-12022665D02*
X13105573Y-12022665D01*
X12193890Y-13107420D02*
X12577940Y-12723370D01*
X12577940Y-12723370D02*
X12577940Y-12550298D01*
X12577940Y-12550298D02*
X13105573Y-12022665D01*
X11633660Y-13322720D02*
X11848960Y-13107420D01*
X11848960Y-13107420D02*
X12193890Y-13107420D01*
X11567540Y-13322720D02*
X11633660Y-13322720D01*
G04 #@! TO.N,/mcu/usb/power/SD_POW*
X11217020Y-12916320D02*
X11399900Y-12916320D01*
X13347819Y-11478680D02*
X13503020Y-11478680D01*
X11498440Y-12817780D02*
X11399900Y-12916320D01*
X11738321Y-12113681D02*
X11498440Y-12353561D01*
X11498440Y-12353561D02*
X11498440Y-12817780D01*
X12712819Y-12113681D02*
X11738321Y-12113681D01*
X12712819Y-12113681D02*
X13347819Y-11478680D01*
X11105260Y-12804560D02*
X11217020Y-12916320D01*
G04 #@! TO.N,/mcu/usb/power/SD_VOLT0*
X13477620Y-11656480D02*
X13528420Y-11707280D01*
X11569561Y-12944779D02*
X11491340Y-13023000D01*
X11767780Y-12184801D02*
X11569561Y-12383020D01*
X11569561Y-12383020D02*
X11569561Y-12944779D01*
X13270599Y-11656480D02*
X13477620Y-11656480D01*
X12742278Y-12184801D02*
X13270599Y-11656480D01*
X12742278Y-12184801D02*
X11767780Y-12184801D01*
G04 #@! TO.N,/mcu/usb/power/SGPIO13*
X13746860Y-10157880D02*
X13746860Y-10444900D01*
X13391260Y-9802280D02*
X13746860Y-10157880D01*
G04 #@! TO.N,/mcu/usb/power/SGPIO9*
X13289660Y-9693060D02*
X13289660Y-9799740D01*
X13678280Y-10526180D02*
X13678280Y-10353460D01*
X13678280Y-10353460D02*
X13459840Y-10135020D01*
X13459840Y-10135020D02*
X13299820Y-10135020D01*
X13299820Y-10135020D02*
X13251560Y-10086760D01*
X13251560Y-10086760D02*
X13251560Y-9837840D01*
X13251560Y-9837840D02*
X13289660Y-9799740D01*
G04 #@! TO.N,/mcu/usb/power/SPIFI_MISO*
X14325460Y-13074400D02*
X14325460Y-13272520D01*
X14325460Y-13272520D02*
X15003640Y-13950700D01*
X15003640Y-13950700D02*
X15112860Y-13950700D01*
G04 #@! TO.N,/mcu/usb/power/SPIFI_SIO2*
X14673960Y-13731660D02*
X14969200Y-14026900D01*
X14969200Y-14026900D02*
X15181440Y-14026900D01*
G04 #@! TO.N,/mcu/usb/power/SPIFI_SIO3*
X14536800Y-13810400D02*
X14488020Y-13859180D01*
X14488020Y-13859180D02*
X14488020Y-14082780D01*
X14488020Y-14082780D02*
X14419440Y-14151360D01*
G04 #@! TO.N,/mcu/usb/power/TCK*
X14396500Y-9903360D02*
X14292360Y-9799220D01*
X14292360Y-9799220D02*
X14175520Y-9799220D01*
G04 #@! TO.N,/mcu/usb/power/TDI*
X14577440Y-10127400D02*
X14249700Y-10127400D01*
X14249700Y-10127400D02*
X14175520Y-10053220D01*
X14651100Y-10201060D02*
X14577440Y-10127400D01*
G04 #@! TO.N,/mcu/usb/power/TDO*
X14315300Y-9926220D02*
X14397100Y-10008020D01*
X14315300Y-9926220D02*
X14175520Y-9926220D01*
G04 #@! TO.N,/mcu/usb/power/U0_RXD*
X13391260Y-14074560D02*
X13391260Y-14582560D01*
G04 #@! TO.N,/mcu/usb/power/VBAT*
X15715960Y-13968480D02*
X15717380Y-13968480D01*
X14869328Y-13121848D02*
X15715960Y-13968480D01*
X14721229Y-13121848D02*
X14869328Y-13121848D01*
D30*
G04 #@! TO.N,/mcu/usb/power/VBUS*
X15642260Y-10325560D02*
X15897260Y-10325560D01*
X15932260Y-10360560D02*
X15942260Y-10370560D01*
X15942260Y-11015560D02*
X16185260Y-11258560D01*
X15942260Y-10370560D02*
X15942260Y-11015560D01*
D31*
X15931064Y-10824365D02*
X15928492Y-10824365D01*
X15928492Y-10824365D02*
X15932260Y-10820597D01*
D30*
X15897260Y-10325560D02*
X15932260Y-10360560D01*
X16185260Y-11258560D02*
X16185260Y-11280560D01*
D27*
G04 #@! TO.N,/mcu/usb/power/VBUSCTRL*
X15852260Y-11665560D02*
X16062260Y-11665560D01*
X15522260Y-11335560D02*
X15852260Y-11665560D01*
X15352260Y-11335560D02*
X15522260Y-11335560D01*
X16062260Y-11665560D02*
X16185260Y-11788560D01*
X14852260Y-10835560D02*
X15352260Y-11335560D01*
D30*
G04 #@! TO.N,/mcu/usb/power/VIN*
X15992260Y-9965560D02*
X16196196Y-9965560D01*
X16490568Y-9671188D02*
X16490568Y-9337714D01*
X15052260Y-10355560D02*
X15262260Y-10145560D01*
X15812260Y-10145560D02*
X15992260Y-9965560D01*
X15262260Y-10145560D02*
X15812260Y-10145560D01*
X15931260Y-11234560D02*
X15931260Y-11280560D01*
X15052260Y-10355560D02*
X15931260Y-11234560D01*
X16196196Y-9965560D02*
X16490568Y-9671188D01*
D27*
G04 #@! TO.N,/mcu/usb/power/VREGMODE*
X14677770Y-10635560D02*
X14677770Y-10703730D01*
X13244875Y-13380205D02*
X13244875Y-13459506D01*
X14677770Y-10703730D02*
X14376526Y-11004975D01*
X14182216Y-12442864D02*
X13244875Y-13380205D01*
X14182216Y-11362278D02*
X14182216Y-12442864D01*
X14376526Y-11167968D02*
X14182216Y-11362278D01*
X14376526Y-11004975D02*
X14376526Y-11167968D01*
G04 #@! TO.N,AMP_BYPASS*
X10819161Y-15355319D02*
X10758802Y-15415679D01*
X7243539Y-15415679D02*
X7173060Y-15345200D01*
X6621880Y-13336060D02*
X6639660Y-13399760D01*
X10758802Y-15415679D02*
X7243539Y-15415679D01*
X10998559Y-15355319D02*
X10819161Y-15355319D01*
X6426300Y-13905020D02*
X6639660Y-14118380D01*
X11058918Y-15415679D02*
X10998559Y-15355319D01*
X6639660Y-13816120D02*
X6550760Y-13905020D01*
X6877148Y-14882087D02*
X6877148Y-14640348D01*
X13579220Y-13665620D02*
X13579220Y-13881520D01*
X13058521Y-15415679D02*
X11058918Y-15415679D01*
X13536040Y-14938160D02*
X13058521Y-15415679D01*
X6877148Y-14640348D02*
X6639660Y-14402860D01*
X13536040Y-13924700D02*
X13536040Y-14938160D01*
X13579220Y-13881520D02*
X13536040Y-13924700D01*
X7173060Y-15177999D02*
X6877148Y-14882087D01*
X6550760Y-13905020D02*
X6426300Y-13905020D01*
X13431900Y-13617360D02*
X13530960Y-13617360D01*
X13530960Y-13617360D02*
X13579220Y-13665620D01*
X6639660Y-13399760D02*
X6639660Y-13816120D01*
X6639660Y-14118380D02*
X6639660Y-14402860D01*
X7173060Y-15345200D02*
X7173060Y-15177999D01*
D29*
G04 #@! TO.N,CLK6*
X11303380Y-14333640D02*
X11303380Y-14239660D01*
X11303380Y-14239660D02*
X11471020Y-14072020D01*
X11471020Y-14072020D02*
X11808840Y-14072020D01*
X11808840Y-14072020D02*
X11862180Y-14125360D01*
X11862180Y-14125360D02*
X11930760Y-14125360D01*
X11930760Y-14125360D02*
X12014580Y-14041540D01*
X12014580Y-14041540D02*
X12344780Y-14041540D01*
X12344780Y-14041540D02*
X12608940Y-14305700D01*
X12608940Y-14305700D02*
X12608940Y-14386980D01*
X12608940Y-14386980D02*
X12629260Y-14407300D01*
X12629260Y-14407300D02*
X12629260Y-14582560D01*
D27*
G04 #@! TO.N,CS_AD*
X8667282Y-9125030D02*
X8611488Y-9069236D01*
X8611488Y-9069236D02*
X8611488Y-8922932D01*
X11318112Y-9599449D02*
X11412081Y-9693417D01*
X11412081Y-9693417D02*
X11412081Y-10635647D01*
X8826880Y-8707540D02*
X8611488Y-8922932D01*
X12023974Y-11247540D02*
X11412081Y-10635647D01*
X10793240Y-8707540D02*
X11318112Y-9232413D01*
X11318112Y-9232413D02*
X11318112Y-9599449D01*
X12103480Y-11247540D02*
X12023974Y-11247540D01*
X8826880Y-8707540D02*
X10793240Y-8707540D01*
X8728570Y-9125030D02*
X8667282Y-9125030D01*
G04 #@! TO.N,CS_XCVR*
X10429100Y-11850120D02*
X10515460Y-11850120D01*
X10515460Y-11850120D02*
X10545940Y-11819640D01*
X10545940Y-11819640D02*
X10797910Y-11819640D01*
X10797910Y-11819640D02*
X10916690Y-11938420D01*
X10916690Y-11938420D02*
X11887580Y-11938420D01*
D29*
G04 #@! TO.N,GCK1*
X9327260Y-10015640D02*
X9207700Y-10015640D01*
X9127350Y-9935290D02*
X9207700Y-10015640D01*
X9548240Y-10236620D02*
X9327260Y-10015640D01*
G04 #@! TO.N,GCK2*
X10591660Y-9461400D02*
X10591660Y-9383780D01*
X11160620Y-10030360D02*
X10591660Y-9461400D01*
X11387200Y-10886860D02*
X11160620Y-10660280D01*
X11160620Y-10660280D02*
X11160620Y-10030360D01*
D32*
G04 #@! TO.N,GND*
X5272610Y-14674810D02*
X5193760Y-14674810D01*
D28*
X8034318Y-13891938D02*
X8254282Y-14111902D01*
X9336900Y-9471740D02*
X9006700Y-9471740D01*
X11695474Y-14451866D02*
X11695474Y-14584454D01*
D33*
X15543160Y-9420680D02*
X15835738Y-9420680D01*
D28*
X8034318Y-13891938D02*
X8254282Y-13891938D01*
X9897986Y-12566146D02*
X9596234Y-12264394D01*
X11695474Y-14584454D02*
X11562886Y-14584454D01*
X9006700Y-9636840D02*
X9006700Y-9306640D01*
X15885298Y-9495610D02*
X15785222Y-9495610D01*
X11562886Y-14451866D02*
X11562886Y-14584454D01*
X9006700Y-9306640D02*
X9336900Y-9306640D01*
X9596234Y-12566146D02*
X9596234Y-12264394D01*
X15885298Y-9345750D02*
X15885298Y-9371120D01*
X9897986Y-12264394D02*
X9897986Y-12566146D01*
X15785222Y-9345750D02*
X15885298Y-9345750D01*
X9897986Y-12264394D02*
X9596234Y-12566146D01*
X8254282Y-13891938D02*
X8254282Y-14111902D01*
X11562886Y-14451866D02*
X11695474Y-14451866D01*
X11562886Y-14584454D02*
X11695474Y-14451866D01*
X9596234Y-12264394D02*
X9897986Y-12264394D01*
X8254282Y-13891938D02*
X8034318Y-14111902D01*
X8254282Y-14111902D02*
X8034318Y-14111902D01*
X9336900Y-9636840D02*
X9006700Y-9306640D01*
X15885298Y-9371120D02*
X15885298Y-9495610D01*
X8034318Y-14111902D02*
X8034318Y-13891938D01*
X9336900Y-9306640D02*
X9006700Y-9636840D01*
X15785222Y-9495610D02*
X15785222Y-9345750D01*
D32*
X16052260Y-10920560D02*
X16052260Y-10250560D01*
D33*
X15835738Y-9420680D02*
X15885298Y-9371120D01*
D28*
X9336900Y-9636840D02*
X9006700Y-9636840D01*
X9336900Y-9306640D02*
X9336900Y-9636840D01*
X9897986Y-12566146D02*
X9596234Y-12566146D01*
X9171800Y-9636840D02*
X9171800Y-9306640D01*
D27*
G04 #@! TO.N,HP*
X16324440Y-12490710D02*
X16237570Y-12403840D01*
X6172300Y-11776500D02*
X5849100Y-12099340D01*
X5521819Y-13904358D02*
X5521819Y-15036288D01*
X16324440Y-14614059D02*
X16324440Y-12490710D01*
X5433439Y-12969673D02*
X5433439Y-13815978D01*
X15273899Y-15664600D02*
X16324440Y-14614059D01*
X5521819Y-15036288D02*
X6150131Y-15664600D01*
X7358480Y-12434360D02*
X7449920Y-12345460D01*
X5740780Y-12662332D02*
X5433439Y-12969673D01*
X5433439Y-13815978D02*
X5521819Y-13904358D01*
X6150131Y-15664600D02*
X15273899Y-15664600D01*
X5740780Y-12207660D02*
X5740780Y-12662332D01*
X15527989Y-12403840D02*
X15366860Y-12242711D01*
X16237570Y-12403840D02*
X15527989Y-12403840D01*
X7449920Y-11776500D02*
X6172300Y-11776500D01*
X5849100Y-12099340D02*
X5740780Y-12207660D01*
X7449920Y-12345460D02*
X7449920Y-11776500D01*
X15366860Y-12242711D02*
X15366860Y-12157460D01*
G04 #@! TO.N,LP*
X6241760Y-12292080D02*
X5973860Y-12292080D01*
X5776340Y-12677062D02*
X5468999Y-12984402D01*
X16288880Y-12505440D02*
X16222840Y-12439400D01*
X14871071Y-11948580D02*
X14614531Y-12205120D01*
X5776340Y-12489600D02*
X5776340Y-12677062D01*
X6593940Y-12114320D02*
X6390740Y-12114320D01*
X16288880Y-14599329D02*
X16288880Y-12505440D01*
X15259170Y-15629040D02*
X16288880Y-14599329D01*
X14614531Y-12205120D02*
X14328520Y-12205120D01*
X15022439Y-11948580D02*
X14871071Y-11948580D01*
X15513259Y-12439400D02*
X15022439Y-11948580D01*
X6164860Y-15629040D02*
X15259170Y-15629040D01*
X5468999Y-13801249D02*
X5557379Y-13889629D01*
X16222840Y-12439400D02*
X15513259Y-12439400D01*
X5557379Y-13889629D02*
X5557379Y-15021559D01*
X5468999Y-12984402D02*
X5468999Y-13801249D01*
X6390740Y-12114320D02*
X6241760Y-12292080D01*
X5973860Y-12292080D02*
X5776340Y-12489600D01*
X5557379Y-15021559D02*
X6164860Y-15629040D01*
G04 #@! TO.N,MIXER_ENX*
X8595220Y-13811000D02*
X8631980Y-13774240D01*
X8631980Y-13774240D02*
X8631980Y-13514240D01*
X8705380Y-13481220D02*
X8598960Y-13481220D01*
X9695320Y-13633200D02*
X9662261Y-13666259D01*
X13218540Y-13040780D02*
X13132169Y-13040780D01*
X9347709Y-13666259D02*
X9223210Y-13541760D01*
X13132169Y-13040780D02*
X12395569Y-13777380D01*
X8631980Y-13514240D02*
X8598960Y-13481220D01*
X11514200Y-13777380D02*
X11450700Y-13713880D01*
X12395569Y-13777380D02*
X11514200Y-13777380D01*
X10749140Y-13633200D02*
X9695320Y-13633200D01*
X10829820Y-13713880D02*
X10749140Y-13633200D01*
X13741780Y-12517540D02*
X13218540Y-13040780D01*
X9662261Y-13666259D02*
X9347709Y-13666259D01*
X9223210Y-13541760D02*
X8765920Y-13541760D01*
X8765920Y-13541760D02*
X8705380Y-13481220D01*
X13741780Y-12365140D02*
X13741780Y-12517540D01*
X11450700Y-13713880D02*
X10829820Y-13713880D01*
G04 #@! TO.N,MIXER_RESETX*
X8672620Y-13616760D02*
X8712060Y-13577320D01*
X10212538Y-13673880D02*
X9709504Y-13673880D01*
X9208480Y-13577320D02*
X8712060Y-13577320D01*
X8672620Y-13846980D02*
X8672620Y-13616760D01*
X12661759Y-13561480D02*
X12410299Y-13812940D01*
X11798680Y-13924700D02*
X10463358Y-13924700D01*
X9340600Y-13709440D02*
X9208480Y-13577320D01*
X9673944Y-13709440D02*
X9340600Y-13709440D01*
X9709504Y-13673880D02*
X9673944Y-13709440D01*
X13802740Y-12506870D02*
X13116940Y-13192670D01*
X13802740Y-12438800D02*
X13802740Y-12506870D01*
X12855320Y-13561480D02*
X12661759Y-13561480D01*
X13116940Y-13192670D02*
X13116940Y-13299860D01*
X10463358Y-13924700D02*
X10212538Y-13673880D01*
X8619280Y-13900320D02*
X8672620Y-13846980D01*
X11910440Y-13812940D02*
X11798680Y-13924700D01*
X12410299Y-13812940D02*
X11910440Y-13812940D01*
X13116940Y-13299860D02*
X12855320Y-13561480D01*
G04 #@! TO.N,MIXER_SCLK*
X13147919Y-12974740D02*
X12380840Y-13741820D01*
X9677540Y-13597640D02*
X9641942Y-13633238D01*
X9641942Y-13633238D02*
X9364977Y-13633238D01*
X12380840Y-13741820D02*
X11528929Y-13741820D01*
X8518950Y-13421530D02*
X8484660Y-13455820D01*
X11528929Y-13741820D02*
X11465430Y-13678320D01*
X8780650Y-13506200D02*
X8695980Y-13421530D01*
X13190600Y-12974740D02*
X13147919Y-12974740D01*
X10763870Y-13597640D02*
X9677540Y-13597640D01*
X8695980Y-13421530D02*
X8518950Y-13421530D01*
X9237939Y-13506200D02*
X8780650Y-13506200D01*
X11465430Y-13678320D02*
X10844550Y-13678320D01*
X10844550Y-13678320D02*
X10763870Y-13597640D01*
X9364977Y-13633238D02*
X9237939Y-13506200D01*
G04 #@! TO.N,MIXER_SDATA*
X8534780Y-13376060D02*
X8700800Y-13376060D01*
X8700800Y-13376060D02*
X8795379Y-13470639D01*
X8795379Y-13470639D02*
X9614879Y-13470639D01*
X9696160Y-13551920D02*
X10156720Y-13551920D01*
X10156720Y-13551920D02*
X10246220Y-13462420D01*
X11462391Y-13462420D02*
X11525891Y-13525921D01*
X11525891Y-13525921D02*
X12546449Y-13525921D01*
X13222089Y-12850280D02*
X13264260Y-12850280D01*
X13264260Y-12850280D02*
X13337920Y-12776620D01*
X8534780Y-13376060D02*
X8395080Y-13236360D01*
X9614879Y-13470639D02*
X9696160Y-13551920D01*
X10246220Y-13462420D02*
X11462391Y-13462420D01*
X12546449Y-13525921D02*
X13222089Y-12850280D01*
G04 #@! TO.N,MIX_BYPASS*
X12049630Y-15009280D02*
X11924570Y-15134340D01*
X11924570Y-15134340D02*
X10104180Y-15134340D01*
X12285850Y-15009280D02*
X12049630Y-15009280D01*
X10005160Y-15035320D02*
X10005160Y-14634000D01*
X12512420Y-14782710D02*
X12285850Y-15009280D01*
X10104180Y-15134340D02*
X10005160Y-15035320D01*
X12512420Y-14351420D02*
X12512420Y-14782710D01*
G04 #@! TO.N,RSSI*
X9768100Y-12144160D02*
X9916540Y-12144160D01*
X9916540Y-12144160D02*
X10002900Y-12230520D01*
X10002900Y-12230520D02*
X10002900Y-13084980D01*
X11417170Y-13170320D02*
X11499720Y-13252870D01*
X10825940Y-13170320D02*
X10759300Y-13236960D01*
X10759300Y-13236960D02*
X10154880Y-13236960D01*
X10154880Y-13236960D02*
X10002900Y-13084980D01*
X11499720Y-13348880D02*
X11570080Y-13419240D01*
X11570080Y-13419240D02*
X12502260Y-13419240D01*
X12502260Y-13419240D02*
X13746860Y-12174640D01*
X11499720Y-13252870D02*
X11499720Y-13348880D01*
X11417170Y-13170320D02*
X10825940Y-13170320D01*
X9634080Y-12010140D02*
X9768100Y-12144160D01*
G04 #@! TO.N,RX*
X12570840Y-15044840D02*
X12071480Y-15044840D01*
X9029800Y-14671740D02*
X9055480Y-14646060D01*
X8557132Y-14646060D02*
X8234552Y-14323480D01*
X7583270Y-14050912D02*
X7583270Y-13281450D01*
X11807322Y-15308998D02*
X11103107Y-15308998D01*
X9055480Y-14646060D02*
X8557132Y-14646060D01*
X8234552Y-14323480D02*
X7855838Y-14323480D01*
X12735940Y-14420000D02*
X12735940Y-14879740D01*
X7855838Y-14323480D02*
X7583270Y-14050912D01*
X12071480Y-15044840D02*
X11807322Y-15308998D01*
X9034840Y-15174980D02*
X9029800Y-15169940D01*
X8046820Y-12817900D02*
X8046820Y-12637560D01*
X12735940Y-14879740D02*
X12570840Y-15044840D01*
X7583270Y-13281450D02*
X8046820Y-12817900D01*
X10969088Y-15174980D02*
X9034840Y-15174980D01*
X12672440Y-14356500D02*
X12735940Y-14420000D01*
X11103107Y-15308998D02*
X10969088Y-15174980D01*
X9029800Y-15169940D02*
X9029800Y-14671740D01*
G04 #@! TO.N,RXENABLE*
X9357220Y-13167770D02*
X9405490Y-13216040D01*
X9405490Y-13216040D02*
X10083670Y-13216040D01*
X11402440Y-13205880D02*
X11464160Y-13267600D01*
X13731110Y-12240680D02*
X13777340Y-12240680D01*
X13777340Y-12240680D02*
X13815440Y-12202580D01*
X13884020Y-11460900D02*
X13815440Y-11529480D01*
X13815440Y-11529480D02*
X13815440Y-12202580D01*
X10840670Y-13205880D02*
X10774030Y-13272520D01*
X10774030Y-13272520D02*
X10140150Y-13272520D01*
X10140150Y-13272520D02*
X10083670Y-13216040D01*
X11464160Y-13363610D02*
X11555350Y-13454800D01*
X11555350Y-13454800D02*
X12516990Y-13454800D01*
X12516990Y-13454800D02*
X13731110Y-12240680D01*
X11464160Y-13267600D02*
X11464160Y-13363610D01*
X9357220Y-12787380D02*
X9357220Y-13167770D01*
X11402440Y-13205880D02*
X10840670Y-13205880D01*
G04 #@! TO.N,RX_AMP*
X10833890Y-15390880D02*
X10773531Y-15451239D01*
X10773531Y-15451239D02*
X7190199Y-15451239D01*
X7190199Y-15451239D02*
X6835240Y-15096280D01*
X11044188Y-15451239D02*
X10983829Y-15390880D01*
X13271881Y-15451239D02*
X11044188Y-15451239D01*
X13614780Y-13817510D02*
X13759560Y-13962290D01*
X6319620Y-13805960D02*
X6319620Y-13905020D01*
X10983829Y-15390880D02*
X10833890Y-15390880D01*
X13759560Y-13962290D02*
X13759560Y-14963560D01*
X6319620Y-13805960D02*
X6408520Y-13762780D01*
X6319620Y-13905020D02*
X6532980Y-14171720D01*
X6532980Y-14171720D02*
X6532980Y-14402860D01*
X13759560Y-14963560D02*
X13271881Y-15451239D01*
X13614780Y-13406540D02*
X13614780Y-13817510D01*
X6835240Y-14705120D02*
X6532980Y-14402860D01*
X6835240Y-15096280D02*
X6835240Y-14705120D01*
X6408520Y-13762780D02*
X6408520Y-13389400D01*
G04 #@! TO.N,RX_MIX_BP*
X5664060Y-14707420D02*
X5664060Y-13845440D01*
X5575680Y-13028591D02*
X5802251Y-12802020D01*
X15214981Y-15522359D02*
X11014729Y-15522359D01*
X5804000Y-14847360D02*
X5664060Y-14707420D01*
X6443439Y-15522359D02*
X6144361Y-15223281D01*
X10802990Y-15522359D02*
X6443439Y-15522359D01*
X5804000Y-15114060D02*
X5804000Y-14847360D01*
X11014729Y-15522359D02*
X10954370Y-15462000D01*
X14487420Y-12476900D02*
X15803740Y-13793220D01*
X6104860Y-12802020D02*
X6271600Y-12635280D01*
X15803740Y-14933600D02*
X15214981Y-15522359D01*
X6144361Y-15223281D02*
X5913221Y-15223281D01*
X10863350Y-15462000D02*
X10802990Y-15522359D01*
X5575680Y-13757060D02*
X5575680Y-13028591D01*
X10954370Y-15462000D02*
X10863350Y-15462000D01*
X5664060Y-13845440D02*
X5575680Y-13757060D01*
X5802251Y-12802020D02*
X6104860Y-12802020D01*
X15803740Y-13793220D02*
X15803740Y-14933600D01*
X5913221Y-15223281D02*
X5804000Y-15114060D01*
X14325980Y-12476900D02*
X14487420Y-12476900D01*
G04 #@! TO.N,SCL*
X12461620Y-13282080D02*
X12268580Y-13282080D01*
X12268580Y-13282080D02*
X12202540Y-13348120D01*
X12436220Y-14572400D02*
X12418440Y-14590180D01*
X12154280Y-14590180D02*
X11821540Y-14922920D01*
X12418440Y-14590180D02*
X12154280Y-14590180D01*
X12746100Y-13061100D02*
X12682600Y-13061100D01*
X12682600Y-13061100D02*
X12461620Y-13282080D01*
X12436220Y-14277760D02*
X12436220Y-14572400D01*
X12291440Y-14132980D02*
X12436220Y-14277760D01*
G04 #@! TO.N,SDA*
X12649580Y-13183020D02*
X12700380Y-13132220D01*
X12610970Y-13183020D02*
X12443330Y-13350660D01*
X12443330Y-13350660D02*
X12362560Y-13350660D01*
X12161680Y-14493660D02*
X11819680Y-14835660D01*
X12365100Y-14493660D02*
X12161680Y-14493660D01*
X12649580Y-13183020D02*
X12610970Y-13183020D01*
D29*
G04 #@! TO.N,SGPIO_CLK*
X13210320Y-12289540D02*
X13210400Y-12289540D01*
X12037440Y-13233820D02*
X12266040Y-13233820D01*
X12266040Y-13233820D02*
X13210320Y-12289540D01*
D27*
G04 #@! TO.N,SSP1_MISO*
X9758540Y-11710316D02*
X9974452Y-11926228D01*
X13243079Y-11432551D02*
X13243079Y-11029449D01*
X12668630Y-12007000D02*
X13243079Y-11432551D01*
X9974452Y-12045712D02*
X10040480Y-12111740D01*
X10040480Y-12111740D02*
X10832960Y-12111740D01*
X10832960Y-12111740D02*
X10871060Y-12149840D01*
X11694132Y-12007000D02*
X11551292Y-12149840D01*
X11551292Y-12149840D02*
X10871060Y-12149840D01*
X9974452Y-11926228D02*
X9974452Y-12045712D01*
X12668630Y-12007000D02*
X11694132Y-12007000D01*
X9758540Y-11710316D02*
X9758540Y-11697720D01*
G04 #@! TO.N,SSP1_MOSI*
X8842120Y-8931060D02*
X8791320Y-8981860D01*
X11282552Y-9614179D02*
X11376520Y-9708147D01*
X11376520Y-9708147D02*
X11376520Y-10650377D01*
X8920860Y-8931060D02*
X8958960Y-8892960D01*
X12042264Y-11316120D02*
X12281788Y-11316120D01*
X12281788Y-11316120D02*
X12400914Y-11196994D01*
X10778510Y-8743101D02*
X9373490Y-8743101D01*
X9373490Y-8743101D02*
X9223630Y-8892960D01*
X8791320Y-9972460D02*
X8791320Y-8981860D01*
X9133700Y-10314840D02*
X9133700Y-10384540D01*
X9133700Y-10384540D02*
X9438500Y-10689340D01*
X9438500Y-10689340D02*
X9438500Y-11715500D01*
X9438500Y-11715500D02*
X9634080Y-11911080D01*
X8958960Y-8892960D02*
X9223630Y-8892960D01*
X11376520Y-10650377D02*
X12042264Y-11316120D01*
X8842120Y-8931060D02*
X8920860Y-8931060D01*
X11282552Y-9247142D02*
X10778510Y-8743101D01*
X11282552Y-9614179D02*
X11282552Y-9247142D01*
X8791320Y-9972460D02*
X9133700Y-10314840D01*
G04 #@! TO.N,SSP1_SCK*
X10211180Y-12598820D02*
X10038460Y-12426100D01*
X10038460Y-12426100D02*
X10038460Y-12215790D01*
X8971150Y-10102000D02*
X8826880Y-9957730D01*
X8944228Y-9040280D02*
X8994012Y-9090064D01*
X11813920Y-11224680D02*
X11813920Y-11138066D01*
X11813920Y-11138066D02*
X11340960Y-10665106D01*
X9076816Y-9090064D02*
X8994012Y-9090064D01*
X9388219Y-8778661D02*
X10763781Y-8778661D01*
X10763781Y-8778661D02*
X11246992Y-9261872D01*
X9281540Y-10102000D02*
X9337420Y-10157880D01*
X9337420Y-10157880D02*
X9337420Y-10223920D01*
X8856344Y-9109876D02*
X8826880Y-9139340D01*
X8826880Y-9139340D02*
X8826880Y-9957730D01*
X11340960Y-9722876D02*
X11340960Y-10665106D01*
X9474060Y-11651390D02*
X9474060Y-10360560D01*
X9474060Y-10360560D02*
X9337420Y-10223920D01*
X9076816Y-9090064D02*
X9388219Y-8778661D01*
X8856344Y-9109876D02*
X8856344Y-9040280D01*
X11246992Y-9628908D02*
X11246992Y-9261872D01*
X10038460Y-12215790D02*
X9474060Y-11651390D01*
X11246992Y-9628908D02*
X11340960Y-9722876D01*
X8944228Y-9040280D02*
X8856344Y-9040280D01*
X8971150Y-10102000D02*
X9281540Y-10102000D01*
G04 #@! TO.N,TXENABLE*
X9286100Y-13146940D02*
X9390760Y-13251600D01*
X9390760Y-13251600D02*
X10068940Y-13251600D01*
X13745839Y-12276240D02*
X13792070Y-12276240D01*
X13792070Y-12276240D02*
X13851000Y-12217310D01*
X13851000Y-12217310D02*
X13851000Y-11626000D01*
X13851000Y-11626000D02*
X13924660Y-11552340D01*
X10244200Y-13426860D02*
X10068940Y-13251600D01*
X11477120Y-13426860D02*
X11540621Y-13490360D01*
X11540621Y-13490360D02*
X12531719Y-13490360D01*
X12531719Y-13490360D02*
X13745839Y-12276240D01*
X9286100Y-12698480D02*
X9286100Y-13146940D01*
X10244200Y-13426860D02*
X11477120Y-13426860D01*
G04 #@! TO.N,TX_AMP*
X10939629Y-15246100D02*
X7327726Y-15246100D01*
X12845159Y-15115961D02*
X12100939Y-15115961D01*
X6890596Y-13422944D02*
X6888580Y-13709440D01*
X6676490Y-13921529D02*
X6676490Y-14333010D01*
X11073647Y-15380118D02*
X10939629Y-15246100D01*
X14155800Y-12715893D02*
X13028040Y-13843653D01*
X12100939Y-15115961D02*
X11836782Y-15380118D01*
X6888580Y-13709440D02*
X6728560Y-13869459D01*
X13028040Y-14933080D02*
X12845159Y-15115961D01*
X7327726Y-15246100D02*
X6910169Y-14828543D01*
X14155800Y-12667400D02*
X14155800Y-12715893D01*
X11836782Y-15380118D02*
X11073647Y-15380118D01*
X13028040Y-13843653D02*
X13028040Y-14933080D01*
X6910169Y-14828543D02*
X6910169Y-14566689D01*
X6728560Y-13869459D02*
X6676490Y-13921529D01*
X6910169Y-14566689D02*
X6746340Y-14402860D01*
X6676490Y-14333010D02*
X6746340Y-14402860D01*
G04 #@! TO.N,TX_MIX_BP*
X6179590Y-15593480D02*
X15244440Y-15593480D01*
X15686489Y-12662920D02*
X15007709Y-11984140D01*
X5504560Y-13786519D02*
X5592939Y-13874899D01*
X5732880Y-14882920D02*
X5732880Y-15146770D01*
X14570840Y-12299100D02*
X14336140Y-12299100D01*
X15007709Y-11984140D02*
X14885800Y-11984140D01*
X5504560Y-12999132D02*
X5504560Y-13786519D01*
X16072980Y-14764939D02*
X16072980Y-12742170D01*
X6801070Y-12901680D02*
X6227030Y-12327640D01*
X6923900Y-12901680D02*
X6801070Y-12901680D01*
X15244440Y-15593480D02*
X16072980Y-14764939D01*
X5811900Y-12691791D02*
X5504560Y-12999132D01*
X5592939Y-13874899D02*
X5592939Y-14742979D01*
X5811900Y-12504329D02*
X5811900Y-12691791D01*
X15993730Y-12662920D02*
X15686489Y-12662920D01*
X6227030Y-12327640D02*
X5988590Y-12327640D01*
X5592939Y-14742979D02*
X5732880Y-14882920D01*
X5732880Y-15146770D02*
X6179590Y-15593480D01*
X14885800Y-11984140D02*
X14570840Y-12299100D01*
X5988590Y-12327640D02*
X5811900Y-12504329D01*
X16072980Y-12742170D02*
X15993730Y-12662920D01*
G04 #@! TO.N,VAA*
X5898260Y-11026560D02*
X7295260Y-11026560D01*
X5263260Y-11661560D02*
X5898260Y-11026560D01*
D29*
G04 #@! TO.N,VCC*
X16471772Y-8978812D02*
X16452260Y-8998324D01*
X16401506Y-9275900D02*
X16137520Y-9275900D01*
X16452260Y-8998324D02*
X16452260Y-9225146D01*
X16452260Y-9225146D02*
X16401506Y-9275900D01*
D27*
G04 #@! TO.N,XCVR_EN*
X13353160Y-10942740D02*
X13712868Y-11302448D01*
X13712868Y-11302448D02*
X13886066Y-11302448D01*
X10931420Y-11902860D02*
X10812640Y-11784080D01*
X10812640Y-11784080D02*
X10324960Y-11784080D01*
X10324960Y-11784080D02*
X10064610Y-12044430D01*
X13152500Y-11011320D02*
X13083410Y-11011320D01*
X13221080Y-10942740D02*
X13353160Y-10942740D01*
X11826620Y-11902860D02*
X11885040Y-11844440D01*
X11885040Y-11844440D02*
X12250290Y-11844440D01*
X12250290Y-11844440D02*
X13083410Y-11011320D01*
X13152500Y-11011320D02*
X13221080Y-10942740D01*
X10931420Y-11902860D02*
X11826620Y-11902860D01*
G04 #@! TO.N,Net-(U21-MODE{slash}DATA)*
X15012202Y-9972398D02*
X15309920Y-9674680D01*
X15012202Y-10048032D02*
X15012202Y-9972398D01*
X15309920Y-9674680D02*
X16211180Y-9674680D01*
G04 #@! TO.N,Net-(U21-EN1)*
X16383900Y-9039680D02*
X16239120Y-9184460D01*
X16239120Y-9184460D02*
X15626980Y-9184460D01*
X15626980Y-9184460D02*
X15505060Y-9306380D01*
G04 #@! TO.N,Net-(U23-USB0_VBUS)*
X14696520Y-10785560D02*
X14597760Y-10884320D01*
X14762260Y-10785560D02*
X14696520Y-10785560D01*
X14597760Y-10884320D02*
X14597760Y-11245000D01*
G04 #@! TD*
G04 #@! TA.AperFunction,Conductor*
G04 #@! TO.N,GND*
G36*
X16874690Y-10037588D02*
G01*
X16880232Y-10043130D01*
X16882260Y-10050700D01*
X16882260Y-11720420D01*
X16880232Y-11727990D01*
X16874690Y-11733532D01*
X16867120Y-11735560D01*
X16357400Y-11735560D01*
X16349830Y-11733532D01*
X16344288Y-11727990D01*
X16342260Y-11720420D01*
X16342260Y-11112196D01*
X16344288Y-11104626D01*
X16349830Y-11099084D01*
X16351606Y-11098209D01*
X16362286Y-11093785D01*
X16362286Y-11093785D01*
X16376281Y-11084434D01*
X16376280Y-11084434D01*
X16376281Y-11084433D01*
X16388183Y-11072531D01*
X16397535Y-11058536D01*
X16403976Y-11042985D01*
X16407260Y-11026476D01*
X16407260Y-11009644D01*
X16586360Y-11009644D01*
X16586360Y-11026476D01*
X16589644Y-11042985D01*
X16596085Y-11058536D01*
X16596085Y-11058536D01*
X16605436Y-11072531D01*
X16605437Y-11072531D01*
X16617339Y-11084433D01*
X16617339Y-11084434D01*
X16631334Y-11093785D01*
X16631334Y-11093785D01*
X16646885Y-11100226D01*
X16646885Y-11100226D01*
X16646885Y-11100226D01*
X16663394Y-11103510D01*
X16740226Y-11103510D01*
X16756735Y-11100226D01*
X16772286Y-11093785D01*
X16772286Y-11093785D01*
X16772286Y-11093785D01*
X16772286Y-11093785D01*
X16786281Y-11084434D01*
X16786281Y-11084434D01*
X16786281Y-11084433D01*
X16798183Y-11072531D01*
X16807535Y-11058536D01*
X16813976Y-11042985D01*
X16817260Y-11026476D01*
X16817260Y-11009644D01*
X16813976Y-10993135D01*
X16807535Y-10977584D01*
X16807535Y-10977584D01*
X16807535Y-10977584D01*
X16798184Y-10963589D01*
X16798183Y-10963589D01*
X16786281Y-10951687D01*
X16786281Y-10951686D01*
X16772286Y-10942335D01*
X16772286Y-10942335D01*
X16756735Y-10935894D01*
X16740226Y-10932610D01*
X16663394Y-10932610D01*
X16646885Y-10935894D01*
X16631334Y-10942335D01*
X16631334Y-10942335D01*
X16617339Y-10951686D01*
X16617339Y-10951687D01*
X16605437Y-10963589D01*
X16605436Y-10963589D01*
X16596085Y-10977584D01*
X16596085Y-10977584D01*
X16589644Y-10993135D01*
X16586360Y-11009644D01*
X16407260Y-11009644D01*
X16403976Y-10993135D01*
X16397535Y-10977584D01*
X16397535Y-10977584D01*
X16397534Y-10977584D01*
X16388184Y-10963589D01*
X16388183Y-10963589D01*
X16376281Y-10951687D01*
X16374775Y-10950680D01*
X16372213Y-10948968D01*
X16367046Y-10943076D01*
X16365517Y-10935390D01*
X16368036Y-10927969D01*
X16371235Y-10924773D01*
X16371108Y-10924618D01*
X16371683Y-10924146D01*
X16371683Y-10924146D01*
X16380396Y-10915433D01*
X16387241Y-10905189D01*
X16391956Y-10893805D01*
X16394360Y-10881721D01*
X16394360Y-10869399D01*
X16391956Y-10857315D01*
X16387241Y-10845931D01*
X16380396Y-10835687D01*
X16371683Y-10826974D01*
X16371683Y-10826974D01*
X16361439Y-10820129D01*
X16351606Y-10816056D01*
X16345388Y-10811285D01*
X16342389Y-10804045D01*
X16342260Y-10802069D01*
X16342260Y-10369051D01*
X16344288Y-10361481D01*
X16349830Y-10355940D01*
X16351606Y-10355064D01*
X16352455Y-10354712D01*
X16361439Y-10350991D01*
X16371683Y-10344146D01*
X16380396Y-10335433D01*
X16387241Y-10325189D01*
X16391956Y-10313805D01*
X16394360Y-10301721D01*
X16394360Y-10289399D01*
X16391956Y-10277315D01*
X16387241Y-10265931D01*
X16382684Y-10259111D01*
X16380165Y-10251690D01*
X16381694Y-10244004D01*
X16386861Y-10238112D01*
X16394282Y-10235592D01*
X16395272Y-10235560D01*
X16412260Y-10235560D01*
X16412260Y-10235560D01*
X16503176Y-10144644D01*
X16586360Y-10144644D01*
X16586360Y-10161476D01*
X16589644Y-10177985D01*
X16596085Y-10193536D01*
X16596085Y-10193536D01*
X16605436Y-10207531D01*
X16605437Y-10207531D01*
X16617339Y-10219433D01*
X16617339Y-10219434D01*
X16631334Y-10228785D01*
X16631334Y-10228785D01*
X16646885Y-10235226D01*
X16646885Y-10235226D01*
X16646885Y-10235226D01*
X16663394Y-10238510D01*
X16740226Y-10238510D01*
X16756735Y-10235226D01*
X16772286Y-10228785D01*
X16772286Y-10228785D01*
X16772286Y-10228785D01*
X16772286Y-10228785D01*
X16786281Y-10219434D01*
X16786281Y-10219434D01*
X16786281Y-10219433D01*
X16798183Y-10207531D01*
X16807535Y-10193536D01*
X16813976Y-10177985D01*
X16817260Y-10161476D01*
X16817260Y-10144644D01*
X16813976Y-10128135D01*
X16807535Y-10112584D01*
X16807535Y-10112584D01*
X16807535Y-10112584D01*
X16798184Y-10098589D01*
X16798183Y-10098589D01*
X16786281Y-10086687D01*
X16786281Y-10086686D01*
X16772286Y-10077335D01*
X16772286Y-10077335D01*
X16756735Y-10070894D01*
X16740226Y-10067610D01*
X16663394Y-10067610D01*
X16646885Y-10070894D01*
X16631334Y-10077335D01*
X16631334Y-10077335D01*
X16617339Y-10086686D01*
X16617339Y-10086687D01*
X16605437Y-10098589D01*
X16605436Y-10098589D01*
X16596085Y-10112584D01*
X16596085Y-10112584D01*
X16589644Y-10128135D01*
X16586360Y-10144644D01*
X16503176Y-10144644D01*
X16607826Y-10039994D01*
X16614613Y-10036076D01*
X16618531Y-10035560D01*
X16867120Y-10035560D01*
X16874690Y-10037588D01*
G37*
G04 #@! TD.AperFunction*
G04 #@! TD*
M02*
