M48
INCH,LZ
T1C0.0130
T2C0.0130
T3C0.0130
T4C0.0138
T5C0.0150
T6C0.0280
T7C0.0315
T8C0.0390
T9C0.0400
T10C0.0512
T11C0.1260
T12C0.0295
%
G90
G05
T1
X038516Y031496
X038713Y031791
T2
X-003409Y029129
X-003309Y023969
X-003309Y022169
X-003309Y020379
X-003309Y018579
X-003309Y016779
X-002999Y029499
X-002909Y022969
X-001391Y010118
X-001358Y021929
X-001358Y019567
X-001358Y017205
X-001358Y014843
X-001309Y032779
X-001309Y027679
X-000881Y013996
X-000866Y013268
X-000781Y016236
X-000421Y013996
X-0001Y019145
X000199Y014416
X00028Y020015
X000315Y023504
X000315Y008543
X000459Y01317
X000459Y012481
X000619Y015816
X000619Y014416
X000669Y011476
X000859Y010286
X000969Y016516
X00106Y019135
X00108Y019635
X001149Y011476
X001189Y013226
X001249Y014526
X001529Y016586
X001599Y016166
X001669Y014136
X001939Y022026
X002089Y012176
X002089Y011076
X002299Y019836
X002329Y021186
X002439Y016376
X002509Y014486
X002509Y012176
X002619Y017737
X002677Y023504
X002677Y008543
X002699Y011086
X002859Y014276
X002859Y010426
X002859Y009376
X002929Y012176
X00297Y020585
X002999Y013436
X002999Y012596
X003139Y015466
X003497Y016034
X00362Y019085
X003629Y018086
X00372Y022035
X00372Y021585
X00372Y021135
X003771Y028369
X00412Y019085
X004189Y014066
X004287Y012582
X004359Y017646
X004399Y016446
X004469Y015186
X004571Y029149
X004609Y013646
X00467Y020585
X004861Y033969
X005039Y023504
X005049Y008543
X005201Y035089
X005339Y019926
X005349Y021286
X005739Y019136
X005771Y032589
X005881Y035439
X006281Y027969
X006359Y009446
X006359Y012736
X006583Y016054
X006689Y018956
X006719Y014306
X006889Y013846
X006933Y015054
X007033Y011674
X007357Y018311
X007402Y023504
X007402Y008543
X007683Y011074
X007833Y012174
X008049Y019126
X008119Y02611
X008233Y011074
X008323Y016944
X008323Y016414
X008373Y015404
X008619Y02611
X008623Y012154
X008723Y016414
X008733Y011074
X008819Y019556
X008976Y023012
X009079Y010506
X009123Y016414
X009221Y031634
X009304Y031065
X009349Y02611
X009421Y016769
X009454Y032415
X009764Y008543
X009773Y017054
X009773Y015904
X009796Y030079
X009851Y026109
X009929Y02869
X010023Y014904
X010209Y014506
X010223Y016904
X010223Y015804
X010269Y010506
X010303Y014154
X010329Y02869
X010396Y031609
X010443Y011804
X010484Y030695
X010604Y033465
X010651Y032499
X010669Y015426
X010673Y016604
X010729Y02869
X010734Y032955
X010933Y009904
X010945Y022913
X011019Y011666
X011129Y02869
X011181Y033719
X011194Y034205
X011223Y014454
X011229Y012656
X011237Y033289
X011369Y02832
X011509Y014906
X011529Y02979
X011529Y02869
X011673Y012154
X011869Y02832
X011914Y033415
X011984Y020491
X012021Y011219
X012126Y008543
X012304Y029765
X012334Y021101
X012334Y018951
X012369Y02869
X012381Y034199
X012409Y014536
X012599Y02832
X012729Y02873
X012779Y02979
X012929Y018886
X012978Y010098
X013012Y023012
X013024Y020671
X013074Y019401
X013099Y02832
X013144Y020311
X013209Y018536
X013499Y012956
X013501Y028639
X013509Y012456
X013529Y02978
X013689Y011346
X013694Y018391
X013694Y017201
X013754Y016201
X013961Y028579
X014029Y010476
X014034Y030155
X014119Y015506
X014259Y02898
X014299Y021986
X014299Y021596
X014331Y031409
X014339Y013586
X014488Y023504
X014488Y008543
X014738Y009498
X014739Y014746
X014789Y022826
X014824Y016421
X014894Y018381
X014894Y017201
X014964Y015981
X015074Y013897
X015244Y022811
X015354Y021761
X015474Y031795
X015474Y031315
X015744Y022811
X015779Y011266
X015994Y021461
X016034Y016201
X016063Y024882
X016129Y013677
X016344Y020561
X016344Y018901
X016404Y020021
X016444Y022411
X016571Y019279
X016694Y020391
X016744Y018101
X01685Y023504
X01685Y008543
X016869Y030196
X016899Y009736
X017429Y022226
X017544Y020801
X017554Y020021
X017669Y029796
X017844Y020401
X018031Y01878
X018069Y032416
X018069Y031936
X018161Y028419
X018201Y027819
X018411Y025589
X018469Y033396
X018524Y021929
X018524Y017205
X018524Y014843
X018524Y01248
X018524Y010118
X019016Y020354
X019021Y011529
X019039Y012356
X019051Y009759
X019111Y011039
X019269Y025996
X019329Y031016
X019329Y007746
X019421Y011809
X019431Y027999
X019638Y009773
X019711Y013269
X020011Y028989
X020011Y027839
X020021Y028219
X020031Y028599
X020053Y010512
X020209Y008976
X020299Y032306
X020511Y013679
X020621Y011719
X020669Y030456
X020671Y027279
X020871Y012449
X020921Y013539
X020949Y011016
X021161Y025089
X021201Y026019
X021453Y010422
X021611Y017609
X021679Y027286
X021703Y013122
X021761Y016959
X021911Y016429
X022031Y017219
X022051Y031779
X022071Y032169
X022151Y015169
X022171Y016869
X022571Y031539
X022641Y030969
X022661Y032119
X022739Y008976
X022801Y022759
X022861Y031799
X022879Y012866
X022881Y024689
X022903Y010472
X022911Y010129
X022941Y022409
X022951Y016429
X022953Y009722
X023001Y027259
X023051Y031469
X023171Y021879
X023261Y013689
X023401Y015129
X023401Y012399
X023469Y033696
X023701Y021929
X023761Y016779
X023771Y008629
X023791Y013239
X023819Y034506
X023853Y010272
X024021Y024599
X024291Y013989
X024351Y010259
X024411Y016329
X024501Y018079
X024581Y012759
X024761Y013239
X024887Y021922
X024929Y019136
X025021Y032504
X025041Y016319
X025051Y011819
X025192Y024798
X025261Y011439
X025361Y018899
X025631Y028659
X025631Y012379
X0257Y024432
X025719Y029596
X025769Y029096
X025919Y031896
X026261Y012359
X026271Y025089
X026371Y017179
X026381Y027169
X026381Y026659
X026381Y026159
X026391Y025669
X026548Y023583
X026551Y017459
X026621Y014474
X026831Y015809
X026856Y014199
X026901Y014769
X026959Y019456
X027141Y031999
X027611Y018779
X02768Y016654
X027889Y020546
X027951Y018749
X028081Y014299
X028151Y025529
X028181Y015509
X02821Y026942
X028301Y017799
X028321Y021789
X028379Y020496
X028507Y025457
X028514Y01589
X028641Y014549
X028691Y030719
X028733Y02253
X028881Y018579
X028991Y017149
X029061Y019859
X029091Y030289
X029091Y022159
X029091Y020259
X029101Y023229
X029136Y026129
X029221Y023949
X029251Y027699
X029251Y015269
X029291Y022749
X029411Y016699
X029483Y014851
X029531Y023689
X029631Y022789
X029681Y027709
X029711Y024639
X029971Y016099
X030134Y025316
X030155Y026723
X030221Y027439
X030221Y015869
X030471Y020199
X030491Y027759
X030491Y020949
X030711Y019909
X030933Y02719
X031031Y023759
X031039Y024382
X031191Y023399
X031541Y023329
X031604Y02673
X031661Y022769
X03171Y01466
X031741Y013059
X031849Y012646
X032099Y014992
X032101Y019009
X032151Y018289
X032481Y018639
X032511Y015429
X032681Y015139
X0327Y023937
X032731Y019119
X032743Y015734
X032761Y020129
X032769Y017406
X032771Y019759
X032781Y020829
X032811Y020459
X032948Y014143
X033048Y029891
X033051Y029479
X033079Y012656
X033139Y013166
X033266Y023371
X033461Y027989
X033478Y02521
X033601Y014509
X033751Y014859
X033841Y024609
X033851Y018609
X034011Y022639
X034051Y028719
X034141Y014819
X034156Y027008
X034161Y020079
X034291Y029961
X034327Y026058
X034327Y017219
X034488Y026417
X03456Y01922
X034574Y020309
X034591Y02402
X03468Y025705
X034801Y015179
X034843Y02622
X034911Y017759
X035013Y020578
X035119Y020232
X035175Y016371
X035236Y027717
X035317Y023371
X035324Y02137
X03543Y024899
X035472Y029321
X03563Y02811
X035706Y018598
X035713Y031791
X035741Y016936
X035869Y013956
X036117Y022282
X036139Y013656
X036271Y019164
X036417Y025512
X036441Y016059
X036554Y01775
X036759Y014626
X036869Y021016
X036963Y031541
X037087Y023425
X03712Y018315
X037126Y024213
X037226Y022777
X037413Y032241
X037563Y031791
X037651Y016719
X037717Y02311
X037953Y028091
X037959Y016956
X038249Y013886
X038619Y017806
X03908Y026127
X039094Y027953
X039113Y034441
X039563Y033291
X039563Y030291
X039567Y028386
X039567Y025748
X039903Y032361
X039959Y011326
X040013Y031191
X040119Y013046
X040193Y030791
X040299Y010446
X040299Y009836
X040663Y030791
X040863Y032791
X040873Y033291
X041219Y033531
X041293Y032118
T3
X038516Y032086
X038909Y032086
X038909Y031496
T4
X008Y014188
X008Y013754
X008Y013321
X008433Y014188
X008433Y013754
X008433Y013321
X008866Y014188
X008866Y013754
X008866Y013321
X021893Y011982
X021893Y011462
X022153Y011722
X022413Y011982
X022413Y011462
T5
X-003701Y034921
X-003701Y008543
X-003445Y035531
X-003445Y034311
X-003445Y009154
X-003445Y007933
X-003417Y014252
X-003417Y013858
X-003417Y013465
X-003417Y011496
X-003417Y011102
X-003417Y010709
X-003024Y014252
X-003024Y013858
X-003024Y013465
X-003024Y011496
X-003024Y011102
X-003024Y010709
X-002835Y035787
X-002835Y034055
X-002835Y009409
X-002835Y007677
X-00263Y014252
X-00263Y013858
X-00263Y013465
X-00263Y011496
X-00263Y011102
X-00263Y010709
X-002224Y035531
X-002224Y034311
X-002224Y009154
X-002224Y007933
X-001969Y034921
X-001969Y008543
X011829Y032239
X011829Y03159
X011829Y03094
X012479Y032239
X012479Y03159
X012479Y03094
X013128Y032239
X013128Y03159
X013128Y03094
X014153Y020592
X014153Y020001
X014153Y019411
X014744Y020592
X014744Y020001
X014744Y019411
X015334Y020592
X015334Y020001
X015334Y019411
X020709Y034921
X020965Y035531
X020965Y034311
X021575Y035787
X021575Y034055
X022185Y035531
X022185Y034311
X022441Y034921
X022677Y019173
X022933Y019783
X022933Y018563
X023543Y020039
X023543Y018307
X024154Y019783
X024154Y018563
X024409Y019173
X040394Y034921
X040394Y008543
X04065Y035531
X04065Y034311
X04065Y009154
X04065Y007933
X041055Y020551
X041055Y020157
X041055Y019764
X041055Y017795
X041055Y017402
X041055Y017008
X041055Y013465
X041055Y013071
X041055Y012677
X041055Y010709
X041055Y010315
X041055Y009921
X04126Y035787
X04126Y034055
X04126Y009409
X04126Y007677
X041449Y020551
X041449Y020157
X041449Y019764
X041449Y017795
X041449Y017402
X041449Y017008
X041449Y013465
X041449Y013071
X041449Y012677
X041449Y010709
X041449Y010315
X041449Y009921
X041843Y020551
X041843Y020157
X041843Y019764
X041843Y017795
X041843Y017402
X041843Y017008
X041843Y013465
X041843Y013071
X041843Y012677
X041843Y010709
X041843Y010315
X041843Y009921
X04187Y035531
X04187Y034311
X04187Y009154
X04187Y007933
X042126Y034921
X042126Y008543
T6
X031678Y030801
X031678Y030301
X031678Y029801
X031678Y029301
X031678Y028801
X032178Y030801
X032178Y030301
X032178Y029801
X032178Y029301
X032178Y028801
T8
X-003346Y032894
X-003346Y031122
X-003346Y027776
X-003346Y026004
T9
X005091Y026469
X005091Y025469
X006091Y034469
X006091Y033469
X007091Y034469
X007091Y033469
X007091Y025469
X007091Y024469
X008091Y034469
X008091Y033469
X008091Y025469
X008091Y024469
X009091Y025469
X009091Y024469
X010091Y025469
X010091Y024469
X011091Y025469
X011091Y024469
X012091Y025469
X012091Y024469
X013091Y025469
X013091Y024469
X014091Y025469
X014091Y024469
X020091Y024469
X020091Y023469
X020091Y022469
X020091Y021469
X020091Y020469
X020091Y019469
X020091Y018469
X020091Y017469
X020091Y016469
X020091Y015469
X020091Y014469
X021091Y024469
X021091Y023469
X021091Y022469
X021091Y021469
X021091Y020469
X021091Y019469
X021091Y018469
X021091Y017469
X021091Y016469
X021091Y015469
X021091Y014469
X023091Y023469
X024091Y023469
X026091Y034469
X026091Y033469
X026091Y013469
X026091Y011469
X026091Y010469
X027091Y034469
X027091Y033469
X027091Y013469
X027091Y011469
X027091Y010469
X028091Y034469
X028091Y033469
X028091Y013469
X028091Y011469
X028091Y010469
X029091Y034469
X029091Y033469
X029091Y031469
X029091Y029469
X029091Y028469
X029091Y013469
X029091Y011469
X029091Y010469
X030091Y034469
X030091Y033469
X030091Y031469
X030091Y013469
X030091Y011469
X030091Y010469
X031091Y034469
X031091Y033469
X031091Y013469
X031091Y011469
X031091Y010469
X032091Y034469
X032091Y033469
X032091Y011469
X032091Y010469
X033091Y034469
X033091Y033469
X033091Y011469
X033091Y010469
X034091Y034469
X034091Y033469
X034091Y031469
X034091Y011469
X034091Y010469
X035091Y034469
X035091Y033469
X035091Y031469
X035091Y011469
X035091Y010469
X036091Y011469
X036091Y010469
X037091Y011469
X037091Y010469
X038091Y011469
X038091Y010469
X039091Y024469
X039091Y023469
X039091Y022469
X039091Y021469
X039091Y020469
X039091Y019469
X039091Y018469
X039091Y017469
X039091Y016469
X039091Y015469
X039091Y014469
X040091Y024469
X040091Y023469
X040091Y022469
X040091Y021469
X040091Y020469
X040091Y019469
X040091Y018469
X040091Y017469
X040091Y016469
X040091Y015469
X040091Y014469
X042091Y024469
X042091Y023469
T10
X-002366Y033388
X-002366Y030628
X-002366Y02827
X-002366Y02551
T11
X-002835Y034921
X-002835Y008543
X021575Y034921
X023543Y019173
X04126Y034921
X04126Y008543
T12
X040668Y028209
X040668Y025925
T7
G00X040313Y02877
M15
G01X040628Y02877
M16
G05
G00X040313Y025364
M15
G01X040628Y025364
M16
G05
G00X042006Y02877
M15
G01X042242Y02877
M16
G05
G00X042006Y025364
M15
G01X042242Y025364
M16
G05
M30
