G04 #@! TF.GenerationSoftware,KiCad,Pcbnew,8.0.4*
G04 #@! TF.CreationDate,2024-12-03T18:33:22+11:00*
G04 #@! TF.ProjectId,hackrf-one,6861636b-7266-42d6-9f6e-652e6b696361,rev?*
G04 #@! TF.SameCoordinates,PX393df48PYa6d9c50*
G04 #@! TF.FileFunction,Legend,Top*
G04 #@! TF.FilePolarity,Positive*
%FSLAX45Y45*%
G04 Gerber Fmt 4.5, Leading zero omitted, Abs format (unit mm)*
G04 Created by KiCad (PCBNEW 8.0.4) date 2024-12-03 18:33:22*
%MOMM*%
%LPD*%
G01*
G04 APERTURE LIST*
%ADD10C,0.203200*%
%ADD11C,0.304800*%
%ADD12C,0.190500*%
%ADD13C,0.152400*%
%ADD14C,0.609600*%
%ADD15C,0.381000*%
%ADD16C,0.119380*%
%ADD17C,0.101600*%
%ADD18C,0.120000*%
%ADD19C,0.177800*%
%ADD20C,0.100000*%
%ADD21C,0.254000*%
%ADD22R,1.524000X1.524000*%
%ADD23C,1.524000*%
G04 APERTURE END LIST*
D10*
X5420000Y2750000D02*
G75*
G02*
X5380000Y2750000I-20000J0D01*
G01*
X5380000Y2750000D02*
G75*
G02*
X5420000Y2750000I20000J0D01*
G01*
X7873620Y7812060D02*
X7721220Y7812060D01*
X2440000Y3770000D02*
G75*
G02*
X2400000Y3770000I-20000J0D01*
G01*
X2400000Y3770000D02*
G75*
G02*
X2440000Y3770000I20000J0D01*
G01*
X2820000Y7650000D02*
G75*
G02*
X2780000Y7650000I-20000J0D01*
G01*
X2780000Y7650000D02*
G75*
G02*
X2820000Y7650000I20000J0D01*
G01*
X3440000Y4750000D02*
G75*
G02*
X3400000Y4750000I-20000J0D01*
G01*
X3400000Y4750000D02*
G75*
G02*
X3440000Y4750000I20000J0D01*
G01*
X7873620Y7812060D02*
X7822820Y7761260D01*
X7873620Y7812060D02*
X7822820Y7862860D01*
D11*
X6339375Y2067791D02*
X6339375Y2245591D01*
X6393804Y2067791D02*
X6393804Y2160925D01*
X6393804Y2160925D02*
X6387756Y2177858D01*
X6387756Y2177858D02*
X6375661Y2186325D01*
X6375661Y2186325D02*
X6357518Y2186325D01*
X6357518Y2186325D02*
X6345423Y2177858D01*
X6345423Y2177858D02*
X6339375Y2169391D01*
X6436137Y2186325D02*
X6484518Y2186325D01*
X6454280Y2245591D02*
X6454280Y2093191D01*
X6454280Y2093191D02*
X6460328Y2076258D01*
X6460328Y2076258D02*
X6472423Y2067791D01*
X6472423Y2067791D02*
X6484518Y2067791D01*
X6508709Y2186325D02*
X6557090Y2186325D01*
X6526851Y2245591D02*
X6526851Y2093191D01*
X6526851Y2093191D02*
X6532899Y2076258D01*
X6532899Y2076258D02*
X6544994Y2067791D01*
X6544994Y2067791D02*
X6557090Y2067791D01*
X6599423Y2186325D02*
X6599423Y2008525D01*
X6599423Y2177858D02*
X6611518Y2186325D01*
X6611518Y2186325D02*
X6635709Y2186325D01*
X6635709Y2186325D02*
X6647804Y2177858D01*
X6647804Y2177858D02*
X6653851Y2169391D01*
X6653851Y2169391D02*
X6659899Y2152458D01*
X6659899Y2152458D02*
X6659899Y2101658D01*
X6659899Y2101658D02*
X6653851Y2084725D01*
X6653851Y2084725D02*
X6647804Y2076258D01*
X6647804Y2076258D02*
X6635709Y2067791D01*
X6635709Y2067791D02*
X6611518Y2067791D01*
X6611518Y2067791D02*
X6599423Y2076258D01*
X6714328Y2084725D02*
X6720375Y2076258D01*
X6720375Y2076258D02*
X6714328Y2067791D01*
X6714328Y2067791D02*
X6708280Y2076258D01*
X6708280Y2076258D02*
X6714328Y2084725D01*
X6714328Y2084725D02*
X6714328Y2067791D01*
X6714328Y2177858D02*
X6720375Y2169391D01*
X6720375Y2169391D02*
X6714328Y2160925D01*
X6714328Y2160925D02*
X6708280Y2169391D01*
X6708280Y2169391D02*
X6714328Y2177858D01*
X6714328Y2177858D02*
X6714328Y2160925D01*
X6865518Y2254058D02*
X6756661Y2025458D01*
X6998566Y2254058D02*
X6889709Y2025458D01*
X7095328Y2186325D02*
X7095328Y2042391D01*
X7095328Y2042391D02*
X7089280Y2025458D01*
X7089280Y2025458D02*
X7083232Y2016991D01*
X7083232Y2016991D02*
X7071137Y2008525D01*
X7071137Y2008525D02*
X7052994Y2008525D01*
X7052994Y2008525D02*
X7040899Y2016991D01*
X7095328Y2076258D02*
X7083232Y2067791D01*
X7083232Y2067791D02*
X7059042Y2067791D01*
X7059042Y2067791D02*
X7046947Y2076258D01*
X7046947Y2076258D02*
X7040899Y2084725D01*
X7040899Y2084725D02*
X7034851Y2101658D01*
X7034851Y2101658D02*
X7034851Y2152458D01*
X7034851Y2152458D02*
X7040899Y2169391D01*
X7040899Y2169391D02*
X7046947Y2177858D01*
X7046947Y2177858D02*
X7059042Y2186325D01*
X7059042Y2186325D02*
X7083232Y2186325D01*
X7083232Y2186325D02*
X7095328Y2177858D01*
X7155804Y2067791D02*
X7155804Y2186325D01*
X7155804Y2152458D02*
X7161852Y2169391D01*
X7161852Y2169391D02*
X7167899Y2177858D01*
X7167899Y2177858D02*
X7179994Y2186325D01*
X7179994Y2186325D02*
X7192090Y2186325D01*
X7282804Y2076258D02*
X7270709Y2067791D01*
X7270709Y2067791D02*
X7246518Y2067791D01*
X7246518Y2067791D02*
X7234423Y2076258D01*
X7234423Y2076258D02*
X7228375Y2093191D01*
X7228375Y2093191D02*
X7228375Y2160925D01*
X7228375Y2160925D02*
X7234423Y2177858D01*
X7234423Y2177858D02*
X7246518Y2186325D01*
X7246518Y2186325D02*
X7270709Y2186325D01*
X7270709Y2186325D02*
X7282804Y2177858D01*
X7282804Y2177858D02*
X7288851Y2160925D01*
X7288851Y2160925D02*
X7288851Y2143991D01*
X7288851Y2143991D02*
X7228375Y2127058D01*
X7397709Y2067791D02*
X7397709Y2160925D01*
X7397709Y2160925D02*
X7391661Y2177858D01*
X7391661Y2177858D02*
X7379566Y2186325D01*
X7379566Y2186325D02*
X7355375Y2186325D01*
X7355375Y2186325D02*
X7343280Y2177858D01*
X7397709Y2076258D02*
X7385613Y2067791D01*
X7385613Y2067791D02*
X7355375Y2067791D01*
X7355375Y2067791D02*
X7343280Y2076258D01*
X7343280Y2076258D02*
X7337232Y2093191D01*
X7337232Y2093191D02*
X7337232Y2110125D01*
X7337232Y2110125D02*
X7343280Y2127058D01*
X7343280Y2127058D02*
X7355375Y2135525D01*
X7355375Y2135525D02*
X7385613Y2135525D01*
X7385613Y2135525D02*
X7397709Y2143991D01*
X7440042Y2186325D02*
X7488423Y2186325D01*
X7458185Y2245591D02*
X7458185Y2093191D01*
X7458185Y2093191D02*
X7464232Y2076258D01*
X7464232Y2076258D02*
X7476328Y2067791D01*
X7476328Y2067791D02*
X7488423Y2067791D01*
X7524709Y2076258D02*
X7536804Y2067791D01*
X7536804Y2067791D02*
X7560994Y2067791D01*
X7560994Y2067791D02*
X7573090Y2076258D01*
X7573090Y2076258D02*
X7579137Y2093191D01*
X7579137Y2093191D02*
X7579137Y2101658D01*
X7579137Y2101658D02*
X7573090Y2118591D01*
X7573090Y2118591D02*
X7560994Y2127058D01*
X7560994Y2127058D02*
X7542851Y2127058D01*
X7542851Y2127058D02*
X7530756Y2135525D01*
X7530756Y2135525D02*
X7524709Y2152458D01*
X7524709Y2152458D02*
X7524709Y2160925D01*
X7524709Y2160925D02*
X7530756Y2177858D01*
X7530756Y2177858D02*
X7542851Y2186325D01*
X7542851Y2186325D02*
X7560994Y2186325D01*
X7560994Y2186325D02*
X7573090Y2177858D01*
X7687994Y2076258D02*
X7675899Y2067791D01*
X7675899Y2067791D02*
X7651709Y2067791D01*
X7651709Y2067791D02*
X7639613Y2076258D01*
X7639613Y2076258D02*
X7633566Y2084725D01*
X7633566Y2084725D02*
X7627518Y2101658D01*
X7627518Y2101658D02*
X7627518Y2152458D01*
X7627518Y2152458D02*
X7633566Y2169391D01*
X7633566Y2169391D02*
X7639613Y2177858D01*
X7639613Y2177858D02*
X7651709Y2186325D01*
X7651709Y2186325D02*
X7675899Y2186325D01*
X7675899Y2186325D02*
X7687994Y2177858D01*
X7760566Y2067791D02*
X7748470Y2076258D01*
X7748470Y2076258D02*
X7742423Y2084725D01*
X7742423Y2084725D02*
X7736375Y2101658D01*
X7736375Y2101658D02*
X7736375Y2152458D01*
X7736375Y2152458D02*
X7742423Y2169391D01*
X7742423Y2169391D02*
X7748470Y2177858D01*
X7748470Y2177858D02*
X7760566Y2186325D01*
X7760566Y2186325D02*
X7778709Y2186325D01*
X7778709Y2186325D02*
X7790804Y2177858D01*
X7790804Y2177858D02*
X7796851Y2169391D01*
X7796851Y2169391D02*
X7802899Y2152458D01*
X7802899Y2152458D02*
X7802899Y2101658D01*
X7802899Y2101658D02*
X7796851Y2084725D01*
X7796851Y2084725D02*
X7790804Y2076258D01*
X7790804Y2076258D02*
X7778709Y2067791D01*
X7778709Y2067791D02*
X7760566Y2067791D01*
X7839185Y2186325D02*
X7887566Y2186325D01*
X7857328Y2245591D02*
X7857328Y2093191D01*
X7857328Y2093191D02*
X7863375Y2076258D01*
X7863375Y2076258D02*
X7875470Y2067791D01*
X7875470Y2067791D02*
X7887566Y2067791D01*
X7911756Y2186325D02*
X7960137Y2186325D01*
X7929899Y2245591D02*
X7929899Y2093191D01*
X7929899Y2093191D02*
X7935947Y2076258D01*
X7935947Y2076258D02*
X7948042Y2067791D01*
X7948042Y2067791D02*
X7960137Y2067791D01*
X8056899Y2186325D02*
X8056899Y2042391D01*
X8056899Y2042391D02*
X8050851Y2025458D01*
X8050851Y2025458D02*
X8044804Y2016991D01*
X8044804Y2016991D02*
X8032708Y2008525D01*
X8032708Y2008525D02*
X8014566Y2008525D01*
X8014566Y2008525D02*
X8002470Y2016991D01*
X8056899Y2076258D02*
X8044804Y2067791D01*
X8044804Y2067791D02*
X8020613Y2067791D01*
X8020613Y2067791D02*
X8008518Y2076258D01*
X8008518Y2076258D02*
X8002470Y2084725D01*
X8002470Y2084725D02*
X7996423Y2101658D01*
X7996423Y2101658D02*
X7996423Y2152458D01*
X7996423Y2152458D02*
X8002470Y2169391D01*
X8002470Y2169391D02*
X8008518Y2177858D01*
X8008518Y2177858D02*
X8020613Y2186325D01*
X8020613Y2186325D02*
X8044804Y2186325D01*
X8044804Y2186325D02*
X8056899Y2177858D01*
X8171804Y2067791D02*
X8171804Y2160925D01*
X8171804Y2160925D02*
X8165756Y2177858D01*
X8165756Y2177858D02*
X8153661Y2186325D01*
X8153661Y2186325D02*
X8129470Y2186325D01*
X8129470Y2186325D02*
X8117375Y2177858D01*
X8171804Y2076258D02*
X8159709Y2067791D01*
X8159709Y2067791D02*
X8129470Y2067791D01*
X8129470Y2067791D02*
X8117375Y2076258D01*
X8117375Y2076258D02*
X8111328Y2093191D01*
X8111328Y2093191D02*
X8111328Y2110125D01*
X8111328Y2110125D02*
X8117375Y2127058D01*
X8117375Y2127058D02*
X8129470Y2135525D01*
X8129470Y2135525D02*
X8159709Y2135525D01*
X8159709Y2135525D02*
X8171804Y2143991D01*
X8286709Y2067791D02*
X8286709Y2245591D01*
X8286709Y2076258D02*
X8274613Y2067791D01*
X8274613Y2067791D02*
X8250423Y2067791D01*
X8250423Y2067791D02*
X8238328Y2076258D01*
X8238328Y2076258D02*
X8232280Y2084725D01*
X8232280Y2084725D02*
X8226232Y2101658D01*
X8226232Y2101658D02*
X8226232Y2152458D01*
X8226232Y2152458D02*
X8232280Y2169391D01*
X8232280Y2169391D02*
X8238328Y2177858D01*
X8238328Y2177858D02*
X8250423Y2186325D01*
X8250423Y2186325D02*
X8274613Y2186325D01*
X8274613Y2186325D02*
X8286709Y2177858D01*
X8401613Y2186325D02*
X8401613Y2042391D01*
X8401613Y2042391D02*
X8395566Y2025458D01*
X8395566Y2025458D02*
X8389518Y2016991D01*
X8389518Y2016991D02*
X8377423Y2008525D01*
X8377423Y2008525D02*
X8359280Y2008525D01*
X8359280Y2008525D02*
X8347185Y2016991D01*
X8401613Y2076258D02*
X8389518Y2067791D01*
X8389518Y2067791D02*
X8365328Y2067791D01*
X8365328Y2067791D02*
X8353232Y2076258D01*
X8353232Y2076258D02*
X8347185Y2084725D01*
X8347185Y2084725D02*
X8341137Y2101658D01*
X8341137Y2101658D02*
X8341137Y2152458D01*
X8341137Y2152458D02*
X8347185Y2169391D01*
X8347185Y2169391D02*
X8353232Y2177858D01*
X8353232Y2177858D02*
X8365328Y2186325D01*
X8365328Y2186325D02*
X8389518Y2186325D01*
X8389518Y2186325D02*
X8401613Y2177858D01*
X8510471Y2076258D02*
X8498375Y2067791D01*
X8498375Y2067791D02*
X8474185Y2067791D01*
X8474185Y2067791D02*
X8462090Y2076258D01*
X8462090Y2076258D02*
X8456042Y2093191D01*
X8456042Y2093191D02*
X8456042Y2160925D01*
X8456042Y2160925D02*
X8462090Y2177858D01*
X8462090Y2177858D02*
X8474185Y2186325D01*
X8474185Y2186325D02*
X8498375Y2186325D01*
X8498375Y2186325D02*
X8510471Y2177858D01*
X8510471Y2177858D02*
X8516518Y2160925D01*
X8516518Y2160925D02*
X8516518Y2143991D01*
X8516518Y2143991D02*
X8456042Y2127058D01*
X8552804Y2186325D02*
X8601185Y2186325D01*
X8570947Y2245591D02*
X8570947Y2093191D01*
X8570947Y2093191D02*
X8576994Y2076258D01*
X8576994Y2076258D02*
X8589090Y2067791D01*
X8589090Y2067791D02*
X8601185Y2067791D01*
X8637471Y2076258D02*
X8649566Y2067791D01*
X8649566Y2067791D02*
X8673756Y2067791D01*
X8673756Y2067791D02*
X8685852Y2076258D01*
X8685852Y2076258D02*
X8691899Y2093191D01*
X8691899Y2093191D02*
X8691899Y2101658D01*
X8691899Y2101658D02*
X8685852Y2118591D01*
X8685852Y2118591D02*
X8673756Y2127058D01*
X8673756Y2127058D02*
X8655613Y2127058D01*
X8655613Y2127058D02*
X8643518Y2135525D01*
X8643518Y2135525D02*
X8637471Y2152458D01*
X8637471Y2152458D02*
X8637471Y2160925D01*
X8637471Y2160925D02*
X8643518Y2177858D01*
X8643518Y2177858D02*
X8655613Y2186325D01*
X8655613Y2186325D02*
X8673756Y2186325D01*
X8673756Y2186325D02*
X8685852Y2177858D01*
X8746328Y2084725D02*
X8752375Y2076258D01*
X8752375Y2076258D02*
X8746328Y2067791D01*
X8746328Y2067791D02*
X8740280Y2076258D01*
X8740280Y2076258D02*
X8746328Y2084725D01*
X8746328Y2084725D02*
X8746328Y2067791D01*
X8861232Y2076258D02*
X8849137Y2067791D01*
X8849137Y2067791D02*
X8824947Y2067791D01*
X8824947Y2067791D02*
X8812852Y2076258D01*
X8812852Y2076258D02*
X8806804Y2084725D01*
X8806804Y2084725D02*
X8800756Y2101658D01*
X8800756Y2101658D02*
X8800756Y2152458D01*
X8800756Y2152458D02*
X8806804Y2169391D01*
X8806804Y2169391D02*
X8812852Y2177858D01*
X8812852Y2177858D02*
X8824947Y2186325D01*
X8824947Y2186325D02*
X8849137Y2186325D01*
X8849137Y2186325D02*
X8861232Y2177858D01*
X8933804Y2067791D02*
X8921709Y2076258D01*
X8921709Y2076258D02*
X8915661Y2084725D01*
X8915661Y2084725D02*
X8909613Y2101658D01*
X8909613Y2101658D02*
X8909613Y2152458D01*
X8909613Y2152458D02*
X8915661Y2169391D01*
X8915661Y2169391D02*
X8921709Y2177858D01*
X8921709Y2177858D02*
X8933804Y2186325D01*
X8933804Y2186325D02*
X8951947Y2186325D01*
X8951947Y2186325D02*
X8964042Y2177858D01*
X8964042Y2177858D02*
X8970090Y2169391D01*
X8970090Y2169391D02*
X8976137Y2152458D01*
X8976137Y2152458D02*
X8976137Y2101658D01*
X8976137Y2101658D02*
X8970090Y2084725D01*
X8970090Y2084725D02*
X8964042Y2076258D01*
X8964042Y2076258D02*
X8951947Y2067791D01*
X8951947Y2067791D02*
X8933804Y2067791D01*
X9030566Y2067791D02*
X9030566Y2186325D01*
X9030566Y2169391D02*
X9036613Y2177858D01*
X9036613Y2177858D02*
X9048709Y2186325D01*
X9048709Y2186325D02*
X9066852Y2186325D01*
X9066852Y2186325D02*
X9078947Y2177858D01*
X9078947Y2177858D02*
X9084994Y2160925D01*
X9084994Y2160925D02*
X9084994Y2067791D01*
X9084994Y2160925D02*
X9091042Y2177858D01*
X9091042Y2177858D02*
X9103137Y2186325D01*
X9103137Y2186325D02*
X9121280Y2186325D01*
X9121280Y2186325D02*
X9133375Y2177858D01*
X9133375Y2177858D02*
X9139423Y2160925D01*
X9139423Y2160925D02*
X9139423Y2067791D01*
X9290613Y2254058D02*
X9181756Y2025458D01*
X9332947Y2067791D02*
X9332947Y2245591D01*
X9387375Y2067791D02*
X9387375Y2160925D01*
X9387375Y2160925D02*
X9381328Y2177858D01*
X9381328Y2177858D02*
X9369232Y2186325D01*
X9369232Y2186325D02*
X9351090Y2186325D01*
X9351090Y2186325D02*
X9338994Y2177858D01*
X9338994Y2177858D02*
X9332947Y2169391D01*
X9502280Y2067791D02*
X9502280Y2160925D01*
X9502280Y2160925D02*
X9496232Y2177858D01*
X9496232Y2177858D02*
X9484137Y2186325D01*
X9484137Y2186325D02*
X9459947Y2186325D01*
X9459947Y2186325D02*
X9447851Y2177858D01*
X9502280Y2076258D02*
X9490185Y2067791D01*
X9490185Y2067791D02*
X9459947Y2067791D01*
X9459947Y2067791D02*
X9447851Y2076258D01*
X9447851Y2076258D02*
X9441804Y2093191D01*
X9441804Y2093191D02*
X9441804Y2110125D01*
X9441804Y2110125D02*
X9447851Y2127058D01*
X9447851Y2127058D02*
X9459947Y2135525D01*
X9459947Y2135525D02*
X9490185Y2135525D01*
X9490185Y2135525D02*
X9502280Y2143991D01*
X9617185Y2076258D02*
X9605090Y2067791D01*
X9605090Y2067791D02*
X9580899Y2067791D01*
X9580899Y2067791D02*
X9568804Y2076258D01*
X9568804Y2076258D02*
X9562756Y2084725D01*
X9562756Y2084725D02*
X9556709Y2101658D01*
X9556709Y2101658D02*
X9556709Y2152458D01*
X9556709Y2152458D02*
X9562756Y2169391D01*
X9562756Y2169391D02*
X9568804Y2177858D01*
X9568804Y2177858D02*
X9580899Y2186325D01*
X9580899Y2186325D02*
X9605090Y2186325D01*
X9605090Y2186325D02*
X9617185Y2177858D01*
X9671613Y2067791D02*
X9671613Y2245591D01*
X9683709Y2135525D02*
X9719994Y2067791D01*
X9719994Y2186325D02*
X9671613Y2118591D01*
X9774423Y2067791D02*
X9774423Y2186325D01*
X9774423Y2152458D02*
X9780471Y2169391D01*
X9780471Y2169391D02*
X9786518Y2177858D01*
X9786518Y2177858D02*
X9798613Y2186325D01*
X9798613Y2186325D02*
X9810709Y2186325D01*
X9834899Y2186325D02*
X9883280Y2186325D01*
X9853042Y2067791D02*
X9853042Y2220191D01*
X9853042Y2220191D02*
X9859090Y2237125D01*
X9859090Y2237125D02*
X9871185Y2245591D01*
X9871185Y2245591D02*
X9883280Y2245591D01*
X10016328Y2254058D02*
X9907470Y2025458D01*
D12*
X4510454Y6466674D02*
X4510454Y6394102D01*
X4510454Y6394102D02*
X4506826Y6379588D01*
X4506826Y6379588D02*
X4499569Y6369912D01*
X4499569Y6369912D02*
X4488683Y6365074D01*
X4488683Y6365074D02*
X4481426Y6365074D01*
X4586654Y6365074D02*
X4543111Y6365074D01*
X4564883Y6365074D02*
X4564883Y6466674D01*
X4564883Y6466674D02*
X4557626Y6452159D01*
X4557626Y6452159D02*
X4550369Y6442483D01*
X4550369Y6442483D02*
X4543111Y6437645D01*
X4633826Y6466674D02*
X4641083Y6466674D01*
X4641083Y6466674D02*
X4648340Y6461836D01*
X4648340Y6461836D02*
X4651969Y6456997D01*
X4651969Y6456997D02*
X4655597Y6447321D01*
X4655597Y6447321D02*
X4659226Y6427969D01*
X4659226Y6427969D02*
X4659226Y6403778D01*
X4659226Y6403778D02*
X4655597Y6384426D01*
X4655597Y6384426D02*
X4651969Y6374750D01*
X4651969Y6374750D02*
X4648340Y6369912D01*
X4648340Y6369912D02*
X4641083Y6365074D01*
X4641083Y6365074D02*
X4633826Y6365074D01*
X4633826Y6365074D02*
X4626569Y6369912D01*
X4626569Y6369912D02*
X4622940Y6374750D01*
X4622940Y6374750D02*
X4619311Y6384426D01*
X4619311Y6384426D02*
X4615683Y6403778D01*
X4615683Y6403778D02*
X4615683Y6427969D01*
X4615683Y6427969D02*
X4619311Y6447321D01*
X4619311Y6447321D02*
X4622940Y6456997D01*
X4622940Y6456997D02*
X4626569Y6461836D01*
X4626569Y6461836D02*
X4633826Y6466674D01*
X4514083Y6298265D02*
X4506826Y6303103D01*
X4506826Y6303103D02*
X4495940Y6303103D01*
X4495940Y6303103D02*
X4485054Y6298265D01*
X4485054Y6298265D02*
X4477797Y6288589D01*
X4477797Y6288589D02*
X4474169Y6278913D01*
X4474169Y6278913D02*
X4470540Y6259560D01*
X4470540Y6259560D02*
X4470540Y6245046D01*
X4470540Y6245046D02*
X4474169Y6225694D01*
X4474169Y6225694D02*
X4477797Y6216018D01*
X4477797Y6216018D02*
X4485054Y6206341D01*
X4485054Y6206341D02*
X4495940Y6201503D01*
X4495940Y6201503D02*
X4503197Y6201503D01*
X4503197Y6201503D02*
X4514083Y6206341D01*
X4514083Y6206341D02*
X4517711Y6211179D01*
X4517711Y6211179D02*
X4517711Y6245046D01*
X4517711Y6245046D02*
X4503197Y6245046D01*
X4550369Y6201503D02*
X4550369Y6303103D01*
X4550369Y6303103D02*
X4593911Y6201503D01*
X4593911Y6201503D02*
X4593911Y6303103D01*
X4630197Y6201503D02*
X4630197Y6303103D01*
X4630197Y6303103D02*
X4648340Y6303103D01*
X4648340Y6303103D02*
X4659226Y6298265D01*
X4659226Y6298265D02*
X4666483Y6288589D01*
X4666483Y6288589D02*
X4670111Y6278913D01*
X4670111Y6278913D02*
X4673740Y6259560D01*
X4673740Y6259560D02*
X4673740Y6245046D01*
X4673740Y6245046D02*
X4670111Y6225694D01*
X4670111Y6225694D02*
X4666483Y6216018D01*
X4666483Y6216018D02*
X4659226Y6206341D01*
X4659226Y6206341D02*
X4648340Y6201503D01*
X4648340Y6201503D02*
X4630197Y6201503D01*
D11*
X688678Y7264867D02*
X697145Y7252771D01*
X697145Y7252771D02*
X697145Y7228581D01*
X697145Y7228581D02*
X688678Y7216486D01*
X688678Y7216486D02*
X680211Y7210438D01*
X680211Y7210438D02*
X663278Y7204390D01*
X663278Y7204390D02*
X612478Y7204390D01*
X612478Y7204390D02*
X595545Y7210438D01*
X595545Y7210438D02*
X587078Y7216486D01*
X587078Y7216486D02*
X578611Y7228581D01*
X578611Y7228581D02*
X578611Y7252771D01*
X578611Y7252771D02*
X587078Y7264867D01*
X578611Y7319295D02*
X731011Y7319295D01*
X731011Y7319295D02*
X747945Y7313248D01*
X747945Y7313248D02*
X756411Y7301152D01*
X756411Y7301152D02*
X756411Y7295105D01*
X519345Y7319295D02*
X527811Y7313248D01*
X527811Y7313248D02*
X536278Y7319295D01*
X536278Y7319295D02*
X527811Y7325343D01*
X527811Y7325343D02*
X519345Y7319295D01*
X519345Y7319295D02*
X536278Y7319295D01*
X697145Y7379771D02*
X519345Y7379771D01*
X697145Y7434200D02*
X604011Y7434200D01*
X604011Y7434200D02*
X587078Y7428152D01*
X587078Y7428152D02*
X578611Y7416057D01*
X578611Y7416057D02*
X578611Y7397914D01*
X578611Y7397914D02*
X587078Y7385819D01*
X587078Y7385819D02*
X595545Y7379771D01*
X536278Y7585390D02*
X527811Y7591438D01*
X527811Y7591438D02*
X519345Y7603533D01*
X519345Y7603533D02*
X519345Y7633771D01*
X519345Y7633771D02*
X527811Y7645867D01*
X527811Y7645867D02*
X536278Y7651914D01*
X536278Y7651914D02*
X553211Y7657962D01*
X553211Y7657962D02*
X570145Y7657962D01*
X570145Y7657962D02*
X595545Y7651914D01*
X595545Y7651914D02*
X697145Y7579343D01*
X697145Y7579343D02*
X697145Y7657962D01*
X697145Y7809152D02*
X519345Y7809152D01*
X519345Y7809152D02*
X519345Y7839390D01*
X519345Y7839390D02*
X527811Y7857533D01*
X527811Y7857533D02*
X544745Y7869629D01*
X544745Y7869629D02*
X561678Y7875676D01*
X561678Y7875676D02*
X595545Y7881724D01*
X595545Y7881724D02*
X620945Y7881724D01*
X620945Y7881724D02*
X654811Y7875676D01*
X654811Y7875676D02*
X671745Y7869629D01*
X671745Y7869629D02*
X688678Y7857533D01*
X688678Y7857533D02*
X697145Y7839390D01*
X697145Y7839390D02*
X697145Y7809152D01*
X688678Y7984533D02*
X697145Y7972438D01*
X697145Y7972438D02*
X697145Y7948248D01*
X697145Y7948248D02*
X688678Y7936152D01*
X688678Y7936152D02*
X671745Y7930105D01*
X671745Y7930105D02*
X604011Y7930105D01*
X604011Y7930105D02*
X587078Y7936152D01*
X587078Y7936152D02*
X578611Y7948248D01*
X578611Y7948248D02*
X578611Y7972438D01*
X578611Y7972438D02*
X587078Y7984533D01*
X587078Y7984533D02*
X604011Y7990581D01*
X604011Y7990581D02*
X620945Y7990581D01*
X620945Y7990581D02*
X637878Y7930105D01*
X688678Y8099438D02*
X697145Y8087343D01*
X697145Y8087343D02*
X697145Y8063152D01*
X697145Y8063152D02*
X688678Y8051057D01*
X688678Y8051057D02*
X680211Y8045009D01*
X680211Y8045009D02*
X663278Y8038962D01*
X663278Y8038962D02*
X612478Y8038962D01*
X612478Y8038962D02*
X595545Y8045009D01*
X595545Y8045009D02*
X587078Y8051057D01*
X587078Y8051057D02*
X578611Y8063152D01*
X578611Y8063152D02*
X578611Y8087343D01*
X578611Y8087343D02*
X587078Y8099438D01*
X536278Y8244581D02*
X527811Y8250628D01*
X527811Y8250628D02*
X519345Y8262724D01*
X519345Y8262724D02*
X519345Y8292962D01*
X519345Y8292962D02*
X527811Y8305057D01*
X527811Y8305057D02*
X536278Y8311105D01*
X536278Y8311105D02*
X553211Y8317152D01*
X553211Y8317152D02*
X570145Y8317152D01*
X570145Y8317152D02*
X595545Y8311105D01*
X595545Y8311105D02*
X697145Y8238533D01*
X697145Y8238533D02*
X697145Y8317152D01*
X519345Y8395771D02*
X519345Y8407867D01*
X519345Y8407867D02*
X527811Y8419962D01*
X527811Y8419962D02*
X536278Y8426010D01*
X536278Y8426010D02*
X553211Y8432057D01*
X553211Y8432057D02*
X587078Y8438105D01*
X587078Y8438105D02*
X629411Y8438105D01*
X629411Y8438105D02*
X663278Y8432057D01*
X663278Y8432057D02*
X680211Y8426010D01*
X680211Y8426010D02*
X688678Y8419962D01*
X688678Y8419962D02*
X697145Y8407867D01*
X697145Y8407867D02*
X697145Y8395771D01*
X697145Y8395771D02*
X688678Y8383676D01*
X688678Y8383676D02*
X680211Y8377629D01*
X680211Y8377629D02*
X663278Y8371581D01*
X663278Y8371581D02*
X629411Y8365533D01*
X629411Y8365533D02*
X587078Y8365533D01*
X587078Y8365533D02*
X553211Y8371581D01*
X553211Y8371581D02*
X536278Y8377629D01*
X536278Y8377629D02*
X527811Y8383676D01*
X527811Y8383676D02*
X519345Y8395771D01*
X536278Y8486486D02*
X527811Y8492533D01*
X527811Y8492533D02*
X519345Y8504629D01*
X519345Y8504629D02*
X519345Y8534867D01*
X519345Y8534867D02*
X527811Y8546962D01*
X527811Y8546962D02*
X536278Y8553010D01*
X536278Y8553010D02*
X553211Y8559057D01*
X553211Y8559057D02*
X570145Y8559057D01*
X570145Y8559057D02*
X595545Y8553010D01*
X595545Y8553010D02*
X697145Y8480438D01*
X697145Y8480438D02*
X697145Y8559057D01*
X578611Y8667914D02*
X697145Y8667914D01*
X510878Y8637676D02*
X637878Y8607438D01*
X637878Y8607438D02*
X637878Y8686057D01*
X983393Y7140890D02*
X805593Y7140890D01*
X805593Y7140890D02*
X932593Y7183224D01*
X932593Y7183224D02*
X805593Y7225557D01*
X805593Y7225557D02*
X983393Y7225557D01*
X983393Y7340462D02*
X890259Y7340462D01*
X890259Y7340462D02*
X873326Y7334414D01*
X873326Y7334414D02*
X864859Y7322319D01*
X864859Y7322319D02*
X864859Y7298129D01*
X864859Y7298129D02*
X873326Y7286033D01*
X974926Y7340462D02*
X983393Y7328367D01*
X983393Y7328367D02*
X983393Y7298129D01*
X983393Y7298129D02*
X974926Y7286033D01*
X974926Y7286033D02*
X957993Y7279986D01*
X957993Y7279986D02*
X941059Y7279986D01*
X941059Y7279986D02*
X924126Y7286033D01*
X924126Y7286033D02*
X915659Y7298129D01*
X915659Y7298129D02*
X915659Y7328367D01*
X915659Y7328367D02*
X907193Y7340462D01*
X983393Y7455367D02*
X805593Y7455367D01*
X974926Y7455367D02*
X983393Y7443272D01*
X983393Y7443272D02*
X983393Y7419081D01*
X983393Y7419081D02*
X974926Y7406986D01*
X974926Y7406986D02*
X966459Y7400938D01*
X966459Y7400938D02*
X949526Y7394891D01*
X949526Y7394891D02*
X898726Y7394891D01*
X898726Y7394891D02*
X881793Y7400938D01*
X881793Y7400938D02*
X873326Y7406986D01*
X873326Y7406986D02*
X864859Y7419081D01*
X864859Y7419081D02*
X864859Y7443272D01*
X864859Y7443272D02*
X873326Y7455367D01*
X974926Y7564224D02*
X983393Y7552129D01*
X983393Y7552129D02*
X983393Y7527938D01*
X983393Y7527938D02*
X974926Y7515843D01*
X974926Y7515843D02*
X957993Y7509795D01*
X957993Y7509795D02*
X890259Y7509795D01*
X890259Y7509795D02*
X873326Y7515843D01*
X873326Y7515843D02*
X864859Y7527938D01*
X864859Y7527938D02*
X864859Y7552129D01*
X864859Y7552129D02*
X873326Y7564224D01*
X873326Y7564224D02*
X890259Y7570272D01*
X890259Y7570272D02*
X907193Y7570272D01*
X907193Y7570272D02*
X924126Y7509795D01*
X983393Y7721462D02*
X805593Y7721462D01*
X873326Y7721462D02*
X864859Y7733557D01*
X864859Y7733557D02*
X864859Y7757748D01*
X864859Y7757748D02*
X873326Y7769843D01*
X873326Y7769843D02*
X881793Y7775891D01*
X881793Y7775891D02*
X898726Y7781938D01*
X898726Y7781938D02*
X949526Y7781938D01*
X949526Y7781938D02*
X966459Y7775891D01*
X966459Y7775891D02*
X974926Y7769843D01*
X974926Y7769843D02*
X983393Y7757748D01*
X983393Y7757748D02*
X983393Y7733557D01*
X983393Y7733557D02*
X974926Y7721462D01*
X864859Y7824272D02*
X983393Y7854510D01*
X864859Y7884748D02*
X983393Y7854510D01*
X983393Y7854510D02*
X1025726Y7842414D01*
X1025726Y7842414D02*
X1034193Y7836367D01*
X1034193Y7836367D02*
X1042659Y7824272D01*
X974926Y8023843D02*
X983393Y8035938D01*
X983393Y8035938D02*
X983393Y8060129D01*
X983393Y8060129D02*
X974926Y8072224D01*
X974926Y8072224D02*
X957993Y8078272D01*
X957993Y8078272D02*
X949526Y8078272D01*
X949526Y8078272D02*
X932593Y8072224D01*
X932593Y8072224D02*
X924126Y8060129D01*
X924126Y8060129D02*
X924126Y8041986D01*
X924126Y8041986D02*
X915659Y8029891D01*
X915659Y8029891D02*
X898726Y8023843D01*
X898726Y8023843D02*
X890259Y8023843D01*
X890259Y8023843D02*
X873326Y8029891D01*
X873326Y8029891D02*
X864859Y8041986D01*
X864859Y8041986D02*
X864859Y8060129D01*
X864859Y8060129D02*
X873326Y8072224D01*
X864859Y8120605D02*
X864859Y8187129D01*
X864859Y8187129D02*
X983393Y8120605D01*
X983393Y8120605D02*
X983393Y8187129D01*
X974926Y8289938D02*
X983393Y8277843D01*
X983393Y8277843D02*
X983393Y8253652D01*
X983393Y8253652D02*
X974926Y8241557D01*
X974926Y8241557D02*
X966459Y8235510D01*
X966459Y8235510D02*
X949526Y8229462D01*
X949526Y8229462D02*
X898726Y8229462D01*
X898726Y8229462D02*
X881793Y8235510D01*
X881793Y8235510D02*
X873326Y8241557D01*
X873326Y8241557D02*
X864859Y8253652D01*
X864859Y8253652D02*
X864859Y8277843D01*
X864859Y8277843D02*
X873326Y8289938D01*
X983393Y8344367D02*
X805593Y8344367D01*
X915659Y8356462D02*
X983393Y8392748D01*
X864859Y8392748D02*
X932593Y8344367D01*
X864859Y8429033D02*
X864859Y8477414D01*
X805593Y8447176D02*
X957993Y8447176D01*
X957993Y8447176D02*
X974926Y8453224D01*
X974926Y8453224D02*
X983393Y8465319D01*
X983393Y8465319D02*
X983393Y8477414D01*
X966459Y8519748D02*
X974926Y8525795D01*
X974926Y8525795D02*
X983393Y8519748D01*
X983393Y8519748D02*
X974926Y8513700D01*
X974926Y8513700D02*
X966459Y8519748D01*
X966459Y8519748D02*
X983393Y8519748D01*
X974926Y8634652D02*
X983393Y8622557D01*
X983393Y8622557D02*
X983393Y8598367D01*
X983393Y8598367D02*
X974926Y8586272D01*
X974926Y8586272D02*
X966459Y8580224D01*
X966459Y8580224D02*
X949526Y8574176D01*
X949526Y8574176D02*
X898726Y8574176D01*
X898726Y8574176D02*
X881793Y8580224D01*
X881793Y8580224D02*
X873326Y8586272D01*
X873326Y8586272D02*
X864859Y8598367D01*
X864859Y8598367D02*
X864859Y8622557D01*
X864859Y8622557D02*
X873326Y8634652D01*
X864859Y8689081D02*
X983393Y8689081D01*
X881793Y8689081D02*
X873326Y8695129D01*
X873326Y8695129D02*
X864859Y8707224D01*
X864859Y8707224D02*
X864859Y8725367D01*
X864859Y8725367D02*
X873326Y8737462D01*
X873326Y8737462D02*
X890259Y8743510D01*
X890259Y8743510D02*
X983393Y8743510D01*
D12*
X1744757Y8193369D02*
X1744757Y8294969D01*
X1744757Y8294969D02*
X1773786Y8294969D01*
X1773786Y8294969D02*
X1781043Y8290130D01*
X1781043Y8290130D02*
X1784671Y8285292D01*
X1784671Y8285292D02*
X1788300Y8275616D01*
X1788300Y8275616D02*
X1788300Y8261102D01*
X1788300Y8261102D02*
X1784671Y8251426D01*
X1784671Y8251426D02*
X1781043Y8246588D01*
X1781043Y8246588D02*
X1773786Y8241749D01*
X1773786Y8241749D02*
X1744757Y8241749D01*
X1857243Y8294969D02*
X1820957Y8294969D01*
X1820957Y8294969D02*
X1817328Y8246588D01*
X1817328Y8246588D02*
X1820957Y8251426D01*
X1820957Y8251426D02*
X1828214Y8256264D01*
X1828214Y8256264D02*
X1846357Y8256264D01*
X1846357Y8256264D02*
X1853614Y8251426D01*
X1853614Y8251426D02*
X1857243Y8246588D01*
X1857243Y8246588D02*
X1860871Y8236911D01*
X1860871Y8236911D02*
X1860871Y8212721D01*
X1860871Y8212721D02*
X1857243Y8203045D01*
X1857243Y8203045D02*
X1853614Y8198207D01*
X1853614Y8198207D02*
X1846357Y8193369D01*
X1846357Y8193369D02*
X1828214Y8193369D01*
X1828214Y8193369D02*
X1820957Y8198207D01*
X1820957Y8198207D02*
X1817328Y8203045D01*
X6993757Y8145774D02*
X6993757Y8247374D01*
X6993757Y8247374D02*
X7022786Y8247374D01*
X7022786Y8247374D02*
X7030043Y8242536D01*
X7030043Y8242536D02*
X7033671Y8237697D01*
X7033671Y8237697D02*
X7037300Y8228021D01*
X7037300Y8228021D02*
X7037300Y8213507D01*
X7037300Y8213507D02*
X7033671Y8203831D01*
X7033671Y8203831D02*
X7030043Y8198993D01*
X7030043Y8198993D02*
X7022786Y8194155D01*
X7022786Y8194155D02*
X6993757Y8194155D01*
X7109871Y8145774D02*
X7066328Y8145774D01*
X7088100Y8145774D02*
X7088100Y8247374D01*
X7088100Y8247374D02*
X7080843Y8232859D01*
X7080843Y8232859D02*
X7073586Y8223183D01*
X7073586Y8223183D02*
X7066328Y8218345D01*
X7002829Y7982203D02*
X6959286Y7982203D01*
X6981057Y7982203D02*
X6981057Y8083803D01*
X6981057Y8083803D02*
X6973800Y8069289D01*
X6973800Y8069289D02*
X6966543Y8059613D01*
X6966543Y8059613D02*
X6959286Y8054775D01*
X7024600Y8083803D02*
X7050000Y7982203D01*
X7050000Y7982203D02*
X7075400Y8083803D01*
X7111686Y8040260D02*
X7104429Y8045099D01*
X7104429Y8045099D02*
X7100800Y8049937D01*
X7100800Y8049937D02*
X7097171Y8059613D01*
X7097171Y8059613D02*
X7097171Y8064451D01*
X7097171Y8064451D02*
X7100800Y8074127D01*
X7100800Y8074127D02*
X7104429Y8078965D01*
X7104429Y8078965D02*
X7111686Y8083803D01*
X7111686Y8083803D02*
X7126200Y8083803D01*
X7126200Y8083803D02*
X7133457Y8078965D01*
X7133457Y8078965D02*
X7137086Y8074127D01*
X7137086Y8074127D02*
X7140714Y8064451D01*
X7140714Y8064451D02*
X7140714Y8059613D01*
X7140714Y8059613D02*
X7137086Y8049937D01*
X7137086Y8049937D02*
X7133457Y8045099D01*
X7133457Y8045099D02*
X7126200Y8040260D01*
X7126200Y8040260D02*
X7111686Y8040260D01*
X7111686Y8040260D02*
X7104429Y8035422D01*
X7104429Y8035422D02*
X7100800Y8030584D01*
X7100800Y8030584D02*
X7097171Y8020908D01*
X7097171Y8020908D02*
X7097171Y8001556D01*
X7097171Y8001556D02*
X7100800Y7991879D01*
X7100800Y7991879D02*
X7104429Y7987041D01*
X7104429Y7987041D02*
X7111686Y7982203D01*
X7111686Y7982203D02*
X7126200Y7982203D01*
X7126200Y7982203D02*
X7133457Y7987041D01*
X7133457Y7987041D02*
X7137086Y7991879D01*
X7137086Y7991879D02*
X7140714Y8001556D01*
X7140714Y8001556D02*
X7140714Y8020908D01*
X7140714Y8020908D02*
X7137086Y8030584D01*
X7137086Y8030584D02*
X7133457Y8035422D01*
X7133457Y8035422D02*
X7126200Y8040260D01*
X-403989Y8019329D02*
X-452369Y7993929D01*
X-403989Y7975786D02*
X-505589Y7975786D01*
X-505589Y7975786D02*
X-505589Y8004814D01*
X-505589Y8004814D02*
X-500750Y8012071D01*
X-500750Y8012071D02*
X-495912Y8015700D01*
X-495912Y8015700D02*
X-486236Y8019329D01*
X-486236Y8019329D02*
X-471722Y8019329D01*
X-471722Y8019329D02*
X-462046Y8015700D01*
X-462046Y8015700D02*
X-457208Y8012071D01*
X-457208Y8012071D02*
X-452369Y8004814D01*
X-452369Y8004814D02*
X-452369Y7975786D01*
X-457208Y8051986D02*
X-457208Y8077386D01*
X-403989Y8088271D02*
X-403989Y8051986D01*
X-403989Y8051986D02*
X-505589Y8051986D01*
X-505589Y8051986D02*
X-505589Y8088271D01*
X-408827Y8117300D02*
X-403989Y8128186D01*
X-403989Y8128186D02*
X-403989Y8146329D01*
X-403989Y8146329D02*
X-408827Y8153586D01*
X-408827Y8153586D02*
X-413665Y8157214D01*
X-413665Y8157214D02*
X-423341Y8160843D01*
X-423341Y8160843D02*
X-433017Y8160843D01*
X-433017Y8160843D02*
X-442693Y8157214D01*
X-442693Y8157214D02*
X-447531Y8153586D01*
X-447531Y8153586D02*
X-452369Y8146329D01*
X-452369Y8146329D02*
X-457208Y8131814D01*
X-457208Y8131814D02*
X-462046Y8124557D01*
X-462046Y8124557D02*
X-466884Y8120929D01*
X-466884Y8120929D02*
X-476560Y8117300D01*
X-476560Y8117300D02*
X-486236Y8117300D01*
X-486236Y8117300D02*
X-495912Y8120929D01*
X-495912Y8120929D02*
X-500750Y8124557D01*
X-500750Y8124557D02*
X-505589Y8131814D01*
X-505589Y8131814D02*
X-505589Y8149957D01*
X-505589Y8149957D02*
X-500750Y8160843D01*
X-457208Y8193500D02*
X-457208Y8218900D01*
X-403989Y8229786D02*
X-403989Y8193500D01*
X-403989Y8193500D02*
X-505589Y8193500D01*
X-505589Y8193500D02*
X-505589Y8229786D01*
X-505589Y8251557D02*
X-505589Y8295100D01*
X-403989Y8273329D02*
X-505589Y8273329D01*
D13*
X-100021Y7828626D02*
X-100021Y7872169D01*
X-23821Y7850397D02*
X-100021Y7850397D01*
X-23821Y7897569D02*
X-100021Y7897569D01*
X-100021Y7897569D02*
X-45592Y7922969D01*
X-45592Y7922969D02*
X-100021Y7948369D01*
X-100021Y7948369D02*
X-23821Y7948369D01*
D12*
X847411Y6730834D02*
X847411Y6832434D01*
X847411Y6832434D02*
X876440Y6832434D01*
X876440Y6832434D02*
X883697Y6827596D01*
X883697Y6827596D02*
X887326Y6822757D01*
X887326Y6822757D02*
X890954Y6813081D01*
X890954Y6813081D02*
X890954Y6798567D01*
X890954Y6798567D02*
X887326Y6788891D01*
X887326Y6788891D02*
X883697Y6784053D01*
X883697Y6784053D02*
X876440Y6779215D01*
X876440Y6779215D02*
X847411Y6779215D01*
X916354Y6832434D02*
X963526Y6832434D01*
X963526Y6832434D02*
X938126Y6793729D01*
X938126Y6793729D02*
X949011Y6793729D01*
X949011Y6793729D02*
X956269Y6788891D01*
X956269Y6788891D02*
X959897Y6784053D01*
X959897Y6784053D02*
X963526Y6774376D01*
X963526Y6774376D02*
X963526Y6750186D01*
X963526Y6750186D02*
X959897Y6740510D01*
X959897Y6740510D02*
X956269Y6735672D01*
X956269Y6735672D02*
X949011Y6730834D01*
X949011Y6730834D02*
X927240Y6730834D01*
X927240Y6730834D02*
X919983Y6735672D01*
X919983Y6735672D02*
X916354Y6740510D01*
X1028840Y6832434D02*
X1014326Y6832434D01*
X1014326Y6832434D02*
X1007068Y6827596D01*
X1007068Y6827596D02*
X1003440Y6822757D01*
X1003440Y6822757D02*
X996183Y6808243D01*
X996183Y6808243D02*
X992554Y6788891D01*
X992554Y6788891D02*
X992554Y6750186D01*
X992554Y6750186D02*
X996183Y6740510D01*
X996183Y6740510D02*
X999811Y6735672D01*
X999811Y6735672D02*
X1007068Y6730834D01*
X1007068Y6730834D02*
X1021583Y6730834D01*
X1021583Y6730834D02*
X1028840Y6735672D01*
X1028840Y6735672D02*
X1032468Y6740510D01*
X1032468Y6740510D02*
X1036097Y6750186D01*
X1036097Y6750186D02*
X1036097Y6774376D01*
X1036097Y6774376D02*
X1032468Y6784053D01*
X1032468Y6784053D02*
X1028840Y6788891D01*
X1028840Y6788891D02*
X1021583Y6793729D01*
X1021583Y6793729D02*
X1007068Y6793729D01*
X1007068Y6793729D02*
X999811Y6788891D01*
X999811Y6788891D02*
X996183Y6784053D01*
X996183Y6784053D02*
X992554Y6774376D01*
X849226Y6668863D02*
X874626Y6567263D01*
X874626Y6567263D02*
X900026Y6668863D01*
X921797Y6596292D02*
X958083Y6596292D01*
X914540Y6567263D02*
X939940Y6668863D01*
X939940Y6668863D02*
X965340Y6567263D01*
X987111Y6596292D02*
X1023397Y6596292D01*
X979854Y6567263D02*
X1005254Y6668863D01*
X1005254Y6668863D02*
X1030654Y6567263D01*
D14*
X461838Y6204114D02*
X55438Y6204114D01*
X248962Y6204114D02*
X248962Y6378286D01*
X461838Y6378286D02*
X55438Y6378286D01*
X461838Y6654057D02*
X248962Y6654057D01*
X248962Y6654057D02*
X210257Y6639543D01*
X210257Y6639543D02*
X190905Y6610514D01*
X190905Y6610514D02*
X190905Y6552457D01*
X190905Y6552457D02*
X210257Y6523429D01*
X442486Y6654057D02*
X461838Y6625029D01*
X461838Y6625029D02*
X461838Y6552457D01*
X461838Y6552457D02*
X442486Y6523429D01*
X442486Y6523429D02*
X403781Y6508914D01*
X403781Y6508914D02*
X365076Y6508914D01*
X365076Y6508914D02*
X326372Y6523429D01*
X326372Y6523429D02*
X307019Y6552457D01*
X307019Y6552457D02*
X307019Y6625029D01*
X307019Y6625029D02*
X287667Y6654057D01*
X442486Y6929829D02*
X461838Y6900800D01*
X461838Y6900800D02*
X461838Y6842743D01*
X461838Y6842743D02*
X442486Y6813714D01*
X442486Y6813714D02*
X423134Y6799200D01*
X423134Y6799200D02*
X384429Y6784686D01*
X384429Y6784686D02*
X268315Y6784686D01*
X268315Y6784686D02*
X229610Y6799200D01*
X229610Y6799200D02*
X210257Y6813714D01*
X210257Y6813714D02*
X190905Y6842743D01*
X190905Y6842743D02*
X190905Y6900800D01*
X190905Y6900800D02*
X210257Y6929829D01*
X461838Y7060457D02*
X55438Y7060457D01*
X307019Y7089486D02*
X461838Y7176571D01*
X190905Y7176571D02*
X345724Y7060457D01*
X461838Y7481371D02*
X268315Y7379771D01*
X461838Y7307200D02*
X55438Y7307200D01*
X55438Y7307200D02*
X55438Y7423314D01*
X55438Y7423314D02*
X74791Y7452343D01*
X74791Y7452343D02*
X94143Y7466857D01*
X94143Y7466857D02*
X132848Y7481371D01*
X132848Y7481371D02*
X190905Y7481371D01*
X190905Y7481371D02*
X229610Y7466857D01*
X229610Y7466857D02*
X248962Y7452343D01*
X248962Y7452343D02*
X268315Y7423314D01*
X268315Y7423314D02*
X268315Y7307200D01*
X248962Y7713600D02*
X248962Y7612000D01*
X461838Y7612000D02*
X55438Y7612000D01*
X55438Y7612000D02*
X55438Y7757143D01*
X55438Y8163543D02*
X55438Y8221600D01*
X55438Y8221600D02*
X74791Y8250629D01*
X74791Y8250629D02*
X113495Y8279657D01*
X113495Y8279657D02*
X190905Y8294171D01*
X190905Y8294171D02*
X326372Y8294171D01*
X326372Y8294171D02*
X403781Y8279657D01*
X403781Y8279657D02*
X442486Y8250629D01*
X442486Y8250629D02*
X461838Y8221600D01*
X461838Y8221600D02*
X461838Y8163543D01*
X461838Y8163543D02*
X442486Y8134514D01*
X442486Y8134514D02*
X403781Y8105486D01*
X403781Y8105486D02*
X326372Y8090971D01*
X326372Y8090971D02*
X190905Y8090971D01*
X190905Y8090971D02*
X113495Y8105486D01*
X113495Y8105486D02*
X74791Y8134514D01*
X74791Y8134514D02*
X55438Y8163543D01*
X190905Y8424800D02*
X461838Y8424800D01*
X229610Y8424800D02*
X210257Y8439314D01*
X210257Y8439314D02*
X190905Y8468343D01*
X190905Y8468343D02*
X190905Y8511886D01*
X190905Y8511886D02*
X210257Y8540914D01*
X210257Y8540914D02*
X248962Y8555429D01*
X248962Y8555429D02*
X461838Y8555429D01*
X442486Y8816686D02*
X461838Y8787657D01*
X461838Y8787657D02*
X461838Y8729600D01*
X461838Y8729600D02*
X442486Y8700572D01*
X442486Y8700572D02*
X403781Y8686057D01*
X403781Y8686057D02*
X248962Y8686057D01*
X248962Y8686057D02*
X210257Y8700572D01*
X210257Y8700572D02*
X190905Y8729600D01*
X190905Y8729600D02*
X190905Y8787657D01*
X190905Y8787657D02*
X210257Y8816686D01*
X210257Y8816686D02*
X248962Y8831200D01*
X248962Y8831200D02*
X287667Y8831200D01*
X287667Y8831200D02*
X326372Y8686057D01*
D12*
X-667589Y5179043D02*
X-585341Y5179043D01*
X-585341Y5179043D02*
X-575665Y5182672D01*
X-575665Y5182672D02*
X-570827Y5186300D01*
X-570827Y5186300D02*
X-565989Y5193557D01*
X-565989Y5193557D02*
X-565989Y5208072D01*
X-565989Y5208072D02*
X-570827Y5215329D01*
X-570827Y5215329D02*
X-575665Y5218957D01*
X-575665Y5218957D02*
X-585341Y5222586D01*
X-585341Y5222586D02*
X-667589Y5222586D01*
X-570827Y5255243D02*
X-565989Y5266129D01*
X-565989Y5266129D02*
X-565989Y5284272D01*
X-565989Y5284272D02*
X-570827Y5291529D01*
X-570827Y5291529D02*
X-575665Y5295157D01*
X-575665Y5295157D02*
X-585341Y5298786D01*
X-585341Y5298786D02*
X-595017Y5298786D01*
X-595017Y5298786D02*
X-604693Y5295157D01*
X-604693Y5295157D02*
X-609531Y5291529D01*
X-609531Y5291529D02*
X-614370Y5284272D01*
X-614370Y5284272D02*
X-619208Y5269757D01*
X-619208Y5269757D02*
X-624046Y5262500D01*
X-624046Y5262500D02*
X-628884Y5258872D01*
X-628884Y5258872D02*
X-638560Y5255243D01*
X-638560Y5255243D02*
X-648236Y5255243D01*
X-648236Y5255243D02*
X-657912Y5258872D01*
X-657912Y5258872D02*
X-662751Y5262500D01*
X-662751Y5262500D02*
X-667589Y5269757D01*
X-667589Y5269757D02*
X-667589Y5287900D01*
X-667589Y5287900D02*
X-662751Y5298786D01*
X-619208Y5356843D02*
X-614370Y5367729D01*
X-614370Y5367729D02*
X-609531Y5371357D01*
X-609531Y5371357D02*
X-599855Y5374986D01*
X-599855Y5374986D02*
X-585341Y5374986D01*
X-585341Y5374986D02*
X-575665Y5371357D01*
X-575665Y5371357D02*
X-570827Y5367729D01*
X-570827Y5367729D02*
X-565989Y5360472D01*
X-565989Y5360472D02*
X-565989Y5331443D01*
X-565989Y5331443D02*
X-667589Y5331443D01*
X-667589Y5331443D02*
X-667589Y5356843D01*
X-667589Y5356843D02*
X-662751Y5364100D01*
X-662751Y5364100D02*
X-657912Y5367729D01*
X-657912Y5367729D02*
X-648236Y5371357D01*
X-648236Y5371357D02*
X-638560Y5371357D01*
X-638560Y5371357D02*
X-628884Y5367729D01*
X-628884Y5367729D02*
X-624046Y5364100D01*
X-624046Y5364100D02*
X-619208Y5356843D01*
X-619208Y5356843D02*
X-619208Y5331443D01*
X9705771Y4722932D02*
X9604171Y4722932D01*
X9604171Y4722932D02*
X9604171Y4751960D01*
X9604171Y4751960D02*
X9609010Y4759217D01*
X9609010Y4759217D02*
X9613848Y4762846D01*
X9613848Y4762846D02*
X9623524Y4766474D01*
X9623524Y4766474D02*
X9638038Y4766474D01*
X9638038Y4766474D02*
X9647714Y4762846D01*
X9647714Y4762846D02*
X9652552Y4759217D01*
X9652552Y4759217D02*
X9657391Y4751960D01*
X9657391Y4751960D02*
X9657391Y4722932D01*
X9613848Y4795503D02*
X9609010Y4799132D01*
X9609010Y4799132D02*
X9604171Y4806389D01*
X9604171Y4806389D02*
X9604171Y4824532D01*
X9604171Y4824532D02*
X9609010Y4831789D01*
X9609010Y4831789D02*
X9613848Y4835417D01*
X9613848Y4835417D02*
X9623524Y4839046D01*
X9623524Y4839046D02*
X9633200Y4839046D01*
X9633200Y4839046D02*
X9647714Y4835417D01*
X9647714Y4835417D02*
X9705771Y4791874D01*
X9705771Y4791874D02*
X9705771Y4839046D01*
X9604171Y4886217D02*
X9604171Y4893474D01*
X9604171Y4893474D02*
X9609010Y4900732D01*
X9609010Y4900732D02*
X9613848Y4904360D01*
X9613848Y4904360D02*
X9623524Y4907989D01*
X9623524Y4907989D02*
X9642876Y4911617D01*
X9642876Y4911617D02*
X9667067Y4911617D01*
X9667067Y4911617D02*
X9686419Y4907989D01*
X9686419Y4907989D02*
X9696095Y4904360D01*
X9696095Y4904360D02*
X9700933Y4900732D01*
X9700933Y4900732D02*
X9705771Y4893474D01*
X9705771Y4893474D02*
X9705771Y4886217D01*
X9705771Y4886217D02*
X9700933Y4878960D01*
X9700933Y4878960D02*
X9696095Y4875332D01*
X9696095Y4875332D02*
X9686419Y4871703D01*
X9686419Y4871703D02*
X9667067Y4868074D01*
X9667067Y4868074D02*
X9642876Y4868074D01*
X9642876Y4868074D02*
X9623524Y4871703D01*
X9623524Y4871703D02*
X9613848Y4875332D01*
X9613848Y4875332D02*
X9609010Y4878960D01*
X9609010Y4878960D02*
X9604171Y4886217D01*
X-565989Y6142429D02*
X-565989Y6098886D01*
X-565989Y6120657D02*
X-667589Y6120657D01*
X-667589Y6120657D02*
X-653074Y6113400D01*
X-653074Y6113400D02*
X-643398Y6106143D01*
X-643398Y6106143D02*
X-638560Y6098886D01*
X-667589Y6164200D02*
X-565989Y6189600D01*
X-565989Y6189600D02*
X-667589Y6215000D01*
X-624046Y6251286D02*
X-628884Y6244029D01*
X-628884Y6244029D02*
X-633722Y6240400D01*
X-633722Y6240400D02*
X-643398Y6236771D01*
X-643398Y6236771D02*
X-648236Y6236771D01*
X-648236Y6236771D02*
X-657912Y6240400D01*
X-657912Y6240400D02*
X-662751Y6244029D01*
X-662751Y6244029D02*
X-667589Y6251286D01*
X-667589Y6251286D02*
X-667589Y6265800D01*
X-667589Y6265800D02*
X-662751Y6273057D01*
X-662751Y6273057D02*
X-657912Y6276686D01*
X-657912Y6276686D02*
X-648236Y6280314D01*
X-648236Y6280314D02*
X-643398Y6280314D01*
X-643398Y6280314D02*
X-633722Y6276686D01*
X-633722Y6276686D02*
X-628884Y6273057D01*
X-628884Y6273057D02*
X-624046Y6265800D01*
X-624046Y6265800D02*
X-624046Y6251286D01*
X-624046Y6251286D02*
X-619208Y6244029D01*
X-619208Y6244029D02*
X-614370Y6240400D01*
X-614370Y6240400D02*
X-604693Y6236771D01*
X-604693Y6236771D02*
X-585341Y6236771D01*
X-585341Y6236771D02*
X-575665Y6240400D01*
X-575665Y6240400D02*
X-570827Y6244029D01*
X-570827Y6244029D02*
X-565989Y6251286D01*
X-565989Y6251286D02*
X-565989Y6265800D01*
X-565989Y6265800D02*
X-570827Y6273057D01*
X-570827Y6273057D02*
X-575665Y6276686D01*
X-575665Y6276686D02*
X-585341Y6280314D01*
X-585341Y6280314D02*
X-604693Y6280314D01*
X-604693Y6280314D02*
X-614370Y6276686D01*
X-614370Y6276686D02*
X-619208Y6273057D01*
X-619208Y6273057D02*
X-624046Y6265800D01*
X-919554Y3875297D02*
X-1021154Y3875297D01*
X-1021154Y3875297D02*
X-1021154Y3904326D01*
X-1021154Y3904326D02*
X-1016316Y3911583D01*
X-1016316Y3911583D02*
X-1011477Y3915211D01*
X-1011477Y3915211D02*
X-1001801Y3918840D01*
X-1001801Y3918840D02*
X-987287Y3918840D01*
X-987287Y3918840D02*
X-977611Y3915211D01*
X-977611Y3915211D02*
X-972773Y3911583D01*
X-972773Y3911583D02*
X-967935Y3904326D01*
X-967935Y3904326D02*
X-967935Y3875297D01*
X-987287Y3984154D02*
X-919554Y3984154D01*
X-1025992Y3966011D02*
X-953420Y3947869D01*
X-953420Y3947869D02*
X-953420Y3995040D01*
X-785012Y3697497D02*
X-785012Y3733783D01*
X-755983Y3690240D02*
X-857583Y3715640D01*
X-857583Y3715640D02*
X-755983Y3741040D01*
X-755983Y3766440D02*
X-857583Y3766440D01*
X-857583Y3766440D02*
X-755983Y3809983D01*
X-755983Y3809983D02*
X-857583Y3809983D01*
X-857583Y3835383D02*
X-857583Y3878926D01*
X-755983Y3857154D02*
X-857583Y3857154D01*
X-809202Y3904326D02*
X-809202Y3929726D01*
X-755983Y3940611D02*
X-755983Y3904326D01*
X-755983Y3904326D02*
X-857583Y3904326D01*
X-857583Y3904326D02*
X-857583Y3940611D01*
X-755983Y3973269D02*
X-857583Y3973269D01*
X-857583Y3973269D02*
X-755983Y4016811D01*
X-755983Y4016811D02*
X-857583Y4016811D01*
X-755983Y4053097D02*
X-857583Y4053097D01*
X-857583Y4053097D02*
X-755983Y4096640D01*
X-755983Y4096640D02*
X-857583Y4096640D01*
X-785012Y4129297D02*
X-785012Y4165583D01*
X-755983Y4122040D02*
X-857583Y4147440D01*
X-857583Y4147440D02*
X-755983Y4172840D01*
X-667589Y7390657D02*
X-667589Y7437829D01*
X-667589Y7437829D02*
X-628884Y7412429D01*
X-628884Y7412429D02*
X-628884Y7423314D01*
X-628884Y7423314D02*
X-624046Y7430571D01*
X-624046Y7430571D02*
X-619208Y7434200D01*
X-619208Y7434200D02*
X-609531Y7437829D01*
X-609531Y7437829D02*
X-585341Y7437829D01*
X-585341Y7437829D02*
X-575665Y7434200D01*
X-575665Y7434200D02*
X-570827Y7430571D01*
X-570827Y7430571D02*
X-565989Y7423314D01*
X-565989Y7423314D02*
X-565989Y7401543D01*
X-565989Y7401543D02*
X-570827Y7394286D01*
X-570827Y7394286D02*
X-575665Y7390657D01*
X-667589Y7459600D02*
X-565989Y7485000D01*
X-565989Y7485000D02*
X-667589Y7510400D01*
X-667589Y7528543D02*
X-667589Y7575714D01*
X-667589Y7575714D02*
X-628884Y7550314D01*
X-628884Y7550314D02*
X-628884Y7561200D01*
X-628884Y7561200D02*
X-624046Y7568457D01*
X-624046Y7568457D02*
X-619208Y7572086D01*
X-619208Y7572086D02*
X-609531Y7575714D01*
X-609531Y7575714D02*
X-585341Y7575714D01*
X-585341Y7575714D02*
X-575665Y7572086D01*
X-575665Y7572086D02*
X-570827Y7568457D01*
X-570827Y7568457D02*
X-565989Y7561200D01*
X-565989Y7561200D02*
X-565989Y7539429D01*
X-565989Y7539429D02*
X-570827Y7532171D01*
X-570827Y7532171D02*
X-575665Y7528543D01*
X8249697Y8206574D02*
X8249697Y8308174D01*
X8249697Y8308174D02*
X8278726Y8308174D01*
X8278726Y8308174D02*
X8285983Y8303336D01*
X8285983Y8303336D02*
X8289611Y8298497D01*
X8289611Y8298497D02*
X8293240Y8288821D01*
X8293240Y8288821D02*
X8293240Y8274307D01*
X8293240Y8274307D02*
X8289611Y8264631D01*
X8289611Y8264631D02*
X8285983Y8259793D01*
X8285983Y8259793D02*
X8278726Y8254955D01*
X8278726Y8254955D02*
X8249697Y8254955D01*
X8336783Y8264631D02*
X8329526Y8269469D01*
X8329526Y8269469D02*
X8325897Y8274307D01*
X8325897Y8274307D02*
X8322268Y8283983D01*
X8322268Y8283983D02*
X8322268Y8288821D01*
X8322268Y8288821D02*
X8325897Y8298497D01*
X8325897Y8298497D02*
X8329526Y8303336D01*
X8329526Y8303336D02*
X8336783Y8308174D01*
X8336783Y8308174D02*
X8351297Y8308174D01*
X8351297Y8308174D02*
X8358554Y8303336D01*
X8358554Y8303336D02*
X8362183Y8298497D01*
X8362183Y8298497D02*
X8365811Y8288821D01*
X8365811Y8288821D02*
X8365811Y8283983D01*
X8365811Y8283983D02*
X8362183Y8274307D01*
X8362183Y8274307D02*
X8358554Y8269469D01*
X8358554Y8269469D02*
X8351297Y8264631D01*
X8351297Y8264631D02*
X8336783Y8264631D01*
X8336783Y8264631D02*
X8329526Y8259793D01*
X8329526Y8259793D02*
X8325897Y8254955D01*
X8325897Y8254955D02*
X8322268Y8245278D01*
X8322268Y8245278D02*
X8322268Y8225926D01*
X8322268Y8225926D02*
X8325897Y8216250D01*
X8325897Y8216250D02*
X8329526Y8211412D01*
X8329526Y8211412D02*
X8336783Y8206574D01*
X8336783Y8206574D02*
X8351297Y8206574D01*
X8351297Y8206574D02*
X8358554Y8211412D01*
X8358554Y8211412D02*
X8362183Y8216250D01*
X8362183Y8216250D02*
X8365811Y8225926D01*
X8365811Y8225926D02*
X8365811Y8245278D01*
X8365811Y8245278D02*
X8362183Y8254955D01*
X8362183Y8254955D02*
X8358554Y8259793D01*
X8358554Y8259793D02*
X8351297Y8264631D01*
X8204340Y8144603D02*
X8229740Y8043003D01*
X8229740Y8043003D02*
X8255140Y8144603D01*
X8324083Y8052679D02*
X8320454Y8047841D01*
X8320454Y8047841D02*
X8309569Y8043003D01*
X8309569Y8043003D02*
X8302311Y8043003D01*
X8302311Y8043003D02*
X8291426Y8047841D01*
X8291426Y8047841D02*
X8284169Y8057518D01*
X8284169Y8057518D02*
X8280540Y8067194D01*
X8280540Y8067194D02*
X8276911Y8086546D01*
X8276911Y8086546D02*
X8276911Y8101060D01*
X8276911Y8101060D02*
X8280540Y8120413D01*
X8280540Y8120413D02*
X8284169Y8130089D01*
X8284169Y8130089D02*
X8291426Y8139765D01*
X8291426Y8139765D02*
X8302311Y8144603D01*
X8302311Y8144603D02*
X8309569Y8144603D01*
X8309569Y8144603D02*
X8320454Y8139765D01*
X8320454Y8139765D02*
X8324083Y8134927D01*
X8400283Y8052679D02*
X8396654Y8047841D01*
X8396654Y8047841D02*
X8385769Y8043003D01*
X8385769Y8043003D02*
X8378511Y8043003D01*
X8378511Y8043003D02*
X8367626Y8047841D01*
X8367626Y8047841D02*
X8360369Y8057518D01*
X8360369Y8057518D02*
X8356740Y8067194D01*
X8356740Y8067194D02*
X8353111Y8086546D01*
X8353111Y8086546D02*
X8353111Y8101060D01*
X8353111Y8101060D02*
X8356740Y8120413D01*
X8356740Y8120413D02*
X8360369Y8130089D01*
X8360369Y8130089D02*
X8367626Y8139765D01*
X8367626Y8139765D02*
X8378511Y8144603D01*
X8378511Y8144603D02*
X8385769Y8144603D01*
X8385769Y8144603D02*
X8396654Y8139765D01*
X8396654Y8139765D02*
X8400283Y8134927D01*
X5646851Y4717852D02*
X5545251Y4717852D01*
X5545251Y4717852D02*
X5545251Y4746880D01*
X5545251Y4746880D02*
X5550090Y4754137D01*
X5550090Y4754137D02*
X5554928Y4757766D01*
X5554928Y4757766D02*
X5564604Y4761394D01*
X5564604Y4761394D02*
X5579118Y4761394D01*
X5579118Y4761394D02*
X5588794Y4757766D01*
X5588794Y4757766D02*
X5593632Y4754137D01*
X5593632Y4754137D02*
X5598470Y4746880D01*
X5598470Y4746880D02*
X5598470Y4717852D01*
X5554928Y4790423D02*
X5550090Y4794052D01*
X5550090Y4794052D02*
X5545251Y4801309D01*
X5545251Y4801309D02*
X5545251Y4819452D01*
X5545251Y4819452D02*
X5550090Y4826709D01*
X5550090Y4826709D02*
X5554928Y4830337D01*
X5554928Y4830337D02*
X5564604Y4833966D01*
X5564604Y4833966D02*
X5574280Y4833966D01*
X5574280Y4833966D02*
X5588794Y4830337D01*
X5588794Y4830337D02*
X5646851Y4786794D01*
X5646851Y4786794D02*
X5646851Y4833966D01*
X5588794Y4877509D02*
X5583956Y4870252D01*
X5583956Y4870252D02*
X5579118Y4866623D01*
X5579118Y4866623D02*
X5569442Y4862994D01*
X5569442Y4862994D02*
X5564604Y4862994D01*
X5564604Y4862994D02*
X5554928Y4866623D01*
X5554928Y4866623D02*
X5550090Y4870252D01*
X5550090Y4870252D02*
X5545251Y4877509D01*
X5545251Y4877509D02*
X5545251Y4892023D01*
X5545251Y4892023D02*
X5550090Y4899280D01*
X5550090Y4899280D02*
X5554928Y4902909D01*
X5554928Y4902909D02*
X5564604Y4906537D01*
X5564604Y4906537D02*
X5569442Y4906537D01*
X5569442Y4906537D02*
X5579118Y4902909D01*
X5579118Y4902909D02*
X5583956Y4899280D01*
X5583956Y4899280D02*
X5588794Y4892023D01*
X5588794Y4892023D02*
X5588794Y4877509D01*
X5588794Y4877509D02*
X5593632Y4870252D01*
X5593632Y4870252D02*
X5598470Y4866623D01*
X5598470Y4866623D02*
X5608147Y4862994D01*
X5608147Y4862994D02*
X5627499Y4862994D01*
X5627499Y4862994D02*
X5637175Y4866623D01*
X5637175Y4866623D02*
X5642013Y4870252D01*
X5642013Y4870252D02*
X5646851Y4877509D01*
X5646851Y4877509D02*
X5646851Y4892023D01*
X5646851Y4892023D02*
X5642013Y4899280D01*
X5642013Y4899280D02*
X5637175Y4902909D01*
X5637175Y4902909D02*
X5627499Y4906537D01*
X5627499Y4906537D02*
X5608147Y4906537D01*
X5608147Y4906537D02*
X5598470Y4902909D01*
X5598470Y4902909D02*
X5593632Y4899280D01*
X5593632Y4899280D02*
X5588794Y4892023D01*
X6918374Y3141309D02*
X6918374Y3242909D01*
X6918374Y3242909D02*
X6947403Y3242909D01*
X6947403Y3242909D02*
X6954660Y3238070D01*
X6954660Y3238070D02*
X6958289Y3233232D01*
X6958289Y3233232D02*
X6961917Y3223556D01*
X6961917Y3223556D02*
X6961917Y3209042D01*
X6961917Y3209042D02*
X6958289Y3199366D01*
X6958289Y3199366D02*
X6954660Y3194528D01*
X6954660Y3194528D02*
X6947403Y3189689D01*
X6947403Y3189689D02*
X6918374Y3189689D01*
X6990946Y3233232D02*
X6994574Y3238070D01*
X6994574Y3238070D02*
X7001832Y3242909D01*
X7001832Y3242909D02*
X7019974Y3242909D01*
X7019974Y3242909D02*
X7027232Y3238070D01*
X7027232Y3238070D02*
X7030860Y3233232D01*
X7030860Y3233232D02*
X7034489Y3223556D01*
X7034489Y3223556D02*
X7034489Y3213880D01*
X7034489Y3213880D02*
X7030860Y3199366D01*
X7030860Y3199366D02*
X6987317Y3141309D01*
X6987317Y3141309D02*
X7034489Y3141309D01*
X7103431Y3242909D02*
X7067146Y3242909D01*
X7067146Y3242909D02*
X7063517Y3194528D01*
X7063517Y3194528D02*
X7067146Y3199366D01*
X7067146Y3199366D02*
X7074403Y3204204D01*
X7074403Y3204204D02*
X7092546Y3204204D01*
X7092546Y3204204D02*
X7099803Y3199366D01*
X7099803Y3199366D02*
X7103431Y3194528D01*
X7103431Y3194528D02*
X7107060Y3184851D01*
X7107060Y3184851D02*
X7107060Y3160661D01*
X7107060Y3160661D02*
X7103431Y3150985D01*
X7103431Y3150985D02*
X7099803Y3146147D01*
X7099803Y3146147D02*
X7092546Y3141309D01*
X7092546Y3141309D02*
X7074403Y3141309D01*
X7074403Y3141309D02*
X7067146Y3146147D01*
X7067146Y3146147D02*
X7063517Y3150985D01*
X7292117Y3141309D02*
X7255831Y3141309D01*
X7255831Y3141309D02*
X7255831Y3242909D01*
X7317517Y3141309D02*
X7317517Y3242909D01*
X7317517Y3242909D02*
X7346546Y3242909D01*
X7346546Y3242909D02*
X7353803Y3238070D01*
X7353803Y3238070D02*
X7357431Y3233232D01*
X7357431Y3233232D02*
X7361060Y3223556D01*
X7361060Y3223556D02*
X7361060Y3209042D01*
X7361060Y3209042D02*
X7357431Y3199366D01*
X7357431Y3199366D02*
X7353803Y3194528D01*
X7353803Y3194528D02*
X7346546Y3189689D01*
X7346546Y3189689D02*
X7317517Y3189689D01*
X7437260Y3150985D02*
X7433631Y3146147D01*
X7433631Y3146147D02*
X7422746Y3141309D01*
X7422746Y3141309D02*
X7415488Y3141309D01*
X7415488Y3141309D02*
X7404603Y3146147D01*
X7404603Y3146147D02*
X7397346Y3155823D01*
X7397346Y3155823D02*
X7393717Y3165499D01*
X7393717Y3165499D02*
X7390088Y3184851D01*
X7390088Y3184851D02*
X7390088Y3199366D01*
X7390088Y3199366D02*
X7393717Y3218718D01*
X7393717Y3218718D02*
X7397346Y3228394D01*
X7397346Y3228394D02*
X7404603Y3238070D01*
X7404603Y3238070D02*
X7415488Y3242909D01*
X7415488Y3242909D02*
X7422746Y3242909D01*
X7422746Y3242909D02*
X7433631Y3238070D01*
X7433631Y3238070D02*
X7437260Y3233232D01*
X7451774Y3131632D02*
X7509831Y3131632D01*
X7527974Y3141309D02*
X7527974Y3242909D01*
X7560631Y3146147D02*
X7571517Y3141309D01*
X7571517Y3141309D02*
X7589660Y3141309D01*
X7589660Y3141309D02*
X7596917Y3146147D01*
X7596917Y3146147D02*
X7600546Y3150985D01*
X7600546Y3150985D02*
X7604174Y3160661D01*
X7604174Y3160661D02*
X7604174Y3170337D01*
X7604174Y3170337D02*
X7600546Y3180013D01*
X7600546Y3180013D02*
X7596917Y3184851D01*
X7596917Y3184851D02*
X7589660Y3189689D01*
X7589660Y3189689D02*
X7575146Y3194528D01*
X7575146Y3194528D02*
X7567888Y3199366D01*
X7567888Y3199366D02*
X7564260Y3204204D01*
X7564260Y3204204D02*
X7560631Y3213880D01*
X7560631Y3213880D02*
X7560631Y3223556D01*
X7560631Y3223556D02*
X7564260Y3233232D01*
X7564260Y3233232D02*
X7567888Y3238070D01*
X7567888Y3238070D02*
X7575146Y3242909D01*
X7575146Y3242909D02*
X7593288Y3242909D01*
X7593288Y3242909D02*
X7604174Y3238070D01*
X7636831Y3141309D02*
X7636831Y3242909D01*
X7636831Y3242909D02*
X7665860Y3242909D01*
X7665860Y3242909D02*
X7673117Y3238070D01*
X7673117Y3238070D02*
X7676746Y3233232D01*
X7676746Y3233232D02*
X7680374Y3223556D01*
X7680374Y3223556D02*
X7680374Y3209042D01*
X7680374Y3209042D02*
X7676746Y3199366D01*
X7676746Y3199366D02*
X7673117Y3194528D01*
X7673117Y3194528D02*
X7665860Y3189689D01*
X7665860Y3189689D02*
X7636831Y3189689D01*
X7071137Y7563954D02*
X7071137Y7665554D01*
X7071137Y7665554D02*
X7100166Y7665554D01*
X7100166Y7665554D02*
X7107423Y7660716D01*
X7107423Y7660716D02*
X7111051Y7655877D01*
X7111051Y7655877D02*
X7114680Y7646201D01*
X7114680Y7646201D02*
X7114680Y7631687D01*
X7114680Y7631687D02*
X7111051Y7622011D01*
X7111051Y7622011D02*
X7107423Y7617173D01*
X7107423Y7617173D02*
X7100166Y7612335D01*
X7100166Y7612335D02*
X7071137Y7612335D01*
X7140080Y7665554D02*
X7187251Y7665554D01*
X7187251Y7665554D02*
X7161851Y7626849D01*
X7161851Y7626849D02*
X7172737Y7626849D01*
X7172737Y7626849D02*
X7179994Y7622011D01*
X7179994Y7622011D02*
X7183623Y7617173D01*
X7183623Y7617173D02*
X7187251Y7607496D01*
X7187251Y7607496D02*
X7187251Y7583306D01*
X7187251Y7583306D02*
X7183623Y7573630D01*
X7183623Y7573630D02*
X7179994Y7568792D01*
X7179994Y7568792D02*
X7172737Y7563954D01*
X7172737Y7563954D02*
X7150966Y7563954D01*
X7150966Y7563954D02*
X7143708Y7568792D01*
X7143708Y7568792D02*
X7140080Y7573630D01*
X7069323Y7497145D02*
X7062066Y7501983D01*
X7062066Y7501983D02*
X7051180Y7501983D01*
X7051180Y7501983D02*
X7040294Y7497145D01*
X7040294Y7497145D02*
X7033037Y7487469D01*
X7033037Y7487469D02*
X7029408Y7477793D01*
X7029408Y7477793D02*
X7025780Y7458440D01*
X7025780Y7458440D02*
X7025780Y7443926D01*
X7025780Y7443926D02*
X7029408Y7424574D01*
X7029408Y7424574D02*
X7033037Y7414898D01*
X7033037Y7414898D02*
X7040294Y7405221D01*
X7040294Y7405221D02*
X7051180Y7400383D01*
X7051180Y7400383D02*
X7058437Y7400383D01*
X7058437Y7400383D02*
X7069323Y7405221D01*
X7069323Y7405221D02*
X7072951Y7410059D01*
X7072951Y7410059D02*
X7072951Y7443926D01*
X7072951Y7443926D02*
X7058437Y7443926D01*
X7105608Y7400383D02*
X7105608Y7501983D01*
X7105608Y7501983D02*
X7149151Y7400383D01*
X7149151Y7400383D02*
X7149151Y7501983D01*
X7185437Y7400383D02*
X7185437Y7501983D01*
X7185437Y7501983D02*
X7203580Y7501983D01*
X7203580Y7501983D02*
X7214466Y7497145D01*
X7214466Y7497145D02*
X7221723Y7487469D01*
X7221723Y7487469D02*
X7225351Y7477793D01*
X7225351Y7477793D02*
X7228980Y7458440D01*
X7228980Y7458440D02*
X7228980Y7443926D01*
X7228980Y7443926D02*
X7225351Y7424574D01*
X7225351Y7424574D02*
X7221723Y7414898D01*
X7221723Y7414898D02*
X7214466Y7405221D01*
X7214466Y7405221D02*
X7203580Y7400383D01*
X7203580Y7400383D02*
X7185437Y7400383D01*
X-565989Y5697929D02*
X-614370Y5672529D01*
X-565989Y5654386D02*
X-667589Y5654386D01*
X-667589Y5654386D02*
X-667589Y5683414D01*
X-667589Y5683414D02*
X-662751Y5690671D01*
X-662751Y5690671D02*
X-657912Y5694300D01*
X-657912Y5694300D02*
X-648236Y5697929D01*
X-648236Y5697929D02*
X-633722Y5697929D01*
X-633722Y5697929D02*
X-624046Y5694300D01*
X-624046Y5694300D02*
X-619208Y5690671D01*
X-619208Y5690671D02*
X-614370Y5683414D01*
X-614370Y5683414D02*
X-614370Y5654386D01*
X-619208Y5755986D02*
X-619208Y5730586D01*
X-565989Y5730586D02*
X-667589Y5730586D01*
X-667589Y5730586D02*
X-667589Y5766871D01*
X8063551Y2348829D02*
X8063551Y2450429D01*
X8063551Y2450429D02*
X8092580Y2450429D01*
X8092580Y2450429D02*
X8099837Y2445591D01*
X8099837Y2445591D02*
X8103466Y2440752D01*
X8103466Y2440752D02*
X8107094Y2431076D01*
X8107094Y2431076D02*
X8107094Y2416562D01*
X8107094Y2416562D02*
X8103466Y2406886D01*
X8103466Y2406886D02*
X8099837Y2402048D01*
X8099837Y2402048D02*
X8092580Y2397210D01*
X8092580Y2397210D02*
X8063551Y2397210D01*
X8136123Y2440752D02*
X8139751Y2445591D01*
X8139751Y2445591D02*
X8147009Y2450429D01*
X8147009Y2450429D02*
X8165151Y2450429D01*
X8165151Y2450429D02*
X8172409Y2445591D01*
X8172409Y2445591D02*
X8176037Y2440752D01*
X8176037Y2440752D02*
X8179666Y2431076D01*
X8179666Y2431076D02*
X8179666Y2421400D01*
X8179666Y2421400D02*
X8176037Y2406886D01*
X8176037Y2406886D02*
X8132494Y2348829D01*
X8132494Y2348829D02*
X8179666Y2348829D01*
X8208694Y2440752D02*
X8212323Y2445591D01*
X8212323Y2445591D02*
X8219580Y2450429D01*
X8219580Y2450429D02*
X8237723Y2450429D01*
X8237723Y2450429D02*
X8244980Y2445591D01*
X8244980Y2445591D02*
X8248608Y2440752D01*
X8248608Y2440752D02*
X8252237Y2431076D01*
X8252237Y2431076D02*
X8252237Y2421400D01*
X8252237Y2421400D02*
X8248608Y2406886D01*
X8248608Y2406886D02*
X8205066Y2348829D01*
X8205066Y2348829D02*
X8252237Y2348829D01*
X-565989Y4805300D02*
X-614370Y4779900D01*
X-565989Y4761757D02*
X-667589Y4761757D01*
X-667589Y4761757D02*
X-667589Y4790786D01*
X-667589Y4790786D02*
X-662751Y4798043D01*
X-662751Y4798043D02*
X-657912Y4801672D01*
X-657912Y4801672D02*
X-648236Y4805300D01*
X-648236Y4805300D02*
X-633722Y4805300D01*
X-633722Y4805300D02*
X-624046Y4801672D01*
X-624046Y4801672D02*
X-619208Y4798043D01*
X-619208Y4798043D02*
X-614370Y4790786D01*
X-614370Y4790786D02*
X-614370Y4761757D01*
X-667589Y4830700D02*
X-565989Y4881500D01*
X-667589Y4881500D02*
X-565989Y4830700D01*
X2633757Y6676989D02*
X2633757Y6778589D01*
X2633757Y6778589D02*
X2662786Y6778589D01*
X2662786Y6778589D02*
X2670043Y6773750D01*
X2670043Y6773750D02*
X2673671Y6768912D01*
X2673671Y6768912D02*
X2677300Y6759236D01*
X2677300Y6759236D02*
X2677300Y6744722D01*
X2677300Y6744722D02*
X2673671Y6735046D01*
X2673671Y6735046D02*
X2670043Y6730208D01*
X2670043Y6730208D02*
X2662786Y6725369D01*
X2662786Y6725369D02*
X2633757Y6725369D01*
X2713586Y6676989D02*
X2728100Y6676989D01*
X2728100Y6676989D02*
X2735357Y6681827D01*
X2735357Y6681827D02*
X2738986Y6686665D01*
X2738986Y6686665D02*
X2746243Y6701179D01*
X2746243Y6701179D02*
X2749871Y6720531D01*
X2749871Y6720531D02*
X2749871Y6759236D01*
X2749871Y6759236D02*
X2746243Y6768912D01*
X2746243Y6768912D02*
X2742614Y6773750D01*
X2742614Y6773750D02*
X2735357Y6778589D01*
X2735357Y6778589D02*
X2720843Y6778589D01*
X2720843Y6778589D02*
X2713586Y6773750D01*
X2713586Y6773750D02*
X2709957Y6768912D01*
X2709957Y6768912D02*
X2706329Y6759236D01*
X2706329Y6759236D02*
X2706329Y6735046D01*
X2706329Y6735046D02*
X2709957Y6725369D01*
X2709957Y6725369D02*
X2713586Y6720531D01*
X2713586Y6720531D02*
X2720843Y6715693D01*
X2720843Y6715693D02*
X2735357Y6715693D01*
X2735357Y6715693D02*
X2742614Y6720531D01*
X2742614Y6720531D02*
X2746243Y6725369D01*
X2746243Y6725369D02*
X2749871Y6735046D01*
X10477426Y3549451D02*
X10375826Y3549451D01*
X10375826Y3549451D02*
X10375826Y3578480D01*
X10375826Y3578480D02*
X10380664Y3585737D01*
X10380664Y3585737D02*
X10385503Y3589366D01*
X10385503Y3589366D02*
X10395179Y3592994D01*
X10395179Y3592994D02*
X10409693Y3592994D01*
X10409693Y3592994D02*
X10419369Y3589366D01*
X10419369Y3589366D02*
X10424207Y3585737D01*
X10424207Y3585737D02*
X10429045Y3578480D01*
X10429045Y3578480D02*
X10429045Y3549451D01*
X10477426Y3665566D02*
X10477426Y3622023D01*
X10477426Y3643794D02*
X10375826Y3643794D01*
X10375826Y3643794D02*
X10390341Y3636537D01*
X10390341Y3636537D02*
X10400017Y3629280D01*
X10400017Y3629280D02*
X10404855Y3622023D01*
X10375826Y3730880D02*
X10375826Y3716366D01*
X10375826Y3716366D02*
X10380664Y3709109D01*
X10380664Y3709109D02*
X10385503Y3705480D01*
X10385503Y3705480D02*
X10400017Y3698223D01*
X10400017Y3698223D02*
X10419369Y3694594D01*
X10419369Y3694594D02*
X10458074Y3694594D01*
X10458074Y3694594D02*
X10467750Y3698223D01*
X10467750Y3698223D02*
X10472588Y3701851D01*
X10472588Y3701851D02*
X10477426Y3709109D01*
X10477426Y3709109D02*
X10477426Y3723623D01*
X10477426Y3723623D02*
X10472588Y3730880D01*
X10472588Y3730880D02*
X10467750Y3734509D01*
X10467750Y3734509D02*
X10458074Y3738137D01*
X10458074Y3738137D02*
X10433884Y3738137D01*
X10433884Y3738137D02*
X10424207Y3734509D01*
X10424207Y3734509D02*
X10419369Y3730880D01*
X10419369Y3730880D02*
X10414531Y3723623D01*
X10414531Y3723623D02*
X10414531Y3709109D01*
X10414531Y3709109D02*
X10419369Y3701851D01*
X10419369Y3701851D02*
X10424207Y3698223D01*
X10424207Y3698223D02*
X10433884Y3694594D01*
X10631321Y3538566D02*
X10636159Y3534937D01*
X10636159Y3534937D02*
X10640997Y3524051D01*
X10640997Y3524051D02*
X10640997Y3516794D01*
X10640997Y3516794D02*
X10636159Y3505909D01*
X10636159Y3505909D02*
X10626482Y3498651D01*
X10626482Y3498651D02*
X10616806Y3495023D01*
X10616806Y3495023D02*
X10597454Y3491394D01*
X10597454Y3491394D02*
X10582940Y3491394D01*
X10582940Y3491394D02*
X10563587Y3495023D01*
X10563587Y3495023D02*
X10553911Y3498651D01*
X10553911Y3498651D02*
X10544235Y3505909D01*
X10544235Y3505909D02*
X10539397Y3516794D01*
X10539397Y3516794D02*
X10539397Y3524051D01*
X10539397Y3524051D02*
X10544235Y3534937D01*
X10544235Y3534937D02*
X10549073Y3538566D01*
X10640997Y3607509D02*
X10640997Y3571223D01*
X10640997Y3571223D02*
X10539397Y3571223D01*
X10640997Y3632909D02*
X10539397Y3632909D01*
X10640997Y3676451D02*
X10582940Y3643794D01*
X10539397Y3676451D02*
X10597454Y3632909D01*
X10640997Y3709109D02*
X10539397Y3709109D01*
X10640997Y3745394D02*
X10539397Y3745394D01*
X10539397Y3745394D02*
X10640997Y3788937D01*
X10640997Y3788937D02*
X10539397Y3788937D01*
X-403989Y6737471D02*
X-505589Y6737471D01*
X-505589Y6737471D02*
X-505589Y6755614D01*
X-505589Y6755614D02*
X-500750Y6766500D01*
X-500750Y6766500D02*
X-491074Y6773757D01*
X-491074Y6773757D02*
X-481398Y6777386D01*
X-481398Y6777386D02*
X-462046Y6781014D01*
X-462046Y6781014D02*
X-447531Y6781014D01*
X-447531Y6781014D02*
X-428179Y6777386D01*
X-428179Y6777386D02*
X-418503Y6773757D01*
X-418503Y6773757D02*
X-408827Y6766500D01*
X-408827Y6766500D02*
X-403989Y6755614D01*
X-403989Y6755614D02*
X-403989Y6737471D01*
X-457208Y6839071D02*
X-457208Y6813671D01*
X-403989Y6813671D02*
X-505589Y6813671D01*
X-505589Y6813671D02*
X-505589Y6849957D01*
X-505589Y6878986D02*
X-423341Y6878986D01*
X-423341Y6878986D02*
X-413665Y6882614D01*
X-413665Y6882614D02*
X-408827Y6886243D01*
X-408827Y6886243D02*
X-403989Y6893500D01*
X-403989Y6893500D02*
X-403989Y6908014D01*
X-403989Y6908014D02*
X-408827Y6915271D01*
X-408827Y6915271D02*
X-413665Y6918900D01*
X-413665Y6918900D02*
X-423341Y6922529D01*
X-423341Y6922529D02*
X-505589Y6922529D01*
X10469806Y5434857D02*
X10368206Y5434857D01*
X10368206Y5434857D02*
X10368206Y5463886D01*
X10368206Y5463886D02*
X10373044Y5471143D01*
X10373044Y5471143D02*
X10377883Y5474772D01*
X10377883Y5474772D02*
X10387559Y5478400D01*
X10387559Y5478400D02*
X10402073Y5478400D01*
X10402073Y5478400D02*
X10411749Y5474772D01*
X10411749Y5474772D02*
X10416587Y5471143D01*
X10416587Y5471143D02*
X10421425Y5463886D01*
X10421425Y5463886D02*
X10421425Y5434857D01*
X10377883Y5507429D02*
X10373044Y5511057D01*
X10373044Y5511057D02*
X10368206Y5518314D01*
X10368206Y5518314D02*
X10368206Y5536457D01*
X10368206Y5536457D02*
X10373044Y5543714D01*
X10373044Y5543714D02*
X10377883Y5547343D01*
X10377883Y5547343D02*
X10387559Y5550972D01*
X10387559Y5550972D02*
X10397235Y5550972D01*
X10397235Y5550972D02*
X10411749Y5547343D01*
X10411749Y5547343D02*
X10469806Y5503800D01*
X10469806Y5503800D02*
X10469806Y5550972D01*
X10623701Y5336886D02*
X10628539Y5333257D01*
X10628539Y5333257D02*
X10633377Y5322372D01*
X10633377Y5322372D02*
X10633377Y5315114D01*
X10633377Y5315114D02*
X10628539Y5304229D01*
X10628539Y5304229D02*
X10618862Y5296972D01*
X10618862Y5296972D02*
X10609186Y5293343D01*
X10609186Y5293343D02*
X10589834Y5289714D01*
X10589834Y5289714D02*
X10575320Y5289714D01*
X10575320Y5289714D02*
X10555967Y5293343D01*
X10555967Y5293343D02*
X10546291Y5296972D01*
X10546291Y5296972D02*
X10536615Y5304229D01*
X10536615Y5304229D02*
X10531777Y5315114D01*
X10531777Y5315114D02*
X10531777Y5322372D01*
X10531777Y5322372D02*
X10536615Y5333257D01*
X10536615Y5333257D02*
X10541453Y5336886D01*
X10633377Y5405829D02*
X10633377Y5369543D01*
X10633377Y5369543D02*
X10531777Y5369543D01*
X10633377Y5431229D02*
X10531777Y5431229D01*
X10633377Y5474772D02*
X10575320Y5442114D01*
X10531777Y5474772D02*
X10589834Y5431229D01*
X10531777Y5521943D02*
X10531777Y5536457D01*
X10531777Y5536457D02*
X10536615Y5543714D01*
X10536615Y5543714D02*
X10546291Y5550972D01*
X10546291Y5550972D02*
X10565643Y5554600D01*
X10565643Y5554600D02*
X10599510Y5554600D01*
X10599510Y5554600D02*
X10618862Y5550972D01*
X10618862Y5550972D02*
X10628539Y5543714D01*
X10628539Y5543714D02*
X10633377Y5536457D01*
X10633377Y5536457D02*
X10633377Y5521943D01*
X10633377Y5521943D02*
X10628539Y5514686D01*
X10628539Y5514686D02*
X10618862Y5507429D01*
X10618862Y5507429D02*
X10599510Y5503800D01*
X10599510Y5503800D02*
X10565643Y5503800D01*
X10565643Y5503800D02*
X10546291Y5507429D01*
X10546291Y5507429D02*
X10536615Y5514686D01*
X10536615Y5514686D02*
X10531777Y5521943D01*
X10531777Y5587257D02*
X10614024Y5587257D01*
X10614024Y5587257D02*
X10623701Y5590886D01*
X10623701Y5590886D02*
X10628539Y5594514D01*
X10628539Y5594514D02*
X10633377Y5601771D01*
X10633377Y5601771D02*
X10633377Y5616286D01*
X10633377Y5616286D02*
X10628539Y5623543D01*
X10628539Y5623543D02*
X10623701Y5627171D01*
X10623701Y5627171D02*
X10614024Y5630800D01*
X10614024Y5630800D02*
X10531777Y5630800D01*
X10531777Y5656200D02*
X10531777Y5699743D01*
X10633377Y5677971D02*
X10531777Y5677971D01*
X7614846Y7361991D02*
X7513246Y7361991D01*
X7513246Y7361991D02*
X7513246Y7391020D01*
X7513246Y7391020D02*
X7518084Y7398277D01*
X7518084Y7398277D02*
X7522922Y7401906D01*
X7522922Y7401906D02*
X7532599Y7405534D01*
X7532599Y7405534D02*
X7547113Y7405534D01*
X7547113Y7405534D02*
X7556789Y7401906D01*
X7556789Y7401906D02*
X7561627Y7398277D01*
X7561627Y7398277D02*
X7566465Y7391020D01*
X7566465Y7391020D02*
X7566465Y7361991D01*
X7522922Y7434563D02*
X7518084Y7438191D01*
X7518084Y7438191D02*
X7513246Y7445449D01*
X7513246Y7445449D02*
X7513246Y7463591D01*
X7513246Y7463591D02*
X7518084Y7470849D01*
X7518084Y7470849D02*
X7522922Y7474477D01*
X7522922Y7474477D02*
X7532599Y7478106D01*
X7532599Y7478106D02*
X7542275Y7478106D01*
X7542275Y7478106D02*
X7556789Y7474477D01*
X7556789Y7474477D02*
X7614846Y7430934D01*
X7614846Y7430934D02*
X7614846Y7478106D01*
X7513246Y7543420D02*
X7513246Y7528906D01*
X7513246Y7528906D02*
X7518084Y7521649D01*
X7518084Y7521649D02*
X7522922Y7518020D01*
X7522922Y7518020D02*
X7537437Y7510763D01*
X7537437Y7510763D02*
X7556789Y7507134D01*
X7556789Y7507134D02*
X7595494Y7507134D01*
X7595494Y7507134D02*
X7605170Y7510763D01*
X7605170Y7510763D02*
X7610008Y7514391D01*
X7610008Y7514391D02*
X7614846Y7521649D01*
X7614846Y7521649D02*
X7614846Y7536163D01*
X7614846Y7536163D02*
X7610008Y7543420D01*
X7610008Y7543420D02*
X7605170Y7547049D01*
X7605170Y7547049D02*
X7595494Y7550677D01*
X7595494Y7550677D02*
X7571303Y7550677D01*
X7571303Y7550677D02*
X7561627Y7547049D01*
X7561627Y7547049D02*
X7556789Y7543420D01*
X7556789Y7543420D02*
X7551951Y7536163D01*
X7551951Y7536163D02*
X7551951Y7521649D01*
X7551951Y7521649D02*
X7556789Y7514391D01*
X7556789Y7514391D02*
X7561627Y7510763D01*
X7561627Y7510763D02*
X7571303Y7507134D01*
X7778417Y7244063D02*
X7778417Y7207777D01*
X7778417Y7207777D02*
X7676817Y7207777D01*
X7778417Y7269463D02*
X7676817Y7269463D01*
X7676817Y7269463D02*
X7676817Y7298492D01*
X7676817Y7298492D02*
X7681655Y7305749D01*
X7681655Y7305749D02*
X7686493Y7309377D01*
X7686493Y7309377D02*
X7696169Y7313006D01*
X7696169Y7313006D02*
X7710683Y7313006D01*
X7710683Y7313006D02*
X7720359Y7309377D01*
X7720359Y7309377D02*
X7725198Y7305749D01*
X7725198Y7305749D02*
X7730036Y7298492D01*
X7730036Y7298492D02*
X7730036Y7269463D01*
X7768740Y7389206D02*
X7773579Y7385577D01*
X7773579Y7385577D02*
X7778417Y7374692D01*
X7778417Y7374692D02*
X7778417Y7367434D01*
X7778417Y7367434D02*
X7773579Y7356549D01*
X7773579Y7356549D02*
X7763902Y7349292D01*
X7763902Y7349292D02*
X7754226Y7345663D01*
X7754226Y7345663D02*
X7734874Y7342034D01*
X7734874Y7342034D02*
X7720359Y7342034D01*
X7720359Y7342034D02*
X7701007Y7345663D01*
X7701007Y7345663D02*
X7691331Y7349292D01*
X7691331Y7349292D02*
X7681655Y7356549D01*
X7681655Y7356549D02*
X7676817Y7367434D01*
X7676817Y7367434D02*
X7676817Y7374692D01*
X7676817Y7374692D02*
X7681655Y7385577D01*
X7681655Y7385577D02*
X7686493Y7389206D01*
X7788093Y7403720D02*
X7788093Y7461777D01*
X7676817Y7501691D02*
X7749388Y7501691D01*
X7749388Y7501691D02*
X7763902Y7498063D01*
X7763902Y7498063D02*
X7773579Y7490806D01*
X7773579Y7490806D02*
X7778417Y7479920D01*
X7778417Y7479920D02*
X7778417Y7472663D01*
X7676817Y7527091D02*
X7676817Y7570634D01*
X7778417Y7548863D02*
X7676817Y7548863D01*
X7749388Y7592406D02*
X7749388Y7628691D01*
X7778417Y7585149D02*
X7676817Y7610549D01*
X7676817Y7610549D02*
X7778417Y7635949D01*
X7681655Y7701263D02*
X7676817Y7694006D01*
X7676817Y7694006D02*
X7676817Y7683120D01*
X7676817Y7683120D02*
X7681655Y7672234D01*
X7681655Y7672234D02*
X7691331Y7664977D01*
X7691331Y7664977D02*
X7701007Y7661349D01*
X7701007Y7661349D02*
X7720359Y7657720D01*
X7720359Y7657720D02*
X7734874Y7657720D01*
X7734874Y7657720D02*
X7754226Y7661349D01*
X7754226Y7661349D02*
X7763902Y7664977D01*
X7763902Y7664977D02*
X7773579Y7672234D01*
X7773579Y7672234D02*
X7778417Y7683120D01*
X7778417Y7683120D02*
X7778417Y7690377D01*
X7778417Y7690377D02*
X7773579Y7701263D01*
X7773579Y7701263D02*
X7768740Y7704891D01*
X7768740Y7704891D02*
X7734874Y7704891D01*
X7734874Y7704891D02*
X7734874Y7690377D01*
X7288851Y8983309D02*
X7288851Y9084909D01*
X7288851Y9084909D02*
X7317880Y9084909D01*
X7317880Y9084909D02*
X7325137Y9080071D01*
X7325137Y9080071D02*
X7328766Y9075232D01*
X7328766Y9075232D02*
X7332394Y9065556D01*
X7332394Y9065556D02*
X7332394Y9051042D01*
X7332394Y9051042D02*
X7328766Y9041366D01*
X7328766Y9041366D02*
X7325137Y9036528D01*
X7325137Y9036528D02*
X7317880Y9031690D01*
X7317880Y9031690D02*
X7288851Y9031690D01*
X7357794Y9084909D02*
X7404966Y9084909D01*
X7404966Y9084909D02*
X7379566Y9046204D01*
X7379566Y9046204D02*
X7390451Y9046204D01*
X7390451Y9046204D02*
X7397709Y9041366D01*
X7397709Y9041366D02*
X7401337Y9036528D01*
X7401337Y9036528D02*
X7404966Y9026851D01*
X7404966Y9026851D02*
X7404966Y9002661D01*
X7404966Y9002661D02*
X7401337Y8992985D01*
X7401337Y8992985D02*
X7397709Y8988147D01*
X7397709Y8988147D02*
X7390451Y8983309D01*
X7390451Y8983309D02*
X7368680Y8983309D01*
X7368680Y8983309D02*
X7361423Y8988147D01*
X7361423Y8988147D02*
X7357794Y8992985D01*
X7452137Y9084909D02*
X7459394Y9084909D01*
X7459394Y9084909D02*
X7466651Y9080071D01*
X7466651Y9080071D02*
X7470280Y9075232D01*
X7470280Y9075232D02*
X7473909Y9065556D01*
X7473909Y9065556D02*
X7477537Y9046204D01*
X7477537Y9046204D02*
X7477537Y9022013D01*
X7477537Y9022013D02*
X7473909Y9002661D01*
X7473909Y9002661D02*
X7470280Y8992985D01*
X7470280Y8992985D02*
X7466651Y8988147D01*
X7466651Y8988147D02*
X7459394Y8983309D01*
X7459394Y8983309D02*
X7452137Y8983309D01*
X7452137Y8983309D02*
X7444880Y8988147D01*
X7444880Y8988147D02*
X7441251Y8992985D01*
X7441251Y8992985D02*
X7437623Y9002661D01*
X7437623Y9002661D02*
X7433994Y9022013D01*
X7433994Y9022013D02*
X7433994Y9046204D01*
X7433994Y9046204D02*
X7437623Y9065556D01*
X7437623Y9065556D02*
X7441251Y9075232D01*
X7441251Y9075232D02*
X7444880Y9080071D01*
X7444880Y9080071D02*
X7452137Y9084909D01*
X7651708Y9036528D02*
X7662594Y9031690D01*
X7662594Y9031690D02*
X7666223Y9026851D01*
X7666223Y9026851D02*
X7669851Y9017175D01*
X7669851Y9017175D02*
X7669851Y9002661D01*
X7669851Y9002661D02*
X7666223Y8992985D01*
X7666223Y8992985D02*
X7662594Y8988147D01*
X7662594Y8988147D02*
X7655337Y8983309D01*
X7655337Y8983309D02*
X7626308Y8983309D01*
X7626308Y8983309D02*
X7626308Y9084909D01*
X7626308Y9084909D02*
X7651708Y9084909D01*
X7651708Y9084909D02*
X7658966Y9080071D01*
X7658966Y9080071D02*
X7662594Y9075232D01*
X7662594Y9075232D02*
X7666223Y9065556D01*
X7666223Y9065556D02*
X7666223Y9055880D01*
X7666223Y9055880D02*
X7662594Y9046204D01*
X7662594Y9046204D02*
X7658966Y9041366D01*
X7658966Y9041366D02*
X7651708Y9036528D01*
X7651708Y9036528D02*
X7626308Y9036528D01*
X7698880Y9012337D02*
X7735166Y9012337D01*
X7691623Y8983309D02*
X7717023Y9084909D01*
X7717023Y9084909D02*
X7742423Y8983309D01*
X7767823Y8983309D02*
X7767823Y9084909D01*
X7767823Y9084909D02*
X7811366Y8983309D01*
X7811366Y8983309D02*
X7811366Y9084909D01*
X7847651Y8983309D02*
X7847651Y9084909D01*
X7891194Y8983309D02*
X7858537Y9041366D01*
X7891194Y9084909D02*
X7847651Y9026851D01*
X7920223Y9075232D02*
X7923851Y9080071D01*
X7923851Y9080071D02*
X7931109Y9084909D01*
X7931109Y9084909D02*
X7949251Y9084909D01*
X7949251Y9084909D02*
X7956509Y9080071D01*
X7956509Y9080071D02*
X7960137Y9075232D01*
X7960137Y9075232D02*
X7963766Y9065556D01*
X7963766Y9065556D02*
X7963766Y9055880D01*
X7963766Y9055880D02*
X7960137Y9041366D01*
X7960137Y9041366D02*
X7916594Y8983309D01*
X7916594Y8983309D02*
X7963766Y8983309D01*
X7978280Y8973632D02*
X8036337Y8973632D01*
X8050851Y9012337D02*
X8087137Y9012337D01*
X8043594Y8983309D02*
X8068994Y9084909D01*
X8068994Y9084909D02*
X8094394Y8983309D01*
X8119794Y9084909D02*
X8119794Y9002661D01*
X8119794Y9002661D02*
X8123423Y8992985D01*
X8123423Y8992985D02*
X8127051Y8988147D01*
X8127051Y8988147D02*
X8134308Y8983309D01*
X8134308Y8983309D02*
X8148823Y8983309D01*
X8148823Y8983309D02*
X8156080Y8988147D01*
X8156080Y8988147D02*
X8159708Y8992985D01*
X8159708Y8992985D02*
X8163337Y9002661D01*
X8163337Y9002661D02*
X8163337Y9084909D01*
X8192366Y9084909D02*
X8243166Y8983309D01*
X8243166Y9084909D02*
X8192366Y8983309D01*
X10510951Y5761066D02*
X10409351Y5761066D01*
X10409351Y5761066D02*
X10409351Y5790094D01*
X10409351Y5790094D02*
X10414190Y5797351D01*
X10414190Y5797351D02*
X10419028Y5800980D01*
X10419028Y5800980D02*
X10428704Y5804609D01*
X10428704Y5804609D02*
X10443218Y5804609D01*
X10443218Y5804609D02*
X10452894Y5800980D01*
X10452894Y5800980D02*
X10457732Y5797351D01*
X10457732Y5797351D02*
X10462571Y5790094D01*
X10462571Y5790094D02*
X10462571Y5761066D01*
X10452894Y5848151D02*
X10448056Y5840894D01*
X10448056Y5840894D02*
X10443218Y5837266D01*
X10443218Y5837266D02*
X10433542Y5833637D01*
X10433542Y5833637D02*
X10428704Y5833637D01*
X10428704Y5833637D02*
X10419028Y5837266D01*
X10419028Y5837266D02*
X10414190Y5840894D01*
X10414190Y5840894D02*
X10409351Y5848151D01*
X10409351Y5848151D02*
X10409351Y5862666D01*
X10409351Y5862666D02*
X10414190Y5869923D01*
X10414190Y5869923D02*
X10419028Y5873551D01*
X10419028Y5873551D02*
X10428704Y5877180D01*
X10428704Y5877180D02*
X10433542Y5877180D01*
X10433542Y5877180D02*
X10443218Y5873551D01*
X10443218Y5873551D02*
X10448056Y5869923D01*
X10448056Y5869923D02*
X10452894Y5862666D01*
X10452894Y5862666D02*
X10452894Y5848151D01*
X10452894Y5848151D02*
X10457732Y5840894D01*
X10457732Y5840894D02*
X10462571Y5837266D01*
X10462571Y5837266D02*
X10472247Y5833637D01*
X10472247Y5833637D02*
X10491599Y5833637D01*
X10491599Y5833637D02*
X10501275Y5837266D01*
X10501275Y5837266D02*
X10506113Y5840894D01*
X10506113Y5840894D02*
X10510951Y5848151D01*
X10510951Y5848151D02*
X10510951Y5862666D01*
X10510951Y5862666D02*
X10506113Y5869923D01*
X10506113Y5869923D02*
X10501275Y5873551D01*
X10501275Y5873551D02*
X10491599Y5877180D01*
X10491599Y5877180D02*
X10472247Y5877180D01*
X10472247Y5877180D02*
X10462571Y5873551D01*
X10462571Y5873551D02*
X10457732Y5869923D01*
X10457732Y5869923D02*
X10452894Y5862666D01*
X10409351Y5924351D02*
X10409351Y5931609D01*
X10409351Y5931609D02*
X10414190Y5938866D01*
X10414190Y5938866D02*
X10419028Y5942494D01*
X10419028Y5942494D02*
X10428704Y5946123D01*
X10428704Y5946123D02*
X10448056Y5949751D01*
X10448056Y5949751D02*
X10472247Y5949751D01*
X10472247Y5949751D02*
X10491599Y5946123D01*
X10491599Y5946123D02*
X10501275Y5942494D01*
X10501275Y5942494D02*
X10506113Y5938866D01*
X10506113Y5938866D02*
X10510951Y5931609D01*
X10510951Y5931609D02*
X10510951Y5924351D01*
X10510951Y5924351D02*
X10506113Y5917094D01*
X10506113Y5917094D02*
X10501275Y5913466D01*
X10501275Y5913466D02*
X10491599Y5909837D01*
X10491599Y5909837D02*
X10472247Y5906209D01*
X10472247Y5906209D02*
X10448056Y5906209D01*
X10448056Y5906209D02*
X10428704Y5909837D01*
X10428704Y5909837D02*
X10419028Y5913466D01*
X10419028Y5913466D02*
X10414190Y5917094D01*
X10414190Y5917094D02*
X10409351Y5924351D01*
X10506113Y6036837D02*
X10510951Y6047723D01*
X10510951Y6047723D02*
X10510951Y6065866D01*
X10510951Y6065866D02*
X10506113Y6073123D01*
X10506113Y6073123D02*
X10501275Y6076751D01*
X10501275Y6076751D02*
X10491599Y6080380D01*
X10491599Y6080380D02*
X10481923Y6080380D01*
X10481923Y6080380D02*
X10472247Y6076751D01*
X10472247Y6076751D02*
X10467409Y6073123D01*
X10467409Y6073123D02*
X10462571Y6065866D01*
X10462571Y6065866D02*
X10457732Y6051351D01*
X10457732Y6051351D02*
X10452894Y6044094D01*
X10452894Y6044094D02*
X10448056Y6040466D01*
X10448056Y6040466D02*
X10438380Y6036837D01*
X10438380Y6036837D02*
X10428704Y6036837D01*
X10428704Y6036837D02*
X10419028Y6040466D01*
X10419028Y6040466D02*
X10414190Y6044094D01*
X10414190Y6044094D02*
X10409351Y6051351D01*
X10409351Y6051351D02*
X10409351Y6069494D01*
X10409351Y6069494D02*
X10414190Y6080380D01*
X10510951Y6113037D02*
X10409351Y6113037D01*
X10457732Y6113037D02*
X10457732Y6156580D01*
X10510951Y6156580D02*
X10409351Y6156580D01*
X10510951Y6192866D02*
X10409351Y6192866D01*
X10457732Y6229151D02*
X10457732Y6254551D01*
X10510951Y6265437D02*
X10510951Y6229151D01*
X10510951Y6229151D02*
X10409351Y6229151D01*
X10409351Y6229151D02*
X10409351Y6265437D01*
X10510951Y6334380D02*
X10510951Y6298094D01*
X10510951Y6298094D02*
X10409351Y6298094D01*
X10510951Y6359780D02*
X10409351Y6359780D01*
X10409351Y6359780D02*
X10409351Y6377923D01*
X10409351Y6377923D02*
X10414190Y6388809D01*
X10414190Y6388809D02*
X10423866Y6396066D01*
X10423866Y6396066D02*
X10433542Y6399694D01*
X10433542Y6399694D02*
X10452894Y6403323D01*
X10452894Y6403323D02*
X10467409Y6403323D01*
X10467409Y6403323D02*
X10486761Y6399694D01*
X10486761Y6399694D02*
X10496437Y6396066D01*
X10496437Y6396066D02*
X10506113Y6388809D01*
X10506113Y6388809D02*
X10510951Y6377923D01*
X10510951Y6377923D02*
X10510951Y6359780D01*
X5861371Y6186769D02*
X5861371Y6288369D01*
X5861371Y6288369D02*
X5890400Y6288369D01*
X5890400Y6288369D02*
X5897657Y6283530D01*
X5897657Y6283530D02*
X5901286Y6278692D01*
X5901286Y6278692D02*
X5904914Y6269016D01*
X5904914Y6269016D02*
X5904914Y6254502D01*
X5904914Y6254502D02*
X5901286Y6244826D01*
X5901286Y6244826D02*
X5897657Y6239988D01*
X5897657Y6239988D02*
X5890400Y6235149D01*
X5890400Y6235149D02*
X5861371Y6235149D01*
X5933943Y6278692D02*
X5937571Y6283530D01*
X5937571Y6283530D02*
X5944829Y6288369D01*
X5944829Y6288369D02*
X5962971Y6288369D01*
X5962971Y6288369D02*
X5970229Y6283530D01*
X5970229Y6283530D02*
X5973857Y6278692D01*
X5973857Y6278692D02*
X5977486Y6269016D01*
X5977486Y6269016D02*
X5977486Y6259340D01*
X5977486Y6259340D02*
X5973857Y6244826D01*
X5973857Y6244826D02*
X5930314Y6186769D01*
X5930314Y6186769D02*
X5977486Y6186769D01*
X6013771Y6186769D02*
X6028286Y6186769D01*
X6028286Y6186769D02*
X6035543Y6191607D01*
X6035543Y6191607D02*
X6039171Y6196445D01*
X6039171Y6196445D02*
X6046428Y6210959D01*
X6046428Y6210959D02*
X6050057Y6230311D01*
X6050057Y6230311D02*
X6050057Y6269016D01*
X6050057Y6269016D02*
X6046428Y6278692D01*
X6046428Y6278692D02*
X6042800Y6283530D01*
X6042800Y6283530D02*
X6035543Y6288369D01*
X6035543Y6288369D02*
X6021028Y6288369D01*
X6021028Y6288369D02*
X6013771Y6283530D01*
X6013771Y6283530D02*
X6010143Y6278692D01*
X6010143Y6278692D02*
X6006514Y6269016D01*
X6006514Y6269016D02*
X6006514Y6244826D01*
X6006514Y6244826D02*
X6010143Y6235149D01*
X6010143Y6235149D02*
X6013771Y6230311D01*
X6013771Y6230311D02*
X6021028Y6225473D01*
X6021028Y6225473D02*
X6035543Y6225473D01*
X6035543Y6225473D02*
X6042800Y6230311D01*
X6042800Y6230311D02*
X6046428Y6235149D01*
X6046428Y6235149D02*
X6050057Y6244826D01*
X-667589Y4302743D02*
X-667589Y4346286D01*
X-565989Y4324514D02*
X-667589Y4324514D01*
X-667589Y4364429D02*
X-565989Y4415229D01*
X-667589Y4415229D02*
X-565989Y4364429D01*
D10*
G04 #@! TO.C,D6*
X-1093000Y4456200D02*
X-1093000Y4316200D01*
X-1093000Y4456200D02*
X-1063000Y4486200D01*
X-1093000Y4316200D02*
X-1063000Y4286200D01*
X-1063000Y4606200D02*
X-1063000Y4166200D01*
X-1063000Y4166200D02*
X-923000Y4166200D01*
X-1033000Y4406200D02*
X-993000Y4366200D01*
X-993000Y4366200D02*
X-953000Y4406200D01*
X-953000Y4406200D02*
X-1033000Y4406200D01*
X-923000Y4606200D02*
X-1063000Y4606200D01*
X-923000Y4166200D02*
X-923000Y4606200D01*
G04 #@! TO.C,D4*
X-1093000Y5370600D02*
X-1093000Y5230600D01*
X-1093000Y5370600D02*
X-1063000Y5400600D01*
X-1093000Y5230600D02*
X-1063000Y5200600D01*
X-1063000Y5520600D02*
X-1063000Y5080600D01*
X-1063000Y5080600D02*
X-923000Y5080600D01*
X-1033000Y5320600D02*
X-993000Y5280600D01*
X-993000Y5280600D02*
X-953000Y5320600D01*
X-953000Y5320600D02*
X-1033000Y5320600D01*
X-923000Y5520600D02*
X-1063000Y5520600D01*
X-923000Y5080600D02*
X-923000Y5520600D01*
G04 #@! TO.C,D8*
X-1093000Y6285000D02*
X-1093000Y6145000D01*
X-1093000Y6285000D02*
X-1063000Y6315000D01*
X-1093000Y6145000D02*
X-1063000Y6115000D01*
X-1063000Y6435000D02*
X-1063000Y5995000D01*
X-1063000Y5995000D02*
X-923000Y5995000D01*
X-1033000Y6235000D02*
X-993000Y6195000D01*
X-993000Y6195000D02*
X-953000Y6235000D01*
X-953000Y6235000D02*
X-1033000Y6235000D01*
X-923000Y6435000D02*
X-1063000Y6435000D01*
X-923000Y5995000D02*
X-923000Y6435000D01*
G04 #@! TO.C,D5*
X-1093000Y4913400D02*
X-1093000Y4773400D01*
X-1093000Y4913400D02*
X-1063000Y4943400D01*
X-1093000Y4773400D02*
X-1063000Y4743400D01*
X-1063000Y5063400D02*
X-1063000Y4623400D01*
X-1063000Y4623400D02*
X-923000Y4623400D01*
X-1033000Y4863400D02*
X-993000Y4823400D01*
X-993000Y4823400D02*
X-953000Y4863400D01*
X-953000Y4863400D02*
X-1033000Y4863400D01*
X-923000Y5063400D02*
X-1063000Y5063400D01*
X-923000Y4623400D02*
X-923000Y5063400D01*
G04 #@! TO.C,D2*
X-1093000Y5827800D02*
X-1093000Y5687800D01*
X-1093000Y5827800D02*
X-1063000Y5857800D01*
X-1093000Y5687800D02*
X-1063000Y5657800D01*
X-1063000Y5977800D02*
X-1063000Y5537800D01*
X-1063000Y5537800D02*
X-923000Y5537800D01*
X-1033000Y5777800D02*
X-993000Y5737800D01*
X-993000Y5737800D02*
X-953000Y5777800D01*
X-953000Y5777800D02*
X-1033000Y5777800D01*
X-923000Y5977800D02*
X-1063000Y5977800D01*
X-923000Y5537800D02*
X-923000Y5977800D01*
G04 #@! TO.C,TESTPOINT-30MIL-MASKONLY*
X1861402Y5020092D02*
G75*
G02*
X1761402Y5020092I-50000J0D01*
G01*
X1761402Y5020092D02*
G75*
G02*
X1861402Y5020092I50000J0D01*
G01*
X1340460Y4104260D02*
G75*
G02*
X1240460Y4104260I-50000J0D01*
G01*
X1240460Y4104260D02*
G75*
G02*
X1340460Y4104260I50000J0D01*
G01*
X487516Y4848642D02*
G75*
G02*
X387516Y4848642I-50000J0D01*
G01*
X387516Y4848642D02*
G75*
G02*
X487516Y4848642I50000J0D01*
G01*
X335370Y4654840D02*
G75*
G02*
X235370Y4654840I-50000J0D01*
G01*
X235370Y4654840D02*
G75*
G02*
X335370Y4654840I50000J0D01*
G01*
X2308200Y5376800D02*
G75*
G02*
X2208200Y5376800I-50000J0D01*
G01*
X2208200Y5376800D02*
G75*
G02*
X2308200Y5376800I50000J0D01*
G01*
X1470000Y3133980D02*
G75*
G02*
X1370000Y3133980I-50000J0D01*
G01*
X1370000Y3133980D02*
G75*
G02*
X1470000Y3133980I50000J0D01*
G01*
X4321900Y3095026D02*
G75*
G02*
X4221900Y3095026I-50000J0D01*
G01*
X4221900Y3095026D02*
G75*
G02*
X4321900Y3095026I50000J0D01*
G01*
X3341206Y2390176D02*
G75*
G02*
X3241206Y2390176I-50000J0D01*
G01*
X3241206Y2390176D02*
G75*
G02*
X3341206Y2390176I50000J0D01*
G01*
X3382594Y2774692D02*
G75*
G02*
X3282594Y2774692I-50000J0D01*
G01*
X3282594Y2774692D02*
G75*
G02*
X3382594Y2774692I50000J0D01*
G01*
X3031580Y2643668D02*
G75*
G02*
X2931580Y2643668I-50000J0D01*
G01*
X2931580Y2643668D02*
G75*
G02*
X3031580Y2643668I50000J0D01*
G01*
X811860Y4497320D02*
G75*
G02*
X711860Y4497320I-50000J0D01*
G01*
X711860Y4497320D02*
G75*
G02*
X811860Y4497320I50000J0D01*
G01*
X3920820Y3323840D02*
G75*
G02*
X3820820Y3323840I-50000J0D01*
G01*
X3820820Y3323840D02*
G75*
G02*
X3920820Y3323840I50000J0D01*
G01*
X2866226Y4501170D02*
G75*
G02*
X2766226Y4501170I-50000J0D01*
G01*
X2766226Y4501170D02*
G75*
G02*
X2866226Y4501170I50000J0D01*
G01*
X3253068Y3842040D02*
G75*
G02*
X3153068Y3842040I-50000J0D01*
G01*
X3153068Y3842040D02*
G75*
G02*
X3253068Y3842040I50000J0D01*
G01*
X4201504Y3898936D02*
G75*
G02*
X4101504Y3898936I-50000J0D01*
G01*
X4101504Y3898936D02*
G75*
G02*
X4201504Y3898936I50000J0D01*
G01*
G04 #@! TO.C,D7*
X-1120000Y7550000D02*
X-1120000Y7410000D01*
X-1120000Y7550000D02*
X-1090000Y7580000D01*
X-1120000Y7410000D02*
X-1090000Y7380000D01*
X-1090000Y7700000D02*
X-1090000Y7260000D01*
X-1090000Y7260000D02*
X-950000Y7260000D01*
X-1060000Y7500000D02*
X-1020000Y7460000D01*
X-1020000Y7460000D02*
X-980000Y7500000D01*
X-980000Y7500000D02*
X-1060000Y7500000D01*
X-950000Y7700000D02*
X-1090000Y7700000D01*
X-950000Y7260000D02*
X-950000Y7700000D01*
G04 #@! TO.C,MARK1MM*
X10130000Y9070000D02*
G75*
G02*
X9830000Y9070000I-150000J0D01*
G01*
X9830000Y9070000D02*
G75*
G02*
X10130000Y9070000I150000J0D01*
G01*
G04 #@! TO.C,C1*
X1951540Y3054220D02*
X2027740Y3054220D01*
X1951540Y2876420D02*
X1951540Y3054220D01*
X2027740Y3054220D02*
X2027740Y2876420D01*
X2027740Y2876420D02*
X1951540Y2876420D01*
G04 #@! TO.C,C2*
X1849940Y3054220D02*
X1926140Y3054220D01*
X1849940Y2876420D02*
X1849940Y3054220D01*
X1926140Y3054220D02*
X1926140Y2876420D01*
X1926140Y2876420D02*
X1849940Y2876420D01*
G04 #@! TO.C,C3*
X2154740Y3054220D02*
X2230940Y3054220D01*
X2154740Y2876420D02*
X2154740Y3054220D01*
X2230940Y3054220D02*
X2230940Y2876420D01*
X2230940Y2876420D02*
X2154740Y2876420D01*
G04 #@! TO.C,C4*
X2053140Y3054220D02*
X2129340Y3054220D01*
X2053140Y2876420D02*
X2053140Y3054220D01*
X2129340Y3054220D02*
X2129340Y2876420D01*
X2129340Y2876420D02*
X2053140Y2876420D01*
G04 #@! TO.C,C5*
X2076000Y4126100D02*
X2152200Y4126100D01*
X2076000Y3948300D02*
X2076000Y4126100D01*
X2152200Y4126100D02*
X2152200Y3948300D01*
X2152200Y3948300D02*
X2076000Y3948300D01*
G04 #@! TO.C,C6*
X2177600Y4126100D02*
X2253800Y4126100D01*
X2177600Y3948300D02*
X2177600Y4126100D01*
X2253800Y4126100D02*
X2253800Y3948300D01*
X2253800Y3948300D02*
X2177600Y3948300D01*
G04 #@! TO.C,C7*
X3499500Y2450480D02*
X3677300Y2450480D01*
X3499500Y2374280D02*
X3499500Y2450480D01*
X3677300Y2450480D02*
X3677300Y2374280D01*
X3677300Y2374280D02*
X3499500Y2374280D01*
G04 #@! TO.C,C8*
X4233800Y3814100D02*
X4310000Y3814100D01*
X4233800Y3636300D02*
X4233800Y3814100D01*
X4310000Y3814100D02*
X4310000Y3636300D01*
X4310000Y3636300D02*
X4233800Y3636300D01*
G04 #@! TO.C,C9*
X1381900Y4442080D02*
X1458100Y4442080D01*
X1381900Y4264280D02*
X1381900Y4442080D01*
X1458100Y4442080D02*
X1458100Y4264280D01*
X1458100Y4264280D02*
X1381900Y4264280D01*
G04 #@! TO.C,C12*
X1621340Y3976240D02*
X1697540Y3976240D01*
X1621340Y3798440D02*
X1621340Y3976240D01*
X1697540Y3976240D02*
X1697540Y3798440D01*
X1697540Y3798440D02*
X1621340Y3798440D01*
G04 #@! TO.C,C13*
X1646740Y4217540D02*
X1824540Y4217540D01*
X1646740Y4141340D02*
X1646740Y4217540D01*
X1824540Y4217540D02*
X1824540Y4141340D01*
X1824540Y4141340D02*
X1646740Y4141340D01*
G04 #@! TO.C,C14*
X1875340Y4090540D02*
X1951540Y4090540D01*
X1875340Y3912740D02*
X1875340Y4090540D01*
X1951540Y4090540D02*
X1951540Y3912740D01*
X1951540Y3912740D02*
X1875340Y3912740D01*
G04 #@! TO.C,C15*
X1875340Y4217540D02*
X2053140Y4217540D01*
X1875340Y4141340D02*
X1875340Y4217540D01*
X2053140Y4217540D02*
X2053140Y4141340D01*
X2053140Y4141340D02*
X1875340Y4141340D01*
G04 #@! TO.C,C16*
X3527920Y2919980D02*
X3604120Y2919980D01*
X3527920Y2742180D02*
X3527920Y2919980D01*
X3604120Y2919980D02*
X3604120Y2742180D01*
X3604120Y2742180D02*
X3527920Y2742180D01*
G04 #@! TO.C,C17*
X1084680Y5114280D02*
X1262480Y5114280D01*
X1084680Y5038080D02*
X1084680Y5114280D01*
X1262480Y5114280D02*
X1262480Y5038080D01*
X1262480Y5038080D02*
X1084680Y5038080D01*
G04 #@! TO.C,C18*
X678280Y5114280D02*
X856080Y5114280D01*
X678280Y5038080D02*
X678280Y5114280D01*
X856080Y5114280D02*
X856080Y5038080D01*
X856080Y5038080D02*
X678280Y5038080D01*
G04 #@! TO.C,C20*
X1551800Y5155220D02*
X1729600Y5155220D01*
X1551800Y5079020D02*
X1551800Y5155220D01*
X1729600Y5155220D02*
X1729600Y5079020D01*
X1729600Y5079020D02*
X1551800Y5079020D01*
G04 #@! TO.C,C21*
X3034920Y2770160D02*
X3212720Y2770160D01*
X3034920Y2693960D02*
X3034920Y2770160D01*
X3212720Y2770160D02*
X3212720Y2693960D01*
X3212720Y2693960D02*
X3034920Y2693960D01*
G04 #@! TO.C,C22*
X2364600Y2706620D02*
X2542400Y2706620D01*
X2364600Y2630420D02*
X2364600Y2706620D01*
X2542400Y2706620D02*
X2542400Y2630420D01*
X2542400Y2630420D02*
X2364600Y2630420D01*
G04 #@! TO.C,C23*
X2968880Y4240820D02*
X3045080Y4240820D01*
X2968880Y4063020D02*
X2968880Y4240820D01*
X3045080Y4240820D02*
X3045080Y4063020D01*
X3045080Y4063020D02*
X2968880Y4063020D01*
G04 #@! TO.C,C24*
X2110600Y5002780D02*
X2186800Y5002780D01*
X2110600Y4824980D02*
X2110600Y5002780D01*
X2186800Y5002780D02*
X2186800Y4824980D01*
X2186800Y4824980D02*
X2110600Y4824980D01*
G04 #@! TO.C,C25*
X2510340Y2934840D02*
X2688140Y2934840D01*
X2510340Y2858640D02*
X2510340Y2934840D01*
X2688140Y2934840D02*
X2688140Y2858640D01*
X2688140Y2858640D02*
X2510340Y2858640D01*
G04 #@! TO.C,C26*
X678280Y5419080D02*
X856080Y5419080D01*
X678280Y5342880D02*
X678280Y5419080D01*
X856080Y5419080D02*
X856080Y5342880D01*
X856080Y5342880D02*
X678280Y5342880D01*
G04 #@! TO.C,C27*
X1084680Y5419080D02*
X1262480Y5419080D01*
X1084680Y5342880D02*
X1084680Y5419080D01*
X1262480Y5419080D02*
X1262480Y5342880D01*
X1262480Y5342880D02*
X1084680Y5342880D01*
G04 #@! TO.C,C28*
X2510340Y2820540D02*
X2688140Y2820540D01*
X2510340Y2744340D02*
X2510340Y2820540D01*
X2688140Y2820540D02*
X2688140Y2744340D01*
X2688140Y2744340D02*
X2510340Y2744340D01*
G04 #@! TO.C,C30*
X1315580Y5005320D02*
X1391780Y5005320D01*
X1315580Y4827520D02*
X1315580Y5005320D01*
X1391780Y5005320D02*
X1391780Y4827520D01*
X1391780Y4827520D02*
X1315580Y4827520D01*
G04 #@! TO.C,C31*
X401420Y5114280D02*
X477620Y5114280D01*
X401420Y4936480D02*
X401420Y5114280D01*
X477620Y5114280D02*
X477620Y4936480D01*
X477620Y4936480D02*
X401420Y4936480D01*
G04 #@! TO.C,C32*
X3034920Y2427260D02*
X3212720Y2427260D01*
X3034920Y2351060D02*
X3034920Y2427260D01*
X3212720Y2427260D02*
X3212720Y2351060D01*
X3212720Y2351060D02*
X3034920Y2351060D01*
G04 #@! TO.C,C33*
X2853240Y2945000D02*
X2929440Y2945000D01*
X2853240Y2767200D02*
X2853240Y2945000D01*
X2929440Y2945000D02*
X2929440Y2767200D01*
X2929440Y2767200D02*
X2853240Y2767200D01*
G04 #@! TO.C,C34*
X2672900Y4166740D02*
X2749100Y4166740D01*
X2672900Y3988940D02*
X2672900Y4166740D01*
X2749100Y4166740D02*
X2749100Y3988940D01*
X2749100Y3988940D02*
X2672900Y3988940D01*
G04 #@! TO.C,C35*
X2558600Y4242940D02*
X2634800Y4242940D01*
X2558600Y4065140D02*
X2558600Y4242940D01*
X2634800Y4242940D02*
X2634800Y4065140D01*
X2634800Y4065140D02*
X2558600Y4065140D01*
G04 #@! TO.C,C36*
X2444300Y4281040D02*
X2520500Y4281040D01*
X2444300Y4103240D02*
X2444300Y4281040D01*
X2520500Y4281040D02*
X2520500Y4103240D01*
X2520500Y4103240D02*
X2444300Y4103240D01*
G04 #@! TO.C,C37*
X2164900Y4316600D02*
X2342700Y4316600D01*
X2164900Y4240400D02*
X2164900Y4316600D01*
X2342700Y4316600D02*
X2342700Y4240400D01*
X2342700Y4240400D02*
X2164900Y4240400D01*
G04 #@! TO.C,C38*
X35660Y5025380D02*
X213460Y5025380D01*
X35660Y4949180D02*
X35660Y5025380D01*
X213460Y5025380D02*
X213460Y4949180D01*
X213460Y4949180D02*
X35660Y4949180D01*
G04 #@! TO.C,C39*
X972440Y4624360D02*
X1048640Y4624360D01*
X972440Y4446560D02*
X972440Y4624360D01*
X1048640Y4624360D02*
X1048640Y4446560D01*
X1048640Y4446560D02*
X972440Y4446560D01*
G04 #@! TO.C,C40*
X35660Y4900920D02*
X213460Y4900920D01*
X35660Y4824720D02*
X35660Y4900920D01*
X213460Y4900920D02*
X213460Y4824720D01*
X213460Y4824720D02*
X35660Y4824720D01*
G04 #@! TO.C,C41*
X2723700Y3125340D02*
X2901500Y3125340D01*
X2723700Y3049140D02*
X2723700Y3125340D01*
X2901500Y3125340D02*
X2901500Y3049140D01*
X2901500Y3049140D02*
X2723700Y3049140D01*
G04 #@! TO.C,C42*
X2596700Y3836540D02*
X2774500Y3836540D01*
X2596700Y3760340D02*
X2596700Y3836540D01*
X2774500Y3836540D02*
X2774500Y3760340D01*
X2774500Y3760340D02*
X2596700Y3760340D01*
G04 #@! TO.C,C43*
X-8000Y4766600D02*
X169800Y4766600D01*
X-8000Y4690400D02*
X-8000Y4766600D01*
X169800Y4766600D02*
X169800Y4690400D01*
X169800Y4690400D02*
X-8000Y4690400D01*
G04 #@! TO.C,C44*
X705980Y4416080D02*
X782180Y4416080D01*
X705980Y4238280D02*
X705980Y4416080D01*
X782180Y4416080D02*
X782180Y4238280D01*
X782180Y4238280D02*
X705980Y4238280D01*
G04 #@! TO.C,C45*
X3113900Y3636260D02*
X3291700Y3636260D01*
X3113900Y3560060D02*
X3113900Y3636260D01*
X3291700Y3636260D02*
X3291700Y3560060D01*
X3291700Y3560060D02*
X3113900Y3560060D01*
G04 #@! TO.C,C46*
X3103740Y3491480D02*
X3281540Y3491480D01*
X3103740Y3415280D02*
X3103740Y3491480D01*
X3281540Y3491480D02*
X3281540Y3415280D01*
X3281540Y3415280D02*
X3103740Y3415280D01*
G04 #@! TO.C,C47*
X4058540Y3702340D02*
X4134740Y3702340D01*
X4058540Y3524540D02*
X4058540Y3702340D01*
X4134740Y3702340D02*
X4134740Y3524540D01*
X4134740Y3524540D02*
X4058540Y3524540D01*
G04 #@! TO.C,C48*
X3809860Y3958880D02*
X3886060Y3958880D01*
X3809860Y3781080D02*
X3809860Y3958880D01*
X3886060Y3958880D02*
X3886060Y3781080D01*
X3886060Y3781080D02*
X3809860Y3781080D01*
G04 #@! TO.C,C49*
X2926900Y3734940D02*
X3003100Y3734940D01*
X2926900Y3557140D02*
X2926900Y3734940D01*
X3003100Y3734940D02*
X3003100Y3557140D01*
X3003100Y3557140D02*
X2926900Y3557140D01*
G04 #@! TO.C,C50*
X439280Y4017260D02*
X515480Y4017260D01*
X439280Y3839460D02*
X439280Y4017260D01*
X515480Y4017260D02*
X515480Y3839460D01*
X515480Y3839460D02*
X439280Y3839460D01*
G04 #@! TO.C,C51*
X3568560Y3361940D02*
X3746360Y3361940D01*
X3568560Y3285740D02*
X3568560Y3361940D01*
X3746360Y3361940D02*
X3746360Y3285740D01*
X3746360Y3285740D02*
X3568560Y3285740D01*
G04 #@! TO.C,C52*
X-127140Y4055360D02*
X50660Y4055360D01*
X-127140Y3979160D02*
X-127140Y4055360D01*
X50660Y4055360D02*
X50660Y3979160D01*
X50660Y3979160D02*
X-127140Y3979160D01*
G04 #@! TO.C,C53*
X-127140Y4162040D02*
X50660Y4162040D01*
X-127140Y4085840D02*
X-127140Y4162040D01*
X50660Y4162040D02*
X50660Y4085840D01*
X50660Y4085840D02*
X-127140Y4085840D01*
G04 #@! TO.C,C54*
X3281540Y3318760D02*
X3357740Y3318760D01*
X3281540Y3140960D02*
X3281540Y3318760D01*
X3357740Y3318760D02*
X3357740Y3140960D01*
X3357740Y3140960D02*
X3281540Y3140960D01*
G04 #@! TO.C,C55*
X864360Y4214220D02*
X1042160Y4214220D01*
X864360Y4138020D02*
X864360Y4214220D01*
X1042160Y4214220D02*
X1042160Y4138020D01*
X1042160Y4138020D02*
X864360Y4138020D01*
G04 #@! TO.C,C56*
X3581020Y3872520D02*
X3657220Y3872520D01*
X3581020Y3694720D02*
X3581020Y3872520D01*
X3657220Y3872520D02*
X3657220Y3694720D01*
X3657220Y3694720D02*
X3581020Y3694720D01*
G04 #@! TO.C,C57*
X581520Y4426200D02*
X657720Y4426200D01*
X581520Y4248400D02*
X581520Y4426200D01*
X657720Y4426200D02*
X657720Y4248400D01*
X657720Y4248400D02*
X581520Y4248400D01*
G04 #@! TO.C,C58*
X-233820Y3882640D02*
X-157620Y3882640D01*
X-233820Y3704840D02*
X-233820Y3882640D01*
X-157620Y3882640D02*
X-157620Y3704840D01*
X-157620Y3704840D02*
X-233820Y3704840D01*
G04 #@! TO.C,C59*
X779640Y3859780D02*
X957440Y3859780D01*
X779640Y3783580D02*
X779640Y3859780D01*
X957440Y3859780D02*
X957440Y3783580D01*
X957440Y3783580D02*
X779640Y3783580D01*
G04 #@! TO.C,C60*
X457060Y4248400D02*
X533260Y4248400D01*
X457060Y4070600D02*
X457060Y4248400D01*
X533260Y4248400D02*
X533260Y4070600D01*
X533260Y4070600D02*
X457060Y4070600D01*
G04 #@! TO.C,C61*
X492620Y3715000D02*
X568820Y3715000D01*
X492620Y3537200D02*
X492620Y3715000D01*
X568820Y3715000D02*
X568820Y3537200D01*
X568820Y3537200D02*
X492620Y3537200D01*
G04 #@! TO.C,C63*
X705980Y3021580D02*
X782180Y3021580D01*
X705980Y2843780D02*
X705980Y3021580D01*
X782180Y3021580D02*
X782180Y2843780D01*
X782180Y2843780D02*
X705980Y2843780D01*
G04 #@! TO.C,C64*
X352920Y3153660D02*
X429120Y3153660D01*
X352920Y2975860D02*
X352920Y3153660D01*
X429120Y3153660D02*
X429120Y2975860D01*
X429120Y2975860D02*
X352920Y2975860D01*
G04 #@! TO.C,C65*
X599300Y3021580D02*
X675500Y3021580D01*
X599300Y2843780D02*
X599300Y3021580D01*
X675500Y3021580D02*
X675500Y2843780D01*
X675500Y2843780D02*
X599300Y2843780D01*
G04 #@! TO.C,C66*
X492620Y3021580D02*
X568820Y3021580D01*
X492620Y2843780D02*
X492620Y3021580D01*
X568820Y3021580D02*
X568820Y2843780D01*
X568820Y2843780D02*
X492620Y2843780D01*
G04 #@! TO.C,C67*
X4949920Y2929260D02*
X5026120Y2929260D01*
X4949920Y2751460D02*
X4949920Y2929260D01*
X5026120Y2929260D02*
X5026120Y2751460D01*
X5026120Y2751460D02*
X4949920Y2751460D01*
G04 #@! TO.C,C68*
X5588140Y3786760D02*
X5664340Y3786760D01*
X5588140Y3608960D02*
X5588140Y3786760D01*
X5664340Y3786760D02*
X5664340Y3608960D01*
X5664340Y3608960D02*
X5588140Y3608960D01*
G04 #@! TO.C,C69*
X5699900Y3880740D02*
X5877700Y3880740D01*
X5699900Y3804540D02*
X5699900Y3880740D01*
X5877700Y3880740D02*
X5877700Y3804540D01*
X5877700Y3804540D02*
X5699900Y3804540D01*
G04 #@! TO.C,C70*
X4949920Y2726060D02*
X5026120Y2726060D01*
X4949920Y2548260D02*
X4949920Y2726060D01*
X5026120Y2726060D02*
X5026120Y2548260D01*
X5026120Y2548260D02*
X4949920Y2548260D01*
G04 #@! TO.C,C71*
X2890140Y7503120D02*
X2966340Y7503120D01*
X2890140Y7325320D02*
X2890140Y7503120D01*
X2966340Y7503120D02*
X2966340Y7325320D01*
X2966340Y7325320D02*
X2890140Y7325320D01*
G04 #@! TO.C,C72*
X2788540Y7503120D02*
X2864740Y7503120D01*
X2788540Y7325320D02*
X2788540Y7503120D01*
X2864740Y7503120D02*
X2864740Y7325320D01*
X2864740Y7325320D02*
X2788540Y7325320D01*
G04 #@! TO.C,C73*
X3182240Y7503120D02*
X3258440Y7503120D01*
X3182240Y7325320D02*
X3182240Y7503120D01*
X3258440Y7503120D02*
X3258440Y7325320D01*
X3258440Y7325320D02*
X3182240Y7325320D01*
G04 #@! TO.C,C74*
X3080640Y7503120D02*
X3156840Y7503120D01*
X3080640Y7325320D02*
X3080640Y7503120D01*
X3156840Y7503120D02*
X3156840Y7325320D01*
X3156840Y7325320D02*
X3080640Y7325320D01*
G04 #@! TO.C,C75*
X3385440Y7503120D02*
X3461640Y7503120D01*
X3385440Y7325320D02*
X3385440Y7503120D01*
X3461640Y7503120D02*
X3461640Y7325320D01*
X3461640Y7325320D02*
X3385440Y7325320D01*
G04 #@! TO.C,C76*
X3487040Y7503120D02*
X3563240Y7503120D01*
X3487040Y7325320D02*
X3487040Y7503120D01*
X3563240Y7503120D02*
X3563240Y7325320D01*
X3563240Y7325320D02*
X3487040Y7325320D01*
G04 #@! TO.C,C77*
X3004440Y8722320D02*
X3080640Y8722320D01*
X3004440Y8544520D02*
X3004440Y8722320D01*
X3080640Y8722320D02*
X3080640Y8544520D01*
X3080640Y8544520D02*
X3004440Y8544520D01*
G04 #@! TO.C,C78*
X2902840Y8722320D02*
X2979040Y8722320D01*
X2902840Y8544520D02*
X2902840Y8722320D01*
X2979040Y8722320D02*
X2979040Y8544520D01*
X2979040Y8544520D02*
X2902840Y8544520D01*
G04 #@! TO.C,C79*
X2464690Y8258770D02*
X2642490Y8258770D01*
X2464690Y8182570D02*
X2464690Y8258770D01*
X2642490Y8258770D02*
X2642490Y8182570D01*
X2642490Y8182570D02*
X2464690Y8182570D01*
G04 #@! TO.C,C80*
X2566290Y8474670D02*
X2642490Y8474670D01*
X2566290Y8296870D02*
X2566290Y8474670D01*
X2642490Y8474670D02*
X2642490Y8296870D01*
X2642490Y8296870D02*
X2566290Y8296870D01*
G04 #@! TO.C,C81*
X2401190Y7992070D02*
X2578990Y7992070D01*
X2401190Y7915870D02*
X2401190Y7992070D01*
X2578990Y7992070D02*
X2578990Y7915870D01*
X2578990Y7915870D02*
X2401190Y7915870D01*
G04 #@! TO.C,C82*
X2401190Y8093670D02*
X2578990Y8093670D01*
X2401190Y8017470D02*
X2401190Y8093670D01*
X2578990Y8093670D02*
X2578990Y8017470D01*
X2578990Y8017470D02*
X2401190Y8017470D01*
G04 #@! TO.C,C83*
X2426590Y7776170D02*
X2604390Y7776170D01*
X2426590Y7699970D02*
X2426590Y7776170D01*
X2604390Y7776170D02*
X2604390Y7699970D01*
X2604390Y7699970D02*
X2426590Y7699970D01*
G04 #@! TO.C,C84*
X3440050Y4610390D02*
X3516250Y4610390D01*
X3440050Y4432590D02*
X3440050Y4610390D01*
X3516250Y4610390D02*
X3516250Y4432590D01*
X3516250Y4432590D02*
X3440050Y4432590D01*
G04 #@! TO.C,C85*
X3744850Y4610390D02*
X3821050Y4610390D01*
X3744850Y4432590D02*
X3744850Y4610390D01*
X3821050Y4610390D02*
X3821050Y4432590D01*
X3821050Y4432590D02*
X3744850Y4432590D01*
G04 #@! TO.C,C86*
X4214750Y4838990D02*
X4290950Y4838990D01*
X4214750Y4661190D02*
X4214750Y4838990D01*
X4290950Y4838990D02*
X4290950Y4661190D01*
X4290950Y4661190D02*
X4214750Y4661190D01*
G04 #@! TO.C,C87*
X4214750Y5118390D02*
X4392550Y5118390D01*
X4214750Y5042190D02*
X4214750Y5118390D01*
X4392550Y5118390D02*
X4392550Y5042190D01*
X4392550Y5042190D02*
X4214750Y5042190D01*
G04 #@! TO.C,C88*
X4290950Y5219990D02*
X4468750Y5219990D01*
X4290950Y5143790D02*
X4290950Y5219990D01*
X4468750Y5219990D02*
X4468750Y5143790D01*
X4468750Y5143790D02*
X4290950Y5143790D01*
G04 #@! TO.C,C89*
X4214750Y5321590D02*
X4392550Y5321590D01*
X4214750Y5245390D02*
X4214750Y5321590D01*
X4392550Y5321590D02*
X4392550Y5245390D01*
X4392550Y5245390D02*
X4214750Y5245390D01*
G04 #@! TO.C,C90*
X3833750Y5727990D02*
X3909950Y5727990D01*
X3833750Y5550190D02*
X3833750Y5727990D01*
X3909950Y5727990D02*
X3909950Y5550190D01*
X3909950Y5550190D02*
X3833750Y5550190D01*
G04 #@! TO.C,C91*
X3935350Y5727990D02*
X4011550Y5727990D01*
X3935350Y5550190D02*
X3935350Y5727990D01*
X4011550Y5727990D02*
X4011550Y5550190D01*
X4011550Y5550190D02*
X3935350Y5550190D01*
G04 #@! TO.C,C92*
X3097150Y5296190D02*
X3274950Y5296190D01*
X3097150Y5219990D02*
X3097150Y5296190D01*
X3274950Y5296190D02*
X3274950Y5219990D01*
X3274950Y5219990D02*
X3097150Y5219990D01*
G04 #@! TO.C,C93*
X3097150Y5194590D02*
X3274950Y5194590D01*
X3097150Y5118390D02*
X3097150Y5194590D01*
X3274950Y5194590D02*
X3274950Y5118390D01*
X3274950Y5118390D02*
X3097150Y5118390D01*
G04 #@! TO.C,C94*
X3097150Y4953290D02*
X3274950Y4953290D01*
X3097150Y4877090D02*
X3097150Y4953290D01*
X3274950Y4953290D02*
X3274950Y4877090D01*
X3274950Y4877090D02*
X3097150Y4877090D01*
G04 #@! TO.C,C95*
X2036700Y6962100D02*
X2214500Y6962100D01*
X2036700Y6885900D02*
X2036700Y6962100D01*
X2214500Y6962100D02*
X2214500Y6885900D01*
X2214500Y6885900D02*
X2036700Y6885900D01*
G04 #@! TO.C,C96*
X2349120Y6962100D02*
X2526920Y6962100D01*
X2349120Y6885900D02*
X2349120Y6962100D01*
X2526920Y6962100D02*
X2526920Y6885900D01*
X2526920Y6885900D02*
X2349120Y6885900D01*
G04 #@! TO.C,C97*
X2483740Y7503120D02*
X2559940Y7503120D01*
X2483740Y7325320D02*
X2483740Y7503120D01*
X2559940Y7503120D02*
X2559940Y7325320D01*
X2559940Y7325320D02*
X2483740Y7325320D01*
G04 #@! TO.C,C98*
X2585340Y7503120D02*
X2661540Y7503120D01*
X2585340Y7325320D02*
X2585340Y7503120D01*
X2661540Y7503120D02*
X2661540Y7325320D01*
X2661540Y7325320D02*
X2585340Y7325320D01*
G04 #@! TO.C,C99*
X3541650Y4508790D02*
X3617850Y4508790D01*
X3541650Y4330990D02*
X3541650Y4508790D01*
X3617850Y4508790D02*
X3617850Y4330990D01*
X3617850Y4330990D02*
X3541650Y4330990D01*
G04 #@! TO.C,C100*
X2686940Y7503120D02*
X2763140Y7503120D01*
X2686940Y7325320D02*
X2686940Y7503120D01*
X2763140Y7503120D02*
X2763140Y7325320D01*
X2763140Y7325320D02*
X2686940Y7325320D01*
G04 #@! TO.C,C101*
X2855850Y6937970D02*
X3033650Y6937970D01*
X2855850Y6861770D02*
X2855850Y6937970D01*
X3033650Y6937970D02*
X3033650Y6861770D01*
X3033650Y6861770D02*
X2855850Y6861770D01*
G04 #@! TO.C,C102*
X3643250Y4508790D02*
X3719450Y4508790D01*
X3643250Y4330990D02*
X3643250Y4508790D01*
X3719450Y4508790D02*
X3719450Y4330990D01*
X3719450Y4330990D02*
X3643250Y4330990D01*
G04 #@! TO.C,C103*
X3168270Y6937970D02*
X3346070Y6937970D01*
X3168270Y6861770D02*
X3168270Y6937970D01*
X3346070Y6937970D02*
X3346070Y6861770D01*
X3346070Y6861770D02*
X3168270Y6861770D01*
G04 #@! TO.C,C104*
X3846450Y4508790D02*
X3922650Y4508790D01*
X3846450Y4330990D02*
X3846450Y4508790D01*
X3922650Y4508790D02*
X3922650Y4330990D01*
X3922650Y4330990D02*
X3846450Y4330990D01*
G04 #@! TO.C,C105*
X1503820Y7012560D02*
X1686700Y7012560D01*
X1503820Y6656960D02*
X1503820Y7012560D01*
X1686700Y7012560D02*
X1686700Y6656960D01*
X1686700Y6656960D02*
X1503820Y6656960D01*
G04 #@! TO.C,C106*
X4036950Y5727990D02*
X4113150Y5727990D01*
X4036950Y5550190D02*
X4036950Y5727990D01*
X4113150Y5727990D02*
X4113150Y5550190D01*
X4113150Y5550190D02*
X4036950Y5550190D01*
G04 #@! TO.C,C107*
X3288920Y7142440D02*
X3365120Y7142440D01*
X3288920Y6964640D02*
X3288920Y7142440D01*
X3365120Y7142440D02*
X3365120Y6964640D01*
X3365120Y6964640D02*
X3288920Y6964640D01*
G04 #@! TO.C,C108*
X3161920Y7142440D02*
X3238120Y7142440D01*
X3161920Y6964640D02*
X3161920Y7142440D01*
X3238120Y7142440D02*
X3238120Y6964640D01*
X3238120Y6964640D02*
X3161920Y6964640D01*
G04 #@! TO.C,C109*
X2976500Y7142440D02*
X3052700Y7142440D01*
X2976500Y6964640D02*
X2976500Y7142440D01*
X3052700Y7142440D02*
X3052700Y6964640D01*
X3052700Y6964640D02*
X2976500Y6964640D01*
G04 #@! TO.C,C110*
X2849500Y7142440D02*
X2925700Y7142440D01*
X2849500Y6964640D02*
X2849500Y7142440D01*
X2925700Y7142440D02*
X2925700Y6964640D01*
X2925700Y6964640D02*
X2849500Y6964640D01*
G04 #@! TO.C,C111*
X3948050Y4508790D02*
X4024250Y4508790D01*
X3948050Y4330990D02*
X3948050Y4508790D01*
X4024250Y4508790D02*
X4024250Y4330990D01*
X4024250Y4330990D02*
X3948050Y4330990D01*
G04 #@! TO.C,C112*
X4214750Y5524790D02*
X4290950Y5524790D01*
X4214750Y5346990D02*
X4214750Y5524790D01*
X4290950Y5524790D02*
X4290950Y5346990D01*
X4290950Y5346990D02*
X4214750Y5346990D01*
G04 #@! TO.C,C113*
X5157020Y2812300D02*
X5233220Y2812300D01*
X5157020Y2634500D02*
X5157020Y2812300D01*
X5233220Y2812300D02*
X5233220Y2634500D01*
X5233220Y2634500D02*
X5157020Y2634500D01*
G04 #@! TO.C,C114*
X4519550Y5524790D02*
X4595750Y5524790D01*
X4519550Y5346990D02*
X4519550Y5524790D01*
X4595750Y5524790D02*
X4595750Y5346990D01*
X4595750Y5346990D02*
X4519550Y5346990D01*
G04 #@! TO.C,C115*
X5072520Y3146680D02*
X5250320Y3146680D01*
X5072520Y3070480D02*
X5072520Y3146680D01*
X5250320Y3146680D02*
X5250320Y3070480D01*
X5250320Y3070480D02*
X5072520Y3070480D01*
G04 #@! TO.C,C116*
X4876940Y3253360D02*
X5054740Y3253360D01*
X4876940Y3177160D02*
X4876940Y3253360D01*
X5054740Y3253360D02*
X5054740Y3177160D01*
X5054740Y3177160D02*
X4876940Y3177160D01*
G04 #@! TO.C,C118*
X8881100Y3798100D02*
X9058900Y3798100D01*
X8881100Y3721900D02*
X8881100Y3798100D01*
X9058900Y3798100D02*
X9058900Y3721900D01*
X9058900Y3721900D02*
X8881100Y3721900D01*
G04 #@! TO.C,C119*
X5766620Y3510800D02*
X5842820Y3510800D01*
X5766620Y3333000D02*
X5766620Y3510800D01*
X5842820Y3510800D02*
X5842820Y3333000D01*
X5842820Y3333000D02*
X5766620Y3333000D01*
G04 #@! TO.C,C120*
X6004700Y3296540D02*
X6080900Y3296540D01*
X6004700Y3118740D02*
X6004700Y3296540D01*
X6080900Y3296540D02*
X6080900Y3118740D01*
X6080900Y3118740D02*
X6004700Y3118740D01*
G04 #@! TO.C,C121*
X4993780Y3037460D02*
X5171580Y3037460D01*
X4993780Y2961260D02*
X4993780Y3037460D01*
X5171580Y3037460D02*
X5171580Y2961260D01*
X5171580Y2961260D02*
X4993780Y2961260D01*
G04 #@! TO.C,C122*
X5374780Y3476880D02*
X5552580Y3476880D01*
X5374780Y3400680D02*
X5374780Y3476880D01*
X5552580Y3476880D02*
X5552580Y3400680D01*
X5552580Y3400680D02*
X5374780Y3400680D01*
G04 #@! TO.C,C123*
X3690240Y8002230D02*
X3868040Y8002230D01*
X3690240Y7926030D02*
X3690240Y8002230D01*
X3868040Y8002230D02*
X3868040Y7926030D01*
X3868040Y7926030D02*
X3690240Y7926030D01*
G04 #@! TO.C,C124*
X3690240Y8103830D02*
X3868040Y8103830D01*
X3690240Y8027630D02*
X3690240Y8103830D01*
X3868040Y8103830D02*
X3868040Y8027630D01*
X3868040Y8027630D02*
X3690240Y8027630D01*
G04 #@! TO.C,C125*
X10137800Y7528780D02*
X10315600Y7528780D01*
X10137800Y7452580D02*
X10137800Y7528780D01*
X10315600Y7528780D02*
X10315600Y7452580D01*
X10315600Y7452580D02*
X10137800Y7452580D01*
G04 #@! TO.C,C126*
X9655200Y7620220D02*
X10010800Y7620220D01*
X9655200Y7437340D02*
X9655200Y7620220D01*
X10010800Y7620220D02*
X10010800Y7437340D01*
X10010800Y7437340D02*
X9655200Y7437340D01*
G04 #@! TO.C,C127*
X9655200Y7836120D02*
X10010800Y7836120D01*
X9655200Y7653240D02*
X9655200Y7836120D01*
X10010800Y7836120D02*
X10010800Y7653240D01*
X10010800Y7653240D02*
X9655200Y7653240D01*
G04 #@! TO.C,C128*
X7874825Y6977986D02*
X7928707Y7031868D01*
X7928707Y7031868D02*
X8054431Y6906144D01*
X8000549Y6852262D02*
X7874825Y6977986D01*
X8054431Y6906144D02*
X8000549Y6852262D01*
G04 #@! TO.C,C129*
X7183346Y6771440D02*
X7237227Y6825322D01*
X7237227Y6825322D02*
X7362951Y6699598D01*
X7309069Y6645717D02*
X7183346Y6771440D01*
X7362951Y6699598D02*
X7309069Y6645717D01*
G04 #@! TO.C,C130*
X6545747Y6133842D02*
X6599629Y6187724D01*
X6599629Y6187724D02*
X6725353Y6062000D01*
X6671471Y6008118D02*
X6545747Y6133842D01*
X6725353Y6062000D02*
X6671471Y6008118D01*
G04 #@! TO.C,C131*
X6080900Y5607940D02*
X6258700Y5607940D01*
X6080900Y5531740D02*
X6080900Y5607940D01*
X6258700Y5607940D02*
X6258700Y5531740D01*
X6258700Y5531740D02*
X6080900Y5531740D01*
G04 #@! TO.C,C132*
X6240017Y4662699D02*
X6365741Y4788423D01*
X6293899Y4608817D02*
X6240017Y4662699D01*
X6365741Y4788423D02*
X6419623Y4734541D01*
X6419623Y4734541D02*
X6293899Y4608817D01*
G04 #@! TO.C,C133*
X6833116Y4086344D02*
X6958839Y4212067D01*
X6886997Y4032462D02*
X6833116Y4086344D01*
X6958839Y4212067D02*
X7012721Y4158186D01*
X7012721Y4158186D02*
X6886997Y4032462D01*
G04 #@! TO.C,C134*
X7291109Y3628351D02*
X7416832Y3754074D01*
X7344990Y3574469D02*
X7291109Y3628351D01*
X7416832Y3754074D02*
X7470714Y3700193D01*
X7470714Y3700193D02*
X7344990Y3574469D01*
G04 #@! TO.C,C135*
X8171174Y3736114D02*
X8225055Y3789995D01*
X8225055Y3789995D02*
X8350779Y3664272D01*
X8296897Y3610390D02*
X8171174Y3736114D01*
X8350779Y3664272D02*
X8296897Y3610390D01*
G04 #@! TO.C,C136*
X8736930Y4301870D02*
X8790812Y4355751D01*
X8790812Y4355751D02*
X8916535Y4230028D01*
X8862654Y4176146D02*
X8736930Y4301870D01*
X8916535Y4230028D02*
X8862654Y4176146D01*
G04 #@! TO.C,C137*
X8880614Y4445554D02*
X8934496Y4499436D01*
X8934496Y4499436D02*
X9060219Y4373712D01*
X9006338Y4319830D02*
X8880614Y4445554D01*
X9060219Y4373712D02*
X9006338Y4319830D01*
G04 #@! TO.C,C138*
X9087160Y4652100D02*
X9141042Y4705981D01*
X9141042Y4705981D02*
X9266765Y4580258D01*
X9212884Y4526376D02*
X9087160Y4652100D01*
X9266765Y4580258D02*
X9212884Y4526376D01*
G04 #@! TO.C,C139*
X9230844Y4795784D02*
X9284726Y4849666D01*
X9284726Y4849666D02*
X9410449Y4723942D01*
X9356568Y4670060D02*
X9230844Y4795784D01*
X9410449Y4723942D02*
X9356568Y4670060D01*
G04 #@! TO.C,C140*
X9270197Y5654079D02*
X9395921Y5779803D01*
X9324079Y5600197D02*
X9270197Y5654079D01*
X9395921Y5779803D02*
X9449803Y5725921D01*
X9449803Y5725921D02*
X9324079Y5600197D01*
G04 #@! TO.C,C141*
X8521404Y6475092D02*
X8647127Y6600815D01*
X8575285Y6421210D02*
X8521404Y6475092D01*
X8647127Y6600815D02*
X8701009Y6546934D01*
X8701009Y6546934D02*
X8575285Y6421210D01*
G04 #@! TO.C,C142*
X8799792Y6178743D02*
X8925515Y6304467D01*
X8853673Y6124862D02*
X8799792Y6178743D01*
X8925515Y6304467D02*
X8979397Y6250585D01*
X8979397Y6250585D02*
X8853673Y6124862D01*
G04 #@! TO.C,C143*
X10236860Y8239980D02*
X10419740Y8239980D01*
X10236860Y7884380D02*
X10236860Y8239980D01*
X10419740Y8239980D02*
X10419740Y7884380D01*
X10419740Y7884380D02*
X10236860Y7884380D01*
G04 #@! TO.C,C144*
X8153020Y3250220D02*
X8330820Y3250220D01*
X8153020Y3174020D02*
X8153020Y3250220D01*
X8330820Y3250220D02*
X8330820Y3174020D01*
X8330820Y3174020D02*
X8153020Y3174020D01*
G04 #@! TO.C,C145*
X9655200Y8496520D02*
X10010800Y8496520D01*
X9655200Y8313640D02*
X9655200Y8496520D01*
X10010800Y8496520D02*
X10010800Y8313640D01*
X10010800Y8313640D02*
X9655200Y8313640D01*
G04 #@! TO.C,C146*
X9655200Y8712420D02*
X10010800Y8712420D01*
X9655200Y8529540D02*
X9655200Y8712420D01*
X10010800Y8712420D02*
X10010800Y8529540D01*
X10010800Y8529540D02*
X9655200Y8529540D01*
G04 #@! TO.C,C147*
X10125100Y8151080D02*
X10201300Y8151080D01*
X10125100Y7973280D02*
X10125100Y8151080D01*
X10201300Y8151080D02*
X10201300Y7973280D01*
X10201300Y7973280D02*
X10125100Y7973280D01*
G04 #@! TO.C,C148*
X6608700Y7542820D02*
X6684900Y7542820D01*
X6608700Y7365020D02*
X6608700Y7542820D01*
X6684900Y7542820D02*
X6684900Y7365020D01*
X6684900Y7365020D02*
X6608700Y7365020D01*
G04 #@! TO.C,C149*
X6649860Y8137780D02*
X6827660Y8137780D01*
X6649860Y8061580D02*
X6649860Y8137780D01*
X6827660Y8137780D02*
X6827660Y8061580D01*
X6827660Y8061580D02*
X6649860Y8061580D01*
G04 #@! TO.C,C150*
X5922900Y8800120D02*
X5999100Y8800120D01*
X5922900Y8622320D02*
X5922900Y8800120D01*
X5999100Y8800120D02*
X5999100Y8622320D01*
X5999100Y8622320D02*
X5922900Y8622320D01*
G04 #@! TO.C,C151*
X4551300Y8520720D02*
X4627500Y8520720D01*
X4551300Y8342920D02*
X4551300Y8520720D01*
X4627500Y8520720D02*
X4627500Y8342920D01*
X4627500Y8342920D02*
X4551300Y8342920D01*
G04 #@! TO.C,C152*
X5232540Y6507100D02*
X5410340Y6507100D01*
X5232540Y6430900D02*
X5232540Y6507100D01*
X5410340Y6507100D02*
X5410340Y6430900D01*
X5410340Y6430900D02*
X5232540Y6430900D01*
G04 #@! TO.C,C153*
X4246500Y7606320D02*
X4424300Y7606320D01*
X4246500Y7530120D02*
X4246500Y7606320D01*
X4424300Y7606320D02*
X4424300Y7530120D01*
X4424300Y7530120D02*
X4246500Y7530120D01*
G04 #@! TO.C,C154*
X4640720Y6639180D02*
X4818520Y6639180D01*
X4640720Y6562980D02*
X4640720Y6639180D01*
X4818520Y6639180D02*
X4818520Y6562980D01*
X4818520Y6562980D02*
X4640720Y6562980D01*
G04 #@! TO.C,C156*
X5067440Y3408300D02*
X5245240Y3408300D01*
X5067440Y3332100D02*
X5067440Y3408300D01*
X5245240Y3408300D02*
X5245240Y3332100D01*
X5245240Y3332100D02*
X5067440Y3332100D01*
G04 #@! TO.C,C157*
X9221864Y5810553D02*
X9347587Y5936276D01*
X9275745Y5756671D02*
X9221864Y5810553D01*
X9347587Y5936276D02*
X9401469Y5882395D01*
X9401469Y5882395D02*
X9275745Y5756671D01*
G04 #@! TO.C,C158*
X9270197Y6405921D02*
X9324079Y6459803D01*
X9324079Y6459803D02*
X9449803Y6334079D01*
X9395921Y6280197D02*
X9270197Y6405921D01*
X9449803Y6334079D02*
X9395921Y6280197D01*
G04 #@! TO.C,C159*
X5890400Y4210940D02*
X6068200Y4210940D01*
X5890400Y4134740D02*
X5890400Y4210940D01*
X6068200Y4210940D02*
X6068200Y4134740D01*
X6068200Y4134740D02*
X5890400Y4134740D01*
G04 #@! TO.C,C160*
X1150480Y3803900D02*
X1226680Y3803900D01*
X1150480Y3626100D02*
X1150480Y3803900D01*
X1226680Y3803900D02*
X1226680Y3626100D01*
X1226680Y3626100D02*
X1150480Y3626100D01*
G04 #@! TO.C,C162*
X840092Y3233924D02*
X1017892Y3233924D01*
X840092Y3157724D02*
X840092Y3233924D01*
X1017892Y3233924D02*
X1017892Y3157724D01*
X1017892Y3157724D02*
X840092Y3157724D01*
G04 #@! TO.C,C163*
X-124854Y4270244D02*
X52946Y4270244D01*
X-124854Y4194044D02*
X-124854Y4270244D01*
X52946Y4270244D02*
X52946Y4194044D01*
X52946Y4194044D02*
X-124854Y4194044D01*
G04 #@! TO.C,C164*
X8991100Y4118100D02*
X9168900Y4118100D01*
X8991100Y4041900D02*
X8991100Y4118100D01*
X9168900Y4118100D02*
X9168900Y4041900D01*
X9168900Y4041900D02*
X8991100Y4041900D01*
G04 #@! TO.C,C165*
X6261240Y2628520D02*
X6439040Y2628520D01*
X6261240Y2552320D02*
X6261240Y2628520D01*
X6439040Y2628520D02*
X6439040Y2552320D01*
X6439040Y2552320D02*
X6261240Y2552320D01*
G04 #@! TO.C,C166*
X4813440Y2745360D02*
X4889640Y2745360D01*
X4813440Y2567560D02*
X4813440Y2745360D01*
X4889640Y2745360D02*
X4889640Y2567560D01*
X4889640Y2567560D02*
X4813440Y2567560D01*
G04 #@! TO.C,C167*
X1021220Y7347840D02*
X1097420Y7347840D01*
X1021220Y7170040D02*
X1021220Y7347840D01*
X1097420Y7347840D02*
X1097420Y7170040D01*
X1097420Y7170040D02*
X1021220Y7170040D01*
G04 #@! TO.C,C168*
X6766700Y6557900D02*
X6944500Y6557900D01*
X6766700Y6481700D02*
X6766700Y6557900D01*
X6944500Y6557900D02*
X6944500Y6481700D01*
X6944500Y6481700D02*
X6766700Y6481700D01*
G04 #@! TO.C,C169*
X5529200Y2318040D02*
X5707000Y2318040D01*
X5529200Y2241840D02*
X5529200Y2318040D01*
X5707000Y2318040D02*
X5707000Y2241840D01*
X5707000Y2241840D02*
X5529200Y2241840D01*
G04 #@! TO.C,C170*
X5091900Y2538900D02*
X5168100Y2538900D01*
X5091900Y2361100D02*
X5091900Y2538900D01*
X5168100Y2538900D02*
X5168100Y2361100D01*
X5168100Y2361100D02*
X5091900Y2361100D01*
G04 #@! TO.C,C171*
X584060Y2579620D02*
X761860Y2579620D01*
X584060Y2503420D02*
X584060Y2579620D01*
X761860Y2579620D02*
X761860Y2503420D01*
X761860Y2503420D02*
X584060Y2503420D01*
G04 #@! TO.C,FB2*
X1094360Y7108480D02*
X1449960Y7108480D01*
X1094360Y6925600D02*
X1094360Y7108480D01*
X1449960Y7108480D02*
X1449960Y6925600D01*
X1449960Y6925600D02*
X1094360Y6925600D01*
G04 #@! TO.C,J10*
X4160000Y6520000D02*
X4160000Y6120000D01*
X4160000Y6120000D02*
X4400000Y6120000D01*
X4400000Y6520000D02*
X4160000Y6520000D01*
X4400000Y6120000D02*
X4400000Y6520000D01*
G04 #@! TO.C,L1*
X2307140Y3074540D02*
X2484940Y3074540D01*
X2307140Y2998340D02*
X2307140Y3074540D01*
X2484940Y3074540D02*
X2484940Y2998340D01*
X2484940Y2998340D02*
X2307140Y2998340D01*
G04 #@! TO.C,L2*
X2688140Y3427600D02*
X2688140Y3153280D01*
X2688140Y3153280D02*
X2810060Y3153280D01*
X2810060Y3427600D02*
X2688140Y3427600D01*
X2810060Y3153280D02*
X2810060Y3427600D01*
G04 #@! TO.C,L3*
X2688140Y3732400D02*
X2688140Y3458080D01*
X2688140Y3458080D02*
X2810060Y3458080D01*
X2810060Y3732400D02*
X2688140Y3732400D01*
X2810060Y3458080D02*
X2810060Y3732400D01*
G04 #@! TO.C,L4*
X2584000Y3531740D02*
X2660200Y3531740D01*
X2584000Y3353940D02*
X2584000Y3531740D01*
X2660200Y3531740D02*
X2660200Y3353940D01*
X2660200Y3353940D02*
X2584000Y3353940D01*
G04 #@! TO.C,L5*
X238620Y4083300D02*
X238620Y3808980D01*
X238620Y3808980D02*
X360540Y3808980D01*
X360540Y4083300D02*
X238620Y4083300D01*
X360540Y3808980D02*
X360540Y4083300D01*
G04 #@! TO.C,L6*
X3541650Y4305590D02*
X3719450Y4305590D01*
X3541650Y4229390D02*
X3541650Y4305590D01*
X3719450Y4305590D02*
X3719450Y4229390D01*
X3719450Y4229390D02*
X3541650Y4229390D01*
G04 #@! TO.C,L7*
X3541650Y4610390D02*
X3719450Y4610390D01*
X3541650Y4534190D02*
X3541650Y4610390D01*
X3719450Y4610390D02*
X3719450Y4534190D01*
X3719450Y4534190D02*
X3541650Y4534190D01*
G04 #@! TO.C,L8*
X3846450Y4305590D02*
X4024250Y4305590D01*
X3846450Y4229390D02*
X3846450Y4305590D01*
X4024250Y4305590D02*
X4024250Y4229390D01*
X4024250Y4229390D02*
X3846450Y4229390D01*
G04 #@! TO.C,L9*
X3846450Y4610390D02*
X4024250Y4610390D01*
X3846450Y4534190D02*
X3846450Y4610390D01*
X4024250Y4610390D02*
X4024250Y4534190D01*
X4024250Y4534190D02*
X3846450Y4534190D01*
G04 #@! TO.C,L10*
X9181236Y7913844D02*
X9621164Y7913844D01*
X9181236Y7473916D02*
X9181236Y7913844D01*
X9621164Y7913844D02*
X9621164Y7473916D01*
X9621164Y7473916D02*
X9181236Y7473916D01*
G04 #@! TO.C,L11*
X9181236Y8675844D02*
X9621164Y8675844D01*
X9181236Y8235916D02*
X9181236Y8675844D01*
X9621164Y8675844D02*
X9621164Y8235916D01*
X9621164Y8235916D02*
X9181236Y8235916D01*
G04 #@! TO.C,L12*
X873620Y3402580D02*
X873620Y3280660D01*
X873620Y3280660D02*
X1147940Y3280660D01*
X1147940Y3402580D02*
X873620Y3402580D01*
X1147940Y3280660D02*
X1147940Y3402580D01*
G04 #@! TO.C,L13*
X-243980Y3229860D02*
X-243980Y2955540D01*
X-243980Y2955540D02*
X-122060Y2955540D01*
X-122060Y3229860D02*
X-243980Y3229860D01*
X-122060Y2955540D02*
X-122060Y3229860D01*
D15*
G04 #@! TO.C,P1*
X7198500Y8183500D02*
X7198500Y7802500D01*
X7198500Y7802500D02*
X7516000Y7802500D01*
X7262000Y8120000D02*
X7262000Y7866000D01*
X7262000Y8120000D02*
X7770000Y8120000D01*
X7516000Y8183500D02*
X7198500Y8183500D01*
X7516000Y7802500D02*
X7516000Y8183500D01*
X7770000Y8120000D02*
X7770000Y7866000D01*
X7770000Y7866000D02*
X7262000Y7866000D01*
G04 #@! TO.C,P3*
X7262000Y7104000D02*
X7262000Y7612000D01*
X7516000Y7612000D02*
X7262000Y7612000D01*
X7516000Y7612000D02*
X7516000Y7104000D01*
X7516000Y7104000D02*
X7262000Y7104000D01*
G04 #@! TO.C,P5*
X1420000Y8882000D02*
X2182000Y8882000D01*
X1420000Y8374000D02*
X1420000Y8882000D01*
X1928000Y8945500D02*
X1928000Y8628000D01*
X1928000Y8628000D02*
X2245500Y8628000D01*
X2182000Y8882000D02*
X2182000Y8374000D01*
X2182000Y8374000D02*
X1420000Y8374000D01*
X2245500Y8945500D02*
X1928000Y8945500D01*
X2245500Y8628000D02*
X2245500Y8945500D01*
D10*
G04 #@! TO.C,P6*
X2666620Y3262920D02*
G75*
G02*
X2524380Y3262920I-71120J0D01*
G01*
X2524380Y3262920D02*
G75*
G02*
X2666620Y3262920I71120J0D01*
G01*
G04 #@! TO.C,P7*
X1823340Y3153700D02*
G75*
G02*
X1681100Y3153700I-71120J0D01*
G01*
X1681100Y3153700D02*
G75*
G02*
X1823340Y3153700I71120J0D01*
G01*
D15*
G04 #@! TO.C,P8*
X8468500Y8183500D02*
X8468500Y7802500D01*
X8468500Y7802500D02*
X8786000Y7802500D01*
X8532000Y8120000D02*
X8532000Y7866000D01*
X8532000Y8120000D02*
X9040000Y8120000D01*
X8786000Y8183500D02*
X8468500Y8183500D01*
X8786000Y7802500D02*
X8786000Y8183500D01*
X9040000Y8120000D02*
X9040000Y7866000D01*
X9040000Y7866000D02*
X8532000Y7866000D01*
G04 #@! TO.C,P9*
X1674000Y6596000D02*
X3706000Y6596000D01*
X1674000Y6088000D02*
X1674000Y6596000D01*
X3452000Y6659500D02*
X3452000Y6342000D01*
X3452000Y6342000D02*
X3769500Y6342000D01*
X3706000Y6596000D02*
X3706000Y6088000D01*
X3706000Y6088000D02*
X1674000Y6088000D01*
X3769500Y6659500D02*
X3452000Y6659500D01*
X3769500Y6342000D02*
X3769500Y6659500D01*
D10*
G04 #@! TO.C,P13*
X1727340Y3352420D02*
G75*
G02*
X1585100Y3352420I-71120J0D01*
G01*
X1585100Y3352420D02*
G75*
G02*
X1727340Y3352420I71120J0D01*
G01*
G04 #@! TO.C,P14*
X4450220Y4899280D02*
G75*
G02*
X4307980Y4899280I-71120J0D01*
G01*
X4307980Y4899280D02*
G75*
G02*
X4450220Y4899280I71120J0D01*
G01*
G04 #@! TO.C,P15*
X5968620Y2345980D02*
G75*
G02*
X5826380Y2345980I-71120J0D01*
G01*
X5826380Y2345980D02*
G75*
G02*
X5968620Y2345980I71120J0D01*
G01*
G04 #@! TO.C,P17*
X1679080Y3700400D02*
G75*
G02*
X1536840Y3700400I-71120J0D01*
G01*
X1536840Y3700400D02*
G75*
G02*
X1679080Y3700400I71120J0D01*
G01*
G04 #@! TO.C,P18*
X6286120Y2760000D02*
G75*
G02*
X6143880Y2760000I-71120J0D01*
G01*
X6143880Y2760000D02*
G75*
G02*
X6286120Y2760000I71120J0D01*
G01*
G04 #@! TO.C,P19*
X2636660Y3103500D02*
G75*
G02*
X2494420Y3103500I-71120J0D01*
G01*
X2494420Y3103500D02*
G75*
G02*
X2636660Y3103500I71120J0D01*
G01*
D15*
G04 #@! TO.C,P20*
X9802000Y6342000D02*
X10310000Y6342000D01*
X9802000Y3548000D02*
X9802000Y6342000D01*
X10056000Y3802000D02*
X10056000Y3484500D01*
X10056000Y3484500D02*
X10373500Y3484500D01*
X10310000Y6342000D02*
X10310000Y3548000D01*
X10310000Y3548000D02*
X9802000Y3548000D01*
X10373500Y3802000D02*
X10056000Y3802000D01*
X10373500Y3484500D02*
X10373500Y3802000D01*
D10*
G04 #@! TO.C,P21*
X1684160Y3525140D02*
G75*
G02*
X1541920Y3525140I-71120J0D01*
G01*
X1541920Y3525140D02*
G75*
G02*
X1684160Y3525140I71120J0D01*
G01*
D15*
G04 #@! TO.C,P22*
X6500000Y3040000D02*
X9802000Y3040000D01*
X6500000Y2532000D02*
X6500000Y3040000D01*
X9548000Y3103500D02*
X9548000Y2786000D01*
X9548000Y2786000D02*
X9865500Y2786000D01*
X9802000Y3040000D02*
X9802000Y2532000D01*
X9802000Y2532000D02*
X6500000Y2532000D01*
X9865500Y3103500D02*
X9548000Y3103500D01*
X9865500Y2786000D02*
X9865500Y3103500D01*
D10*
G04 #@! TO.C,P23*
X8524380Y6943980D02*
G75*
G02*
X8382140Y6943980I-71120J0D01*
G01*
X8382140Y6943980D02*
G75*
G02*
X8524380Y6943980I71120J0D01*
G01*
G04 #@! TO.C,P24*
X8523860Y6750340D02*
G75*
G02*
X8381620Y6750340I-71120J0D01*
G01*
X8381620Y6750340D02*
G75*
G02*
X8523860Y6750340I71120J0D01*
G01*
D15*
G04 #@! TO.C,P25*
X6436500Y3611500D02*
X6436500Y3230500D01*
X6436500Y3230500D02*
X6754000Y3230500D01*
X6500000Y3548000D02*
X6500000Y3294000D01*
X6500000Y3548000D02*
X8024000Y3548000D01*
X6754000Y3611500D02*
X6436500Y3611500D01*
X6754000Y3230500D02*
X6754000Y3611500D01*
X8024000Y3548000D02*
X8024000Y3294000D01*
X8024000Y3294000D02*
X6500000Y3294000D01*
D10*
G04 #@! TO.C,P26*
X7939580Y7886840D02*
X7939580Y7251840D01*
X8279940Y7886840D02*
X7939580Y7886840D01*
X8279940Y7251840D02*
X7939580Y7251840D01*
X8279940Y7251840D02*
X8279940Y7886840D01*
G04 #@! TO.C,P27*
X2380120Y4439540D02*
G75*
G02*
X2237880Y4439540I-71120J0D01*
G01*
X2237880Y4439540D02*
G75*
G02*
X2380120Y4439540I71120J0D01*
G01*
D15*
G04 #@! TO.C,P28*
X4976000Y6342000D02*
X5484000Y6342000D01*
X4976000Y3548000D02*
X4976000Y6342000D01*
X5230000Y3802000D02*
X5230000Y3484500D01*
X5230000Y3484500D02*
X5547500Y3484500D01*
X5484000Y6342000D02*
X5484000Y3548000D01*
X5484000Y3548000D02*
X4976000Y3548000D01*
X5547500Y3802000D02*
X5230000Y3802000D01*
X5547500Y3484500D02*
X5547500Y3802000D01*
G04 #@! TO.C,P29*
X5674500Y6151500D02*
X5674500Y5770500D01*
X5674500Y5770500D02*
X5992000Y5770500D01*
X5738000Y6088000D02*
X5738000Y5834000D01*
X5738000Y6088000D02*
X6246000Y6088000D01*
X5992000Y6151500D02*
X5674500Y6151500D01*
X5992000Y5770500D02*
X5992000Y6151500D01*
X6246000Y6088000D02*
X6246000Y5834000D01*
X6246000Y5834000D02*
X5738000Y5834000D01*
G04 #@! TO.C,P30*
X6500000Y8882000D02*
X9040000Y8882000D01*
X6500000Y8374000D02*
X6500000Y8882000D01*
X8786000Y8945500D02*
X8786000Y8628000D01*
X8786000Y8628000D02*
X9103500Y8628000D01*
X9040000Y8882000D02*
X9040000Y8374000D01*
X9040000Y8374000D02*
X6500000Y8374000D01*
X9103500Y8945500D02*
X8786000Y8945500D01*
X9103500Y8628000D02*
X9103500Y8945500D01*
D10*
G04 #@! TO.C,P31*
X2598560Y3921380D02*
G75*
G02*
X2456320Y3921380I-71120J0D01*
G01*
X2456320Y3921380D02*
G75*
G02*
X2598560Y3921380I71120J0D01*
G01*
G04 #@! TO.C,P32*
X2923160Y4157000D02*
G75*
G02*
X2780920Y4157000I-71120J0D01*
G01*
X2780920Y4157000D02*
G75*
G02*
X2923160Y4157000I71120J0D01*
G01*
G04 #@! TO.C,P33*
X2936380Y3918840D02*
G75*
G02*
X2794140Y3918840I-71120J0D01*
G01*
X2794140Y3918840D02*
G75*
G02*
X2936380Y3918840I71120J0D01*
G01*
G04 #@! TO.C,P34*
X3924160Y2861560D02*
G75*
G02*
X3781920Y2861560I-71120J0D01*
G01*
X3781920Y2861560D02*
G75*
G02*
X3924160Y2861560I71120J0D01*
G01*
G04 #@! TO.C,P35*
X4363580Y2594860D02*
G75*
G02*
X4221340Y2594860I-71120J0D01*
G01*
X4221340Y2594860D02*
G75*
G02*
X4363580Y2594860I71120J0D01*
G01*
D15*
G04 #@! TO.C,P36*
X1102500Y6596000D02*
X1102500Y6278500D01*
X1102500Y6278500D02*
X1483500Y6278500D01*
X1166000Y6850000D02*
X1420000Y6850000D01*
X1166000Y6342000D02*
X1166000Y6850000D01*
X1166000Y6342000D02*
X1420000Y6342000D01*
X1420000Y6850000D02*
X1420000Y6342000D01*
X1483500Y6596000D02*
X1102500Y6596000D01*
X1483500Y6278500D02*
X1483500Y6596000D01*
D10*
G04 #@! TO.C,P37*
X6322200Y3695320D02*
G75*
G02*
X6179960Y3695320I-71120J0D01*
G01*
X6179960Y3695320D02*
G75*
G02*
X6322200Y3695320I71120J0D01*
G01*
G04 #@! TO.C,P38*
X6352680Y4236340D02*
G75*
G02*
X6210440Y4236340I-71120J0D01*
G01*
X6210440Y4236340D02*
G75*
G02*
X6352680Y4236340I71120J0D01*
G01*
G04 #@! TO.C,P39*
X2783980Y8638160D02*
G75*
G02*
X2641740Y8638160I-71120J0D01*
G01*
X2641740Y8638160D02*
G75*
G02*
X2783980Y8638160I71120J0D01*
G01*
G04 #@! TO.C,P40*
X6596520Y6443600D02*
G75*
G02*
X6454280Y6443600I-71120J0D01*
G01*
X6454280Y6443600D02*
G75*
G02*
X6596520Y6443600I71120J0D01*
G01*
G04 #@! TO.C,P41*
X7104520Y6418200D02*
G75*
G02*
X6962280Y6418200I-71120J0D01*
G01*
X6962280Y6418200D02*
G75*
G02*
X7104520Y6418200I71120J0D01*
G01*
G04 #@! TO.C,P43*
X3243720Y3070480D02*
G75*
G02*
X3101480Y3070480I-71120J0D01*
G01*
X3101480Y3070480D02*
G75*
G02*
X3243720Y3070480I71120J0D01*
G01*
G04 #@! TO.C,P44*
X1282560Y4873240D02*
G75*
G02*
X1140320Y4873240I-71120J0D01*
G01*
X1140320Y4873240D02*
G75*
G02*
X1282560Y4873240I71120J0D01*
G01*
G04 #@! TO.C,P46*
X990740Y4340480D02*
G75*
G02*
X848500Y4340480I-71120J0D01*
G01*
X848500Y4340480D02*
G75*
G02*
X990740Y4340480I71120J0D01*
G01*
G04 #@! TO.C,P47*
X284620Y5153280D02*
G75*
G02*
X142380Y5153280I-71120J0D01*
G01*
X142380Y5153280D02*
G75*
G02*
X284620Y5153280I71120J0D01*
G01*
G04 #@! TO.C,P48*
X1099680Y4017260D02*
G75*
G02*
X957440Y4017260I-71120J0D01*
G01*
X957440Y4017260D02*
G75*
G02*
X1099680Y4017260I71120J0D01*
G01*
G04 #@! TO.C,P50*
X7353440Y3835020D02*
G75*
G02*
X7211200Y3835020I-71120J0D01*
G01*
X7211200Y3835020D02*
G75*
G02*
X7353440Y3835020I71120J0D01*
G01*
G04 #@! TO.C,P52*
X331076Y4354064D02*
G75*
G02*
X188836Y4354064I-71120J0D01*
G01*
X188836Y4354064D02*
G75*
G02*
X331076Y4354064I71120J0D01*
G01*
G04 #@! TO.C,P53*
X6152020Y5717160D02*
G75*
G02*
X6009780Y5717160I-71120J0D01*
G01*
X6009780Y5717160D02*
G75*
G02*
X6152020Y5717160I71120J0D01*
G01*
G04 #@! TO.C,P54*
X2514740Y8386700D02*
G75*
G02*
X2372500Y8386700I-71120J0D01*
G01*
X2372500Y8386700D02*
G75*
G02*
X2514740Y8386700I71120J0D01*
G01*
G04 #@! TO.C,P55*
X3281820Y4701160D02*
G75*
G02*
X3139580Y4701160I-71120J0D01*
G01*
X3139580Y4701160D02*
G75*
G02*
X3281820Y4701160I71120J0D01*
G01*
G04 #@! TO.C,P56*
X3406280Y4571620D02*
G75*
G02*
X3264040Y4571620I-71120J0D01*
G01*
X3264040Y4571620D02*
G75*
G02*
X3406280Y4571620I71120J0D01*
G01*
G04 #@! TO.C,P57*
X4955680Y4876420D02*
G75*
G02*
X4813440Y4876420I-71120J0D01*
G01*
X4813440Y4876420D02*
G75*
G02*
X4955680Y4876420I71120J0D01*
G01*
G04 #@! TO.C,P58*
X4084460Y6923660D02*
G75*
G02*
X3942220Y6923660I-71120J0D01*
G01*
X3942220Y6923660D02*
G75*
G02*
X4084460Y6923660I71120J0D01*
G01*
G04 #@! TO.C,P59*
X5806580Y4002660D02*
G75*
G02*
X5664340Y4002660I-71120J0D01*
G01*
X5664340Y4002660D02*
G75*
G02*
X5806580Y4002660I71120J0D01*
G01*
G04 #@! TO.C,P60*
X6106300Y3596260D02*
G75*
G02*
X5964060Y3596260I-71120J0D01*
G01*
X5964060Y3596260D02*
G75*
G02*
X6106300Y3596260I71120J0D01*
G01*
G04 #@! TO.C,P61*
X4147960Y7312280D02*
G75*
G02*
X4005720Y7312280I-71120J0D01*
G01*
X4005720Y7312280D02*
G75*
G02*
X4147960Y7312280I71120J0D01*
G01*
G04 #@! TO.C,P62*
X4340480Y8124480D02*
G75*
G02*
X4198240Y8124480I-71120J0D01*
G01*
X4198240Y8124480D02*
G75*
G02*
X4340480Y8124480I71120J0D01*
G01*
G04 #@! TO.C,P63*
X4307460Y8322600D02*
G75*
G02*
X4165220Y8322600I-71120J0D01*
G01*
X4165220Y8322600D02*
G75*
G02*
X4307460Y8322600I71120J0D01*
G01*
G04 #@! TO.C,P64*
X3344800Y8741700D02*
G75*
G02*
X3202560Y8741700I-71120J0D01*
G01*
X3202560Y8741700D02*
G75*
G02*
X3344800Y8741700I71120J0D01*
G01*
G04 #@! TO.C,P65*
X4099700Y7840600D02*
G75*
G02*
X3957460Y7840600I-71120J0D01*
G01*
X3957460Y7840600D02*
G75*
G02*
X4099700Y7840600I71120J0D01*
G01*
G04 #@! TO.C,P66*
X4894720Y8523860D02*
G75*
G02*
X4752480Y8523860I-71120J0D01*
G01*
X4752480Y8523860D02*
G75*
G02*
X4894720Y8523860I71120J0D01*
G01*
G04 #@! TO.C,P67*
X9481120Y5510000D02*
G75*
G02*
X9338880Y5510000I-71120J0D01*
G01*
X9338880Y5510000D02*
G75*
G02*
X9481120Y5510000I71120J0D01*
G01*
G04 #@! TO.C,P68*
X8768220Y4091560D02*
G75*
G02*
X8625980Y4091560I-71120J0D01*
G01*
X8625980Y4091560D02*
G75*
G02*
X8768220Y4091560I71120J0D01*
G01*
G04 #@! TO.C,P69*
X8731120Y7460000D02*
G75*
G02*
X8588880Y7460000I-71120J0D01*
G01*
X8588880Y7460000D02*
G75*
G02*
X8731120Y7460000I71120J0D01*
G01*
G04 #@! TO.C,P70*
X-345300Y6286120D02*
G75*
G02*
X-487540Y6286120I-71120J0D01*
G01*
X-487540Y6286120D02*
G75*
G02*
X-345300Y6286120I71120J0D01*
G01*
G04 #@! TO.C,P72*
X9215260Y6329300D02*
G75*
G02*
X9073020Y6329300I-71120J0D01*
G01*
X9073020Y6329300D02*
G75*
G02*
X9215260Y6329300I71120J0D01*
G01*
G04 #@! TO.C,P73*
X6929260Y7048120D02*
G75*
G02*
X6787020Y7048120I-71120J0D01*
G01*
X6787020Y7048120D02*
G75*
G02*
X6929260Y7048120I71120J0D01*
G01*
G04 #@! TO.C,P74*
X7164960Y6961160D02*
G75*
G02*
X7022720Y6961160I-71120J0D01*
G01*
X7022720Y6961160D02*
G75*
G02*
X7164960Y6961160I71120J0D01*
G01*
G04 #@! TO.C,P75*
X7676020Y7721220D02*
G75*
G02*
X7533780Y7721220I-71120J0D01*
G01*
X7533780Y7721220D02*
G75*
G02*
X7676020Y7721220I71120J0D01*
G01*
G04 #@! TO.C,P76*
X7190880Y7187820D02*
G75*
G02*
X7048640Y7187820I-71120J0D01*
G01*
X7048640Y7187820D02*
G75*
G02*
X7190880Y7187820I71120J0D01*
G01*
G04 #@! TO.C,P77*
X7170560Y7802500D02*
G75*
G02*
X7028320Y7802500I-71120J0D01*
G01*
X7028320Y7802500D02*
G75*
G02*
X7170560Y7802500I71120J0D01*
G01*
G04 #@! TO.C,P78*
X6322200Y6613780D02*
G75*
G02*
X6179960Y6613780I-71120J0D01*
G01*
X6179960Y6613780D02*
G75*
G02*
X6322200Y6613780I71120J0D01*
G01*
G04 #@! TO.C,P79*
X6459360Y5927980D02*
G75*
G02*
X6317120Y5927980I-71120J0D01*
G01*
X6317120Y5927980D02*
G75*
G02*
X6459360Y5927980I71120J0D01*
G01*
D15*
G04 #@! TO.C,P80*
X10564000Y5834000D02*
X10564000Y6342000D01*
X10818000Y6342000D02*
X10564000Y6342000D01*
X10818000Y6342000D02*
X10818000Y5834000D01*
X10818000Y5834000D02*
X10564000Y5834000D01*
D10*
G04 #@! TO.C,P81*
X9654680Y3466720D02*
G75*
G02*
X9512440Y3466720I-71120J0D01*
G01*
X9512440Y3466720D02*
G75*
G02*
X9654680Y3466720I71120J0D01*
G01*
G04 #@! TO.C,P82*
X8377060Y3441320D02*
G75*
G02*
X8234820Y3441320I-71120J0D01*
G01*
X8234820Y3441320D02*
G75*
G02*
X8377060Y3441320I71120J0D01*
G01*
G04 #@! TO.C,P83*
X4211180Y3273040D02*
G75*
G02*
X4068940Y3273040I-71120J0D01*
G01*
X4068940Y3273040D02*
G75*
G02*
X4211180Y3273040I71120J0D01*
G01*
G04 #@! TO.C,P84*
X3228480Y2570100D02*
G75*
G02*
X3086240Y2570100I-71120J0D01*
G01*
X3086240Y2570100D02*
G75*
G02*
X3228480Y2570100I71120J0D01*
G01*
G04 #@! TO.C,P85*
X2669680Y4429380D02*
G75*
G02*
X2527440Y4429380I-71120J0D01*
G01*
X2527440Y4429380D02*
G75*
G02*
X2669680Y4429380I71120J0D01*
G01*
G04 #@! TO.C,P86*
X2217280Y5124700D02*
G75*
G02*
X2075040Y5124700I-71120J0D01*
G01*
X2075040Y5124700D02*
G75*
G02*
X2217280Y5124700I71120J0D01*
G01*
G04 #@! TO.C,P87*
X678040Y2719320D02*
G75*
G02*
X535800Y2719320I-71120J0D01*
G01*
X535800Y2719320D02*
G75*
G02*
X678040Y2719320I71120J0D01*
G01*
G04 #@! TO.C,P88*
X1188580Y4319520D02*
G75*
G02*
X1046340Y4319520I-71120J0D01*
G01*
X1046340Y4319520D02*
G75*
G02*
X1188580Y4319520I71120J0D01*
G01*
G04 #@! TO.C,P89*
X1663840Y3070480D02*
G75*
G02*
X1521600Y3070480I-71120J0D01*
G01*
X1521600Y3070480D02*
G75*
G02*
X1663840Y3070480I71120J0D01*
G01*
G04 #@! TO.C,P91*
X3477400Y4007740D02*
G75*
G02*
X3335160Y4007740I-71120J0D01*
G01*
X3335160Y4007740D02*
G75*
G02*
X3477400Y4007740I71120J0D01*
G01*
G04 #@! TO.C,P92*
X4295280Y4111880D02*
G75*
G02*
X4153040Y4111880I-71120J0D01*
G01*
X4153040Y4111880D02*
G75*
G02*
X4295280Y4111880I71120J0D01*
G01*
D16*
G04 #@! TO.C,Q3*
X1232040Y7340220D02*
X1536840Y7340220D01*
X1232040Y7264020D02*
X1232040Y7340220D01*
X1536840Y7340220D02*
X1536840Y7264020D01*
X1536840Y7264020D02*
X1232040Y7264020D01*
G04 #@! TO.C,Q4*
X350380Y2587240D02*
X426580Y2587240D01*
X350380Y2282440D02*
X350380Y2587240D01*
X426580Y2587240D02*
X426580Y2282440D01*
X426580Y2282440D02*
X350380Y2282440D01*
G04 #@! TO.C,Q5*
X9131900Y7442400D02*
X9208100Y7442400D01*
X9131900Y7137600D02*
X9131900Y7442400D01*
X9208100Y7442400D02*
X9208100Y7137600D01*
X9208100Y7137600D02*
X9131900Y7137600D01*
D10*
G04 #@! TO.C,R1*
X1748340Y4090540D02*
X1824540Y4090540D01*
X1748340Y3912740D02*
X1748340Y4090540D01*
X1824540Y4090540D02*
X1824540Y3912740D01*
X1824540Y3912740D02*
X1748340Y3912740D01*
G04 #@! TO.C,R2*
X1761040Y4344540D02*
X1938840Y4344540D01*
X1761040Y4268340D02*
X1761040Y4344540D01*
X1938840Y4344540D02*
X1938840Y4268340D01*
X1938840Y4268340D02*
X1761040Y4268340D01*
G04 #@! TO.C,R3*
X1976940Y4090540D02*
X2053140Y4090540D01*
X1976940Y3912740D02*
X1976940Y4090540D01*
X2053140Y4090540D02*
X2053140Y3912740D01*
X2053140Y3912740D02*
X1976940Y3912740D01*
G04 #@! TO.C,R4*
X2279200Y4126100D02*
X2355400Y4126100D01*
X2279200Y3948300D02*
X2279200Y4126100D01*
X2355400Y4126100D02*
X2355400Y3948300D01*
X2355400Y3948300D02*
X2279200Y3948300D01*
G04 #@! TO.C,R5*
X6626097Y6212821D02*
X6679979Y6266703D01*
X6679979Y6266703D02*
X6805703Y6140979D01*
X6751821Y6087097D02*
X6626097Y6212821D01*
X6805703Y6140979D02*
X6751821Y6087097D01*
G04 #@! TO.C,R6*
X6702297Y6289021D02*
X6756179Y6342903D01*
X6756179Y6342903D02*
X6881903Y6217179D01*
X6828021Y6163297D02*
X6702297Y6289021D01*
X6881903Y6217179D02*
X6828021Y6163297D01*
G04 #@! TO.C,R7*
X-370700Y6964300D02*
X-294500Y6964300D01*
X-370700Y6786500D02*
X-370700Y6964300D01*
X-294500Y6964300D02*
X-294500Y6786500D01*
X-294500Y6786500D02*
X-370700Y6786500D01*
G04 #@! TO.C,R8*
X2024000Y7165300D02*
X2100200Y7165300D01*
X2024000Y6987500D02*
X2024000Y7165300D01*
X2100200Y7165300D02*
X2100200Y6987500D01*
X2100200Y6987500D02*
X2024000Y6987500D01*
G04 #@! TO.C,R9*
X2151000Y7165300D02*
X2227200Y7165300D01*
X2151000Y6987500D02*
X2151000Y7165300D01*
X2227200Y7165300D02*
X2227200Y6987500D01*
X2227200Y6987500D02*
X2151000Y6987500D01*
G04 #@! TO.C,R10*
X2336420Y7165300D02*
X2412620Y7165300D01*
X2336420Y6987500D02*
X2336420Y7165300D01*
X2412620Y7165300D02*
X2412620Y6987500D01*
X2412620Y6987500D02*
X2336420Y6987500D01*
G04 #@! TO.C,R11*
X7394080Y6969380D02*
X7571880Y6969380D01*
X7394080Y6893180D02*
X7394080Y6969380D01*
X7571880Y6969380D02*
X7571880Y6893180D01*
X7571880Y6893180D02*
X7394080Y6893180D01*
G04 #@! TO.C,R13*
X2463420Y7165300D02*
X2539620Y7165300D01*
X2463420Y6987500D02*
X2463420Y7165300D01*
X2539620Y7165300D02*
X2539620Y6987500D01*
X2539620Y6987500D02*
X2463420Y6987500D01*
G04 #@! TO.C,R14*
X2463420Y6860500D02*
X2539620Y6860500D01*
X2463420Y6682700D02*
X2463420Y6860500D01*
X2539620Y6860500D02*
X2539620Y6682700D01*
X2539620Y6682700D02*
X2463420Y6682700D01*
G04 #@! TO.C,R15*
X2336420Y6860500D02*
X2412620Y6860500D01*
X2336420Y6682700D02*
X2336420Y6860500D01*
X2412620Y6860500D02*
X2412620Y6682700D01*
X2412620Y6682700D02*
X2336420Y6682700D01*
G04 #@! TO.C,R16*
X2151000Y6860500D02*
X2227200Y6860500D01*
X2151000Y6682700D02*
X2151000Y6860500D01*
X2227200Y6860500D02*
X2227200Y6682700D01*
X2227200Y6682700D02*
X2151000Y6682700D01*
G04 #@! TO.C,R17*
X2024000Y6860500D02*
X2100200Y6860500D01*
X2024000Y6682700D02*
X2024000Y6860500D01*
X2100200Y6860500D02*
X2100200Y6682700D01*
X2100200Y6682700D02*
X2024000Y6682700D01*
G04 #@! TO.C,R18*
X-878700Y5973700D02*
X-700900Y5973700D01*
X-878700Y5897500D02*
X-878700Y5973700D01*
X-700900Y5973700D02*
X-700900Y5897500D01*
X-700900Y5897500D02*
X-878700Y5897500D01*
G04 #@! TO.C,R19*
X-261480Y8153020D02*
X-185280Y8153020D01*
X-261480Y7975220D02*
X-261480Y8153020D01*
X-185280Y8153020D02*
X-185280Y7975220D01*
X-185280Y7975220D02*
X-261480Y7975220D01*
G04 #@! TO.C,R20*
X2843150Y6836370D02*
X2919350Y6836370D01*
X2843150Y6658570D02*
X2843150Y6836370D01*
X2919350Y6836370D02*
X2919350Y6658570D01*
X2919350Y6658570D02*
X2843150Y6658570D01*
G04 #@! TO.C,R21*
X2970150Y6836370D02*
X3046350Y6836370D01*
X2970150Y6658570D02*
X2970150Y6836370D01*
X3046350Y6836370D02*
X3046350Y6658570D01*
X3046350Y6658570D02*
X2970150Y6658570D01*
G04 #@! TO.C,R22*
X3155570Y6836370D02*
X3231770Y6836370D01*
X3155570Y6658570D02*
X3155570Y6836370D01*
X3231770Y6836370D02*
X3231770Y6658570D01*
X3231770Y6658570D02*
X3155570Y6658570D01*
G04 #@! TO.C,R23*
X3282570Y6836370D02*
X3358770Y6836370D01*
X3282570Y6658570D02*
X3282570Y6836370D01*
X3358770Y6836370D02*
X3358770Y6658570D01*
X3358770Y6658570D02*
X3282570Y6658570D01*
G04 #@! TO.C,R25*
X4316350Y5423190D02*
X4494150Y5423190D01*
X4316350Y5346990D02*
X4316350Y5423190D01*
X4494150Y5423190D02*
X4494150Y5346990D01*
X4494150Y5346990D02*
X4316350Y5346990D01*
G04 #@! TO.C,R26*
X4316350Y5524790D02*
X4494150Y5524790D01*
X4316350Y5448590D02*
X4316350Y5524790D01*
X4494150Y5524790D02*
X4494150Y5448590D01*
X4494150Y5448590D02*
X4316350Y5448590D01*
G04 #@! TO.C,R27*
X6207900Y3177160D02*
X6385700Y3177160D01*
X6207900Y3100960D02*
X6207900Y3177160D01*
X6385700Y3177160D02*
X6385700Y3100960D01*
X6385700Y3100960D02*
X6207900Y3100960D01*
G04 #@! TO.C,R28*
X6134240Y3489580D02*
X6312040Y3489580D01*
X6134240Y3413380D02*
X6134240Y3489580D01*
X6312040Y3489580D02*
X6312040Y3413380D01*
X6312040Y3413380D02*
X6134240Y3413380D01*
G04 #@! TO.C,R30*
X-261480Y6857620D02*
X-185280Y6857620D01*
X-261480Y6679820D02*
X-261480Y6857620D01*
X-185280Y6857620D02*
X-185280Y6679820D01*
X-185280Y6679820D02*
X-261480Y6679820D01*
G04 #@! TO.C,R31*
X5585600Y3575940D02*
X5661800Y3575940D01*
X5585600Y3398140D02*
X5585600Y3575940D01*
X5661800Y3575940D02*
X5661800Y3398140D01*
X5661800Y3398140D02*
X5585600Y3398140D01*
G04 #@! TO.C,R32*
X5697360Y3718180D02*
X5773560Y3718180D01*
X5697360Y3540380D02*
X5697360Y3718180D01*
X5773560Y3718180D02*
X5773560Y3540380D01*
X5773560Y3540380D02*
X5697360Y3540380D01*
G04 #@! TO.C,R33*
X6334900Y2839340D02*
X6411100Y2839340D01*
X6334900Y2661540D02*
X6334900Y2839340D01*
X6411100Y2839340D02*
X6411100Y2661540D01*
X6411100Y2661540D02*
X6334900Y2661540D01*
G04 #@! TO.C,R34*
X5178680Y3295940D02*
X5356480Y3295940D01*
X5178680Y3219740D02*
X5178680Y3295940D01*
X5356480Y3295940D02*
X5356480Y3219740D01*
X5356480Y3219740D02*
X5178680Y3219740D01*
G04 #@! TO.C,R37*
X8801100Y6958100D02*
X8978900Y6958100D01*
X8801100Y6881900D02*
X8801100Y6958100D01*
X8978900Y6958100D02*
X8978900Y6881900D01*
X8978900Y6881900D02*
X8801100Y6881900D01*
G04 #@! TO.C,R41*
X6766700Y6684900D02*
X6944500Y6684900D01*
X6766700Y6608700D02*
X6766700Y6684900D01*
X6944500Y6684900D02*
X6944500Y6608700D01*
X6944500Y6608700D02*
X6766700Y6608700D01*
G04 #@! TO.C,R46*
X10137800Y7731980D02*
X10315600Y7731980D01*
X10137800Y7655780D02*
X10137800Y7731980D01*
X10315600Y7731980D02*
X10315600Y7655780D01*
X10315600Y7655780D02*
X10137800Y7655780D01*
G04 #@! TO.C,R47*
X10137800Y7630380D02*
X10315600Y7630380D01*
X10137800Y7554180D02*
X10137800Y7630380D01*
X10315600Y7630380D02*
X10315600Y7554180D01*
X10315600Y7554180D02*
X10137800Y7554180D01*
G04 #@! TO.C,R48*
X9319400Y4284600D02*
X9497200Y4284600D01*
X9319400Y4208400D02*
X9319400Y4284600D01*
X9497200Y4284600D02*
X9497200Y4208400D01*
X9497200Y4208400D02*
X9319400Y4208400D01*
G04 #@! TO.C,R49*
X-370700Y8259700D02*
X-294500Y8259700D01*
X-370700Y8081900D02*
X-370700Y8259700D01*
X-294500Y8259700D02*
X-294500Y8081900D01*
X-294500Y8081900D02*
X-370700Y8081900D01*
G04 #@! TO.C,R51*
X8771100Y7478100D02*
X8948900Y7478100D01*
X8771100Y7401900D02*
X8771100Y7478100D01*
X8948900Y7478100D02*
X8948900Y7401900D01*
X8948900Y7401900D02*
X8771100Y7401900D01*
G04 #@! TO.C,R52*
X10501900Y8408900D02*
X10578100Y8408900D01*
X10501900Y8231100D02*
X10501900Y8408900D01*
X10578100Y8408900D02*
X10578100Y8231100D01*
X10578100Y8231100D02*
X10501900Y8231100D01*
G04 #@! TO.C,R54*
X9134500Y8112980D02*
X9312300Y8112980D01*
X9134500Y8036780D02*
X9134500Y8112980D01*
X9312300Y8112980D02*
X9312300Y8036780D01*
X9312300Y8036780D02*
X9134500Y8036780D01*
G04 #@! TO.C,R55*
X10137800Y8366980D02*
X10315600Y8366980D01*
X10137800Y8290780D02*
X10137800Y8366980D01*
X10315600Y8366980D02*
X10315600Y8290780D01*
X10315600Y8290780D02*
X10137800Y8290780D01*
G04 #@! TO.C,R56*
X10137800Y8468580D02*
X10315600Y8468580D01*
X10137800Y8392380D02*
X10137800Y8468580D01*
X10315600Y8468580D02*
X10315600Y8392380D01*
X10315600Y8392380D02*
X10137800Y8392380D01*
G04 #@! TO.C,R57*
X9091900Y6938900D02*
X9168100Y6938900D01*
X9091900Y6761100D02*
X9091900Y6938900D01*
X9168100Y6938900D02*
X9168100Y6761100D01*
X9168100Y6761100D02*
X9091900Y6761100D01*
G04 #@! TO.C,R58*
X8921900Y6838900D02*
X8998100Y6838900D01*
X8921900Y6661100D02*
X8921900Y6838900D01*
X8998100Y6838900D02*
X8998100Y6661100D01*
X8998100Y6661100D02*
X8921900Y6661100D01*
G04 #@! TO.C,R59*
X6893700Y3669920D02*
X7071500Y3669920D01*
X6893700Y3593720D02*
X6893700Y3669920D01*
X7071500Y3669920D02*
X7071500Y3593720D01*
X7071500Y3593720D02*
X6893700Y3593720D01*
G04 #@! TO.C,R62*
X8711100Y7218100D02*
X8888900Y7218100D01*
X8711100Y7141900D02*
X8711100Y7218100D01*
X8888900Y7218100D02*
X8888900Y7141900D01*
X8888900Y7141900D02*
X8711100Y7141900D01*
G04 #@! TO.C,R63*
X8460880Y7355460D02*
X8537080Y7355460D01*
X8460880Y7177660D02*
X8460880Y7355460D01*
X8537080Y7355460D02*
X8537080Y7177660D01*
X8537080Y7177660D02*
X8460880Y7177660D01*
G04 #@! TO.C,R64*
X8346580Y7246240D02*
X8422780Y7246240D01*
X8346580Y7068440D02*
X8346580Y7246240D01*
X8422780Y7246240D02*
X8422780Y7068440D01*
X8422780Y7068440D02*
X8346580Y7068440D01*
G04 #@! TO.C,R65*
X8701100Y7078100D02*
X8878900Y7078100D01*
X8701100Y7001900D02*
X8701100Y7078100D01*
X8878900Y7078100D02*
X8878900Y7001900D01*
X8878900Y7001900D02*
X8701100Y7001900D01*
G04 #@! TO.C,R66*
X8476120Y7648100D02*
X8653920Y7648100D01*
X8476120Y7571900D02*
X8476120Y7648100D01*
X8653920Y7648100D02*
X8653920Y7571900D01*
X8653920Y7571900D02*
X8476120Y7571900D01*
G04 #@! TO.C,R67*
X6766700Y6938900D02*
X6944500Y6938900D01*
X6766700Y6862700D02*
X6766700Y6938900D01*
X6944500Y6938900D02*
X6944500Y6862700D01*
X6944500Y6862700D02*
X6766700Y6862700D01*
G04 #@! TO.C,R68*
X6766700Y6811900D02*
X6944500Y6811900D01*
X6766700Y6735700D02*
X6766700Y6811900D01*
X6944500Y6811900D02*
X6944500Y6735700D01*
X6944500Y6735700D02*
X6766700Y6735700D01*
G04 #@! TO.C,R69*
X8602226Y6394269D02*
X8727950Y6519993D01*
X8656108Y6340388D02*
X8602226Y6394269D01*
X8727950Y6519993D02*
X8781831Y6466111D01*
X8781831Y6466111D02*
X8656108Y6340388D01*
G04 #@! TO.C,R72*
X-878700Y5516500D02*
X-700900Y5516500D01*
X-878700Y5440300D02*
X-878700Y5516500D01*
X-700900Y5516500D02*
X-700900Y5440300D01*
X-700900Y5440300D02*
X-878700Y5440300D01*
G04 #@! TO.C,R73*
X-878700Y5059300D02*
X-700900Y5059300D01*
X-878700Y4983100D02*
X-878700Y5059300D01*
X-700900Y5059300D02*
X-700900Y4983100D01*
X-700900Y4983100D02*
X-878700Y4983100D01*
G04 #@! TO.C,R74*
X-878700Y4602100D02*
X-700900Y4602100D01*
X-878700Y4525900D02*
X-878700Y4602100D01*
X-700900Y4602100D02*
X-700900Y4525900D01*
X-700900Y4525900D02*
X-878700Y4525900D01*
G04 #@! TO.C,R75*
X-904100Y7637400D02*
X-726300Y7637400D01*
X-904100Y7561200D02*
X-904100Y7637400D01*
X-726300Y7637400D02*
X-726300Y7561200D01*
X-726300Y7561200D02*
X-904100Y7561200D01*
G04 #@! TO.C,R76*
X-878700Y6367400D02*
X-700900Y6367400D01*
X-878700Y6291200D02*
X-878700Y6367400D01*
X-700900Y6367400D02*
X-700900Y6291200D01*
X-700900Y6291200D02*
X-878700Y6291200D01*
G04 #@! TO.C,R77*
X6824600Y7834920D02*
X7002400Y7834920D01*
X6824600Y7758720D02*
X6824600Y7834920D01*
X7002400Y7834920D02*
X7002400Y7758720D01*
X7002400Y7758720D02*
X6824600Y7758720D01*
G04 #@! TO.C,R78*
X6824600Y7733320D02*
X7002400Y7733320D01*
X6824600Y7657120D02*
X6824600Y7733320D01*
X7002400Y7733320D02*
X7002400Y7657120D01*
X7002400Y7657120D02*
X6824600Y7657120D01*
G04 #@! TO.C,R79*
X6824600Y7631720D02*
X7002400Y7631720D01*
X6824600Y7555520D02*
X6824600Y7631720D01*
X7002400Y7631720D02*
X7002400Y7555520D01*
X7002400Y7555520D02*
X6824600Y7555520D01*
G04 #@! TO.C,R80*
X6824600Y7530120D02*
X7002400Y7530120D01*
X6824600Y7453920D02*
X6824600Y7530120D01*
X7002400Y7530120D02*
X7002400Y7453920D01*
X7002400Y7453920D02*
X6824600Y7453920D01*
G04 #@! TO.C,R81*
X6824600Y7428520D02*
X7002400Y7428520D01*
X6824600Y7352320D02*
X6824600Y7428520D01*
X7002400Y7428520D02*
X7002400Y7352320D01*
X7002400Y7352320D02*
X6824600Y7352320D01*
G04 #@! TO.C,R85*
X5999620Y2430400D02*
X6075820Y2430400D01*
X5999620Y2252600D02*
X5999620Y2430400D01*
X6075820Y2430400D02*
X6075820Y2252600D01*
X6075820Y2252600D02*
X5999620Y2252600D01*
G04 #@! TO.C,R86*
X6824600Y7326920D02*
X7002400Y7326920D01*
X6824600Y7250720D02*
X6824600Y7326920D01*
X7002400Y7326920D02*
X7002400Y7250720D01*
X7002400Y7250720D02*
X6824600Y7250720D01*
G04 #@! TO.C,R87*
X6824600Y7225320D02*
X7002400Y7225320D01*
X6824600Y7149120D02*
X6824600Y7225320D01*
X7002400Y7225320D02*
X7002400Y7149120D01*
X7002400Y7149120D02*
X6824600Y7149120D01*
G04 #@! TO.C,R88*
X6276480Y6512180D02*
X6352680Y6512180D01*
X6276480Y6334380D02*
X6276480Y6512180D01*
X6352680Y6512180D02*
X6352680Y6334380D01*
X6352680Y6334380D02*
X6276480Y6334380D01*
G04 #@! TO.C,R89*
X6123560Y6509040D02*
X6199760Y6509040D01*
X6123560Y6331240D02*
X6123560Y6509040D01*
X6199760Y6509040D02*
X6199760Y6331240D01*
X6199760Y6331240D02*
X6123560Y6331240D01*
G04 #@! TO.C,R90*
X6021960Y6509040D02*
X6098160Y6509040D01*
X6021960Y6331240D02*
X6021960Y6509040D01*
X6098160Y6509040D02*
X6098160Y6331240D01*
X6098160Y6331240D02*
X6021960Y6331240D01*
G04 #@! TO.C,R91*
X5920360Y6509040D02*
X5996560Y6509040D01*
X5920360Y6331240D02*
X5920360Y6509040D01*
X5996560Y6509040D02*
X5996560Y6331240D01*
X5996560Y6331240D02*
X5920360Y6331240D01*
G04 #@! TO.C,R93*
X6893700Y3789300D02*
X7071500Y3789300D01*
X6893700Y3713100D02*
X6893700Y3789300D01*
X7071500Y3789300D02*
X7071500Y3713100D01*
X7071500Y3713100D02*
X6893700Y3713100D01*
G04 #@! TO.C,R94*
X6012320Y3065400D02*
X6190120Y3065400D01*
X6012320Y2989200D02*
X6012320Y3065400D01*
X6190120Y3065400D02*
X6190120Y2989200D01*
X6190120Y2989200D02*
X6012320Y2989200D01*
G04 #@! TO.C,R96*
X5818760Y6509040D02*
X5894960Y6509040D01*
X5818760Y6331240D02*
X5818760Y6509040D01*
X5894960Y6509040D02*
X5894960Y6331240D01*
X5894960Y6331240D02*
X5818760Y6331240D01*
G04 #@! TO.C,R98*
X5712600Y6507100D02*
X5788800Y6507100D01*
X5712600Y6329300D02*
X5712600Y6507100D01*
X5788800Y6507100D02*
X5788800Y6329300D01*
X5788800Y6329300D02*
X5712600Y6329300D01*
G04 #@! TO.C,R99*
X5611000Y6507100D02*
X5687200Y6507100D01*
X5611000Y6329300D02*
X5611000Y6507100D01*
X5687200Y6507100D02*
X5687200Y6329300D01*
X5687200Y6329300D02*
X5611000Y6329300D01*
G04 #@! TO.C,R100*
X5509400Y6507100D02*
X5585600Y6507100D01*
X5509400Y6329300D02*
X5509400Y6507100D01*
X5585600Y6507100D02*
X5585600Y6329300D01*
X5585600Y6329300D02*
X5509400Y6329300D01*
G04 #@! TO.C,R104*
X5601520Y2507500D02*
X5779320Y2507500D01*
X5601520Y2431300D02*
X5601520Y2507500D01*
X5779320Y2507500D02*
X5779320Y2431300D01*
X5779320Y2431300D02*
X5601520Y2431300D01*
G04 #@! TO.C,R105*
X6020620Y2837700D02*
X6096820Y2837700D01*
X6020620Y2659900D02*
X6020620Y2837700D01*
X6096820Y2837700D02*
X6096820Y2659900D01*
X6096820Y2659900D02*
X6020620Y2659900D01*
G04 #@! TO.C,SW1*
X-1140000Y7005000D02*
X-1140000Y6655000D01*
X-1140000Y6655000D02*
X-1110000Y6655000D01*
X-1110000Y7180000D02*
X-1110000Y6480000D01*
X-1110000Y7180000D02*
X-450000Y7180000D01*
X-1110000Y7005000D02*
X-1140000Y7005000D01*
X-740000Y7180000D02*
X-740000Y6480000D01*
X-450000Y7180000D02*
X-450000Y7140000D01*
X-450000Y7140000D02*
X-740000Y7140000D01*
X-450000Y6520000D02*
X-740000Y6520000D01*
X-450000Y6480000D02*
X-1110000Y6480000D01*
X-450000Y6480000D02*
X-450000Y6520000D01*
G04 #@! TO.C,SW2*
X-1140000Y8305000D02*
X-1140000Y7955000D01*
X-1140000Y7955000D02*
X-1110000Y7955000D01*
X-1110000Y8480000D02*
X-1110000Y7780000D01*
X-1110000Y8480000D02*
X-450000Y8480000D01*
X-1110000Y8305000D02*
X-1140000Y8305000D01*
X-740000Y8480000D02*
X-740000Y7780000D01*
X-450000Y8480000D02*
X-450000Y8440000D01*
X-450000Y8440000D02*
X-740000Y8440000D01*
X-450000Y7820000D02*
X-740000Y7820000D01*
X-450000Y7780000D02*
X-1110000Y7780000D01*
X-450000Y7780000D02*
X-450000Y7820000D01*
G04 #@! TO.C,T1*
X2331016Y2963542D02*
X2331016Y2753738D01*
X2461064Y2963542D02*
X2331016Y2963542D01*
X2461064Y2753738D02*
X2331016Y2753738D01*
X2461064Y2753738D02*
X2461064Y2963542D01*
X2403224Y2793616D02*
G75*
G02*
X2388856Y2793616I-7184J0D01*
G01*
X2388856Y2793616D02*
G75*
G02*
X2403224Y2793616I7184J0D01*
G01*
G04 #@! TO.C,T2*
X2847398Y3507864D02*
X2847398Y3377816D01*
X2847398Y3377816D02*
X3057202Y3377816D01*
X3057202Y3507864D02*
X2847398Y3507864D01*
X3057202Y3507864D02*
X3057202Y3377816D01*
X3024508Y3442840D02*
G75*
G02*
X3010140Y3442840I-7184J0D01*
G01*
X3010140Y3442840D02*
G75*
G02*
X3024508Y3442840I7184J0D01*
G01*
G04 #@! TO.C,T3*
X3590672Y4195100D02*
X3670428Y4195100D01*
X3590672Y4035080D02*
X3590672Y4195100D01*
X3590672Y4035080D02*
X3630550Y4035080D01*
X3670428Y4195100D02*
X3670428Y4065052D01*
X3670428Y4035080D02*
X3660522Y4035080D01*
G04 #@! TO.C,T4*
X3895472Y4195100D02*
X3975228Y4195100D01*
X3895472Y4035080D02*
X3895472Y4195100D01*
X3895472Y4035080D02*
X3935350Y4035080D01*
X3975228Y4195100D02*
X3975228Y4065052D01*
X3975228Y4035080D02*
X3965322Y4035080D01*
G04 #@! TO.C,U3*
X876400Y5050780D02*
X876400Y4989820D01*
D17*
X897990Y4979660D02*
X897990Y4969500D01*
D10*
X958188Y5019538D02*
X1007972Y5019538D01*
X962760Y5050780D02*
X876400Y5050780D01*
X1007972Y4934702D02*
X958188Y4934702D01*
D17*
X1068170Y4979660D02*
X1068170Y4969500D01*
D10*
G04 #@! TO.C,U4*
X1892040Y3743640D02*
X1892040Y3698640D01*
X1892040Y3288640D02*
X1892040Y3243640D01*
X1892040Y3243640D02*
X1937040Y3243640D01*
X1937040Y3743640D02*
X1892040Y3743640D01*
X2347040Y3243640D02*
X2392040Y3243640D01*
X2357040Y3743640D02*
X2347040Y3743640D01*
X2392040Y3708640D02*
X2357040Y3743640D01*
X2392040Y3698140D02*
X2392040Y3708640D01*
X2392040Y3243640D02*
X2392040Y3288640D01*
G04 #@! TO.C,U8*
X995780Y5426700D02*
X1077060Y5426700D01*
X1077060Y5538460D02*
X995780Y5538460D01*
X1077060Y5426700D02*
X1077060Y5538460D01*
D17*
G04 #@! TO.C,U9*
X590100Y4674600D02*
X590100Y4684600D01*
X590100Y4634600D02*
X590100Y4644600D01*
X590100Y4594600D02*
X590100Y4604600D01*
X590100Y4564600D02*
X715100Y4564600D01*
X740100Y4714600D02*
X590100Y4714600D01*
X740100Y4684600D02*
X740100Y4674600D01*
X740100Y4644600D02*
X740100Y4634600D01*
X740100Y4604600D02*
X740100Y4594600D01*
X754242Y4544600D02*
G75*
G02*
X725958Y4544600I-14142J0D01*
G01*
X725958Y4544600D02*
G75*
G02*
X754242Y4544600I14142J0D01*
G01*
G04 #@! TO.C,U12*
X576000Y3964100D02*
X576000Y3814100D01*
X606000Y3964100D02*
X616000Y3964100D01*
X616000Y3814100D02*
X606000Y3814100D01*
X646000Y3964100D02*
X656000Y3964100D01*
X656000Y3814100D02*
X646000Y3814100D01*
X686000Y3964100D02*
X696000Y3964100D01*
X696000Y3814100D02*
X686000Y3814100D01*
X726000Y3814100D02*
X726000Y3939100D01*
X760142Y3964100D02*
G75*
G02*
X731858Y3964100I-14142J0D01*
G01*
X731858Y3964100D02*
G75*
G02*
X760142Y3964100I14142J0D01*
G01*
G04 #@! TO.C,U14*
X331260Y3433240D02*
X331260Y3308240D01*
X361260Y3433240D02*
X371260Y3433240D01*
X371260Y3283240D02*
X361260Y3283240D01*
X401260Y3433240D02*
X411260Y3433240D01*
X411260Y3283240D02*
X401260Y3283240D01*
X441260Y3433240D02*
X451260Y3433240D01*
X451260Y3283240D02*
X441260Y3283240D01*
X481260Y3283240D02*
X481260Y3433240D01*
X325402Y3283240D02*
G75*
G02*
X297118Y3283240I-14142J0D01*
G01*
X297118Y3283240D02*
G75*
G02*
X325402Y3283240I14142J0D01*
G01*
D10*
G04 #@! TO.C,U17*
X3444876Y5380264D02*
X3484754Y5380264D01*
X3444876Y5340386D02*
X3444876Y5380264D01*
X3484754Y4780316D02*
X3444876Y4820194D01*
X4004946Y5380264D02*
X4044824Y5380264D01*
X4044824Y5380264D02*
X4044824Y5340386D01*
X4044824Y4820194D02*
X4044824Y4780316D01*
X4044824Y4780316D02*
X4004946Y4780316D01*
G04 #@! TO.C,U18*
X2819528Y8373832D02*
X2819528Y8333700D01*
X2819528Y7713940D02*
X2859660Y7673808D01*
X2859660Y8373832D02*
X2819528Y8373832D01*
X3479420Y7673808D02*
X3519552Y7673808D01*
X3519552Y8373832D02*
X3479420Y8373832D01*
X3519552Y8333700D02*
X3519552Y8373832D01*
X3519552Y7673808D02*
X3519552Y7713940D01*
G04 #@! TO.C,U19*
X5427022Y3177298D02*
X5427022Y3137420D01*
X5427022Y2817380D02*
X5466900Y2777502D01*
X5466900Y3177298D02*
X5427022Y3177298D01*
X5786940Y2777502D02*
X5826818Y2777502D01*
X5826818Y3177298D02*
X5786940Y3177298D01*
X5826818Y3137420D02*
X5826818Y3177298D01*
X5826818Y2777502D02*
X5826818Y2817380D01*
G04 #@! TO.C,U20*
X8688960Y3671860D02*
X8688960Y3138460D01*
X8688960Y3138460D02*
X9222360Y3138460D01*
X9222360Y3671860D02*
X8688960Y3671860D01*
X9222360Y3138460D02*
X9222360Y3671860D01*
X9171560Y3240060D02*
G75*
G02*
X9069960Y3240060I-50800J0D01*
G01*
X9069960Y3240060D02*
G75*
G02*
X9171560Y3240060I50800J0D01*
G01*
G04 #@! TO.C,U21*
X9682886Y8224994D02*
X9682886Y8199848D01*
X9682886Y7949912D02*
X9682886Y7924766D01*
X9682886Y7924766D02*
X9758070Y7924766D01*
X9758070Y8224994D02*
X9682886Y8224994D01*
X9907930Y7924766D02*
X9983114Y7924766D01*
X9983114Y8224994D02*
X9907930Y8224994D01*
X9983114Y8199848D02*
X9983114Y8224994D01*
X9983114Y7949912D02*
X9983114Y7924766D01*
X10032898Y7899874D02*
G75*
G02*
X9983114Y7899874I-24892J0D01*
G01*
X9983114Y7899874D02*
G75*
G02*
X10032898Y7899874I24892J0D01*
G01*
D15*
G04 #@! TO.C,U23*
X6249040Y5255573D02*
X6372788Y5131825D01*
X6372788Y5379321D02*
X6249040Y5255573D01*
X7681031Y3823581D02*
X7804779Y3699833D01*
X7804779Y6811313D02*
X7681031Y6687565D01*
X7804779Y3699833D02*
X7928527Y3823581D01*
X7928527Y6687565D02*
X7804779Y6811313D01*
X9236771Y5379321D02*
X9360519Y5255573D01*
X9360519Y5255573D02*
X9236771Y5131825D01*
X9117189Y5255573D02*
G75*
G02*
X8967329Y5255573I-74930J0D01*
G01*
X8967329Y5255573D02*
G75*
G02*
X9117189Y5255573I74930J0D01*
G01*
G04 #@! TO.C,U24*
X4754500Y8368320D02*
X4754500Y8218206D01*
X4754500Y6918234D02*
X4754500Y6768120D01*
X4754500Y6768120D02*
X4904614Y6768120D01*
X4904614Y8368320D02*
X4754500Y8368320D01*
X6204586Y6768120D02*
X6354700Y6768120D01*
X6354700Y8368320D02*
X6204586Y8368320D01*
X6354700Y8218206D02*
X6354700Y8368320D01*
X6354700Y6768120D02*
X6354700Y6918234D01*
X6204586Y8143276D02*
G75*
G02*
X6054726Y8143276I-74930J0D01*
G01*
X6054726Y8143276D02*
G75*
G02*
X6204586Y8143276I74930J0D01*
G01*
D10*
G04 #@! TO.C,X1*
X5222552Y2368308D02*
X5222552Y2418092D01*
X5357426Y2553220D02*
X5337614Y2553220D01*
X5357426Y2233180D02*
X5337614Y2233180D01*
X5472488Y2368308D02*
X5472488Y2418092D01*
G04 #@! TO.C,X2*
X9088777Y5914903D02*
X9074767Y5928913D01*
X9088956Y6105824D02*
X9124159Y6141026D01*
X9265688Y5929092D02*
X9300890Y5964295D01*
X9315079Y6141206D02*
X9301070Y6155215D01*
G04 #@! TO.C,X3*
X8960000Y4010000D02*
X9720000Y4010000D01*
X8960000Y3830000D02*
X8960000Y4010000D01*
X9720000Y4010000D02*
X9720000Y3830000D01*
X9720000Y3830000D02*
X8960000Y3830000D01*
G04 #@! TO.C,P51*
X1014336Y3040630D02*
G75*
G02*
X872096Y3040630I-71120J0D01*
G01*
X872096Y3040630D02*
G75*
G02*
X1014336Y3040630I71120J0D01*
G01*
G04 #@! TO.C,C62*
X548500Y3326380D02*
X726300Y3326380D01*
X548500Y3250180D02*
X548500Y3326380D01*
X726300Y3326380D02*
X726300Y3250180D01*
X726300Y3250180D02*
X548500Y3250180D01*
G04 #@! TO.C,C161*
X1043800Y3803900D02*
X1120000Y3803900D01*
X1043800Y3626100D02*
X1043800Y3803900D01*
X1120000Y3803900D02*
X1120000Y3626100D01*
X1120000Y3626100D02*
X1043800Y3626100D01*
G04 #@! TO.C,R36*
X581520Y2470400D02*
X657720Y2470400D01*
X581520Y2292600D02*
X581520Y2470400D01*
X657720Y2470400D02*
X657720Y2292600D01*
X657720Y2292600D02*
X581520Y2292600D01*
G04 #@! TO.C,C117*
X119240Y3572760D02*
X297040Y3572760D01*
X119240Y3496560D02*
X119240Y3572760D01*
X297040Y3572760D02*
X297040Y3496560D01*
X297040Y3496560D02*
X119240Y3496560D01*
G04 #@! TO.C,C172*
X-94120Y3293360D02*
X-17920Y3293360D01*
X-94120Y3115560D02*
X-94120Y3293360D01*
X-17920Y3293360D02*
X-17920Y3115560D01*
X-17920Y3115560D02*
X-94120Y3115560D01*
G04 #@! TO.C,R38*
X-25540Y3471160D02*
X152260Y3471160D01*
X-25540Y3394960D02*
X-25540Y3471160D01*
X152260Y3471160D02*
X152260Y3394960D01*
X152260Y3394960D02*
X-25540Y3394960D01*
G04 #@! TO.C,R39*
X88760Y2775200D02*
X266560Y2775200D01*
X88760Y2699000D02*
X88760Y2775200D01*
X266560Y2775200D02*
X266560Y2699000D01*
X266560Y2699000D02*
X88760Y2699000D01*
G04 #@! TO.C,R40*
X83680Y3128260D02*
X261480Y3128260D01*
X83680Y3052060D02*
X83680Y3128260D01*
X261480Y3128260D02*
X261480Y3052060D01*
X261480Y3052060D02*
X83680Y3052060D01*
G04 #@! TO.C,C173*
X101460Y2655820D02*
X177660Y2655820D01*
X101460Y2478020D02*
X101460Y2655820D01*
X177660Y2655820D02*
X177660Y2478020D01*
X177660Y2478020D02*
X101460Y2478020D01*
G04 #@! TO.C,R42*
X-96660Y2871720D02*
X-20460Y2871720D01*
X-96660Y2693920D02*
X-96660Y2871720D01*
X-20460Y2871720D02*
X-20460Y2693920D01*
X-20460Y2693920D02*
X-96660Y2693920D01*
G04 #@! TO.C,R43*
X-94120Y3085080D02*
X-17920Y3085080D01*
X-94120Y2907280D02*
X-94120Y3085080D01*
X-17920Y3085080D02*
X-17920Y2907280D01*
X-17920Y2907280D02*
X-94120Y2907280D01*
G04 #@! TO.C,R44*
X-12840Y2655820D02*
X63360Y2655820D01*
X-12840Y2478020D02*
X-12840Y2655820D01*
X63360Y2655820D02*
X63360Y2478020D01*
X63360Y2478020D02*
X-12840Y2478020D01*
G04 #@! TO.C,L14*
X-246520Y2919980D02*
X-246520Y2645660D01*
X-246520Y2645660D02*
X-124600Y2645660D01*
X-124600Y2919980D02*
X-246520Y2919980D01*
X-124600Y2645660D02*
X-124600Y2919980D01*
D18*
G04 #@! TO.C,U13*
X-50340Y3935680D02*
X149660Y3935680D01*
X-49340Y3707680D02*
X150660Y3707680D01*
X-86340Y3928680D02*
X-114340Y3928680D01*
X-86340Y3956680D01*
X-86340Y3928680D01*
G36*
X-86340Y3928680D02*
G01*
X-114340Y3928680D01*
X-86340Y3956680D01*
X-86340Y3928680D01*
G37*
G04 #@! TO.C,U25*
X790100Y3690540D02*
X790100Y3490540D01*
X1018100Y3691540D02*
X1018100Y3491540D01*
X1039100Y3727540D02*
X1011100Y3727540D01*
X1011100Y3755540D01*
X1039100Y3727540D01*
G36*
X1039100Y3727540D02*
G01*
X1011100Y3727540D01*
X1011100Y3755540D01*
X1039100Y3727540D01*
G37*
D10*
G04 #@! TO.C,P49*
X477380Y3715000D02*
G75*
G02*
X335140Y3715000I-71120J0D01*
G01*
X335140Y3715000D02*
G75*
G02*
X477380Y3715000I71120J0D01*
G01*
G04 #@! TO.C,P90*
X149720Y7047480D02*
G75*
G02*
X7480Y7047480I-71120J0D01*
G01*
X7480Y7047480D02*
G75*
G02*
X149720Y7047480I71120J0D01*
G01*
D19*
G04 #@! TO.C,U5*
X564502Y5278878D02*
X664578Y5278878D01*
X564502Y5178802D02*
X564502Y5278878D01*
X664578Y5278878D02*
X664578Y5178802D01*
X664578Y5178802D02*
X564502Y5178802D01*
X568605Y5168896D02*
G75*
G02*
X540587Y5168896I-14009J0D01*
G01*
X540587Y5168896D02*
G75*
G02*
X568605Y5168896I14009J0D01*
G01*
D10*
G04 #@! TO.C,P45*
X416420Y5386320D02*
G75*
G02*
X274180Y5386320I-71120J0D01*
G01*
X274180Y5386320D02*
G75*
G02*
X416420Y5386320I71120J0D01*
G01*
D19*
G04 #@! TO.C,U6*
X1283322Y5276338D02*
X1383398Y5276338D01*
X1283322Y5176262D02*
X1283322Y5276338D01*
X1383398Y5276338D02*
X1383398Y5176262D01*
X1383398Y5176262D02*
X1283322Y5176262D01*
X1407313Y5286244D02*
G75*
G02*
X1379295Y5286244I-14009J0D01*
G01*
X1379295Y5286244D02*
G75*
G02*
X1407313Y5286244I14009J0D01*
G01*
D10*
G04 #@! TO.C,C10*
X1554340Y4959940D02*
X1732140Y4959940D01*
X1554340Y4883740D02*
X1554340Y4959940D01*
X1732140Y4959940D02*
X1732140Y4883740D01*
X1732140Y4883740D02*
X1554340Y4883740D01*
G04 #@! TO.C,C29*
X457060Y5528560D02*
X533260Y5528560D01*
X457060Y5350760D02*
X457060Y5528560D01*
X533260Y5528560D02*
X533260Y5350760D01*
X533260Y5350760D02*
X457060Y5350760D01*
D19*
G04 #@! TO.C,U1*
X3376282Y2614418D02*
X3476358Y2614418D01*
X3376282Y2514342D02*
X3376282Y2614418D01*
X3476358Y2614418D02*
X3476358Y2514342D01*
X3476358Y2514342D02*
X3376282Y2514342D01*
X3500273Y2624324D02*
G75*
G02*
X3472255Y2624324I-14009J0D01*
G01*
X3472255Y2624324D02*
G75*
G02*
X3500273Y2624324I14009J0D01*
G01*
G04 #@! TO.C,U2*
X1824342Y4839458D02*
X1924418Y4839458D01*
X1824342Y4739382D02*
X1824342Y4839458D01*
X1924418Y4839458D02*
X1924418Y4739382D01*
X1924418Y4739382D02*
X1824342Y4739382D01*
X1828445Y4849364D02*
G75*
G02*
X1800427Y4849364I-14009J0D01*
G01*
X1800427Y4849364D02*
G75*
G02*
X1828445Y4849364I14009J0D01*
G01*
G04 #@! TO.C,U7*
X2728582Y2695698D02*
X2828658Y2695698D01*
X2728582Y2595622D02*
X2728582Y2695698D01*
X2828658Y2695698D02*
X2828658Y2595622D01*
X2828658Y2595622D02*
X2728582Y2595622D01*
X2732685Y2705604D02*
G75*
G02*
X2704667Y2705604I-14009J0D01*
G01*
X2704667Y2705604D02*
G75*
G02*
X2732685Y2705604I14009J0D01*
G01*
G04 #@! TO.C,U10*
X3424542Y3503418D02*
X3524618Y3503418D01*
X3424542Y3403342D02*
X3424542Y3503418D01*
X3524618Y3503418D02*
X3524618Y3403342D01*
X3524618Y3403342D02*
X3424542Y3403342D01*
X3428645Y3393436D02*
G75*
G02*
X3400627Y3393436I-14009J0D01*
G01*
X3400627Y3393436D02*
G75*
G02*
X3428645Y3393436I14009J0D01*
G01*
G04 #@! TO.C,U11*
X3792842Y3693918D02*
X3892918Y3693918D01*
X3792842Y3593842D02*
X3792842Y3693918D01*
X3892918Y3693918D02*
X3892918Y3593842D01*
X3892918Y3593842D02*
X3792842Y3593842D01*
X3796945Y3703824D02*
G75*
G02*
X3768927Y3703824I-14009J0D01*
G01*
X3768927Y3703824D02*
G75*
G02*
X3796945Y3703824I14009J0D01*
G01*
G04 #@! TO.C,D13*
X-265240Y3654980D02*
X-65240Y3654980D01*
X-265240Y3454980D02*
X-265240Y3654980D01*
X-65240Y3654980D02*
X-65240Y3454980D01*
X-65240Y3454980D02*
X-265240Y3454980D01*
G04 #@! TO.C,D11*
X131000Y3014900D02*
X331000Y3014900D01*
X131000Y2814900D02*
X131000Y3014900D01*
X331000Y3014900D02*
X331000Y2814900D01*
X331000Y2814900D02*
X131000Y2814900D01*
G04 #@! TO.C,D12*
X16700Y3357800D02*
X216700Y3357800D01*
X16700Y3157800D02*
X16700Y3357800D01*
X216700Y3357800D02*
X216700Y3157800D01*
X216700Y3157800D02*
X16700Y3157800D01*
D10*
G04 #@! TO.C,MARK1MM*
X1610360Y2546600D02*
G75*
G02*
X1310360Y2546600I-150000J0D01*
G01*
X1310360Y2546600D02*
G75*
G02*
X1610360Y2546600I150000J0D01*
G01*
X4653280Y6742680D02*
G75*
G02*
X4353280Y6742680I-150000J0D01*
G01*
X4353280Y6742680D02*
G75*
G02*
X4653280Y6742680I150000J0D01*
G01*
D18*
G04 #@! TO.C,D1*
X10020922Y2708696D02*
X9955922Y2708696D01*
X10020922Y2708696D02*
X10085922Y2708696D01*
X10020922Y2396696D02*
X9955922Y2396696D01*
X10020922Y2396696D02*
X10085922Y2396696D01*
X10161172Y2368696D02*
X10113172Y2368696D01*
X10137172Y2401696D01*
X10161172Y2368696D01*
G36*
X10161172Y2368696D02*
G01*
X10113172Y2368696D01*
X10137172Y2401696D01*
X10161172Y2368696D01*
G37*
G04 #@! TO.C,D3*
X10093312Y3251494D02*
X10028312Y3251494D01*
X10093312Y3251494D02*
X10158312Y3251494D01*
X10093312Y2939494D02*
X10028312Y2939494D01*
X10093312Y2939494D02*
X10158312Y2939494D01*
X10233562Y2911494D02*
X10185562Y2911494D01*
X10209562Y2944494D01*
X10233562Y2911494D01*
G36*
X10233562Y2911494D02*
G01*
X10185562Y2911494D01*
X10209562Y2944494D01*
X10233562Y2911494D01*
G37*
G04 #@! TO.C,D10*
X12500Y2440000D02*
X12500Y2360000D01*
X35500Y2442000D02*
X159500Y2442000D01*
X159500Y2358000D01*
X35500Y2358000D01*
X35500Y2442000D01*
D10*
G04 #@! TO.C,R29*
X10371900Y7658900D02*
X10448100Y7658900D01*
X10371900Y7481100D02*
X10371900Y7658900D01*
X10448100Y7658900D02*
X10448100Y7481100D01*
X10448100Y7481100D02*
X10371900Y7481100D01*
G04 #@! TO.C,R12*
X9661900Y5908900D02*
X9738100Y5908900D01*
X9661900Y5731100D02*
X9661900Y5908900D01*
X9738100Y5908900D02*
X9738100Y5731100D01*
X9738100Y5731100D02*
X9661900Y5731100D01*
G04 #@! TO.C,R35*
X9531900Y5668900D02*
X9608100Y5668900D01*
X9531900Y5491100D02*
X9531900Y5668900D01*
X9608100Y5668900D02*
X9608100Y5491100D01*
X9608100Y5491100D02*
X9531900Y5491100D01*
D20*
G04 #@! TO.C,L15*
X9674000Y7007000D02*
X9675000Y7007000D01*
X9674000Y6975000D02*
X9674000Y7007000D01*
X9674000Y6744000D02*
X9674000Y6777000D01*
X9675000Y7007000D02*
X9799000Y7007000D01*
X9799000Y7007000D02*
X9806000Y7007000D01*
X9806000Y7007000D02*
X9806000Y6975000D01*
X9806000Y6775000D02*
X9806000Y6743000D01*
X9806000Y6743000D02*
X9674000Y6743000D01*
D10*
G04 #@! TO.C,R24*
X10481900Y7658900D02*
X10558100Y7658900D01*
X10481900Y7481100D02*
X10481900Y7658900D01*
X10558100Y7658900D02*
X10558100Y7481100D01*
X10558100Y7481100D02*
X10481900Y7481100D01*
G04 #@! TO.C,R45*
X9661900Y5668900D02*
X9738100Y5668900D01*
X9661900Y5491100D02*
X9661900Y5668900D01*
X9738100Y5668900D02*
X9738100Y5491100D01*
X9738100Y5491100D02*
X9661900Y5491100D01*
D21*
G04 #@! TO.C,J11*
X10587750Y7322100D02*
X10401350Y7322100D01*
X10587750Y6428100D02*
X10401450Y6428100D01*
X10959550Y7322100D02*
X10811350Y7322100D01*
X10959550Y7322100D02*
X10959550Y6428100D01*
X10959550Y6428100D02*
X10811450Y6428100D01*
G04 #@! TD*
D22*
G04 #@! TO.C,P1*
X7389000Y7993000D03*
D23*
X7643000Y7993000D03*
G04 #@! TD*
D22*
G04 #@! TO.C,P3*
X7389000Y7485000D03*
D23*
X7389000Y7231000D03*
G04 #@! TD*
D22*
G04 #@! TO.C,P5*
X2055000Y8755000D03*
D23*
X2055000Y8501000D03*
X1801000Y8755000D03*
X1801000Y8501000D03*
X1547000Y8755000D03*
X1547000Y8501000D03*
G04 #@! TD*
D22*
G04 #@! TO.C,P8*
X8659000Y7993000D03*
D23*
X8913000Y7993000D03*
G04 #@! TD*
D22*
G04 #@! TO.C,P9*
X3579000Y6469000D03*
D23*
X3579000Y6215000D03*
X3325000Y6469000D03*
X3325000Y6215000D03*
X3071000Y6469000D03*
X3071000Y6215000D03*
X2817000Y6469000D03*
X2817000Y6215000D03*
X2563000Y6469000D03*
X2563000Y6215000D03*
X2309000Y6469000D03*
X2309000Y6215000D03*
X2055000Y6469000D03*
X2055000Y6215000D03*
X1801000Y6469000D03*
X1801000Y6215000D03*
G04 #@! TD*
D22*
G04 #@! TO.C,P20*
X10183000Y3675000D03*
D23*
X9929000Y3675000D03*
X10183000Y3929000D03*
X9929000Y3929000D03*
X10183000Y4183000D03*
X9929000Y4183000D03*
X10183000Y4437000D03*
X9929000Y4437000D03*
X10183000Y4691000D03*
X9929000Y4691000D03*
X10183000Y4945000D03*
X9929000Y4945000D03*
X10183000Y5199000D03*
X9929000Y5199000D03*
X10183000Y5453000D03*
X9929000Y5453000D03*
X10183000Y5707000D03*
X9929000Y5707000D03*
X10183000Y5961000D03*
X9929000Y5961000D03*
X10183000Y6215000D03*
X9929000Y6215000D03*
G04 #@! TD*
D22*
G04 #@! TO.C,P22*
X9675000Y2913000D03*
D23*
X9675000Y2659000D03*
X9421000Y2913000D03*
X9421000Y2659000D03*
X9167000Y2913000D03*
X9167000Y2659000D03*
X8913000Y2913000D03*
X8913000Y2659000D03*
X8659000Y2913000D03*
X8659000Y2659000D03*
X8405000Y2913000D03*
X8405000Y2659000D03*
X8151000Y2913000D03*
X8151000Y2659000D03*
X7897000Y2913000D03*
X7897000Y2659000D03*
X7643000Y2913000D03*
X7643000Y2659000D03*
X7389000Y2913000D03*
X7389000Y2659000D03*
X7135000Y2913000D03*
X7135000Y2659000D03*
X6881000Y2913000D03*
X6881000Y2659000D03*
X6627000Y2913000D03*
X6627000Y2659000D03*
G04 #@! TD*
D22*
G04 #@! TO.C,P25*
X6627000Y3421000D03*
D23*
X6881000Y3421000D03*
X7135000Y3421000D03*
X7389000Y3421000D03*
X7643000Y3421000D03*
X7897000Y3421000D03*
G04 #@! TD*
D22*
G04 #@! TO.C,P28*
X5357000Y3675000D03*
D23*
X5103000Y3675000D03*
X5357000Y3929000D03*
X5103000Y3929000D03*
X5357000Y4183000D03*
X5103000Y4183000D03*
X5357000Y4437000D03*
X5103000Y4437000D03*
X5357000Y4691000D03*
X5103000Y4691000D03*
X5357000Y4945000D03*
X5103000Y4945000D03*
X5357000Y5199000D03*
X5103000Y5199000D03*
X5357000Y5453000D03*
X5103000Y5453000D03*
X5357000Y5707000D03*
X5103000Y5707000D03*
X5357000Y5961000D03*
X5103000Y5961000D03*
X5357000Y6215000D03*
X5103000Y6215000D03*
G04 #@! TD*
D22*
G04 #@! TO.C,P29*
X5865000Y5961000D03*
D23*
X6119000Y5961000D03*
G04 #@! TD*
D22*
G04 #@! TO.C,P30*
X8913000Y8755000D03*
D23*
X8913000Y8501000D03*
X8659000Y8755000D03*
X8659000Y8501000D03*
X8405000Y8755000D03*
X8405000Y8501000D03*
X8151000Y8755000D03*
X8151000Y8501000D03*
X7897000Y8755000D03*
X7897000Y8501000D03*
X7643000Y8755000D03*
X7643000Y8501000D03*
X7389000Y8755000D03*
X7389000Y8501000D03*
X7135000Y8755000D03*
X7135000Y8501000D03*
X6881000Y8755000D03*
X6881000Y8501000D03*
X6627000Y8755000D03*
X6627000Y8501000D03*
G04 #@! TD*
D22*
G04 #@! TO.C,P36*
X1293000Y6469000D03*
D23*
X1293000Y6723000D03*
G04 #@! TD*
D22*
G04 #@! TO.C,P80*
X10691000Y6215000D03*
D23*
X10691000Y5961000D03*
G04 #@! TD*
G36*
X5083712Y9142640D02*
G01*
X5088361Y9137274D01*
X5089500Y9132040D01*
X5089500Y8657240D01*
X5087500Y8650428D01*
X5082134Y8645779D01*
X5076900Y8644640D01*
X3402100Y8644640D01*
X3395288Y8646640D01*
X3390639Y8652006D01*
X3389500Y8657240D01*
X3389500Y9132040D01*
X3391500Y9138852D01*
X3396866Y9143501D01*
X3402100Y9144640D01*
X5076900Y9144640D01*
X5083712Y9142640D01*
G37*
M02*
