G04 #@! TF.GenerationSoftware,KiCad,Pcbnew,8.0.4*
G04 #@! TF.CreationDate,2024-12-03T18:33:22+11:00*
G04 #@! TF.ProjectId,hackrf-one,6861636b-7266-42d6-9f6e-652e6b696361,rev?*
G04 #@! TF.SameCoordinates,PX393df48PYa6d9c50*
G04 #@! TF.FileFunction,Profile,NP*
%FSLAX45Y45*%
G04 Gerber Fmt 4.5, Leading zero omitted, Abs format (unit mm)*
G04 Created by KiCad (PCBNEW 8.0.4) date 2024-12-03 18:33:22*
%MOMM*%
%LPD*%
G01*
G04 APERTURE LIST*
G04 #@! TA.AperFunction,Profile*
%ADD10C,0.381000*%
G04 #@! TD*
G04 APERTURE END LIST*
D10*
X-1061934Y3676066D02*
G75*
G02*
X-1018000Y3570000I-106066J-106066D01*
G01*
X10778000Y5170000D02*
X10778000Y2570000D01*
X-720000Y1770000D02*
X10480000Y1770000D01*
X-1076000Y2650000D02*
X-1062000Y2664000D01*
X-1120000Y3796000D02*
X-1120000Y8870000D01*
X10778000Y5170000D02*
G75*
G02*
X10821934Y5276066I150000J0D01*
G01*
X10822000Y2464000D02*
X10836000Y2450000D01*
X-1120000Y2544000D02*
G75*
G02*
X-1076066Y2650066I150000J0D01*
G01*
X-1062000Y3676000D02*
X-1076000Y3690000D01*
X10880000Y7152500D02*
X10880000Y7062500D01*
X-1018000Y2770000D02*
G75*
G02*
X-1061934Y2663934I-150000J0D01*
G01*
X-1120000Y8870000D02*
G75*
G02*
X-720000Y9270000I400000J0D01*
G01*
X-720000Y1770000D02*
G75*
G02*
X-1120000Y2170000I0J400000D01*
G01*
X10880000Y2170000D02*
X10880000Y2344000D01*
X10836066Y2450066D02*
G75*
G02*
X10880000Y2344000I-106066J-106066D01*
G01*
X-1076066Y3689934D02*
G75*
G02*
X-1120000Y3796000I106066J106066D01*
G01*
X10880000Y6677500D02*
X10880000Y6587500D01*
X10880000Y6587500D02*
X10880000Y5396000D01*
X10480000Y9270000D02*
X-720000Y9270000D01*
X10822000Y5276000D02*
X10836000Y5290000D01*
X10880000Y8870000D02*
X10880000Y7152500D01*
X-1120000Y2544000D02*
X-1120000Y2170000D01*
X-1018000Y3570000D02*
X-1018000Y2770000D01*
X10480000Y9270000D02*
G75*
G02*
X10880000Y8870000I0J-400000D01*
G01*
X10880000Y2170000D02*
G75*
G02*
X10480000Y1770000I-400000J0D01*
G01*
X10821934Y2463934D02*
G75*
G02*
X10778000Y2570000I106066J106066D01*
G01*
X10880000Y5396000D02*
G75*
G02*
X10836066Y5289934I-150000J0D01*
G01*
X10880000Y7062500D02*
X10880000Y6677500D01*
M02*
